<svg width="148" height="168" viewBox="0 0 148 168" fill="none" xmlns="http://www.w3.org/2000/svg">
<g clip-path="url(#clip0_152_19410)">
<path d="M34.3444 157.08C34.5539 158.208 34.5389 159.366 34.3004 160.487C34.0618 161.609 33.6043 162.673 32.9541 163.617C32.3039 164.562 31.4737 165.369 30.5111 165.993C29.5485 166.616 28.4724 167.043 27.3444 167.25C26.2169 167.46 25.0591 167.445 23.9373 167.206C22.8156 166.968 21.7519 166.51 20.8073 165.86C19.8626 165.21 19.0555 164.38 18.4321 163.417C17.8087 162.454 17.3813 161.378 17.1744 160.25L12.8644 137.25C12.655 136.123 12.67 134.966 12.9087 133.845C13.1474 132.724 13.605 131.661 14.2553 130.717C14.9056 129.773 15.7359 128.967 16.6984 128.345C17.6609 127.722 18.7368 127.296 19.8644 127.09C20.992 126.879 22.1502 126.893 23.2725 127.131C24.3947 127.369 25.4589 127.827 26.4039 128.477C27.3489 129.128 28.156 129.958 28.7791 130.922C29.4021 131.885 29.8287 132.962 30.0344 134.09L34.3444 157.08Z" fill="#003D7C"/>
<path d="M147.444 135.87C147.655 136.998 147.641 138.156 147.403 139.278C147.165 140.401 146.707 141.465 146.057 142.41C145.407 143.355 144.576 144.162 143.613 144.785C142.649 145.408 141.573 145.835 140.444 146.04C139.316 146.25 138.159 146.235 137.037 145.996C135.915 145.758 134.851 145.3 133.907 144.65C132.962 144 132.155 143.17 131.532 142.207C130.908 141.244 130.481 140.168 130.274 139.04L125.964 116.04C125.753 114.913 125.767 113.755 126.005 112.632C126.243 111.51 126.7 110.446 127.351 109.501C128.001 108.556 128.832 107.749 129.795 107.126C130.758 106.503 131.835 106.076 132.964 105.87C134.092 105.659 135.25 105.673 136.372 105.911C137.494 106.149 138.558 106.607 139.503 107.257C140.448 107.908 141.256 108.738 141.879 109.702C142.502 110.665 142.928 111.742 143.134 112.87L147.444 135.87Z" fill="#003D7C"/>
<path d="M14.4046 145.27L144.635 120.86L134.885 68.8604C134.885 68.8604 132.575 63.2304 127.305 61.9104L119.305 19.0404C119.305 19.0404 115.575 -2.84965 97.9846 0.470347L13.4545 16.3203C13.4545 16.3203 -3.27541 18.6303 0.624588 39.4503C4.52459 60.2703 8.85457 83.3303 8.85457 83.3303C8.85457 83.3303 3.52457 87.2703 4.35457 91.7103C5.18457 96.1503 14.4046 145.27 14.4046 145.27Z" fill="#2782B9"/>
<path d="M137.013 110.35L18.5078 132.57L19.3795 137.219L137.884 114.999L137.013 110.35Z" fill="#003D7C"/>
<path d="M93.3179 121.996L61.1387 128.03L62.6831 136.266L94.8622 130.232L93.3179 121.996Z" fill="#003D7C"/>
<path d="M130.874 74.1903C131.183 75.8447 130.995 77.5538 130.334 79.1013C129.672 80.6489 128.566 81.9654 127.156 82.8845C125.746 83.8035 124.095 84.2839 122.412 84.2647C120.729 84.2455 119.089 83.7276 117.701 82.7766C116.312 81.8257 115.237 80.4842 114.61 78.922C113.984 77.3598 113.835 75.6469 114.182 74C114.529 72.3531 115.357 70.8461 116.56 69.6696C117.764 68.4931 119.29 67.6999 120.944 67.3903C122.043 67.1821 123.172 67.193 124.266 67.4223C125.361 67.6517 126.399 68.095 127.322 68.7269C128.245 69.3587 129.034 70.1667 129.643 71.1043C130.253 72.0419 130.671 73.0906 130.874 74.1903Z" fill="#D4E6E6"/>
<path d="M27.044 93.6504C27.3555 95.3048 27.1693 97.0144 26.509 98.563C25.8486 100.111 24.7438 101.429 23.3343 102.35C21.9249 103.27 20.2741 103.752 18.5907 103.734C16.9074 103.717 15.2671 103.2 13.8775 102.25C12.4878 101.299 11.4113 99.9584 10.7839 98.3963C10.1566 96.8341 10.0066 95.1209 10.3531 93.4735C10.6995 91.8261 11.5269 90.3185 12.7303 89.1413C13.9338 87.9642 15.4593 87.1704 17.114 86.8604C18.2119 86.6534 19.3399 86.6649 20.4334 86.8942C21.5269 87.1235 22.5644 87.5661 23.4867 88.1967C24.4089 88.8274 25.1979 89.6337 25.8083 90.5695C26.4187 91.5053 26.8386 92.5522 27.044 93.6504Z" fill="#D4E6E6"/>
<path d="M109.614 32.1504C112.154 45.7304 105.444 49.5204 96.6144 51.1504L35.4844 62.6404C26.6344 64.3004 18.6644 61.3904 16.4844 49.6404C14.4844 38.7704 20.6544 32.2804 29.4844 30.6404L90.6044 19.1804C99.4444 17.5204 107.514 20.9404 109.604 32.1804L109.614 32.1504Z" fill="#D4E6E6"/>
<path d="M64.7537 4.93216L37.8135 9.88037L40.5945 25.0213L67.5347 20.0731L64.7537 4.93216Z" fill="#C62424"/>
<path d="M67.664 120.52C63.4687 121.304 59.1337 120.391 55.6108 117.982C52.0879 115.573 49.665 111.864 48.874 107.67L45.984 92.1204C45.2002 87.9263 46.1133 83.5926 48.5227 80.0713C50.9322 76.55 54.6408 74.1291 58.834 73.3404L75.904 70.1404C80.0981 69.3566 84.4318 70.2697 87.9531 72.6791C91.4744 75.0885 93.8953 78.7972 94.684 82.9904L97.604 98.5404C98.385 102.734 97.4708 107.067 95.0618 110.587C92.6529 114.108 88.9459 116.529 84.754 117.32L67.664 120.52Z" fill="#003D7C"/>
<path d="M91.4046 99.7004C91.8842 102.257 91.3288 104.9 89.8605 107.047C88.3921 109.194 86.1311 110.67 83.5746 111.15L66.5046 114.35C65.2353 114.586 63.932 114.569 62.6693 114.3C61.4065 114.032 60.2091 113.517 59.1456 112.785C58.0821 112.053 57.1734 111.118 56.4714 110.035C55.7695 108.951 55.288 107.74 55.0546 106.47L52.1346 90.9204C51.6582 88.3612 52.2175 85.7175 53.6895 83.5704C55.1615 81.4234 57.4257 79.9487 59.9846 79.4704L77.0546 76.2704C78.3213 76.033 79.6222 76.0475 80.8832 76.3131C82.1443 76.5787 83.3406 77.0901 84.4039 77.8182C85.4672 78.5462 86.3766 79.4767 87.0803 80.5563C87.7839 81.636 88.2679 82.8437 88.5046 84.1104L91.4046 99.7004Z" fill="#2782B9"/>
<path d="M84.8544 81.3904C84.9216 81.7523 84.8425 82.1262 84.6344 82.43C84.4263 82.7337 84.1062 82.9424 83.7444 83.0103L56.1544 88.1903C55.7897 88.2575 55.4134 88.1774 55.1078 87.9674C54.8022 87.7575 54.5924 87.4348 54.5244 87.0703C54.4571 86.7084 54.5362 86.3345 54.7443 86.0308C54.9524 85.7271 55.2726 85.5183 55.6344 85.4504L83.2344 80.2704C83.4143 80.2372 83.5991 80.2399 83.778 80.2782C83.9569 80.3166 84.1265 80.3899 84.277 80.494C84.4275 80.598 84.556 80.7308 84.655 80.8846C84.7541 81.0384 84.8219 81.2103 84.8544 81.3904Z" fill="#D4E6E6"/>
<path d="M85.6644 85.6903C85.7319 86.0535 85.6531 86.4287 85.4451 86.734C85.2372 87.0393 84.9171 87.25 84.5545 87.3203L56.9844 92.4704C56.8044 92.5065 56.6189 92.5064 56.4389 92.4699C56.2588 92.4334 56.0879 92.3614 55.9361 92.258C55.7843 92.1546 55.6546 92.022 55.5548 91.8678C55.4549 91.7137 55.3868 91.5412 55.3544 91.3604C55.2872 90.9984 55.3663 90.6246 55.5744 90.3208C55.7825 90.0171 56.1026 89.8084 56.4644 89.7404L84.0545 84.5604C84.4176 84.493 84.7927 84.5718 85.098 84.7797C85.4033 84.9876 85.6142 85.3078 85.6845 85.6704L85.6644 85.6903Z" fill="#D4E6E6"/>
<path d="M86.5341 90.3203C86.5673 90.5003 86.5646 90.685 86.5263 90.8639C86.4879 91.0428 86.4146 91.2124 86.3105 91.3629C86.2064 91.5134 86.0737 91.6419 85.9199 91.741C85.766 91.8401 85.5941 91.9078 85.4141 91.9403L57.8241 97.1204C57.6442 97.1535 57.4594 97.1509 57.2805 97.1125C57.1016 97.0741 56.932 97.0008 56.7815 96.8967C56.631 96.7927 56.5025 96.6599 56.4034 96.5061C56.3043 96.3523 56.2366 96.1804 56.2041 96.0004C56.1368 95.6384 56.2159 95.2645 56.424 94.9608C56.6321 94.657 56.9523 94.4483 57.3141 94.3803L84.9041 89.2003C85.2687 89.1331 85.6451 89.2133 85.9507 89.4233C86.2563 89.6332 86.4661 89.9558 86.5341 90.3203Z" fill="#D4E6E6"/>
<path d="M87.3345 94.6204C87.3706 94.8005 87.3705 94.986 87.334 95.166C87.2975 95.346 87.2255 95.5169 87.1221 95.6687C87.0187 95.8205 86.8861 95.9502 86.7319 96.0501C86.5778 96.1499 86.4053 96.2181 86.2245 96.2504L58.6345 101.47C58.4546 101.505 58.2695 101.504 58.09 101.467C57.9105 101.43 57.7401 101.358 57.5886 101.255C57.4371 101.151 57.3075 101.019 57.2072 100.866C57.107 100.712 57.0381 100.541 57.0045 100.36C56.9713 100.18 56.974 99.9958 57.0123 99.8168C57.0507 99.6379 57.124 99.4683 57.2281 99.3178C57.3321 99.1673 57.4649 99.0389 57.6187 98.9398C57.7725 98.8407 57.9444 98.7729 58.1245 98.7404L85.7145 93.4704C86.0765 93.4032 86.4504 93.4823 86.7541 93.6904C87.0578 93.8985 87.2665 94.2186 87.3345 94.5804V94.6204Z" fill="#D4E6E6"/>
<path d="M88.1543 98.9603C88.2217 99.3235 88.1429 99.6986 87.935 100.004C87.7271 100.309 87.4069 100.52 87.0443 100.59L59.4443 105.76C59.0823 105.828 58.7084 105.748 58.4047 105.54C58.101 105.332 57.8923 105.012 57.8243 104.65C57.7569 104.287 57.8357 103.912 58.0436 103.607C58.2515 103.301 58.5717 103.091 58.9343 103.02L86.5243 97.8503C86.8874 97.7829 87.2626 97.8617 87.5679 98.0696C87.8732 98.2775 88.084 98.5977 88.1543 98.9603Z" fill="#D4E6E6"/>
<path d="M88.9838 103.59C89.0184 103.77 89.0171 103.954 88.98 104.133C88.9428 104.312 88.8705 104.482 88.7673 104.632C88.664 104.783 88.5319 104.912 88.3785 105.011C88.2251 105.11 88.0536 105.178 87.8738 105.21L60.2837 110.39C60.1038 110.423 59.9191 110.421 59.7402 110.382C59.5613 110.344 59.3917 110.271 59.2412 110.167C59.0907 110.063 58.9622 109.93 58.8631 109.776C58.764 109.622 58.6963 109.45 58.6638 109.27C58.6291 109.091 58.6304 108.906 58.6675 108.728C58.7047 108.549 58.777 108.379 58.8802 108.228C58.9835 108.078 59.1157 107.949 59.269 107.85C59.4224 107.751 59.594 107.683 59.7737 107.65L87.3937 102.47C87.5737 102.437 87.7584 102.44 87.9373 102.478C88.1162 102.517 88.2858 102.59 88.4363 102.694C88.5868 102.798 88.7154 102.931 88.8144 103.085C88.9135 103.238 88.9813 103.41 89.0138 103.59H88.9838Z" fill="#D4E6E6"/>
</g>
<defs>
<clipPath id="clip0_152_19410">
<rect width="147.56" height="167.29" fill="white" transform="translate(0.0341797 0.110352)"/>
</clipPath>
</defs>
</svg>
