<svg width="355" height="188" viewBox="0 0 355 188" fill="none" xmlns="http://www.w3.org/2000/svg">
<path d="M-2.95755 187.015C-1.1265 187.011 0.702545 186.893 2.51883 186.661C2.7081 186.637 2.89062 186.576 3.05615 186.481C3.22165 186.386 3.36679 186.259 3.48334 186.108C3.59991 185.957 3.68555 185.784 3.73541 185.6C3.78528 185.416 3.79843 185.224 3.77402 185.034C3.7496 184.845 3.68808 184.662 3.59311 184.497C3.49811 184.331 3.37146 184.186 3.22037 184.07C3.06927 183.953 2.89679 183.867 2.71259 183.818C2.52838 183.768 2.33615 183.755 2.14691 183.779C-0.680206 184.148 -3.53918 184.207 -6.37915 183.956C-6.7626 183.92 -7.1445 184.038 -7.44095 184.284C-7.73737 184.53 -7.92398 184.883 -7.95975 185.267C-7.99548 185.65 -7.87747 186.032 -7.63162 186.329C-7.38574 186.625 -7.03217 186.812 -6.64871 186.847C-5.43073 186.912 -4.19415 187.015 -2.95755 187.015ZM10.9891 184.7C11.1403 184.701 11.2908 184.679 11.4353 184.634C14.3069 183.688 17.1039 182.528 19.8033 181.166C20.1473 180.993 20.4081 180.689 20.5284 180.323C20.6488 179.957 20.6188 179.558 20.4449 179.214C20.2711 178.87 19.9677 178.609 19.6015 178.489C19.2354 178.368 18.8363 178.399 18.4923 178.572C15.9174 179.871 13.2475 180.971 10.5056 181.864C10.2022 181.988 9.94998 182.212 9.78998 182.498C9.62994 182.784 9.57162 183.116 9.62448 183.44C9.67734 183.763 9.83823 184.059 10.081 184.28C10.3237 184.5 10.634 184.632 10.9612 184.653L10.9891 184.7ZM26.7953 176.834C27.0868 176.832 27.3714 176.745 27.6134 176.583C30.1087 174.899 32.5052 173.074 34.7913 171.116C34.9554 171 35.0938 170.851 35.1976 170.679C35.3014 170.507 35.3682 170.316 35.3941 170.117C35.4199 169.917 35.4041 169.715 35.3477 169.522C35.2912 169.33 35.1953 169.151 35.0661 168.997C34.9369 168.843 34.7771 168.718 34.597 168.629C34.4168 168.54 34.2202 168.49 34.0196 168.481C33.819 168.472 33.6186 168.505 33.4313 168.578C33.2441 168.65 33.074 168.761 32.9317 168.903C30.7261 170.788 28.4167 172.548 26.0143 174.175C25.7541 174.347 25.5565 174.599 25.451 174.893C25.3454 175.187 25.3374 175.507 25.4283 175.805C25.5191 176.104 25.7039 176.365 25.9552 176.551C26.2065 176.736 26.511 176.835 26.8232 176.834H26.7953ZM40.277 165.351C40.4747 165.352 40.6706 165.313 40.8528 165.237C41.0349 165.16 41.1997 165.047 41.3369 164.905C43.4041 162.72 45.356 160.43 47.1852 158.043C47.4175 157.736 47.5196 157.351 47.4691 156.969C47.4186 156.588 47.2197 156.242 46.9156 156.007C46.7647 155.889 46.592 155.803 46.4076 155.753C46.2231 155.703 46.0305 155.69 45.841 155.715C45.6515 155.74 45.4689 155.803 45.3038 155.899C45.1387 155.995 44.9944 156.124 44.8793 156.276C43.1126 158.584 41.2256 160.797 39.2263 162.906C39.0947 163.044 38.9916 163.207 38.9232 163.385C38.8547 163.564 38.8222 163.754 38.8274 163.945C38.8326 164.136 38.8754 164.324 38.9535 164.498C39.0315 164.672 39.1431 164.829 39.282 164.96C39.5594 165.195 39.9141 165.318 40.277 165.304V165.351ZM51.0717 151.321C51.315 151.322 51.5548 151.262 51.7692 151.146C51.9836 151.031 52.1656 150.864 52.2989 150.661C53.8144 148.29 55.3393 145.798 56.9478 143.018C57.1401 142.684 57.192 142.287 57.0917 141.915C56.9914 141.542 56.7473 141.225 56.4132 141.033C56.0791 140.84 55.6823 140.789 55.31 140.889C54.9377 140.989 54.6205 141.233 54.4281 141.567C52.8475 144.301 51.3598 146.765 49.8629 149.089C49.6562 149.414 49.5863 149.807 49.6681 150.183C49.75 150.559 49.9771 150.888 50.3 151.098C50.537 151.224 50.8033 151.285 51.0717 151.274V151.321ZM59.9882 135.998C60.2506 135.997 60.5081 135.926 60.7337 135.792C60.9594 135.658 61.145 135.466 61.2712 135.236C62.6194 132.725 63.9491 130.205 65.2879 127.686L65.4366 127.398C65.6179 127.057 65.6566 126.659 65.5441 126.29C65.4316 125.921 65.1773 125.612 64.837 125.431C64.4967 125.25 64.0983 125.211 63.7295 125.324C63.3607 125.436 63.0517 125.69 62.8704 126.031L62.7124 126.328C61.3829 128.839 60.0625 131.349 58.7144 133.85C58.6229 134.018 58.5655 134.202 58.5455 134.392C58.5255 134.582 58.5432 134.774 58.5976 134.957C58.652 135.141 58.7421 135.311 58.8627 135.46C58.9833 135.608 59.1319 135.731 59.3001 135.821C59.5148 135.922 59.7515 135.967 59.9882 135.951V135.998ZM68.3561 120.341C68.6167 120.342 68.8727 120.273 69.097 120.14C69.3214 120.007 69.5055 119.816 69.6299 119.587C71.2012 116.687 72.6145 114.167 73.9441 111.88C74.1057 111.548 74.1358 111.167 74.0281 110.814C73.9203 110.461 73.6829 110.162 73.3635 109.977C73.0442 109.792 72.6667 109.735 72.3069 109.817C71.9471 109.899 71.6318 110.115 71.4244 110.42C70.0855 112.735 68.635 115.273 67.073 118.193C66.9816 118.361 66.9242 118.545 66.9041 118.735C66.8841 118.925 66.9018 119.117 66.9562 119.3C67.0107 119.483 67.1008 119.654 67.2214 119.802C67.3419 119.95 67.4906 120.073 67.6588 120.164C67.8683 120.26 68.098 120.305 68.3283 120.294L68.3561 120.341ZM77.3192 105.046C77.5611 105.046 77.7993 104.986 78.0121 104.871C78.2248 104.755 78.4054 104.589 78.5372 104.386C80.2201 101.801 81.8657 99.4485 83.5579 97.2171C83.6733 97.0651 83.7577 96.8918 83.8061 96.7072C83.8546 96.5226 83.8661 96.3303 83.8402 96.1412C83.8143 95.9521 83.7515 95.77 83.6552 95.6052C83.5589 95.4404 83.4311 95.2962 83.2791 95.1809C83.127 95.0655 82.9538 94.9812 82.7692 94.9327C82.5846 94.8843 82.3923 94.8727 82.2032 94.8986C82.0141 94.9245 81.8319 94.9874 81.6671 95.0837C81.5024 95.18 81.3582 95.3078 81.2428 95.4598C79.5041 97.747 77.8213 100.109 76.1012 102.805C75.9972 102.965 75.9258 103.144 75.891 103.331C75.8562 103.519 75.8588 103.711 75.8985 103.898C75.9382 104.084 76.0144 104.261 76.1226 104.418C76.2307 104.575 76.3688 104.71 76.5289 104.813C76.7606 104.946 77.0247 105.01 77.2912 104.999L77.3192 105.046ZM88.0302 90.9225C88.2331 90.9233 88.434 90.8815 88.6198 90.7999C88.8056 90.7182 88.9722 90.5984 89.1088 90.4483C89.6852 89.8068 90.2803 89.1838 90.8753 88.5888C92.2886 87.129 93.7854 85.7065 95.301 84.349C95.4432 84.222 95.5591 84.0682 95.6419 83.8965C95.7247 83.7247 95.7729 83.5384 95.7837 83.348C95.7945 83.1576 95.7677 82.967 95.7048 82.787C95.6419 82.6069 95.5442 82.4411 95.4172 82.2988C95.2902 82.1566 95.1365 82.0407 94.9648 81.9579C94.793 81.8751 94.6066 81.8269 94.4163 81.8161C94.2259 81.8053 94.0352 81.8321 93.8552 81.895C93.6752 81.9579 93.5093 82.0556 93.3671 82.1826C91.7957 83.5773 90.2523 85.0556 88.7925 86.5618C88.1696 87.2127 87.5559 87.8635 86.933 88.5144C86.8037 88.6552 86.7036 88.8201 86.6382 88.9997C86.5729 89.1794 86.5437 89.3701 86.5523 89.5611C86.561 89.7521 86.6072 89.9394 86.6885 90.1124C86.7698 90.2854 86.8846 90.4406 87.0261 90.5692C87.3048 90.8083 87.6631 90.9344 88.0302 90.9225ZM101.261 79.1608C101.561 79.1629 101.855 79.0684 102.098 78.8912C104.431 77.2176 106.895 75.6277 109.434 74.168C109.598 74.0721 109.743 73.9447 109.858 73.7931C109.974 73.6415 110.059 73.4686 110.107 73.2842C110.156 73.0999 110.168 72.9078 110.143 72.7188C110.117 72.5298 110.055 72.3477 109.959 72.1829C109.863 72.018 109.736 71.8737 109.584 71.7581C109.432 71.6425 109.26 71.5579 109.075 71.5091C108.891 71.4603 108.699 71.4483 108.51 71.4738C108.321 71.4993 108.139 71.5617 107.974 71.6576C105.361 73.1638 102.814 74.8002 100.406 76.5296C100.154 76.7087 99.9668 76.9633 99.8702 77.2563C99.7736 77.5493 99.773 77.8655 99.8683 78.1589C99.9637 78.4523 100.15 78.7076 100.401 78.8878C100.651 79.068 100.952 79.1636 101.261 79.1608ZM264.213 76.4738C264.404 76.4775 264.593 76.4436 264.77 76.3741C264.948 76.3046 265.11 76.2008 265.247 76.0687C265.384 75.9366 265.494 75.7787 265.57 75.6042C265.647 75.4296 265.688 75.2417 265.692 75.0512C265.695 74.8608 265.661 74.6714 265.592 74.494C265.522 74.3167 265.418 74.1547 265.286 74.0174C265.154 73.8802 264.996 73.7703 264.822 73.694C264.647 73.6177 264.459 73.5766 264.269 73.5729C261.48 73.4613 258.56 73.2196 255.557 72.857C255.367 72.8323 255.174 72.8459 254.989 72.8969C254.804 72.9479 254.631 73.0353 254.48 73.1539C254.33 73.2725 254.204 73.42 254.111 73.5878C254.018 73.7555 253.96 73.9401 253.939 74.1308C253.894 74.5126 254.002 74.8967 254.239 75.1996C254.476 75.5025 254.822 75.6998 255.204 75.7486C258.281 76.1205 261.294 76.3622 264.157 76.4738H264.213ZM273.055 76.3715H273.148C276.153 76.1907 279.146 75.8399 282.111 75.3209C282.491 75.2543 282.829 75.0396 283.05 74.724C283.272 74.4084 283.359 74.0177 283.292 73.638C283.226 73.2582 283.011 72.9205 282.695 72.699C282.38 72.4776 281.989 72.3906 281.609 72.4572C278.752 72.96 275.868 73.2953 272.972 73.4613C272.605 73.4993 272.267 73.6744 272.024 73.9514C271.781 74.2285 271.652 74.5871 271.663 74.9553C271.674 75.3234 271.823 75.674 272.081 75.9367C272.339 76.1994 272.687 76.3547 273.055 76.3715ZM246.603 74.3911C246.97 74.3963 247.324 74.2626 247.596 74.0169C247.868 73.7712 248.037 73.4317 248.069 73.0666C248.1 72.7016 247.993 72.3381 247.768 72.0491C247.542 71.7601 247.216 71.5671 246.854 71.5088C244.158 71.016 241.331 70.4396 238.235 69.7422C238.041 69.6623 237.831 69.6256 237.621 69.6349C237.41 69.6441 237.205 69.699 237.018 69.7957C236.831 69.8925 236.667 70.0287 236.538 70.195C236.409 70.3613 236.318 70.5537 236.271 70.7588C236.224 70.9639 236.222 71.1768 236.265 71.3828C236.308 71.5887 236.396 71.7828 236.522 71.9515C236.648 72.1201 236.809 72.2594 236.994 72.3596C237.179 72.4597 237.384 72.5184 237.594 72.5315C240.736 73.2475 243.6 73.8332 246.343 74.3353L246.603 74.3911ZM290.47 73.2661C290.615 73.2627 290.758 73.2408 290.898 73.201C293.777 72.3073 296.6 71.2392 299.349 70.0026C299.523 69.9244 299.68 69.8128 299.811 69.674C299.942 69.5352 300.044 69.372 300.112 69.1937C300.18 69.0154 300.212 68.8256 300.206 68.6349C300.2 68.4443 300.157 68.2566 300.079 68.0826C300.001 67.9086 299.889 67.7517 299.751 67.6208C299.612 67.49 299.449 67.3878 299.27 67.32C299.092 67.2522 298.902 67.2202 298.712 67.2258C298.521 67.2315 298.333 67.2746 298.159 67.3527C295.519 68.5419 292.809 69.5666 290.042 70.421C289.716 70.5292 289.438 70.7494 289.257 71.0426C289.077 71.3359 289.007 71.6833 289.058 72.0237C289.109 72.364 289.279 72.6753 289.537 72.9026C289.796 73.13 290.126 73.2587 290.47 73.2661ZM229.291 70.5418C229.65 70.5488 229.998 70.4226 230.269 70.1875C230.54 69.9525 230.715 69.6253 230.759 69.2693C230.802 68.9132 230.713 68.5535 230.507 68.2596C230.301 67.9657 229.994 67.7586 229.644 67.6781C226.948 66.9963 224.245 66.3021 221.537 65.5954L221.072 65.4746C220.725 65.439 220.378 65.5283 220.092 65.7264C219.806 65.9245 219.6 66.2184 219.511 66.5549C219.422 66.8915 219.457 67.2487 219.608 67.562C219.76 67.8754 220.018 68.1243 220.337 68.2639L220.811 68.3848C223.517 69.0821 226.223 69.7887 228.938 70.4674C229.057 70.5163 229.182 70.5507 229.309 70.5697L229.291 70.5418ZM116.565 70.2722C116.774 70.2749 116.98 70.2304 117.169 70.142C119.773 68.9426 122.497 67.8362 125.258 66.8506C125.578 66.695 125.829 66.4283 125.966 66.1005C126.103 65.7726 126.116 65.4062 126.001 65.0697C125.887 64.7333 125.655 64.45 125.347 64.2729C125.039 64.0958 124.677 64.0371 124.329 64.1078C121.484 65.1305 118.676 66.2742 115.961 67.5015C115.647 67.6317 115.389 67.8678 115.231 68.1687C115.074 68.4697 115.027 68.8163 115.099 69.1483C115.171 69.4802 115.357 69.7764 115.625 69.9852C115.893 70.194 116.225 70.3021 116.565 70.2908V70.2722ZM212.136 66.144C212.495 66.151 212.844 66.0247 213.115 65.7897C213.386 65.5547 213.56 65.2275 213.604 64.8714C213.648 64.5154 213.559 64.1556 213.353 63.8618C213.147 63.5679 212.839 63.3607 212.49 63.2803C209.245 62.4714 206.418 61.7927 203.824 61.2162C203.638 61.1736 203.445 61.1683 203.257 61.2004C203.069 61.2325 202.889 61.3016 202.727 61.4035C202.565 61.5054 202.426 61.6383 202.316 61.7944C202.205 61.9506 202.127 62.1269 202.086 62.3133C202.005 62.6904 202.076 63.084 202.283 63.4092C202.49 63.7345 202.816 63.9654 203.192 64.052C205.758 64.6192 208.566 65.2979 211.783 66.0975C211.899 66.1273 212.017 66.1429 212.136 66.144ZM306.629 66.0417C306.891 66.041 307.148 65.9704 307.373 65.8372C309.941 64.2878 312.424 62.6025 314.811 60.7885C315.118 60.5555 315.32 60.21 315.373 59.8282C315.425 59.4463 315.323 59.0593 315.09 58.7523C314.857 58.4453 314.512 58.2434 314.13 58.1911C313.748 58.1388 313.361 58.2403 313.054 58.4734C310.751 60.2284 308.355 61.8579 305.876 63.3547C305.603 63.5177 305.39 63.7663 305.272 64.062C305.154 64.3577 305.136 64.6841 305.222 64.9908C305.308 65.2975 305.492 65.5675 305.746 65.7592C306.001 65.9508 306.311 66.0533 306.629 66.051V66.0417ZM133.254 64.2844C133.383 64.2827 133.511 64.2671 133.636 64.238C136.425 63.4848 139.279 62.8247 142.171 62.2761C142.535 62.1872 142.85 61.962 143.053 61.647C143.255 61.3319 143.328 60.9512 143.258 60.5835C143.188 60.2158 142.978 59.8892 142.674 59.6712C142.37 59.4533 141.993 59.3606 141.622 59.4124C138.656 59.9889 135.718 60.6583 132.873 61.43C132.53 61.5189 132.231 61.7304 132.034 62.0245C131.836 62.3185 131.752 62.6748 131.799 63.0261C131.846 63.3774 132.02 63.6994 132.288 63.9312C132.556 64.163 132.9 64.2887 133.254 64.2844ZM194.815 62.3226C195.175 62.3149 195.519 62.1745 195.782 61.9285C196.044 61.6824 196.207 61.348 196.238 60.9895C196.269 60.6309 196.167 60.2735 195.95 59.9859C195.734 59.6982 195.419 59.5006 195.066 59.431C192.137 58.9197 189.162 58.5013 186.214 58.1294C186.025 58.1048 185.832 58.1184 185.648 58.1695C185.463 58.2206 185.291 58.3081 185.141 58.4268C184.991 58.5455 184.867 58.6931 184.775 58.8608C184.683 59.0285 184.625 59.2129 184.606 59.4031C184.583 59.5919 184.597 59.7834 184.648 59.9666C184.699 60.1499 184.786 60.3212 184.903 60.4707C185.021 60.6203 185.167 60.745 185.333 60.8379C185.499 60.9307 185.681 60.9898 185.87 61.0116C188.762 61.3557 191.691 61.7927 194.564 62.2947C194.645 62.3226 194.729 62.3413 194.815 62.3505V62.3226ZM150.66 60.928H150.837C153.691 60.5839 156.629 60.3236 159.576 60.1562C159.767 60.1456 159.953 60.0974 160.125 60.0144C160.297 59.9315 160.451 59.8154 160.578 59.6729C160.705 59.5304 160.803 59.3642 160.865 59.1839C160.928 59.0036 160.954 58.8127 160.943 58.6221C160.917 58.239 160.742 57.8814 160.455 57.6259C160.168 57.3705 159.793 57.2374 159.409 57.2554C156.406 57.4227 153.403 57.6923 150.483 58.0457C150.114 58.0875 149.775 58.2696 149.536 58.5542C149.297 58.8388 149.176 59.2044 149.199 59.5753C149.221 59.9463 149.386 60.2944 149.658 60.5478C149.929 60.8012 150.288 60.9406 150.66 60.9373V60.928ZM177.214 60.2213C177.599 60.2337 177.973 60.0927 178.253 59.8294C178.534 59.5661 178.699 59.2021 178.711 58.8174C178.723 58.4327 178.582 58.0589 178.319 57.7781C178.056 57.4974 177.692 57.3328 177.307 57.3204C174.323 57.1345 171.319 57.0322 168.363 57.0136C167.997 57.0429 167.655 57.2089 167.407 57.4785C167.158 57.7482 167.019 58.1017 167.019 58.4687C167.019 58.8357 167.158 59.1892 167.407 59.4589C167.655 59.7285 167.997 59.8945 168.363 59.9238C171.254 59.9238 174.211 60.0354 177.14 60.2213H177.214ZM320.762 55.3865C321.131 55.385 321.486 55.2457 321.757 54.996C323.914 52.997 326.043 50.8399 328.079 48.5899C328.207 48.4482 328.305 48.2828 328.369 48.1032C328.433 47.9235 328.46 47.733 328.451 47.5426C328.441 47.3523 328.393 47.1657 328.311 46.9936C328.229 46.8215 328.114 46.6673 327.972 46.5397C327.831 46.4121 327.665 46.3137 327.486 46.25C327.306 46.1863 327.116 46.1586 326.925 46.1686C326.735 46.1785 326.548 46.2258 326.376 46.3079C326.204 46.3899 326.05 46.505 325.922 46.6466C323.942 48.8316 321.878 50.9236 319.776 52.8575C319.636 52.9873 319.523 53.1435 319.443 53.3172C319.364 53.4908 319.319 53.6785 319.312 53.8695C319.305 54.0604 319.336 54.2508 319.403 54.4298C319.47 54.6088 319.572 54.7727 319.702 54.9123C319.833 55.0666 319.995 55.1911 320.178 55.2777C320.361 55.3643 320.56 55.4109 320.762 55.4144V55.3865ZM332.663 42.2488C332.887 42.2495 333.108 42.1978 333.308 42.0976C333.508 41.9975 333.682 41.8519 333.816 41.6723C335.601 39.3386 337.34 36.8654 338.995 34.3364C339.186 34.0124 339.245 33.6272 339.159 33.2609C339.073 32.8947 338.849 32.5759 338.533 32.3708C338.218 32.1658 337.836 32.0904 337.466 32.1604C337.096 32.2304 336.768 32.4403 336.55 32.7465C334.95 35.2197 333.249 37.6278 331.51 39.9058C331.342 40.1206 331.239 40.3784 331.211 40.6495C331.183 40.9207 331.232 41.1942 331.352 41.4388C331.472 41.6833 331.659 41.889 331.891 42.0323C332.123 42.1756 332.391 42.2506 332.663 42.2488ZM342.342 27.3724C342.602 27.3718 342.858 27.3016 343.082 27.1692C343.305 27.0368 343.49 26.8469 343.616 26.6193C345.048 24.0345 346.405 21.3475 347.707 18.6418C347.796 18.4687 347.85 18.2792 347.865 18.0848C347.88 17.8904 347.855 17.6951 347.793 17.5104C347.73 17.3257 347.631 17.1556 347.501 17.0101C347.371 16.8645 347.214 16.7467 347.037 16.6635C346.861 16.5804 346.67 16.5336 346.475 16.526C346.28 16.5185 346.086 16.5503 345.904 16.6195C345.721 16.6887 345.555 16.794 345.414 16.929C345.274 17.064 345.162 17.226 345.085 17.4052C343.83 20.0551 342.482 22.677 341.078 25.206C340.984 25.3731 340.924 25.5571 340.902 25.7473C340.88 25.9376 340.896 26.1303 340.949 26.3144C341.001 26.4985 341.09 26.6704 341.209 26.8201C341.329 26.9697 341.477 27.0943 341.645 27.1865C341.853 27.3247 342.093 27.4079 342.342 27.4282V27.3724ZM349.929 11.3431C350.222 11.3433 350.507 11.2544 350.748 11.0883C350.989 10.9222 351.173 10.6868 351.277 10.4133C352.374 7.62399 353.406 4.83467 354.327 2.04534C354.45 1.67546 354.422 1.27174 354.247 0.923005C354.073 0.574272 353.767 0.30909 353.397 0.185794C353.027 0.0624984 352.624 0.0911883 352.275 0.265555C351.926 0.439921 351.661 0.745681 351.538 1.11557C350.608 3.90489 349.622 6.69422 348.553 9.37197C348.418 9.72616 348.427 10.1191 348.579 10.4666C348.73 10.8141 349.011 11.0887 349.362 11.2315C349.539 11.3225 349.731 11.3793 349.929 11.3989V11.3431Z" fill="#105E99" fill-opacity="0.35"/>
</svg>
