<svg width="176" height="122" viewBox="0 0 176 122" fill="none" xmlns="http://www.w3.org/2000/svg">
<path d="M89.4313 0.680776L89.4316 0.680786C113.492 1.45477 135.05 8.77201 150.446 19.9263C165.846 31.0828 175.038 46.0382 174.513 62.1054C173.987 78.1728 163.854 92.475 147.775 102.584C131.699 112.69 109.726 118.568 85.6651 117.78L85.6612 117.78C70.5016 117.399 55.5525 114.142 41.6093 108.182L41.2002 108.007L40.979 108.393C34.674 119.395 23.4416 120.999 15.5391 120.543L15.4938 120.54L15.4487 120.546C15.2046 120.576 14.9582 120.512 14.7594 120.367L14.465 120.771L14.7594 120.367C14.5607 120.222 14.4246 120.008 14.3787 119.766C14.3328 119.525 14.3806 119.275 14.5124 119.067C14.6441 118.86 14.8499 118.71 15.0881 118.649L15.1256 118.639L15.1611 118.624C20.2314 116.441 22.6262 112.07 23.7279 107.974C24.8285 103.881 24.6592 99.9966 24.5567 98.6499L24.5391 98.4192L24.3519 98.2833C9.07249 87.1856 0.0437404 72.3383 0.554794 56.3555C1.08017 40.2881 11.2131 25.9859 27.2958 15.8774C43.3754 5.77075 65.3562 -0.107562 89.4313 0.680776Z" fill="#FDE4C7" stroke="#F7931E"/>
<g clip-path="url(#clip0_152_19400)">
<path d="M77.8619 33.877C77.6137 34.1368 77.3409 34.3719 77.0472 34.5789C76.8158 34.0107 76.5074 33.4769 76.1306 32.9927C76.0879 32.6523 75.9265 32.3379 75.6747 32.1049C75.4228 31.8719 75.0967 31.7351 74.7539 31.7188C72.6783 31.6696 70.7046 33.691 69.8021 35.8914C69.2542 35.7089 68.6888 35.5405 68.1058 35.3791C68.9065 33.0102 68.9311 30.4062 67.7546 28.3111C66.2901 25.7142 61.7843 23.9033 58.4796 24.6017C57.6262 23.8998 56.2671 23.8787 55.649 25.0368C55.0309 26.195 54.9466 27.4689 54.9115 28.7568C54.7464 27.9707 54.5603 27.1881 54.3285 26.416C54.2876 26.2893 54.2035 26.181 54.0909 26.1098C53.9782 26.0387 53.8442 26.0094 53.7121 26.0269C53.58 26.0445 53.4583 26.1078 53.3681 26.2058C53.2779 26.3039 53.2251 26.4304 53.2188 26.5634C53.2363 30.9256 54.1635 35.2527 54.6235 39.5939C54.6622 41.0854 54.7394 42.5804 54.8799 44.0578C54.8799 45.2861 56.7518 45.5809 57.0503 44.3526C57.2294 43.6156 57.4015 42.8751 57.5349 42.1347C59.6421 42.7769 62.2655 42.0189 63.9969 40.9134C65.4842 39.9081 66.6809 38.5296 67.4666 36.9162C68.0988 37.1092 68.7239 37.3303 69.3455 37.5619C69.0927 39.3973 69.774 41.0257 71.9865 41.3135C73.9461 41.5661 75.955 40.1799 76.861 38.5059C77.2749 37.7565 77.4616 36.903 77.3984 36.0494C77.9285 35.6324 78.3834 35.128 78.7434 34.5579C78.8219 34.4403 78.8529 34.2975 78.8301 34.158C78.8072 34.0186 78.7323 33.893 78.6205 33.8066C78.5086 33.7202 78.3681 33.6794 78.2273 33.6925C78.0865 33.7056 77.956 33.7715 77.8619 33.877ZM62.9117 37.5479C61.8581 38.1445 59.5262 39.1938 58.1144 38.7691C58.153 38.5235 58.1881 38.2743 58.2268 38.0287C59.3049 36.6916 62.3673 36.2424 63.6211 36.2529C63.9336 36.2529 64.2392 36.274 64.5447 36.302C64.0596 36.7896 63.5102 37.2087 62.9117 37.5479ZM66.3815 32.7996C66.2621 33.5231 66.0147 34.2194 65.651 34.8562C63.1926 34.4807 60.6851 34.5684 58.5569 35.6177C58.5885 35.3861 58.6166 35.1545 58.6482 34.9158C58.8343 33.4524 58.9608 31.9749 59.0907 30.501C59.2066 29.2025 59.5086 27.725 59.326 26.3915C60.6939 26.4775 62.0348 26.8105 63.2839 27.3741C65.6334 28.3603 66.8064 30.2202 66.3815 32.7996ZM75.7934 35.1334L75.6916 35.1545C75.4165 35.1995 75.1341 35.1578 74.8838 35.0351C75.0735 34.8386 75.2631 34.6421 75.4422 34.435C75.5835 34.6548 75.7012 34.8889 75.7934 35.1334ZM75.6213 38.0497C75.0875 38.9937 72.3201 40.7204 72.3868 38.713C72.4079 38.0111 73.0892 37.0776 73.5985 36.4494C73.7213 36.5496 73.8543 36.6366 73.9953 36.7091C74.3066 36.862 74.6455 36.9508 74.9918 36.9701C75.3381 36.9894 75.6848 36.9388 76.0112 36.8214C75.9624 37.2467 75.8299 37.6582 75.6213 38.0322V38.0497Z" fill="#F7931E"/>
<path d="M122.21 41.9943C119.717 41.6995 119.109 38.9621 119.085 36.874C119.06 34.607 119.411 32.3118 118.902 30.0763C118.726 29.3078 117.529 29.1253 117.167 29.8517C116.279 31.6815 115.716 33.6515 115.502 35.6738C115.278 35.9771 115.022 36.2549 114.737 36.502C114.154 36.9934 113.666 37.3373 112.9 37.1372C112.134 36.9372 111.811 36.5757 111.804 35.7054C111.804 33.9928 113.364 32.4101 113.911 30.8379C114.386 29.4797 112.566 27.9566 111.351 28.8691C110.34 29.6764 109.609 30.7815 109.262 32.0276C108.637 32.4112 107.994 32.7626 107.334 33.0804L107.253 33.1155C107.212 32.6659 107.077 32.2299 106.857 31.8353C106.638 31.4407 106.338 31.0962 105.978 30.8238C105.635 30.5827 105.234 30.4362 104.816 30.3992C104.701 30.2317 104.551 30.0916 104.377 29.9886C101.521 28.2585 97.8514 32.2978 97.3843 34.9018C97.3506 35.0875 97.3271 35.2749 97.3141 35.4633L97.0051 35.5861C97.2579 32.2697 96.9594 28.476 94.8979 26.0756C94.0902 25.1316 92.422 25.8966 92.4606 27.0828C92.4887 27.9707 92.5765 28.9007 92.6819 29.8482C92.7283 30.8747 92.6097 31.9019 92.3307 32.8909C91.8882 34.2736 89.9145 36.7688 88.3165 35.2316C87.3789 34.3297 87.8705 32.6628 88.2147 31.6029C88.6642 30.2237 89.1313 28.7708 89.6862 27.4337C90.0374 26.6125 89.0189 25.679 88.2252 25.9738C83.744 27.5987 81.7703 36.4775 87.6247 37.6286C90.0339 38.1023 91.9549 36.9828 93.156 35.2281C93.1734 35.9733 93.1429 36.7188 93.0647 37.4601C91.673 38.244 90.3766 39.1861 89.2016 40.2676C88.1269 41.2748 87.4702 42.7242 88.0251 44.1596C88.2599 44.7984 88.7361 45.3198 89.3513 45.6117C89.9666 45.9037 90.6718 45.943 91.3157 45.7212C94.6486 44.7562 96.2746 40.9765 96.7417 37.8567C96.7943 37.5057 96.8435 37.1267 96.8892 36.7477C97.0437 36.681 97.2052 36.6214 97.3633 36.5582C97.7355 38.8744 99.7479 40.6958 102.336 40.022C104.721 39.4008 106.824 37.2144 107.228 34.7579C107.868 34.4302 108.459 34.0156 108.984 33.5261C108.826 35.3931 109.392 37.2917 110.884 38.4392C112.377 39.5868 114.087 39.1973 115.45 38.1655C115.485 38.7798 115.571 39.3901 115.706 39.9904C116.408 43.0471 119.33 45.6616 122.593 44.6649C124.149 44.2157 123.699 42.1522 122.21 41.9943ZM92.1129 40.9414C91.8741 41.4222 90.9048 43.2752 90.2551 43.2331C89.0716 43.1524 90.6766 40.8993 90.7749 40.7765C91.1343 40.3958 91.523 40.0438 91.9373 39.7237C92.2148 39.4921 92.5028 39.271 92.7943 39.0604C92.6343 39.7063 92.4059 40.3334 92.1129 40.9309V40.9414ZM105.107 35.937C104.429 37.1092 102.933 38.2918 101.486 37.8391C99.8146 37.3162 100.784 35.5475 102.017 34.1718C102.514 34.765 103.201 35.168 103.962 35.3124C104.435 35.3877 104.915 35.4007 105.392 35.351C105.311 35.5489 105.217 35.7412 105.111 35.9265L105.107 35.937ZM102.881 33.319C103.228 32.9854 103.622 32.704 104.05 32.4838C104.247 32.401 104.427 32.2819 104.58 32.1328C105.184 32.2522 105.557 33.0137 105.655 33.67C104.542 33.9051 103.281 33.9788 102.884 33.3085L102.881 33.319Z" fill="#F7931E"/>
<path d="M121.905 59.1447C119.949 58.5727 118.042 58.2744 116.184 57.3585C114.769 56.6578 113.457 55.765 112.286 54.7054C113.155 54.2914 113.99 53.8091 114.783 53.263C116.255 52.2382 119.026 50.1045 118.228 47.9533C116.964 44.5597 112.458 48.9113 110.544 52.2382C110.639 49.2763 111.303 46.4512 111.707 43.4647C111.868 42.2856 110.407 40.938 109.406 42.1276C106.642 45.416 105.93 50.1782 106.246 54.3509C106.309 55.1791 106.411 55.998 106.551 56.8075C106.144 57.7936 105.652 59.3974 104.602 59.9379C103.275 60.6222 102.916 58.9377 102.79 57.8814C102.495 55.4423 103.31 52.9682 103.218 50.4906C103.18 49.3991 101.814 49.2763 101.389 50.1817C99.2147 49.357 96.7248 50.6099 95.2884 52.2874C94.2348 53.4981 93.3006 55.5897 93.6448 57.3093C93.2704 57.8622 92.8358 58.3718 92.3489 58.8289C91.4288 59.6817 89.6974 61.0363 88.3523 60.5836C87.2812 60.2327 87.1794 59.2149 87.4744 58.0989C88.8919 57.7886 90.2405 57.2212 91.4534 56.425C94.8389 54.0386 92.8581 48.7815 88.6087 50.3642C86.1504 51.2872 84.0783 54.0842 83.692 56.8882L83.0809 57.0075C83.2649 55.8636 83.0491 54.6913 82.4699 53.6876C80.6682 50.6274 77.8517 51.3468 75.9482 53.3086C75.8855 52.8497 75.7952 52.395 75.6778 51.947C75.2739 50.4133 73.3143 50.6625 72.8121 51.947C72.5296 52.6826 72.3157 53.4427 72.1729 54.2175C70.4822 54.5022 68.8316 54.9876 67.2562 55.6634C66.9999 55.2049 66.7013 54.7714 66.3642 54.3684C65.0261 52.7611 60.1937 50.7994 61.1279 48.1814C62.0304 45.6581 67.1368 46.4828 68.3133 48.1814C68.372 48.2731 68.4612 48.3413 68.5653 48.3738C68.6693 48.4064 68.7815 48.4012 68.8821 48.3594C68.9827 48.3175 69.0653 48.2415 69.1155 48.1447C69.1656 48.048 69.18 47.9367 69.1561 47.8304C68.2536 44.3631 63.3369 43.7174 60.6222 45.3738C59.877 45.8197 59.2955 46.4938 58.964 47.296C58.6325 48.0983 58.5687 48.9859 58.7819 49.8273C59.3438 52.147 61.2859 53.3718 63.0278 54.7755C63.7472 55.352 64.3676 56.0419 64.8646 56.818C62.655 58.0128 60.6695 59.5814 58.9961 61.4539C57.7213 62.9244 57.2929 65.3599 59.1788 66.5706C60.9347 67.7112 63.5406 67.062 65.149 65.974C67.646 64.2966 68.6294 61.4855 68.2711 58.7657C69.4195 58.3165 70.582 57.9551 71.7831 57.5936C71.7023 58.8043 71.6637 60.0081 71.5864 61.1311C71.3897 64.1 71.021 67.0971 71.9797 69.9783C72.5452 71.6803 75.5162 71.5294 75.302 69.5291C75.158 68.1709 75.5127 66.8725 75.6321 65.5178C75.7129 64.6264 75.7656 63.7315 75.8148 62.8331C76.39 63.0806 77.0271 63.1467 77.641 63.0226C79.6709 62.6471 81.5041 61.0223 82.4663 59.0465L83.7271 58.8394C83.8844 59.7908 84.3109 60.6774 84.9563 61.3943C87.9485 64.7212 92.2471 62.1137 94.7897 59.1237C96.1383 60.0326 97.9504 58.9377 99.0672 57.8533C99.2639 57.6603 99.4465 57.4602 99.6256 57.2567C99.4641 59.1132 99.8188 60.8924 101.382 62.3594C103.577 64.4334 106.116 63.1104 107.731 61.0293C108.434 62.9314 109.276 65.0441 110.892 66.2548C112.251 67.2725 113.631 65.595 113.431 64.3071C113.175 62.6612 112.047 61.089 111.563 59.4676C111.28 58.517 111.054 57.5502 110.888 56.5724C113.203 59.7062 118.102 61.8961 121.561 61.9558C123.156 61.9733 123.44 59.5939 121.905 59.1447ZM89.4094 54.379C89.6798 54.028 90.0802 53.3051 90.5403 53.1472C91.478 52.8278 91.0916 53.9333 90.6983 54.3684C90.1066 54.9504 89.3841 55.3824 88.5911 55.6283C88.8424 55.1982 89.1155 54.7812 89.4094 54.379ZM65.6899 60.7871C65.4595 61.956 64.7912 62.9929 63.8215 63.6859C63.3193 64.0369 60.6994 65.2862 60.5379 63.9596C60.4431 63.1771 62.5151 61.9558 63.0313 61.5943C63.9128 60.9835 64.8298 60.4257 65.7777 59.9238C65.7742 60.2136 65.7448 60.5026 65.6899 60.7871ZM77.1985 60.7521C76.9105 60.1449 78.0624 60.0046 78.5541 59.8607C78.9544 59.7484 79.3548 59.6501 79.7586 59.5553C78.9966 60.3379 77.5742 61.5311 77.1985 60.7521ZM81.0616 57.4006C80.3346 57.5374 79.6076 57.6813 78.8842 57.8463C77.9816 58.0533 76.8683 58.292 76.0079 58.8078C76.0711 57.755 76.1238 56.7022 76.1062 55.6494C76.3985 55.2724 76.7216 54.9202 77.072 54.5966C78.4101 53.3612 80.6191 52.9963 81.2056 55.2353C81.3695 55.951 81.3194 56.699 81.0616 57.3865V57.4006ZM99.5273 54.3439C99.1481 55.0323 98.6947 55.6772 98.1752 56.267C97.7959 56.6882 96.3139 57.9375 96.9706 56.6706C97.7713 55.137 98.9724 54.0842 100.198 53.0314C99.9909 53.4771 99.7766 53.9087 99.5378 54.3298L99.5273 54.3439Z" fill="#F7931E"/>
<path d="M125.097 89.3712C122.512 88.5886 123.52 83.2929 123.896 81.3733C124.247 79.587 124.82 75.7582 122.186 75.3722C119.941 75.0493 117.922 76.9584 116.89 78.7131C116.76 78.9342 116.623 79.1764 116.482 79.4361C116.387 78.6008 116.296 77.7656 116.233 76.9409C118.15 74.5615 120.872 69.7957 118.372 67.1145C117.859 66.5745 117.156 66.2547 116.412 66.2226C115.667 66.1905 114.94 66.4487 114.382 66.9426C112.753 68.2867 112.17 70.6941 111.966 72.691C111.797 74.8897 111.847 77.0997 112.113 79.2887C111.499 79.794 110.87 80.2818 110.249 80.7591C109.856 79.9941 109.34 79.2992 108.721 78.7026C107.877 77.9704 106.874 77.4452 105.792 77.169C105.634 75.7336 104.738 74.3334 103.204 74.1018C101.269 73.807 100.914 75.7758 101.922 77.0497C102.506 77.729 103.243 78.2616 104.071 78.6043C103.812 79.5563 103.374 80.4506 102.782 81.2399C101.83 82.57 97.4159 87.0795 96.7346 83.5035C96.3202 81.3276 98.0481 79.2079 98.7891 77.2708C99.2597 76.0354 97.5705 74.7335 96.4888 75.5161C94.2306 77.1374 93.328 79.9028 93.3667 82.6542V82.8332C93.0928 83.9913 92.6186 85.2897 91.8004 85.8723C91.4492 86.139 91.7372 86.2233 91.263 85.9916C91.071 85.7677 90.9147 85.5156 90.7995 85.2441C90.5538 84.7083 90.3984 84.1355 90.3394 83.5491C90.2324 82.5351 90.1984 81.5148 90.2376 80.4959C90.7117 79.973 91.1612 79.4431 91.5721 78.8956C93.4404 76.418 94.3816 73.6631 94.796 70.5994C95.0735 68.5183 95.1683 64.5737 91.9057 65.1037C89.0962 65.5634 87.5931 69.7291 86.989 72.0733C86.1598 75.3005 85.9218 78.651 86.2866 81.9628C86.3112 82.1664 86.3428 82.3769 86.378 82.598C86.0478 82.949 85.7142 83.2824 85.3771 83.6228C85.0785 80.9065 84.7133 78.1481 83.8529 75.6143C83.797 75.4353 83.6833 75.2799 83.5294 75.1725C83.3756 75.0652 83.1904 75.012 83.003 75.0212C82.9169 74.7433 82.7326 74.5061 82.4845 74.3537C82.2365 74.2014 81.9415 74.1443 81.6544 74.193C78.9256 74.4211 76.5024 75.7933 75.5823 78.5271C75.1363 79.8572 74.8799 82.0365 75.4804 83.5561C74.6941 84.6028 73.8149 85.5765 72.8535 86.4654C72.4164 86.9307 71.888 87.3011 71.3013 87.5533C71.3017 87.4593 71.3087 87.3655 71.3223 87.2726C71.3645 86.8971 71.3574 86.511 71.4031 86.132C71.7754 82.942 73.5559 79.0395 72.3443 75.8494C71.5049 73.6455 68.8043 73.5297 67.1888 75.0072C66.3858 75.8008 65.7641 76.7585 65.3661 77.8147C65.2141 76.6145 64.8677 75.447 64.3406 74.3579C63.9683 73.6385 63.2133 73.6561 62.676 74.0281C62.4371 74.0468 62.2093 74.1363 62.0217 74.2851C61.834 74.4339 61.695 74.6352 61.6224 74.8633C60.1579 78.9026 57.3449 83.5315 53.2148 85.3073C50.2824 86.5672 50.7881 83.2227 51.6415 81.5347C52.7407 79.3694 55.1534 79.1413 57.0358 78.0253C58.4125 77.2181 57.5345 74.7475 55.9822 75.2599C55.5373 75.2887 55.0949 75.3485 54.6582 75.4389C52.2315 75.2178 48.9232 72.6313 51.0866 70.5608C52.8671 68.8622 56.3931 69.2658 58.0332 70.8731C58.5916 71.4206 59.3396 70.7327 59.0516 70.087C57.5415 66.6618 51.2657 67.1251 49.2744 69.7536C48.1015 71.2977 48.256 73.263 49.4746 74.7335C50.1108 75.4763 50.8909 76.0827 51.7679 76.5162C50.1359 77.3734 48.8097 78.7146 47.9715 80.3555C46.5351 83.3701 46.335 88.0762 50.2648 89.2554C53.7557 90.2836 57.229 87.448 59.3607 84.9739C60.1434 84.0612 60.8361 83.0752 61.4292 82.0295C61.4503 82.9665 61.5732 83.893 62.0052 84.5457C62.683 85.5775 63.7927 85.7811 64.885 85.3003L64.9728 85.2617C65.77 84.9107 66.1422 83.7702 65.8929 82.9314C65.8929 82.8612 65.8859 82.7805 65.8718 82.6893C66.2687 81.3733 66.5742 80.0256 67.0132 78.7236C67.2671 77.9135 67.6386 77.1449 68.1159 76.4425C68.2707 76.2112 68.4471 75.9949 68.6427 75.7968H70.1739C70.339 75.9337 70.2793 76.6636 70.2652 76.8672C70.1353 78.6219 69.2643 80.3485 68.7832 82.0085C68.3021 83.6684 67.8244 85.5179 67.7823 87.2726C67.7121 90.1046 70.3179 92.119 72.9483 90.596C74.9377 89.3228 76.4712 87.4512 77.3277 85.2511C78.8414 85.5845 80.1689 84.0229 81.0644 82.8858C81.3802 82.4865 81.6622 82.0616 81.9073 81.6154C81.9564 83.335 82.0723 85.0546 82.1391 86.7461C82.1391 86.8444 82.1391 86.9427 82.1391 87.0409C81.6298 87.62 81.1382 88.2131 80.6746 88.8272C79.3155 90.6275 77.5139 93.242 78.1881 95.6214C79.0345 98.5588 82.2163 97.6955 83.7651 95.9232C85.9916 93.3684 86.104 89.9573 85.7247 86.7461C85.665 86.2338 85.6088 85.7144 85.5526 85.1915C85.9249 84.809 86.3077 84.4299 86.694 84.0544C87.3016 86.332 88.5589 88.7395 90.9435 88.9887C92.7416 89.1747 93.9286 87.7288 94.6661 85.9881C95.2515 86.5637 96.03 86.9014 96.8505 86.9357C99.2211 87.062 101.549 85.0371 103.095 83.4438C104.264 82.3042 105.122 80.8847 105.588 79.3202C106.35 79.6523 107.034 80.1414 107.593 80.7556C107.935 81.1607 108.22 81.6106 108.44 82.0927C106.684 83.3736 104.893 84.8511 105.142 87.1883C105.15 87.2863 105.178 87.3817 105.223 87.4691C105.239 87.7152 105.304 87.9557 105.414 88.1767C105.524 88.3978 105.676 88.595 105.862 88.757C107.063 89.8309 108.917 89.3185 109.922 88.2482C111.464 86.6093 111.52 84.1492 110.772 81.9979L111.123 81.7347C111.506 81.4364 111.885 81.1346 112.257 80.8293C112.486 83.1806 112.763 85.7144 113.536 87.9007C113.67 88.2806 113.932 88.6025 114.276 88.8125C114.62 89.0224 115.026 89.1076 115.426 89.0537C115.825 88.9997 116.194 88.81 116.471 88.5163C116.747 88.2227 116.913 87.8429 116.942 87.441C117.044 85.8452 117.008 84.2437 116.833 82.6542C116.876 82.5103 116.921 82.3629 116.974 82.219C117.451 80.917 118.049 79.4957 118.979 78.4429C119.288 78.092 120.567 76.818 121.157 77.0391C121.469 77.1585 121.206 77.6252 121.083 78.0323C120.679 79.3694 120.092 80.6468 119.734 82.0014C119.067 84.5387 119 87.3217 119.934 89.7993C120.749 91.9576 123.169 94.1194 125.504 92.5402C125.791 92.3628 126.021 92.1068 126.166 91.8025C126.311 91.4983 126.365 91.1588 126.322 90.8246C126.279 90.4904 126.14 90.1756 125.923 89.9179C125.706 89.6601 125.419 89.4703 125.097 89.3712ZM90.7819 75.0669C90.9873 73.7177 91.2723 72.3818 91.6353 71.0661C91.8179 70.3643 92.0286 69.6799 92.2288 68.9851C92.58 67.8164 93.1595 66.9987 93.2473 69.1395C93.3632 72.133 92.0883 75.309 90.4377 77.7691C90.5431 76.8391 90.659 75.9302 90.7819 75.0669ZM81.8932 79.2009C81.7216 79.6339 81.5234 80.0558 81.2997 80.4643C81.096 80.8468 79.017 84.1457 78.2689 83.0472C77.7351 82.2611 79.1153 80.1239 79.4876 79.5378C80.0846 78.6219 80.9801 77.5796 82.0091 77.1444C81.9459 77.8358 81.9108 78.5166 81.8932 79.2009ZM81.8932 91.7611C81.686 92.5296 81.3945 93.393 80.794 93.958C80.3761 94.351 80.4885 94.5546 80.7202 93.6772C80.8783 93.0771 80.8467 92.4524 81.0469 91.8418C81.3363 90.9685 81.7227 90.1304 82.1988 89.3431C82.2004 90.1582 82.1013 90.9703 81.9038 91.7611H81.8932ZM103.604 76.439C102.433 76.2051 102.343 75.7594 103.334 75.102L103.969 76.0425C104.051 76.2352 104.111 76.4365 104.148 76.6426C103.976 76.5794 103.797 76.5127 103.614 76.439H103.604ZM108.5 86.511C108.397 86.7553 108.228 86.9656 108.011 87.1177C107.794 87.2699 107.539 87.3576 107.274 87.3708C107.12 87.374 106.968 87.3347 106.835 87.2574C106.702 87.18 106.592 87.0675 106.519 86.9321C106.768 85.5635 107.759 84.4299 108.882 83.4649C108.941 83.7598 108.975 84.0592 108.984 84.3597C109.025 85.1065 108.861 85.8502 108.51 86.511H108.5ZM116.205 69.0938C116.528 68.785 117.048 69.3816 117.213 69.7957C117.525 70.6064 117.167 71.9259 116.953 72.712C116.755 73.432 116.472 74.1259 116.11 74.7791C116.061 73.27 116.061 71.761 116.11 70.252C116.142 70.0133 116.026 69.2763 116.215 69.0938H116.205Z" fill="#F7931E"/>
<path d="M137.007 68.8236C135.163 63.928 128.392 66.9286 126.977 70.5397C126.661 71.3469 127.837 71.9435 128.382 71.3644C129.372 70.3116 130.422 69.4448 131.858 69.1184C133.295 68.7921 134.584 69.0096 134.341 70.7889C134.05 72.9367 131.83 75.0002 129.618 74.7896C128.564 74.6843 127.627 75.9618 127.985 76.9304C128.528 78.2478 128.768 79.6701 128.687 81.0925C128.459 83.8228 132.951 83.9 132.996 81.0925C133.039 79.8535 132.812 78.62 132.329 77.4778C133.634 76.9856 134.783 76.1516 135.655 75.0634C137.032 73.3332 137.811 70.9293 137.007 68.8236Z" fill="#F7931E"/>
<path d="M133.319 84.4862C132.933 84.2635 132.482 84.1793 132.041 84.2475C131.61 84.3084 131.209 84.5008 130.893 84.7985C130.855 84.8247 130.823 84.8581 130.798 84.8968C130.691 84.9938 130.6 85.1062 130.527 85.2302C130.28 85.4233 130.078 85.6688 129.936 85.9492C129.795 86.2295 129.717 86.5376 129.709 86.8515C129.712 87.164 129.781 87.4724 129.911 87.7566C130.041 88.0408 130.229 88.2944 130.464 88.5009C130.725 88.7475 131.038 88.9325 131.38 89.0424C131.721 89.1522 132.084 89.184 132.439 89.1356C132.795 89.0871 133.136 88.9595 133.436 88.7622C133.736 88.5649 133.987 88.303 134.173 87.9956C134.519 87.4156 134.624 86.7228 134.464 86.0664C134.305 85.41 133.894 84.8425 133.319 84.4862Z" fill="#F7931E"/>
<path d="M102.028 71.0907C101.881 70.5788 101.541 70.1437 101.08 69.8764C100.653 69.6368 100.159 69.5454 99.6749 69.6167C99.3996 69.6344 99.1329 69.72 98.8988 69.8659C98.7528 69.9546 98.6163 70.0581 98.4914 70.1747C98.279 70.4133 98.1176 70.6928 98.0173 70.9959C97.933 71.3074 97.933 71.6356 98.0173 71.947C98.0616 72.1007 98.1254 72.2481 98.207 72.3857C98.3435 72.8208 98.6296 73.1937 99.0147 73.4385C99.481 73.7073 100.034 73.7822 100.555 73.6469C101.076 73.5117 101.523 73.1772 101.8 72.7155C101.945 72.4738 102.039 72.2054 102.079 71.9262C102.118 71.6471 102.101 71.363 102.028 71.0907Z" fill="#F7931E"/>
</g>
<defs>
<clipPath id="clip0_152_19400">
<rect width="90.2987" height="73.4167" fill="white" transform="translate(47.0342 24.1104)"/>
</clipPath>
</defs>
</svg>
