<svg width="50" height="50" viewBox="0 0 50 50" fill="none" xmlns="http://www.w3.org/2000/svg">
<g clip-path="url(#clip0_230_601)">
<path d="M49.7284 28.7038C51.7766 15.048 42.3668 2.31746 28.711 0.269278C15.0552 -1.7789 2.32461 7.63092 0.276433 21.2867C-1.77175 34.9425 7.63808 47.6731 21.2939 49.7213C34.9497 51.7695 47.6802 42.3596 49.7284 28.7038Z" fill="#CBE2EF"/>
<path d="M35.9308 29.8583H23.9967C22.9239 29.8583 22.0513 28.6572 22.0513 27.1841C22.0387 26.4921 22.2513 25.8148 22.657 25.2541C22.8067 25.0344 23.0059 24.853 23.2386 24.7246C23.4714 24.5962 23.7311 24.5244 23.9967 24.5149H35.9308C35.7365 24.6611 35.5637 24.8339 35.4175 25.0282C34.9599 25.6568 34.7186 26.4169 34.7297 27.1943C34.7127 27.7007 34.8122 28.2042 35.0204 28.666C35.2286 29.1279 35.5401 29.5358 35.9308 29.8583Z" fill="#EBEBEB"/>
<path d="M26.2089 13.7203C25.8968 13.1375 25.4668 12.626 24.9462 12.2183C24.4257 11.8107 23.826 11.5159 23.1853 11.3527C22.5446 11.1896 21.8769 11.1615 21.2248 11.2704C20.5727 11.3794 19.9503 11.6229 19.3975 11.9854C19.7113 12.5666 20.1421 13.0764 20.6628 13.4827C21.1836 13.8889 21.7829 14.1829 22.4229 14.3459C23.0629 14.5089 23.7298 14.5375 24.3814 14.4298C25.0331 14.3222 25.6553 14.0806 26.2089 13.7203Z" fill="#A3D220"/>
<path d="M20.3986 20.4856C20.7974 21.6252 21.5765 22.5927 22.6047 23.2256C23.633 23.8584 24.8477 24.118 26.0448 23.9606C27.2419 24.118 28.4567 23.8584 29.4849 23.2256C30.5132 22.5927 31.2922 21.6252 31.6911 20.4856C32.7176 17.7292 31.5165 14.7059 28.9603 13.7358C28.0255 13.3819 27.0019 13.337 26.0397 13.6074C25.0811 13.3352 24.0602 13.3802 23.1293 13.7358C20.5731 14.7059 19.3566 17.7292 20.3986 20.4856Z" fill="#F76018"/>
<g style="mix-blend-mode:multiply" opacity="0.93">
<path d="M20.3985 20.4856C20.7974 21.6252 21.5764 22.5927 22.6046 23.2256C23.6329 23.8584 24.8477 24.118 26.0447 23.9606C26.9351 24.0912 27.8442 23.9832 28.6792 23.6478C29.5142 23.3123 30.2453 22.7614 30.7979 22.0511C30.355 22.3951 29.8544 22.6576 29.3196 22.8262C28.0569 23.1239 26.2398 22.2872 25.1773 21.7996C23.8017 21.1375 22.0975 21.5584 21.4559 19.8799C21.1776 19.1954 21.0705 18.4534 21.1439 17.7181C21.2172 16.9829 21.4688 16.2766 21.8768 15.6606C22.4158 14.8958 22.8007 14.8085 23.468 14.1618C23.6631 13.9667 24.4946 13.6485 24.3406 13.4586C23.9274 13.4997 23.5217 13.5964 23.1344 13.746C20.573 14.7059 19.3565 17.7292 20.3985 20.4856Z" fill="#E0BFA3"/>
</g>
<path d="M24.9617 10.6868C25.5315 11.4054 26.363 12.5911 25.783 13.5099C25.4699 14.0232 25.9627 14.3055 26.2963 13.8128C27.1278 12.4987 26.4708 11.082 25.5931 9.97845C25.3262 9.63454 24.7513 10.3942 24.9823 10.6868H24.9617Z" fill="#604B3B"/>
<path opacity="0.25" d="M28.8264 17.2877C29.3397 18.3605 30.2072 19.0175 30.7615 18.7506C31.3159 18.4837 31.3416 17.4007 30.8283 16.3228C30.315 15.2448 29.4424 14.5929 28.8932 14.8599C28.3439 15.1268 28.308 16.2098 28.8264 17.2877Z" fill="white"/>
<path d="M36.9984 29.8583L37.0343 30.6334C36.99 30.6387 36.9452 30.6387 36.9009 30.6334H23.9966C23.5444 30.6292 23.1034 30.4917 22.7288 30.2382C22.5604 30.1241 22.404 29.9934 22.2617 29.8481C21.6022 29.1155 21.2461 28.1593 21.2659 27.1738C21.2506 26.3085 21.5213 25.4623 22.0359 24.7664C22.1043 24.6735 22.1798 24.586 22.2617 24.5047C22.4018 24.3535 22.5605 24.2207 22.7339 24.1094C23.108 23.8595 23.5468 23.7239 23.9966 23.7193H37.0343L36.9984 24.4995H23.9966C23.731 24.509 23.4713 24.5808 23.2386 24.7092C23.0058 24.8376 22.8066 25.019 22.6569 25.2387C22.2553 25.8061 22.0498 26.4892 22.0718 27.1841C22.0718 28.6572 22.9444 29.8583 24.0172 29.8583H36.9984Z" fill="#3FAFAD"/>
<path d="M22.7289 30.2484C23.1035 30.502 23.5445 30.6395 23.9968 30.6437H17.1751C15.6352 30.6437 14.4341 29.1038 14.4341 27.1841C14.4341 25.2643 15.6609 23.7296 17.1751 23.7296H23.9968C23.5469 23.7342 23.1081 23.8697 22.7341 24.1197C22.5606 24.231 22.4019 24.3638 22.2618 24.5149C22.1799 24.5962 22.1044 24.6838 22.036 24.7767C21.5214 25.4726 21.2507 26.3187 21.266 27.1841C21.2462 28.1696 21.6023 29.1257 22.2618 29.8583C22.4041 30.0037 22.5606 30.1344 22.7289 30.2484Z" fill="#359B97"/>
<path d="M37.5835 36.7724H25.7366C24.6587 36.7724 23.7861 35.5713 23.7861 34.1033C23.7742 33.4098 23.9867 32.7311 24.3918 32.1681C24.5423 31.9481 24.7424 31.7665 24.976 31.6381C25.2096 31.5097 25.4702 31.4381 25.7366 31.429H37.5783C37.384 31.5752 37.2112 31.748 37.065 31.9423C36.609 32.575 36.3711 33.3389 36.3875 34.1187C36.3711 34.6229 36.4704 35.1243 36.6777 35.5843C36.885 36.0442 37.1948 36.4507 37.5835 36.7724Z" fill="#EBEBEB"/>
<path d="M38.6922 36.7724V37.5577H25.7367C25.2828 37.5536 24.8401 37.4162 24.4637 37.1625C24.2954 37.0484 24.1389 36.9177 23.9966 36.7724C23.3365 36.0422 22.9803 35.0874 23.0008 34.1033C22.989 33.2377 23.2572 32.3914 23.7657 31.6908C23.8375 31.5984 23.9145 31.5111 23.9915 31.429C24.1345 31.279 24.2948 31.1463 24.4689 31.0338C24.8444 30.7828 25.2851 30.6472 25.7367 30.6437H38.6871V31.429H25.7367C25.4703 31.4381 25.2097 31.5097 24.9761 31.6381C24.7425 31.7665 24.5423 31.9481 24.3919 32.1681C23.9836 32.7353 23.7709 33.42 23.7862 34.1187C23.7862 35.5867 24.6588 36.7878 25.7367 36.7878L38.6922 36.7724Z" fill="#665C7A"/>
<path d="M24.4636 37.1625C24.84 37.4162 25.2827 37.5536 25.7366 37.5577H13.012C11.5029 37.5577 10.271 36.0179 10.271 34.1033C10.271 32.1887 11.5029 30.6437 13.012 30.6437H25.7366C25.2849 30.6472 24.8442 30.7828 24.4687 31.0338C24.2946 31.1463 24.1344 31.279 23.9914 31.429C23.9144 31.5111 23.8374 31.5984 23.7655 31.6908C23.2571 32.3914 22.9888 33.2377 23.0007 34.1033C22.9802 35.0874 23.3364 36.0422 23.9965 36.7724C24.1387 36.9177 24.2952 37.0484 24.4636 37.1625Z" fill="#534B64"/>
<g style="mix-blend-mode:multiply">
<path d="M20.9425 29.8583H19.7311C19.2233 29.0598 18.9536 28.133 18.9536 27.1866C18.9536 26.2403 19.2233 25.3135 19.7311 24.5149H20.9425C20.4329 25.3128 20.1621 26.2399 20.1621 27.1866C20.1621 28.1334 20.4329 29.0604 20.9425 29.8583Z" fill="#D3D5D7"/>
</g>
<g style="mix-blend-mode:multiply">
<path d="M18.6994 29.8583H16.7129C16.0405 29.3964 15.5991 28.5238 15.5991 27.1995C15.5786 26.7022 15.6672 26.2065 15.8587 25.7471C16.0503 25.2878 16.3401 24.876 16.7078 24.5406H18.6943C18.1864 25.3392 17.9167 26.2659 17.9167 27.2123C17.9167 28.1587 18.1864 29.0854 18.6943 29.884L18.6994 29.8583Z" fill="#D3D5D7"/>
</g>
<g style="mix-blend-mode:multiply">
<path d="M16.5076 36.7724H13.4278C12.3653 36.7724 11.4722 35.5508 11.4722 34.1033C11.4722 32.6558 12.3653 31.429 13.4278 31.429H16.5076C15.9907 32.2302 15.7195 33.1652 15.7274 34.1187C15.7205 35.0608 15.9919 35.9839 16.5076 36.7724Z" fill="#D3D5D7"/>
</g>
<g style="mix-blend-mode:multiply">
<path d="M22.0718 36.7724H19.3C18.7814 35.9796 18.5098 35.0506 18.5198 34.1033C18.5134 33.1555 18.7826 32.2264 19.2949 31.429H22.0718C21.5476 32.228 21.2692 33.1631 21.2711 34.1187C21.2702 35.0629 21.5488 35.9862 22.0718 36.7724Z" fill="#D3D5D7"/>
</g>
<g style="mix-blend-mode:multiply">
<path d="M35.9307 24.5149C35.7363 24.6611 35.5635 24.8339 35.4174 25.0282C35.0376 25.5408 34.8067 26.1483 34.7501 26.7837L31.6703 29.8635H24.0068C22.9341 29.8635 22.0615 28.6624 22.0615 27.1892C22.0503 26.4974 22.2627 25.8206 22.6671 25.2592C22.8177 25.0404 23.0171 24.8597 23.2497 24.7314C23.4822 24.6031 23.7415 24.5307 24.0068 24.5201L35.9307 24.5149Z" fill="#D3D5D7"/>
</g>
<g style="mix-blend-mode:multiply">
<path d="M37.5938 31.429C37.3985 31.574 37.2255 31.747 37.0805 31.9423C36.6966 32.4642 36.4655 33.0828 36.4132 33.7286L33.3334 36.7827H25.7469C24.669 36.7827 23.7964 35.5816 23.7964 34.1135C23.7838 33.4192 23.9983 32.7397 24.4072 32.1784C24.5566 31.9584 24.7558 31.7768 24.9886 31.6484C25.2214 31.52 25.4812 31.4483 25.7469 31.4393L37.5938 31.429Z" fill="#D3D5D7"/>
</g>
</g>
<defs>
<clipPath id="clip0_230_601">
<rect width="50" height="50" fill="white"/>
</clipPath>
</defs>
</svg>
