<svg width="984" height="1290" viewBox="0 0 984 1290" fill="none" xmlns="http://www.w3.org/2000/svg">
<path d="M342.384 351.178C498.51 249.741 622.156 320.136 724.421 438.217C886.872 625.802 800.057 762.99 662.476 816.568C444.366 901.554 585.666 981.959 389.754 1110.47C277.251 1184.3 124.697 1085.21 4.10837 909.863C-116.481 734.515 -159.503 549.238 -46.989 475.422C27.1616 426.774 94.2 512.408 342.384 351.178Z" fill="#CBE2EF"/>
<g clip-path="url(#clip0_230_2899)">
<path d="M179.31 744.97C179.52 746.097 179.505 747.255 179.266 748.377C179.028 749.499 178.57 750.562 177.92 751.507C177.27 752.452 176.44 753.259 175.477 753.882C174.514 754.506 173.438 754.933 172.31 755.14C171.183 755.35 170.025 755.335 168.903 755.096C167.781 754.857 166.718 754.4 165.773 753.75C164.828 753.099 164.021 752.269 163.398 751.307C162.775 750.344 162.347 749.268 162.14 748.14L157.83 725.14C157.621 724.013 157.636 722.856 157.875 721.735C158.113 720.614 158.571 719.551 159.221 718.607C159.871 717.663 160.702 716.857 161.664 716.234C162.627 715.612 163.703 715.186 164.83 714.98C165.958 714.769 167.116 714.783 168.238 715.021C169.361 715.259 170.425 715.716 171.37 716.367C172.315 717.017 173.122 717.848 173.745 718.811C174.368 719.774 174.795 720.851 175 721.98L179.31 744.97Z" fill="#003D7C"/>
<path d="M292.41 723.76C292.621 724.888 292.607 726.046 292.369 727.168C292.131 728.291 291.674 729.355 291.023 730.3C290.373 731.245 289.542 732.052 288.579 732.675C287.616 733.298 286.539 733.725 285.41 733.93C284.283 734.14 283.125 734.125 282.003 733.886C280.881 733.648 279.818 733.19 278.873 732.54C277.928 731.89 277.121 731.06 276.498 730.097C275.874 729.134 275.447 728.058 275.24 726.93L270.93 703.93C270.719 702.803 270.733 701.644 270.971 700.522C271.209 699.4 271.667 698.336 272.317 697.391C272.967 696.446 273.798 695.639 274.761 695.016C275.725 694.393 276.802 693.966 277.93 693.76C279.058 693.549 280.216 693.563 281.338 693.801C282.46 694.039 283.525 694.497 284.47 695.147C285.415 695.798 286.222 696.628 286.845 697.592C287.468 698.555 287.895 699.632 288.1 700.76L292.41 723.76Z" fill="#003D7C"/>
<path d="M159.37 733.16L289.6 708.75L279.85 656.75C279.85 656.75 277.54 651.12 272.27 649.8L264.27 606.93C264.27 606.93 260.54 585.04 242.95 588.36L158.42 604.21C158.42 604.21 141.69 606.52 145.59 627.34C149.49 648.16 153.82 671.22 153.82 671.22C153.82 671.22 148.49 675.16 149.32 679.6C150.15 684.04 159.37 733.16 159.37 733.16Z" fill="#2782B9"/>
<path d="M281.979 698.24L163.474 720.46L164.346 725.109L282.851 702.889L281.979 698.24Z" fill="#003D7C"/>
<path d="M238.283 709.886L206.104 715.919L207.648 724.156L239.828 718.122L238.283 709.886Z" fill="#003D7C"/>
<path d="M275.84 662.08C276.149 663.734 275.961 665.443 275.299 666.991C274.638 668.538 273.532 669.855 272.122 670.774C270.712 671.693 269.061 672.173 267.378 672.154C265.695 672.135 264.055 671.617 262.667 670.666C261.278 669.715 260.202 668.374 259.576 666.812C258.95 665.249 258.801 663.536 259.148 661.89C259.495 660.243 260.323 658.736 261.526 657.559C262.73 656.383 264.255 655.589 265.91 655.28C267.009 655.072 268.138 655.082 269.232 655.312C270.327 655.541 271.365 655.985 272.288 656.616C273.211 657.248 273.999 658.056 274.609 658.994C275.218 659.931 275.637 660.98 275.84 662.08Z" fill="#D4E6E6"/>
<path d="M172.01 681.54C172.321 683.195 172.135 684.904 171.475 686.453C170.814 688.001 169.71 689.319 168.3 690.24C166.891 691.16 165.24 691.642 163.557 691.624C161.873 691.606 160.233 691.09 158.843 690.139C157.454 689.189 156.377 687.848 155.75 686.286C155.122 684.724 154.972 683.011 155.319 681.363C155.665 679.716 156.493 678.208 157.696 677.031C158.9 675.854 160.425 675.06 162.08 674.75C163.178 674.543 164.306 674.555 165.399 674.784C166.493 675.013 167.53 675.456 168.452 676.087C169.375 676.717 170.164 677.523 170.774 678.459C171.384 679.395 171.804 680.442 172.01 681.54Z" fill="#D4E6E6"/>
<path d="M254.58 620.04C257.12 633.62 250.41 637.41 241.58 639.04L180.45 650.53C171.6 652.19 163.63 649.28 161.45 637.53C159.45 626.66 165.62 620.17 174.45 618.53L235.57 607.07C244.41 605.41 252.48 608.83 254.57 620.07L254.58 620.04Z" fill="#D4E6E6"/>
<path d="M209.72 592.822L182.779 597.77L185.56 612.911L212.501 607.963L209.72 592.822Z" fill="#C62424"/>
<path d="M212.63 708.41C208.434 709.194 204.1 708.281 200.577 705.872C197.054 703.463 194.631 699.754 193.84 695.56L190.95 680.01C190.166 675.816 191.079 671.482 193.489 667.961C195.898 664.439 199.607 662.019 203.8 661.23L220.87 658.03C225.064 657.246 229.398 658.159 232.919 660.569C236.44 662.978 238.861 666.687 239.65 670.88L242.57 686.43C243.351 690.624 242.437 694.956 240.028 698.477C237.619 701.997 233.912 704.419 229.72 705.21L212.63 708.41Z" fill="#003D7C"/>
<path d="M236.37 687.59C236.85 690.147 236.294 692.789 234.826 694.936C233.357 697.084 231.096 698.56 228.54 699.04L211.47 702.24C210.201 702.476 208.897 702.459 207.635 702.19C206.372 701.921 205.174 701.406 204.111 700.674C203.047 699.942 202.139 699.008 201.437 697.925C200.735 696.841 200.253 695.63 200.02 694.36L197.1 678.81C196.624 676.251 197.183 673.607 198.655 671.46C200.127 669.313 202.391 667.838 204.95 667.36L222.02 664.16C223.287 663.923 224.588 663.937 225.849 664.203C227.11 664.468 228.306 664.98 229.369 665.708C230.433 666.436 231.342 667.366 232.046 668.446C232.749 669.526 233.233 670.733 233.47 672L236.37 687.59Z" fill="#2782B9"/>
<path d="M229.82 669.28C229.887 669.642 229.808 670.016 229.6 670.319C229.392 670.623 229.072 670.832 228.71 670.9L201.12 676.08C200.756 676.147 200.379 676.067 200.074 675.857C199.768 675.647 199.558 675.324 199.49 674.96C199.423 674.598 199.502 674.224 199.71 673.92C199.918 673.616 200.238 673.408 200.6 673.34L228.2 668.16C228.38 668.127 228.565 668.129 228.744 668.168C228.923 668.206 229.092 668.279 229.243 668.383C229.393 668.487 229.522 668.62 229.621 668.774C229.72 668.928 229.788 669.1 229.82 669.28Z" fill="#D4E6E6"/>
<path d="M230.63 673.58C230.697 673.943 230.618 674.318 230.41 674.623C230.203 674.929 229.882 675.139 229.52 675.21L201.95 680.36C201.77 680.396 201.584 680.396 201.404 680.359C201.224 680.323 201.053 680.251 200.901 680.147C200.75 680.044 200.62 679.911 200.52 679.757C200.42 679.603 200.352 679.431 200.32 679.25C200.253 678.888 200.332 678.514 200.54 678.21C200.748 677.907 201.068 677.698 201.43 677.63L229.02 672.45C229.383 672.382 229.758 672.461 230.063 672.669C230.369 672.877 230.579 673.197 230.65 673.56L230.63 673.58Z" fill="#D4E6E6"/>
<path d="M231.5 678.21C231.533 678.39 231.53 678.575 231.492 678.754C231.454 678.933 231.38 679.102 231.276 679.253C231.172 679.403 231.04 679.532 230.886 679.631C230.732 679.73 230.56 679.798 230.38 679.83L202.79 685.01C202.61 685.043 202.425 685.041 202.246 685.002C202.067 684.964 201.898 684.891 201.747 684.786C201.597 684.682 201.468 684.55 201.369 684.396C201.27 684.242 201.202 684.07 201.17 683.89C201.103 683.528 201.182 683.154 201.39 682.851C201.598 682.547 201.918 682.338 202.28 682.27L229.87 677.09C230.235 677.023 230.611 677.103 230.917 677.313C231.222 677.523 231.432 677.846 231.5 678.21Z" fill="#D4E6E6"/>
<path d="M232.3 682.51C232.336 682.69 232.336 682.875 232.299 683.055C232.263 683.235 232.191 683.406 232.087 683.558C231.984 683.71 231.851 683.84 231.697 683.939C231.543 684.039 231.371 684.107 231.19 684.14L203.6 689.36C203.42 689.395 203.235 689.393 203.055 689.356C202.876 689.319 202.705 689.247 202.554 689.144C202.402 689.041 202.273 688.909 202.173 688.755C202.072 688.602 202.003 688.43 201.97 688.25C201.937 688.07 201.939 687.885 201.978 687.706C202.016 687.527 202.089 687.358 202.193 687.207C202.297 687.057 202.43 686.928 202.584 686.829C202.738 686.73 202.91 686.662 203.09 686.63L230.68 681.36C231.042 681.293 231.416 681.372 231.719 681.58C232.023 681.788 232.232 682.108 232.3 682.47V682.51Z" fill="#D4E6E6"/>
<path d="M233.12 686.85C233.188 687.213 233.109 687.588 232.901 687.893C232.693 688.199 232.373 688.41 232.01 688.48L204.41 693.65C204.048 693.717 203.674 693.638 203.371 693.43C203.067 693.222 202.858 692.902 202.79 692.54C202.723 692.177 202.802 691.802 203.009 691.496C203.217 691.191 203.537 690.98 203.9 690.91L231.49 685.74C231.853 685.672 232.228 685.751 232.534 685.959C232.839 686.167 233.05 686.487 233.12 686.85Z" fill="#D4E6E6"/>
<path d="M233.95 691.48C233.985 691.659 233.983 691.844 233.946 692.023C233.909 692.201 233.837 692.371 233.734 692.522C233.63 692.673 233.498 692.801 233.345 692.9C233.191 693 233.02 693.068 232.84 693.1L205.25 698.28C205.07 698.313 204.885 698.31 204.706 698.272C204.528 698.234 204.358 698.16 204.208 698.056C204.057 697.952 203.928 697.82 203.829 697.666C203.73 697.512 203.663 697.34 203.63 697.16C203.595 696.981 203.597 696.796 203.634 696.617C203.671 696.438 203.743 696.269 203.847 696.118C203.95 695.967 204.082 695.839 204.235 695.739C204.389 695.64 204.56 695.572 204.74 695.54L232.36 690.36C232.54 690.327 232.725 690.329 232.904 690.368C233.083 690.406 233.252 690.479 233.403 690.584C233.553 690.688 233.682 690.82 233.781 690.974C233.88 691.128 233.948 691.3 233.98 691.48H233.95Z" fill="#D4E6E6"/>
</g>
<path d="M18.0083 915.904C19.8393 915.901 21.6684 915.783 23.4846 915.551C23.6739 915.527 23.8564 915.465 24.022 915.37C24.1875 915.275 24.3326 915.149 24.4492 914.997C24.5657 914.846 24.6514 914.674 24.7012 914.49C24.7511 914.305 24.7643 914.113 24.7398 913.924C24.7154 913.735 24.6539 913.552 24.5589 913.387C24.4639 913.221 24.3373 913.076 24.1862 912.959C24.0351 912.843 23.8626 912.757 23.6784 912.707C23.4942 912.657 23.302 912.644 23.1127 912.669C20.2856 913.038 17.4266 913.097 14.5867 912.845C14.2032 912.81 13.8213 912.928 13.5249 913.174C13.2285 913.419 13.0418 913.773 13.0061 914.156C12.9703 914.54 13.0883 914.922 13.3342 915.218C13.5801 915.515 13.9337 915.701 14.3171 915.737C15.5351 915.802 16.7717 915.904 18.0083 915.904ZM31.9549 913.589C32.1061 913.59 32.2566 913.569 32.4012 913.524C35.2727 912.577 38.0697 911.418 40.7691 910.056C41.1131 909.882 41.374 909.579 41.4943 909.213C41.6146 908.847 41.5846 908.448 41.4107 908.104C41.2369 907.76 40.9335 907.499 40.5674 907.378C40.2012 907.258 39.8021 907.288 39.4581 907.462C36.8833 908.76 34.2133 909.861 31.4714 910.753C31.1681 910.878 30.9158 911.101 30.7558 911.387C30.5958 911.674 30.5374 912.006 30.5903 912.329C30.6432 912.653 30.804 912.949 31.0468 913.169C31.2896 913.39 31.5998 913.521 31.927 913.543L31.9549 913.589ZM47.7611 905.723C48.0526 905.722 48.3372 905.635 48.5793 905.472C51.0745 903.789 53.471 901.963 55.7571 900.005C55.9213 899.889 56.0597 899.741 56.1634 899.569C56.2672 899.397 56.334 899.205 56.3599 899.006C56.3857 898.807 56.3699 898.605 56.3135 898.412C56.257 898.219 56.1611 898.04 56.0319 897.887C55.9027 897.733 55.743 897.607 55.5628 897.519C55.3827 897.43 55.1861 897.379 54.9854 897.371C54.7848 897.362 54.5844 897.395 54.3972 897.467C54.2099 897.54 54.0398 897.651 53.8976 897.792C51.6919 899.677 49.3825 901.437 46.9801 903.064C46.7199 903.237 46.5224 903.489 46.4168 903.782C46.3112 904.076 46.3032 904.396 46.3941 904.695C46.485 904.994 46.6698 905.255 46.9211 905.44C47.1724 905.626 47.4768 905.725 47.789 905.723H47.7611ZM61.2428 894.241C61.4405 894.242 61.6364 894.203 61.8186 894.126C62.0008 894.05 62.1655 893.937 62.3028 893.794C64.3699 891.61 66.3218 889.32 68.151 886.933C68.3833 886.626 68.4854 886.24 68.4349 885.859C68.3844 885.478 68.1855 885.132 67.8814 884.896C67.7306 884.779 67.5579 884.693 67.3734 884.643C67.1889 884.593 66.9963 884.58 66.8068 884.605C66.6173 884.63 66.4347 884.692 66.2696 884.789C66.1045 884.885 65.9602 885.013 65.8451 885.166C64.0784 887.473 62.1915 889.686 60.1921 891.795C60.0605 891.934 59.9575 892.097 59.889 892.275C59.8205 892.453 59.788 892.643 59.7932 892.834C59.7984 893.025 59.8412 893.213 59.9193 893.388C59.9973 893.562 60.1089 893.719 60.2479 893.85C60.5252 894.085 60.8799 894.207 61.2428 894.194V894.241ZM72.0375 880.21C72.2809 880.211 72.5207 880.151 72.735 880.036C72.9494 879.921 73.1314 879.754 73.2647 879.55C74.7802 877.179 76.3051 874.687 77.9136 871.907C78.1059 871.573 78.1578 871.176 78.0575 870.804C77.9572 870.432 77.7131 870.115 77.379 869.922C77.0449 869.73 76.6481 869.678 76.2758 869.779C75.9035 869.879 75.5863 870.123 75.3939 870.457C73.8133 873.19 72.3257 875.654 70.8287 877.979C70.622 878.304 70.5521 878.697 70.6339 879.073C70.7158 879.449 70.9429 879.778 71.2658 879.987C71.5028 880.113 71.7691 880.174 72.0375 880.164V880.21ZM80.954 864.888C81.2165 864.887 81.4739 864.816 81.6995 864.681C81.9252 864.547 82.1108 864.355 82.2371 864.125C83.5852 861.615 84.9149 859.095 86.2538 856.575L86.4024 856.287C86.5837 855.947 86.6224 855.549 86.5099 855.18C86.3975 854.811 86.1431 854.502 85.8028 854.321C85.4625 854.139 85.0641 854.101 84.6953 854.213C84.3265 854.326 84.0175 854.58 83.8362 854.92L83.6783 855.218C82.3487 857.728 81.0284 860.239 79.6802 862.74C79.5887 862.908 79.5313 863.092 79.5113 863.282C79.4913 863.472 79.509 863.664 79.5634 863.847C79.6178 864.03 79.7079 864.201 79.8285 864.349C79.9491 864.497 80.0977 864.62 80.266 864.711C80.4806 864.812 80.7173 864.857 80.954 864.841V864.888ZM89.3219 849.23C89.5825 849.232 89.8386 849.162 90.0629 849.03C90.2872 848.897 90.4713 848.706 90.5957 848.477C92.1671 845.576 93.5803 843.057 94.9099 840.769C95.0715 840.438 95.1016 840.057 94.9939 839.704C94.8862 839.351 94.6487 839.052 94.3293 838.867C94.01 838.682 93.6325 838.625 93.2727 838.707C92.9129 838.789 92.5977 839.004 92.3902 839.31C91.0514 841.625 89.6009 844.163 88.0388 847.082C87.9474 847.25 87.89 847.434 87.87 847.624C87.8499 847.814 87.8676 848.007 87.9221 848.19C87.9765 848.373 88.0666 848.543 88.1872 848.692C88.3077 848.84 88.4564 848.963 88.6246 849.054C88.8341 849.15 89.0638 849.195 89.2941 849.184L89.3219 849.23ZM98.285 833.935C98.5269 833.936 98.7651 833.875 98.9779 833.76C99.1906 833.645 99.3712 833.478 99.5031 833.275C101.186 830.691 102.832 828.338 104.524 826.107C104.639 825.955 104.724 825.781 104.772 825.597C104.82 825.412 104.832 825.22 104.806 825.031C104.78 824.842 104.717 824.66 104.621 824.495C104.525 824.33 104.397 824.186 104.245 824.071C104.093 823.955 103.92 823.871 103.735 823.822C103.55 823.774 103.358 823.762 103.169 823.788C102.98 823.814 102.798 823.877 102.633 823.973C102.468 824.07 102.324 824.197 102.209 824.349C100.47 826.637 98.7871 828.998 97.067 831.695C96.963 831.855 96.8916 832.033 96.8568 832.221C96.8221 832.408 96.8246 832.601 96.8643 832.788C96.9041 832.974 96.9802 833.151 97.0884 833.308C97.1965 833.465 97.3346 833.599 97.4947 833.703C97.7264 833.835 97.9905 833.9 98.257 833.889L98.285 833.935ZM108.996 819.812C109.199 819.813 109.4 819.771 109.586 819.689C109.771 819.608 109.938 819.488 110.075 819.338C110.651 818.696 111.246 818.073 111.841 817.478C113.254 816.019 114.751 814.596 116.267 813.239C116.409 813.112 116.525 812.958 116.608 812.786C116.691 812.614 116.739 812.428 116.75 812.238C116.76 812.047 116.733 811.857 116.671 811.677C116.608 811.497 116.51 811.331 116.383 811.188C116.256 811.046 116.102 810.93 115.931 810.848C115.759 810.765 115.572 810.717 115.382 810.706C115.192 810.695 115.001 810.722 114.821 810.785C114.641 810.848 114.475 810.945 114.333 811.072C112.762 812.467 111.218 813.945 109.758 815.451C109.135 816.102 108.522 816.753 107.899 817.404C107.77 817.545 107.669 817.71 107.604 817.889C107.539 818.069 107.51 818.26 107.518 818.451C107.527 818.642 107.573 818.829 107.654 819.002C107.736 819.175 107.85 819.33 107.992 819.459C108.271 819.698 108.629 819.824 108.996 819.812ZM122.227 808.05C122.527 808.053 122.821 807.958 123.063 807.781C125.397 806.107 127.861 804.517 130.399 803.058C130.564 802.962 130.709 802.834 130.824 802.683C130.94 802.531 131.024 802.358 131.073 802.174C131.122 801.99 131.134 801.797 131.108 801.608C131.083 801.419 131.021 801.237 130.925 801.073C130.829 800.908 130.702 800.763 130.55 800.648C130.398 800.532 130.225 800.448 130.041 800.399C129.857 800.35 129.665 800.338 129.476 800.363C129.287 800.389 129.104 800.451 128.94 800.547C126.327 802.053 123.779 803.69 121.371 805.419C121.12 805.598 120.933 805.853 120.836 806.146C120.739 806.439 120.739 806.755 120.834 807.049C120.93 807.342 121.116 807.597 121.366 807.777C121.617 807.958 121.918 808.053 122.227 808.05ZM285.179 805.363C285.369 805.367 285.559 805.333 285.736 805.264C285.914 805.194 286.075 805.09 286.213 804.958C286.35 804.826 286.46 804.668 286.536 804.494C286.613 804.319 286.654 804.131 286.657 803.941C286.661 803.75 286.627 803.561 286.558 803.384C286.488 803.206 286.384 803.044 286.252 802.907C286.12 802.77 285.962 802.66 285.788 802.584C285.613 802.507 285.425 802.466 285.235 802.463C282.445 802.351 279.526 802.109 276.523 801.747C276.333 801.722 276.139 801.736 275.955 801.787C275.77 801.838 275.597 801.925 275.446 802.044C275.296 802.162 275.17 802.31 275.077 802.477C274.984 802.645 274.926 802.83 274.905 803.02C274.86 803.402 274.968 803.786 275.205 804.089C275.441 804.392 275.788 804.589 276.169 804.638C279.247 805.01 282.259 805.252 285.123 805.363H285.179ZM294.021 805.261H294.114C297.119 805.08 300.112 804.73 303.077 804.211C303.457 804.144 303.795 803.929 304.016 803.614C304.238 803.298 304.325 802.907 304.258 802.528C304.191 802.148 303.977 801.81 303.661 801.589C303.345 801.367 302.955 801.28 302.575 801.347C299.718 801.85 296.834 802.185 293.937 802.351C293.571 802.389 293.233 802.564 292.99 802.841C292.747 803.118 292.618 803.477 292.629 803.845C292.639 804.213 292.789 804.564 293.047 804.826C293.305 805.089 293.653 805.244 294.021 805.261ZM267.569 803.281C267.935 803.286 268.29 803.152 268.562 802.907C268.834 802.661 269.003 802.321 269.034 801.956C269.066 801.591 268.959 801.228 268.733 800.939C268.508 800.65 268.182 800.457 267.82 800.398C265.124 799.906 262.297 799.329 259.201 798.632C259.006 798.552 258.797 798.515 258.586 798.525C258.376 798.534 258.17 798.589 257.983 798.685C257.797 798.782 257.633 798.918 257.504 799.085C257.375 799.251 257.284 799.443 257.237 799.648C257.189 799.854 257.187 800.066 257.231 800.272C257.274 800.478 257.362 800.672 257.488 800.841C257.614 801.01 257.775 801.149 257.96 801.249C258.145 801.349 258.349 801.408 258.56 801.421C261.702 802.137 264.566 802.723 267.309 803.225L267.569 803.281ZM311.436 802.156C311.581 802.152 311.724 802.13 311.864 802.091C314.743 801.197 317.565 800.129 320.315 798.892C320.489 798.814 320.646 798.702 320.777 798.564C320.908 798.425 321.01 798.262 321.078 798.083C321.146 797.905 321.177 797.715 321.172 797.525C321.166 797.334 321.123 797.146 321.045 796.972C320.967 796.798 320.855 796.641 320.716 796.51C320.578 796.38 320.414 796.277 320.236 796.21C320.058 796.142 319.868 796.11 319.677 796.115C319.487 796.121 319.299 796.164 319.125 796.242C316.485 797.432 313.774 798.456 311.008 799.311C310.681 799.419 310.403 799.639 310.223 799.932C310.043 800.226 309.972 800.573 310.024 800.913C310.075 801.254 310.245 801.565 310.503 801.792C310.761 802.02 311.092 802.148 311.436 802.156ZM250.257 799.431C250.615 799.438 250.964 799.312 251.235 799.077C251.506 798.842 251.68 798.515 251.724 798.159C251.768 797.803 251.679 797.443 251.473 797.149C251.267 796.855 250.96 796.648 250.61 796.568C247.914 795.886 245.211 795.192 242.502 794.485L242.037 794.364C241.691 794.329 241.344 794.418 241.058 794.616C240.771 794.814 240.565 795.108 240.477 795.445C240.388 795.781 240.423 796.138 240.574 796.452C240.726 796.765 240.984 797.014 241.303 797.154L241.777 797.274C244.483 797.972 247.188 798.678 249.903 799.357C250.023 799.406 250.148 799.44 250.275 799.459L250.257 799.431ZM137.531 799.162C137.739 799.165 137.946 799.12 138.135 799.032C140.738 797.832 143.463 796.726 146.224 795.74C146.544 795.585 146.795 795.318 146.932 794.99C147.069 794.662 147.081 794.296 146.967 793.959C146.853 793.623 146.62 793.34 146.312 793.163C146.004 792.985 145.643 792.927 145.294 792.997C142.449 794.02 139.641 795.164 136.926 796.391C136.613 796.521 136.355 796.757 136.197 797.058C136.04 797.359 135.993 797.706 136.065 798.038C136.137 798.37 136.323 798.666 136.591 798.875C136.859 799.084 137.191 799.192 137.531 799.18V799.162ZM233.102 795.034C233.461 795.041 233.81 794.914 234.081 794.679C234.352 794.444 234.526 794.117 234.57 793.761C234.614 793.405 234.524 793.045 234.319 792.751C234.113 792.458 233.805 792.25 233.456 792.17C230.211 791.361 227.384 790.682 224.79 790.106C224.604 790.063 224.411 790.058 224.223 790.09C224.034 790.122 223.854 790.191 223.693 790.293C223.531 790.395 223.391 790.528 223.281 790.684C223.171 790.84 223.093 791.017 223.051 791.203C222.971 791.58 223.042 791.974 223.249 792.299C223.456 792.624 223.782 792.855 224.158 792.942C226.724 793.509 229.532 794.188 232.749 794.987C232.864 795.017 232.983 795.033 233.102 795.034ZM327.595 794.931C327.857 794.931 328.114 794.86 328.339 794.727C330.907 793.177 333.389 791.492 335.777 789.678C336.084 789.445 336.286 789.1 336.338 788.718C336.391 788.336 336.289 787.949 336.056 787.642C335.823 787.335 335.478 787.133 335.096 787.081C334.714 787.028 334.327 787.13 334.02 787.363C331.717 789.118 329.321 790.748 326.842 792.244C326.569 792.407 326.356 792.656 326.238 792.952C326.12 793.247 326.102 793.574 326.188 793.88C326.273 794.187 326.458 794.457 326.712 794.649C326.966 794.84 327.277 794.943 327.595 794.941V794.931ZM154.22 793.174C154.349 793.172 154.476 793.157 154.601 793.128C157.391 792.374 160.245 791.714 163.137 791.166C163.5 791.077 163.816 790.852 164.018 790.537C164.221 790.222 164.294 789.841 164.224 789.473C164.153 789.105 163.944 788.779 163.64 788.561C163.335 788.343 162.959 788.25 162.588 788.302C159.622 788.879 156.684 789.548 153.839 790.32C153.496 790.409 153.197 790.62 152.999 790.914C152.802 791.208 152.718 791.564 152.765 791.916C152.812 792.267 152.986 792.589 153.254 792.821C153.522 793.053 153.866 793.178 154.22 793.174ZM215.781 791.212C216.14 791.205 216.485 791.064 216.747 790.818C217.01 790.572 217.173 790.238 217.204 789.879C217.235 789.521 217.132 789.163 216.916 788.876C216.7 788.588 216.385 788.39 216.032 788.321C213.103 787.809 210.128 787.391 207.18 787.019C206.991 786.994 206.798 787.008 206.614 787.059C206.429 787.11 206.257 787.198 206.107 787.316C205.957 787.435 205.833 787.583 205.741 787.75C205.649 787.918 205.591 788.103 205.572 788.293C205.548 788.482 205.563 788.673 205.614 788.856C205.665 789.04 205.751 789.211 205.869 789.36C205.986 789.51 206.133 789.635 206.299 789.728C206.465 789.82 206.647 789.879 206.836 789.901C209.728 790.245 212.657 790.682 215.53 791.184C215.611 791.212 215.695 791.231 215.781 791.24V791.212ZM171.626 789.818H171.802C174.657 789.474 177.595 789.213 180.542 789.046C180.733 789.035 180.919 788.987 181.091 788.904C181.263 788.821 181.417 788.705 181.544 788.563C181.671 788.42 181.769 788.254 181.831 788.074C181.894 787.893 181.92 787.702 181.909 787.512C181.883 787.129 181.707 786.771 181.421 786.516C181.134 786.26 180.758 786.127 180.375 786.145C177.372 786.312 174.368 786.582 171.449 786.935C171.08 786.977 170.741 787.159 170.502 787.444C170.263 787.728 170.142 788.094 170.165 788.465C170.187 788.836 170.352 789.184 170.623 789.437C170.895 789.691 171.254 789.83 171.626 789.827V789.818ZM198.18 789.111C198.565 789.123 198.938 788.982 199.219 788.719C199.5 788.456 199.665 788.092 199.677 787.707C199.689 787.322 199.548 786.949 199.285 786.668C199.022 786.387 198.658 786.222 198.273 786.21C195.288 786.024 192.285 785.922 189.329 785.903C188.963 785.933 188.621 786.099 188.372 786.368C188.123 786.638 187.985 786.991 187.985 787.358C187.985 787.725 188.123 788.079 188.372 788.349C188.621 788.618 188.963 788.784 189.329 788.813C192.22 788.813 195.177 788.925 198.106 789.111H198.18ZM341.728 784.276C342.097 784.275 342.451 784.135 342.723 783.886C344.88 781.887 347.009 779.73 349.045 777.48C349.173 777.338 349.271 777.172 349.335 776.993C349.399 776.813 349.426 776.623 349.416 776.432C349.406 776.242 349.359 776.055 349.277 775.883C349.195 775.711 349.08 775.557 348.938 775.429C348.797 775.302 348.631 775.203 348.452 775.14C348.272 775.076 348.081 775.048 347.891 775.058C347.701 775.068 347.514 775.115 347.342 775.198C347.17 775.28 347.016 775.395 346.888 775.536C344.908 777.721 342.844 779.813 340.742 781.747C340.602 781.877 340.489 782.033 340.409 782.207C340.33 782.38 340.285 782.568 340.278 782.759C340.271 782.95 340.302 783.14 340.369 783.319C340.436 783.498 340.537 783.662 340.668 783.802C340.799 783.956 340.961 784.081 341.144 784.167C341.327 784.254 341.526 784.301 341.728 784.304V784.276ZM353.629 771.138C353.853 771.139 354.074 771.087 354.274 770.987C354.474 770.887 354.648 770.742 354.782 770.562C356.567 768.228 358.306 765.755 359.961 763.226C360.152 762.902 360.211 762.517 360.125 762.151C360.039 761.784 359.815 761.466 359.499 761.26C359.184 761.055 358.802 760.98 358.432 761.05C358.062 761.12 357.734 761.33 357.515 761.636C355.916 764.109 354.215 766.517 352.476 768.795C352.308 769.01 352.205 769.268 352.177 769.539C352.149 769.81 352.198 770.084 352.318 770.328C352.438 770.573 352.625 770.779 352.857 770.922C353.089 771.065 353.356 771.14 353.629 771.138ZM363.308 756.262C363.568 756.261 363.823 756.191 364.047 756.059C364.271 755.926 364.456 755.737 364.582 755.509C366.014 752.924 367.371 750.237 368.673 747.531C368.762 747.358 368.816 747.169 368.831 746.974C368.845 746.78 368.821 746.585 368.758 746.4C368.696 746.215 368.597 746.045 368.467 745.9C368.337 745.754 368.18 745.636 368.003 745.553C367.827 745.47 367.636 745.423 367.441 745.416C367.246 745.408 367.052 745.44 366.869 745.509C366.687 745.578 366.521 745.684 366.38 745.819C366.239 745.954 366.127 746.116 366.051 746.295C364.796 748.945 363.447 751.567 362.043 754.096C361.95 754.263 361.89 754.447 361.868 754.637C361.846 754.827 361.862 755.02 361.914 755.204C361.967 755.388 362.056 755.56 362.175 755.71C362.295 755.859 362.443 755.984 362.611 756.076C362.819 756.214 363.059 756.298 363.308 756.318V756.262ZM370.895 740.233C371.187 740.233 371.473 740.144 371.714 739.978C371.955 739.812 372.139 739.576 372.243 739.303C373.34 736.514 374.372 733.724 375.293 730.935C375.416 730.565 375.387 730.161 375.213 729.813C375.039 729.464 374.733 729.199 374.363 729.075C373.993 728.952 373.589 728.981 373.241 729.155C372.892 729.33 372.627 729.635 372.503 730.005C371.574 732.795 370.588 735.584 369.519 738.262C369.384 738.616 369.393 739.009 369.544 739.356C369.696 739.704 369.977 739.978 370.328 740.121C370.505 740.212 370.697 740.269 370.895 740.289V740.233Z" fill="#105E99" fill-opacity="0.35"/>
<defs>
<clipPath id="clip0_230_2899">
<rect width="147.56" height="167.29" fill="white" transform="translate(145 588)"/>
</clipPath>
</defs>
</svg>
