<svg width="161" height="152" viewBox="0 0 161 152" fill="none" xmlns="http://www.w3.org/2000/svg">
<g clip-path="url(#clip0_230_1109)">
<path d="M160.81 141.89C160.81 147.15 124.81 151.4 80.4198 151.4C36.0298 151.4 0.0297852 147.15 0.0297852 141.89C0.0297852 136.63 36.0298 132.39 80.4198 132.39C124.81 132.39 160.81 136.65 160.81 141.89Z" fill="#EAD2BB"/>
<path d="M134.87 82.33H82.3097C80.8461 82.33 79.6597 83.5164 79.6597 84.98V137.54C79.6597 139.004 80.8461 140.19 82.3097 140.19H134.87C136.333 140.19 137.52 139.004 137.52 137.54V84.98C137.52 83.5164 136.333 82.33 134.87 82.33Z" fill="#00A0C6"/>
<path d="M120.1 82.33H67.5396C66.0761 82.33 64.8896 83.5164 64.8896 84.98V137.54C64.8896 139.004 66.0761 140.19 67.5396 140.19H120.1C121.563 140.19 122.75 139.004 122.75 137.54V84.98C122.75 83.5164 121.563 82.33 120.1 82.33Z" fill="#00BBE9"/>
<path d="M114.87 88.1H72.7797C71.6088 88.1 70.6597 89.0491 70.6597 90.22V132.31C70.6597 133.481 71.6088 134.43 72.7797 134.43H114.87C116.041 134.43 116.99 133.481 116.99 132.31V90.22C116.99 89.0491 116.041 88.1 114.87 88.1Z" fill="#6DCEEC"/>
<path d="M108.81 117.21C108.783 118.414 108.514 119.601 108.02 120.7C107.411 122.073 106.561 123.327 105.51 124.4C104.272 125.667 102.788 126.667 101.15 127.34C99.1867 128.128 97.0848 128.512 94.9698 128.47C93.3323 128.486 91.6984 128.315 90.0998 127.96C88.691 127.649 87.3407 127.116 86.0998 126.38C84.8565 125.622 83.7453 124.666 82.8098 123.55C81.904 122.461 81.135 121.266 80.5198 119.99C79.882 118.649 79.4086 117.235 79.1098 115.78C78.7828 114.215 78.6219 112.619 78.6298 111.02C78.5926 108.532 78.9955 106.057 79.8198 103.71C80.5531 101.649 81.7115 99.7647 83.2198 98.18C84.6853 96.6602 86.4581 95.4705 88.4198 94.69C90.4357 93.8838 92.5888 93.4763 94.7598 93.49C97.2949 93.4419 99.8047 94.0008 102.08 95.12C104.013 96.0409 105.697 97.4127 106.99 99.12C108.02 100.425 108.618 102.019 108.7 103.68C108.702 104.454 108.405 105.2 107.87 105.76C107.621 106.046 107.314 106.274 106.969 106.429C106.623 106.585 106.248 106.663 105.87 106.66C105.148 106.721 104.431 106.498 103.87 106.04C103.277 105.4 102.781 104.675 102.4 103.89C101.67 102.4 100.589 101.11 99.2498 100.13C97.9278 99.2631 96.3698 98.8264 94.7898 98.88C93.4928 98.836 92.2043 99.1047 91.0329 99.6634C89.8616 100.222 88.8419 101.054 88.0598 102.09C86.3931 104.23 85.5598 107.267 85.5598 111.2C85.4912 113.442 85.8685 115.675 86.6698 117.77C87.281 119.367 88.3751 120.734 89.7998 121.68C91.2288 122.56 92.8819 123.008 94.5598 122.97C96.3393 123.028 98.0908 122.516 99.5598 121.51C101.006 120.425 102.081 118.919 102.64 117.2C102.882 116.419 103.25 115.682 103.73 115.02C103.985 114.724 104.306 114.494 104.668 114.348C105.03 114.202 105.421 114.144 105.81 114.18C106.197 114.176 106.581 114.249 106.94 114.395C107.299 114.541 107.625 114.757 107.9 115.03C108.199 115.307 108.435 115.645 108.592 116.021C108.749 116.397 108.823 116.803 108.81 117.21Z" fill="#FFCD03"/>
<path d="M113.14 118.47C112.945 118.47 112.753 118.432 112.573 118.357C112.394 118.283 112.231 118.174 112.093 118.036C111.956 117.899 111.847 117.736 111.772 117.556C111.698 117.377 111.66 117.184 111.66 116.99V91.99C111.66 91.5922 111.818 91.2106 112.099 90.9293C112.38 90.648 112.762 90.49 113.16 90.49C113.557 90.49 113.939 90.648 114.22 90.9293C114.502 91.2106 114.66 91.5922 114.66 91.99V116.99C114.66 117.188 114.62 117.384 114.543 117.566C114.466 117.748 114.354 117.913 114.212 118.051C114.07 118.189 113.903 118.297 113.718 118.369C113.534 118.441 113.337 118.475 113.14 118.47Z" fill="white"/>
<path d="M113.14 124.89C112.747 124.89 112.371 124.734 112.093 124.457C111.816 124.179 111.66 123.803 111.66 123.41V120.41C111.66 120.012 111.818 119.631 112.099 119.349C112.38 119.068 112.762 118.91 113.16 118.91C113.557 118.91 113.939 119.068 114.22 119.349C114.502 119.631 114.66 120.012 114.66 120.41V123.41C114.66 123.608 114.62 123.804 114.543 123.986C114.466 124.168 114.354 124.333 114.212 124.471C114.07 124.609 113.903 124.717 113.718 124.789C113.534 124.861 113.337 124.895 113.14 124.89Z" fill="white"/>
<path d="M31.3699 133.96C32.2433 134.277 33.2042 134.252 34.0599 133.89V124.07C33.6058 123.939 33.124 123.939 32.6699 124.07C32.6699 124.07 30.6699 124.71 30.5099 127.69C30.4799 127.69 28.5699 132.88 31.3699 133.96Z" fill="white"/>
<path d="M32.1199 133.86C32.4225 134.007 32.7551 134.083 33.0917 134.08C33.4283 134.078 33.7597 133.997 34.06 133.845C34.3602 133.693 34.6212 133.473 34.8225 133.204C35.0237 132.934 35.1598 132.621 35.2199 132.29L36.4099 125.86C36.4099 125.79 36.2699 125.61 36.2399 125.56C35.9206 125.076 35.488 124.678 34.9799 124.4C34.6813 124.222 34.3466 124.113 34.0004 124.082C33.6542 124.051 33.3055 124.098 32.9799 124.22C32.3118 124.584 31.7971 125.177 31.5299 125.89C31.4002 126.179 31.2997 126.481 31.2299 126.79C31.1599 127.08 31.2299 127.44 31.0899 127.71C31.1199 127.69 29.2799 133.04 32.1199 133.86Z" fill="#F37C91"/>
<path d="M34.8098 129.63L45.6098 138.74L47.8098 130.9L35.6098 125.22C35.6098 125.22 34.5098 124.72 33.7998 126.42C33.8098 126.4 33.0898 128.8 34.8098 129.63Z" fill="#825590"/>
<path d="M33.1796 131.66C31.0996 131.21 32.3596 129.27 32.3596 129.27C33.1106 129.718 33.957 129.982 34.8296 130.04C34.8296 130.04 34.8096 132.02 33.1796 131.66Z" fill="#F8B78F"/>
<g style="mix-blend-mode:soft-light">
<path d="M32.4999 133.22C32.3529 133.116 32.2126 133.002 32.0799 132.88C31.95 132.77 31.8296 132.65 31.7199 132.52C31.5992 132.381 31.4982 132.226 31.4199 132.06C31.3386 131.893 31.2717 131.719 31.2199 131.54C31.2255 131.453 31.2255 131.367 31.2199 131.28V131.03C31.2199 130.87 31.2199 130.74 31.2199 130.64C31.2199 130.54 31.2199 130.49 31.2199 130.49L31.1499 130.62C31.082 130.742 31.0315 130.874 30.9999 131.01C30.9484 131.202 30.9248 131.401 30.9299 131.6C30.9299 131.71 30.9299 131.83 30.9899 131.94C31.0244 132.057 31.0679 132.17 31.1199 132.28C31.1773 132.387 31.2407 132.49 31.3099 132.59C31.383 132.68 31.467 132.761 31.5599 132.83C31.7145 132.959 31.8904 133.061 32.0799 133.13C32.2139 133.183 32.3558 133.213 32.4999 133.22Z" fill="white"/>
</g>
<path d="M50.0598 137.08L50.5598 128.37H44.5298L45.0298 137.08H50.0598Z" fill="#F2B193"/>
<path d="M50.0596 137.08L50.5596 128.37H44.5596L45.0596 137.08C45.0315 137.415 45.0775 137.752 45.1943 138.067C45.311 138.382 45.4958 138.668 45.7353 138.904C45.9749 139.139 46.2634 139.319 46.5804 139.431C46.8974 139.543 47.2351 139.583 47.5696 139.55C47.5696 139.55 50.1696 139.55 50.0596 137.08Z" fill="#F8B78F"/>
<g style="mix-blend-mode:multiply" opacity="0.5">
<path d="M47.1796 139.16C45.7796 138.42 45.6596 137.07 45.7696 135.62C45.8796 134.17 45.4396 132.33 46.1096 131.04C47.0496 129.26 48.8296 129.71 50.4996 129.44L50.5596 128.37H44.5596L45.0596 137.08C45.0315 137.415 45.0775 137.752 45.1943 138.067C45.311 138.382 45.4958 138.668 45.7353 138.904C45.9749 139.139 46.2634 139.319 46.5804 139.431C46.8974 139.543 47.2351 139.583 47.5696 139.55C47.8125 139.536 48.0535 139.499 48.2896 139.44C47.9025 139.437 47.5217 139.341 47.1796 139.16Z" fill="#F2B193"/>
</g>
<path d="M21.8099 134.02C22.6807 134.336 23.6395 134.308 24.4899 133.94V124.13C24.0392 123.999 23.5605 123.999 23.1099 124.13C23.1099 124.13 21.1099 124.77 20.9499 127.75C20.9199 127.75 19.0099 132.93 21.8099 134.02Z" fill="white"/>
<path d="M22.5497 133.92C22.8495 134.067 23.1791 134.144 23.5132 134.144C23.8472 134.145 24.177 134.069 24.4771 133.922C24.7773 133.775 25.0399 133.562 25.2448 133.298C25.4498 133.034 25.5917 132.727 25.6597 132.4C25.6597 132.4 26.8097 125.92 26.8097 125.91C26.8097 125.9 26.6697 125.66 26.6397 125.61C26.3405 125.108 25.9169 124.691 25.4097 124.4C25.113 124.217 24.7779 124.106 24.4309 124.074C24.0838 124.043 23.7342 124.093 23.4097 124.22C22.7465 124.591 22.2337 125.181 21.9597 125.89C21.8344 126.181 21.734 126.482 21.6597 126.79C21.5897 127.08 21.6597 127.44 21.5297 127.71C21.5597 127.75 19.7197 133.1 22.5497 133.92Z" fill="#F37C91"/>
<path d="M25.1998 129.69L35.8098 139.46L38.3098 130.96L26.1198 125.28C26.1198 125.28 25.0198 124.78 24.3098 126.48C24.2698 126.48 23.5298 128.86 25.1998 129.69Z" fill="#825590"/>
<path d="M23.62 131.72C21.54 131.27 22.8 129.33 22.8 129.33C23.5507 129.777 24.3977 130.038 25.27 130.09C25.27 130.09 25.26 132.08 23.62 131.72Z" fill="#F8B78F"/>
<g style="mix-blend-mode:soft-light">
<path d="M22.9397 133.27C22.794 133.167 22.6539 133.057 22.5197 132.94C22.3923 132.828 22.2721 132.707 22.1597 132.58C22.0394 132.439 21.9354 132.284 21.8497 132.12C21.7689 131.953 21.7052 131.779 21.6597 131.6C21.6644 131.51 21.6644 131.42 21.6597 131.33C21.6597 131.25 21.6597 131.16 21.6597 131.09C21.6597 131.02 21.6597 130.8 21.6597 130.7C21.6597 130.6 21.6597 130.55 21.6597 130.55C21.632 130.591 21.6086 130.634 21.5897 130.68C21.5176 130.8 21.4669 130.932 21.4397 131.07C21.3783 131.26 21.3545 131.461 21.3697 131.66C21.3697 131.77 21.3697 131.89 21.3697 132C21.3697 132.11 21.4397 132.23 21.4997 132.34C21.5546 132.447 21.6217 132.548 21.6997 132.64C21.7727 132.733 21.8567 132.817 21.9497 132.89C22.1043 133.019 22.2803 133.121 22.4697 133.19C22.6194 133.248 22.7792 133.275 22.9397 133.27Z" fill="white"/>
</g>
<path d="M40.4897 137.14L40.9897 128.43H34.9697L35.4697 137.14H40.4897Z" fill="#F2B193"/>
<path d="M40.4897 137.13L40.9897 128.43H34.9897L35.4897 137.13C35.4637 137.465 35.511 137.801 35.6283 138.116C35.7457 138.431 35.9303 138.716 36.1692 138.952C36.4082 139.189 36.6958 139.37 37.0119 139.483C37.3281 139.597 37.6652 139.64 37.9997 139.61C37.9997 139.61 40.5997 139.61 40.4897 137.13Z" fill="#F8B78F"/>
<g style="mix-blend-mode:multiply" opacity="0.5">
<path d="M36.5597 131.1C36.4248 131.371 36.3305 131.661 36.2797 131.96C35.807 132.83 35.4698 133.768 35.2797 134.74L34.9697 128.4H40.9697L40.9097 129.47C39.2697 129.77 37.4897 129.32 36.5597 131.1Z" fill="#F2B193"/>
</g>
<path d="M65.5797 73.64C64.3697 78.19 68.9697 79.87 68.3797 84.53C68.0797 86.88 66.0597 88.6 66.2297 91.02C66.3997 93.44 68.3097 95.08 67.8997 97.64C67.5297 99.95 65.2497 102.17 62.6597 101.5C60.0697 100.83 60.6597 98.86 57.9597 101.31C56.1797 102.94 55.0897 104.31 52.4197 102.99C50.2797 101.93 49.8297 99.72 46.9397 100.35C44.8397 100.81 43.2497 102.43 40.7497 101.97C38.6797 101.6 37.5697 99.42 35.0997 99.88C33.2797 100.22 31.7497 102.27 30.0297 102.45C28.0297 102.67 26.2497 101.2 24.0297 101.21C22.3797 101.21 19.6297 101.79 18.3697 100.55C16.6697 98.88 18.0797 96.48 18.0797 94.55C18.0797 92.62 17.1797 90.96 17.3597 88.83C17.5597 86.55 18.9597 84.49 18.7897 82.17C18.5997 79.48 19.3397 78.7 19.0197 75.74C18.3197 69.27 21.8697 67.27 22.4297 64.59C22.8897 62.38 23.1097 64.37 24.7497 62.82C27.3697 60.34 30.0097 61.99 33.1397 61.22C36.8197 60.32 39.9797 59.22 43.9897 59.78C45.3797 59.95 46.7297 60.78 48.1597 60.73C49.7697 60.73 50.8697 59.73 52.4397 59.35C55.2797 58.67 58.5497 56.65 60.6697 58.89C62.7897 61.13 66.6397 69.63 65.5797 73.64Z" fill="#D77A4D"/>
<path d="M17.3998 88.87C17.5998 86.59 18.9998 84.53 18.8298 82.21C18.6398 79.52 19.3798 78.74 19.0598 75.78C18.3598 69.31 23.3798 61.03 25.6698 59.23C27.6698 57.67 27.1598 61.53 28.7898 59.98C31.4098 57.5 30.0498 62.03 33.1798 61.26C34.0998 61.04 34.9798 60.8 35.8598 60.59C34.3298 61.72 32.7398 62.76 31.4198 63.87C29.5263 65.4609 28.0415 67.4823 27.0898 69.765C26.1381 72.0477 25.7472 74.5252 25.9498 76.99C26.1898 82.2 32.1498 86.73 29.0898 91.93C28.0898 93.65 26.6798 95.37 26.5798 97.45C26.5137 99.0771 26.9015 100.691 27.6998 102.11C26.5484 101.61 25.3215 101.306 24.0698 101.21C22.4198 101.21 19.6698 101.79 18.4098 100.55C16.7098 98.88 18.1198 96.48 18.1198 94.55C18.1198 92.62 17.2198 91 17.3998 88.87Z" fill="#F9A05D"/>
<path d="M59.3397 97.94C59.7622 95.3046 59.5671 92.6071 58.7697 90.06C57.9197 87.47 56.1797 85.54 55.0897 83.06C53.6497 79.85 55.0897 77.19 55.4597 73.95C55.8083 70.9068 55.4384 67.8243 54.3797 64.95C53.6804 63.0186 52.4999 61.2976 50.9497 59.95C51.4419 59.7204 51.954 59.5363 52.4797 59.4C55.3197 58.72 56.9397 55.72 59.3497 57.64C62.9597 60.53 66.6397 69.64 65.5797 73.64C64.3697 78.19 68.9697 79.87 68.3797 84.53C68.0797 86.88 66.0597 88.6 66.2297 91.02C66.3997 93.44 68.3097 95.08 67.8997 97.64C67.5297 99.95 65.2497 102.17 62.6597 101.5C60.3097 100.89 60.5497 99.22 58.5997 100.76C58.9432 99.848 59.1911 98.903 59.3397 97.94Z" fill="#F9A05D"/>
<path d="M65.8996 81.25C63.6488 87.3141 59.2016 92.311 53.4396 95.25C53.4396 95.25 53.2196 96.9 54.5696 97.25C54.5696 97.25 66.1296 93.25 68.0396 81.9C68.0396 81.9 67.8096 79.68 65.8996 81.25Z" fill="#F8B78F"/>
<path d="M70.0998 77.89C70.2007 78.9379 70.0463 79.9947 69.6498 80.97C69.6498 80.97 69.0698 82.39 68.0798 82.65C67.6368 82.8332 67.1426 82.8513 66.6874 82.7008C66.2322 82.5503 65.8463 82.2412 65.5998 81.83C65.4494 81.4175 65.4081 80.9732 65.4798 80.54V80.46C65.4935 79.9788 65.4258 79.4987 65.2798 79.04C65.0098 78.28 65.6098 78.04 65.6098 78.04C65.6768 78.0189 65.7474 78.0118 65.8172 78.0192C65.887 78.0266 65.9545 78.0484 66.0155 78.0831C66.0766 78.1179 66.1297 78.1648 66.1718 78.2211C66.2138 78.2773 66.2438 78.3416 66.2598 78.41C66.3598 78.74 66.4498 79.09 66.5398 79.41C66.7898 79.89 66.9898 79.54 66.9898 79.54C67.1253 78.7068 67.1955 77.8642 67.1998 77.02C67.2073 76.8943 67.262 76.7762 67.3528 76.689C67.4436 76.6019 67.564 76.5523 67.6898 76.55C67.6898 76.55 68.1098 76.41 68.1898 77.64C68.2107 78.3571 68.1333 79.0738 67.9598 79.77C68.1708 79.0343 68.2884 78.275 68.3098 77.51C68.1698 76.75 68.7798 76.81 68.7798 76.81C69.4598 77.01 69.1898 78.41 69.1898 78.41C68.9798 79.66 68.9498 80.19 68.9498 80.19L69.2798 78.19C69.2798 78.19 69.2798 77.46 69.6498 77.46C69.6498 77.49 69.9798 77.4 70.0998 77.89Z" fill="#F8B78F"/>
<path d="M50.1096 100.91C50.1096 100.91 52.4896 104.18 57.0196 99.28L59.3596 97.38C59.3383 96.3319 59.0427 95.3076 58.5023 94.4093C57.9619 93.511 57.1956 92.7699 56.2796 92.2599C56.2796 92.2599 48.0096 95.14 50.1096 100.91Z" fill="#F06AA7"/>
<path d="M20.12 81.25C22.3707 87.3141 26.818 92.311 32.58 95.25C32.58 95.25 32.8 96.9 31.45 97.25C31.45 97.25 19.89 93.25 17.98 81.9C17.98 81.9 18.24 79.68 20.12 81.25Z" fill="#F8B78F"/>
<path d="M15.9196 77.89C15.8188 78.9379 15.9732 79.9947 16.3696 80.97C16.3696 80.97 16.9496 82.39 17.9396 82.65C18.3827 82.8332 18.8768 82.8513 19.332 82.7008C19.7872 82.5503 20.1732 82.2412 20.4196 81.83C20.57 81.4175 20.6114 80.9732 20.5396 80.54V80.46C20.526 79.9788 20.5936 79.4987 20.7396 79.04C21.0096 78.28 20.4096 78.04 20.4096 78.04C20.3427 78.0189 20.2721 78.0118 20.2023 78.0192C20.1324 78.0266 20.0649 78.0484 20.0039 78.0831C19.9429 78.1179 19.8897 78.1648 19.8477 78.2211C19.8056 78.2773 19.7757 78.3416 19.7596 78.41C19.6596 78.74 19.5696 79.09 19.4796 79.41C19.2296 79.89 19.0296 79.54 19.0296 79.54C18.895 78.7068 18.8281 77.864 18.8296 77.02C18.8197 76.8935 18.763 76.7752 18.6705 76.6883C18.5781 76.6014 18.4565 76.5521 18.3296 76.55C18.3296 76.55 17.9096 76.41 17.8296 77.64C17.8087 78.3571 17.8861 79.0738 18.0596 79.77C17.8507 79.0342 17.7365 78.2747 17.7196 77.51C17.8496 76.75 17.2396 76.81 17.2396 76.81C16.5596 77.01 16.8296 78.41 16.8296 78.41C17.0396 79.66 17.0696 80.19 17.0696 80.19L16.7396 78.19C16.7396 78.19 16.7396 77.46 16.3696 77.46C16.3696 77.49 16.0396 77.4 15.9196 77.89Z" fill="#F8B78F"/>
<path d="M35.9097 100.91C35.9097 100.91 33.5297 104.18 28.9997 99.28L26.6597 97.4C26.681 96.3518 26.9766 95.3276 27.517 94.4293C28.0574 93.531 28.8237 92.7899 29.7397 92.28C29.7397 92.28 38.0097 95.14 35.9097 100.91Z" fill="#F06AA7"/>
<path d="M46.1097 92.4H40.1997V95.04H46.1097V92.4Z" fill="#FBB88E"/>
<path d="M40.1997 93.19V92.4H46.0997V94.0099C44.0964 94.1841 42.0796 93.9038 40.1997 93.19Z" fill="#E69D82"/>
<path d="M33.7398 97.19C33.8573 96.7043 34.0987 96.2573 34.4405 95.8928C34.7822 95.5282 35.2127 95.2585 35.6898 95.11L40.9098 94.11H45.3598L50.5698 95.11C51.0562 95.2511 51.497 95.5175 51.848 95.8825C52.199 96.2476 52.4479 96.6985 52.5698 97.19C52.9098 107.27 53.2098 112.88 53.7998 120.98C50.3888 122.178 46.7823 122.72 43.1698 122.58C39.5607 122.72 35.9576 122.177 32.5498 120.98C32.7498 116.75 33.2398 107.51 33.7398 97.19Z" fill="#FBB88E"/>
<path d="M39.81 94.3L35.69 95.11C35.2036 95.2511 34.7628 95.5175 34.4118 95.8825C34.0608 96.2476 33.8119 96.6985 33.69 97.19C33.29 105.19 33.09 110.01 32.46 120.98C35.8677 122.177 39.4708 122.72 43.08 122.58C46.7259 122.735 50.3679 122.192 53.81 120.98C53.32 112.38 53.03 107.56 52.58 97.19C52.4581 96.6985 52.2091 96.2476 51.8581 95.8825C51.5071 95.5175 51.0663 95.2511 50.58 95.11L46.64 94.34C46.64 94.34 46.58 96.87 43.3 96.8C43.31 96.8 40.2 97.2 39.81 94.3Z" fill="#F285B5"/>
<path d="M34.9097 137.87L32.4497 120.3H53.8097L51.5097 137.87C51.4791 138.224 51.375 138.568 51.2041 138.88C51.0331 139.192 50.799 139.465 50.5168 139.681C50.2345 139.898 49.9103 140.053 49.5647 140.137C49.2191 140.221 48.8598 140.232 48.5097 140.17C48.5097 140.17 45.5097 140.34 44.9397 137.87L44.1397 129.4H42.1397L40.9997 137.85C40.9997 137.85 41.2397 140.17 38.5197 140.16C38.5097 140.18 35.2697 140.47 34.9097 137.87Z" fill="#9A65AA"/>
<path d="M32.4497 120.31L33.0797 106.72C33.0797 106.72 38.2897 104.99 36.8197 94.84L38.4897 94.5C38.4897 94.5 37.7697 101.73 42.6397 101.5C42.6397 101.5 48.0397 102.5 48.0097 94.57L49.5897 94.88C49.5897 94.88 47.5897 105.53 53.3597 107.11L53.8097 120.31H32.4497Z" fill="#9A65AA"/>
<path d="M23.3599 75.71C23.3599 85.32 32.1699 93.11 43.0299 93.11C53.8899 93.11 62.6899 85.32 62.6899 75.71C62.6899 66.1 53.8899 58.32 43.0299 58.32C32.1699 58.32 23.3599 66.11 23.3599 75.71Z" fill="#F8B78F"/>
<path d="M65.1599 79.2C65.0349 79.6221 64.7933 80.0004 64.4629 80.2915C64.1325 80.5825 63.7268 80.7744 63.2922 80.8451C62.8577 80.9159 62.412 80.8626 62.0064 80.6915C61.6008 80.5203 61.2516 80.2381 60.9992 79.8775C60.7467 79.5168 60.6011 79.0922 60.5791 78.6525C60.5571 78.2128 60.6596 77.7758 60.8748 77.3917C61.09 77.0076 61.4092 76.692 61.7958 76.4812C62.1823 76.2704 62.6204 76.1729 63.0599 76.2C63.7336 76.3243 64.3314 76.7086 64.7243 77.2699C65.1172 77.8312 65.2736 78.5244 65.1599 79.2Z" fill="#F8B78F"/>
<path d="M64.0395 77.09C63.8659 77.0016 63.6744 76.9537 63.4795 76.95C62.6495 76.95 62.0495 78.36 62.8895 78.57C62.9754 78.6683 63.0226 78.7944 63.0226 78.925C63.0226 79.0555 62.9754 79.1816 62.8895 79.28C62.716 79.4519 62.5802 79.658 62.4907 79.8853C62.4011 80.1125 62.3599 80.3559 62.3695 80.6C62.4203 80.7302 62.5059 80.8438 62.6171 80.9285C62.7282 81.0132 62.8606 81.0656 62.9995 81.08C63.2095 81.08 63.2395 80.94 63.0695 80.87C62.9414 80.8047 62.8289 80.7127 62.7395 80.6C62.7395 80.6 62.7395 80.6 62.7395 80.55C62.7249 80.5169 62.7174 80.4811 62.7174 80.445C62.7174 80.4088 62.7249 80.373 62.7395 80.34C62.8253 80.4231 62.9401 80.4695 63.0595 80.4695C63.179 80.4695 63.2937 80.4231 63.3795 80.34C63.5195 80.13 63.3795 79.81 63.3795 79.58C63.4202 79.4133 63.4806 79.2522 63.5595 79.1C63.8995 78.39 63.2095 78.31 63.2095 78.31H62.9595C62.5995 78.12 62.9595 77.54 63.1695 77.44C63.2859 77.3764 63.4196 77.3518 63.551 77.3698C63.6824 77.3877 63.8046 77.4474 63.8995 77.54C64.0767 77.7611 64.1721 78.0366 64.1695 78.32C64.1684 78.6613 64.1075 78.9997 63.9895 79.32C63.9195 79.49 63.8295 79.7 63.7695 79.87C63.7095 80.04 63.8995 80.14 63.9795 79.95C64.225 79.4437 64.3967 78.9049 64.4895 78.35C64.5429 78.1189 64.5288 77.8774 64.4491 77.6541C64.3693 77.4307 64.2272 77.235 64.0395 77.09Z" fill="#E69D82"/>
<path d="M20.8899 79.2C21.0133 79.6253 21.2543 80.0071 21.5852 80.3014C21.9161 80.5956 22.3234 80.7905 22.7602 80.8633C23.1969 80.9362 23.6454 80.8842 24.0539 80.7133C24.4624 80.5424 24.8144 80.2595 25.0691 79.8973C25.3239 79.5351 25.4711 79.1083 25.4938 78.6661C25.5166 78.2238 25.4139 77.7842 25.1976 77.3977C24.9814 77.0113 24.6603 76.6938 24.2715 76.4819C23.8827 76.27 23.4419 76.1723 22.9999 76.2C22.3256 76.3244 21.7269 76.7083 21.3324 77.2692C20.938 77.8301 20.7791 78.5233 20.8899 79.2Z" fill="#F8B78F"/>
<path d="M22.0096 77.09C22.1836 77.0026 22.3748 76.9547 22.5696 76.95C23.4096 76.95 24.0096 78.36 23.1596 78.57C23.0757 78.6692 23.0296 78.795 23.0296 78.925C23.0296 79.0549 23.0757 79.1807 23.1596 79.28C23.3331 79.4519 23.4689 79.658 23.5584 79.8853C23.648 80.1125 23.6892 80.3559 23.6796 80.6C23.6196 80.88 23.3196 81.02 23.0596 81.08C22.7996 81.14 22.8196 80.94 22.9796 80.87C23.1102 80.8087 23.2237 80.716 23.3096 80.6V80.55C23.334 80.4821 23.334 80.4078 23.3096 80.34C23.2238 80.4231 23.109 80.4695 22.9896 80.4695C22.8701 80.4695 22.7554 80.4231 22.6696 80.34C22.5196 80.13 22.6696 79.81 22.6096 79.58C22.577 79.4124 22.5197 79.2507 22.4396 79.1C22.0996 78.39 22.7896 78.31 22.7896 78.31H23.0396C23.3996 78.12 23.0396 77.54 22.8296 77.44C22.7132 77.3764 22.5795 77.3518 22.4481 77.3698C22.3167 77.3877 22.1945 77.4474 22.0996 77.54C21.9186 77.759 21.8227 78.036 21.8296 78.32C21.8255 78.6617 21.8866 79.0011 22.0096 79.32C22.0696 79.49 22.1596 79.7 22.2296 79.87C22.2996 80.04 22.0996 80.14 22.0196 79.95C21.775 79.4424 21.6001 78.9043 21.4996 78.35C21.4552 78.1132 21.4797 77.8686 21.5701 77.6453C21.6605 77.422 21.813 77.2293 22.0096 77.09Z" fill="#E69D82"/>
<path d="M42.9462 79.5418C42.9477 79.5847 42.9578 79.6268 42.9758 79.6657C42.9939 79.7045 43.0196 79.7394 43.0514 79.7682C43.0832 79.7969 43.1205 79.819 43.161 79.8331C43.2015 79.8471 43.2444 79.8529 43.2872 79.8501C43.4378 79.8303 43.5909 79.8422 43.7367 79.885C43.8825 79.9279 44.0176 80.0008 44.1336 80.0989C44.2495 80.1971 44.3437 80.3184 44.41 80.4552C44.4763 80.5919 44.5133 80.7409 44.5186 80.8928C44.5239 81.0446 44.4974 81.1959 44.4408 81.3369C44.3842 81.4779 44.2987 81.6055 44.1899 81.7115C44.0811 81.8175 43.9513 81.8996 43.8089 81.9526C43.6665 82.0055 43.5146 82.028 43.3629 82.0188C43.2754 82.0218 43.1928 82.0595 43.1331 82.1235C43.0734 82.1875 43.0416 82.2726 43.0446 82.3601C43.0477 82.4476 43.0854 82.5302 43.1494 82.5899C43.2134 82.6496 43.2985 82.6814 43.3859 82.6784C43.8471 82.6623 44.2831 82.4636 44.5978 82.1261C44.9125 81.7886 45.0802 81.3399 45.0641 80.8787C45.048 80.4175 44.8494 79.9816 44.5119 79.6669C44.1744 79.3521 43.7257 79.1844 43.2645 79.2005C43.2212 79.202 43.1786 79.212 43.1392 79.23C43.0997 79.248 43.0642 79.2735 43.0347 79.3052C43.0051 79.3369 42.9821 79.3741 42.9669 79.4147C42.9517 79.4553 42.9447 79.4985 42.9462 79.5418Z" fill="#E89D7F"/>
<path opacity="0.3" d="M56.5399 81.49C56.5399 82.49 55.2799 83.2599 53.7199 83.2599C52.1599 83.2599 50.8999 82.47 50.8999 81.49C50.8999 80.51 52.1699 79.72 53.7199 79.72C55.2699 79.72 56.5399 80.52 56.5399 81.49Z" fill="#F27383"/>
<path opacity="0.3" d="M35.1598 81.49C35.1598 82.49 33.8898 83.2599 32.3298 83.2599C30.7698 83.2599 29.5098 82.47 29.5098 81.49C29.5098 80.51 30.7798 79.72 32.3298 79.72C33.8798 79.72 35.1598 80.52 35.1598 81.49Z" fill="#F27383"/>
<path d="M42.0001 88.0336C43.4459 87.9563 45.3318 87.7715 46.4105 87.5C46.8968 87.3917 48.8148 86.2192 48.5001 86.0336C48.1855 85.848 45.4093 87.0437 44.7227 87.0592C43.5228 87.0824 42.3183 87.0824 41.1183 87.0592C40.4318 87.0592 37.0287 85.7784 37.0001 86.0336C36.9715 86.2888 41.0275 88.0336 42.0001 88.0336Z" fill="#F5A586"/>
<path d="M53.7299 69.72C53.1398 69.1868 52.3921 68.8604 51.5999 68.79C51.4291 68.7432 51.2837 68.6307 51.1956 68.477C51.1076 68.3233 51.0839 68.1411 51.1299 67.97C51.1831 67.8039 51.2973 67.6641 51.4494 67.5787C51.6015 67.4934 51.7804 67.4688 51.9499 67.51C52.9675 67.637 53.9192 68.0814 54.6699 68.78C55.2899 69.38 54.3499 70.31 53.7299 69.72Z" fill="#F68E59"/>
<path d="M32.3198 69.72C32.9145 69.1879 33.665 68.8618 34.4598 68.79C34.5441 68.7669 34.6231 68.7273 34.6921 68.6734C34.761 68.6196 34.8185 68.5525 34.8613 68.4762C34.9042 68.3999 34.9314 68.3159 34.9414 68.229C34.9514 68.1421 34.9441 68.054 34.9197 67.97C34.8708 67.8032 34.7589 67.662 34.6078 67.5762C34.4566 67.4903 34.2781 67.4666 34.1098 67.51C33.0916 67.635 32.1393 68.0796 31.3898 68.78C30.7698 69.38 31.7098 70.31 32.3198 69.72Z" fill="#F68E59"/>
<path d="M61.8096 81.08C61.8096 81.3028 61.8981 81.5164 62.0556 81.674C62.2131 81.8315 62.4268 81.92 62.6496 81.92C62.8723 81.92 63.086 81.8315 63.2435 81.674C63.4011 81.5164 63.4896 81.3028 63.4896 81.08C63.4896 80.8572 63.4011 80.6436 63.2435 80.486C63.086 80.3285 62.8723 80.24 62.6496 80.24C62.4268 80.24 62.2131 80.3285 62.0556 80.486C61.8981 80.6436 61.8096 80.8572 61.8096 81.08Z" fill="white"/>
<path d="M62.4896 81.53C62.6477 81.5308 62.8008 81.4748 62.9211 81.3723C63.0414 81.2697 63.1209 81.1274 63.1451 80.9711C63.1693 80.8149 63.1367 80.6552 63.0531 80.521C62.9695 80.3868 62.8405 80.2871 62.6896 80.24C62.8979 80.2627 63.0904 80.3615 63.2303 80.5174C63.3702 80.6734 63.4475 80.8755 63.4475 81.085C63.4475 81.2945 63.3702 81.4966 63.2303 81.6526C63.0904 81.8085 62.8979 81.9073 62.6896 81.93C62.4659 81.9274 62.2523 81.8366 62.095 81.6775C61.9378 81.5184 61.8496 81.3037 61.8496 81.08C61.8496 81.08 61.8496 81.08 61.8496 81.02C61.8799 81.1664 61.9605 81.2975 62.0774 81.3907C62.1943 81.4838 62.3402 81.5331 62.4896 81.53Z" fill="#E6E7E8"/>
<path d="M22.8096 81.08C22.8096 81.3028 22.8981 81.5164 23.0556 81.674C23.2131 81.8315 23.4268 81.92 23.6496 81.92C23.8723 81.92 24.086 81.8315 24.2435 81.674C24.4011 81.5164 24.4896 81.3028 24.4896 81.08C24.4896 80.8572 24.4011 80.6436 24.2435 80.486C24.086 80.3285 23.8723 80.24 23.6496 80.24C23.4268 80.24 23.2131 80.3285 23.0556 80.486C22.8981 80.6436 22.8096 80.8572 22.8096 81.08Z" fill="white"/>
<path d="M23.4798 81.53C23.6379 81.5308 23.791 81.4748 23.9113 81.3723C24.0316 81.2697 24.1111 81.1274 24.1354 80.9711C24.1596 80.8149 24.1269 80.6552 24.0433 80.521C23.9597 80.3868 23.8308 80.2871 23.6798 80.24C23.8881 80.2627 24.0807 80.3615 24.2205 80.5174C24.3604 80.6734 24.4378 80.8755 24.4378 81.085C24.4378 81.2945 24.3604 81.4966 24.2205 81.6526C24.0807 81.8085 23.8881 81.9073 23.6798 81.93C23.4562 81.9274 23.2425 81.8366 23.0853 81.6775C22.928 81.5184 22.8398 81.3037 22.8398 81.08C22.8398 81.08 22.8398 81.08 22.8398 81.02C22.8702 81.1664 22.9508 81.2975 23.0677 81.3907C23.1846 81.4838 23.3304 81.5331 23.4798 81.53Z" fill="#E6E7E8"/>
<path d="M51.6099 79.98C51.6664 79.9915 51.7172 80.0221 51.7537 80.0668C51.7902 80.1114 51.8102 80.1673 51.8102 80.225C51.8102 80.2827 51.7902 80.3386 51.7537 80.3832C51.7172 80.4279 51.6664 80.4585 51.6099 80.47C51.5534 80.4585 51.5026 80.4279 51.4661 80.3832C51.4296 80.3386 51.4097 80.2827 51.4097 80.225C51.4097 80.1673 51.4296 80.1114 51.4661 80.0668C51.5026 80.0221 51.5534 79.9915 51.6099 79.98Z" fill="#C88972"/>
<path d="M53.9097 80.2C53.9662 80.2114 54.017 80.2421 54.0535 80.2867C54.09 80.3314 54.11 80.3873 54.11 80.445C54.11 80.5026 54.09 80.5585 54.0535 80.6032C54.017 80.6478 53.9662 80.6785 53.9097 80.69C53.8532 80.6785 53.8024 80.6478 53.7659 80.6032C53.7294 80.5585 53.7095 80.5026 53.7095 80.445C53.7095 80.3873 53.7294 80.3314 53.7659 80.2867C53.8024 80.2421 53.8532 80.2114 53.9097 80.2Z" fill="#C88972"/>
<path d="M52.4897 81.24C52.5561 81.24 52.6196 81.2663 52.6665 81.3132C52.7134 81.3601 52.7397 81.4237 52.7397 81.49C52.7397 81.5563 52.7134 81.6199 52.6665 81.6668C52.6196 81.7137 52.5561 81.74 52.4897 81.74C52.4234 81.74 52.3598 81.7137 52.313 81.6668C52.2661 81.6199 52.2397 81.5563 52.2397 81.49C52.2397 81.4237 52.2661 81.3601 52.313 81.3132C52.3598 81.2663 52.4234 81.24 52.4897 81.24Z" fill="#C88972"/>
<path d="M50.3497 80.97C50.4062 80.9814 50.457 81.0121 50.4935 81.0568C50.53 81.1014 50.5499 81.1573 50.5499 81.215C50.5499 81.2726 50.53 81.3285 50.4935 81.3732C50.457 81.4178 50.4062 81.4485 50.3497 81.46C50.2931 81.4485 50.2423 81.4178 50.2058 81.3732C50.1693 81.3285 50.1494 81.2726 50.1494 81.215C50.1494 81.1573 50.1693 81.1014 50.2058 81.0568C50.2423 81.0121 50.2931 80.9814 50.3497 80.97Z" fill="#C88972"/>
<path d="M54.3497 81.57C54.4062 81.5815 54.457 81.6121 54.4935 81.6568C54.53 81.7014 54.5499 81.7573 54.5499 81.815C54.5499 81.8727 54.53 81.9286 54.4935 81.9732C54.457 82.0179 54.4062 82.0485 54.3497 82.06C54.2931 82.0485 54.2423 82.0179 54.2058 81.9732C54.1693 81.9286 54.1494 81.8727 54.1494 81.815C54.1494 81.7573 54.1693 81.7014 54.2058 81.6568C54.2423 81.6121 54.2931 81.5815 54.3497 81.57Z" fill="#C88972"/>
<path d="M51.8896 82.61C51.956 82.61 52.0195 82.6363 52.0664 82.6832C52.1133 82.7301 52.1396 82.7937 52.1396 82.86C52.1396 82.9263 52.1133 82.9899 52.0664 83.0368C52.0195 83.0837 51.956 83.11 51.8896 83.11C51.8233 83.11 51.7598 83.0837 51.7129 83.0368C51.666 82.9899 51.6396 82.9263 51.6396 82.86C51.6396 82.7937 51.666 82.7301 51.7129 82.6832C51.7598 82.6363 51.8233 82.61 51.8896 82.61Z" fill="#C88972"/>
<path d="M32.9698 79.98C33.0263 79.9915 33.0771 80.0221 33.1136 80.0668C33.1501 80.1114 33.17 80.1673 33.17 80.225C33.17 80.2827 33.1501 80.3386 33.1136 80.3832C33.0771 80.4279 33.0263 80.4585 32.9698 80.47C32.9133 80.4585 32.8625 80.4279 32.826 80.3832C32.7895 80.3386 32.7695 80.2827 32.7695 80.225C32.7695 80.1673 32.7895 80.1114 32.826 80.0668C32.8625 80.0221 32.9133 79.9915 32.9698 79.98Z" fill="#C88972"/>
<path d="M35.2696 80.2C35.3261 80.2114 35.3769 80.2421 35.4134 80.2867C35.4499 80.3314 35.4698 80.3873 35.4698 80.445C35.4698 80.5026 35.4499 80.5585 35.4134 80.6032C35.3769 80.6478 35.3261 80.6785 35.2696 80.69C35.2131 80.6785 35.1623 80.6478 35.1258 80.6032C35.0893 80.5585 35.0693 80.5026 35.0693 80.445C35.0693 80.3873 35.0893 80.3314 35.1258 80.2867C35.1623 80.2421 35.2131 80.2114 35.2696 80.2Z" fill="#C88972"/>
<path d="M33.8096 81.24C33.8759 81.24 33.9395 81.2663 33.9863 81.3132C34.0332 81.3601 34.0596 81.4237 34.0596 81.49C34.0596 81.5563 34.0332 81.6199 33.9863 81.6668C33.9395 81.7137 33.8759 81.74 33.8096 81.74C33.7433 81.74 33.6797 81.7137 33.6328 81.6668C33.5859 81.6199 33.5596 81.5563 33.5596 81.49C33.5596 81.4237 33.5859 81.3601 33.6328 81.3132C33.6797 81.2663 33.7433 81.24 33.8096 81.24Z" fill="#C88972"/>
<path d="M31.6998 80.97C31.7563 80.9814 31.8071 81.0121 31.8436 81.0568C31.8801 81.1014 31.9 81.1573 31.9 81.215C31.9 81.2726 31.8801 81.3285 31.8436 81.3732C31.8071 81.4178 31.7563 81.4485 31.6998 81.46C31.6432 81.4485 31.5924 81.4178 31.5559 81.3732C31.5194 81.3285 31.4995 81.2726 31.4995 81.215C31.4995 81.1573 31.5194 81.1014 31.5559 81.0568C31.5924 81.0121 31.6432 80.9814 31.6998 80.97Z" fill="#C88972"/>
<path d="M35.71 81.57C35.7665 81.5815 35.8173 81.6121 35.8538 81.6568C35.8903 81.7014 35.9103 81.7573 35.9103 81.815C35.9103 81.8727 35.8903 81.9286 35.8538 81.9732C35.8173 82.0179 35.7665 82.0485 35.71 82.06C35.6535 82.0485 35.6027 82.0179 35.5662 81.9732C35.5297 81.9286 35.5098 81.8727 35.5098 81.815C35.5098 81.7573 35.5297 81.7014 35.5662 81.6568C35.6027 81.6121 35.6535 81.5815 35.71 81.57Z" fill="#C88972"/>
<path d="M33.2397 82.61C33.3061 82.61 33.3696 82.6363 33.4165 82.6832C33.4634 82.7301 33.4897 82.7937 33.4897 82.86C33.4897 82.9263 33.4634 82.9899 33.4165 83.0368C33.3696 83.0837 33.3061 83.11 33.2397 83.11C33.1734 83.11 33.1098 83.0837 33.063 83.0368C33.0161 82.9899 32.9897 82.9263 32.9897 82.86C32.9897 82.7937 33.0161 82.7301 33.063 82.6832C33.1098 82.6363 33.1734 82.61 33.2397 82.61Z" fill="#C88972"/>
<path d="M48.1997 76.15C48.1997 76.8407 48.4047 77.5158 48.7886 78.0899C49.1725 78.6641 49.7182 79.1114 50.3565 79.3753C50.9948 79.6391 51.697 79.7076 52.3743 79.5722C53.0515 79.4367 53.6734 79.1033 54.1611 78.6142C54.6487 78.1251 54.9803 77.5023 55.1139 76.8247C55.2474 76.147 55.1769 75.445 54.9112 74.8075C54.6455 74.1699 54.1966 73.6256 53.6214 73.2433C53.0461 72.861 52.3704 72.658 51.6797 72.66C51.2219 72.66 50.7685 72.7503 50.3457 72.9258C49.9228 73.1013 49.5387 73.3586 49.2154 73.6828C48.8922 74.007 48.636 74.3918 48.4617 74.8152C48.2874 75.2385 48.1984 75.6921 48.1997 76.15Z" fill="white"/>
<path d="M48.8097 76.15C48.8332 76.5895 48.9851 77.0126 49.2466 77.3666C49.5081 77.7207 49.8677 77.9903 50.2809 78.1421C50.6941 78.2938 51.1427 78.321 51.5713 78.2203C51.9998 78.1196 52.3893 77.8954 52.6917 77.5755C52.994 77.2556 53.1959 76.854 53.2723 76.4205C53.3487 75.987 53.2963 75.5406 53.1215 75.1366C52.9467 74.7326 52.6573 74.3887 52.289 74.1476C51.9208 73.9065 51.4899 73.7786 51.0497 73.78C50.7467 73.7877 50.4483 73.8553 50.1716 73.9787C49.8948 74.1022 49.6452 74.2791 49.437 74.4994C49.2289 74.7196 49.0663 74.9788 48.9587 75.2621C48.851 75.5453 48.8004 75.8471 48.8097 76.15Z" fill="#70432E"/>
<path d="M51.6797 79.63L52.1397 79.49C52.3112 79.4453 52.4759 79.378 52.6297 79.29C52.8264 79.204 53.0113 79.0931 53.1797 78.96C53.3883 78.8157 53.5795 78.648 53.7497 78.46C53.931 78.2598 54.0918 78.0421 54.2297 77.81C54.3638 77.5563 54.4678 77.2878 54.5397 77.0099C54.6185 76.7298 54.6622 76.4409 54.6697 76.15C54.6636 75.849 54.62 75.55 54.5397 75.2599C54.4624 74.9935 54.3586 74.7356 54.2297 74.49C54.0918 74.2578 53.931 74.0401 53.7497 73.84C53.5822 73.6492 53.3906 73.4811 53.1797 73.34C53.0093 73.2044 52.8208 73.0934 52.6197 73.0099C52.4701 72.9206 52.3084 72.8533 52.1397 72.81L51.6797 72.66L52.1597 72.6099C52.3482 72.5765 52.5412 72.5765 52.7297 72.6099C52.9783 72.6344 53.2214 72.6986 53.4497 72.8L53.8597 72.9799L54.2397 73.25C54.5191 73.4544 54.7653 73.7006 54.9697 73.9799C55.1893 74.2841 55.3582 74.6218 55.4697 74.9799C55.5854 75.3428 55.6527 75.7195 55.6697 76.1C55.6535 76.4871 55.5863 76.8704 55.4697 77.24C55.3539 77.5964 55.1854 77.9335 54.9697 78.24C54.7626 78.517 54.5167 78.7629 54.2397 78.97L53.8497 79.2299C53.7202 79.2982 53.5866 79.3583 53.4497 79.41C53.2188 79.5156 52.9722 79.5832 52.7197 79.6099C52.5345 79.6431 52.3449 79.6431 52.1597 79.6099L51.6797 79.63Z" fill="#E89D7F"/>
<path d="M37.8599 76.15C37.8599 76.8402 37.6552 77.515 37.2717 78.0889C36.8882 78.6628 36.3432 79.1102 35.7055 79.3743C35.0677 79.6385 34.366 79.7076 33.689 79.5729C33.012 79.4383 32.3902 79.1059 31.9021 78.6178C31.414 78.1297 31.0816 77.5078 30.9469 76.8309C30.8123 76.1539 30.8814 75.4521 31.1455 74.8144C31.4097 74.1767 31.857 73.6316 32.4309 73.2482C33.0049 72.8647 33.6796 72.66 34.3699 72.66C34.8286 72.6587 35.283 72.748 35.707 72.923C36.131 73.0979 36.5163 73.3549 36.8406 73.6792C37.165 74.0036 37.422 74.3888 37.5969 74.8128C37.7718 75.2369 37.8612 75.6913 37.8599 76.15Z" fill="white"/>
<path d="M37.2097 76.15C37.1862 76.5891 37.0346 77.0117 36.7736 77.3656C36.5125 77.7195 36.1535 77.9892 35.7408 78.1412C35.3282 78.2933 34.88 78.321 34.4518 78.2211C34.0235 78.1212 33.6339 77.898 33.3311 77.5791C33.0283 77.2602 32.8257 76.8595 32.7481 76.4266C32.6706 75.9938 32.7216 75.5477 32.8949 75.1435C33.0681 74.7393 33.3561 74.3947 33.723 74.1524C34.09 73.9101 34.5199 73.7806 34.9597 73.78C35.2631 73.7877 35.562 73.8552 35.8392 73.9785C36.1165 74.1019 36.3668 74.2787 36.5758 74.4987C36.7847 74.7188 36.9483 74.978 37.057 75.2613C37.1658 75.5446 37.2177 75.8466 37.2097 76.15Z" fill="#70432E"/>
<path d="M34.3696 79.63L33.8996 79.69C33.7145 79.7234 33.5248 79.7234 33.3396 79.69C33.0839 79.6632 32.8341 79.5957 32.5996 79.49C32.3135 79.3886 32.0465 79.2399 31.8096 79.05C31.5381 78.8399 31.2959 78.5944 31.0896 78.32C30.87 78.0159 30.7012 77.6782 30.5896 77.32C30.4663 76.935 30.399 76.5342 30.3896 76.13C30.4151 75.7676 30.4788 75.409 30.5796 75.06C30.6944 74.7013 30.8666 74.3635 31.0896 74.06C31.2933 73.7833 31.5358 73.5374 31.8096 73.33L32.1996 73.06C32.3296 72.99 32.4796 72.94 32.5996 72.88C32.8314 72.7784 33.0778 72.7143 33.3296 72.69C33.5148 72.6562 33.7045 72.6562 33.8896 72.69L34.3696 72.74L33.9196 72.89C33.7503 72.9316 33.5884 72.9991 33.4396 73.09C33.2365 73.1755 33.0449 73.2864 32.8696 73.42C32.662 73.5615 32.4737 73.7296 32.3096 73.92C32.1253 74.1176 31.9642 74.3357 31.8296 74.57C31.7008 74.8156 31.5969 75.0736 31.5196 75.34C31.4386 75.647 31.395 75.9626 31.3896 76.28C31.4085 76.8437 31.5592 77.3951 31.8296 77.89C31.9642 78.1243 32.1253 78.3424 32.3096 78.54C32.4763 78.7278 32.6642 78.8956 32.8696 79.04C33.0415 79.1735 33.2297 79.2843 33.4296 79.37C33.5823 79.4603 33.7474 79.5277 33.9196 79.57L34.3696 79.63Z" fill="#E89D7F"/>
<path d="M47.4398 61.81C47.3232 62.4357 47.3529 63.0798 47.5263 63.6921C47.6998 64.3045 48.0124 64.8684 48.4398 65.34C48.4398 65.34 48.5598 63.23 50.0198 62.84C50.0198 62.84 51.0998 64.65 56.6698 67.01C58.0768 67.7305 59.3009 68.7626 60.2488 70.0276C61.1967 71.2926 61.8435 72.7573 62.1398 74.31C62.1398 74.44 62.8398 76.69 62.8098 76.69C64.0898 76.69 64.2498 77.07 64.2498 77.07C67.5598 54.59 48.4398 51.81 48.4398 51.81C46.046 51.4022 43.6159 51.248 41.1898 51.35C37.9912 51.5468 34.87 52.4157 32.0298 53.9C28.8678 55.6177 26.202 58.1216 24.2898 61.17C22.2898 64.28 21.8798 68.05 21.7298 71.65C21.6591 72.9824 21.6591 74.3176 21.7298 75.65C21.824 76.1624 21.8874 76.68 21.9198 77.2C22.3499 76.8339 22.9063 76.6508 23.4698 76.69C23.3798 76.69 24.2098 76.63 24.4698 75.05C24.5198 75.03 46.5698 68.76 47.4398 61.81Z" fill="#F9A05D"/>
<path d="M31.8096 58.65C34.8279 57.3902 38.095 56.8394 41.3596 57.04C33.5696 60.84 32.7996 63.2299 32.7996 63.2299C35.5065 61.3601 38.5705 60.0699 41.7996 59.44C40.8796 62.36 35.7996 64.2999 35.7996 64.2999C42.9996 63.4299 44.2696 59.88 44.2696 59.88C45.6496 58.88 46.1696 61.59 46.1696 61.59C46.1184 60.8846 46.2821 60.1802 46.6391 59.5697C46.9961 58.9592 47.5297 58.4712 48.1696 58.1699L47.5296 52.82C47.5296 52.82 35.8996 51.61 31.8096 58.65Z" fill="#FCB564"/>
<path d="M56.5398 62.05C55.2712 60.567 53.7638 59.3064 52.0798 58.32C55.7598 59.41 59.6598 62.81 59.6598 62.81C58.3215 60.3883 56.4428 58.3077 54.1698 56.7299C56.0775 57.2161 57.8316 58.1757 59.2698 59.52C53.8398 53.05 48.0898 52.83 48.0898 52.83L49.0198 61.47C49.0198 61.47 50.0798 59.06 56.5398 62.05Z" fill="#FCB564"/>
<path d="M33.7196 65.89C33.7196 65.89 25.0196 68.84 23.7196 72.59C24.2148 70.9786 25.0161 69.4779 26.0796 68.17C26.0796 68.17 23.3396 68.65 22.6496 70.93C22.6496 70.93 22.2996 65.47 31.7596 62.81C31.7596 62.81 28.2096 64.9 27.0696 67.37C27.0296 67.4 30.3996 64.98 33.7196 65.89Z" fill="#FCB564"/>
<path d="M53.8096 63.9C53.8096 63.9 61.8096 68.34 62.5096 72.26C62.2998 70.5893 61.7738 68.9739 60.9596 67.5C60.9596 67.5 63.5796 68.45 63.8496 70.82C63.8496 70.82 65.1696 65.51 56.3196 61.23C56.3196 61.23 59.4496 63.91 60.1296 66.54C60.1196 66.54 57.2196 63.6 53.8096 63.9Z" fill="#FCB564"/>
<path d="M108.94 81.79C107.94 83.27 105.57 83.54 103.94 83.79C102.127 84.088 100.296 84.2717 98.46 84.34C95.406 84.4304 92.3881 83.6612 89.75 82.12V73.91H108.93V81.82L108.94 81.79Z" fill="#0063A1"/>
<path d="M94.1396 100.83L93.3296 88.61C92.9896 85.08 96.6196 82.93 96.6196 82.93L100.62 80.61L103.21 86.31L99.5996 88.57C99.2758 88.8424 99.0176 89.1845 98.8445 89.5706C98.6713 89.9567 98.5876 90.377 98.5996 90.8L97.9996 98.86C97.6654 99.5696 97.1049 100.148 96.4063 100.505C95.7076 100.861 94.9103 100.976 94.1396 100.83Z" fill="#F8B78F"/>
<path d="M98.36 94.91L98.07 98.86C97.7378 99.5888 97.1682 100.183 96.4544 100.547C95.7406 100.91 94.9247 101.02 94.14 100.86L93.73 94.68C95.2646 94.8814 96.813 94.9583 98.36 94.91Z" fill="white"/>
<g style="mix-blend-mode:multiply" opacity="0.5">
<path d="M96.6896 99.93C97.8896 97.98 97.5195 95.7 97.3195 93.54C97.0518 92.1544 97.1553 90.7226 97.6196 89.39C98.2894 88.3882 99.0898 87.4802 99.9996 86.69C101.69 84.81 100.93 82.94 100.43 80.75L100.66 80.61L103.25 86.31L99.6396 88.57C99.3157 88.8424 99.0576 89.1845 98.8844 89.5706C98.7113 89.9567 98.6276 90.377 98.6396 90.8L98.0396 98.86C97.8439 99.2799 97.5661 99.6564 97.2226 99.9673C96.8791 100.278 96.4769 100.517 96.0396 100.67C96.2863 100.451 96.5047 100.203 96.6896 99.93Z" fill="#F2B193"/>
</g>
<path d="M95.0197 105.02C95.0197 105.02 98.2496 103.11 98.4196 100.94C99.4196 103.47 95.1597 105.94 95.1597 105.94C93.3097 106.83 90.4596 106.33 90.8196 104.39C91.4596 105.55 93.5497 105.72 95.0197 105.02Z" fill="white"/>
<path d="M98.0696 98.86C97.4996 99.2 97.0696 99.67 96.4096 99.4C95.7496 99.13 96.5596 98.21 95.6096 98.26C94.8196 98.31 93.7096 98.52 92.9096 98.66C93.0896 99.53 93.2396 100.18 93.2396 100.2C93.3096 100.45 90.9096 102.48 90.6996 103.35C90.1996 105.35 93.1296 105.92 95.0196 105.02C95.0196 105.02 99.2696 102.5 98.2796 99.97L98.0696 98.86Z" fill="#C24D58"/>
<g style="mix-blend-mode:multiply">
<path d="M96.11 101.6C95.7133 102.326 95.1343 102.936 94.43 103.37C93.9588 103.496 93.464 103.506 92.9883 103.398C92.5125 103.29 92.0704 103.067 91.7 102.75C91.41 102.38 91.61 102.4 91.64 102.01C92.2279 101.457 92.7635 100.851 93.24 100.2C93.24 100.2 93.09 99.53 92.91 98.66C93.71 98.52 94.82 98.3099 95.61 98.2599C96.24 98.2599 96.12 98.62 96.15 98.97C96.1 99.77 96.6 100.79 96.11 101.6Z" fill="#BCBEC0"/>
</g>
<g style="mix-blend-mode:multiply">
<path d="M98.0696 98.86C97.7255 99.1046 97.3527 99.3061 96.9596 99.46C96.9596 99.73 96.8896 99.83 96.5196 99.94C98.3696 100.94 95.8396 103.61 94.6496 104.41C93.8096 104.97 92.1996 105.22 91.4196 104.41C91.2066 104.228 91.0488 103.99 90.964 103.724C90.8791 103.457 90.8707 103.171 90.9396 102.9C90.8331 103.034 90.7518 103.187 90.6996 103.35C90.1996 105.35 93.1296 105.92 95.0196 105.02C95.0196 105.02 99.2696 102.5 98.2796 99.97L98.0696 98.86Z" fill="#D1D3D4"/>
</g>
<g style="mix-blend-mode:multiply">
<path d="M93.5997 100.34C93.5997 100.46 93.4397 100.53 93.3597 100.49C93.2797 100.45 93.2597 100.33 93.3597 100.21C93.4597 100.09 93.5197 100.02 93.5997 100.06C93.6797 100.1 93.6597 100.22 93.5997 100.34Z" fill="#BCBEC0"/>
</g>
<g style="mix-blend-mode:multiply">
<path d="M93.11 101.02C93.06 101.14 92.95 101.21 92.87 101.17C92.79 101.13 92.77 101.01 92.87 100.89C92.97 100.77 93.03 100.7 93.11 100.74C93.19 100.78 93.17 100.9 93.11 101.02Z" fill="#BCBEC0"/>
</g>
<g style="mix-blend-mode:multiply">
<path d="M92.5899 101.8C92.5299 101.92 92.4199 101.99 92.3499 101.95C92.2799 101.91 92.2499 101.79 92.3499 101.67C92.4499 101.55 92.5199 101.49 92.5999 101.52C92.6293 101.561 92.6442 101.611 92.6424 101.662C92.6406 101.712 92.6222 101.761 92.5899 101.8Z" fill="#BCBEC0"/>
</g>
<g style="mix-blend-mode:multiply">
<path d="M95.88 101.4C95.82 101.52 95.72 101.59 95.64 101.55C95.56 101.51 95.54 101.39 95.64 101.27C95.6541 101.22 95.6865 101.176 95.7309 101.149C95.7753 101.121 95.8285 101.111 95.88 101.12C95.92 101.16 95.94 101.28 95.88 101.4Z" fill="#BCBEC0"/>
</g>
<g style="mix-blend-mode:multiply">
<path d="M95.4596 102.12C95.3996 102.24 95.2996 102.3 95.2196 102.27C95.1396 102.24 95.1196 102.1 95.2196 101.98C95.3196 101.86 95.3796 101.8 95.4596 101.84C95.5396 101.88 95.5196 102 95.4596 102.12Z" fill="#BCBEC0"/>
</g>
<g style="mix-blend-mode:multiply">
<path d="M94.87 103.02C94.81 103.14 94.7 103.21 94.62 103.17C94.54 103.13 94.52 103.01 94.62 102.89C94.72 102.77 94.78 102.7 94.86 102.74C94.94 102.78 94.92 102.9 94.87 103.02Z" fill="#BCBEC0"/>
</g>
<path d="M92.9299 101.09C92.9299 101.09 92.8799 101.09 92.8799 101C92.8803 100.964 92.8909 100.929 92.9103 100.899C92.9298 100.869 92.9574 100.845 92.9899 100.83C93.918 100.661 94.8755 100.772 95.7399 101.15C95.7603 101.174 95.7715 101.204 95.7715 101.235C95.7715 101.266 95.7603 101.296 95.7399 101.32C95.7399 101.39 95.6499 101.43 95.5999 101.41C94.7679 101.056 93.8524 100.945 92.9599 101.09H92.9299Z" fill="#BEC0C2"/>
<path d="M92.3796 101.87C92.3689 101.841 92.3689 101.809 92.3796 101.78C92.3788 101.744 92.3888 101.708 92.4084 101.678C92.4281 101.648 92.4563 101.624 92.4896 101.61C93.4397 101.435 94.4197 101.529 95.3196 101.88C95.3393 101.902 95.3502 101.93 95.3502 101.96C95.3502 101.989 95.3393 102.018 95.3196 102.04C95.3196 102.11 95.2196 102.16 95.1696 102.14C94.3004 101.806 93.3573 101.713 92.4396 101.87H92.3796Z" fill="#BEC0C2"/>
<path d="M93.3997 100.4C93.3883 100.38 93.3823 100.358 93.3823 100.335C93.3823 100.312 93.3883 100.29 93.3997 100.27C93.4055 100.235 93.4221 100.203 93.4473 100.178C93.4724 100.152 93.5047 100.136 93.5397 100.13C94.425 100.171 95.2585 100.559 95.8597 101.21C95.8817 101.237 95.8937 101.27 95.8937 101.305C95.8937 101.34 95.8817 101.373 95.8597 101.4C95.8597 101.47 95.7497 101.48 95.7197 101.4C95.1318 100.794 94.3337 100.436 93.4897 100.4H93.3997Z" fill="white"/>
<path d="M95.1698 102.14C95.1637 102.124 95.1637 102.106 95.1698 102.09C94.7936 101.373 94.2122 100.785 93.4998 100.4C93.4498 100.4 93.4398 100.3 93.4998 100.23C93.5598 100.16 93.5998 100.11 93.6398 100.15C94.3966 100.539 95.0096 101.159 95.3898 101.92C95.3973 101.954 95.3957 101.99 95.3852 102.023C95.3746 102.056 95.3556 102.086 95.3298 102.11C95.3218 102.123 95.3111 102.134 95.2985 102.143C95.2858 102.152 95.2715 102.158 95.2565 102.16C95.2414 102.163 95.2259 102.163 95.211 102.159C95.1961 102.156 95.1821 102.149 95.1698 102.14Z" fill="#DEDFE0"/>
<path d="M94.6298 102.91C94.2578 102.179 93.69 101.566 92.9897 101.14C92.9897 101.14 92.9897 101.04 92.9897 100.97C92.9897 100.9 93.0898 100.86 93.1398 100.89C93.8761 101.326 94.4674 101.97 94.8398 102.74C94.8507 102.773 94.8518 102.809 94.843 102.842C94.8341 102.876 94.8156 102.907 94.7897 102.93C94.7897 102.93 94.6498 102.93 94.6298 102.91Z" fill="#DEDFE0"/>
<path d="M92.6997 101.4C92.6997 101.4 92.6997 101.33 92.6997 101.27C92.6997 101.21 92.7797 101.13 92.8297 101.13C93.7185 101.168 94.556 101.557 95.1597 102.21C95.1786 102.238 95.1887 102.271 95.1887 102.305C95.1887 102.339 95.1786 102.372 95.1597 102.4C95.1597 102.47 95.0497 102.48 95.0097 102.4C94.4279 101.791 93.6316 101.432 92.7897 101.4H92.6997Z" fill="white"/>
<path d="M94.6299 102.99C94.0677 102.351 93.2785 101.956 92.4299 101.89C92.4299 101.89 92.3499 101.82 92.3699 101.75C92.3756 101.718 92.3911 101.688 92.4144 101.664C92.4376 101.641 92.4675 101.626 92.4999 101.62C93.3867 101.683 94.213 102.092 94.7999 102.76C94.8166 102.789 94.8254 102.822 94.8254 102.855C94.8254 102.888 94.8166 102.921 94.7999 102.95C94.7816 102.977 94.7541 102.995 94.7226 103.003C94.6912 103.01 94.6582 103.006 94.6299 102.99Z" fill="white"/>
<path d="M94.5797 100.67C94.5744 100.659 94.5716 100.647 94.5716 100.635C94.5716 100.623 94.5744 100.611 94.5797 100.6V100.54C94.4951 100.173 94.5265 99.7885 94.6697 99.44C94.6986 99.4007 94.7362 99.3685 94.7796 99.346C94.8229 99.3235 94.8708 99.3112 94.9197 99.31C95.0297 99.31 95.0897 99.4 95.1097 99.53C95.1159 99.6619 95.099 99.7939 95.0597 99.92C95.2797 99.7 95.5396 99.53 95.6796 99.6C95.8196 99.67 95.7797 99.67 95.7797 99.81C95.7855 99.8943 95.7645 99.9783 95.7197 100.05C95.4758 100.375 95.1189 100.596 94.7197 100.67H94.5797ZM95.5097 99.84C95.4197 99.84 95.0597 100.11 94.8797 100.35C95.1238 100.291 95.3438 100.158 95.5097 99.97C95.5097 99.97 95.5097 99.92 95.5097 99.91C95.5097 99.9 95.5197 99.85 95.5097 99.84ZM94.8196 99.58C94.8196 99.58 94.8197 99.58 94.7697 99.58C94.7197 99.58 94.6897 99.75 94.7697 100.22C94.8639 100.037 94.9152 99.8355 94.9197 99.63C94.9197 99.63 94.8097 99.58 94.8097 99.58H94.8196Z" fill="white"/>
<g style="mix-blend-mode:soft-light">
<path d="M95.4898 103.02C95.4898 103.02 95.2898 103.14 94.9998 103.28C94.8598 103.36 94.6898 103.44 94.5098 103.52C94.3278 103.602 94.1408 103.672 93.9498 103.73C93.7599 103.788 93.5661 103.831 93.3698 103.86C93.2765 103.865 93.1831 103.865 93.0898 103.86C93.0067 103.87 92.9228 103.87 92.8398 103.86H92.2798L92.4098 103.94C92.53 104.019 92.6615 104.08 92.7998 104.12C92.8892 104.157 92.9836 104.18 93.0798 104.19C93.1859 104.206 93.2937 104.206 93.3998 104.19C93.5126 104.205 93.6269 104.205 93.7398 104.19C93.9794 104.162 94.2126 104.095 94.4298 103.99L94.7198 103.82C94.8896 103.711 95.0443 103.58 95.1798 103.43C95.304 103.31 95.4086 103.172 95.4898 103.02Z" fill="white"/>
</g>
<path d="M83.8999 99.72L83.0899 87.5C82.7499 83.97 86.3799 81.82 86.3799 81.82L90.3799 79.5L92.9699 85.19L89.3699 87.45C89.0469 87.7253 88.7895 88.0694 88.6165 88.4569C88.4435 88.8444 88.3592 89.2657 88.3699 89.69L87.7699 97.69C87.4436 98.4115 86.8855 99.0032 86.1842 99.3711C85.483 99.7389 84.6789 99.8617 83.8999 99.72Z" fill="#F8B78F"/>
<path d="M88.1197 93.8L87.8298 97.74C87.4961 98.4676 86.9263 99.0611 86.2129 99.4242C85.4995 99.7872 84.6844 99.8985 83.8997 99.74L83.4897 93.55C85.0238 93.758 86.5722 93.8416 88.1197 93.8Z" fill="white"/>
<g style="mix-blend-mode:multiply" opacity="0.5">
<path d="M86.4496 98.82C87.6596 96.82 87.2796 94.59 87.0796 92.42C86.8136 91.0376 86.9171 89.6096 87.3796 88.28C88.0468 87.2762 88.8475 86.3679 89.7596 85.58C91.4496 83.69 90.6996 81.82 90.1896 79.63L90.4196 79.5L93.0096 85.19L89.4096 87.45C89.0866 87.7253 88.8292 88.0694 88.6562 88.4569C88.4832 88.8444 88.399 89.2657 88.4096 89.69L87.8096 97.69C87.6131 98.1105 87.3352 98.4879 86.9919 98.8003C86.6486 99.1127 86.2467 99.3539 85.8096 99.51C86.0476 99.3041 86.2622 99.0728 86.4496 98.82Z" fill="#F2B193"/>
</g>
<path d="M84.8095 103.9C84.8095 103.9 88.0495 101.99 88.2095 99.83V99.88C89.2095 102.41 84.9495 104.88 84.9495 104.88C83.0995 105.77 80.2595 105.26 80.6195 103.33C81.2195 104.4 83.3195 104.61 84.8095 103.9Z" fill="white"/>
<path d="M87.8098 97.7399C87.2398 98.0899 86.8098 98.56 86.1498 98.28C85.4898 98 86.3098 97.1 85.3498 97.15C84.4428 97.2308 83.5413 97.3643 82.6498 97.5499C82.8398 98.4199 82.9798 99.07 82.9798 99.09C83.0498 99.34 80.6498 101.37 80.4398 102.24C79.9398 104.24 82.8698 104.81 84.7598 103.9C84.7598 103.9 89.0198 101.39 88.0198 98.9L87.8098 97.7399Z" fill="#C24D58"/>
<g style="mix-blend-mode:multiply">
<path d="M85.8797 100.48C85.4833 101.209 84.9044 101.822 84.1997 102.26C83.7285 102.386 83.2336 102.396 82.7579 102.288C82.2822 102.18 81.84 101.957 81.4697 101.64C81.1697 101.26 81.3697 101.28 81.3997 100.9C81.9851 100.345 82.5205 99.7391 82.9997 99.09C82.9997 99.09 82.8597 98.42 82.6697 97.55C83.5612 97.3644 84.4627 97.2308 85.3697 97.15C85.9997 97.15 85.8897 97.51 85.9097 97.86C85.8597 98.66 86.3597 99.6799 85.8797 100.48Z" fill="#BCBEC0"/>
</g>
<g style="mix-blend-mode:multiply">
<path d="M87.8098 97.74C87.4694 97.993 87.0959 98.1983 86.6998 98.35C86.6998 98.62 86.6398 98.71 86.2698 98.83C88.1098 99.83 85.5798 102.5 84.3898 103.3C83.5498 103.86 81.9498 104.11 81.1598 103.3C80.9469 103.118 80.789 102.88 80.7042 102.614C80.6194 102.347 80.6109 102.061 80.6798 101.79C80.5733 101.924 80.492 102.077 80.4398 102.24C79.9398 104.24 82.8698 104.81 84.7598 103.9C84.7598 103.9 89.0198 101.39 88.0198 98.9L87.8098 97.74Z" fill="#D1D3D4"/>
</g>
<g style="mix-blend-mode:multiply">
<path d="M83.3697 99.23C83.3097 99.35 83.1997 99.41 83.1297 99.38C83.0597 99.35 83.0297 99.22 83.1297 99.1C83.2297 98.98 83.2997 98.91 83.3797 98.95C83.4597 98.99 83.4197 99.11 83.3697 99.23Z" fill="#BCBEC0"/>
</g>
<g style="mix-blend-mode:multiply">
<path d="M82.8799 99.91C82.8199 100.03 82.7099 100.09 82.6299 100.06C82.5974 100.021 82.5796 99.9711 82.5796 99.92C82.5796 99.8689 82.5974 99.8194 82.6299 99.78C82.6899 99.66 82.7999 99.59 82.8799 99.63C82.9599 99.67 82.9299 99.79 82.8799 99.91Z" fill="#BCBEC0"/>
</g>
<g style="mix-blend-mode:multiply">
<path d="M82.3497 100.69C82.2997 100.81 82.1897 100.88 82.1097 100.84C82.0297 100.8 82.0097 100.68 82.1097 100.56C82.2097 100.44 82.2697 100.37 82.3497 100.41C82.4297 100.45 82.4097 100.57 82.3497 100.69Z" fill="#BCBEC0"/>
</g>
<g style="mix-blend-mode:multiply">
<path d="M85.6397 100.29C85.5897 100.41 85.4797 100.48 85.3997 100.44C85.3197 100.4 85.2997 100.28 85.3997 100.16C85.4997 100.04 85.5597 99.97 85.6397 100.01C85.7197 100.05 85.6997 100.17 85.6397 100.29Z" fill="#BCBEC0"/>
</g>
<g style="mix-blend-mode:multiply">
<path d="M85.2198 101C85.2198 101.12 85.0598 101.19 84.9798 101.15C84.8998 101.11 84.8798 100.99 84.9798 100.87C84.9939 100.82 85.0264 100.776 85.0708 100.748C85.1152 100.721 85.1683 100.711 85.2198 100.72C85.2598 100.76 85.2798 100.88 85.2198 101Z" fill="#BCBEC0"/>
</g>
<g style="mix-blend-mode:multiply">
<path d="M84.6298 101.91C84.5698 102.03 84.4598 102.09 84.3898 102.06C84.3497 102.027 84.3226 101.98 84.3135 101.929C84.3043 101.878 84.3137 101.825 84.3398 101.78C84.3998 101.66 84.5098 101.59 84.5898 101.63C84.6698 101.67 84.6898 101.79 84.6298 101.91Z" fill="#BCBEC0"/>
</g>
<path d="M82.6898 99.9799C82.6835 99.9658 82.6802 99.9505 82.6802 99.935C82.6802 99.9195 82.6835 99.9041 82.6898 99.8899C82.6923 99.8546 82.7037 99.8206 82.723 99.7908C82.7422 99.7611 82.7686 99.7367 82.7998 99.72C83.7279 99.5506 84.6854 99.662 85.5498 100.04C85.5998 100.04 85.6098 100.13 85.5498 100.21C85.5405 100.241 85.5199 100.267 85.4922 100.284C85.4645 100.301 85.4315 100.306 85.3998 100.3C84.5732 99.9388 83.6589 99.8276 82.7698 99.9799H82.6898Z" fill="#BEC0C2"/>
<path d="M82.1499 100.75C82.1499 100.75 82.1499 100.75 82.1499 100.66C82.151 100.626 82.162 100.592 82.1815 100.564C82.201 100.536 82.2282 100.513 82.2599 100.5C83.2125 100.324 84.1951 100.414 85.0999 100.76C85.1186 100.784 85.1287 100.814 85.1287 100.845C85.1287 100.876 85.1186 100.906 85.0999 100.93C85.091 100.96 85.0724 100.986 85.0471 101.004C85.0217 101.022 84.991 101.031 84.9599 101.03C84.0917 100.692 83.1485 100.596 82.2299 100.75H82.1499Z" fill="#BEC0C2"/>
<path d="M83.1697 99.29C83.1697 99.29 83.1097 99.22 83.1697 99.16C83.1739 99.127 83.1889 99.0963 83.2125 99.0727C83.236 99.0492 83.2667 99.0341 83.2997 99.03C83.7384 99.0486 84.1692 99.1536 84.5673 99.339C84.9654 99.5243 85.323 99.7863 85.6197 100.11C85.6417 100.137 85.6537 100.17 85.6537 100.205C85.6537 100.24 85.6417 100.273 85.6197 100.3C85.6197 100.36 85.5197 100.38 85.4797 100.3C84.8918 99.6935 84.0937 99.3356 83.2497 99.3L83.1697 99.29Z" fill="white"/>
<path d="M84.9298 101.02C84.5571 100.3 83.9748 99.7111 83.2598 99.33C83.2598 99.33 83.2598 99.23 83.2598 99.16C83.2598 99.09 83.3698 99.04 83.4098 99.08C84.1587 99.476 84.7666 100.094 85.1498 100.85C85.1572 100.884 85.1556 100.92 85.1451 100.953C85.1346 100.986 85.1155 101.016 85.0898 101.04C85.0898 101.04 84.9598 101.04 84.9298 101.02Z" fill="#DEDFE0"/>
<path d="M84.3897 101.8C84.0241 101.065 83.4548 100.45 82.7497 100.03C82.7303 100.004 82.7197 99.9724 82.7197 99.94C82.7197 99.9075 82.7303 99.8759 82.7497 99.85C82.7497 99.79 82.8397 99.75 82.8997 99.78C83.6338 100.219 84.2244 100.862 84.5997 101.63C84.6062 101.664 84.6042 101.699 84.5937 101.733C84.5832 101.766 84.5647 101.796 84.5397 101.82C84.529 101.83 84.5163 101.837 84.5026 101.841C84.4888 101.845 84.4744 101.846 84.4601 101.844C84.4459 101.842 84.4323 101.837 84.4201 101.83C84.408 101.822 84.3976 101.812 84.3897 101.8Z" fill="#DEDFE0"/>
<path d="M82.4597 100.28C82.4597 100.28 82.4097 100.21 82.4597 100.15C82.4673 100.117 82.4848 100.087 82.5097 100.063C82.5347 100.04 82.566 100.025 82.5997 100.02C83.485 100.061 84.3185 100.449 84.9197 101.1C84.9417 101.127 84.9536 101.16 84.9536 101.195C84.9536 101.23 84.9417 101.263 84.9197 101.29C84.9197 101.35 84.8097 101.37 84.7797 101.29C84.1918 100.684 83.3936 100.326 82.5497 100.29L82.4597 100.28Z" fill="white"/>
<path d="M84.4 101.87C83.8445 101.226 83.0576 100.827 82.21 100.76C82.15 100.76 82.12 100.7 82.14 100.62C82.1476 100.587 82.165 100.557 82.19 100.533C82.2149 100.51 82.2463 100.495 82.28 100.49C83.1638 100.561 83.9852 100.974 84.57 101.64C84.5919 101.667 84.6039 101.7 84.6039 101.735C84.6039 101.77 84.5919 101.803 84.57 101.83C84.48 101.87 84.43 101.89 84.4 101.87Z" fill="white"/>
<path d="M84.3399 99.55C84.333 99.5305 84.333 99.5094 84.3399 99.49V99.4C84.249 99.0333 84.2806 98.647 84.4299 98.3C84.4547 98.2589 84.4901 98.2252 84.5323 98.2024C84.5744 98.1795 84.622 98.1683 84.6699 98.17C84.7899 98.17 84.8399 98.26 84.8599 98.39C84.8842 98.5155 84.8842 98.6445 84.8599 98.77C85.0899 98.56 85.3399 98.39 85.4799 98.46C85.6199 98.53 85.5799 98.53 85.5799 98.66C85.5914 98.7478 85.57 98.8369 85.5199 98.91C85.2774 99.2361 84.9199 99.4578 84.5199 99.53L84.3399 99.55ZM85.2799 98.7299C85.1799 98.7299 84.8199 98.9899 84.6399 99.2299C84.8861 99.1752 85.1096 99.046 85.2799 98.86C85.2839 98.8402 85.2839 98.8198 85.2799 98.8C85.2899 98.74 85.2799 98.7299 85.2799 98.7299ZM84.5899 98.46H84.5099C84.4521 98.6728 84.4521 98.8971 84.5099 99.11C84.6032 98.9269 84.6544 98.7253 84.6599 98.52C84.6559 98.504 84.6469 98.4896 84.6344 98.4789C84.6219 98.4681 84.6063 98.4615 84.5899 98.46Z" fill="white"/>
<g style="mix-blend-mode:soft-light">
<path d="M85.2495 101.9L84.7595 102.17C84.6195 102.25 84.4495 102.33 84.2795 102.41C84.094 102.489 83.9036 102.555 83.7095 102.61C83.5199 102.671 83.326 102.718 83.1295 102.75H82.8596H82.5995H82.0396L82.1796 102.84C82.2971 102.918 82.4251 102.978 82.5595 103.02C82.6499 103.054 82.7439 103.077 82.8395 103.09C82.946 103.1 83.0531 103.1 83.1595 103.09C83.2758 103.105 83.3933 103.105 83.5095 103.09L83.8596 103.02L84.1896 102.89C84.2996 102.84 84.3895 102.77 84.4895 102.72C84.6569 102.607 84.8082 102.473 84.9396 102.32C85.068 102.2 85.1731 102.058 85.2495 101.9Z" fill="white"/>
</g>
<path d="M98.51 81.17L89.43 88.53C84.36 87.8 83.23 84.31 83.23 84.31L89.72 76.92L98.51 81.17Z" fill="#0063A1"/>
<path d="M96.41 78.45L92.25 88.53C94.4725 89.95 97.1029 90.5935 99.73 90.36L106.73 85.16C106.73 85.16 109 83.42 109 81.77L96.41 78.45Z" fill="#0063A1"/>
<path d="M102.31 46.28H96.4097V49.11H102.31V46.28Z" fill="#FBB88E"/>
<path d="M102.31 47.12V46.28H96.4097V48C98.4185 48.1867 100.443 47.8848 102.31 47.12Z" fill="#E69D82"/>
<path d="M118.97 29.77C118.97 39.38 110.17 47.16 99.3096 47.16C88.4496 47.16 79.6396 39.38 79.6396 29.77C79.6396 20.16 88.4396 12.4 99.3096 12.4C110.18 12.4 118.97 20.17 118.97 29.77Z" fill="#F8B78F"/>
<path d="M77.1697 33.26C77.1148 33.606 77.1384 33.96 77.2386 34.2958C77.3388 34.6315 77.5131 34.9405 77.7487 35.1999C77.9843 35.4593 78.2752 35.6624 78.5998 35.7943C78.9244 35.9263 79.2745 35.9836 79.6242 35.9622C79.974 35.9407 80.3144 35.8409 80.6205 35.6703C80.9265 35.4996 81.1903 35.2624 81.3924 34.9762C81.5945 34.6899 81.7297 34.3619 81.7881 34.0164C81.8465 33.6709 81.8265 33.3167 81.7297 32.98C81.7846 32.6339 81.7611 32.2799 81.6609 31.9442C81.5607 31.6084 81.3863 31.2994 81.1507 31.04C80.9151 30.7807 80.6243 30.5775 80.2997 30.4456C79.975 30.3137 79.6249 30.2563 79.2752 30.2778C78.9255 30.2993 78.585 30.399 78.279 30.5696C77.9729 30.7403 77.7091 30.9775 77.507 31.2638C77.3049 31.55 77.1697 31.878 77.1113 32.2235C77.0529 32.569 77.0729 32.9232 77.1697 33.26Z" fill="#F8B78F"/>
<path d="M78.2898 31.15C78.4639 31.0626 78.6551 31.0147 78.8498 31.0099C79.6798 31.0099 80.2798 32.42 79.4398 32.63C79.3559 32.7292 79.3099 32.855 79.3099 32.985C79.3099 33.1149 79.3559 33.2407 79.4398 33.34C79.6133 33.5119 79.7492 33.718 79.8387 33.9453C79.9282 34.1725 79.9695 34.4159 79.9598 34.66C79.8998 34.94 79.5998 35.08 79.3398 35.14C79.0798 35.2 79.0898 35 79.2598 34.93C79.3879 34.8647 79.5005 34.7727 79.5898 34.66V34.61C79.6095 34.5413 79.6095 34.4686 79.5898 34.4C79.5029 34.4808 79.3885 34.5257 79.2698 34.5257C79.1511 34.5257 79.0368 34.4808 78.9498 34.4C78.7998 34.19 78.9498 33.87 78.8898 33.64C78.8588 33.472 78.8014 33.31 78.7198 33.16C78.3698 32.45 79.0698 32.37 79.0698 32.37H79.3198C79.6698 32.19 79.3198 31.6099 79.0998 31.5099C78.9834 31.4464 78.8497 31.4218 78.7183 31.4398C78.587 31.4578 78.4648 31.5174 78.3698 31.61C78.1901 31.833 78.0977 32.1138 78.1098 32.4C78.1055 32.7417 78.1666 33.0812 78.2898 33.4C78.3498 33.57 78.4398 33.78 78.5098 33.95C78.5798 34.12 78.3698 34.22 78.2998 34.02C78.0523 33.5091 77.887 32.9624 77.8098 32.4C77.7618 32.1675 77.7815 31.9262 77.8666 31.7046C77.9517 31.483 78.0986 31.2905 78.2898 31.15Z" fill="#E69D82"/>
<path d="M121.44 33.26C121.315 33.6821 121.073 34.0604 120.743 34.3515C120.412 34.6425 120.007 34.8344 119.572 34.9051C119.137 34.9759 118.692 34.9226 118.286 34.7515C117.881 34.5803 117.531 34.2981 117.279 33.9375C117.026 33.5768 116.881 33.1522 116.859 32.7125C116.837 32.2728 116.939 31.8358 117.155 31.4517C117.37 31.0676 117.689 30.7521 118.076 30.5413C118.462 30.3304 118.9 30.2329 119.34 30.26C120.011 30.3891 120.606 30.7745 120.998 31.3345C121.39 31.8945 121.548 32.5851 121.44 33.26Z" fill="#F8B78F"/>
<path d="M120.32 31.15C120.146 31.0626 119.955 31.0147 119.76 31.0099C118.93 31.0099 118.33 32.42 119.17 32.63C119.256 32.7283 119.303 32.8544 119.303 32.985C119.303 33.1155 119.256 33.2416 119.17 33.34C118.996 33.5119 118.86 33.718 118.771 33.9453C118.681 34.1725 118.64 34.4159 118.65 34.66C118.701 34.7902 118.786 34.9038 118.897 34.9885C119.008 35.0732 119.141 35.1256 119.28 35.14C119.49 35.14 119.52 35 119.35 34.93C119.222 34.8647 119.109 34.7727 119.02 34.66V34.61C119 34.5413 119 34.4686 119.02 34.4C119.109 34.4794 119.225 34.5233 119.345 34.5233C119.465 34.5233 119.58 34.4794 119.67 34.4C119.81 34.19 119.67 33.87 119.72 33.64C119.756 33.4734 119.813 33.3121 119.89 33.16C120.24 32.45 119.55 32.37 119.55 32.37H119.29C118.94 32.19 119.29 31.6099 119.51 31.5099C119.626 31.4464 119.76 31.4218 119.891 31.4398C120.023 31.4578 120.145 31.5174 120.24 31.61C120.419 31.833 120.512 32.1138 120.5 32.4C120.502 32.7407 120.445 33.0792 120.33 33.4L120.1 33.95C120.03 34.15 120.24 34.22 120.32 34.02C120.563 33.5073 120.728 32.9613 120.81 32.4C120.857 32.1666 120.836 31.9246 120.749 31.7029C120.662 31.4813 120.513 31.2893 120.32 31.15Z" fill="#E69D82"/>
<path d="M99.4476 33.5183C99.4453 33.6057 99.4084 33.6888 99.3449 33.749C99.2814 33.8092 99.1966 33.8418 99.1091 33.8395C98.9583 33.821 98.8053 33.8343 98.6599 33.8784C98.5145 33.9225 98.38 33.9965 98.2649 34.0957C98.1498 34.1949 98.0567 34.3171 97.9916 34.4543C97.9265 34.5916 97.8908 34.741 97.8868 34.8929C97.8828 35.0448 97.9106 35.1958 97.9685 35.3363C98.0263 35.4768 98.1129 35.6036 98.2226 35.7087C98.3324 35.8138 98.4629 35.8948 98.6057 35.9464C98.7486 35.9981 98.9007 36.0193 99.0523 36.0088C99.0956 36.0099 99.1383 36.0195 99.1779 36.0372C99.2175 36.0548 99.2532 36.0801 99.283 36.1115C99.3128 36.1429 99.3362 36.1799 99.3517 36.2204C99.3672 36.2609 99.3747 36.304 99.3735 36.3473C99.3724 36.3906 99.3627 36.4333 99.3451 36.4729C99.3275 36.5125 99.3022 36.5482 99.2708 36.578C99.2394 36.6079 99.2024 36.6312 99.1619 36.6467C99.1214 36.6623 99.0783 36.6697 99.035 36.6685C98.7944 36.6804 98.5538 36.6425 98.3285 36.5572C98.1032 36.4718 97.8979 36.3408 97.7256 36.1724C97.5532 36.004 97.4175 35.8019 97.3269 35.5786C97.2363 35.3553 97.1928 35.1157 97.1991 34.8749C97.2054 34.634 97.2614 34.397 97.3636 34.1788C97.4657 33.9606 97.6118 33.7658 97.7928 33.6067C97.9737 33.4475 98.1855 33.3275 98.415 33.254C98.6445 33.1805 98.8867 33.1552 99.1264 33.1797C99.2139 33.182 99.2968 33.219 99.3571 33.2825C99.4173 33.346 99.4499 33.4308 99.4476 33.5183Z" fill="#E89D7F"/>
<path opacity="0.3" d="M85.8096 35.55C85.8096 36.55 87.0696 37.32 88.6296 37.32C90.1896 37.32 91.4496 36.53 91.4496 35.55C91.4496 34.57 90.1896 33.78 88.6296 33.78C87.0696 33.78 85.8096 34.57 85.8096 35.55Z" fill="#F27383"/>
<path opacity="0.3" d="M107.18 35.55C107.18 36.55 108.44 37.32 110 37.32C111.56 37.32 112.82 36.53 112.82 35.55C112.82 34.57 111.56 33.78 110 33.78C108.44 33.78 107.18 34.57 107.18 35.55Z" fill="#F27383"/>
<path d="M85.3 5.20994C78.41 6.56994 77.16 17.2999 77.16 17.2999C76.67 22.5799 76.65 24.6099 78.22 30.6699C78.22 30.6699 78.38 30.31 79.65 30.29C79.65 30.29 80.3 28.0399 80.33 27.8999C80.626 26.3484 81.2715 24.8847 82.2175 23.6198C83.1636 22.355 84.3853 21.3222 85.79 20.6C91.43 16.6 89.34 14.78 89.34 14.78C89.44 15.33 90.94 16.3299 91.43 16.4499C93.95 17.0499 96.63 16.4999 98.87 16.5799C102.87 16.7199 107.15 16.9799 110.46 19.4299C113.28 21.6284 115.655 24.3433 117.46 27.4299C117.64 27.7199 118.81 30.32 118.94 30.29C119.503 30.257 120.057 30.4393 120.49 30.7999C120.49 30.7999 123.68 12.1499 113.84 6.91994C113.84 6.91994 96.77 -2.13006 85.28 5.23994" fill="#99563A"/>
<path d="M89.7 15.31C88.23 11.93 86.81 8.52 85.02 5.31C78.38 6.91 77.16 17.31 77.16 17.31C76.67 22.59 76.65 24.62 78.22 30.68C78.22 30.68 78.38 30.32 79.65 30.3C79.65 30.3 80.3 28.05 80.33 27.91C80.626 26.3585 81.2715 24.8947 82.2175 23.6299C83.1636 22.365 84.3853 21.3323 85.79 20.61C89.84 17.76 89.9 16 89.62 15.24L89.7 15.31Z" fill="#99563A"/>
<path d="M88.5999 25.81C89.1953 25.2773 89.9449 24.948 90.7399 24.87C90.9082 24.8233 91.051 24.7118 91.1372 24.56C91.2234 24.4082 91.246 24.2284 91.1999 24.06C91.1488 23.8925 91.035 23.7511 90.8823 23.6654C90.7295 23.5797 90.5496 23.5563 90.38 23.6C89.3618 23.725 88.4095 24.1697 87.66 24.87C87.05 25.46 87.9799 26.4 88.5999 25.81Z" fill="#B46546"/>
<path d="M110.01 25.81C109.418 25.2774 108.672 24.9481 107.88 24.87C107.711 24.8231 107.567 24.7121 107.48 24.5607C107.392 24.4094 107.367 24.2297 107.41 24.06C107.463 23.8939 107.577 23.7541 107.729 23.6687C107.881 23.5834 108.06 23.5588 108.23 23.6C109.248 23.723 110.201 24.1679 110.95 24.87C111.57 25.46 110.63 26.4 110.01 25.81Z" fill="#B46546"/>
<path d="M90.7198 34.04C90.6633 34.0515 90.6125 34.0821 90.576 34.1267C90.5395 34.1714 90.5195 34.2273 90.5195 34.285C90.5195 34.3426 90.5395 34.3985 90.576 34.4432C90.6125 34.4878 90.6633 34.5185 90.7198 34.53C90.7763 34.5185 90.8271 34.4878 90.8636 34.4432C90.9001 34.3985 90.92 34.3426 90.92 34.285C90.92 34.2273 90.9001 34.1714 90.8636 34.1267C90.8271 34.0821 90.7763 34.0515 90.7198 34.04Z" fill="#C88972"/>
<path d="M88.42 34.2599C88.3635 34.2714 88.3127 34.3021 88.2762 34.3467C88.2397 34.3914 88.2197 34.4473 88.2197 34.505C88.2197 34.5626 88.2397 34.6185 88.2762 34.6632C88.3127 34.7078 88.3635 34.7385 88.42 34.75C88.4765 34.7385 88.5273 34.7078 88.5638 34.6632C88.6003 34.6185 88.6202 34.5626 88.6202 34.505C88.6202 34.4473 88.6003 34.3914 88.5638 34.3467C88.5273 34.3021 88.4765 34.2714 88.42 34.2599Z" fill="#C88972"/>
<path d="M89.8096 35.3C89.7433 35.3 89.6797 35.3263 89.6328 35.3732C89.5859 35.4201 89.5596 35.4837 89.5596 35.55C89.5596 35.6163 89.5859 35.6799 89.6328 35.7268C89.6797 35.7737 89.7433 35.8 89.8096 35.8C89.8759 35.8 89.9395 35.7737 89.9863 35.7268C90.0332 35.6799 90.0596 35.6163 90.0596 35.55C90.0596 35.4837 90.0332 35.4201 89.9863 35.3732C89.9395 35.3263 89.8759 35.3 89.8096 35.3Z" fill="#C88972"/>
<path d="M91.9796 35.03C91.923 35.0414 91.8722 35.0721 91.8357 35.1168C91.7992 35.1614 91.7793 35.2173 91.7793 35.275C91.7793 35.3326 91.7992 35.3885 91.8357 35.4332C91.8722 35.4778 91.923 35.5085 91.9796 35.52C92.0361 35.5085 92.0869 35.4778 92.1234 35.4332C92.1599 35.3885 92.1798 35.3326 92.1798 35.275C92.1798 35.2173 92.1599 35.1614 92.1234 35.1168C92.0869 35.0721 92.0361 35.0414 91.9796 35.03Z" fill="#C88972"/>
<path d="M87.9796 35.63C87.923 35.6415 87.8722 35.6721 87.8357 35.7168C87.7992 35.7614 87.7793 35.8173 87.7793 35.875C87.7793 35.9327 87.7992 35.9886 87.8357 36.0332C87.8722 36.0779 87.923 36.1085 87.9796 36.12C88.0361 36.1085 88.0869 36.0779 88.1234 36.0332C88.1599 35.9886 88.1798 35.9327 88.1798 35.875C88.1798 35.8173 88.1599 35.7614 88.1234 35.7168C88.0869 35.6721 88.0361 35.6415 87.9796 35.63Z" fill="#C88972"/>
<path d="M90.4497 36.67C90.3834 36.67 90.3198 36.6963 90.2729 36.7432C90.226 36.7901 90.1997 36.8537 90.1997 36.92C90.1997 36.9863 90.226 37.0499 90.2729 37.0968C90.3198 37.1437 90.3834 37.17 90.4497 37.17C90.516 37.17 90.5796 37.1437 90.6265 37.0968C90.6734 37.0499 90.6997 36.9863 90.6997 36.92C90.6997 36.8537 90.6734 36.7901 90.6265 36.7432C90.5796 36.6963 90.516 36.67 90.4497 36.67Z" fill="#C88972"/>
<path d="M109.37 34.04C109.313 34.0515 109.262 34.0821 109.226 34.1267C109.189 34.1714 109.169 34.2273 109.169 34.285C109.169 34.3426 109.189 34.3985 109.226 34.4432C109.262 34.4878 109.313 34.5185 109.37 34.53C109.426 34.5185 109.477 34.4878 109.513 34.4432C109.55 34.3985 109.57 34.3426 109.57 34.285C109.57 34.2273 109.55 34.1714 109.513 34.1267C109.477 34.0821 109.426 34.0515 109.37 34.04Z" fill="#C88972"/>
<path d="M107.06 34.2599C107.003 34.2714 106.952 34.3021 106.916 34.3467C106.879 34.3914 106.859 34.4473 106.859 34.505C106.859 34.5626 106.879 34.6185 106.916 34.6632C106.952 34.7078 107.003 34.7385 107.06 34.75C107.116 34.7385 107.167 34.7078 107.203 34.6632C107.24 34.6185 107.26 34.5626 107.26 34.505C107.26 34.4473 107.24 34.3914 107.203 34.3467C107.167 34.3021 107.116 34.2714 107.06 34.2599Z" fill="#C88972"/>
<path d="M108.49 35.3C108.423 35.3 108.36 35.3263 108.313 35.3732C108.266 35.4201 108.24 35.4837 108.24 35.55C108.24 35.6163 108.266 35.6799 108.313 35.7268C108.36 35.7737 108.423 35.8 108.49 35.8C108.556 35.8 108.62 35.7737 108.667 35.7268C108.713 35.6799 108.74 35.6163 108.74 35.55C108.74 35.4837 108.713 35.4201 108.667 35.3732C108.62 35.3263 108.556 35.3 108.49 35.3Z" fill="#C88972"/>
<path d="M110.63 35.03C110.573 35.0414 110.523 35.0721 110.486 35.1168C110.45 35.1614 110.43 35.2173 110.43 35.275C110.43 35.3326 110.45 35.3885 110.486 35.4332C110.523 35.4778 110.573 35.5085 110.63 35.52C110.686 35.5085 110.737 35.4778 110.774 35.4332C110.81 35.3885 110.83 35.3326 110.83 35.275C110.83 35.2173 110.81 35.1614 110.774 35.1168C110.737 35.0721 110.686 35.0414 110.63 35.03Z" fill="#C88972"/>
<path d="M106.63 35.63C106.573 35.6415 106.523 35.6721 106.486 35.7168C106.45 35.7614 106.43 35.8173 106.43 35.875C106.43 35.9327 106.45 35.9886 106.486 36.0332C106.523 36.0779 106.573 36.1085 106.63 36.12C106.686 36.1085 106.737 36.0779 106.774 36.0332C106.81 35.9886 106.83 35.9327 106.83 35.875C106.83 35.8173 106.81 35.7614 106.774 35.7168C106.737 35.6721 106.686 35.6415 106.63 35.63Z" fill="#C88972"/>
<path d="M109.1 36.67C109.033 36.67 108.97 36.6963 108.923 36.7432C108.876 36.7901 108.85 36.8537 108.85 36.92C108.85 36.9863 108.876 37.0499 108.923 37.0968C108.97 37.1437 109.033 37.17 109.1 37.17C109.166 37.17 109.23 37.1437 109.276 37.0968C109.323 37.0499 109.35 36.9863 109.35 36.92C109.35 36.8537 109.323 36.7901 109.276 36.7432C109.23 36.6963 109.166 36.67 109.1 36.67Z" fill="#C88972"/>
<path opacity="0.1" d="M88.3496 15.71C88.3496 15.71 80.6096 20.65 80.1996 24.61C80.2968 22.9253 80.7178 21.2752 81.4396 19.75C81.4396 19.75 78.8796 20.87 78.7696 23.25C78.7696 23.25 77.1196 18.03 85.6696 13.2C85.6696 13.2 82.6696 16.07 82.2096 18.74C82.2096 18.74 84.9096 15.62 88.3496 15.71Z" fill="white"/>
<path d="M103.67 38.88H94.9399C94.9399 38.88 95.6099 41.73 99.3099 41.88C100.261 41.9062 101.195 41.6298 101.979 41.0907C102.763 40.5515 103.355 39.7774 103.67 38.88Z" fill="#C37466"/>
<path d="M101.65 40.26C101.285 39.9054 100.844 39.6378 100.361 39.4772C99.8785 39.3166 99.3655 39.2671 98.8607 39.3325C98.356 39.3979 97.8725 39.5764 97.4464 39.8548C97.0203 40.1331 96.6626 40.5041 96.3999 40.94C97.2407 41.5709 98.2589 41.9208 99.3099 41.94C100.36 41.9501 101.381 41.5968 102.2 40.94C102.042 40.6942 101.857 40.4662 101.65 40.26Z" fill="#F3917E"/>
<path d="M99.2198 43.53C98.8662 43.5369 98.5184 43.4396 98.2198 43.25C98.1877 43.227 98.1603 43.1979 98.1394 43.1644C98.1185 43.1308 98.1043 43.0935 98.0978 43.0545C98.0913 43.0155 98.0926 42.9756 98.1015 42.9371C98.1104 42.8986 98.1268 42.8622 98.1498 42.83C98.1728 42.7978 98.2019 42.7705 98.2354 42.7496C98.269 42.7286 98.3063 42.7145 98.3453 42.708C98.3843 42.7015 98.4242 42.7028 98.4628 42.7117C98.5013 42.7206 98.5377 42.737 98.5698 42.76C98.8241 42.8883 99.105 42.9552 99.3898 42.9552C99.6747 42.9552 99.9555 42.8883 100.21 42.76C100.283 42.73 100.365 42.73 100.438 42.76C100.511 42.7899 100.569 42.8474 100.6 42.92C100.63 42.9956 100.628 43.08 100.597 43.1548C100.565 43.2296 100.505 43.2889 100.43 43.32C100.044 43.4697 99.6331 43.5411 99.2198 43.53Z" fill="#F5A586"/>
<path d="M98.9199 38.88H96.6099C96.6099 38.88 96.9799 39.88 98.9199 40.09V38.88Z" fill="white"/>
<path d="M99.52 38.88V40.11C100.003 40.1208 100.482 40.0146 100.916 39.8005C101.349 39.5863 101.725 39.2705 102.01 38.88H99.52Z" fill="white"/>
<path d="M94.1397 30.2599C94.1416 30.9506 93.9386 31.6264 93.5563 32.2016C93.1741 32.7769 92.6297 33.2257 91.9922 33.4914C91.3546 33.7571 90.6526 33.8277 89.9749 33.6941C89.2973 33.5606 88.6745 33.229 88.1854 32.7413C87.6963 32.2536 87.3629 31.6318 87.2275 30.9545C87.092 30.2773 87.1605 29.575 87.4244 28.9367C87.6882 28.2984 88.1355 27.7528 88.7097 27.3688C89.2838 26.9849 89.959 26.78 90.6496 26.78C91.5735 26.78 92.4597 27.1463 93.1139 27.7986C93.7681 28.451 94.137 29.3361 94.1397 30.2599Z" fill="white"/>
<path d="M93.49 30.2599C93.4685 30.6996 93.3184 31.1233 93.0585 31.4786C92.7985 31.8339 92.4401 32.1051 92.0275 32.2586C91.615 32.4122 91.1664 32.4413 90.7375 32.3425C90.3085 32.2437 89.918 32.0212 89.6142 31.7025C89.3104 31.3839 89.1068 30.9832 89.0285 30.55C88.9503 30.1168 89.0008 29.6702 89.1738 29.2654C89.3469 28.8607 89.6349 28.5156 90.0021 28.2729C90.3694 28.0301 90.7998 27.9005 91.24 27.9C91.8509 27.9157 92.4308 28.1729 92.8525 28.6152C93.2742 29.0575 93.5034 29.6489 93.49 30.2599Z" fill="#70432E"/>
<path d="M90.6499 33.75H90.1699C89.9881 33.7832 89.8017 33.7832 89.6199 33.75C89.3638 33.7317 89.1131 33.6674 88.8799 33.56C88.7499 33.5 88.6099 33.45 88.4799 33.38L88.0899 33.1099C87.816 32.9025 87.5735 32.6567 87.3699 32.38C87.1503 32.0758 86.9814 31.7381 86.8699 31.38C86.7458 30.9951 86.6784 30.5942 86.6699 30.19C86.6896 29.8302 86.7534 29.4742 86.8599 29.13C86.9757 28.7716 87.1478 28.434 87.3699 28.13C87.571 27.8539 87.8139 27.611 88.0899 27.41C88.2151 27.3133 88.3453 27.2231 88.4799 27.1399C88.6094 27.0717 88.743 27.0116 88.8799 26.9599C89.1096 26.8527 89.357 26.7883 89.6099 26.7699C89.7946 26.7314 89.9852 26.7314 90.1699 26.7699C90.4799 26.7699 90.6499 26.82 90.6499 26.82L90.1999 26.9599C90.03 26.9998 89.8679 27.0674 89.7199 27.16C89.5154 27.2469 89.3236 27.3613 89.1499 27.5C88.9424 27.6377 88.754 27.8025 88.5899 27.9899C88.4077 28.1952 88.2437 28.4161 88.0999 28.65C87.9682 28.8931 87.8675 29.1518 87.7999 29.4199C87.7109 29.7221 87.6638 30.035 87.6599 30.35C87.6785 30.6267 87.722 30.9011 87.7899 31.1699C87.8618 31.4445 87.9659 31.7097 88.0999 31.9599C88.2437 32.1938 88.4077 32.4147 88.5899 32.62C88.754 32.8074 88.9424 32.9722 89.1499 33.1099C89.3173 33.2446 89.5024 33.3556 89.6999 33.44C89.8513 33.5327 90.0168 33.6002 90.1899 33.6399L90.6499 33.75Z" fill="#E89D7F"/>
<path d="M104.47 30.2599C104.468 30.9506 104.671 31.6264 105.053 32.2016C105.435 32.7769 105.98 33.2257 106.617 33.4914C107.255 33.7571 107.957 33.8277 108.634 33.6941C109.312 33.5606 109.935 33.229 110.424 32.7413C110.913 32.2536 111.246 31.6318 111.382 30.9545C111.517 30.2773 111.449 29.575 111.185 28.9367C110.921 28.2984 110.474 27.7528 109.9 27.3688C109.326 26.9849 108.65 26.78 107.96 26.78C107.036 26.78 106.15 27.1463 105.495 27.7986C104.841 28.451 104.472 29.3361 104.47 30.2599Z" fill="white"/>
<path d="M105.13 30.26C105.152 30.7001 105.302 31.1242 105.562 31.4796C105.823 31.8351 106.182 32.1063 106.595 32.2595C107.008 32.4127 107.457 32.4413 107.886 32.3417C108.315 32.242 108.706 32.0185 109.009 31.6989C109.313 31.3793 109.515 30.9777 109.593 30.5439C109.67 30.11 109.618 29.6631 109.443 29.2585C109.269 28.854 108.979 28.5096 108.61 28.268C108.242 28.0265 107.811 27.8985 107.37 27.9C106.761 27.9183 106.184 28.1766 105.764 28.6187C105.344 29.0607 105.116 29.6506 105.13 30.26Z" fill="#70432E"/>
<path d="M107.96 33.75L108.42 33.6C108.593 33.5603 108.759 33.4927 108.91 33.4C109.108 33.3156 109.293 33.2046 109.46 33.07C109.668 32.9322 109.856 32.7674 110.02 32.58C110.202 32.3747 110.366 32.1538 110.51 31.9199C110.644 31.6697 110.748 31.4046 110.82 31.13C110.888 30.8611 110.931 30.5867 110.95 30.31C110.944 30.0017 110.897 29.6956 110.81 29.4C110.742 29.1318 110.642 28.8731 110.51 28.63C110.366 28.3961 110.202 28.1753 110.02 27.97C109.856 27.7825 109.668 27.6177 109.46 27.4799C109.288 27.3436 109.1 27.2294 108.9 27.1399C108.748 27.0488 108.583 26.9814 108.41 26.94L107.96 26.8C107.96 26.8 108.13 26.8 108.44 26.75C108.628 26.7114 108.822 26.7114 109.01 26.75C109.259 26.7697 109.503 26.834 109.73 26.94C109.867 26.9916 110.001 27.0517 110.13 27.12L110.52 27.38C110.797 27.5871 111.043 27.8329 111.25 28.1099C111.465 28.4168 111.634 28.7538 111.75 29.1099C111.861 29.4531 111.925 29.8097 111.94 30.1699C111.936 30.5747 111.869 30.9763 111.74 31.3599C111.628 31.7181 111.46 32.0558 111.24 32.3599C111.036 32.6367 110.794 32.8825 110.52 33.09L110.13 33.3599C110 33.4299 109.86 33.48 109.73 33.54C109.497 33.6474 109.246 33.7117 108.99 33.7299C108.808 33.7632 108.622 33.7632 108.44 33.7299L107.96 33.75Z" fill="#E89D7F"/>
<path d="M89.77 17.08L86.52 8.07001L90.65 16.55L89.77 17.08Z" fill="#F8B78F"/>
<path d="M85.2998 5.20998L89.6898 15.5C92.5174 18.1962 95.7887 20.385 99.3598 21.97L95.6798 16.65C95.6798 16.65 103.88 26.38 122.46 25.31C122.46 25.31 122.23 11.65 117.65 6.36998C111.805 3.22604 105.451 1.14058 98.8798 0.209979C98.8798 0.209979 90.6598 -1.60002 85.2998 5.20998Z" fill="#B46546"/>
<path opacity="0.1" d="M97.6098 5.02995C97.6098 5.02995 90.6698 4.31994 88.5598 6.48994C89.4036 5.53592 90.4219 4.75187 91.5598 4.17994C90.9945 4.03186 90.4008 4.02941 89.8343 4.1728C89.2677 4.31619 88.7467 4.60076 88.3198 4.99995C88.3198 4.99995 89.7998 1.11995 97.1698 2.27995C97.1698 2.27995 94.0498 2.59995 92.4898 3.93995C92.5198 3.93995 95.5998 3.39995 97.6098 5.02995Z" fill="white"/>
<path opacity="0.1" d="M106.39 7.80997C106.39 7.80997 115.02 10.9499 116.28 14.7299C115.82 13.1068 115.049 11.5886 114.01 10.2599C114.01 10.2599 116.75 10.79 117.39 13.09C117.39 13.09 117.86 7.63997 108.45 4.77997C108.45 4.77997 111.96 6.94997 113.05 9.43997C113.05 9.39997 109.73 6.97997 106.39 7.80997Z" fill="white"/>
<path opacity="0.1" d="M98.34 10.66C98.34 10.66 104.34 17.66 108.34 17.47C106.654 17.6131 104.956 17.4297 103.34 16.93C103.34 16.93 104.81 19.3 107.18 19.08C107.18 19.08 102.25 21.45 96.25 13.66C96.25 13.66 99.52 16.18 102.25 16.31C102.21 16.31 98.74 14.07 98.34 10.66Z" fill="white"/>
<path d="M108.75 51.46C108.627 50.9803 108.385 50.5396 108.046 50.1793C107.707 49.8189 107.281 49.5508 106.81 49.4L101.59 48.4H97.1497L91.9297 49.4C91.4447 49.5437 91.0054 49.811 90.6548 50.1757C90.3042 50.5403 90.0544 50.9897 89.9297 51.4799C89.5797 61.5599 89.2897 67.17 88.6997 75.27C92.1075 76.4668 95.7106 77.0096 99.3197 76.87C102.929 77.0111 106.532 76.4682 109.94 75.27C109.74 71.02 109.25 61.78 108.75 51.46Z" fill="#FBB88E"/>
<path d="M102.68 48.57L106.81 49.4C107.286 49.5511 107.715 49.8217 108.056 50.1858C108.398 50.55 108.64 50.9955 108.76 51.48C109.16 59.48 109.36 64.3 109.99 75.27C106.583 76.4682 102.979 77.0111 99.37 76.87C95.7609 77.0097 92.1578 76.4668 88.75 75.27C89.24 66.67 89.53 61.85 89.98 51.48C90.1046 50.9897 90.3545 50.5403 90.7051 50.1757C91.0557 49.8111 91.495 49.5438 91.98 49.4L95.92 48.63C95.92 48.63 95.98 51.16 99.26 51.09C99.2 51.07 102.31 51.47 102.68 48.57Z" fill="#009FD0"/>
<g style="mix-blend-mode:multiply">
<path d="M109.87 73.34C107.246 74.533 104.411 75.1892 101.53 75.27C97.6298 75.52 91.4697 75.59 90.9897 71.16C90.644 67.2343 90.644 63.2857 90.9897 59.36H89.6098C89.3298 64.97 89.0797 69.17 88.7397 75.25C92.1475 76.4468 95.7506 76.9897 99.3598 76.85C102.969 76.9911 106.572 76.4482 109.98 75.25C109.93 74.26 109.92 74.23 109.87 73.34Z" fill="#CFD1D2"/>
</g>
<path d="M124.21 65.4C117.985 63.6745 112.633 59.6782 109.21 54.2C109.21 54.2 107.54 54.12 107.33 55.49C107.33 55.49 112.33 66.67 123.78 67.59C123.74 67.63 125.93 67.18 124.21 65.4Z" fill="#F8B78F"/>
<path d="M127.91 69.34C126.876 69.5285 125.813 69.4633 124.81 69.15C124.81 69.15 123.35 68.69 123 67.73C122.779 67.3049 122.718 66.8148 122.828 66.3486C122.939 65.8825 123.212 65.4714 123.6 65.19C123.997 65.0086 124.434 64.9296 124.87 64.96H124.96C125.438 64.9346 125.909 64.8263 126.35 64.64C127.09 64.31 127.35 64.89 127.35 64.89C127.375 64.9549 127.388 65.0242 127.386 65.0939C127.384 65.1636 127.368 65.2323 127.339 65.2957C127.31 65.3591 127.269 65.4161 127.217 65.4632C127.166 65.5104 127.106 65.5467 127.04 65.57L126.04 65.94C125.58 66.23 125.95 66.39 125.95 66.39C126.788 66.46 127.631 66.46 128.47 66.39C128.598 66.3891 128.722 66.4356 128.818 66.5205C128.914 66.6054 128.975 66.7227 128.99 66.85C128.99 66.85 129.16 67.25 127.94 67.44C127.231 67.5242 126.515 67.5107 125.81 67.4C126.559 67.555 127.326 67.6088 128.09 67.56C128.84 67.36 128.83 67.97 128.83 67.97C128.69 68.67 127.27 68.52 127.27 68.52C126.01 68.42 125.48 68.43 125.48 68.43L127.53 68.58C127.53 68.58 128.26 68.52 128.29 68.9C128.28 68.86 128.37 69.18 127.91 69.34Z" fill="#F8B78F"/>
<path d="M103.94 50.03C103.94 50.03 102.52 53.44 106.16 56.77L108.25 58.94C109.292 58.8301 110.287 58.4491 111.136 57.8351C111.985 57.221 112.659 56.3953 113.09 55.44C113.09 55.44 107.73 46.74 103.94 50.03Z" fill="#2662A3"/>
<g style="mix-blend-mode:multiply">
<path d="M109.81 56.65C108.26 56.79 106.68 55.41 105.69 54.39C104.61 53.2128 104.019 51.6676 104.04 50.07H103.95C103.95 50.07 102.53 53.48 106.17 56.81L108.26 58.98C109.302 58.8701 110.297 58.4891 111.146 57.8751C111.996 57.261 112.669 56.4352 113.1 55.48C113.1 55.48 112.88 55.27 112.5 54.95C112.215 55.4231 111.823 55.8232 111.356 56.1183C110.889 56.4134 110.36 56.5955 109.81 56.65Z" fill="#BCBEC0"/>
</g>
<path d="M73.8699 65.4C80.0949 63.6745 85.447 59.6782 88.8699 54.2C88.8699 54.2 90.5399 54.12 90.7399 55.49C90.7399 55.49 85.7899 66.67 74.2899 67.59C74.3299 67.63 72.1399 67.18 73.8699 65.4Z" fill="#F8B78F"/>
<path d="M70.1596 69.34C71.1931 69.5285 72.2569 69.4633 73.2596 69.15C73.2596 69.15 74.7196 68.69 75.0696 67.73C75.2903 67.3049 75.3512 66.8148 75.241 66.3486C75.1309 65.8825 74.8572 65.4714 74.4696 65.19C74.0721 65.0086 73.6355 64.9296 73.1996 64.96H73.1096C72.6315 64.9334 72.1613 64.8251 71.7196 64.64C70.9796 64.31 70.7196 64.89 70.7196 64.89C70.6939 64.9543 70.6813 65.023 70.6825 65.0923C70.6837 65.1615 70.6987 65.2297 70.7267 65.2931C70.7546 65.3564 70.7949 65.4135 70.8452 65.4611C70.8955 65.5086 70.9548 65.5457 71.0196 65.57L72.0196 65.94C72.4696 66.23 72.1096 66.39 72.1096 66.39C71.2678 66.4601 70.4215 66.4601 69.5796 66.39C69.4515 66.3891 69.3276 66.4356 69.2316 66.5205C69.1357 66.6054 69.0744 66.7227 69.0596 66.85C69.0596 66.85 68.8996 67.25 70.1196 67.44C70.829 67.5184 71.5458 67.4982 72.2496 67.38C71.5002 67.535 70.7334 67.5888 69.9696 67.54C69.2196 67.34 69.2396 67.95 69.2396 67.95C69.3696 68.65 70.7896 68.5 70.7896 68.5C72.0596 68.4 72.5796 68.41 72.5796 68.41L70.5296 68.56C70.5296 68.56 69.8096 68.5 69.7796 68.88C69.8096 68.86 69.6996 69.18 70.1596 69.34Z" fill="#F8B78F"/>
<path d="M94.13 50.03C94.13 50.03 95.55 53.44 91.92 56.77L89.82 58.94C88.7778 58.8301 87.7827 58.4491 86.9335 57.8351C86.0844 57.221 85.4108 56.3953 84.98 55.44C84.98 55.44 90.35 46.74 94.13 50.03Z" fill="#2662A3"/>
<g style="mix-blend-mode:multiply">
<path d="M88.28 56.65C89.84 56.79 91.41 55.41 92.41 54.39C93.4832 53.2091 94.0692 51.6656 94.05 50.07H94.13C94.13 50.07 95.55 53.48 91.92 56.81L89.82 58.98C88.7778 58.8701 87.7827 58.4891 86.9335 57.8751C86.0844 57.261 85.4108 56.4352 84.98 55.48L85.58 54.95C85.8668 55.4239 86.2601 55.8243 86.7289 56.1194C87.1976 56.4145 87.7287 56.5962 88.28 56.65Z" fill="#BCBEC0"/>
</g>
<path d="M51.99 6.85996C54.481 9.63748 56.0922 13.0914 56.6198 16.7848C57.1474 20.4782 56.5678 24.2451 54.9542 27.609C53.3406 30.9728 50.7655 33.7826 47.5547 35.6827C44.344 37.5829 40.6418 38.488 36.9165 38.2837C33.1912 38.0794 29.6102 36.7748 26.6265 34.5349C23.6429 32.295 21.3905 29.2205 20.1545 25.7004C18.9184 22.1802 18.7542 18.3725 19.6826 14.759C20.611 11.1454 22.5902 7.88841 25.37 5.39997C29.0946 2.06569 33.9907 0.346544 38.9822 0.620309C43.9737 0.894074 48.6524 3.13835 51.99 6.85996Z" fill="#EC524F"/>
<g style="mix-blend-mode:soft-light" opacity="0.2">
<path d="M34.8099 4.39997C26.5499 10.81 43.6899 21.28 48.0099 11.88C49.3999 8.87998 46.3399 5.07999 43.5099 4.03999C41.8199 3.41999 37.5099 2.73996 35.9099 3.66996C35.5246 3.88406 35.1568 4.12816 34.8099 4.39997Z" fill="white"/>
</g>
<g style="mix-blend-mode:multiply" opacity="0.5">
<path d="M54.9699 13.9C54.8799 21.07 48.1699 27.65 41.5199 28.85C34.8699 30.05 28.3299 25.63 25.2399 20.03C23.7617 17.613 23.1944 14.7479 23.6399 11.95C24.0599 9.75995 26.0499 4.59995 27.9899 3.38995C27.0615 3.98117 26.185 4.65024 25.3699 5.38995C22.7376 7.73996 20.8175 10.7813 19.8276 14.1682C18.8377 17.5552 18.8179 21.1519 19.7703 24.5496C20.7228 27.9472 22.6093 31.0096 25.2154 33.3885C27.8216 35.7674 31.0429 37.3674 34.5131 38.0068C37.9833 38.6461 41.5633 38.2991 44.8462 37.0052C48.129 35.7112 50.983 33.5223 53.0837 30.6871C55.1845 27.852 56.4478 24.4844 56.7299 20.967C57.0121 17.4497 56.3018 13.9238 54.6799 10.79C54.8739 11.8153 54.971 12.8565 54.9699 13.9Z" fill="#EC524F"/>
</g>
<path d="M40.9096 4.51995C42.4596 4.77995 43.5996 5.73994 43.4396 6.66995C43.2796 7.59995 41.9096 8.12997 40.3496 7.87997C38.7896 7.62997 37.6696 6.65994 37.8196 5.72994C37.9696 4.79994 39.3596 4.26995 40.9096 4.51995Z" fill="white"/>
<path d="M34.49 23.4C34.96 23.94 34.57 25.07 33.6 25.93C32.63 26.79 31.47 27.06 30.99 26.52C30.51 25.98 30.91 24.86 31.87 23.99C32.83 23.12 34.01 22.88 34.49 23.4Z" fill="#F37F8B"/>
<path d="M45.94 13.19C46.42 13.72 46.02 14.86 45.06 15.72C44.1 16.58 42.92 16.84 42.44 16.31C41.96 15.78 42.36 14.64 43.33 13.78C44.3 12.92 45.46 12.65 45.94 13.19Z" fill="#F37F8B"/>
<g style="mix-blend-mode:multiply">
<path d="M32.7496 19.4C33.1678 19.8618 33.4396 20.4372 33.5307 21.0534C33.6219 21.6697 33.5283 22.2992 33.2617 22.8622C32.9951 23.4253 32.5676 23.8966 32.0331 24.2167C31.4987 24.5368 30.8813 24.6913 30.2591 24.6605C29.6369 24.6297 29.0378 24.4152 28.5375 24.0439C28.0372 23.6727 27.6583 23.1614 27.4485 22.5748C27.2388 21.9882 27.2077 21.3526 27.3592 20.7483C27.5107 20.144 27.838 19.5983 28.2996 19.18C28.6062 18.9022 28.9646 18.6875 29.3542 18.5482C29.7437 18.4089 30.157 18.3477 30.5702 18.3682C30.9834 18.3886 31.3886 18.4903 31.7625 18.6673C32.1365 18.8443 32.4719 19.0933 32.7496 19.4Z" fill="#D1D3D4"/>
</g>
<path d="M32.3897 19.7C32.7421 20.0904 32.9707 20.5766 33.0469 21.0969C33.123 21.6173 33.0432 22.1486 32.8174 22.6236C32.5917 23.0986 32.2303 23.4961 31.7787 23.7657C31.3272 24.0354 30.8059 24.1651 30.2806 24.1386C29.7554 24.1121 29.2498 23.9304 28.8278 23.6166C28.4057 23.3028 28.0862 22.871 27.9095 22.3756C27.7328 21.8802 27.7069 21.3436 27.8351 20.8336C27.9633 20.3235 28.2398 19.8629 28.6297 19.51C29.1545 19.0385 29.8444 18.7939 30.5489 18.8295C31.2534 18.8651 31.9152 19.178 32.3897 19.7Z" fill="#5C0027"/>
<path d="M30.7498 21.18C30.9179 21.3748 31.0045 21.627 30.9915 21.884C30.9784 22.141 30.8668 22.3831 30.6798 22.56C30.4855 22.7252 30.2355 22.8099 29.9809 22.7969C29.7262 22.7839 29.4862 22.6741 29.3098 22.49C29.1854 22.4046 29.082 22.2923 29.0072 22.1613C28.9324 22.0304 28.8881 21.8842 28.8778 21.7337C28.8675 21.5833 28.8914 21.4324 28.9476 21.2925C29.0038 21.1525 29.091 21.0271 29.2026 20.9257C29.3141 20.8242 29.4472 20.7492 29.5918 20.7064C29.7364 20.6636 29.8889 20.6541 30.0377 20.6786C30.1865 20.703 30.3279 20.7609 30.4512 20.8477C30.5745 20.9345 30.6766 21.0481 30.7498 21.18Z" fill="white"/>
<path d="M30.9596 19.97C31.0043 20.0146 31.0398 20.0675 31.0641 20.1259C31.0883 20.1842 31.1008 20.2468 31.1008 20.31C31.1008 20.3731 31.0883 20.4357 31.0641 20.494C31.0398 20.5524 31.0043 20.6054 30.9596 20.65C30.9147 20.704 30.8587 20.7477 30.7954 20.7782C30.7321 20.8087 30.663 20.8252 30.5928 20.8267C30.5226 20.8281 30.4528 20.8144 30.3883 20.7865C30.3239 20.7586 30.2661 20.7172 30.2191 20.6651C30.172 20.6129 30.1367 20.5513 30.1155 20.4843C30.0944 20.4173 30.0879 20.3466 30.0964 20.2768C30.105 20.2071 30.1285 20.1401 30.1653 20.0802C30.2021 20.0204 30.2513 19.9691 30.3096 19.93C30.4031 19.8537 30.522 19.8155 30.6424 19.8229C30.7629 19.8303 30.8761 19.8828 30.9596 19.97Z" fill="white"/>
<g style="mix-blend-mode:multiply">
<path d="M38.2499 14.4C38.6672 14.8625 39.2123 15.1909 39.8162 15.3437C40.4201 15.4965 41.0558 15.4668 41.6428 15.2583C42.2298 15.0499 42.7419 14.6721 43.1142 14.1726C43.4865 13.6732 43.7024 13.0746 43.7346 12.4525C43.7667 11.8304 43.6137 11.2127 43.2948 10.6776C42.976 10.1424 42.5056 9.71381 41.9432 9.44595C41.3808 9.1781 40.7516 9.08302 40.1351 9.17273C39.5187 9.26244 38.9427 9.53291 38.4799 9.94995C37.8615 10.5109 37.4902 11.2937 37.4471 12.1275C37.404 12.9613 37.6926 13.7783 38.2499 14.4Z" fill="#D1D3D4"/>
</g>
<path d="M38.62 14.07C38.8504 14.3427 39.1334 14.5663 39.4521 14.7273C39.7708 14.8884 40.1187 14.9836 40.4749 15.0073C40.8312 15.0311 41.1886 14.9828 41.5259 14.8655C41.8631 14.7482 42.1733 14.5642 42.4379 14.3244C42.7025 14.0846 42.9161 13.7941 43.066 13.47C43.2159 13.1459 43.299 12.795 43.3104 12.4381C43.3218 12.0812 43.2613 11.7257 43.1323 11.3927C43.0034 11.0598 42.8087 10.7561 42.56 10.5C42.3295 10.2273 42.0465 10.0037 41.7278 9.84265C41.4091 9.68161 41.0613 9.58639 40.705 9.56265C40.3487 9.53891 39.9913 9.58713 39.6541 9.70446C39.3169 9.82179 39.0067 10.0058 38.7421 10.2456C38.4775 10.4854 38.2639 10.7759 38.114 11.1C37.964 11.424 37.8809 11.775 37.8695 12.1319C37.8581 12.4887 37.9187 12.8443 38.0476 13.1773C38.1766 13.5102 38.3712 13.8139 38.62 14.07Z" fill="#5C0027"/>
<path d="M40.25 12.59C40.4268 12.777 40.6689 12.8886 40.9259 12.9016C41.183 12.9147 41.4351 12.8281 41.63 12.66C41.8141 12.4836 41.9239 12.2435 41.9369 11.9889C41.9499 11.7342 41.8652 11.4842 41.7 11.29C41.5231 11.103 41.281 10.9913 41.024 10.9783C40.767 10.9652 40.5148 11.0518 40.32 11.22C40.1358 11.3964 40.026 11.6364 40.013 11.8911C40 12.1457 40.0848 12.3957 40.25 12.59Z" fill="white"/>
<path d="M39.0199 12.69C39.1129 12.7786 39.2365 12.8281 39.3649 12.8281C39.4934 12.8281 39.6169 12.7786 39.7099 12.69C39.8009 12.5982 39.852 12.4742 39.852 12.345C39.852 12.2158 39.8009 12.0918 39.7099 12C39.6653 11.9553 39.6123 11.9197 39.554 11.8955C39.4957 11.8713 39.4331 11.8588 39.3699 11.8588C39.3067 11.8588 39.2442 11.8713 39.1859 11.8955C39.1275 11.9197 39.0745 11.9553 39.0299 12C38.9376 12.0904 38.8847 12.2137 38.8829 12.3429C38.881 12.4722 38.9303 12.5969 39.0199 12.69Z" fill="white"/>
<path d="M45.74 18.78C46.86 24.02 41.31 28.98 36.23 27.27" stroke="#5C0027" stroke-width="2" stroke-linecap="round" stroke-linejoin="round"/>
</g>
<defs>
<clipPath id="clip0_230_1109">
<rect width="160.78" height="151.4" fill="white"/>
</clipPath>
</defs>
</svg>
