<svg width="160" height="142" viewBox="0 0 160 142" fill="none" xmlns="http://www.w3.org/2000/svg">
<g clip-path="url(#clip0_230_736)">
<path d="M69.5156 26.1713C69.0542 26.4519 68.5666 26.687 68.0597 26.8733C67.9449 25.9584 67.7047 25.0635 67.346 24.2139C67.4165 23.7032 67.3044 23.184 67.0295 22.7477C66.7545 22.3114 66.3343 21.986 65.8429 21.8289C62.8488 20.9501 59.197 23.117 57.0307 25.9604C56.3063 25.4824 55.551 25.0179 54.7674 24.5567C56.8514 21.4291 57.9001 17.6583 57.007 14.1589C55.8912 9.81902 50.0541 5.43726 44.9847 5.1656C44.0188 3.81464 42.0538 3.25536 40.706 4.69624C39.3581 6.13712 38.7402 7.95379 38.1882 9.80996C38.2543 8.60449 38.2885 7.39592 38.2524 6.18487C38.2423 5.98498 38.1624 5.79494 38.0265 5.64789C37.8906 5.50083 37.7074 5.40608 37.5088 5.38017C37.3102 5.35426 37.1089 5.39882 36.9398 5.50609C36.7708 5.61336 36.6448 5.77653 36.5839 5.96715C34.9125 12.307 34.5752 18.9497 33.5544 25.431C33.0303 27.6114 32.5609 29.8119 32.1901 32.0115C31.7123 33.7947 34.3152 34.9509 35.2263 33.2838C35.7731 32.2835 36.3109 31.2754 36.7927 30.2523C39.6021 32.0044 43.7056 31.9244 46.6492 30.993C49.1996 30.1122 51.4731 28.5764 53.2415 26.5397C54.0842 27.0658 54.9057 27.6299 55.7181 28.208C54.637 30.7743 54.9927 33.4034 58.0928 34.6818C60.8396 35.811 64.2952 34.5799 66.2618 32.5021C67.1541 31.5751 67.7572 30.4086 67.9975 29.1447C68.9293 28.7456 69.786 28.1902 70.5305 27.5026C70.6901 27.3625 70.7907 27.1671 70.8118 26.9558C70.8329 26.7445 70.773 26.5331 70.6442 26.3641C70.5154 26.1951 70.3273 26.0813 70.1178 26.0455C69.9084 26.0097 69.6931 26.0547 69.5156 26.1713ZM46.383 25.6848C44.6213 26.1411 40.8277 26.7574 38.9432 25.5917C39.0949 25.2501 39.2428 24.902 39.3944 24.5604C41.4798 23.0386 46.1005 23.5778 47.9166 24.0808C48.3704 24.2024 48.8058 24.3518 49.2384 24.5114C48.3445 25.0305 47.3838 25.4253 46.383 25.6848ZM53.2674 20.1412C52.8128 21.145 52.1827 22.0598 51.4069 22.8426C47.984 21.3412 44.3095 20.4931 40.8116 21.1886C40.9476 20.8646 41.0784 20.5393 41.2172 20.2051C42.0567 18.153 42.815 16.0572 43.577 13.9679C44.2504 12.1278 45.2636 10.1004 45.5172 8.09325C47.4696 8.75031 49.2869 9.75528 50.8811 11.0595C53.9084 13.4051 54.8878 16.5617 53.2674 20.1412ZM66.0238 27.1906L65.8677 27.1816C65.4508 27.14 65.0571 26.9696 64.7415 26.6941C65.0933 26.4826 65.445 26.271 65.7856 26.0401C65.9052 26.4142 65.9851 26.7998 66.0238 27.1906ZM64.6395 31.3575C63.4973 32.5204 58.8079 33.9506 59.6857 31.0622C59.9893 30.0515 61.3416 28.9612 62.3252 28.2474C62.4647 28.4405 62.6239 28.6186 62.8003 28.7788C63.1928 29.1219 63.6503 29.3825 64.1455 29.5453C64.6408 29.708 65.1638 29.7694 65.6832 29.726C65.447 30.3245 65.0946 30.8703 64.6463 31.3321L64.6395 31.3575Z" fill="#004D7B" fill-opacity="0.19"/>
<path d="M130.743 55.2077C127.238 53.8098 127.42 49.5994 128.197 46.5583C129.043 43.2575 130.446 40.062 130.576 36.6184C130.62 35.4344 128.953 34.7036 128.145 35.6175C126.144 37.9286 124.56 40.5694 123.463 43.4224C123.02 43.7756 122.539 44.0789 122.03 44.327C120.992 44.8135 120.15 45.1229 119.116 44.5347C118.082 43.9464 117.754 43.296 118.082 42.0297C118.748 39.5434 121.628 37.8521 123.035 35.7827C124.251 33.9954 122.203 31.0766 120.084 31.9286C118.302 32.7072 116.81 34.0271 115.821 35.7011C114.766 36.0153 113.695 36.2751 112.613 36.4796L112.482 36.4991C112.597 35.8303 112.571 35.1449 112.406 34.4867C112.24 33.8284 111.94 33.2118 111.523 32.6762C111.118 32.1925 110.593 31.8239 110 31.6075C109.899 31.3199 109.736 31.0581 109.523 30.8406C106.05 27.2182 99.1511 31.6548 97.46 35.2535C97.3387 35.51 97.2318 35.773 97.1396 36.0414L96.6431 36.0995C98.3003 31.3831 99.3427 25.7594 97.2836 21.4725C96.4782 19.7878 93.7588 20.2496 93.3534 21.9867C93.0488 23.2866 92.8145 24.6709 92.5989 26.0875C92.267 27.5958 91.6952 29.041 90.9054 30.3682C89.7251 32.2035 85.8891 35.0582 84.1671 32.205C83.1567 30.5308 84.5189 28.302 85.4309 26.8972C86.62 25.0698 87.8633 23.1422 89.189 21.4169C90.0183 20.3613 88.9029 18.6099 87.6359 18.7291C80.4981 19.3448 74.1788 31.4672 82.2303 35.4157C85.5436 37.0407 88.768 36.1627 91.1944 34.0825C90.9298 35.1711 90.5955 36.2416 90.1935 37.2873C87.8681 37.884 85.6197 38.7474 83.493 39.8605C81.541 40.9047 80.0237 42.7534 80.2709 45.0531C80.3634 46.0719 80.8519 47.014 81.6315 47.6772C82.4111 48.3405 83.4197 48.6719 84.4408 48.6004C89.6548 48.4958 93.4857 43.6411 95.3775 39.2934C95.5905 38.8044 95.8093 38.2733 96.023 37.7408C96.2733 37.7041 96.531 37.6803 96.7851 37.6501C96.4245 41.1576 98.6374 44.5846 102.657 44.6133C106.361 44.6391 110.265 42.2833 111.807 38.8739C112.863 38.6469 113.882 38.275 114.836 37.7687C113.88 40.4177 113.962 43.394 115.683 45.6407C117.403 47.8873 120.038 47.9871 122.417 47.0193C122.23 47.9249 122.117 48.8443 122.08 49.7684C121.91 54.4793 125.135 59.4116 130.26 59.2338C132.693 59.1869 132.843 56.0162 130.743 55.2077ZM87.4576 41.9712C86.9238 42.5763 84.7958 44.8894 83.8689 44.5755C82.1821 43.9979 85.3886 41.3513 85.5792 41.2113C86.2491 40.7985 86.9503 40.4386 87.6764 40.135C88.1692 39.9067 88.6733 39.6977 89.1784 39.5054C88.6949 40.3809 88.1194 41.2024 87.4617 41.956L87.4576 41.9712ZM108.269 39.7607C106.829 41.1987 104.197 42.3337 102.272 41.1136C100.049 39.7042 102.144 37.5134 104.469 35.9957C104.96 37.0504 105.801 37.9029 106.85 38.4084C107.507 38.7017 108.2 38.9074 108.91 39.0205C108.716 39.2765 108.505 39.5191 108.278 39.7468L108.269 39.7607ZM106.055 35.0937C106.689 34.7444 107.37 34.4892 108.078 34.3361C108.396 34.2925 108.704 34.1897 108.984 34.0329C109.815 34.4411 110.059 35.6915 109.946 36.6825C108.239 36.5908 106.38 36.2073 106.064 35.0798L106.055 35.0937Z" fill="#004D7B" fill-opacity="0.19"/>
<path d="M123.627 79.9877C121.01 78.3963 118.358 77.2214 116.017 75.1689C114.234 73.6011 112.677 71.7946 111.389 69.8007C112.812 69.5379 114.212 69.1625 115.576 68.6781C118.111 67.7628 122.963 65.7429 122.643 62.3096C122.127 56.891 113.893 61.456 109.82 65.5414C111.11 61.2782 113.173 57.435 114.921 53.2563C115.614 51.6072 114.017 49.0825 112.101 50.4203C106.81 54.1191 103.922 60.7555 102.758 66.9363C102.527 68.1633 102.357 69.3918 102.246 70.6216C101.271 71.8948 99.933 74.0319 98.1983 74.4081C96.0048 74.8852 96.14 72.3003 96.3674 70.7175C96.8879 67.0618 99.0332 63.7868 99.8645 60.1543C100.233 58.5548 98.2974 57.845 97.3283 58.9942C94.4931 56.9512 90.3908 57.8015 87.6529 59.6781C85.6524 61.026 83.4825 63.6992 83.3132 66.3296C82.5546 66.9866 81.7254 67.5574 80.8407 68.0316C79.1731 68.9117 76.1326 70.2048 74.3559 69.0243C72.9374 68.0982 73.1854 66.581 74.0478 65.0756C76.2266 65.1765 78.4052 64.8774 80.4757 64.1932C86.3191 62.0456 85.4885 53.6429 78.7035 54.2877C74.7755 54.6713 70.6793 57.9259 69.0277 61.8465L68.0941 61.782C68.8062 60.1928 68.949 58.4069 68.4984 56.7245C67.0733 51.5809 62.7043 51.5297 59.1778 53.6373C59.2653 52.9467 59.311 52.2514 59.3149 51.5553C59.3251 49.1717 56.3832 48.7711 55.1544 50.4405C54.4582 51.3986 53.8519 52.4188 53.3432 53.4883C50.778 53.2438 48.1929 53.3064 45.6428 53.6747C45.449 52.9094 45.1841 52.1638 44.8515 51.4477C43.5342 48.5937 37.2817 43.8658 39.6563 40.4284C41.9482 37.1163 49.0407 40.3 50.088 43.2236C50.1376 43.3796 50.2406 43.5133 50.379 43.601C50.5173 43.6887 50.6822 43.7249 50.8446 43.7033C51.0069 43.6816 51.1564 43.6034 51.2668 43.4825C51.3772 43.3615 51.4414 43.2056 51.4482 43.042C51.4866 37.6571 44.5998 34.807 40.0143 36.1558C38.759 36.5132 37.6526 37.2656 36.8592 38.3013C36.0659 39.3371 35.6279 40.6009 35.6102 41.9053C35.5236 45.4917 37.8666 48.0253 39.8495 50.7409C40.6695 51.8576 41.3018 53.1005 41.7215 54.4206C38.0489 55.2957 34.5562 56.8005 31.3984 58.8681C28.9756 60.507 27.4061 63.8762 29.6731 66.3676C31.7787 68.7065 35.8144 68.7776 38.5727 67.8239C42.8504 66.3599 45.3715 62.6614 45.9094 58.5735C47.7514 58.368 49.5797 58.2955 51.464 58.2379C50.8757 59.9642 50.3514 61.6968 49.8024 63.2971C48.3619 67.5309 46.6607 71.7385 46.9318 76.2944C47.0905 78.9854 51.4626 79.9221 51.9298 76.9346C52.2491 74.9069 53.2691 73.1597 53.9694 71.2395C54.4335 69.9769 54.8581 68.6981 55.2789 67.413C56.0178 67.996 56.917 68.3398 57.8565 68.3985C60.9495 68.643 64.2431 66.9972 66.4087 64.5031L68.3196 64.6929C68.1778 66.1353 68.4521 67.5883 69.1103 68.8802C72.1601 74.8741 79.415 72.7608 84.2695 69.409C85.8738 71.2532 88.9306 70.3685 90.9738 69.2286C91.3344 69.0249 91.6774 68.8055 92.0166 68.5797C91.0598 71.2121 90.8827 73.9332 92.5809 76.6708C94.9607 80.5358 99.1616 79.6027 102.317 77.2099C102.596 80.2445 102.998 83.6395 104.872 86.0257C106.45 88.032 109.106 86.1335 109.316 84.1858C109.585 81.6965 108.559 78.9755 108.487 76.4331C108.445 74.9429 108.495 73.4517 108.634 71.9675C110.775 77.4175 117.035 82.5026 122.034 83.9348C124.342 84.5806 125.681 81.2369 123.627 79.9877ZM78.3043 60.4277C78.8334 60.0234 79.6958 59.1296 80.4252 59.0793C81.9107 58.9804 80.9198 60.4351 80.1795 60.9138C79.0941 61.5286 77.8771 61.8747 76.6303 61.9232C77.1623 61.3965 77.7211 60.8973 78.3043 60.4277ZM41.3756 60.504C40.5865 62.1113 39.2129 63.3567 37.5356 63.9856C36.6699 64.2997 32.3804 65.0944 32.6619 63.1056C32.8287 61.9326 36.3119 60.9656 37.202 60.6416C38.7193 60.0977 40.2677 59.6446 41.8389 59.2848C41.7211 59.7042 41.5661 60.1122 41.3756 60.504ZM58.0973 64.93C57.9154 63.9365 59.6424 64.1808 60.4121 64.1632C61.0371 64.1559 61.6565 64.169 62.2797 64.1885C60.8689 65.0282 58.3398 66.2072 58.0973 64.93ZM65.0095 61.5671C63.9009 61.483 62.7895 61.4091 61.675 61.3671C60.2841 61.3166 58.5751 61.23 57.1252 61.6443C57.6265 60.1404 58.1126 58.6324 58.4966 57.0971C59.0676 56.6635 59.6736 56.2779 60.3083 55.9443C62.7314 54.6714 66.0804 55.0008 66.0609 58.4795C66.0204 59.5823 65.6567 60.6489 65.015 61.5467L65.0095 61.5671ZM93.0069 64.3127C92.1886 65.1646 91.2795 65.9244 90.2958 66.5787C89.5814 67.0426 86.9438 68.2798 88.39 66.696C90.1491 64.7811 92.3023 63.7198 94.4913 62.6681C94.0171 63.2346 93.5382 63.7779 93.0277 64.2964L93.0069 64.3127Z" fill="#004D7B" fill-opacity="0.19"/>
<path d="M116.504 125.112C113.056 122.97 116.579 115.674 117.872 113.034C119.076 110.577 121.397 105.241 117.723 103.656C114.591 102.314 110.916 104.3 108.735 106.446C108.46 106.716 108.167 107.015 107.862 107.337C108.049 106.088 108.242 104.84 108.471 103.618C112.18 100.909 117.985 95.0491 115.398 90.1839C114.864 89.2004 113.968 88.4627 112.9 88.1266C111.832 87.7904 110.675 87.8821 109.673 88.3823C106.785 89.6997 105.002 92.9681 103.929 95.7878C102.829 98.9143 102.041 102.142 101.577 105.424C100.488 105.918 99.3855 106.382 98.2974 106.833C98.0256 105.57 97.5465 104.36 96.8795 103.253C95.9399 101.862 94.6881 100.709 93.2239 99.8872C93.5528 97.7419 92.7974 95.3607 90.6594 94.4274C87.9648 93.2467 86.684 95.967 87.6517 98.2085C88.2361 99.4222 89.0978 100.482 90.1672 101.302C89.4206 102.583 88.4378 103.711 87.2708 104.627C85.3717 106.187 77.2085 111.017 77.6105 105.56C77.8553 102.24 81.1884 99.835 83.0178 97.3109C84.1815 95.7005 82.2356 93.1532 80.3608 93.8686C76.4517 95.344 74.0656 99.0077 73.0514 103.017L72.9817 103.277C72.1335 104.852 70.9401 106.552 69.5255 107.08C68.9119 107.33 69.2972 107.565 68.699 107.044C68.5073 106.644 68.3784 106.217 68.3168 105.779C68.1686 104.905 68.1657 104.013 68.3083 103.139C68.5474 101.625 68.8949 100.13 69.3481 98.6665C70.2398 98.0918 71.0986 97.4973 71.9081 96.8624C75.5844 93.9921 78.0224 90.3588 79.8159 86.0721C81.0282 83.1588 82.7003 77.469 77.7576 76.9691C73.4999 76.5436 69.6973 82.0066 67.9084 85.175C65.4491 89.5376 63.8003 94.3092 63.0416 99.2592C62.9981 99.5643 62.9621 99.8823 62.927 100.217C62.3113 100.598 61.6972 100.952 61.0753 101.315C61.6986 97.2557 62.2414 93.109 61.9779 89.0958C61.9664 88.8142 61.8617 88.5443 61.6801 88.3286C61.4986 88.1129 61.2504 87.9636 60.9747 87.9041C60.9578 87.4671 60.7826 87.0511 60.4817 86.7334C60.1808 86.4157 59.7748 86.218 59.3391 86.1771C55.2887 85.4468 51.2369 86.4963 48.8376 90.1073C47.6727 91.8647 46.4527 94.929 46.7335 97.3687C45.1846 98.5823 43.5295 99.6539 41.788 100.57C40.9723 101.076 40.0611 101.408 39.1112 101.546C39.1484 101.41 39.1951 101.276 39.251 101.147C39.4583 100.618 39.5982 100.055 39.812 99.5222C41.5934 95.0358 45.6964 90.0628 45.1784 84.9602C44.8171 81.4341 40.9414 80.2154 38.0213 81.7319C36.5468 82.5718 35.2716 83.7203 34.283 85.0988C34.5292 83.2973 34.4805 81.4676 34.1389 79.6814C33.8783 78.4922 32.7753 78.2239 31.8505 78.5549C31.4965 78.4893 31.131 78.5306 30.8006 78.6735C30.4703 78.8165 30.1901 79.0547 29.996 79.3577C26.2986 84.6522 20.414 90.2781 13.7272 91.2496C8.97983 91.9379 11.015 87.2792 12.9106 85.1605C15.3488 82.4445 18.9403 83.0519 22.1072 82.164C24.4199 81.5277 24.1063 77.5993 21.6534 77.7394C20.9962 77.6081 20.3307 77.5228 19.6616 77.4842C16.2245 76.2192 12.4278 71.1773 16.374 69.0128C19.6197 67.2395 24.5817 69.1971 26.3375 72.1685C26.9352 73.1806 28.2887 72.473 28.1219 71.4235C27.2619 65.8634 17.9705 64.0946 14.0571 67.1361C11.7535 68.9215 11.2133 71.8348 12.4105 74.4436C13.0452 75.7695 13.9418 76.9534 15.0464 77.924C12.3437 78.5335 9.89655 79.9647 8.04133 82.021C4.78332 85.8387 2.662 92.5931 7.90861 95.8338C12.5766 98.6845 18.7222 95.919 22.7794 93.1563C24.2708 92.1358 25.66 90.9737 26.9279 89.6864C26.594 91.0549 26.412 92.4478 26.7852 93.5635C27.3679 95.325 28.8999 96.0523 30.6725 95.7791L30.815 95.7572C32.1089 95.5579 33.0931 94.0468 33.0573 92.7322C33.0846 92.6303 33.1058 92.5103 33.1209 92.3724C34.209 90.6162 35.1768 88.7786 36.3206 87.0591C37.0044 85.9817 37.8428 85.0104 38.8089 84.1764C39.1237 83.9007 39.4639 83.6555 39.8249 83.4439L42.0479 84.0395C42.2343 84.3024 41.8637 85.339 41.7641 85.629C40.8929 88.1259 38.9567 90.2938 37.6125 92.5165C36.2683 94.7393 34.8554 97.2385 34.1116 99.7696C32.908 103.854 35.9075 107.792 40.3188 106.604C43.7023 105.53 46.6566 103.409 48.7559 100.548C50.8237 101.621 53.3585 99.8701 55.1009 98.5677C55.7148 98.1109 56.2894 97.6036 56.8188 97.0512C56.2212 99.5669 55.7206 102.108 55.1594 104.59C55.1212 104.733 55.083 104.875 55.0447 105.018C54.0802 105.661 53.1357 106.33 52.2237 107.042C49.5503 109.127 45.9176 112.222 45.971 115.938C46.0571 120.532 51.0122 120.516 53.9501 118.546C58.1765 115.703 59.6666 110.794 60.3651 105.985C60.4777 105.218 60.5982 104.442 60.72 103.661C61.4093 103.251 62.1124 102.849 62.8194 102.454C62.8154 105.997 63.7042 109.981 67.0692 111.271C69.6073 112.24 71.8931 110.603 73.6409 108.363C74.2669 109.426 75.2657 110.219 76.4436 110.588C79.836 111.694 84.0041 109.66 86.8673 107.948C89.0082 106.748 90.8065 105.021 92.0913 102.931C93.0686 103.71 93.8704 104.686 94.4443 105.795C94.7827 106.516 95.0211 107.28 95.1529 108.065C92.1053 109.242 88.9303 110.69 88.3831 114.18C88.357 114.326 88.3597 114.475 88.3911 114.619C88.3193 114.983 88.32 115.358 88.3933 115.721C88.4665 116.085 88.6109 116.43 88.8181 116.738C90.144 118.764 93.0354 118.742 94.91 117.578C97.7858 115.799 98.8243 112.249 98.5752 108.835L99.1875 108.59C99.8592 108.305 100.527 108.015 101.186 107.716C100.603 111.219 100.02 115.005 100.292 118.48C100.339 119.084 100.594 119.653 101.012 120.092C101.43 120.53 101.986 120.812 102.587 120.889C103.188 120.966 103.798 120.834 104.313 120.515C104.828 120.196 105.218 119.71 105.416 119.138C106.185 116.861 106.755 114.521 107.12 112.146C107.237 111.953 107.361 111.757 107.493 111.569C108.693 109.864 110.113 108.033 111.874 106.867C112.459 106.477 114.81 105.125 115.581 105.676C115.988 105.97 115.424 106.546 115.087 107.089C113.981 108.873 112.632 110.499 111.585 112.327C109.63 115.751 108.45 119.765 108.843 123.725C109.186 127.176 111.858 131.255 115.863 129.871C116.348 129.725 116.781 129.443 117.11 129.058C117.438 128.672 117.649 128.2 117.717 127.699C117.785 127.197 117.706 126.686 117.491 126.227C117.276 125.768 116.933 125.381 116.504 125.112ZM72.2503 90.9964C73.0734 89.1176 74.0068 87.289 75.0456 85.5202C75.5837 84.5722 76.1559 83.6607 76.7168 82.7298C77.6813 81.1698 78.8406 80.2081 78.1353 83.3501C77.1391 87.7412 74.0528 91.8562 70.6995 94.7856C71.2142 93.4764 71.736 92.202 72.2503 90.9964ZM57.7376 93.5405C57.3201 94.1023 56.8682 94.6377 56.3845 95.1438C55.94 95.6199 51.6384 99.6003 50.9797 97.7146C50.5105 96.3657 53.3456 93.7998 54.1141 93.0938C55.3371 91.9962 57.0427 90.8314 58.7059 90.5999C58.3452 91.579 58.0293 92.5538 57.7376 93.5405ZM52.8517 111.775C52.2519 112.81 51.4929 113.95 50.4012 114.537C49.6416 114.945 49.7256 115.284 50.4034 114.101C50.8662 113.291 51.0634 112.372 51.5915 111.563C52.3514 110.408 53.2384 109.341 54.2359 108.384C53.9211 109.568 53.4614 110.708 52.867 111.779L52.8517 111.775ZM90.3314 97.9764C88.7229 97.1813 88.7655 96.4992 90.459 95.93L91.016 97.5427C91.0599 97.8544 91.0688 98.17 91.0425 98.4836C90.8173 98.325 90.5832 98.1585 90.3467 97.9805L90.3314 97.9764ZM93.5208 114.503C93.2772 114.818 92.9495 115.057 92.5754 115.194C92.2014 115.33 91.7963 115.358 91.4069 115.275C91.1821 115.219 90.9768 115.103 90.8136 114.939C90.6503 114.775 90.5354 114.569 90.4814 114.344C91.3758 112.454 93.2546 111.194 95.2615 110.23C95.2318 110.681 95.1648 111.129 95.0613 111.569C94.8292 112.668 94.302 113.684 93.5361 114.507L93.5208 114.503ZM111.482 92.2145C112.072 91.8918 112.594 92.9602 112.673 93.6256C112.811 94.9241 111.778 96.7004 111.161 97.7583C110.593 98.7265 109.913 99.6238 109.133 100.431C109.649 98.2214 110.236 96.0306 110.894 93.8589C111.033 93.5248 111.151 92.4098 111.498 92.2186L111.482 92.2145Z" fill="#004D7B" fill-opacity="0.19"/>
<path d="M141.787 99.914C141.014 92.0893 130.017 93.8115 126.557 98.5036C125.785 99.5525 127.261 100.876 128.276 100.247C130.123 99.1042 131.985 98.2542 134.197 98.3392C136.41 98.4241 138.196 99.2413 137.152 101.73C135.894 104.735 131.869 106.867 128.738 105.701C127.25 105.138 125.391 106.628 125.535 108.174C125.81 110.297 125.605 112.456 124.935 114.489C123.542 118.364 130.033 120.224 131.191 116.166C131.736 114.384 131.885 112.504 131.629 110.658C133.715 110.451 135.707 109.688 137.396 108.447C140.068 106.47 142.135 103.284 141.787 99.914Z" fill="#004D7B" fill-opacity="0.19"/>
<path d="M130.34 121.218C129.866 120.745 129.244 120.447 128.577 120.374C127.928 120.295 127.271 120.419 126.696 120.728C126.631 120.751 126.571 120.787 126.52 120.833C126.328 120.933 126.152 121.061 125.997 121.212C125.563 121.396 125.174 121.674 124.86 122.026C124.545 122.378 124.313 122.795 124.179 123.248C124.061 123.702 124.041 124.177 124.12 124.64C124.198 125.103 124.373 125.545 124.633 125.936C124.916 126.396 125.298 126.786 125.752 127.078C126.206 127.371 126.719 127.558 127.254 127.626C127.79 127.694 128.334 127.641 128.846 127.471C129.358 127.302 129.825 127.019 130.214 126.645C130.943 125.938 131.365 124.973 131.388 123.958C131.412 122.943 131.035 121.959 130.34 121.218Z" fill="#004D7B" fill-opacity="0.19"/>
<path d="M90.1228 89.5983C90.1079 88.7979 89.7839 88.034 89.2185 87.4666C88.6925 86.9528 88.0107 86.6279 87.2801 86.5431C86.8735 86.4616 86.4531 86.4822 86.0564 86.603C85.8099 86.6749 85.5715 86.7721 85.3449 86.8928C84.9436 87.1565 84.6007 87.4995 84.3371 87.9006C84.0936 88.32 83.9659 88.7964 83.9671 89.2813C83.9717 89.5217 84.0069 89.7605 84.0718 89.992C84.1008 90.6768 84.3711 91.3295 84.8349 91.8347C85.4073 92.4063 86.1815 92.7303 86.9905 92.7366C87.7995 92.7429 88.5785 92.4311 89.1593 91.8685C89.4638 91.5738 89.706 91.2211 89.8715 90.8311C90.037 90.4412 90.1224 90.022 90.1228 89.5983Z" fill="#004D7B" fill-opacity="0.19"/>
</g>
<defs>
<clipPath id="clip0_230_736">
<rect width="135.719" height="110.346" fill="white" transform="translate(28.5596) rotate(15)"/>
</clipPath>
</defs>
</svg>
