<svg width="78" height="83" viewBox="0 0 78 83" fill="none" xmlns="http://www.w3.org/2000/svg">
<g clip-path="url(#clip0_230_1007)">
<path d="M5.71524 69.5021C5.70112 69.8281 5.67504 70.1649 5.63918 70.5126C5.60333 70.8603 5.55552 71.1863 5.49793 71.4905H5.05245L4.55264 70.2084H2.52079V72.8704H3.84638L4.32446 72.0338H4.67216C4.70801 72.3891 4.72648 72.7835 4.72648 73.2181C4.72648 73.6527 4.70801 74.058 4.67216 74.435H4.32446L3.84638 73.5767H2.52079V76.4017H4.63956L5.21543 75.0218H5.66091C5.69025 75.1598 5.7185 75.3151 5.74784 75.489C5.77717 75.6628 5.79891 75.8443 5.81303 76.0323C5.83476 76.2137 5.84889 76.3984 5.85649 76.5864C5.87062 76.7744 5.87822 76.9482 5.87822 77.1079H0V76.6951C0.12278 76.6299 0.260771 76.5679 0.412888 76.5103C0.565005 76.4528 0.724727 76.4093 0.890969 76.38V70.2301C0.746458 70.2008 0.589995 70.1617 0.423754 70.1106C0.264031 70.053 0.12278 69.9878 0 69.915V69.5021H5.71524ZM11.6641 69.5021H14.3587V69.915C14.2207 70.0237 14.0686 70.1214 13.9024 70.2084C13.7361 70.2877 13.5797 70.3496 13.4352 70.3931V77.2383H12.5116L8.67608 71.6969L8.24146 70.8603H8.20887L8.30666 71.7295V76.2604C8.45117 76.2963 8.61089 76.3582 8.78474 76.4452C8.96619 76.5245 9.11831 76.6081 9.24109 76.6951V77.1079H6.55732V76.6951C6.6877 76.6081 6.82895 76.5288 6.98107 76.456C7.14079 76.3767 7.30377 76.3115 7.47002 76.2604V70.3279C7.3255 70.2703 7.17991 70.2051 7.0354 70.1323C6.89089 70.0595 6.7605 69.9835 6.64424 69.9041V69.5021H8.99118L12.1096 74.0222L12.6094 74.9566H12.6528L12.5985 74.0222V70.3931C12.4247 70.3355 12.2541 70.266 12.0878 70.1866C11.9281 70.0997 11.7869 70.0095 11.6641 69.915V69.5021ZM21.4843 76.6299C21.3398 76.7027 21.1616 76.7744 20.9519 76.8472C20.7422 76.92 20.5205 76.9852 20.2891 77.0428C20.0577 77.1003 19.8252 77.1482 19.5937 77.184C19.3623 77.2199 19.1558 77.2383 18.9744 77.2383C18.3518 77.2383 17.7933 77.159 17.3011 76.9993C16.8154 76.8331 16.3993 76.5864 16.0516 76.2604C15.7115 75.9269 15.4507 75.514 15.2693 75.0218C15.0878 74.5296 14.9976 73.957 14.9976 73.305C14.9976 72.5955 15.1063 71.9936 15.3236 71.5014C15.5485 71.0016 15.8419 70.5963 16.2037 70.2844C16.5731 69.9661 16.9893 69.7336 17.4532 69.589C17.9172 69.4445 18.3909 69.3717 18.8766 69.3717C19.3623 69.3717 19.8034 69.4043 20.2239 69.4695C20.6444 69.5347 20.9769 69.6292 21.2235 69.752C21.2235 69.8607 21.2159 70.0019 21.2018 70.1758C21.1942 70.342 21.1801 70.5235 21.1583 70.719C21.1366 70.9146 21.1073 71.1102 21.0714 71.3058C21.0421 71.5014 21.0062 71.6785 20.9628 71.8382H20.5173L19.9088 70.1866C19.8295 70.1508 19.71 70.1247 19.5503 70.1106C19.3905 70.0889 19.2319 70.078 19.0722 70.078C18.7755 70.078 18.4887 70.1356 18.2138 70.2518C17.9389 70.3681 17.6955 70.5561 17.4858 70.8168C17.2761 71.07 17.1088 71.4036 16.986 71.8165C16.8632 72.2217 16.8013 72.7183 16.8013 73.305C16.8013 73.7831 16.8556 74.221 16.9643 74.6198C17.0805 75.0109 17.2392 75.3477 17.4424 75.6302C17.6455 75.9127 17.8878 76.1333 18.1703 76.293C18.4528 76.4528 18.7647 76.5321 19.1048 76.5321C19.2134 76.5321 19.3253 76.5245 19.4416 76.5103C19.5579 76.4886 19.6665 76.4636 19.7676 76.4343C19.8686 76.405 19.9555 76.3724 20.0283 76.3365C20.1077 76.3006 20.162 76.268 20.1913 76.2387V74.196C20.0033 74.1819 19.8251 74.1449 19.6589 74.0873C19.4927 74.0298 19.3362 73.9602 19.1917 73.8809V73.468H22.158V73.8809C22.0928 73.9461 22.0059 74.008 21.8972 74.0656C21.7885 74.1167 21.6505 74.1601 21.4843 74.196V76.6299ZM22.4948 69.5021H26.0587V69.915C25.9066 69.9943 25.736 70.0639 25.548 70.1214C25.3665 70.1725 25.1894 70.2084 25.0156 70.2301V76.4017H27.1126L27.8406 74.4568H28.2861C28.3154 74.623 28.3404 74.8186 28.3622 75.0435C28.3915 75.2684 28.4132 75.5031 28.4273 75.7498C28.4415 75.9964 28.4523 76.2387 28.4599 76.4778C28.4676 76.7168 28.4676 76.9265 28.4599 77.1079H22.4948V76.6951C22.661 76.6081 22.8175 76.5397 22.962 76.4886C23.1141 76.4376 23.2554 76.4017 23.3858 76.38V70.2301C23.0305 70.1725 22.7338 70.0671 22.4948 69.915V69.5021ZM32.3281 77.1079H28.938V76.6951C29.2281 76.5353 29.5215 76.431 29.8181 76.38V70.2301C29.6736 70.2084 29.5215 70.1682 29.3618 70.1106C29.2021 70.053 29.0608 69.9878 28.938 69.915V69.5021H32.3281V69.915C32.1977 69.9943 32.0532 70.0639 31.8934 70.1214C31.7413 70.1725 31.5925 70.2084 31.448 70.2301V76.38C31.5925 76.4093 31.7413 76.4484 31.8934 76.4995C32.0532 76.5506 32.1977 76.6157 32.3281 76.6951V77.1079ZM34.361 76.2061C34.4403 76.2854 34.5533 76.3615 34.6978 76.4343C34.8423 76.4995 35.0346 76.5321 35.2737 76.5321C35.6725 76.5321 36.0017 76.431 36.2624 76.2278C36.5308 76.0181 36.6645 75.728 36.6645 75.3586C36.6645 75.0902 36.5775 74.8664 36.4037 74.6849C36.2375 74.5035 36.0234 74.3373 35.7626 74.1851C35.5019 74.033 35.2226 73.8842 34.926 73.7397C34.6294 73.5875 34.3501 73.4104 34.0893 73.2072C33.8286 73.0041 33.6113 72.765 33.4374 72.4901C33.2712 72.2076 33.1875 71.8599 33.1875 71.447C33.1875 71.0917 33.2527 70.7842 33.3831 70.5235C33.5135 70.2627 33.6906 70.0486 33.9155 69.8824C34.1469 69.7086 34.4186 69.5814 34.7304 69.5021C35.0423 69.4152 35.3791 69.3717 35.7409 69.3717C36.1831 69.3717 36.5917 69.4043 36.9687 69.4695C37.3523 69.5271 37.6967 69.6216 38.0009 69.752C37.9933 69.8965 37.9792 70.0639 37.9575 70.2518C37.9433 70.4398 37.9216 70.6289 37.8923 70.8168C37.8629 70.9983 37.8303 71.1721 37.7945 71.3384C37.7651 71.4981 37.7369 71.6318 37.7076 71.7404H37.2621L36.7623 70.2518C36.6753 70.2084 36.5449 70.1682 36.3711 70.1323C36.2049 70.0965 36.031 70.078 35.8496 70.078C35.5453 70.078 35.2878 70.1573 35.0781 70.317C34.8684 70.4767 34.763 70.7082 34.763 71.0124C34.763 71.2873 34.8499 71.5231 35.0238 71.7187C35.1976 71.9066 35.4149 72.0805 35.6757 72.2402C35.9365 72.3999 36.219 72.5586 36.5232 72.7183C36.8351 72.8704 37.1208 73.0475 37.3816 73.2507C37.6424 73.4539 37.8597 73.6929 38.0335 73.9678C38.2074 74.2362 38.2943 74.5687 38.2943 74.9675C38.2943 75.6922 38.0476 76.2528 37.5554 76.6516C37.0698 77.0428 36.3526 77.2383 35.4041 77.2383C35.1726 77.2383 34.9369 77.2242 34.6978 77.1949C34.4664 77.1655 34.2447 77.1264 34.035 77.0754C33.8253 77.0243 33.6363 76.97 33.47 76.9124C33.3103 76.8548 33.1908 76.7929 33.1115 76.7277C33.1191 76.5614 33.1364 76.3832 33.1658 76.1953C33.1951 75.9997 33.2234 75.8074 33.2527 75.6194C33.2886 75.4238 33.3255 75.2391 33.3614 75.0652C33.3972 74.8914 33.4342 74.7393 33.47 74.6089H33.9155L34.361 76.2061ZM42.2232 77.1079H38.931V76.6951C39.0538 76.6299 39.195 76.5679 39.3548 76.5103C39.521 76.4528 39.6775 76.4093 39.822 76.38V70.2301C39.6481 70.2008 39.4819 70.1573 39.3222 70.0997C39.1624 70.0421 39.0321 69.9802 38.931 69.915V69.5021H42.2232V69.915C42.1146 69.9878 41.9918 70.053 41.8538 70.1106C41.7234 70.1682 41.5898 70.2084 41.4518 70.2301V72.8596H44.3311V70.2301C44.1714 70.2008 44.0269 70.1573 43.8965 70.0997C43.7737 70.0421 43.6607 69.9802 43.5597 69.915V69.5021H46.8519V69.915C46.7292 69.9943 46.5879 70.0595 46.4282 70.1106C46.2685 70.1617 46.1131 70.2008 45.961 70.2301V76.38C46.1272 76.4093 46.2869 76.4528 46.4391 76.5103C46.5988 76.5679 46.7357 76.6299 46.8519 76.6951V77.1079H43.5597V76.6951C43.6684 76.6299 43.7879 76.5679 43.9183 76.5103C44.0486 76.4528 44.1866 76.4093 44.3311 76.38V73.5658H41.4518V76.38C41.5963 76.4093 41.731 76.4484 41.8538 76.4995C41.9766 76.5506 42.1005 76.6157 42.2232 76.6951V77.1079ZM55.8605 74.8262H56.306C56.3353 74.9425 56.3603 75.0837 56.382 75.25C56.4114 75.4097 56.4331 75.5835 56.4472 75.7715C56.469 75.953 56.4831 76.1333 56.4907 76.3148C56.4983 76.4962 56.5016 76.6592 56.5016 76.8037C56.2484 76.9634 55.929 77.0754 55.5454 77.1406C55.1684 77.2057 54.7816 77.2383 54.3828 77.2383C53.7819 77.2383 53.2343 77.1655 52.7421 77.021C52.2564 76.8689 51.8403 76.6331 51.4926 76.3148C51.1525 75.9888 50.8874 75.5792 50.6994 75.087C50.5114 74.5872 50.4169 73.9896 50.4169 73.2942C50.4169 72.5988 50.518 72.0153 50.7211 71.5231C50.9308 71.0233 51.2101 70.6137 51.5578 70.2953C51.9055 69.9769 52.3075 69.7444 52.7638 69.5999C53.2278 69.4478 53.7124 69.3717 54.2198 69.3717C54.6979 69.3717 55.1293 69.4076 55.5128 69.4804C55.904 69.5456 56.2223 69.6358 56.469 69.752C56.469 69.8683 56.4614 70.0161 56.4472 70.1975C56.4396 70.379 56.4223 70.5702 56.3929 70.7734C56.3712 70.969 56.3418 71.1645 56.306 71.3601C56.2767 71.5481 56.2484 71.7078 56.2191 71.8382H55.7627L55.1651 70.1975C55.0999 70.1617 54.9945 70.1323 54.85 70.1106C54.7055 70.0889 54.5566 70.078 54.4045 70.078C54.1079 70.078 53.8287 70.1399 53.5679 70.2627C53.3071 70.379 53.0757 70.5669 52.8725 70.8277C52.6693 71.0885 52.5107 71.4253 52.3944 71.8382C52.2782 72.2435 52.2206 72.7324 52.2206 73.305C52.2206 74.3405 52.427 75.138 52.8399 75.6954C53.2528 76.2528 53.8145 76.5321 54.5241 76.5321C54.7272 76.5321 54.8967 76.518 55.0347 76.4886C55.1792 76.4528 55.277 76.405 55.3281 76.3474L55.8605 74.8262ZM57.1568 69.5021H60.5033V69.915C60.2643 70.0671 59.9894 70.1725 59.6775 70.2301V74.4133C59.6775 74.7686 59.7178 75.0652 59.7971 75.3043C59.8764 75.5433 59.9926 75.7389 60.1448 75.891C60.2969 76.0355 60.4783 76.1409 60.688 76.2061C60.9053 76.2713 61.1476 76.3039 61.416 76.3039C61.6551 76.3039 61.8724 76.2713 62.068 76.2061C62.2711 76.1333 62.445 76.0214 62.5895 75.8693C62.7416 75.7172 62.8579 75.5183 62.9372 75.2717C63.0165 75.025 63.0567 74.7208 63.0567 74.359V70.2844C62.8905 70.2486 62.7166 70.1975 62.5352 70.1323C62.3613 70.0671 62.2168 69.9943 62.1005 69.915V69.5021H64.7952V69.915C64.6648 70.0095 64.5203 70.0856 64.3606 70.1432C64.2008 70.2008 64.0455 70.2486 63.8934 70.2844V74.3699C63.8934 75.2967 63.6467 76.0029 63.1545 76.4886C62.6688 76.9667 61.981 77.2057 61.0901 77.2057C60.1198 77.2057 59.3701 76.9884 58.8409 76.5538C58.3118 76.1192 58.0477 75.4238 58.0477 74.4676V70.2301C57.9032 70.2084 57.7511 70.1725 57.5914 70.1214C57.4317 70.0639 57.2871 69.9943 57.1568 69.915V69.5021ZM65.0647 77.1079V76.6951C65.2026 76.6157 65.3472 76.5462 65.4993 76.4886C65.659 76.431 65.8111 76.3941 65.9556 76.38V70.2301C65.8111 70.2008 65.659 70.1617 65.4993 70.1106C65.3395 70.053 65.195 69.9878 65.0647 69.915V69.5021H66.814C67.0889 69.5021 67.3497 69.4913 67.5963 69.4695C67.843 69.4478 68.1255 69.4369 68.4438 69.4369C68.7915 69.4369 69.1283 69.4619 69.4543 69.513C69.7803 69.5641 70.0704 69.6542 70.3235 69.7846C70.5767 69.915 70.7799 70.0997 70.932 70.3388C71.0841 70.5702 71.1602 70.8712 71.1602 71.2406C71.1602 71.472 71.1167 71.6893 71.0298 71.8925C70.9505 72.0881 70.8342 72.262 70.6821 72.4141C70.5376 72.5662 70.3637 72.6933 70.1606 72.7944C69.965 72.8954 69.7509 72.9682 69.5195 73.0117V73.0551C69.7509 73.0845 69.9835 73.1388 70.2149 73.2181C70.4539 73.2974 70.668 73.4137 70.856 73.5658C71.0439 73.7179 71.196 73.9102 71.3123 74.1417C71.4351 74.3666 71.497 74.6339 71.497 74.9457C71.497 75.3369 71.4101 75.6737 71.2362 75.9562C71.0624 76.2387 70.8266 76.4702 70.53 76.6516C70.2399 76.8331 69.9074 76.9667 69.5304 77.0536C69.1533 77.1329 68.7622 77.1731 68.3569 77.1731C68.2048 77.1731 68.0385 77.1699 67.8571 77.1623C67.6756 77.1547 67.4953 77.1482 67.3138 77.1406C67.1324 77.1329 66.9552 77.1264 66.7814 77.1188C66.6152 77.1112 66.4739 77.1079 66.3576 77.1079H65.0647ZM68.346 76.4669C68.8024 76.4669 69.1609 76.3332 69.4217 76.0649C69.6825 75.79 69.8129 75.4271 69.8129 74.9783C69.8129 74.7034 69.7694 74.4785 69.6825 74.3047C69.5956 74.1232 69.476 73.982 69.3239 73.8809C69.1718 73.7723 68.9904 73.6995 68.7806 73.6636C68.5709 73.6201 68.3428 73.5984 68.0961 73.5984H67.5202V76.3908C67.6213 76.4126 67.7267 76.431 67.8353 76.4452C67.9516 76.4593 68.1211 76.4669 68.346 76.4669ZM67.8679 72.8921C67.9907 72.8921 68.1146 72.8889 68.2374 72.8813C68.3602 72.8672 68.4764 72.8519 68.5851 72.8378C68.8676 72.7216 69.0957 72.5445 69.2696 72.3054C69.4434 72.0588 69.5304 71.7806 69.5304 71.4688C69.5304 71.0124 69.4108 70.6788 69.1718 70.4691C68.9328 70.2518 68.6253 70.1432 68.2482 70.1432C68.0885 70.1432 67.9516 70.1464 67.8353 70.154C67.7191 70.1616 67.6148 70.1725 67.5202 70.1866V72.8921H67.8679ZM77.8359 69.5021C77.8218 69.8281 77.7957 70.1649 77.7599 70.5126C77.724 70.8603 77.6762 71.1863 77.6186 71.4905H77.1731L76.6733 70.2084H74.6415V72.8704H75.9671L76.4452 72.0338H76.7928C76.8287 72.3891 76.8472 72.7835 76.8472 73.2181C76.8472 73.6527 76.8287 74.058 76.7928 74.435H76.4452L75.9671 73.5767H74.6415V76.4017H76.7603L77.3361 75.0218H77.7816C77.8109 75.1598 77.8392 75.3151 77.8685 75.489C77.8979 75.6628 77.9196 75.8443 77.9337 76.0323C77.9555 76.2137 77.9696 76.3984 77.9772 76.5864C77.9913 76.7744 77.9989 76.9482 77.9989 77.1079H72.1207V76.6951C72.2435 76.6299 72.3815 76.5679 72.5336 76.5103C72.6857 76.4528 72.8454 76.4093 73.0117 76.38V70.2301C72.8672 70.2008 72.7107 70.1617 72.5444 70.1106C72.3847 70.053 72.2435 69.9878 72.1207 69.915V69.5021H77.8359Z" fill="#118924"/>
<g opacity="0.85">
<path d="M9.59526 24.9058C9.57244 24.3604 9.02808 23.5498 8.55761 23.5466C8.35334 19.3405 8.20557 15.5387 8.20557 13.0016C8.20557 9.97885 9.6246 10.144 12.3192 9.0216C13.3612 8.58698 15.7984 7.74491 18.7679 6.75398C20.2619 7.42546 21.1496 6.71703 20.6933 6.11617C23.7258 5.11438 27.3234 3.94308 30.2864 2.98909C31.876 3.84094 32.9984 2.91955 32.2074 2.38497C34.9238 1.51247 36.5612 0.990927 37.2914 0.749714C39.1754 0.131468 40.6271 -0.361825 42.4057 0.349864C42.9773 0.580212 44.7646 1.2517 48.1927 2.52839C47.6527 2.91412 48.1427 3.63993 49.9333 3.23248C52.6867 4.25492 55.7942 5.35559 58.5323 6.36391C58.1216 6.90827 58.8615 7.64169 60.462 7.06364C64.0226 8.37076 67.5398 9.66375 68.1254 9.84955C69.9041 10.4113 70.8233 10.4711 70.9124 13.496C70.9428 14.5521 70.9537 18.8212 70.9515 24.0475C69.9454 24.4375 69.928 25.9522 70.9515 26.138C70.9483 29.7964 70.9417 34.0252 70.9352 37.5978C69.7683 37.9531 69.8682 39.81 70.932 39.8024C70.9211 44.4463 70.9135 47.732 70.9135 48.636C70.9135 51.4372 70.9135 51.762 69.2239 52.5628C68.6709 52.8258 65.7959 54.1122 62.0723 55.7736C61.7854 54.9054 60.3186 55.038 60.1295 56.6406C57.1774 57.9565 53.8938 59.42 50.8841 60.763C50.4886 59.696 49.2771 60.0405 48.9109 61.6442C45.1612 63.3175 42.12 64.6811 41.1606 65.1298C39.4482 65.9285 38.3149 66.3957 35.8245 65.1298C34.8097 64.6137 31.989 63.0219 28.6044 61.0944C28.2567 59.4168 27.2191 59.2082 27.0083 60.1839C24.444 58.7203 21.6842 57.1383 19.2025 55.7236C19.3112 54.8457 18.3746 53.8319 17.8867 54.9717C15.1714 53.4234 12.9397 52.1619 11.9129 51.6132C10.3874 50.7994 9.83865 49.7465 9.83865 48.5589C9.83865 46.9975 9.62677 43.664 9.38013 39.2515C10.7101 39.0625 10.4873 37.274 9.28668 36.885C9.09762 33.5493 8.88249 29.7779 8.69886 26.2705C9.54202 26.2043 9.61482 25.3339 9.59743 24.9037" fill="white"/>
<path d="M60.1131 8.0698C64.0779 9.52469 66.9551 10.5037 67.5896 10.8057C67.9145 10.9611 68.0851 11.4555 67.6374 11.6304C66.0206 12.2595 63.514 13.2342 60.6509 14.3479C60.1685 14.5358 59.1341 14.2762 58.7527 14.1001C57.8607 13.6862 54.7673 12.4442 51.8923 11.186C51.7054 11.1034 51.5652 10.5928 52.0585 10.4504C55.0769 9.35628 57.3369 8.52941 58.5474 8.0861C58.8798 7.96332 59.8979 7.9894 60.1142 8.06872L60.1131 8.0698Z" fill="#006837"/>
<path d="M55.9897 6.55624C56.5873 6.79202 56.609 7.32334 56.3146 7.43417C54.7043 8.04155 52.566 8.7641 49.8072 9.79307C49.428 9.93432 48.4903 9.79307 48.1263 9.629C46.2205 8.76845 44.2626 7.99157 42.3187 7.12559C42.0265 6.99521 42.1601 6.62361 42.4861 6.50191C44.9145 5.59464 46.8334 4.94598 48.072 4.47224C48.8858 4.19843 49.5769 4.14628 49.8616 4.25276C51.9021 5.01334 53.7666 5.6794 55.9897 6.55733V6.55624Z" fill="#006837"/>
<path d="M46.286 2.91196C46.5816 3.02062 46.5827 3.45741 46.2567 3.62039C44.8246 4.15063 43.059 4.76127 40.5491 5.68374C40.2285 5.80109 39.4614 5.91083 39.0812 5.74676C36.9863 4.84493 35.2217 4.11151 33.8625 3.51174C33.5365 3.377 33.6962 2.96629 34.02 2.85763C36.518 2.01447 38.2945 1.45164 38.5922 1.33103C40.1145 0.785587 40.6273 0.886636 41.6041 1.18218C41.8725 1.26367 43.5653 1.90799 46.2871 2.91196H46.286Z" fill="#006837"/>
<path d="M23.1478 6.53561C25.6393 5.69027 27.883 4.93947 30.2212 4.1452C30.6569 3.99743 31.2882 3.92789 31.5273 4.03655C32.7246 4.57982 34.5348 5.32954 36.9676 6.42695C37.2392 6.54973 37.2392 6.83006 36.8589 6.97022C34.5424 7.82316 32.2335 8.64459 29.9485 9.46928C29.4585 9.64639 28.536 9.57794 28.1524 9.41496C25.9967 8.49682 24.418 7.82316 22.9979 7.24186C22.711 7.12451 22.7653 6.6649 23.1467 6.53561H23.1478Z" fill="#006837"/>
<path d="M46.0305 10.4254C46.4108 10.5884 46.3315 11.073 46.0305 11.1806C43.7542 11.9955 41.743 12.7441 39.5721 13.5525C39.1375 13.7688 37.9988 13.5993 37.5098 13.3906C35.6453 12.5942 33.9644 11.8879 32.0282 11.0719C31.6479 10.9122 31.8815 10.382 32.264 10.2451C34.4045 9.47689 36.6156 8.67719 38.7083 7.91661C39.1918 7.74059 39.897 7.74059 40.2968 7.91117C42.1831 8.71413 44.1117 9.60076 46.0295 10.4244L46.0305 10.4254Z" fill="#006837"/>
<path d="M56.9242 15.7876C54.687 16.6611 52.3835 17.5597 50.2137 18.4051C49.8725 18.5376 48.8859 18.1899 48.5046 18.0269L46.3 17.086C45.5546 16.7405 43.9193 16.0798 41.7984 15.1606C41.3073 14.9477 41.4713 14.274 42.0168 14.0795C44.0834 13.3428 46.075 12.6181 48.1232 11.8771C48.5111 11.7369 49.4314 11.8282 49.7584 11.9705C53.1517 13.446 55.9376 14.5934 56.9231 15.0531C57.2198 15.191 57.2361 15.6648 56.9221 15.7897" fill="#006837"/>
<path d="M45.4905 18.5561C45.7925 18.6984 46.062 18.8147 46.3075 18.9342C46.9062 19.2265 46.778 19.8208 46.4162 19.9621C43.0153 21.3007 40.476 22.2971 39.773 22.5578C37.4826 23.4108 36.81 23.2847 34.11 22.0711C33.646 21.8635 31.5685 20.9313 28.6109 19.5296C28.5197 19.4872 28.3382 19.1482 28.6109 19.0428C29.591 18.6636 29.3183 18.7723 30.3538 18.3942C31.4849 17.9802 33.9372 17.0849 37.2685 15.906C37.7586 15.7321 39.283 15.8614 39.8817 16.1222C42.6752 17.3381 44.455 18.1236 45.4894 18.5561H45.4905Z" fill="#006837"/>
<path d="M25.5314 18.128C23.3366 17.0925 22.0686 16.4971 19.7869 15.4203C19.5565 15.2845 19.5696 14.8183 19.7869 14.7162C20.1117 14.6076 19.136 14.9324 19.7869 14.7162C20.9245 14.337 24.5546 12.9636 28.1772 11.6782C28.7291 11.4826 29.4343 11.6391 29.9222 11.8456C32.0735 12.755 33.4013 13.3808 35.5049 14.2827C36.047 14.5152 36.047 14.8031 35.8297 14.8781C32.9124 15.894 30.9457 16.6807 29.9765 16.9904C29.054 17.2848 28.1131 17.7194 27.2123 17.965C26.5615 18.1421 25.9661 18.3322 25.5325 18.128H25.5314Z" fill="#006837"/>
<path d="M26.0001 9.99625C26.5086 10.2125 26.4814 10.6623 26.2174 10.7557C23.2609 11.8053 21.141 12.5377 20.1327 12.9299C19.1548 13.3102 19.2091 13.3102 18.2312 13.6362C17.688 13.8176 16.9415 13.9621 16.6014 13.7992C14.2023 12.6496 12.579 11.9162 11.2578 11.2838C10.897 11.0274 11.1654 10.5373 11.4403 10.4298C11.7152 10.3222 11.7087 10.3407 11.8749 10.2668C12.3096 10.1038 15.2498 9.14005 19.1657 7.80468C19.5362 7.67864 20.4119 7.60367 20.8726 7.78947C22.0994 8.28385 23.8118 9.06834 26.0011 9.99733L26.0001 9.99625Z" fill="#006837"/>
<path d="M55.8137 10.5439C55.6344 10.6091 55.6268 10.859 55.8018 10.935L56.4493 11.2164C56.4993 11.2382 56.5558 11.2392 56.6058 11.2208L57.8564 10.7579C57.914 10.7362 57.977 10.7416 58.0303 10.7709L61.3355 12.3682C61.3899 12.3975 61.6604 12.429 61.718 12.4062L62.1016 12.2563C62.4808 12.1237 62.3928 11.8108 62.2352 11.7249L59.4374 10.4091C59.282 10.3244 59.2939 10.0973 59.458 10.0299L60.0675 9.77784C60.2457 9.70396 60.2392 9.44862 60.0567 9.38451L59.596 9.2237C59.5503 9.20741 59.5004 9.20849 59.4547 9.2237L55.8148 10.5428L55.8137 10.5439Z" fill="white"/>
<path fill-rule="evenodd" clip-rule="evenodd" d="M46.4325 13.8252C46.3347 13.7112 46.3803 13.533 46.5216 13.4808L47.5679 13.0886C47.6168 13.0701 47.6711 13.0701 47.72 13.0886L53.3907 15.2182C53.5776 15.2888 53.5787 15.5518 53.3929 15.6246L52.8257 15.8451C52.7746 15.8647 52.7181 15.8647 52.6671 15.8451L50.5939 15.027C50.5385 15.0052 50.4777 15.0074 50.4244 15.0313L49.4911 15.4561C49.3553 15.5181 49.3205 15.6952 49.4237 15.8038L50.1691 16.5862C50.2756 16.6981 50.2354 16.8817 50.0919 16.9382L49.4965 17.174C49.4107 17.2087 49.3118 17.1838 49.251 17.1131L46.4325 13.8274V13.8252ZM48.5816 14.9824C48.6414 15.0574 48.7435 15.0845 48.8326 15.0487L49.3596 14.8379C49.5411 14.7651 49.5422 14.5087 49.3596 14.4348L48.3328 14.0186C48.1253 13.935 47.9417 14.1805 48.0818 14.3555L48.5827 14.9824H48.5816Z" fill="white"/>
<path d="M40.3469 18.3757C40.4055 18.3496 40.474 18.3496 40.5327 18.3757C41.8213 18.9755 42.181 20.0577 39.7069 20.9139C37.1742 21.7907 36.1506 20.8856 34.7761 20.175C33.4017 19.4644 33.9917 18.2747 35.4531 17.563C36.7265 16.9415 38.0825 16.973 39.156 17.4456C39.3386 17.526 39.3125 17.7759 39.1223 17.8368L38.4019 18.066C38.3389 18.0856 38.2716 18.078 38.2129 18.0465C37.5381 17.6814 36.9438 17.6847 36.2843 18.0052C35.5954 18.3398 34.8359 19.0026 35.6671 19.4633C36.4983 19.924 37.5903 20.5912 38.8963 20.1761C39.9709 19.8339 40.4023 19.4307 39.9275 19.0189C39.7764 18.8875 39.7775 18.6256 39.9601 18.5463L40.3469 18.3768V18.3757Z" fill="white"/>
<path d="M52.0997 6.26506C53.0776 6.80833 52.2627 7.8047 51.1761 8.22085C50.0896 8.63699 49.404 8.68589 47.9165 8.00354C46.0835 7.16255 46.4833 6.03254 47.6449 5.5588C48.9172 5.04052 49.7995 5.13179 50.4199 5.48709C50.5536 5.56315 50.5405 5.75112 50.4069 5.82718L50.0125 6.0521C49.9581 6.08361 49.8918 6.08904 49.8321 6.06839C49.3062 5.88477 49.1008 5.83805 48.2957 6.15532C47.4439 6.49106 47.6014 6.97023 48.4706 7.29619C49.3399 7.62216 49.9799 7.83186 50.9034 7.45918C51.7857 7.10279 51.7259 6.779 51.2457 6.666C51.2001 6.65513 51.1522 6.66274 51.111 6.68338L50.6361 6.92025C50.5666 6.95502 50.4829 6.94958 50.4188 6.90721L50.3167 6.83876C50.1852 6.75075 50.1885 6.55625 50.3232 6.47368L51.1001 5.99342C51.149 5.963 51.2077 5.95322 51.2642 5.96735C51.4445 6.01407 51.8607 6.13033 52.1008 6.26397L52.0997 6.26506Z" fill="white"/>
<path d="M39.0613 4.33316C39.9088 4.66239 40.5031 4.61784 41.6733 4.06261C42.8424 3.50847 42.7859 2.5208 41.4919 2.03729C40.6096 1.70806 39.5535 1.74066 38.2844 2.30566C37.0153 2.87175 37.4651 3.59214 39.0613 4.33208V4.33316ZM40.6846 2.37412C41.4734 2.69573 42.1644 3.22054 41.2778 3.56497C40.3923 3.90941 39.8979 3.81271 39.4687 3.65733C38.8244 3.38569 38.1942 2.97389 38.9776 2.61533C39.7599 2.25677 40.2163 2.21331 40.6846 2.37412Z" fill="white"/>
<path d="M30.48 8.20779C30.1258 8.28711 29.8824 8.34252 29.8433 8.32731L26.8313 7.25271C26.7911 7.2375 26.2022 7.01476 26.2022 7.01476C25.7611 6.56819 26.6412 6.37369 26.6575 6.33892L27.8407 5.98145C28.5242 5.78261 29.0968 5.54792 29.6618 5.46425C30.2257 5.38059 30.9439 5.36972 31.4829 5.46425C32.0218 5.55878 32.9606 6.07163 33.0301 6.81375C33.1268 7.83293 30.4811 8.20887 30.4811 8.20887L30.48 8.20779ZM30.1258 7.4635L30.807 7.25271C31.2351 7.08212 31.409 6.96478 31.4807 6.81266C31.6198 6.51929 31.5546 6.20528 31.1808 6.02491C30.7114 5.79674 30.5908 5.86736 30.1247 5.85541C29.6596 5.84346 29.0946 6.05968 28.4394 6.33784L27.8853 6.63229L30.1258 7.4635Z" fill="white"/>
<path d="M39.2632 12.3367C39.2382 12.3454 39.21 12.3443 39.1861 12.3334L34.9811 10.5091C34.8888 10.4689 34.8953 10.3363 34.992 10.3059L35.8928 10.0191C35.9047 10.0158 35.9167 10.0136 35.9297 10.0136L39.9434 10.1549C40.064 10.1592 40.101 9.99299 39.9901 9.94627L38.5961 9.35301C38.507 9.31498 38.5081 9.18894 38.5961 9.152L39.2382 8.88797C39.2643 8.87711 39.2937 8.87711 39.3197 8.88797L43.7116 10.6547C43.8072 10.6927 43.8007 10.8318 43.7007 10.8601L42.8825 11.0937C42.8706 11.0969 42.8586 11.098 42.8456 11.098L38.2582 10.8112C38.1376 10.8036 38.0963 10.9698 38.2082 11.0187L40.1075 11.8542C40.1987 11.8944 40.1922 12.0259 40.0977 12.0563L39.2632 12.3345V12.3367Z" fill="white"/>
<path d="M27.2758 16.7068C27.3301 16.7361 27.4866 16.8404 27.5442 16.8187L31.5144 15.2964C31.9371 15.1019 31.622 14.8346 31.4384 14.7434L31.2297 14.6793C31.1798 14.6543 30.9809 14.6934 30.9277 14.7119L28.0874 15.6604C28.0255 15.6811 27.8006 15.8266 27.3334 15.5952C26.6988 15.2812 27.6072 14.9661 27.7886 14.9031L29.4467 14.3207C29.6434 14.2512 29.6684 13.9958 29.4782 13.9056L29.0914 13.7242C29.0393 13.6992 28.9871 13.735 28.9339 13.7568L26.4022 14.7434C25.9372 14.8922 25.9002 14.9694 25.4754 14.7684C24.7028 14.4033 25.7372 14.1751 25.9372 14.1012L27.7126 13.446C27.9049 13.3754 28.0603 13.1624 27.8756 13.0712L27.5105 12.8886C27.4594 12.8625 27.4007 12.8593 27.3464 12.8788L23.4142 14.2848C23.223 14.3533 23.2012 14.7477 23.3816 14.8444L27.2747 16.7068H27.2758Z" fill="white"/>
<path fill-rule="evenodd" clip-rule="evenodd" d="M17.8312 8.95098C19.1992 8.44574 19.4284 8.37403 20.2238 8.68043C20.6041 8.82712 20.8105 9.21936 20.7714 9.68658C20.7323 10.1538 20.2281 10.4265 19.925 10.5536C19.3784 10.7818 19.134 10.9079 18.6189 11.085C18.3647 11.2132 18.3354 11.4196 18.5385 11.5174L19.2654 11.8662C19.4425 11.9509 19.4252 12.2095 19.2372 12.2693L18.5635 12.4844C18.5125 12.5007 18.457 12.4975 18.4082 12.4757L14.6085 10.7568C14.4433 10.6819 14.3966 10.3331 14.5574 10.2505C15.2539 9.89628 16.7077 9.32801 17.8312 8.95316V8.95098ZM16.021 10.2614C15.8689 10.3309 15.7037 10.4059 15.8602 10.4635L16.8674 10.8296C16.8935 10.8394 17.1162 10.8524 17.1445 10.8514C18.2408 10.6482 19.1177 10.2614 19.373 10.1158C19.6316 9.96799 20.0119 9.59965 19.6555 9.26934C19.298 8.93903 18.6581 9.21393 18.1441 9.35952C17.54 9.53011 16.6251 9.9354 16.0221 10.2614H16.021Z" fill="white"/>
<path d="M70.0814 48.3905C70.0966 49.8834 69.6946 50.6353 68.344 51.1688C67.9637 51.3209 66.0558 52.2021 63.0199 53.5625C62.205 53.7798 61.665 53.519 61.6618 52.9757C61.6509 51.2134 61.6248 48.5568 61.6074 45.2015C61.6042 44.2942 62.1637 43.262 63.0743 42.9002C65.5603 41.8408 67.2032 41.1574 68.67 40.5608C69.3219 40.2957 69.9695 40.8357 69.9739 41.4855C69.9978 45.158 70.0738 47.6364 70.0825 48.3905" fill="#FF0000"/>
<path d="M60.5207 54.071C60.4663 54.5262 59.8633 54.963 59.4287 55.1586C56.9101 56.2908 54.361 57.461 51.7261 58.6377C51.1253 58.9061 50.595 58.6703 50.5787 57.9304C50.5375 56.1245 50.5472 53.3691 50.5244 49.5031C50.5277 48.6295 51.1253 47.9005 51.8359 47.6006C54.2611 46.5749 56.3863 45.7578 58.8278 44.719C59.5384 44.417 60.4631 44.8288 60.4663 45.5894C60.4881 49.5922 60.513 52.4922 60.5207 54.071Z" fill="#FF0000"/>
<path d="M49.1118 58.7529C49.1151 59.533 48.373 60.072 47.8101 60.3273C43.9974 62.0777 41.481 63.2436 40.8138 63.4761C39.6751 63.8727 38.5897 63.8456 38.5897 63.2588C38.5593 61.2118 38.5734 56.0724 38.5897 54.8967C38.6071 53.4549 39.837 52.6324 40.7595 52.2901C41.4973 52.0163 44.2093 50.8407 47.7015 49.3586C48.3088 49.1011 49.0542 49.6281 49.0575 50.1192C49.0781 53.9265 49.102 56.9275 49.1118 58.7529Z" fill="#FF0000"/>
<path d="M69.9736 37.2251C69.9193 38.0922 69.4836 38.6355 69.1044 38.7952C67.819 39.3396 65.4699 40.2892 62.4764 41.5561C62.0353 41.6539 61.6094 41.4008 61.6072 40.9607C61.5898 37.6511 61.5192 34.1752 61.4985 30.9981C61.4985 30.4125 61.7702 29.5921 62.3189 29.3759C65.4894 28.1297 67.4778 27.3126 68.9414 26.7204C69.376 26.5444 69.9138 27.2083 69.9171 27.7157C69.9356 30.8873 69.9562 34.1719 69.9736 37.2251Z" fill="#FF0000"/>
<path d="M60.3034 40.8303C60.3034 41.6974 59.5428 42.8361 58.7822 43.1598C56.344 44.1975 54.0547 45.158 51.611 46.1935C51.0134 46.4467 50.3626 45.7969 50.4158 45.2189C50.4006 42.1102 50.3245 38.9614 50.3072 35.9017C50.3039 35.3443 50.5788 34.1839 51.2851 33.8981C53.7939 32.88 56.4081 31.7913 58.9452 30.7558C59.3798 30.5787 60.1926 30.972 60.1947 31.4056C60.2121 34.512 60.286 37.613 60.3034 40.8303Z" fill="#FF0000"/>
<path d="M49.0031 46.012C49.0031 46.7705 48.4055 47.4539 47.9709 47.6386C44.0267 49.3108 41.03 50.5788 40.2564 50.8646C39.2785 51.0428 38.5723 50.8287 38.5723 49.9627C38.5723 47.9635 38.5723 40.5369 38.5723 39.8328C38.5723 39.1288 38.7896 38.956 39.6588 38.5866C40.0391 38.4247 40.4118 38.2639 40.854 38.0987C41.5842 37.8282 44.0007 36.8579 47.482 35.4432C48.1339 35.1781 48.8945 35.8767 48.8945 36.5276C48.914 39.709 48.9857 42.8143 49.0031 46.0131V46.012Z" fill="#FF0000"/>
<path d="M69.8651 23.5889C69.8683 23.9844 69.4457 24.9406 68.9404 25.1481C67.6833 25.6643 65.4113 26.5965 62.6678 27.7189C62.2842 27.8765 61.5041 27.7428 61.5041 27.0681C61.3954 23.3173 61.4074 20.6107 61.3954 19.7284C61.3835 18.7299 61.3954 17.0099 61.3954 17.0099C61.3954 16.4894 61.3922 15.5724 61.8833 15.379C64.8213 14.2207 67.0727 13.4123 68.5612 12.8234C69.0252 12.6398 69.7445 13.1048 69.7553 13.6394C69.7673 14.1827 69.8314 18.3257 69.864 23.5879L69.8651 23.5889Z" fill="#FF0000"/>
<path d="M60.4111 27.4397C60.4111 28.1764 59.9243 29.0271 59.117 29.3564C56.7027 30.3397 54.1493 31.3763 51.7306 32.3574C50.9592 32.6703 50.5246 32.1542 50.5246 31.5034C50.4974 27.2376 50.4311 24.0345 50.4181 23.1044C50.4148 22.7589 50.4159 22.3384 50.4181 22.0113C50.4257 21.0454 50.8505 19.9241 51.4481 19.6904C53.9809 18.7006 56.0638 17.8726 58.6204 16.873C58.8964 16.7644 59.7135 16.7579 59.9732 17.0892C60.3024 17.5749 60.3415 18.2899 60.3611 19.5655C60.373 20.463 60.3893 23.5325 60.4132 27.443" fill="#FF0000"/>
<path d="M48.8947 32.6464C48.8969 32.9311 48.5155 33.4863 48.082 33.6656C44.1813 35.278 40.9966 36.5178 40.223 36.8079C39.5113 37.0763 38.6507 36.7644 38.5964 36.2092C38.5421 35.6529 38.5964 25.699 38.5964 25.699C38.5964 25.699 38.5866 24.5245 39.3548 24.2289C39.6493 24.1148 40.7097 23.6846 40.7097 23.6846C40.7097 23.6846 43.4707 22.4676 46.9965 21.179C47.4931 20.9812 48.773 21.8874 48.785 22.8838C48.7991 23.9062 48.8632 27.7646 48.8936 32.6475L48.8947 32.6464Z" fill="#FF0000"/>
<path d="M41.2541 61.1248C41.2541 61.2791 41.4106 61.3834 41.5529 61.3258L46.9726 59.1245C47.0573 59.0897 47.1117 59.0061 47.1084 58.9148L47.0682 57.9304C47.0617 57.7772 46.9031 57.6783 46.7629 57.7413L43.3772 59.2527C43.2338 59.3168 43.0719 59.2114 43.0708 59.055L43.0686 57.9043C43.0686 57.8163 43.1219 57.737 43.2023 57.7033L46.5347 56.3223C46.6184 56.2875 46.6727 56.2039 46.6684 56.1126L46.6238 55.0271C46.6173 54.875 46.4597 54.7761 46.3196 54.837L43.3674 56.1235C43.224 56.1865 43.0632 56.0811 43.0632 55.9246L43.061 54.8413C43.061 54.7566 43.111 54.6783 43.1881 54.6436L46.8324 52.9855C46.9107 52.9496 46.9596 52.8725 46.9596 52.7867L46.9574 51.9055C46.9574 51.749 46.7966 51.6447 46.6531 51.7066L41.3682 54.0036C41.2889 54.0384 41.2378 54.1166 41.2378 54.2035L41.253 61.127L41.2541 61.1248Z" fill="white"/>
<path d="M52.9648 49.2369C52.8692 49.2771 52.7312 49.3782 52.7117 49.4803C52.6671 49.7139 52.7421 55.0065 52.7627 56.3658C52.7649 56.519 52.9203 56.62 53.0615 56.5624L54.0872 56.1463C54.1687 56.1126 54.223 56.0333 54.223 55.9453V51.8077C54.223 51.6034 54.4784 51.5122 54.6088 51.6697L55.7486 53.0561C55.855 53.1865 56.0637 53.1507 56.1202 52.992L56.7982 51.1253C56.8807 50.8972 57.2197 50.9558 57.2197 51.1992V54.3806C57.2197 54.5371 57.3805 54.6425 57.524 54.5795L58.5442 54.1307C58.6236 54.096 58.6746 54.0177 58.6746 53.9319V47.1258C58.6746 46.9693 58.5138 46.8639 58.3704 46.9269L57.2893 47.4017C57.2447 47.4213 57.2067 47.4561 57.1839 47.4995L55.8159 50.1094C55.7442 50.2452 55.5584 50.267 55.4584 50.1496L54.3284 48.8316C54.2676 48.7599 54.1665 48.736 54.0796 48.7719L52.9637 49.2358L52.9648 49.2369Z" fill="white"/>
<path fill-rule="evenodd" clip-rule="evenodd" d="M54.8661 34.9477C54.8824 34.8825 54.9292 34.8282 54.9911 34.8021L56.4503 34.1795C56.572 34.1274 56.7111 34.1958 56.7459 34.323L58.518 40.9552C58.5452 41.0585 58.4941 41.166 58.3974 41.2095L57.614 41.5637C57.4923 41.6191 57.35 41.5518 57.3152 41.4225L56.8947 39.8719C56.8578 39.7361 56.7046 39.6709 56.5818 39.7383L54.9791 40.6075C54.9248 40.6369 54.8857 40.6879 54.8716 40.7477L54.3403 42.9491C54.324 43.0175 54.2751 43.0729 54.2099 43.1001L52.9908 43.5912C52.8256 43.6575 52.655 43.5075 52.6996 43.3348L54.8683 34.9488L54.8661 34.9477ZM55.2551 38.6811C55.203 38.8625 55.392 39.0201 55.5615 38.9353L56.3145 38.5583C56.4058 38.5127 56.4525 38.4095 56.4275 38.3106L56.1244 37.1089C56.07 36.8937 55.7658 36.8883 55.705 37.1023L55.2551 38.6811Z" fill="white"/>
<path d="M47.1531 43.5413C47.1531 46.1348 46.1773 46.3619 44.0314 47.3224C41.8855 48.284 40.9619 46.4043 40.9619 43.6488C40.9619 40.8933 41.9941 39.9165 44.2911 39.0027C45.9035 38.3617 47.0716 39.6156 47.1487 41.1139C47.1531 41.2073 47.0922 41.291 47.0031 41.3203L45.6167 41.7724C45.4765 41.818 45.3342 41.7137 45.3331 41.5659C45.3298 40.9346 45.2407 40.4935 44.0836 40.839C42.7504 41.2367 42.5754 42.3613 42.5754 43.6488C42.5754 44.9364 43.0274 45.9773 44.0314 45.7643C44.9213 45.5753 45.3168 44.9103 45.4494 44.0834C45.4743 43.9291 45.3244 43.8118 45.1766 43.8607L44.4736 44.0943C44.3335 44.141 44.1879 44.0367 44.1879 43.8879V43.0523C44.1879 42.9567 44.2498 42.873 44.3411 42.8448L46.8825 42.0581C47.0194 42.0157 47.1563 42.1146 47.1563 42.2569C47.1563 42.5644 47.1531 43.049 47.1531 43.5402V43.5413Z" fill="white"/>
<path d="M68.507 47.3909C68.3864 49.276 67.9202 50.0725 65.959 50.8504C63.9978 51.6284 63.3459 49.8899 63.5088 47.3909C63.636 45.4394 64.2151 44.3811 66.1709 43.5336C68.1267 42.6861 68.6699 44.8375 68.507 47.3909ZM64.8409 47.9591C64.8409 48.9511 64.8953 50.0301 66.0622 49.5096C67.2292 48.9892 67.2574 47.4593 67.2574 46.4673C67.2574 45.4753 67.3313 44.3301 66.1166 44.8375C64.9018 45.3449 64.8409 46.9682 64.8409 47.9591Z" fill="white"/>
<path d="M65.0015 30.9199C65.0015 30.7721 64.8744 30.6722 64.7581 30.7287L63.6998 31.2426C63.6335 31.2741 63.5911 31.3502 63.5911 31.4338C63.5911 31.4338 63.2641 38.7115 63.6205 38.9212C63.9758 39.1298 64.9374 38.6072 64.9374 38.6072L68.5621 37.0741C68.6273 37.0415 68.6697 36.9665 68.6697 36.8829V35.8257C68.6697 35.6779 68.5414 35.5768 68.4252 35.6344L65.247 36.8829C65.1308 36.9405 65.0026 36.8405 65.0026 36.6916V30.9199H65.0015Z" fill="white"/>
<path d="M64.8222 17.0197C64.8222 16.8665 64.6961 16.7622 64.5809 16.8208L63.5335 17.3554C63.4683 17.3891 63.4259 17.4673 63.4259 17.5543C63.4259 17.5543 63.1032 25.1166 63.4542 25.3339C63.8062 25.5513 64.758 25.008 64.758 25.008L68.3458 23.414C68.4099 23.3803 68.4523 23.3021 68.4523 23.2152V22.1167C68.4523 21.9624 68.3252 21.8581 68.21 21.9178L65.0634 23.2152C64.9482 23.2749 64.8211 23.1706 64.8211 23.0163V17.0186L64.8222 17.0197Z" fill="white"/>
<path d="M52.6604 29.5106C52.6637 29.666 52.8234 29.7681 52.9657 29.7051L58.2279 27.3886C58.3083 27.3538 58.3594 27.2734 58.3572 27.1854L58.3376 26.0902C58.3344 25.9348 58.1746 25.8327 58.0323 25.8957L54.7281 27.3593C54.5858 27.4223 54.426 27.3201 54.4228 27.1648L54.4011 25.9804C54.4 25.8924 54.4521 25.812 54.5325 25.7762L57.8389 24.3637C57.9204 24.3289 57.9725 24.2485 57.9704 24.1594L57.9486 22.9566C57.9454 22.8023 57.7878 22.7001 57.6466 22.761L54.664 24.0355C54.5227 24.0964 54.3641 23.9942 54.3619 23.8399L54.3369 22.4741C54.3359 22.384 54.3902 22.3014 54.4739 22.2688L58.1985 20.7846C58.2822 20.7509 58.3365 20.6694 58.3354 20.5792L58.3202 19.7252C58.317 19.5731 58.1627 19.4709 58.0214 19.5274L52.6593 21.6842C52.5757 21.7179 52.5213 21.7994 52.5235 21.8896L52.6615 29.5085L52.6604 29.5106Z" fill="white"/>
<path d="M40.9824 26.3716C40.9824 26.2836 41.0357 26.2043 41.1172 26.1706L42.458 25.6197C42.6014 25.561 42.7578 25.6664 42.7578 25.8207V28.4045C42.7578 28.5621 42.9197 28.6664 43.0632 28.6034L45.2384 27.6385C45.3167 27.6037 45.3677 27.5255 45.3677 27.4397V24.6049C45.3677 24.519 45.4177 24.4408 45.497 24.406L46.815 23.8182C46.9584 23.7541 47.1203 23.8595 47.1214 24.017L47.1279 31.7989C47.1279 31.8847 47.078 31.963 46.9986 31.9977L45.6817 32.5856C45.5383 32.6497 45.3764 32.5443 45.3764 32.3867V29.7649C45.3764 29.6073 45.2145 29.5019 45.0711 29.566L42.8969 30.5309C42.8187 30.5657 42.7676 30.6439 42.7676 30.7297V33.734C42.7676 33.822 42.7144 33.9014 42.6329 33.935L41.291 34.4859C41.1476 34.5446 40.9911 34.4392 40.9911 34.2849L40.9846 26.3716H40.9824Z" fill="white"/>
<path d="M37.1512 63.1404C37.1621 63.8086 36.4461 64.2302 36.0115 64.0118C35.5768 63.7391 32.7692 62.1549 29.0641 60.0361C28.7381 59.8503 28.5947 59.3277 28.5762 58.729C28.523 57.0666 28.3535 53.8754 28.2502 50.0692C28.2372 49.5792 28.7392 48.9805 29.1184 49.2521C31.6587 50.5984 33.4113 51.5578 33.8492 51.7534L36.1734 52.9562C36.8046 53.2832 37.1469 53.9319 37.1502 54.3176C37.173 56.4603 37.1415 62.5754 37.1502 63.1404H37.1512Z" fill="#F7931E"/>
<path d="M25.8054 58.2509C23.7855 57.0905 21.7406 55.9322 19.8848 54.8783C19.3415 54.5697 18.8221 53.6266 18.7982 52.9192C18.745 51.3122 18.7113 48.686 18.5809 45.2482C18.5516 44.4865 19.0155 43.9769 19.5588 44.2692C21.6471 45.3916 23.5595 46.3706 25.5696 47.4463C26.1965 47.7386 26.7148 48.7306 26.7289 49.275C26.8202 52.7965 27.0082 55.7269 27.0549 57.599C27.0668 58.0532 26.1857 58.4704 25.8054 58.252V58.2509Z" fill="#F7931E"/>
<path d="M11.7446 40.1295C12.8952 40.7369 14.1208 41.3768 15.9593 42.3482C16.471 42.6188 17.2968 43.3554 17.3283 44.1345C17.4533 47.279 17.5337 49.9573 17.6021 51.8197C17.6239 52.4031 16.8807 53.0214 16.5623 52.8475C15.5225 52.2803 16.5677 52.8486 14.1534 51.4948C10.9242 49.8715 11.0372 48.8588 10.9785 47.9765C10.9612 47.7005 10.8666 45.1917 10.6504 41.103C10.6156 40.4533 11.198 39.8405 11.7457 40.1295H11.7446Z" fill="#F7931E"/>
<path d="M26.6206 45.1482C26.6325 45.6372 26.0621 46.0718 25.6981 45.8751C23.6641 44.7788 21.1009 43.4836 19.0571 42.3775C19.1788 42.4427 18.9365 42.3102 19.0571 42.3775C18.7366 42.2059 18.478 41.718 18.4628 41.2367C18.3487 37.8466 18.1922 34.7728 18.1455 31.3882C18.1575 30.6168 18.9289 30.256 19.2733 30.4277C21.2541 31.4241 23.1708 32.3346 25.1081 33.306C26.0262 33.7949 26.2294 34.7728 26.2425 35.2617C26.3272 38.4834 26.5369 41.8375 26.6206 45.1472V45.1482Z" fill="#F7931E"/>
<path d="M16.2364 40.8879C13.8406 39.6123 12.2955 38.8169 11.2003 38.2726C10.6527 37.8369 10.5082 37.3468 10.4886 36.9644C10.3245 33.695 10.2756 30.3071 10.105 26.9388C10.0833 26.5031 10.406 26.0272 10.707 26.176C11.9554 26.7943 13.7135 27.6157 15.8518 28.6751C16.4537 28.9011 16.8145 29.7182 16.8373 30.2506C16.8514 30.5994 16.8569 30.7939 16.8721 31.1492C16.9883 34.1556 17.047 36.9937 17.1665 40.0708C17.1893 40.6706 16.5428 41.052 16.2364 40.8879Z" fill="#F7931E"/>
<path d="M28.0349 45.8414C27.948 42.5079 27.7937 39.1592 27.7068 35.8637C27.6926 35.3193 28.388 34.926 28.7444 35.1009C31.4988 36.4569 33.5893 37.5141 34.0413 37.7152C35.243 38.3138 34.6965 38.0422 36.0069 38.6952C36.5328 38.9582 37.1532 39.3819 37.1532 39.973C37.1532 42.2602 37.0989 50.757 37.1532 50.9211C37.2075 51.084 36.8251 51.3568 36.3883 51.3568C35.7809 51.3568 35.4049 51.0297 34.5314 50.594C34.075 50.3897 31.9367 49.1913 29.066 47.6734C28.5249 47.3865 28.0327 46.4304 28.0327 45.8414H28.0349Z" fill="#F7931E"/>
<path d="M37.1392 26.2499C37.1392 28.6871 37.1859 34.8065 37.1392 35.7811C37.0925 36.7558 36.2178 37.0676 34.0502 36.106C33.5764 35.8963 31.7706 35.0281 28.6837 33.507C27.9785 33.1593 27.5993 32.4367 27.5993 31.7196C27.4711 26.8225 27.2918 23.162 27.2745 22.5448C27.269 22.3481 27.2766 21.945 27.2745 21.7549C27.2669 21.1051 28.3165 20.9313 28.6837 21.1051C31.1795 22.2808 32.9756 23.1359 33.3993 23.3249C34.3403 23.7443 34.8629 23.9747 35.73 24.4082C36.6209 24.8537 37.1392 25.3437 37.1392 26.2488V26.2499Z" fill="#F7931E"/>
<path d="M26.0771 30.8047C26.0912 31.3469 25.4263 31.8902 24.883 31.6175C22.7686 30.557 21.079 29.7518 18.9678 28.6914C18.0997 28.2546 17.9541 27.2321 17.9367 26.741C17.7759 22.5676 17.6651 19.3166 17.6107 18.5039C17.6107 17.7455 17.5564 17.0403 17.7194 16.7154C17.8824 16.3906 18.342 16.3091 18.5517 16.4101C20.778 17.4771 22.6176 18.2823 24.7744 19.3156C25.209 19.4785 25.6425 20.1283 25.7512 21.2127C25.7512 21.7788 25.7914 22.4437 25.8055 22.9468C25.8229 23.527 25.9598 26.352 26.0771 30.8047Z" fill="#F7931E"/>
<path d="M15.4747 26.9464C13.0799 25.761 11.6913 25.1232 10.658 24.6092C10.3364 24.4517 9.87681 23.8421 9.8529 23.162C9.6834 18.6843 9.50521 14.8988 9.45414 13.3048C9.43458 12.7072 9.9659 12.3443 10.2756 12.4899C11.5457 13.0907 13.1799 13.8263 15.5301 14.9357C15.7648 15.0454 16.2418 15.4866 16.2961 16.1939C16.2961 17.1197 16.3298 17.9465 16.3505 18.6995C16.3678 19.2938 16.4645 22.4753 16.6243 26.5661C16.6243 27.1094 15.8028 27.0551 15.4747 26.9464Z" fill="#F7931E"/>
<path d="M29.8061 58.7268C29.8082 58.804 29.8506 58.8735 29.918 58.9116L34.6586 61.5529C34.8031 61.6334 34.9813 61.529 34.9813 61.3628V60.3936C34.9813 60.3143 34.9378 60.2415 34.8694 60.2035L31.4587 58.3172C31.3903 58.2792 31.3468 58.2064 31.3468 58.1281L31.3446 57.0938C31.3446 56.9308 31.5174 56.8254 31.6619 56.9003L34.1566 58.1988C34.3011 58.2737 34.4739 58.1694 34.4739 58.0065V57.0699C34.4739 56.9884 34.4282 56.9134 34.3554 56.8764L31.4772 55.4042C31.4044 55.3672 31.3577 55.2912 31.3587 55.2086L31.3663 54.335C31.3674 54.172 31.5413 54.0688 31.6858 54.1449L34.6521 55.7182C34.7955 55.7942 34.9693 55.691 34.9715 55.528L34.9802 54.5849C34.9802 54.5034 34.9367 54.4295 34.865 54.3915L29.968 51.7805C29.8213 51.7023 29.6442 51.811 29.6485 51.9772L29.805 58.7268H29.8061Z" fill="white"/>
<path d="M23.8756 48.9946C23.9191 48.8664 24.0668 48.8088 24.1853 48.8729L24.9947 49.3151C25.086 49.3651 25.1295 49.4727 25.098 49.5726L23.3356 55.0619C23.2932 55.1955 23.1367 55.2542 23.0172 55.1814L21.7047 54.3937C21.6525 54.3622 21.6156 54.31 21.6036 54.2502L20.1368 46.966C20.1009 46.7867 20.2878 46.6466 20.4497 46.7302L21.4211 47.2344C21.4798 47.2648 21.5211 47.3202 21.5341 47.3854L22.4424 51.987C22.4859 52.2054 22.7901 52.226 22.8619 52.0141L23.8767 48.9946H23.8756Z" fill="white"/>
<path d="M11.9856 46.7563C12.1181 48.4839 12.4897 49.2065 14.0033 49.8856C15.5158 50.5647 15.9764 48.9577 15.7983 46.6672C15.6592 44.8788 15.1952 43.9183 13.6849 43.1751C12.1746 42.4329 11.8063 44.4159 11.9856 46.7563ZM14.7932 47.2127C14.8149 48.1221 14.7965 49.1141 13.8957 48.6567C12.995 48.1993 12.9406 46.7965 12.9189 45.8871C12.8972 44.9776 12.8168 43.927 13.7545 44.3714C14.6921 44.8157 14.7726 46.3032 14.7943 47.2127H14.7932Z" fill="white"/>
<path d="M12.6038 30.0604C12.5941 29.917 12.6038 29.5172 12.4409 29.4085C12.4409 29.4085 11.6803 28.8652 11.4086 28.8652C11.2739 28.8652 11.2402 29.1097 11.2457 29.1912C11.2457 29.1912 11.4054 36.3363 11.7737 36.5156C12.1421 36.6949 15.0486 38.4269 15.0486 38.4269C15.2116 38.4812 15.3745 38.4269 15.4289 38.1552V37.449C15.4191 37.3055 15.3202 37.0143 15.0486 36.9057L12.8755 35.5475L12.6038 30.0604Z" fill="white"/>
<path d="M21.052 33.7591C21.0335 33.708 20.9976 33.6656 20.9509 33.6395L20.048 33.1506C19.8741 33.0561 19.6742 33.2245 19.7383 33.4124L21.605 38.868C21.6126 38.8908 21.617 38.9147 21.617 38.9386V41.7234C21.617 41.8028 21.6604 41.8767 21.7311 41.9147L22.5949 42.383C22.7394 42.4612 22.9154 42.3569 22.9154 42.1918V39.6786C22.9154 39.6536 22.9197 39.6275 22.9284 39.6036L24.3801 35.6301C24.4192 35.5236 24.3703 35.4063 24.2681 35.3585L23.4761 34.9901C23.3576 34.9347 23.2185 34.9955 23.1773 35.1194L22.5829 36.9437C22.5188 37.1415 22.2396 37.1447 22.1711 36.9481L21.052 33.7591Z" fill="white"/>
<path fill-rule="evenodd" clip-rule="evenodd" d="M30.9755 24.5918C32.0196 24.7559 33.6538 25.3122 34.3633 26.4444C35.0739 27.5766 35.0022 28.0297 34.9642 28.5393C34.9262 29.0489 34.6382 29.5248 34.0971 29.9398C33.5919 30.3277 32.7857 30.7971 31.3025 30.105C31.1526 30.0354 30.9755 30.1408 30.9755 30.306V32.1977C30.9755 32.3617 30.8005 32.4671 30.656 32.3889L29.4489 31.7468C29.3793 31.7098 29.3348 31.637 29.3337 31.5577L29.2305 24.7668C29.2294 24.6646 29.2989 24.5755 29.4 24.5614C29.6694 24.5234 30.2377 24.4756 30.9755 24.5918ZM31.0624 26.2466C30.9451 26.2401 30.8505 26.3379 30.8505 26.4553V28.2828C30.8505 28.3632 30.8951 28.4371 30.9668 28.4741C32.1446 29.0836 32.7053 29.1673 33.1768 28.9565C33.6636 28.7381 33.6104 28.2394 33.5549 27.8645C33.4995 27.4897 33.1073 27.0224 32.7976 26.828C32.514 26.6498 31.8415 26.2869 31.0613 26.2456L31.0624 26.2466Z" fill="white"/>
<path fill-rule="evenodd" clip-rule="evenodd" d="M31.1928 39.0429C32.2369 39.207 33.8711 39.7633 34.5806 40.8955C35.2912 42.0277 35.2195 42.4808 35.1815 42.9903C35.1435 43.4999 34.8555 43.9758 34.3144 44.3909C33.8092 44.7788 33.003 45.2482 31.5198 44.5561C31.3699 44.4865 31.1928 44.5919 31.1928 44.7571V46.6488C31.1928 46.8128 31.0178 46.9182 30.8733 46.84L29.6662 46.1978C29.5966 46.1609 29.5521 46.0881 29.551 46.0088L29.4478 39.2179C29.4467 39.1157 29.5162 39.0266 29.6173 39.0125C29.8867 38.9745 30.455 38.9267 31.1928 39.0429ZM31.2797 40.6977C31.1623 40.6912 31.0678 40.789 31.0678 40.9063V42.7339C31.0678 42.8143 31.1124 42.8882 31.1841 42.9252C32.3619 43.5347 32.9225 43.6184 33.3941 43.4076C33.8809 43.1892 33.8276 42.6905 33.7722 42.3156C33.7168 41.9407 33.3246 41.4735 33.0149 41.279C32.7313 41.1008 32.0587 40.7379 31.2786 40.6966L31.2797 40.6977Z" fill="white"/>
<path fill-rule="evenodd" clip-rule="evenodd" d="M22.6207 20.7954C22.6076 20.7302 22.5663 20.6737 22.5066 20.6433L21.2353 19.9903C21.1147 19.9284 20.9669 19.9903 20.9278 20.1207L19.0046 26.4672C18.9742 26.5661 19.0188 26.6726 19.1089 26.7215L19.7761 27.0822C19.8967 27.1474 20.0466 27.0855 20.0868 26.9551L20.5323 25.5056C20.5747 25.3676 20.7366 25.3089 20.8572 25.3861L22.2491 26.2803C22.3001 26.3129 22.3349 26.3662 22.3458 26.4248L22.7271 28.5827C22.7391 28.6512 22.7836 28.7098 22.8456 28.7403L23.8963 29.252C24.0571 29.3303 24.2385 29.1912 24.2049 29.0152L22.6196 20.7965L22.6207 20.7954ZM22.0861 24.38C22.1263 24.5658 21.9253 24.7103 21.7623 24.6125L21.1343 24.2376C21.0495 24.1876 21.0093 24.0855 21.0365 23.991L21.3483 22.9099C21.4113 22.6936 21.721 22.7034 21.7699 22.924L22.0861 24.38Z" fill="white"/>
<path d="M14.8713 17.1316C14.8691 17.0545 14.8246 16.9838 14.7561 16.9469L13.9967 16.5405C13.8489 16.4612 13.6718 16.572 13.6772 16.7394L13.7565 19.0266C13.762 19.1971 13.5783 19.308 13.4306 19.2221L12.1039 18.4529C12.0387 18.4148 11.9985 18.3475 11.9952 18.2725L11.9018 15.5746C11.8996 15.4996 11.8583 15.4323 11.7942 15.3942L11.0488 14.9596C10.9011 14.8738 10.7164 14.9835 10.7218 15.1552L10.9695 22.4264C10.9717 22.5013 11.013 22.5687 11.0771 22.6067L11.8225 23.0413C11.9702 23.1272 12.155 23.0174 12.1495 22.8458L12.0691 20.5292C12.0637 20.3587 12.2473 20.2478 12.3951 20.3337L13.7218 21.1029C13.7869 21.141 13.8272 21.2083 13.8304 21.2833L13.9293 24.1398C13.9315 24.217 13.976 24.2876 14.0445 24.3246L14.805 24.7309C14.9528 24.8102 15.1299 24.6994 15.1245 24.5321L14.8724 17.1316H14.8713Z" fill="white"/>
</g>
</g>
<defs>
<clipPath id="clip0_230_1007">
<rect width="78" height="82.5896" fill="white"/>
</clipPath>
</defs>
</svg>
