<svg width="254" height="290" viewBox="0 0 254 290" fill="none" xmlns="http://www.w3.org/2000/svg">
<path d="M277.701 183.706C277.748 182.614 277.566 181.523 277.166 180.506C276.766 179.488 276.157 178.565 275.378 177.797C274.599 177.028 273.668 176.431 272.644 176.044C271.621 175.657 270.527 175.488 269.434 175.548C267.712 175.692 266.073 176.346 264.724 177.425C264.447 177.527 264.179 177.652 263.923 177.8C263.594 177.988 263.284 178.206 262.996 178.451C265.705 169.766 267.901 160.93 269.572 151.987C272.29 156.454 279.217 157.693 283.037 153.814C286.857 149.935 286.081 142.903 281.071 140.413C279.782 139.804 278.351 139.556 276.932 139.697C275.513 139.838 274.16 140.363 273.017 141.214C272.587 141.549 272.189 141.922 271.827 142.328C271.587 142.432 271.353 142.549 271.125 142.678C272.122 136.046 272.721 129.361 272.916 122.658C273.092 122.52 273.292 122.383 273.467 122.233C274.181 121.632 273.68 120.731 272.954 120.493V119.968C273.621 120.84 274.435 121.589 275.359 122.183C276.265 122.727 277.274 123.078 278.322 123.214C279.371 123.351 280.436 123.269 281.451 122.974C282.466 122.679 283.41 122.177 284.221 121.501C285.033 120.824 285.696 119.987 286.169 119.042C287.947 115.288 286.882 110.121 282.874 108.219C281.704 107.672 280.417 107.424 279.127 107.496C277.838 107.568 276.586 107.958 275.484 108.632C274.791 109.062 274.18 109.613 273.68 110.258C273.559 110.353 273.446 110.457 273.342 110.571C273.133 110.781 272.941 111.007 272.766 111.247C272.339 102.446 270.91 93.7233 268.507 85.2459C269.182 85.7751 269.934 86.1972 270.737 86.4971C272.398 87.1782 274.247 87.2531 275.958 86.7085C277.669 86.1639 279.133 85.0348 280.094 83.5191C280.866 82.2427 281.268 80.777 281.255 79.2855C281.241 77.7941 280.813 76.3357 280.018 75.0732C279.414 74.1277 278.591 73.341 277.619 72.7792C276.647 72.2175 275.554 71.8971 274.432 71.845C273.431 71.5441 272.364 71.5441 271.363 71.845C270.052 72.218 268.862 72.9287 267.912 73.9059C266.962 74.8832 266.286 76.0926 265.952 77.4131C264.24 72.8956 262.175 68.5195 259.777 64.3251C258.737 62.5233 257.61 60.7965 256.445 59.1074C258.039 59.4566 259.705 59.2678 261.18 58.5705C262.656 57.8731 263.858 56.7066 264.599 55.2536C265.073 54.2845 265.343 53.2283 265.39 52.1507C265.438 51.0732 265.263 49.9974 264.876 48.9903C264.49 47.9832 263.9 47.0663 263.143 46.2969C262.387 45.5275 261.479 44.9219 260.478 44.5179C259.469 44.1772 258.399 44.0573 257.339 44.1662C256.28 44.2751 255.257 44.6103 254.338 45.1491C253.42 45.6879 252.628 46.4176 252.017 47.2888C251.406 48.1601 250.989 49.1524 250.796 50.1985C250.639 50.6023 250.525 51.0218 250.458 51.4498C245.915 46.3909 240.814 41.8618 235.251 37.9488C236.505 37.4263 237.598 36.5814 238.418 35.5001C239.239 34.4188 239.758 33.1396 239.923 31.7928C240.059 30.4468 239.797 29.0906 239.169 27.8919C238.541 26.6932 237.576 25.7047 236.391 25.0485C235.117 24.3408 233.647 24.0667 232.203 24.2676C230.759 24.4686 229.419 25.1336 228.387 26.1622C228.275 26.2748 228.174 26.4249 228.062 26.5625C227.297 26.9422 226.628 27.4874 226.101 28.1584C225.574 28.8295 225.204 29.6094 225.018 30.4414C224.96 30.7806 224.927 31.1235 224.918 31.4674C219.728 28.5929 214.36 26.0519 208.847 23.8599C210.411 22.8135 211.549 21.2422 212.054 19.4305C212.377 18.3164 212.437 17.1427 212.23 16.0015C212.023 14.8602 211.554 13.7823 210.86 12.8525C210.166 11.9227 209.265 11.1663 208.229 10.6424C207.193 10.1186 206.05 9.84169 204.889 9.83341C203.829 9.8793 202.79 10.1378 201.832 10.5936C200.874 11.0493 200.018 11.6929 199.315 12.486C198.903 12.9567 198.554 13.4781 198.275 14.0376L197.561 14.7258C196.949 15.3252 196.509 16.0785 196.289 16.9064C196.068 17.7343 196.075 18.6062 196.309 19.4305C195.72 19.2428 195.119 19.0301 194.518 18.8549C187.639 16.7596 180.631 15.1169 173.537 13.9375C173.886 13.7091 174.217 13.4539 174.527 13.1742C175.366 12.3989 176.009 11.435 176.401 10.3624C176.794 9.28972 176.926 8.13907 176.785 7.00562C176.644 5.87217 176.235 4.78848 175.592 3.84418C174.949 2.89988 174.09 2.12215 173.086 1.57523C171.537 0.802429 169.779 0.552169 168.076 0.862015C167.55 0.661991 166.985 0.588343 166.426 0.647034C165.867 0.705725 165.329 0.895093 164.857 1.19984C163.152 2.35209 161.96 4.11859 161.531 6.1292C161.101 8.13982 161.467 10.2385 162.552 11.9855C162.665 12.1732 162.802 12.3359 162.928 12.5111C157.276 11.9403 151.598 11.6688 145.918 11.6978C146.655 10.0018 146.731 8.09155 146.131 6.34247C144.502 1.52518 140.093 -0.164028 135.559 0.173808C131.626 -0.914774 127.755 3.30194 127.943 7.46858C128.046 9.37867 128.797 11.1968 130.073 12.6237C125.022 13.1953 120.005 14.0306 115.042 15.1262C113.05 15.5516 111.071 16.0521 109.105 16.5902C111.76 12.9365 111.309 7.31843 107.025 4.89102C106.065 4.35552 105.008 4.0176 103.915 3.89726C102.822 3.77691 101.716 3.87657 100.662 4.19033H100.437C94.8001 4.31545 92.0945 10.9971 94.7876 15.5266C95.9247 17.4086 97.7039 18.8171 99.7979 19.493C93.5252 21.67 87.4212 24.3048 81.5353 27.3759L81.36 27.3133C80.8715 27.1256 80.4832 27.526 80.383 27.9764C79.2807 28.5645 78.2035 29.2277 77.1137 29.8033C77.6615 27.7746 77.5563 25.6253 76.8131 23.6597C76.5377 22.8402 76.0992 22.0848 75.5238 21.4391C74.9485 20.7934 74.2482 20.2707 73.4653 19.9024C72.6824 19.5342 71.833 19.328 70.9682 19.2964C70.1034 19.2647 69.2412 19.4082 68.4334 19.7183C66.7392 19.4271 64.9964 19.6707 63.4473 20.4153C61.8982 21.1598 60.6201 22.3682 59.7906 23.8724C59.0496 25.2472 58.6774 26.7904 58.7104 28.3515C58.7433 29.9127 59.1802 31.4387 59.9785 32.7812C60.662 33.8541 61.5682 34.7679 62.6357 35.4608C63.7032 36.1538 64.9072 36.6097 66.1662 36.7977C60.5956 40.7267 55.3283 45.0683 50.4088 49.7856H49.1563C48.9628 49.7936 48.7768 49.8627 48.6252 49.983C48.4735 50.1034 48.3641 50.2687 48.3125 50.4551C48.261 50.6416 48.27 50.8396 48.3384 51.0206C48.4067 51.2016 48.5308 51.3563 48.6928 51.4623C47.6657 52.4883 46.6636 53.5268 45.6741 54.5904C45.4592 53.0252 44.8421 51.5423 43.8829 50.2861C43.2465 49.3397 42.3287 48.6168 41.2589 48.2194C40.1891 47.822 39.0215 47.7703 37.9207 48.0714C35.4913 48.734 33.3422 50.1652 31.7956 52.1505C31.3904 52.4594 31.0244 52.8165 30.7058 53.214C30.0511 54.0488 29.5888 55.0175 29.3519 56.0512C29.1151 57.085 29.1095 58.1582 29.3356 59.1943C29.5617 60.2304 30.0139 61.2039 30.66 62.0454C31.3061 62.8869 32.13 63.5755 33.0732 64.0623C34.2431 64.6429 35.5251 64.9631 36.8309 65.0007C33.2388 69.7167 29.9904 74.6845 27.1109 79.8655C26.9976 79.924 26.9039 80.0145 26.8415 80.1257C26.7792 80.2369 26.7509 80.364 26.7602 80.4911C26.1966 81.5046 25.658 82.5307 25.1319 83.5692V83.4816C25.0362 83.3683 24.9026 83.2935 24.756 83.271C24.6093 83.2485 24.4594 83.2798 24.3341 83.3592C24.2088 83.4386 24.1165 83.5607 24.0744 83.7028C24.0322 83.8449 24.043 83.9975 24.1048 84.1322C24.2425 84.395 24.3553 84.6703 24.4931 84.9331C23.5787 86.7849 22.7269 88.6868 21.9128 90.5636C21.4564 89.7363 20.8635 88.9917 20.1591 88.3614C18.9479 87.2503 17.4153 86.5512 15.7814 86.3646C14.1475 86.1781 12.4965 86.5136 11.0655 87.3229C9.38685 88.2437 8.12342 89.7698 7.53318 91.5896C6.92896 92.7039 6.63681 93.9603 6.68751 95.2265C6.73821 96.4927 7.1299 97.7218 7.82128 98.7843C8.85079 100.353 10.4041 101.505 12.2047 102.037C14.0053 102.569 15.9363 102.445 17.654 101.687C16.6895 104.74 15.8628 107.843 15.1488 110.984L14.8357 111.072C13.9714 111.272 14.1593 112.323 14.8357 112.586C14.4975 114.187 14.1844 115.789 13.9213 117.403V117.678C13.8266 117.722 13.7442 117.788 13.6818 117.872C13.6194 117.956 13.5789 118.053 13.5639 118.157C13.549 118.26 13.5601 118.365 13.5963 118.463C13.6325 118.561 13.6925 118.648 13.771 118.717C13.3702 121.219 13.057 123.847 12.7815 126.437L12.1427 126.649C11.4036 126.887 11.554 128.163 12.3807 128.051H12.6186C12.6186 128.339 12.6186 128.614 12.6186 128.889C11.3867 127.995 9.90738 127.506 8.38494 127.488C6.80723 127.481 5.26743 127.971 3.98374 128.887C2.70005 129.803 1.73759 131.1 1.23273 132.593C0.956206 132.865 0.735021 133.188 0.581391 133.544C0.169175 134.387 -0.0292735 135.319 0.00348781 136.257C0.0362491 137.196 0.299219 138.111 0.76928 138.924C1.48964 140.181 2.5263 141.228 3.77646 141.961C5.02663 142.694 6.44688 143.088 7.89643 143.103C9.3317 143.143 10.7458 142.751 11.9548 141.977C11.8932 149.4 12.4041 156.817 13.4829 164.162C12.351 163.814 11.1603 163.699 9.98277 163.824C8.80521 163.949 7.66514 164.311 6.63133 164.887C5.15835 165.755 4.01203 167.083 3.36916 168.666C2.72629 170.248 2.62258 171.999 3.07402 173.646C3.38745 174.771 3.9974 175.791 4.84015 176.599C5.473 178.12 6.60572 179.38 8.05159 180.172C9.49747 180.963 11.1702 181.239 12.794 180.953C14.1638 180.713 15.4539 180.142 16.5517 179.289C18.2285 185.383 20.4113 191.326 23.0776 197.057L22.5766 197.195C19.8585 197.595 17.892 200.085 17.2156 202.662C16.8613 204.065 16.8843 205.536 17.2825 206.927C17.6806 208.318 18.4397 209.579 19.4828 210.583C22.6893 213.598 27.4241 212.785 30.3676 210.12C33.0758 214.25 36.0507 218.2 39.2734 221.944C39.2307 222.054 39.2154 222.173 39.2289 222.29C39.2424 222.407 39.2843 222.519 39.3509 222.616C39.4175 222.714 39.5068 222.793 39.6112 222.849C39.7156 222.904 39.8318 222.932 39.9498 222.933H40.1127C40.5511 223.433 41.002 223.909 41.4529 224.397C39.9053 225.513 38.8042 227.142 38.3455 228.993C37.8868 230.844 38.1002 232.798 38.9478 234.507C39.4868 235.556 40.2709 236.461 41.2339 237.144C42.1969 237.827 43.3104 238.268 44.4801 238.43C45.6499 238.592 46.8415 238.47 47.9541 238.074C49.0668 237.679 50.0677 237.022 50.8723 236.158C51.3111 235.665 51.6857 235.119 51.9871 234.532C56.6338 238.407 61.5896 241.897 66.805 244.967C65.565 246.012 64.7792 247.497 64.613 249.109C64.0934 250.668 64.0934 252.354 64.613 253.913C66.1287 258.468 72.2036 259.819 75.9739 257.279C76.9762 256.615 77.7853 255.698 78.3197 254.622C78.8541 253.545 79.0948 252.347 79.0177 251.148C79.7441 251.448 80.4706 251.774 81.1971 252.062C81.3525 252.489 81.5323 252.906 81.7357 253.313C82.1491 254.139 83.4267 253.763 83.5645 252.95C84.5916 253.325 85.6187 253.701 86.6709 254.064C85.2931 258.205 84.0405 262.284 82.7879 266.488C80.8088 273.195 91.7062 277.499 94.4744 270.905C95.3387 268.828 96.1654 266.739 96.9796 264.649C97.919 265.024 98.8584 265.375 99.7979 265.725C99.2235 266.648 98.8997 267.705 98.8585 268.791C98.633 274.121 104.457 277.887 109.38 276.298C110.723 275.855 111.915 275.047 112.822 273.964C113.73 272.88 114.316 271.565 114.516 270.167C118.875 271.183 123.286 271.96 127.73 272.494C127.378 273.593 127.378 274.774 127.73 275.873C127.914 276.561 128.281 277.187 128.793 277.683C129.305 278.178 129.942 278.526 130.636 278.688C131.023 279.361 131.513 279.969 132.089 280.49C133.018 281.281 134.134 281.821 135.331 282.059C136.528 282.296 137.766 282.223 138.927 281.847C140.088 281.47 141.133 280.803 141.962 279.908C142.791 279.013 143.377 277.921 143.663 276.736C143.945 275.645 143.992 274.506 143.801 273.395C147.559 273.395 151.316 273.158 155.074 272.77L156.59 283.893C157.755 292.339 171.157 291.901 169.98 283.343C169.717 281.478 169.466 279.589 169.203 277.725C169.999 278.624 170.995 279.324 172.111 279.77C173.227 280.215 174.432 280.393 175.629 280.29C177.247 280.132 178.759 279.414 179.903 278.26C181.047 277.106 181.75 275.589 181.892 273.971C182.019 272.819 181.874 271.653 181.469 270.567C181.065 269.481 180.412 268.504 179.562 267.715C186.756 265.476 193.725 262.573 200.38 259.044C200.38 259.256 200.38 259.456 200.38 259.657C200.535 261.335 201.219 262.921 202.333 264.186C203.447 265.452 204.934 266.333 206.58 266.701C208.144 267.061 209.78 266.955 211.284 266.397C212.789 265.839 214.097 264.853 215.047 263.561C216.088 262.052 216.572 260.231 216.419 258.406C216.266 256.581 215.485 254.865 214.208 253.551C213.607 252.916 212.899 252.391 212.116 251.999C217.714 248.158 222.973 243.847 227.836 239.111C227.858 239.397 227.899 239.682 227.961 239.962C228.119 241.028 228.52 242.044 229.132 242.931C229.744 243.818 230.552 244.553 231.494 245.08C232.533 245.702 233.703 246.073 234.912 246.163C236.12 246.253 237.332 246.059 238.452 245.597C239.572 245.135 240.568 244.417 241.361 243.502C242.154 242.586 242.721 241.498 243.017 240.325C244.057 235.633 240.512 230.665 235.715 230.615C236.191 230.052 236.692 229.502 237.155 228.914C240.18 225.14 242.986 221.196 245.56 217.102C246.131 219.212 247.471 221.033 249.318 222.207C256.307 226.349 264.499 217.803 260.466 210.946C259.647 209.556 258.455 208.424 257.025 207.676C255.595 206.929 253.984 206.596 252.374 206.717C252.045 206.746 251.718 206.801 251.397 206.879C255.055 199.819 258.211 192.51 260.841 185.007C261.205 187.014 262.245 188.836 263.787 190.171C265.329 191.507 267.282 192.277 269.321 192.352C274.094 192.365 277.451 188.148 277.701 183.706ZM265.025 158.018C262.961 159.31 260.99 160.744 259.125 162.31C258.023 158.669 256.796 155.04 255.718 151.437C255.869 150.423 256.007 149.422 256.144 148.409C256.228 148.568 256.368 148.69 256.538 148.75C256.707 148.811 256.893 148.805 257.059 148.734C258.565 148.033 260.003 147.195 261.355 146.231C262.733 148.734 264.148 151.236 265.614 153.739C265.685 153.859 265.779 153.965 265.889 154.052C265.664 155.378 265.313 156.692 265.025 158.018ZM254.929 156.517C255.43 159.019 256.007 161.522 256.695 164.024C255.443 164.9 254.19 165.763 252.938 166.627C253.677 163.298 254.391 159.933 254.929 156.517ZM250.408 176.149C250.708 178.176 251.034 180.19 251.372 182.205C250.297 182.576 249.201 182.885 248.09 183.131C248.917 180.828 249.706 178.513 250.408 176.149ZM216.738 224.547C195.67 195.33 174.326 166.114 152.419 137.335C165.846 145.076 179.295 152.784 192.764 160.458C209.048 169.705 225.331 180.678 242.541 188.123C241.189 191.226 239.736 194.254 238.12 197.182C232.524 207.401 225.303 216.643 216.738 224.547ZM236.178 215.6C235.79 215.6 235.414 215.6 235.026 215.6C233.473 215.6 231.932 215.463 230.404 215.325C232.107 213.185 233.723 210.996 235.226 208.756C235.689 211.015 236.007 213.301 236.178 215.6ZM227.047 223.996C225.719 223.896 224.404 223.759 223.089 223.596C224.517 222.128 225.916 220.622 227.285 219.079C227.172 220.693 227.085 222.345 227.047 223.996ZM217.44 233.255L214.296 232.492L213.519 232.317C215.089 231.057 216.626 229.744 218.129 228.376C217.966 230.015 217.753 231.641 217.44 233.255ZM195.683 158.181C181.378 150.064 167.086 141.885 152.807 133.644L251.886 147.545C252.298 147.609 252.719 147.525 253.076 147.307C251.615 160.414 248.431 173.271 243.606 185.545C228.688 175.16 211.478 167.19 195.683 158.181ZM131.313 253.526C132.828 221.306 136.323 189.374 139.392 157.292C140.331 163.086 140.757 169.017 141.521 174.56C143.191 186.872 144.861 199.184 146.531 211.496L152.281 253.438C145.31 254.127 138.289 254.157 131.313 253.526ZM136.536 257.379C134.695 259.131 132.878 260.92 131.075 262.722L130.949 262.522C129.854 260.637 128.895 258.676 128.081 256.654C130.904 256.962 133.722 257.171 136.536 257.279V257.379ZM103.718 247.369C108.904 233.468 113.852 219.467 119.3 205.691C124.97 191.293 130.816 176.958 136.837 162.685C131.926 192.552 129.872 223.07 128.632 253.25C120.122 252.234 111.761 250.227 103.718 247.269V247.369ZM106.837 251.974C105.109 253.259 103.38 254.51 101.652 255.728C101.464 255.227 101.263 254.739 101.088 254.239C101.564 252.988 102.053 251.736 102.528 250.485C103.956 251.023 105.397 251.449 106.837 251.911V251.974ZM41.7034 196.106C35.9788 185.718 32.0011 174.461 29.9292 162.785C30.0081 162.798 30.0884 162.798 30.1672 162.785C62.7342 157.105 94.8377 148.434 126.54 139.074C99.1591 159.395 70.6129 177.95 41.6784 196.043L41.7034 196.106ZM41.0646 201.349C39.6081 200.375 38.0601 199.545 36.4426 198.871C36.8248 197.689 37.2808 196.531 37.8079 195.405C38.835 197.395 39.8997 199.359 41.0396 201.286L41.0646 201.349ZM29.6662 174.935C28.3569 173.742 26.9583 172.65 25.4826 171.669C26.4398 170.751 27.3041 169.741 28.0629 168.654C28.5263 170.693 29.0524 172.795 29.6411 174.872L29.6662 174.935ZM29.566 160.658C28.4168 153.264 28.0473 145.77 28.4637 138.299C28.924 130.115 30.2508 122.004 32.4219 114.1C66.1662 123.496 101.915 126.75 136.636 131.442L134.72 132.931C99.8981 143.203 64.6506 151.437 29.5409 160.596L29.566 160.658ZM26.1715 158.156C24.92 157.206 23.5871 156.369 22.1883 155.653C22.8149 154.6 23.596 153.647 24.5056 152.825C24.6107 152.864 24.7201 152.889 24.8313 152.901H25.1068C25.2856 152.905 25.4611 152.853 25.6078 152.75C25.7331 154.44 25.9085 156.254 26.1465 158.056L26.1715 158.156ZM79.2807 49.1975C98.4451 74.4476 117.86 99.6226 137.363 124.648C108.854 108.006 80.5458 90.8639 51.5737 75.0482C59.2662 64.897 68.6262 56.1223 79.2556 49.0974L79.2807 49.1975ZM61.3563 52.651C63.8615 52.8762 66.279 53.0764 68.7465 53.2266C66.2414 55.2536 63.7362 57.3806 61.4315 59.6079C61.252 58.2178 61.16 56.8178 61.1559 55.4162C61.1434 54.3902 61.2311 53.4643 61.3313 52.5509L61.3563 52.651ZM91.1551 33.5945C93.3221 34.533 95.5141 35.3838 97.7186 36.097C94.8627 37.3483 92.057 38.5995 89.3263 39.9634C90.1801 37.8854 90.7855 35.7141 91.1301 33.4944L91.1551 33.5945ZM102.992 37.3483C109.078 35.1867 115.328 33.5131 121.68 32.3433C127.091 62.6359 133.116 93.0661 141.208 122.771C121.618 97.2703 101.577 72.333 80.6585 48.1715C82.2994 47.1205 83.9779 46.1195 85.6688 45.1435L85.8066 45.0684C91.2928 41.9669 97.0337 39.3381 102.967 37.2106L102.992 37.3483ZM184.196 36.9729V37.0355C175.591 51.7876 168.502 67.6158 161.349 83.1187C155.162 96.5446 149.074 110.108 143.813 123.934C137.55 93.2037 130.611 62.6234 124.699 31.8052C144.635 28.5604 165.065 30.2883 184.171 36.8353L184.196 36.9729ZM145.605 26.9629C146.319 25.8994 146.957 24.7357 147.596 23.6346C148.736 24.8859 149.901 26.0245 151.091 27.1506C149.245 26.9588 147.408 26.8503 145.58 26.8253L145.605 26.9629ZM161.976 28.2142C163.491 26.6376 164.919 24.9735 166.523 23.4595C167.742 25.5699 168.994 27.6553 170.28 29.7157C167.5 28.99 164.731 28.4644 161.951 28.0766L161.976 28.2142ZM189.608 35.3713C185.326 33.7351 180.961 32.3276 176.531 31.1546C178.773 29.9034 180.977 28.502 183.182 27.1506C183.47 26.9629 183.783 26.7878 184.084 26.6126L185.048 28.014C186.421 30.2342 187.988 32.3279 189.733 34.2702C189.623 34.4023 189.551 34.5616 189.525 34.7312C189.498 34.9009 189.518 35.0745 189.582 35.2337L189.608 35.3713ZM200.492 44.0424C200.492 44.1675 200.593 44.3052 200.655 44.4428C200.742 44.6099 200.884 44.7424 201.056 44.8182C201.056 45.2436 201.457 45.6816 201.92 45.4814L202.609 45.2186C209.192 48.8251 215.409 53.0617 221.172 57.8687C197.131 81.4013 171.878 103.666 145.517 124.572C151.892 110.809 157.942 96.9074 164.443 83.1938C171.57 68.1789 179.574 53.4643 186.539 38.3367C186.604 38.1862 186.643 38.0252 186.651 37.8613C191.4 39.5817 196.036 41.6002 200.53 43.9048L200.492 44.0424ZM190.797 35.8218C190.998 35.8218 191.186 35.6966 191.374 35.634C191.456 35.6996 191.544 35.7582 191.637 35.8092C191.762 35.8671 191.899 35.895 192.037 35.8907C192.175 35.8864 192.311 35.85 192.432 35.7844C192.554 35.7188 192.658 35.6259 192.738 35.5129C192.817 35.3999 192.869 35.27 192.889 35.1335C194.555 34.5955 196.184 33.9949 197.812 33.3693C197.806 33.4735 197.806 33.5779 197.812 33.6821C198.188 35.559 198.501 37.5109 198.927 39.4128C196.296 37.9864 193.566 36.7852 190.772 35.6841L190.797 35.8218ZM206.793 43.4043C208.772 42.6535 210.764 41.9278 212.768 41.2271C213.073 43.5193 213.529 45.789 214.133 48.0214C211.803 46.4073 209.298 44.8432 206.793 43.4043ZM73.5188 49.4978C73.9197 46.9328 74.333 44.3677 74.7714 41.7902C77.0678 42.6243 79.3642 43.421 81.6606 44.1801C78.8423 45.8192 76.1242 47.6085 73.5188 49.4978ZM49.4444 72.6959C49.2064 70.7064 48.4423 68.7044 48.0665 66.7525L47.9914 66.252H48.6678C50.722 66.1394 52.8388 66.252 54.9306 66.252C53.0267 68.3415 51.1854 70.4437 49.4444 72.6959ZM48.0289 74.5978C47.5154 75.2985 46.9768 75.9866 46.4758 76.6999C43.3887 76.4546 40.2823 76.6654 37.2568 77.3255C36.643 75.4736 36.0919 73.5718 35.5783 71.7074C36.6055 70.1934 37.6827 68.7044 38.7975 67.2154C41.2275 66.9026 43.6575 66.5898 46.1125 66.3896C46.1125 66.6148 46.1125 66.8401 46.2002 67.0653C46.5885 69.5928 46.7263 72.4081 48.0289 74.5978ZM38.3591 79.4901C40.5385 79.2274 42.8057 79.2023 44.9977 78.852C43.5071 81.0542 42.0792 83.2814 40.739 85.5962C39.9498 83.5442 38.8601 81.5922 38.0334 79.5402L38.3591 79.4901ZM50.509 76.5247C78.6669 94.8804 107.952 111.66 137.062 128.476C102.24 123.634 67.4814 118.466 32.9229 112.21C36.6639 99.3843 42.6151 87.3083 50.509 76.5247ZM145.705 128.451C172.856 106.976 198.783 84.0008 223.364 59.6329C224.392 60.5338 225.394 61.4472 226.383 62.3856C236.049 71.3563 243.659 82.3089 248.692 94.4925C248.471 94.2842 248.194 94.1466 247.895 94.0975C247.595 94.0484 247.288 94.0902 247.013 94.2173C213.903 107.155 180.359 118.871 146.381 129.365L145.705 128.451ZM235.089 66.1769C238.149 66.6899 241.235 67.0407 244.333 67.2279C244.333 67.2279 244.333 67.2905 244.333 67.3155C243.919 70.2559 243.356 73.2214 243.08 76.1868C240.613 72.6947 237.94 69.3521 235.076 66.1769H235.089ZM256.896 113.311C256.406 109.141 255.623 105.01 254.554 100.949C256.921 103.014 259.326 105.241 261.806 107.305C260.015 109.257 258.386 111.309 256.896 113.311ZM257.272 115.814C258.425 118.391 259.73 120.898 261.18 123.321C261.806 124.397 262.432 125.623 263.121 126.837C261.28 128.151 259.363 129.465 257.66 130.879C257.815 125.894 257.66 120.904 257.196 115.939L257.272 115.814ZM254.391 122.796C254.479 129.986 254.153 137.176 253.414 144.33C253.198 144.193 252.954 144.107 252.7 144.079C219.795 139.5 186.802 135.246 153.834 130.766C185.616 120.848 217.047 109.812 248.128 97.6582C248.473 97.5317 248.771 97.3037 248.983 97.0044C249.196 96.7051 249.312 96.3484 249.318 95.9815C252.568 104.554 254.285 113.63 254.391 122.796ZM253.138 96.432C251.517 91.5783 249.419 86.8967 246.875 82.4556C250.558 83.7068 254.253 84.9581 257.961 86.0967C256.407 89.2123 255.042 92.4781 253.602 95.4185C253.514 95.6937 253.326 96.0566 253.138 96.432ZM244.257 192.565C244.599 194.044 244.867 195.539 245.059 197.044L241.577 198.083C242.529 196.256 243.431 194.429 244.27 192.565H244.257ZM256.27 147.295C256.382 146.382 256.495 145.468 256.595 144.555C256.833 142.465 257.021 140.388 257.184 138.299C258.186 140.263 259.226 142.215 260.265 144.154C258.82 145.043 257.483 146.097 256.282 147.295H256.27ZM267.856 142.29C267.48 145.005 267.067 147.733 266.603 150.461C265.564 148.596 264.461 146.707 263.372 144.905C264.699 144.054 266.428 143.279 267.868 142.29H267.856ZM268.232 139.4C266.102 139.925 263.973 141.752 262.182 142.941C260.603 140.321 259 137.731 257.372 135.17C257.372 134.37 257.485 133.556 257.51 132.756C259.802 131.504 261.969 130.04 264.136 128.576C264.841 129.704 265.721 130.713 266.741 131.567C266.899 131.701 267.096 131.781 267.303 131.796C267.51 131.811 267.717 131.76 267.893 131.65C268.068 131.54 268.205 131.376 268.281 131.184C268.358 130.991 268.371 130.779 268.319 130.578C267.856 129.323 267.224 128.136 266.44 127.05L269.459 125.085C269.259 129.828 268.833 134.657 268.244 139.4H268.232ZM269.584 122.145C268.081 123.159 266.628 124.247 265.175 125.323C264.499 124.41 263.823 123.509 263.246 122.608C261.568 119.993 260.052 117.253 258.336 114.65C260.002 112.848 261.656 111.034 263.347 109.282L263.697 108.944C265.203 110.125 266.789 111.2 268.445 112.16C268.594 112.249 268.765 112.297 268.939 112.297C269.114 112.297 269.285 112.249 269.434 112.16C269.618 115.48 269.668 118.808 269.584 122.145ZM269.346 110.121C268.24 108.986 267.069 107.916 265.839 106.917C266.841 105.991 267.831 105.066 268.795 104.102C269.021 106.042 269.221 108.044 269.346 110.058V110.121ZM265.902 88.5491C266.976 92.6685 267.813 96.8462 268.407 101.062C266.749 102.356 265.187 103.769 263.735 105.291C260.741 103.039 257.547 100.949 254.654 98.8218C254.639 98.7616 254.618 98.7029 254.591 98.6467C255.105 97.7458 255.606 96.8449 256.107 95.9315C257.096 94.1046 258.061 92.2653 259.038 90.4385C259.639 89.3124 260.29 88.1988 260.917 87.0727C262.558 87.4731 264.223 88.0111 265.902 88.4866V88.5491ZM263.66 81.1793C264.198 82.7309 264.712 84.2949 265.163 85.8715C264.123 85.5336 263.071 85.2333 262.031 84.908C262.677 83.691 263.222 82.423 263.66 81.1167V81.1793ZM262.883 79.0772C262.747 79.0733 262.612 79.1006 262.488 79.157C262.365 79.2134 262.255 79.2974 262.169 79.4025C261.036 80.8574 260.022 82.4014 259.138 84.0196C254.629 82.6558 250.094 81.342 245.522 80.1408C245.422 79.9656 245.322 79.7904 245.209 79.6153C245.973 75.5733 246.513 71.4921 246.825 67.3906C250.249 67.4925 253.671 67.1263 256.996 66.302C259.293 70.3767 261.262 74.6277 262.883 79.0147V79.0772ZM244.433 49.723C248.707 53.9963 252.45 58.7688 255.581 63.9372C252.812 63.8371 250.044 63.9372 247.276 63.9372C247.881 60.7374 248.02 57.4671 247.689 54.2275C247.689 53.8647 247.088 53.6269 246.913 54.0399C245.695 57.2512 244.956 60.6239 244.721 64.0498C240.767 64.2163 236.806 64.1577 232.859 63.8746C228.786 59.5998 224.385 55.6505 219.694 52.0629C223.264 51.4247 226.834 50.6865 230.391 49.9608C230.391 50.1485 230.391 50.3487 230.391 50.5363C230.554 54.3526 230.391 58.3316 231.256 62.0478C231.328 62.2597 231.466 62.4428 231.651 62.5697C231.835 62.6966 232.056 62.7607 232.279 62.7522C232.503 62.7438 232.718 62.6634 232.893 62.5229C233.067 62.3824 233.192 62.1895 233.247 61.9727C233.698 58.219 233.047 54.2526 232.759 50.4363C232.759 50.1485 232.759 49.8607 232.696 49.5604C235.765 49.0974 239.184 48.6595 241.652 47.208C242.654 47.9463 243.568 48.7846 244.433 49.6605V49.723ZM239.422 45.1685C237.091 45.4582 234.795 45.9865 232.571 46.7451C232.383 44.2426 232.158 41.8527 231.869 39.4128C234.481 41.1834 237.001 43.0835 239.422 45.106V45.1685ZM226.032 35.6591C226.359 36.1482 226.737 36.6012 227.16 37.0104C228.008 37.7821 229.045 38.3173 230.166 38.562C230.166 41.4899 230.166 44.4303 230.341 47.3207C226.12 48.3342 221.874 49.3226 217.69 50.4988L217.39 50.2611C216.776 46.9077 216.137 43.6045 215.498 40.2511C218.216 39.3002 220.934 38.3493 223.64 37.3733C223.863 37.2236 224.032 37.0062 224.122 36.7533C224.212 36.5003 224.218 36.2253 224.139 35.9686C224.06 35.712 223.901 35.4874 223.685 35.328C223.469 35.1686 223.207 35.0829 222.939 35.0835C220.263 35.8118 217.628 36.6848 215.047 37.6986C214.571 34.9209 214.171 32.1055 213.92 29.2402C218.076 31.126 222.12 33.2483 226.032 35.5965V35.6591ZM199.127 23.5721C199.599 23.9422 200.112 24.257 200.655 24.5105C201.753 25.0414 202.955 25.3234 204.175 25.3363C206.83 26.3248 209.473 27.3759 212.079 28.5145C212.025 31.9565 212.167 35.3988 212.505 38.8247C209.912 39.9133 207.369 41.102 204.876 42.3657C203.937 41.8527 202.998 41.3397 202.046 40.8517C201.52 38.4368 200.68 36.0469 200.079 33.6821C199.979 33.2942 199.891 32.8938 199.804 32.5059L200.029 32.4058C202.534 31.3423 205.415 30.3288 207.444 28.477C208.196 27.7763 207.319 26.6501 206.442 26.8879C203.947 27.776 201.543 28.9032 199.265 30.2537C198.701 27.8513 198.138 25.4489 197.549 23.0465L199.127 23.5721ZM196.033 22.5836C196.033 22.5836 196.033 22.6461 196.033 22.6962C196.371 25.5115 196.847 28.3018 197.386 31.0921C195.632 31.8553 193.854 32.5685 192.063 33.2442C190.547 30.7417 188.142 28.6521 186.413 26.3999C186.201 26.1246 186.013 25.8368 185.812 25.5615C187.37 24.7619 188.784 23.709 189.996 22.446C190.15 22.2762 190.244 22.0606 190.265 21.8323C190.285 21.6039 190.23 21.3751 190.108 21.181C189.986 20.9868 189.803 20.8378 189.589 20.7567C189.374 20.6756 189.139 20.6668 188.919 20.7318C187.229 21.3214 185.65 22.1883 184.247 23.2968C183.132 21.7202 182.017 20.1312 180.927 18.5421C185.925 19.6432 190.998 20.957 196.033 22.521V22.5836ZM174.151 17.5786C174.227 17.5182 174.299 17.4512 174.364 17.3784C175.954 17.6537 177.545 17.954 179.149 18.2793C180.216 20.4321 181.408 22.5211 182.718 24.5355L181.904 25.1111C179.462 26.7878 176.969 28.4519 174.602 30.2287C174.486 30.3146 174.392 30.4259 174.326 30.554L173.725 30.4038C172.009 27.526 170.193 24.6606 168.314 21.8454C170.18 20.2187 172.147 18.8299 174.151 17.4785V17.5786ZM171.358 16.8654C169.813 17.7416 168.324 18.7111 166.898 19.7683C166.009 18.517 165.107 17.1782 164.193 15.9145C166.589 16.1147 168.978 16.3983 171.358 16.7653V16.8654ZM162.352 15.7017C162.352 15.8238 162.382 15.944 162.439 16.0521C163.328 17.7288 164.243 19.4179 165.182 21.0571C162.844 22.9153 160.793 25.1077 159.095 27.5635C159.095 27.6386 159.095 27.7012 159.02 27.7637C157.629 27.6011 156.239 27.4509 154.836 27.3383C154.836 27.3383 154.836 27.3383 154.836 27.2633C153.041 25.1449 151.134 23.1234 149.124 21.2072C150.502 19.1427 151.93 17.1157 153.258 15.0261C156.281 15.1095 159.312 15.3014 162.352 15.6017V15.7017ZM143.387 14.9885C145.968 14.9885 148.561 14.9009 151.141 14.9885C149.813 16.465 148.636 18.0416 147.383 19.6432C145.855 18.2042 144.314 16.7903 142.799 15.3889L143.387 14.9885ZM130.386 15.7893C131.501 15.6642 132.615 15.5766 133.743 15.4765C135.083 16.1143 136.532 16.4922 138.014 16.5902C139.001 16.6489 139.99 16.5259 140.932 16.2273C142.536 18.0166 144.164 19.8684 145.83 21.6952C144.502 23.2949 143.355 25.0364 142.41 26.8879C139.73 26.8879 137.054 27.013 134.381 27.2633C132.615 25.3489 130.536 23.6972 128.607 21.9705C129.326 19.9483 129.92 17.8841 130.386 15.7893ZM127.63 24.2602C128.745 25.3738 129.872 26.5 131.037 27.5761C129.171 27.7763 127.279 28.0015 125.463 28.2892C126.3 26.9889 127.025 25.6202 127.63 24.1977V24.2602ZM128.382 16.0146C127.856 17.441 127.304 18.8549 126.703 20.2563L122.87 16.7653C124.699 16.465 126.54 16.1897 128.382 15.952V16.0146ZM112.987 18.7923C115.43 18.2042 117.898 17.7038 120.365 17.2533C122.131 18.9925 123.922 20.7067 125.714 22.4209C125.626 22.5961 125.551 22.7838 125.463 22.959C124.461 24.9485 123.171 26.8003 122.257 28.8273C121.492 28.9649 120.716 29.0901 119.939 29.2527C118.198 29.6031 116.457 30.0035 114.741 30.4289C113.654 29.0265 112.362 27.7949 110.908 26.7753C111.836 24.1594 112.532 21.4672 112.987 18.7298V18.7923ZM109.981 29.4029C110.62 30.016 111.234 30.6541 111.923 31.2047C110.896 31.4799 109.869 31.7427 108.867 32.0555C109.297 31.1757 109.67 30.2687 109.981 29.3403V29.4029ZM110.958 19.2928C110.37 21.3448 109.706 23.3844 109.017 25.3864L108.779 25.2112C107.01 23.8151 105.133 22.56 103.167 21.4575C105.748 20.64 108.345 19.8976 110.958 19.2303V19.2928ZM95.9274 24.0225C97.4931 23.4219 99.0839 22.8589 100.675 22.3208C102.867 24.0726 105.372 25.474 107.564 27.2382C107.727 27.3633 107.877 27.501 108.027 27.6386C107.069 29.3491 106.296 31.157 105.723 33.0315C103.869 33.6446 101.965 34.2827 100.211 35.0084C100.13 34.8182 99.9831 34.6631 99.7979 34.5705C97.1345 33.1755 94.3811 31.9591 91.5559 30.9294C91.7814 29.1026 91.9067 27.2883 91.9943 25.5991C93.3095 25.036 94.6373 24.473 95.9901 23.96L95.9274 24.0225ZM90.0528 26.525C89.8775 27.8013 89.6645 29.0525 89.414 30.2787L85.2931 28.7147C86.8462 27.9139 88.4746 27.1256 90.1155 26.3999L90.0528 26.525ZM82.9382 29.9659C84.9048 30.8418 86.8838 31.7677 88.8754 32.6561C88.7877 33.019 88.7251 33.3693 88.6374 33.7196C87.9109 36.4223 86.6709 38.9874 86.0446 41.6901C85.4559 42.0154 84.792 42.3157 84.2659 42.6535C81.2097 41.5649 78.1033 40.5765 74.9844 39.638C75.2224 37.9489 75.4603 36.2597 75.6357 34.6331C75.6567 34.4747 75.6306 34.3137 75.5605 34.1701C78.0281 32.5185 80.4957 31.1421 83.0008 29.8408L82.9382 29.9659ZM74.0199 34.9584C73.7067 36.2847 73.4312 37.611 73.1556 38.9373L69.5858 37.8863C71.0137 36.8853 72.4917 35.8968 74.0199 34.9584ZM67.757 39.1876L72.7673 41.0394C72.1786 44.0299 71.6275 47.0329 71.0513 50.0108C71.0054 50.2049 71.0113 50.4076 71.0685 50.5986C71.1256 50.7896 71.232 50.9623 71.3769 51.0994L70.9511 51.3997C70.8259 51.2658 70.6652 51.1703 70.4876 51.1244C67.6285 50.4741 64.7214 50.0557 61.7947 49.8732C61.9952 48.7971 62.2332 47.7211 62.5212 46.6575C62.8093 45.594 61.0683 45.131 60.7426 46.2446C60.4169 47.3582 60.1038 48.5094 59.8157 49.7481C58.1247 49.6855 56.4337 49.6605 54.8054 49.673C58.8955 45.9069 63.2215 42.4047 67.757 39.1876ZM52.4004 51.8627C54.6801 52.0003 56.9723 52.163 59.2395 52.3757C58.6254 55.4316 58.6254 58.579 59.2395 61.6349C58.538 62.3356 57.8491 63.0238 57.1727 63.737C53.9971 63.3947 50.7914 63.4451 47.6281 63.8871C47.315 61.7725 47.0645 59.6579 46.8891 57.5183C48.6594 55.558 50.4965 53.6728 52.4004 51.8627ZM43.6324 62.1229C44.2327 61.3659 44.7141 60.5221 45.0603 59.6204C45.1756 59.4968 45.2843 59.3674 45.386 59.2325C45.5113 60.8841 45.6741 62.5233 45.862 64.1624C44.0332 64.4377 42.2295 64.7755 40.4884 65.1258L41.3903 64.0248C42.2364 63.5215 42.98 62.8636 43.5823 62.0853L43.6324 62.1229ZM34.426 73.5717C34.6514 74.9356 34.9395 76.3495 35.2903 77.7634C33.9124 78.0762 32.5722 78.4141 31.257 78.7519C32.2089 77.0168 33.2486 75.2901 34.3759 73.5717H34.426ZM29.9919 80.854C31.9208 80.4619 33.8623 80.1241 35.8163 79.8405C36.5321 82.4321 37.6705 84.8883 39.1858 87.1102C39.312 87.2709 39.4814 87.3925 39.6743 87.4605L39.048 88.5992C35.8251 89.0351 32.656 89.8024 29.591 90.8889C28.8144 89.3749 27.9627 87.886 27.0859 86.4846C27.9752 84.6077 28.9272 82.7434 29.9919 80.854ZM26.0963 88.5366C26.5598 89.5752 26.9857 90.6137 27.4241 91.6647C26.3469 92.0526 25.2697 92.4655 24.23 92.916C24.8187 91.452 25.4325 90.0006 26.0963 88.5616V88.5366ZM23.3657 95.0306L28.2633 93.6292C29.0775 95.5936 29.8917 97.5706 30.7685 99.5476C30.8669 99.7826 31.0494 99.9727 31.2803 100.081C31.5113 100.189 31.7743 100.207 32.0181 100.132C32.2618 100.057 32.469 99.8945 32.5992 99.6754C32.7294 99.4563 32.7733 99.1966 32.7225 98.9469C32.2085 96.8923 31.504 94.8901 30.6181 92.966C32.9605 92.3154 35.4155 91.8524 37.7578 91.1267C35.4131 95.7665 33.3794 100.557 31.6703 105.466C31.5947 105.209 31.4206 104.993 31.186 104.864C30.9513 104.735 30.6752 104.704 30.4177 104.778C28.1508 105.62 25.9732 106.684 23.9169 107.956C23.5035 107.418 23.1027 106.88 22.7394 106.342C22.013 105.228 21.3115 104.102 20.6101 102.963C21.4869 100.298 22.3637 97.6582 23.3657 95.0556V95.0306ZM20.0088 105.04C20.4848 105.879 20.9733 106.717 21.4869 107.543L22.1507 108.669C21.0234 109.136 19.8836 109.553 18.7312 109.92C19.1195 108.381 19.5454 106.742 20.0088 105.128V105.04ZM16.5392 121.169C17.4261 122.038 18.2626 122.957 19.0444 123.922C18.0571 124.393 17.0452 124.81 16.0131 125.173C16.1634 123.947 16.4014 122.595 16.5392 121.257V121.169ZM15.4495 136.309C15.583 135.261 15.5321 134.199 15.2992 133.168C15.4244 131.179 15.5747 129.189 15.7751 127.213C17.1668 126.822 18.5274 126.328 19.846 125.736L20.2468 125.561C21.1729 127.163 22.211 128.697 23.3532 130.153C23.992 130.866 25.0692 130.04 24.8438 129.227C24.2655 127.545 23.3491 126 22.1507 124.685C23.6605 124.034 25.0204 123.08 26.1465 121.882C26.6976 121.232 26.1465 119.968 25.182 120.343C23.6187 121.111 22.1192 122.002 20.6978 123.008C19.5131 121.657 18.223 120.402 16.8398 119.255C17.2406 116.802 17.7124 114.366 18.2552 111.947C19.9512 111.558 21.624 111.073 23.2655 110.496C23.9509 111.665 24.7939 112.734 25.7707 113.674C25.934 113.811 26.1402 113.887 26.3537 113.889C26.5671 113.89 26.7744 113.817 26.9395 113.682C27.1046 113.547 27.2171 113.358 27.2576 113.149C27.298 112.939 27.2639 112.722 27.161 112.535C26.6617 111.537 26.066 110.59 25.3824 109.708C27.5488 109.039 29.5562 107.936 31.282 106.467C30.0294 110.133 28.9773 113.874 28.1005 117.728C26.1022 126.394 25.1186 135.262 25.1694 144.154C24.0252 142.776 22.6829 141.574 21.1863 140.588C22.4381 139.497 23.5755 138.281 24.5807 136.96C25.1694 136.146 23.9795 135.208 23.2154 135.708C21.7234 136.676 20.3597 137.828 19.1571 139.137C17.9045 138.236 16.6519 137.36 15.3994 136.534C15.4253 136.492 15.4423 136.445 15.4495 136.397V136.309ZM15.0111 140.338C15.0111 139.675 15.0111 139.024 15.0111 138.361C15.963 139.049 16.9024 139.75 17.8294 140.476C16.8273 141.652 15.8753 142.866 14.9735 144.067C15.0111 142.916 14.9985 141.677 15.0111 140.426V140.338ZM15.1488 147.17C16.6394 145.481 18.155 143.792 19.7207 142.165C21.1282 143.654 22.6949 144.984 24.3928 146.131C24.5235 146.203 24.6699 146.24 24.8187 146.24C24.9675 146.24 25.114 146.203 25.2446 146.131C25.2446 147.495 25.3699 148.859 25.445 150.223C25.2616 150.109 25.0466 150.056 24.8313 150.073C22.6518 150.386 21.3741 152.863 20.1717 154.59C18.5684 153.839 16.94 153.151 15.3618 152.525C15.2365 150.661 15.1488 148.884 15.1488 147.17ZM15.5497 154.327C16.7271 154.953 17.892 155.578 19.0444 156.254C18.0423 157.68 17.0903 159.144 16.176 160.633C15.8628 158.431 15.6373 156.379 15.487 154.264L15.5497 154.327ZM17.1655 166.389C17.1655 166.389 17.1029 166.389 17.0778 166.389L16.9776 166.289C16.8398 165.451 16.702 164.612 16.5768 163.786C16.6717 163.715 16.7561 163.631 16.8273 163.536C18.155 161.497 19.5203 159.457 20.9733 157.493C22.4848 158.56 24.0761 159.509 25.7331 160.333C25.8572 160.389 25.9917 160.417 26.1277 160.417C26.2637 160.417 26.3981 160.389 26.5222 160.333C26.8228 162.385 27.1986 164.425 27.6245 166.439L27.4366 166.514C25.9727 167.618 24.6773 168.929 23.5912 170.405C21.4994 168.936 19.3338 167.575 17.1029 166.326L17.1655 166.389ZM19.3074 169.817C20.322 170.48 21.3366 171.156 22.3386 171.844L19.5203 174.998C19.5203 174.847 19.6205 174.697 19.6581 174.535C19.9822 172.935 19.8387 171.275 19.2448 169.755L19.3074 169.817ZM24.5682 192.728C23.4534 190.087 22.4388 187.422 21.5495 184.707C23.253 185.783 24.9565 186.884 26.66 187.973C25.8346 189.486 25.1147 191.053 24.5056 192.665L24.5682 192.728ZM20.9483 182.918C20.4222 181.216 19.9212 179.502 19.4577 177.775C20.9858 176.274 22.514 174.76 23.992 173.208L24.1048 173.096H24.1924C26.1966 174.61 27.9502 176.612 30.2424 177.725C30.3494 177.77 30.4647 177.791 30.5806 177.788C30.9814 179.039 31.4198 180.29 31.8331 181.541C30.1443 182.825 28.7195 184.423 27.637 186.246C25.3824 185.02 23.1152 183.919 20.8856 182.855L20.9483 182.918ZM33.0481 203.238C32.7182 201.348 31.6956 199.649 30.1797 198.471L33.3738 199.86L33.9375 200.122C33.9375 200.348 33.8373 200.56 33.7872 200.748C33.4991 201.849 33.2736 202.963 33.0607 204.076C33.0566 203.775 33.0315 203.474 32.9855 203.176L33.0481 203.238ZM36.5679 194.054C35.4401 195.15 34.6975 196.581 34.451 198.133C31.52 197.057 28.4512 196.219 25.683 195.43C25.683 195.33 25.5953 195.243 25.5577 195.155C26.3927 193.095 27.3722 191.096 28.4888 189.174C30.4303 190.425 32.3843 191.551 34.3884 192.577C35.2026 193.003 36.142 191.839 35.3654 191.226C33.5589 189.833 31.6496 188.578 29.6537 187.472C30.6056 186.221 31.6327 184.97 32.5346 183.719C33.8512 187.214 35.3479 190.638 37.0188 193.979C36.8504 193.93 36.6711 193.935 36.5053 193.991L36.5679 194.054ZM34.2631 209.682C34.5974 206.75 35.1119 203.842 35.8038 200.973C37.3439 201.802 38.9585 202.485 40.6262 203.013C40.7407 203.053 40.863 203.064 40.9831 203.048C41.1031 203.031 41.2174 202.986 41.3165 202.916C41.4156 202.846 41.4967 202.754 41.5531 202.647C41.6095 202.54 41.6396 202.421 41.6408 202.3C41.8913 202.713 42.1669 203.125 42.4299 203.551V203.626C41.7371 205.636 41.2297 207.705 40.9143 209.807C38.7098 209.707 36.5053 209.607 34.3007 209.607L34.2631 209.682ZM35.5909 212.485C35.3153 212.109 35.0648 211.734 34.8143 211.346C36.7307 211.546 38.6472 211.684 40.5761 211.809C40.5761 212.122 40.4634 212.422 40.4133 212.723C40.0876 214.324 39.7369 215.938 39.4739 217.552C38.071 215.838 36.7683 214.149 35.5282 212.422L35.5909 212.485ZM41.002 219.417C41.7285 217.189 42.1544 214.85 42.6679 212.56C42.6679 212.372 42.7556 212.184 42.8057 211.997C44.6525 212.292 46.5282 212.363 48.3922 212.209L48.7429 212.66C48.7429 215.3 48.5676 218.165 48.6177 221.018C46.6636 221.131 44.7221 221.281 42.7807 221.394C42.1293 220.668 41.5155 220.03 40.9394 219.354L41.002 219.417ZM44.0833 206.141C44.9184 207.451 45.8202 208.752 46.7889 210.045C45.6365 209.932 44.4466 209.957 43.2817 209.957C43.5322 208.631 43.8203 207.355 44.0207 206.078L44.0833 206.141ZM48.1292 224.196C47.6839 223.662 47.1109 223.249 46.4632 222.995H48.6803C48.6803 223.458 48.7554 223.896 48.8055 224.347C48.5635 224.262 48.3167 224.191 48.0665 224.134L48.1292 224.196ZM50.722 220.443C50.5466 218.553 50.4339 216.689 50.3337 214.762C52.0247 216.852 53.8033 218.879 55.6446 220.843C54.0288 220.843 52.4004 220.843 50.7721 220.956C50.6969 220.655 50.6719 220.48 50.6593 220.318L50.722 220.443ZM52.9766 231.604C53.1187 229.762 52.5596 227.934 51.4109 226.486C51.3357 225.398 51.198 224.297 51.0477 223.208C53.2772 223.208 55.4818 223.208 57.6613 222.945C58.275 223.558 58.9138 224.196 59.5401 224.759C59.7781 226.711 60.0537 228.676 60.3167 230.628C57.9368 231.016 55.5695 231.504 53.2772 231.879L52.9766 231.604ZM55.2313 233.518C57.0099 233.381 58.8136 233.268 60.6173 233.105C60.6979 234.993 61.1223 236.85 61.8699 238.586C59.5485 236.867 57.3356 235.136 55.2313 233.393V233.518ZM61.7446 226.837C62.9346 227.925 64.1621 228.989 65.4147 230.027C64.4126 230.027 63.398 230.19 62.396 230.328C62.1079 229.039 61.895 227.875 61.682 226.711L61.7446 226.837ZM62.4837 239.061C62.6971 239.095 62.9154 239.047 63.0945 238.926C63.2736 238.805 63.4 238.621 63.4481 238.411C63.6178 236.541 63.4351 234.657 62.9095 232.855C64.3094 232.676 65.6979 232.417 67.0681 232.079C68.1578 234.469 69.1849 236.872 70.0868 239.324C68.3081 239.799 66.517 240.2 64.7258 240.575C63.9116 239.937 63.1601 239.449 62.421 238.936L62.4837 239.061ZM69.4104 233.205C71.4396 234.744 73.5564 236.196 75.6733 237.597C74.4207 237.91 73.2558 238.348 72.0784 238.736C71.2517 236.767 70.3415 234.882 69.3478 233.08L69.4104 233.205ZM70.9386 243.378L70.3999 243.641L69.7235 243.716C68.7591 243.14 67.7946 242.577 66.8426 241.977C68.0952 241.751 69.4355 241.489 70.7256 241.188C70.926 241.864 71.1014 242.565 71.2893 243.265L70.9386 243.378ZM74.9593 244.504C74.7319 244.386 74.4977 244.282 74.2579 244.191C73.9076 243.001 73.4894 241.831 73.0053 240.688C74.7173 240.368 76.3694 239.786 77.9029 238.961L79.4561 239.899C79.3152 239.88 79.1717 239.896 79.0385 239.946C78.9052 239.995 78.7862 240.077 78.6921 240.183C78.5979 240.29 78.5315 240.418 78.4987 240.556C78.4659 240.694 78.4678 240.838 78.5041 240.976C78.8173 242.227 79.1429 243.478 79.4686 244.729C78.3788 244.942 77.2891 245.117 76.1868 245.28C75.7859 244.94 75.3539 244.638 74.8967 244.379L74.9593 244.504ZM78.4916 248.471C78.3072 248.035 78.0851 247.616 77.8277 247.219C78.5417 247.132 79.2556 247.057 79.9571 246.931L80.1074 247.557C80.2702 248.183 80.4205 248.808 80.5708 249.497C79.8068 249.034 79.1179 248.683 78.4289 248.345L78.4916 248.471ZM81.2723 244.341L80.0823 240.463C80.0439 240.379 79.9978 240.3 79.9446 240.225C81.6481 241.238 83.3891 242.189 85.1553 243.115C84.1407 243.478 83.1261 243.878 82.1115 244.154C81.7733 244.104 81.5353 244.154 81.2097 244.216L81.2723 244.341ZM87.4099 252.362C86.0195 251.824 84.6417 251.261 83.2639 250.673C82.9257 249.421 82.4622 248.17 82.0113 246.919L81.8986 246.544C84.042 246.238 86.1176 245.569 88.0362 244.567C88.6124 244.842 89.176 245.142 89.7647 245.405C88.938 247.607 88.1364 249.922 87.3473 252.274L87.4099 252.362ZM107.125 200.773C101.589 214.825 95.8523 228.951 90.6165 243.24C70.5118 233.046 53.8218 217.213 42.5928 197.683C72.4471 181.105 101.12 162.488 128.407 141.965C107.476 169.68 86.6083 197.52 66.6172 225.923C66.1161 226.636 67.3186 227.512 67.8697 226.824C89.7021 198.834 110.695 170.143 131.588 141.439C123.087 161.017 114.912 180.753 107.063 200.648L107.125 200.773ZM98.2071 261.896C98.4701 261.258 98.7081 260.645 98.9587 259.957C99.5599 259.619 100.211 259.256 100.75 258.893C101.033 260.447 101.531 261.955 102.228 263.373C100.825 262.785 99.4847 262.284 98.1445 261.771L98.2071 261.896ZM104.094 262.972C103.807 261.177 103.263 259.433 102.478 257.792C104.518 256.477 106.445 254.996 108.24 253.363C108.354 253.259 108.434 253.124 108.472 252.976C108.51 252.827 108.503 252.67 108.453 252.525C112.865 253.867 117.353 254.945 121.893 255.753C119.764 256.779 117.735 258.093 115.63 259.194L114.628 259.707C113.524 257.672 112.237 255.741 110.783 253.938C110.52 253.638 110.031 253.938 110.144 254.339C110.949 256.473 111.947 258.529 113.125 260.482C111.873 261.083 110.745 261.734 109.568 262.297C107.732 261.819 105.786 262.014 104.082 262.847L104.094 262.972ZM114.29 266.826C113.901 265.65 113.22 264.591 112.311 263.748C112.223 263.661 112.123 263.611 112.036 263.535C112.775 263.173 113.514 262.822 114.253 262.447C115.067 264.036 115.831 265.813 116.758 267.452C115.881 267.102 115.054 266.901 114.228 266.701L114.29 266.826ZM129.972 269.454C126.515 269.104 123.046 268.616 119.601 267.965C118.563 265.739 117.304 263.622 115.843 261.646L116.394 261.371C119.439 260.033 122.322 258.354 124.987 256.366V256.291C125.513 256.366 126.027 256.453 126.553 256.516C127.333 258.773 128.279 260.968 129.384 263.085L129.86 264.036C128.82 265.087 127.78 266.138 126.766 267.202C126.077 267.927 127.154 268.891 127.881 268.253L130.699 265.663C131.121 266.47 131.598 267.248 132.127 267.99C131.332 268.337 130.587 268.787 129.91 269.329L129.972 269.454ZM137.864 267.114C136.859 266.914 135.825 266.914 134.82 267.114C134.632 267.096 134.444 267.096 134.256 267.114C133.642 266.138 132.916 265.212 132.215 264.274C134.619 262.034 136.999 259.769 139.329 257.479C143.02 257.563 146.711 257.475 150.402 257.217C148.874 258.818 147.446 260.507 146.068 262.222C144.615 260.633 142.987 258.731 141.283 257.967C139.58 257.204 137.814 258.656 139.191 260.095C139.505 260.432 140.081 259.969 139.805 259.594C140.232 259.59 140.652 259.704 141.017 259.925C141.382 260.147 141.678 260.465 141.872 260.845C142.385 261.421 142.912 261.971 143.45 262.522L144.765 263.911C143.555 265.496 142.377 267.118 141.233 268.778C140.265 267.893 139.082 267.276 137.801 266.989L137.864 267.114ZM142.636 270.042C143.813 268.49 145.028 267.001 146.268 265.512C147.584 266.926 148.874 268.403 150.289 269.717C147.684 269.792 145.141 269.904 142.573 269.917L142.636 270.042ZM153.158 269.491C151.452 267.51 149.61 265.65 147.646 263.923C149.4 261.871 151.191 259.857 153.007 257.83L154.598 269.416C154.034 269.304 153.558 269.316 153.095 269.366L153.158 269.491ZM165.458 251.273C163.329 235.841 161.207 220.409 159.095 204.977C157.324 192.173 155.563 179.369 153.809 166.564C152.456 156.717 151.479 146.957 147.546 137.873C170.092 167.077 192.639 196.356 214.471 226.098C214.542 226.186 214.627 226.262 214.722 226.324C200.666 238.653 183.721 247.235 165.458 251.273ZM209.298 235.508C208.609 237.935 207.845 240.337 206.918 242.702C206.855 242.852 206.78 243.053 206.705 243.278C204.526 242.677 202.334 242.114 200.142 241.551C203.311 239.687 206.367 237.685 209.298 235.508ZM194.518 248.984C192.739 248.383 190.935 247.82 189.157 247.269C191.319 246.293 193.453 245.242 195.557 244.116C195.307 245.756 194.968 247.38 194.543 248.984H194.518ZM165.971 254.952C168.589 254.401 171.182 253.701 173.75 252.962L174.138 253.213C173.654 255.117 172.916 256.947 171.946 258.656C169.93 257.404 167.938 256.253 165.971 254.989V254.952ZM167.224 264.086C166.911 261.771 166.585 259.456 166.272 257.142C167.75 258.218 169.266 259.306 170.794 260.37C169.729 261.734 168.426 262.822 167.249 264.086H167.224ZM167.637 267.089C167.637 266.926 167.637 266.751 167.637 266.589C169.929 265.674 171.82 263.976 172.973 261.796C174.451 262.747 175.942 263.661 177.458 264.474C174.226 265.475 170.957 266.363 167.662 267.089H167.637ZM177.733 262.209C176.481 261.396 175.228 260.608 173.975 259.844C174.746 257.995 175.264 256.051 175.516 254.064L180.313 257.167L180.764 257.454C179.775 259.069 178.673 260.583 177.758 262.209H177.733ZM181.115 255.578L175.616 252.449C178.322 251.599 181.015 250.66 183.658 249.609C183.181 251.76 182.484 253.857 181.579 255.865L181.115 255.578ZM179.862 263.648L179.537 263.423C180.789 262.026 181.808 260.438 182.556 258.718C183.853 259.625 185.218 260.433 186.639 261.133C184.459 262.034 182.205 262.885 179.925 263.648H179.862ZM188.631 260.295C186.996 258.918 185.2 257.746 183.282 256.804C184.177 254.282 184.757 251.66 185.011 248.996C185.662 248.733 186.326 248.483 186.977 248.208C189.194 249.209 191.461 250.235 193.754 251.186C192.863 253.168 192.158 255.229 191.649 257.342C191.524 258.13 192.564 258.868 193.152 258.143C194.518 256.348 195.487 254.283 195.996 252.087C197.82 252.798 199.686 253.4 201.582 253.888C197.433 256.284 193.141 258.423 188.731 260.295H188.631ZM204.526 252.087L203.912 252.337C203.569 252.496 203.246 252.693 202.947 252.925C202.934 252.794 202.887 252.668 202.813 252.559C202.739 252.45 202.639 252.36 202.522 252.299C200.582 251.315 198.582 250.454 196.534 249.722C196.899 247.562 197.116 245.38 197.186 243.19L198.225 242.627C200.73 243.491 203.386 244.329 205.979 245.13C205.487 246.747 204.734 248.272 203.749 249.647C203.61 249.632 203.469 249.651 203.339 249.701C203.208 249.751 203.091 249.831 202.998 249.934L202.835 250.135C202.702 250.273 202.608 250.445 202.564 250.632C202.52 250.819 202.527 251.015 202.584 251.198L202.684 251.423C202.782 251.704 202.982 251.937 203.245 252.077C203.507 252.216 203.813 252.251 204.1 252.174C206.204 251.711 206.693 248.183 207.331 246.444C207.432 246.181 207.519 245.906 207.607 245.643L212.141 247.032C209.774 248.846 207.219 250.498 204.626 252.087H204.526ZM214.321 245.43L208.271 243.741C209.257 240.714 210.039 237.625 210.613 234.494C210.889 234.281 211.164 234.106 211.44 233.894C212.505 234.194 213.644 234.344 214.421 234.569L216.851 235.32C216.219 237.312 215.717 239.344 215.348 241.401C215.314 241.606 215.353 241.817 215.457 241.997C215.561 242.177 215.724 242.316 215.918 242.39C216.113 242.463 216.327 242.467 216.525 242.401C216.722 242.335 216.891 242.203 217.001 242.027C217.975 240.132 218.647 238.097 218.993 235.996C220.631 236.533 222.305 236.951 224.003 237.247C220.958 240.144 217.76 242.876 214.421 245.43H214.321ZM225.732 235.57C223.657 234.754 221.51 234.134 219.319 233.718C219.564 231.462 219.656 229.192 219.594 226.924C220.158 226.386 220.734 225.861 221.285 225.323C223.089 225.723 225.043 226.073 226.934 226.311C226.945 228.14 227.113 229.966 227.435 231.766C227.481 231.911 227.56 232.043 227.665 232.153C227.769 232.263 227.898 232.348 228.04 232.401C228.183 232.454 228.335 232.474 228.486 232.46C228.638 232.445 228.784 232.396 228.913 232.317C227.974 233.431 226.909 234.507 225.832 235.57H225.732ZM229.302 231.904C229.341 231.839 229.367 231.767 229.377 231.691C229.601 229.995 229.685 228.284 229.627 226.574C231.07 226.687 232.519 226.687 233.961 226.574C232.546 228.388 231.005 230.177 229.402 231.904H229.302ZM235.79 224.284C233.707 224.118 231.616 224.064 229.527 224.121C229.352 221.794 229.064 219.467 228.788 217.265L228.963 217.064C231.364 217.602 233.818 217.867 236.279 217.853C236.379 219.679 236.454 221.519 236.542 223.396C236.379 223.696 236.128 223.984 235.89 224.284H235.79ZM238.809 220.267C238.809 219.467 238.671 218.666 238.571 217.853C239.159 217.853 239.823 217.853 240.487 217.853C240.036 218.678 239.485 219.479 238.909 220.267H238.809ZM246.625 207.843C245.234 210.345 243.756 212.848 242.203 215.262C241.974 215.155 241.724 215.1 241.47 215.1C241.217 215.1 240.967 215.155 240.738 215.262C239.974 215.35 239.197 215.425 238.42 215.488H238.233C237.727 212.668 237.037 209.884 236.166 207.154C237.644 204.852 239.059 202.525 240.349 200.148L245.184 199.322C245.192 201.03 245.313 202.735 245.548 204.427C245.723 205.365 247.251 205.253 247.401 204.352C247.677 202.548 247.677 200.713 247.401 198.909C248.792 198.633 250.17 198.321 251.522 197.945C250.069 201.336 248.454 204.639 246.725 207.843H246.625ZM252.762 195.33C250.801 195.628 248.86 196.046 246.95 196.581C246.485 194.523 245.865 192.503 245.097 190.538C245.873 188.711 246.637 186.884 247.326 185.02C248.764 184.838 250.187 184.553 251.585 184.169C251.936 186.171 252.286 188.173 252.675 190.163C252.963 191.652 255.18 190.926 254.929 189.462C254.579 187.46 254.178 185.458 253.777 183.468H253.852C255.378 182.928 256.857 182.263 258.274 181.479C256.708 186.109 254.867 190.763 252.863 195.305L252.762 195.33ZM259.401 178.138C257.322 179.014 255.493 180.478 253.389 181.404C252.762 178.376 252.103 175.352 251.41 172.332C251.71 171.206 251.998 170.068 252.286 168.929H252.387C254.015 168.003 255.606 167.015 257.184 166.001C257.793 168.03 258.538 170.015 259.414 171.944C259.952 173.083 261.468 172.132 261.267 171.094C260.841 168.866 260.265 166.639 259.626 164.412L259.727 164.337C261.192 163.361 262.783 162.372 264.223 161.271C262.971 166.915 261.343 172.558 259.501 178.113L259.401 178.138Z" fill="#CE364C" fill-opacity="0.54"/>
</svg>
