<svg width="48" height="48" viewBox="0 0 48 48" fill="none" xmlns="http://www.w3.org/2000/svg">
<rect width="48" height="48.0002" rx="10" fill="#118924"/>
<path d="M36.5224 31.3666L30.5896 25.9724C30.3091 25.7175 29.9406 25.5815 29.5618 25.5932C29.183 25.605 28.8236 25.7634 28.5594 26.0351L25.0669 29.6269C24.2262 29.4664 22.5362 28.9395 20.7965 27.2042C19.0567 25.463 18.5299 23.7686 18.3737 22.9337L21.9626 19.4397C22.2346 19.1758 22.3933 18.8163 22.405 18.4374C22.4167 18.0585 22.2806 17.6899 22.0253 17.4096L16.6326 11.4783C16.3772 11.1971 16.0223 11.0266 15.6432 11.0028C15.2642 10.9791 14.8908 11.1041 14.6024 11.3513L11.4353 14.0674C11.183 14.3206 11.0324 14.6577 11.0121 15.0146C10.9902 15.3795 10.5728 24.0225 17.2747 30.7274C23.1214 36.5726 30.4451 37.0002 32.4621 37.0002C32.7569 37.0002 32.9379 36.9915 32.986 36.9885C33.3429 36.9686 33.6798 36.8173 33.9318 36.5638L36.6464 33.3953C36.8945 33.1078 37.0205 32.7347 36.9973 32.3557C36.9741 31.9767 36.8037 31.6217 36.5224 31.3666Z" fill="white"/>
</svg>
