<svg width="48" height="47" viewBox="0 0 48 47" fill="none" xmlns="http://www.w3.org/2000/svg">
<rect width="48" height="46.8" rx="10" fill="#118924"/>
<path d="M13.6 33.8C12.885 33.8 12.2727 33.5452 11.7631 33.0356C11.2535 32.526 10.9991 31.9141 11 31.2V15.6C11 14.885 11.2548 14.2727 11.7644 13.7631C12.274 13.2535 12.8859 12.9991 13.6 13H34.4C35.115 13 35.7273 13.2548 36.2369 13.7644C36.7465 14.274 37.0009 14.8859 37 15.6V31.2C37 31.915 36.7452 32.5273 36.2356 33.0369C35.726 33.5465 35.1141 33.8009 34.4 33.8H13.6ZM24 24.7L34.4 18.2V15.6L24 22.1L13.6 15.6V18.2L24 24.7Z" fill="white"/>
</svg>
