<svg width="48" height="50" viewBox="0 0 48 50" fill="none" xmlns="http://www.w3.org/2000/svg">
<rect width="48" height="49.9995" rx="10" fill="#118924"/>
<path d="M25.3364 12.0016C26.285 11.998 27.2336 12.0075 28.182 12.0302L28.4342 12.0393C28.7253 12.0497 29.0126 12.0627 29.3597 12.0783C30.7428 12.1433 31.6866 12.3617 32.5146 12.6828C33.3726 13.0129 34.0954 13.4601 34.8181 14.1829C35.479 14.8323 35.9904 15.6179 36.317 16.4851C36.638 17.3131 36.8564 18.2582 36.9214 19.6413C36.937 19.9871 36.95 20.2757 36.9604 20.5669L36.9682 20.819C36.9913 21.7669 37.0013 22.7151 36.9981 23.6633L36.9994 24.6331V26.336C37.0026 27.2846 36.9927 28.2332 36.9695 29.1815L36.9617 29.4337C36.9513 29.7249 36.9383 30.0122 36.9227 30.3593C36.8577 31.7424 36.6367 32.6861 36.317 33.5142C35.9915 34.3822 35.4799 35.1685 34.8181 35.8177C34.1681 36.4785 33.3821 36.9899 32.5146 37.3165C31.6866 37.6376 30.7428 37.856 29.3597 37.921C29.0126 37.9366 28.7253 37.9496 28.4342 37.96L28.182 37.9678C27.2336 37.9909 26.285 38.0008 25.3364 37.9977L24.3667 37.999H22.6651C21.7164 38.0022 20.7678 37.9922 19.8195 37.9691L19.5673 37.9613C19.2587 37.9501 18.9502 37.9371 18.6418 37.9223C17.2586 37.8573 16.3149 37.6363 15.4855 37.3165C14.6181 36.9907 13.8323 36.4791 13.1833 35.8177C12.5217 35.1681 12.0098 34.382 11.6832 33.5142C11.3621 32.6861 11.1437 31.7424 11.0787 30.3593C11.0643 30.0508 11.0513 29.7423 11.0397 29.4337L11.0332 29.1815C11.0093 28.2332 10.9984 27.2846 11.0008 26.336V23.6633C10.9971 22.7151 11.0067 21.767 11.0293 20.819L11.0384 20.5669C11.0488 20.2757 11.0618 19.9871 11.0774 19.6413C11.1424 18.2569 11.3608 17.3144 11.6819 16.4851C12.0087 15.6175 12.5216 14.8321 13.1846 14.1842C13.8332 13.5222 14.6184 13.0098 15.4855 12.6828C16.3149 12.3617 17.2573 12.1433 18.6418 12.0783L19.5673 12.0393L19.8195 12.0328C20.7674 12.0088 21.7156 11.998 22.6638 12.0003L25.3364 12.0016ZM24.0001 18.5013C23.1389 18.4891 22.2839 18.6482 21.4847 18.9693C20.6855 19.2905 19.9581 19.7672 19.3448 20.3719C18.7315 20.9766 18.2445 21.6972 17.9121 22.4918C17.5797 23.2863 17.4085 24.139 17.4085 25.0003C17.4085 25.8616 17.5797 26.7143 17.9121 27.5088C18.2445 28.3034 18.7315 29.0239 19.3448 29.6286C19.9581 30.2333 20.6855 30.7101 21.4847 31.0312C22.2839 31.3524 23.1389 31.5115 24.0001 31.4993C25.7239 31.4993 27.3771 30.8145 28.596 29.5956C29.815 28.3767 30.4998 26.7235 30.4998 24.9996C30.4998 23.2758 29.815 21.6226 28.596 20.4037C27.3771 19.1848 25.7239 18.5013 24.0001 18.5013ZM24.0001 21.1011C24.5181 21.0916 25.0329 21.1854 25.5142 21.377C25.9956 21.5686 26.434 21.8542 26.8038 22.2172C27.1735 22.5801 27.4672 23.0131 27.6678 23.4909C27.8683 23.9686 27.9716 24.4815 27.9717 24.9996C27.9718 25.5177 27.8687 26.0307 27.6683 26.5085C27.4679 26.9863 27.1743 27.4194 26.8047 27.7824C26.435 28.1455 25.9968 28.4313 25.5154 28.6231C25.0341 28.8149 24.5194 28.9088 24.0014 28.8994C22.9671 28.8994 21.9752 28.4886 21.2438 27.7572C20.5125 27.0259 20.1016 26.0339 20.1016 24.9996C20.1016 23.9653 20.5125 22.9734 21.2438 22.2421C21.9752 21.5107 22.9671 21.0998 24.0014 21.0998L24.0001 21.1011ZM30.8247 16.5514C30.4054 16.5682 30.0088 16.7466 29.718 17.0492C29.4272 17.3519 29.2648 17.7553 29.2648 18.175C29.2648 18.5947 29.4272 18.9981 29.718 19.3008C30.0088 19.6034 30.4054 19.7818 30.8247 19.7986C31.2557 19.7986 31.669 19.6274 31.9737 19.3227C32.2785 19.0179 32.4497 18.6046 32.4497 18.1737C32.4497 17.7427 32.2785 17.3294 31.9737 17.0247C31.669 16.72 31.2557 16.5488 30.8247 16.5488V16.5514Z" fill="white"/>
</svg>
