<svg width="231" height="39" viewBox="0 0 231 39" fill="none" xmlns="http://www.w3.org/2000/svg">
<path fill-rule="evenodd" clip-rule="evenodd" d="M58.7203 4.29558C56.6143 2.18423 53.759 0.99823 50.7819 0.99823C47.8048 0.99823 44.9495 2.18423 42.8436 4.29558L40.0024 7.1514L37.1611 4.29558C35.0475 2.22684 32.2065 1.07697 29.2538 1.09509C26.3011 1.11322 23.4743 2.29788 21.3861 4.39242C19.2978 6.48695 18.1161 9.32268 18.0971 12.2852C18.0781 15.2478 19.2232 18.0985 21.2844 20.2199L24.1308 23.0757L40.0024 39L55.8739 23.0757L58.7203 20.2199C60.8205 18.1058 61.9999 15.2426 61.9999 12.2577C61.9999 9.27282 60.8205 6.40963 58.7203 4.29558ZM6.67977 31.792C6.67977 32.4 6.45577 32.928 6.00777 33.376C5.59177 33.792 5.07977 34 4.47177 34H3.17577C2.56777 34 2.03977 33.792 1.59177 33.376C1.17577 32.928 0.967771 32.4 0.967771 31.792V3.76C0.967771 3.12 1.17577 2.592 1.59177 2.176C2.03977 1.76 2.56777 1.552 3.17577 1.552H4.47177C5.07977 1.552 5.59177 1.76 6.00777 2.176C6.45577 2.592 6.67977 3.12 6.67977 3.76V31.792ZM93.0798 33.376C93.5278 32.928 93.7518 32.4 93.7518 31.792V30.544C93.7518 29.904 93.5278 29.376 93.0798 28.96C92.6638 28.544 92.1678 28.336 91.5918 28.336H79.2078C78.8238 28.336 78.6318 28.128 78.6318 27.712V21.232C78.6318 20.848 78.8238 20.656 79.2078 20.656H89.8638C90.5038 20.656 91.0318 20.448 91.4478 20.032C91.8638 19.584 92.0718 19.056 92.0718 18.448V17.104C92.0718 16.496 91.8638 15.984 91.4478 15.568C91.0318 15.152 90.5038 14.944 89.8638 14.944H79.2078C78.8238 14.944 78.6318 14.72 78.6318 14.272V7.888C78.6318 7.472 78.8238 7.264 79.2078 7.264H91.5918C92.1678 7.264 92.6638 7.056 93.0798 6.64C93.5278 6.192 93.7518 5.664 93.7518 5.056V3.76C93.7518 3.12 93.5278 2.592 93.0798 2.176C92.6638 1.76 92.1678 1.552 91.5918 1.552H75.0798C74.5038 1.552 73.9918 1.76 73.5438 2.176C73.1278 2.592 72.9198 3.12 72.9198 3.76V31.792C72.9198 32.4 73.1278 32.928 73.5438 33.376C73.9918 33.792 74.5038 34 75.0798 34H91.5918C92.1678 34 92.6638 33.792 93.0798 33.376ZM118.888 33.376C119.336 32.928 119.56 32.4 119.56 31.792V3.76C119.56 3.12 119.336 2.592 118.888 2.176C118.472 1.76 117.96 1.552 117.352 1.552H116.056C115.448 1.552 114.92 1.76 114.472 2.176C114.056 2.592 113.848 3.12 113.848 3.76V20.272C113.848 20.4 113.784 20.48 113.656 20.512C113.56 20.544 113.464 20.496 113.368 20.368L103.144 2.656C102.728 1.92 102.088 1.552 101.224 1.552H99.832C99.224 1.552 98.696 1.76 98.248 2.176C97.832 2.592 97.624 3.12 97.624 3.76V31.792C97.624 32.4 97.832 32.928 98.248 33.376C98.696 33.792 99.224 34 99.832 34H101.176C101.752 34 102.248 33.792 102.664 33.376C103.112 32.928 103.336 32.4 103.336 31.792V15.28C103.336 15.184 103.4 15.12 103.528 15.088C103.656 15.024 103.752 15.056 103.816 15.184L114.04 32.896C114.456 33.632 115.096 34 115.96 34H117.352C117.96 34 118.472 33.792 118.888 33.376ZM144.571 30.832C145.147 29.872 145.435 28.816 145.435 27.664V17.104C145.435 16.496 145.211 15.984 144.763 15.568C144.347 15.152 143.835 14.944 143.227 14.944H135.739C135.131 14.944 134.603 15.152 134.155 15.568C133.739 15.984 133.531 16.496 133.531 17.104V18.448C133.531 19.056 133.739 19.584 134.155 20.032C134.603 20.448 135.131 20.656 135.739 20.656H139.147C139.531 20.656 139.723 20.848 139.723 21.232V27.664C139.723 27.824 139.659 27.984 139.531 28.144C139.403 28.272 139.259 28.336 139.099 28.336H129.883C129.723 28.336 129.563 28.272 129.403 28.144C129.275 27.984 129.211 27.824 129.211 27.664V7.936C129.211 7.744 129.275 7.584 129.403 7.456C129.563 7.328 129.723 7.264 129.883 7.264H139.099C139.515 7.264 139.723 7.488 139.723 7.936V9.232C139.723 9.84 139.931 10.352 140.347 10.768C140.795 11.184 141.323 11.392 141.931 11.392H143.227C143.835 11.392 144.347 11.184 144.763 10.768C145.211 10.352 145.435 9.84 145.435 9.232V7.936C145.435 6.752 145.147 5.68 144.571 4.72C143.995 3.76 143.227 2.992 142.267 2.416C141.307 1.84 140.251 1.552 139.099 1.552H129.883C128.731 1.552 127.659 1.84 126.667 2.416C125.707 2.992 124.939 3.76 124.363 4.72C123.787 5.68 123.499 6.752 123.499 7.936V27.664C123.499 28.816 123.787 29.872 124.363 30.832C124.939 31.792 125.707 32.56 126.667 33.136C127.659 33.712 128.731 34 129.883 34H139.099C140.251 34 141.307 33.712 142.267 33.136C143.227 32.56 143.995 31.792 144.571 30.832ZM169.486 33.376C169.934 32.928 170.158 32.4 170.158 31.792V30.544C170.158 29.904 169.934 29.376 169.486 28.96C169.07 28.544 168.574 28.336 167.998 28.336H155.614C155.23 28.336 155.038 28.128 155.038 27.712V3.76C155.038 3.12 154.814 2.592 154.366 2.176C153.95 1.76 153.438 1.552 152.83 1.552H151.486C150.91 1.552 150.398 1.76 149.95 2.176C149.534 2.592 149.326 3.12 149.326 3.76V31.792C149.326 32.4 149.534 32.928 149.95 33.376C150.398 33.792 150.91 34 151.486 34H167.998C168.574 34 169.07 33.792 169.486 33.376ZM179.07 33.376C179.518 32.928 179.742 32.4 179.742 31.792V3.76C179.742 3.12 179.518 2.592 179.07 2.176C178.654 1.76 178.142 1.552 177.534 1.552H176.238C175.63 1.552 175.102 1.76 174.654 2.176C174.238 2.592 174.03 3.12 174.03 3.76V31.792C174.03 32.4 174.238 32.928 174.654 33.376C175.102 33.792 175.63 34 176.238 34H177.534C178.142 34 178.654 33.792 179.07 33.376ZM204.759 30.832C205.335 29.872 205.623 28.816 205.623 27.664V23.296C205.623 21.984 205.239 20.768 204.471 19.648C203.703 18.528 202.695 17.744 201.447 17.296L189.879 12.976C189.559 12.88 189.399 12.64 189.399 12.256V7.936C189.399 7.744 189.463 7.584 189.591 7.456C189.751 7.328 189.911 7.264 190.071 7.264H199.287C199.703 7.264 199.911 7.488 199.911 7.936V9.232C199.911 9.84 200.119 10.352 200.535 10.768C200.983 11.184 201.511 11.392 202.119 11.392H203.415C204.023 11.392 204.535 11.184 204.951 10.768C205.399 10.352 205.623 9.84 205.623 9.232V7.936C205.623 6.752 205.335 5.68 204.759 4.72C204.183 3.76 203.415 2.992 202.455 2.416C201.495 1.84 200.439 1.552 199.287 1.552H190.071C188.919 1.552 187.847 1.84 186.855 2.416C185.895 2.992 185.127 3.76 184.551 4.72C183.975 5.68 183.687 6.752 183.687 7.936V12.256C183.687 13.6 184.071 14.832 184.839 15.952C185.607 17.072 186.631 17.856 187.911 18.304L199.431 22.624C199.751 22.72 199.911 22.944 199.911 23.296V27.664C199.911 27.824 199.847 27.984 199.719 28.144C199.591 28.272 199.447 28.336 199.287 28.336H190.071C189.911 28.336 189.751 28.272 189.591 28.144C189.463 27.984 189.399 27.824 189.399 27.664V26.224C189.399 25.616 189.175 25.104 188.727 24.688C188.311 24.24 187.815 24.016 187.239 24.016H185.895C185.287 24.016 184.759 24.24 184.311 24.688C183.895 25.104 183.687 25.616 183.687 26.224V27.664C183.687 28.816 183.975 29.872 184.551 30.832C185.127 31.792 185.895 32.56 186.855 33.136C187.847 33.712 188.919 34 190.071 34H199.287C200.439 34 201.495 33.712 202.455 33.136C203.415 32.56 204.183 31.792 204.759 30.832ZM230.25 33.376C230.666 32.928 230.874 32.4 230.874 31.792V3.76C230.874 3.12 230.666 2.592 230.25 2.176C229.834 1.76 229.306 1.552 228.666 1.552H227.37C226.762 1.552 226.234 1.76 225.786 2.176C225.37 2.592 225.162 3.12 225.162 3.76V14.272C225.162 14.72 224.954 14.944 224.538 14.944H215.898C215.482 14.944 215.274 14.72 215.274 14.272V3.76C215.274 3.12 215.05 2.592 214.602 2.176C214.186 1.76 213.674 1.552 213.066 1.552H211.722C211.114 1.552 210.586 1.76 210.138 2.176C209.722 2.592 209.514 3.12 209.514 3.76V31.792C209.514 32.4 209.722 32.928 210.138 33.376C210.586 33.792 211.114 34 211.722 34H213.066C213.674 34 214.186 33.792 214.602 33.376C215.05 32.928 215.274 32.4 215.274 31.792V21.232C215.274 20.848 215.482 20.656 215.898 20.656H224.538C224.954 20.656 225.162 20.848 225.162 21.232V31.792C225.162 32.4 225.37 32.928 225.786 33.376C226.234 33.792 226.762 34 227.37 34H228.666C229.306 34 229.834 33.792 230.25 33.376Z" fill="#D14A67"/>
</svg>
