<svg width="26" height="26" viewBox="0 0 26 26" fill="none" xmlns="http://www.w3.org/2000/svg">
<path d="M14.3364 0.00159943C15.285 -0.00204067 16.2336 0.00749319 17.182 0.0301981L17.4342 0.0392976C17.7253 0.049697 18.0126 0.0626963 18.3597 0.0782955C19.7428 0.143292 20.6866 0.361681 21.5146 0.682765C22.3726 1.01295 23.0954 1.46012 23.8181 2.18289C24.479 2.83234 24.9904 3.61794 25.317 4.48507C25.638 5.31313 25.8564 6.25818 25.9214 7.64131C25.937 7.98709 25.95 8.27567 25.9604 8.56686L25.9682 8.81905C25.9913 9.76695 26.0013 10.7151 25.9981 11.6633L25.9994 12.6331V14.336C26.0026 15.2846 25.9927 16.2332 25.9695 17.1815L25.9617 17.4337C25.9513 17.7249 25.9383 18.0122 25.9227 18.3593C25.8577 19.7424 25.6367 20.6861 25.317 21.5142C24.9915 22.3822 24.4799 23.1685 23.8181 23.8177C23.1681 24.4785 22.3821 24.9899 21.5146 25.3165C20.6866 25.6376 19.7428 25.856 18.3597 25.921C18.0126 25.9366 17.7253 25.9496 17.4342 25.96L17.182 25.9678C16.2336 25.9909 15.285 26.0008 14.3364 25.9977L13.3667 25.999H11.6651C10.7164 26.0022 9.76783 25.9922 8.8195 25.9691L8.56731 25.9613C8.25872 25.9501 7.9502 25.9371 7.64176 25.9223C6.25863 25.8573 5.31488 25.6363 4.48552 25.3165C3.61805 24.9907 2.83231 24.4791 2.18334 23.8177C1.52173 23.1681 1.00979 22.382 0.683215 21.5142C0.362132 20.6861 0.143743 19.7424 0.078746 18.3593C0.0642685 18.0508 0.0512691 17.7423 0.039748 17.4337L0.0332485 17.1815C0.00928241 16.2332 -0.00155153 15.2846 0.000750062 14.336V11.6633C-0.00287801 10.7151 0.00665585 9.76695 0.0293487 8.81905L0.0384482 8.56686C0.0488477 8.27567 0.0618469 7.98709 0.0774461 7.64131C0.142443 6.25688 0.360831 5.31443 0.681915 4.48507C1.00868 3.61752 1.52163 2.83213 2.18464 2.18419C2.83317 1.5222 3.61841 1.00979 4.48552 0.682765C5.31488 0.361681 6.25733 0.143292 7.64176 0.0782955L8.56731 0.0392976L8.8195 0.0327981C9.76739 0.00884394 10.7156 -0.00199 11.6638 0.000299593L14.3364 0.00159943ZM13.0001 6.50127C12.1389 6.48909 11.2839 6.64819 10.4847 6.96933C9.68551 7.29047 8.95813 7.76724 8.34482 8.37194C7.73151 8.97664 7.2445 9.6972 6.91209 10.4918C6.57968 11.2863 6.4085 12.139 6.4085 13.0003C6.4085 13.8616 6.57968 14.7143 6.91209 15.5088C7.2445 16.3034 7.73151 17.0239 8.34482 17.6286C8.95813 18.2333 9.68551 18.7101 10.4847 19.0312C11.2839 19.3524 12.1389 19.5115 13.0001 19.4993C14.7239 19.4993 16.3771 18.8145 17.596 17.5956C18.815 16.3767 19.4998 14.7235 19.4998 12.9996C19.4998 11.2758 18.815 9.6226 17.596 8.40367C16.3771 7.18475 14.7239 6.50127 13.0001 6.50127ZM13.0001 9.10113C13.5181 9.09159 14.0329 9.18536 14.5142 9.37699C14.9956 9.56861 15.434 9.85424 15.8038 10.2172C16.1735 10.5801 16.4672 11.0131 16.6678 11.4909C16.8683 11.9686 16.9716 12.4815 16.9717 12.9996C16.9718 13.5177 16.8687 14.0307 16.6683 14.5085C16.4679 14.9863 16.1743 15.4194 15.8047 15.7824C15.435 16.1455 14.9968 16.4313 14.5154 16.6231C14.0341 16.8149 13.5194 16.9088 13.0014 16.8994C11.9671 16.8994 10.9752 16.4886 10.2438 15.7572C9.51245 15.0259 9.10158 14.0339 9.10158 12.9996C9.10158 11.9653 9.51245 10.9734 10.2438 10.2421C10.9752 9.5107 11.9671 9.09983 13.0014 9.09983L13.0001 9.10113ZM19.8247 4.55137C19.4054 4.56815 19.0088 4.74655 18.718 5.0492C18.4272 5.35185 18.2648 5.75528 18.2648 6.17498C18.2648 6.59469 18.4272 6.99811 18.718 7.30076C19.0088 7.60341 19.4054 7.78181 19.8247 7.7986C20.2557 7.7986 20.669 7.6274 20.9737 7.32267C21.2785 7.01794 21.4497 6.60464 21.4497 6.17368C21.4497 5.74273 21.2785 5.32942 20.9737 5.02469C20.669 4.71996 20.2557 4.54877 19.8247 4.54877V4.55137Z" fill="white"/>
</svg>
