<svg width="26" height="21" viewBox="0 0 26 21" fill="none" xmlns="http://www.w3.org/2000/svg">
<path d="M2.6 20.8C1.885 20.8 1.2727 20.5452 0.763102 20.0356C0.253502 19.526 -0.000864459 18.9141 2.20713e-06 18.2V2.6C2.20713e-06 1.885 0.254802 1.2727 0.764402 0.763102C1.274 0.253502 1.88587 -0.000864459 2.6 2.20713e-06H23.4C24.115 2.20713e-06 24.7273 0.254802 25.2369 0.764402C25.7465 1.274 26.0009 1.88587 26 2.6V18.2C26 18.915 25.7452 19.5273 25.2356 20.0369C24.726 20.5465 24.1141 20.8009 23.4 20.8H2.6ZM13 11.7L23.4 5.2V2.6L13 9.1L2.6 2.6V5.2L13 11.7Z" fill="white"/>
</svg>
