<svg width="519" height="488" viewBox="0 0 519 488" fill="none" xmlns="http://www.w3.org/2000/svg">
<path d="M339.178 367.584C335.251 370.068 331.21 372.421 327.15 374.579C327.017 374.662 326.869 374.716 326.714 374.737C326.56 374.759 326.403 374.748 326.253 374.705C326.103 374.663 325.963 374.589 325.842 374.489C325.72 374.389 325.621 374.264 325.548 374.123C325.476 373.982 325.433 373.827 325.421 373.668C325.41 373.51 325.43 373.35 325.481 373.2C325.533 373.049 325.613 372.911 325.719 372.794C325.824 372.677 325.952 372.583 326.094 372.518C330.104 370.384 334.113 368.069 337.982 365.607C338.234 365.468 338.529 365.431 338.808 365.504C339.086 365.578 339.327 365.755 339.482 366.002C339.638 366.249 339.697 366.547 339.647 366.836C339.597 367.125 339.442 367.384 339.213 367.562L339.178 367.584ZM350.611 359.76C350.361 359.934 350.054 360 349.756 359.942C349.459 359.885 349.196 359.709 349.025 359.454C348.855 359.198 348.79 358.884 348.847 358.58C348.903 358.276 349.075 358.007 349.325 357.833C353.001 355.118 356.62 352.21 360.12 349.24C360.234 349.141 360.365 349.066 360.507 349.02C360.65 348.974 360.799 348.957 360.948 348.971C361.096 348.984 361.241 349.028 361.373 349.1C361.504 349.171 361.621 349.269 361.715 349.387C361.91 349.623 362.004 349.929 361.979 350.237C361.953 350.545 361.809 350.829 361.578 351.029C358.053 354.048 354.381 356.975 350.659 359.72L350.611 359.76ZM314.788 380.556L314.628 380.661C310.378 382.516 306.022 384.217 301.664 385.722C301.523 385.771 301.373 385.791 301.224 385.781C301.075 385.771 300.93 385.731 300.796 385.664C300.662 385.596 300.542 385.503 300.443 385.388C300.345 385.273 300.27 385.14 300.222 384.995C300.173 384.851 300.154 384.698 300.163 384.546C300.173 384.394 300.212 384.245 300.278 384.108C300.344 383.971 300.436 383.849 300.548 383.748C300.66 383.647 300.791 383.57 300.932 383.521C305.211 382.044 309.504 380.359 313.703 378.538C313.964 378.431 314.255 378.425 314.519 378.523C314.784 378.621 315.004 378.816 315.137 379.069C315.269 379.323 315.306 379.618 315.238 379.897C315.171 380.177 315.005 380.421 314.772 380.583L314.788 380.556ZM371.697 341.708C371.476 341.855 371.212 341.918 370.95 341.887C370.688 341.855 370.446 341.731 370.264 341.536C370.159 341.426 370.075 341.296 370.018 341.154C369.962 341.011 369.933 340.858 369.934 340.704C369.936 340.55 369.967 340.398 370.025 340.256C370.084 340.114 370.17 339.985 370.277 339.877C373.551 336.651 376.75 333.268 379.79 329.825C379.993 329.606 380.271 329.477 380.565 329.465C380.86 329.453 381.147 329.56 381.366 329.762C381.59 329.968 381.725 330.256 381.742 330.564C381.758 330.872 381.655 331.173 381.455 331.403C378.377 334.889 375.139 338.313 371.833 341.577L371.697 341.708ZM288.741 389.501C288.636 389.569 288.521 389.62 288.4 389.651C283.914 390.786 279.344 391.737 274.831 392.469C274.533 392.518 274.229 392.444 273.984 392.264C273.739 392.083 273.575 391.811 273.527 391.507C273.479 391.203 273.551 390.891 273.727 390.641C273.904 390.391 274.17 390.223 274.468 390.174C278.927 389.445 283.434 388.511 287.863 387.388C288.126 387.316 288.405 387.343 288.65 387.465C288.895 387.586 289.089 387.793 289.197 388.048C289.305 388.304 289.32 388.59 289.238 388.855C289.156 389.121 288.984 389.347 288.753 389.493L288.741 389.501ZM390.134 320.81C389.907 320.961 389.635 321.024 389.367 320.989C389.098 320.953 388.851 320.822 388.669 320.617C388.487 320.413 388.381 320.149 388.372 319.872C388.363 319.596 388.45 319.325 388.618 319.108C391.409 315.474 394.127 311.673 396.698 307.82C396.875 307.58 397.134 307.419 397.424 307.371C397.713 307.322 398.009 307.389 398.252 307.557C398.494 307.726 398.664 307.983 398.725 308.276C398.787 308.569 398.735 308.875 398.582 309.131C395.976 313.032 393.225 316.871 390.423 320.537C390.339 320.654 390.233 320.752 390.111 320.825L390.134 320.81ZM261.564 393.817C261.398 393.927 261.207 393.99 261.009 394C256.375 394.27 251.729 394.23 247.101 393.881C246.821 393.833 246.569 393.68 246.394 393.453C246.219 393.225 246.132 392.939 246.152 392.65C246.172 392.362 246.296 392.091 246.5 391.89C246.704 391.69 246.974 391.574 247.258 391.566C251.79 391.904 256.339 391.944 260.876 391.686C261.128 391.67 261.377 391.739 261.586 391.883C261.794 392.027 261.95 392.238 262.028 392.483C262.106 392.728 262.102 392.992 262.017 393.234C261.932 393.476 261.771 393.683 261.558 393.821L261.564 393.817ZM405.615 297.59C405.399 297.731 405.143 297.793 404.888 297.767C404.633 297.741 404.394 297.628 404.209 297.446C404.025 297.264 403.905 297.024 403.871 296.765C403.836 296.505 403.888 296.242 404.018 296.016C406.341 292.012 408.546 287.922 410.638 283.756C410.786 283.499 411.025 283.31 411.306 283.227C411.586 283.144 411.887 283.175 412.146 283.312C412.406 283.449 412.603 283.683 412.699 283.965C412.795 284.246 412.781 284.555 412.661 284.827C410.551 289.029 408.306 293.195 405.981 297.209C405.889 297.363 405.764 297.493 405.615 297.59ZM179.74 430.674C175.765 433.227 171.479 435.233 166.991 436.641C166.705 436.72 166.4 436.682 166.14 436.535C165.881 436.388 165.688 436.144 165.602 435.854C165.516 435.564 165.544 435.251 165.679 434.981C165.815 434.712 166.049 434.507 166.33 434.411C170.626 433.063 174.73 431.141 178.533 428.695C178.788 428.527 179.097 428.47 179.393 428.536C179.688 428.601 179.946 428.784 180.11 429.044C180.274 429.304 180.33 429.62 180.266 429.922C180.202 430.224 180.023 430.488 179.768 430.655L179.74 430.674ZM427.802 267.145C427.625 267.261 427.419 267.325 427.208 267.329C426.998 267.334 426.79 267.279 426.608 267.171C425.005 266.204 423.41 265.223 421.827 264.209C420.788 266.856 419.715 269.485 418.604 272.055C418.544 272.195 418.457 272.322 418.349 272.427C418.241 272.533 418.113 272.615 417.974 272.67C417.834 272.725 417.686 272.751 417.536 272.747C417.387 272.743 417.24 272.709 417.103 272.647C416.829 272.52 416.615 272.288 416.507 272.001C416.398 271.714 416.405 271.395 416.524 271.113C417.682 268.437 418.78 265.718 419.863 262.951C418.183 261.86 416.519 260.744 414.89 259.62C414.766 259.534 414.66 259.425 414.578 259.298C414.496 259.172 414.439 259.029 414.41 258.88C414.382 258.73 414.382 258.577 414.412 258.427C414.442 258.278 414.5 258.136 414.583 258.01C414.666 257.884 414.773 257.776 414.897 257.691C415.021 257.607 415.161 257.549 415.307 257.52C415.453 257.491 415.604 257.491 415.75 257.522C415.896 257.552 416.034 257.611 416.158 257.696C417.661 258.732 419.182 259.754 420.721 260.761C421.053 259.89 421.37 259.022 421.692 258.149C421.744 258.006 421.822 257.874 421.924 257.762C422.025 257.65 422.148 257.56 422.284 257.497C422.42 257.433 422.567 257.398 422.716 257.394C422.865 257.389 423.014 257.414 423.154 257.469C423.436 257.579 423.664 257.798 423.789 258.078C423.915 258.359 423.927 258.678 423.823 258.968C423.449 259.99 423.069 261.01 422.682 262.029C424.361 263.104 426.06 264.148 427.764 265.173C427.931 265.274 428.072 265.416 428.17 265.587C428.269 265.759 428.323 265.953 428.328 266.152C428.332 266.35 428.287 266.547 428.197 266.723C428.106 266.899 427.973 267.048 427.809 267.156L427.802 267.145ZM190.616 422.094C190.376 422.246 190.089 422.302 189.811 422.251C189.533 422.2 189.283 422.046 189.11 421.818C188.938 421.589 188.854 421.304 188.875 421.016C188.896 420.728 189.022 420.458 189.226 420.259C192.544 417.09 195.653 413.7 198.533 410.111C198.733 409.897 199.005 409.769 199.294 409.752C199.583 409.736 199.868 409.832 200.09 410.022C200.312 410.211 200.455 410.48 200.491 410.774C200.526 411.067 200.451 411.364 200.28 411.603C197.339 415.274 194.162 418.741 190.772 421.983C190.725 422.027 190.674 422.066 190.619 422.099L190.616 422.094ZM234.186 391.531C234.055 391.617 233.908 391.674 233.755 391.7C233.602 391.725 233.445 391.719 233.294 391.68C228.752 390.544 224.338 388.928 220.123 386.859C219.978 386.799 219.847 386.709 219.738 386.596C219.628 386.482 219.543 386.347 219.487 386.198C219.431 386.049 219.405 385.89 219.411 385.731C219.418 385.571 219.456 385.415 219.524 385.272C219.592 385.128 219.688 385 219.806 384.896C219.924 384.792 220.062 384.713 220.211 384.666C220.36 384.618 220.517 384.602 220.672 384.619C220.827 384.636 220.977 384.685 221.113 384.764C225.185 386.763 229.449 388.326 233.837 389.426C234.13 389.499 234.382 389.688 234.539 389.952C234.696 390.215 234.744 390.531 234.673 390.831C234.608 391.122 234.435 391.375 234.19 391.537L234.186 391.531ZM153.668 438.463C153.477 438.586 153.256 438.648 153.03 438.644C148.319 438.517 143.657 437.635 139.214 436.029C138.93 435.928 138.696 435.715 138.564 435.439C138.433 435.162 138.413 434.844 138.51 434.553C138.558 434.408 138.633 434.274 138.732 434.159C138.83 434.044 138.951 433.951 139.085 433.884C139.219 433.817 139.366 433.778 139.515 433.769C139.664 433.761 139.814 433.782 139.955 433.833C144.187 435.352 148.626 436.183 153.111 436.297C153.355 436.303 153.59 436.388 153.782 436.541C153.975 436.694 154.115 436.906 154.181 437.146C154.247 437.386 154.236 437.641 154.15 437.874C154.064 438.107 153.907 438.306 153.702 438.441L153.668 438.463ZM208.258 400.588C208.073 400.712 207.856 400.778 207.634 400.777C207.412 400.776 207.195 400.709 207.011 400.582C206.762 400.408 206.59 400.14 206.534 399.837C206.477 399.534 206.541 399.22 206.711 398.964C207.668 397.51 208.665 396.029 209.635 394.466C211.212 391.969 212.707 389.508 214.074 387.165C214.15 387.034 214.251 386.92 214.371 386.829C214.491 386.738 214.627 386.671 214.772 386.634C214.917 386.597 215.067 386.589 215.215 386.611C215.363 386.633 215.505 386.685 215.633 386.763C215.761 386.841 215.873 386.944 215.962 387.067C216.052 387.189 216.116 387.328 216.153 387.476C216.19 387.624 216.197 387.778 216.176 387.929C216.154 388.08 216.104 388.225 216.027 388.356C214.648 390.732 213.14 393.209 211.544 395.728C210.559 397.292 209.561 398.823 208.589 400.279C208.504 400.398 208.397 400.499 208.275 400.576L208.258 400.588ZM427.81 246.22C427.613 246.361 427.376 246.434 427.135 246.428C426.894 246.422 426.661 246.338 426.47 246.187C426.279 246.037 426.14 245.828 426.073 245.592C426.006 245.355 426.014 245.103 426.097 244.871C427.438 240.449 428.696 235.908 429.819 231.382C429.849 231.226 429.909 231.078 429.997 230.947C430.085 230.815 430.198 230.704 430.329 230.619C430.461 230.534 430.608 230.478 430.761 230.453C430.915 230.428 431.072 230.436 431.223 230.476C431.373 230.515 431.514 230.586 431.637 230.683C431.76 230.78 431.862 230.902 431.938 231.041C432.013 231.181 432.059 231.334 432.074 231.492C432.089 231.65 432.072 231.81 432.025 231.961C430.871 236.541 429.622 241.109 428.263 245.567C428.196 245.826 428.041 246.053 427.827 246.209L427.81 246.22ZM222.287 376.358C222.077 376.495 221.829 376.558 221.581 376.538C221.333 376.517 221.098 376.414 220.912 376.245C220.727 376.075 220.6 375.848 220.553 375.598C220.505 375.348 220.539 375.089 220.65 374.86C222.669 370.701 224.463 366.43 226.022 362.068C226.072 361.925 226.15 361.793 226.25 361.68C226.351 361.567 226.472 361.476 226.607 361.412C226.743 361.347 226.889 361.311 227.038 361.305C227.187 361.299 227.336 361.323 227.476 361.376C227.759 361.481 227.991 361.696 228.12 361.975C228.248 362.254 228.264 362.573 228.162 362.864C226.568 367.321 224.733 371.685 222.667 375.935C222.574 376.11 222.44 376.258 222.276 376.366L222.287 376.358ZM404.973 251.362C404.777 251.492 404.546 251.556 404.312 251.546C404.078 251.535 403.853 251.451 403.669 251.304C400.017 248.416 396.401 245.356 392.977 242.278C392.864 242.177 392.773 242.055 392.707 241.918C392.641 241.781 392.602 241.632 392.592 241.48C392.583 241.327 392.602 241.175 392.65 241.03C392.698 240.886 392.774 240.752 392.872 240.638C392.971 240.523 393.091 240.429 393.225 240.362C393.359 240.295 393.504 240.255 393.653 240.245C393.802 240.235 393.952 240.255 394.093 240.304C394.234 240.354 394.365 240.431 394.477 240.531C397.883 243.606 401.437 246.607 405.052 249.462C405.291 249.65 405.447 249.926 405.488 250.231C405.529 250.536 405.451 250.845 405.271 251.092C405.184 251.202 405.08 251.296 404.962 251.37L404.973 251.362ZM209.692 379.171C209.487 379.304 209.245 379.368 209.002 379.351C208.759 379.334 208.527 379.238 208.341 379.077C204.756 375.971 201.561 372.424 198.83 368.515C198.655 368.265 198.584 367.954 198.631 367.651C198.679 367.347 198.842 367.075 199.085 366.894C199.206 366.802 199.344 366.736 199.491 366.7C199.638 366.664 199.79 366.659 199.939 366.684C200.087 366.71 200.23 366.765 200.357 366.848C200.484 366.931 200.593 367.04 200.678 367.167C203.299 370.919 206.366 374.324 209.808 377.303C209.943 377.422 210.049 377.57 210.117 377.737C210.186 377.904 210.216 378.086 210.205 378.267C210.194 378.447 210.141 378.623 210.053 378.78C209.964 378.937 209.84 379.071 209.692 379.171ZM127.962 429.524C127.776 429.649 127.558 429.715 127.335 429.715C127.113 429.715 126.895 429.648 126.709 429.523C122.848 426.806 119.296 423.656 116.119 420.132C116.005 420.023 115.915 419.891 115.853 419.744C115.791 419.597 115.759 419.439 115.76 419.28C115.76 419.12 115.793 418.962 115.855 418.816C115.918 418.669 116.009 418.538 116.124 418.429C116.238 418.32 116.373 418.237 116.521 418.184C116.668 418.13 116.825 418.109 116.981 418.12C117.137 418.131 117.289 418.175 117.427 418.249C117.566 418.323 117.688 418.425 117.787 418.549C120.846 421.949 124.271 424.987 127.996 427.604C128.119 427.69 128.225 427.8 128.306 427.927C128.388 428.055 128.444 428.197 128.472 428.347C128.499 428.497 128.497 428.651 128.467 428.8C128.436 428.949 128.377 429.09 128.293 429.216C128.2 429.343 128.084 429.451 127.951 429.532L127.962 429.524ZM434.621 218.915C434.433 219.038 434.213 219.102 433.989 219.098C433.765 219.095 433.547 219.024 433.362 218.895C433.178 218.765 433.034 218.583 432.95 218.372C432.866 218.16 432.844 217.927 432.888 217.703C433.772 213.144 434.552 208.497 435.207 203.882C435.229 203.731 435.279 203.586 435.356 203.456C435.432 203.325 435.533 203.211 435.653 203.12C435.772 203.029 435.908 202.963 436.053 202.925C436.198 202.888 436.348 202.88 436.496 202.903C436.643 202.925 436.785 202.976 436.913 203.055C437.041 203.133 437.153 203.236 437.242 203.358C437.331 203.48 437.396 203.619 437.432 203.767C437.468 203.915 437.476 204.069 437.454 204.22C436.795 208.878 436.007 213.564 435.104 218.143C435.078 218.302 435.02 218.453 434.934 218.588C434.848 218.723 434.735 218.838 434.604 218.926L434.621 218.915ZM231.443 349.879C231.197 350.043 230.897 350.102 230.608 350.04C230.314 349.974 230.057 349.792 229.893 349.533C229.73 349.273 229.674 348.959 229.737 348.657C230.632 344.126 231.094 339.517 231.115 334.895C231.116 334.586 231.236 334.291 231.45 334.074C231.664 333.857 231.953 333.735 232.255 333.736C232.556 333.737 232.845 333.86 233.058 334.079C233.27 334.297 233.389 334.593 233.388 334.901C233.35 339.677 232.856 344.437 231.915 349.115C231.889 349.271 231.833 349.421 231.749 349.554C231.665 349.687 231.555 349.802 231.426 349.89L231.443 349.879ZM384.31 232.711C384.091 232.855 383.829 232.917 383.57 232.888C383.311 232.859 383.069 232.74 382.885 232.551C379.63 229.204 376.451 225.708 373.444 222.165C373.346 222.05 373.272 221.916 373.224 221.771C373.177 221.627 373.158 221.474 373.168 221.322C373.179 221.17 373.218 221.022 373.285 220.885C373.351 220.749 373.443 220.627 373.556 220.527C373.668 220.427 373.799 220.351 373.941 220.303C374.082 220.254 374.231 220.235 374.38 220.245C374.529 220.256 374.674 220.296 374.808 220.364C374.941 220.432 375.06 220.526 375.158 220.641C378.133 224.147 381.277 227.6 384.495 230.914C384.602 231.022 384.687 231.15 384.745 231.291C384.803 231.432 384.833 231.584 384.834 231.737C384.834 231.89 384.805 232.042 384.747 232.184C384.69 232.325 384.605 232.454 384.499 232.562C384.438 232.624 384.368 232.678 384.293 232.722L384.31 232.711ZM193.725 356.499C193.67 356.543 193.61 356.582 193.548 356.615C193.407 356.674 193.256 356.704 193.103 356.702C192.951 356.701 192.8 356.668 192.661 356.607C192.521 356.545 192.394 356.455 192.289 356.342C192.184 356.23 192.102 356.097 192.048 355.951C190.271 351.513 189.005 346.879 188.276 342.142C188.252 341.991 188.257 341.837 188.292 341.688C188.327 341.539 188.39 341.399 188.479 341.275C188.567 341.152 188.679 341.048 188.807 340.969C188.935 340.89 189.077 340.838 189.226 340.816C189.523 340.772 189.826 340.849 190.068 341.03C190.311 341.212 190.474 341.483 190.523 341.786C191.222 346.346 192.441 350.807 194.154 355.077C194.258 355.331 194.271 355.615 194.189 355.878C194.107 356.14 193.937 356.364 193.708 356.51L193.725 356.499ZM109.291 409.035C109.163 409.114 109.021 409.166 108.873 409.189C108.725 409.211 108.574 409.204 108.429 409.166C108.284 409.129 108.147 409.063 108.027 408.971C107.907 408.88 107.806 408.765 107.73 408.634C105.317 404.533 103.333 400.184 101.811 395.659C101.763 395.515 101.743 395.362 101.752 395.21C101.761 395.058 101.8 394.909 101.865 394.772C101.931 394.635 102.022 394.513 102.134 394.412C102.246 394.311 102.376 394.233 102.517 394.184C102.658 394.134 102.808 394.114 102.957 394.123C103.106 394.133 103.251 394.172 103.385 394.239C103.519 394.306 103.639 394.399 103.738 394.514C103.837 394.628 103.913 394.761 103.961 394.905C105.428 399.279 107.344 403.482 109.678 407.444C109.755 407.574 109.806 407.719 109.828 407.869C109.85 408.02 109.843 408.173 109.807 408.321C109.771 408.469 109.707 408.608 109.618 408.73C109.53 408.853 109.419 408.956 109.291 409.035ZM438.553 191.053C438.373 191.168 438.165 191.23 437.953 191.232C437.741 191.233 437.532 191.174 437.351 191.061C437.169 190.947 437.023 190.785 436.927 190.591C436.831 190.397 436.79 190.18 436.809 189.963C437.231 185.222 437.512 180.514 437.65 175.976C437.655 175.824 437.689 175.674 437.75 175.535C437.812 175.396 437.899 175.272 438.008 175.167C438.117 175.063 438.245 174.982 438.384 174.928C438.524 174.875 438.672 174.85 438.821 174.855C438.97 174.86 439.117 174.895 439.252 174.957C439.388 175.02 439.51 175.11 439.612 175.221C439.714 175.332 439.794 175.463 439.846 175.605C439.899 175.748 439.923 175.9 439.918 176.052C439.786 180.636 439.507 185.4 439.072 190.183C439.056 190.36 439 190.531 438.909 190.682C438.818 190.834 438.694 190.962 438.547 191.056L438.553 191.053ZM231.249 321.941C231.15 322.004 231.042 322.053 230.929 322.086C230.784 322.125 230.634 322.136 230.485 322.116C230.337 322.096 230.194 322.046 230.065 321.969C229.935 321.892 229.822 321.79 229.731 321.668C229.641 321.547 229.575 321.408 229.537 321.26C228.601 317.707 227.143 314.32 225.212 311.214C224.742 310.467 224.241 309.749 223.726 309.072C223.545 308.827 223.465 308.519 223.504 308.213C223.543 307.908 223.697 307.631 223.934 307.442C224.052 307.348 224.187 307.28 224.331 307.24C224.475 307.199 224.625 307.189 224.773 307.208C224.92 307.227 225.063 307.276 225.193 307.352C225.322 307.427 225.435 307.528 225.527 307.649C226.078 308.384 226.612 309.155 227.12 309.96C229.177 313.267 230.733 316.874 231.733 320.657C231.795 320.897 231.782 321.151 231.694 321.382C231.606 321.614 231.448 321.81 231.244 321.945L231.249 321.941ZM189.56 328.911C189.381 329.026 189.173 329.088 188.96 329.09C188.748 329.091 188.539 329.032 188.358 328.919C188.177 328.805 188.03 328.643 187.934 328.449C187.838 328.255 187.798 328.038 187.816 327.821C187.999 325.816 188.291 323.822 188.69 321.85C189.248 319.098 190.092 316.415 191.209 313.847C191.344 313.585 191.572 313.385 191.846 313.288C192.121 313.191 192.421 313.205 192.685 313.327C192.95 313.448 193.16 313.668 193.271 313.941C193.383 314.215 193.389 314.522 193.287 314.8C192.237 317.216 191.441 319.739 190.913 322.327C190.536 324.215 190.258 326.123 190.079 328.041C190.063 328.218 190.007 328.389 189.916 328.54C189.825 328.692 189.702 328.82 189.555 328.914L189.56 328.911ZM366.247 211.417C366.004 211.575 365.711 211.633 365.428 211.579C365.145 211.524 364.892 211.362 364.722 211.124C362.526 208.112 360.446 205.041 358.528 201.995C357.98 201.125 357.425 200.244 356.882 199.381C356.725 199.122 356.673 198.811 356.738 198.513C356.803 198.216 356.979 197.957 357.229 197.791C357.357 197.711 357.499 197.658 357.647 197.634C357.795 197.61 357.946 197.616 358.092 197.652C358.237 197.688 358.375 197.753 358.496 197.844C358.617 197.934 358.719 198.048 358.797 198.178C359.338 199.036 359.878 199.894 360.418 200.752C362.3 203.739 364.347 206.758 366.52 209.735C366.699 209.983 366.774 210.293 366.73 210.597C366.685 210.902 366.525 211.176 366.284 211.36L366.247 211.417ZM439.352 162.907C439.18 163.019 438.981 163.081 438.778 163.087C438.476 163.096 438.183 162.984 437.962 162.774C437.741 162.565 437.609 162.274 437.596 161.966C437.418 157.222 437.059 152.524 436.543 148.011C436.523 147.86 436.534 147.706 436.573 147.559C436.613 147.412 436.681 147.275 436.773 147.155C436.865 147.035 436.98 146.935 437.111 146.861C437.241 146.787 437.385 146.741 437.533 146.724C437.681 146.706 437.832 146.718 437.976 146.759C438.12 146.8 438.254 146.87 438.372 146.965C438.489 147.059 438.587 147.177 438.66 147.31C438.733 147.444 438.779 147.59 438.796 147.742C439.339 152.336 439.683 157.061 439.872 161.888C439.88 162.091 439.835 162.292 439.743 162.472C439.65 162.651 439.514 162.803 439.346 162.911L439.352 162.907ZM100.194 382.603C100.061 382.693 99.9113 382.752 99.7542 382.777C99.4561 382.825 99.1514 382.75 98.9072 382.569C98.6629 382.388 98.4989 382.115 98.451 381.81C97.7315 377.115 97.3355 372.373 97.266 367.62C97.2629 367.467 97.2895 367.315 97.3443 367.173C97.399 367.03 97.4809 366.9 97.5851 366.79C97.6893 366.68 97.8137 366.593 97.9513 366.532C98.0888 366.472 98.2367 366.439 98.3865 366.438C98.6879 366.435 98.9783 366.554 99.1948 366.768C99.4114 366.982 99.5368 367.275 99.5438 367.583C99.61 372.226 99.9963 376.858 100.7 381.445C100.735 381.669 100.705 381.898 100.614 382.104C100.523 382.311 100.375 382.486 100.188 382.607L100.194 382.603ZM214.169 301.412C214.039 301.496 213.894 301.553 213.743 301.579C213.591 301.605 213.436 301.599 213.287 301.563C211.795 301.211 210.257 301.107 208.733 301.257C206.001 301.529 203.393 302.557 201.19 304.23C200.945 304.392 200.648 304.453 200.36 304.398C200.073 304.344 199.817 304.179 199.645 303.937C199.473 303.696 199.399 303.396 199.437 303.1C199.475 302.804 199.623 302.534 199.85 302.346C202.385 300.425 205.385 299.248 208.527 298.942C210.302 298.772 212.092 298.902 213.825 299.328C214.12 299.394 214.377 299.576 214.54 299.835C214.703 300.094 214.759 300.409 214.696 300.71C214.615 301.008 214.424 301.261 214.163 301.416L214.169 301.412ZM436.067 134.947C435.951 135.026 435.821 135.08 435.684 135.108C435.537 135.143 435.385 135.147 435.236 135.12C435.087 135.094 434.945 135.038 434.818 134.955C434.69 134.872 434.581 134.764 434.494 134.638C434.408 134.511 434.347 134.368 434.315 134.218C433.364 129.604 432.202 125.053 430.85 120.702C430.805 120.557 430.789 120.404 430.802 120.252C430.815 120.1 430.857 119.952 430.925 119.816C430.994 119.681 431.089 119.561 431.203 119.463C431.317 119.365 431.449 119.291 431.592 119.245C431.734 119.199 431.884 119.182 432.033 119.195C432.181 119.208 432.326 119.251 432.458 119.322C432.591 119.392 432.708 119.489 432.804 119.605C432.9 119.722 432.973 119.857 433.018 120.003C434.427 124.512 435.613 129.092 436.572 133.724C436.621 133.957 436.598 134.2 436.507 134.42C436.415 134.64 436.26 134.825 436.061 134.951L436.067 134.947ZM99.5863 354.508C99.4065 354.624 99.1986 354.686 98.9861 354.687C98.7736 354.689 98.5651 354.629 98.3838 354.516C98.2025 354.403 98.0557 354.24 97.96 354.046C97.8644 353.852 97.8236 353.635 97.8423 353.419C98.2631 348.958 98.9065 344.236 99.7763 339.372C99.8032 339.223 99.8589 339.079 99.9399 338.951C100.021 338.824 100.126 338.713 100.249 338.627C100.372 338.54 100.51 338.479 100.656 338.447C100.802 338.415 100.952 338.413 101.099 338.441C101.246 338.468 101.386 338.525 101.511 338.608C101.636 338.691 101.744 338.798 101.829 338.923C101.914 339.049 101.973 339.19 102.005 339.339C102.036 339.488 102.038 339.642 102.011 339.792C101.159 344.594 100.515 349.251 100.105 353.639C100.089 353.816 100.033 353.986 99.9422 354.138C99.8513 354.289 99.7276 354.417 99.5806 354.512L99.5863 354.508ZM351.88 187.387L351.76 187.466C351.625 187.533 351.479 187.572 351.33 187.581C351.181 187.59 351.031 187.568 350.89 187.517C350.749 187.466 350.619 187.387 350.508 187.285C350.398 187.182 350.308 187.058 350.244 186.92C348.228 182.642 346.47 178.242 344.982 173.744C344.887 173.453 344.908 173.134 345.042 172.859C345.176 172.583 345.411 172.374 345.697 172.276C345.982 172.178 346.294 172.2 346.563 172.337C346.833 172.474 347.038 172.714 347.134 173.006C348.595 177.413 350.318 181.725 352.295 185.918C352.411 186.174 352.432 186.464 352.355 186.735C352.278 187.006 352.107 187.239 351.874 187.391L351.88 187.387ZM104.418 326.805C104.226 326.93 104.001 326.994 103.774 326.988C103.546 326.982 103.325 326.906 103.139 326.77C102.954 326.635 102.813 326.446 102.734 326.227C102.654 326.009 102.641 325.771 102.696 325.545C103.248 323.242 103.872 320.81 104.539 318.316C105.115 316.155 105.715 314.003 106.307 311.905C106.406 311.626 106.606 311.396 106.865 311.262C107.125 311.128 107.424 311.101 107.703 311.185C107.981 311.269 108.218 311.459 108.365 311.715C108.511 311.972 108.556 312.275 108.491 312.565C107.884 314.614 107.309 316.791 106.737 318.934C106.068 321.412 105.458 323.827 104.906 326.105C104.838 326.394 104.663 326.645 104.418 326.805ZM427.515 108.24L427.406 108.311C427.135 108.446 426.822 108.466 426.536 108.367C426.249 108.268 426.013 108.058 425.878 107.782C424.688 105.31 423.361 102.909 421.906 100.59C420.895 98.9857 419.831 97.4495 418.74 96.013C418.648 95.8928 418.581 95.7553 418.541 95.6085C418.502 95.4616 418.491 95.3082 418.509 95.157C418.527 95.0058 418.575 94.8598 418.648 94.7274C418.722 94.5949 418.82 94.4785 418.938 94.3849C419.056 94.2913 419.19 94.2223 419.334 94.1818C419.478 94.1413 419.628 94.1301 419.776 94.1489C419.924 94.1677 420.066 94.2161 420.196 94.2913C420.326 94.3665 420.44 94.4671 420.531 94.5873C421.664 96.0784 422.765 97.673 423.813 99.336C425.316 101.728 426.687 104.204 427.919 106.753C428.04 107.008 428.067 107.3 427.992 107.574C427.918 107.848 427.748 108.085 427.515 108.24ZM343.204 160.728C343.079 160.81 342.94 160.868 342.795 160.898C342.498 160.953 342.192 160.885 341.943 160.71C341.695 160.534 341.525 160.266 341.47 159.962C340.882 156.708 340.469 153.424 340.232 150.123C340.134 148.686 340.072 147.216 340.052 145.761C340.039 145.601 340.058 145.441 340.109 145.289C340.159 145.138 340.24 144.999 340.345 144.88C340.45 144.762 340.579 144.667 340.721 144.601C340.864 144.536 341.019 144.501 341.175 144.499C341.332 144.497 341.487 144.528 341.631 144.59C341.776 144.652 341.906 144.744 342.014 144.86C342.122 144.975 342.206 145.113 342.26 145.263C342.314 145.413 342.337 145.573 342.328 145.733C342.347 147.148 342.404 148.571 342.506 149.964C342.732 153.178 343.13 156.377 343.696 159.547C343.733 159.77 343.705 159.999 343.616 160.206C343.527 160.413 343.38 160.588 343.193 160.711L343.204 160.728ZM112.117 299.782C111.918 299.916 111.683 299.984 111.445 299.975C111.207 299.965 110.978 299.88 110.789 299.731C110.601 299.582 110.463 299.376 110.395 299.143C110.327 298.909 110.332 298.66 110.409 298.43C111.851 293.974 113.387 289.49 114.948 285.121C114.999 284.978 115.077 284.846 115.178 284.733C115.279 284.621 115.401 284.53 115.536 284.467C115.672 284.403 115.819 284.367 115.968 284.362C116.117 284.356 116.266 284.381 116.406 284.435C116.688 284.543 116.917 284.761 117.043 285.041C117.17 285.321 117.183 285.64 117.081 285.93C115.484 290.281 113.975 294.756 112.516 299.198C112.44 299.425 112.297 299.623 112.106 299.765L112.117 299.782ZM342.882 132.701C342.642 132.859 342.352 132.917 342.071 132.863C341.774 132.81 341.509 132.638 341.335 132.386C341.161 132.134 341.092 131.822 341.143 131.517C341.923 126.818 343.128 122.202 344.742 117.73C344.867 117.47 345.081 117.266 345.345 117.159C345.608 117.052 345.901 117.049 346.166 117.15C346.431 117.252 346.65 117.45 346.78 117.708C346.91 117.965 346.942 118.262 346.869 118.542C345.303 122.877 344.131 127.35 343.365 131.904C343.34 132.062 343.283 132.213 343.198 132.347C343.113 132.481 343.001 132.595 342.871 132.684L342.882 132.701ZM410.422 86.448C410.231 86.5742 410.007 86.639 409.78 86.6343C409.552 86.6295 409.331 86.5553 409.146 86.4212C405.548 83.7425 401.432 81.8805 397.073 80.9598C396.793 80.8839 396.552 80.7023 396.399 80.4517C396.245 80.2011 396.191 79.9003 396.246 79.6101C396.301 79.3199 396.462 79.062 396.697 78.8887C396.931 78.7153 397.221 78.6394 397.508 78.6764C402.171 79.6677 406.575 81.6601 410.428 84.5214C410.674 84.7003 410.84 84.9712 410.891 85.275C410.941 85.5788 410.872 85.8909 410.698 86.1427C410.619 86.2546 410.522 86.3519 410.411 86.4305L410.422 86.448ZM121.67 273.381C121.468 273.524 121.225 273.597 120.98 273.588C120.734 273.579 120.497 273.488 120.306 273.329C120.115 273.171 119.98 272.953 119.921 272.709C119.861 272.465 119.881 272.208 119.978 271.977C121.711 267.651 123.55 263.289 125.441 259.009C125.58 258.75 125.809 258.556 126.082 258.463C126.356 258.37 126.653 258.387 126.915 258.509C127.177 258.631 127.384 258.85 127.495 259.122C127.605 259.394 127.611 259.698 127.511 259.974C125.636 264.228 123.803 268.561 122.079 272.864C121.989 273.068 121.843 273.242 121.659 273.363L121.67 273.381ZM352.418 106.467C352.234 106.587 352.02 106.649 351.801 106.647C351.583 106.644 351.37 106.575 351.189 106.45C351.062 106.371 350.951 106.267 350.864 106.143C350.776 106.02 350.713 105.881 350.678 105.733C350.644 105.585 350.638 105.431 350.661 105.281C350.684 105.13 350.737 104.986 350.814 104.856C353.255 100.777 356.136 96.9912 359.405 93.5702C359.621 93.3732 359.902 93.2676 360.192 93.2747C360.481 93.2818 360.757 93.4011 360.964 93.6084C361.17 93.8157 361.292 94.0956 361.304 94.3912C361.316 94.6868 361.218 94.9761 361.029 95.2004C357.881 98.4971 355.105 102.144 352.752 106.074C352.671 106.228 352.557 106.363 352.418 106.467ZM133.007 247.736C132.797 247.873 132.549 247.937 132.301 247.916C132.052 247.895 131.817 247.793 131.632 247.623C131.446 247.453 131.32 247.226 131.272 246.976C131.225 246.726 131.259 246.467 131.369 246.239C133.398 242.049 135.531 237.832 137.7 233.699C137.851 233.441 138.093 233.253 138.377 233.173C138.66 233.094 138.963 233.129 139.221 233.272C139.48 233.414 139.675 233.654 139.765 233.939C139.855 234.225 139.834 234.536 139.706 234.806C137.543 238.911 135.423 243.11 133.41 247.273C133.311 247.455 133.167 247.607 132.992 247.713L133.007 247.736ZM384.277 81.2474C384.17 81.3172 384.053 81.3692 383.93 81.4014C381.048 82.1416 378.248 83.1836 375.576 84.5109C374.232 85.1721 372.896 85.9104 371.599 86.6974C371.341 86.8309 371.044 86.8595 370.766 86.7776C370.489 86.6957 370.252 86.5093 370.104 86.256C369.956 86.0028 369.907 85.7015 369.967 85.413C370.028 85.1245 370.193 84.8702 370.43 84.7014C371.784 83.8768 373.181 83.1068 374.586 82.4139C377.395 81.0081 380.338 79.902 383.369 79.1132C383.631 79.0468 383.907 79.0775 384.149 79.2C384.391 79.3224 384.583 79.5286 384.69 79.7819C384.797 80.0352 384.813 80.3191 384.735 80.5832C384.656 80.8473 384.489 81.0743 384.262 81.224L384.277 81.2474ZM146.079 222.948C145.863 223.091 145.607 223.155 145.351 223.13C145.095 223.105 144.855 222.992 144.67 222.811C144.484 222.629 144.364 222.389 144.329 222.129C144.294 221.869 144.346 221.604 144.476 221.378C146.777 217.339 149.196 213.281 151.643 209.32C151.822 209.113 152.067 208.978 152.335 208.938C152.602 208.898 152.875 208.957 153.104 209.104C153.333 209.25 153.503 209.475 153.585 209.738C153.667 210.002 153.655 210.286 153.551 210.541C151.123 214.481 148.72 218.513 146.422 222.532C146.333 222.698 146.204 222.837 146.047 222.936L146.079 222.948ZM160.781 199.159C160.559 199.298 160.298 199.356 160.039 199.324C159.781 199.291 159.541 199.17 159.359 198.979C159.177 198.789 159.064 198.541 159.038 198.276C159.012 198.011 159.075 197.745 159.217 197.522C161.796 193.655 164.482 189.777 167.193 186.005C167.38 185.779 167.643 185.634 167.93 185.599C168.217 185.564 168.507 185.642 168.74 185.817C168.973 185.991 169.132 186.25 169.186 186.54C169.24 186.83 169.183 187.131 169.029 187.38C166.331 191.135 163.665 194.993 161.101 198.833C161.006 198.961 160.886 199.068 160.749 199.147L160.781 199.159ZM177.065 176.484C176.838 176.633 176.566 176.694 176.298 176.658C176.031 176.621 175.784 176.489 175.603 176.285C175.422 176.08 175.318 175.816 175.309 175.54C175.3 175.265 175.387 174.995 175.555 174.778C178.393 171.104 181.335 167.428 184.298 163.862C184.492 163.625 184.77 163.476 185.072 163.449C185.374 163.422 185.673 163.518 185.906 163.717C186.138 163.915 186.283 164.2 186.31 164.508C186.337 164.816 186.243 165.123 186.048 165.36C183.099 168.909 180.158 172.535 177.357 176.217C177.264 176.32 177.155 176.406 177.033 176.471L177.065 176.484Z" fill="#0D527C" fill-opacity="0.32"/>
<path d="M201.386 176.415L182.749 142.979L158.469 133.367L229.403 97.2598L201.386 176.415ZM164.055 133.134L184.28 141.139L200.91 170.902L225.313 101.947L164.055 133.134Z" fill="#0D527C" fill-opacity="0.32"/>
<path d="M192.398 157.965L164.388 158.868L227.679 99.0869L192.398 157.965ZM170.393 156.363L191.066 155.697L217.14 112.241L170.393 156.363Z" fill="#0D527C" fill-opacity="0.32"/>
</svg>
