<svg width="218" height="321" viewBox="0 0 218 321" fill="none" xmlns="http://www.w3.org/2000/svg">
<g clip-path="url(#clip0_230_745)">
<path d="M56.0567 57.2318C56.0567 57.2318 67.8691 7.04586 121.131 9.11137C174.393 11.1769 182.603 55.1876 182.337 62.2313C182.072 69.2751 56.0567 57.2318 56.0567 57.2318Z" fill="#C62424"/>
<path d="M56.0443 57.2227L47.667 276.47L173.948 281.295L182.325 62.0479L56.0443 57.2227Z" fill="#C62424"/>
<path d="M171.515 68.6058L128.83 66.9756L109.123 66.2206L66.4374 64.5904C65.4212 64.551 64.4308 64.9163 63.6837 65.6062C62.9365 66.2961 62.4935 67.2542 62.4519 68.2703L61.7941 85.5874C61.7731 86.0903 61.8517 86.5923 62.0254 87.0647C62.1992 87.537 62.4647 87.9704 62.8066 88.3398C63.1484 88.7092 63.5599 89.0073 64.0174 89.2171C64.4749 89.4269 64.9694 89.5441 65.4724 89.5621L108.17 91.2014L127.875 91.9456L170.561 93.5758C171.064 93.5968 171.566 93.5182 172.038 93.3444C172.511 93.1706 172.944 92.9052 173.313 92.5633C173.683 92.2215 173.981 91.81 174.191 91.3524C174.4 90.8949 174.518 90.4005 174.536 89.8975L175.203 72.5681C175.239 71.5538 174.871 70.5667 174.179 69.8237C173.488 69.0806 172.529 68.6426 171.515 68.6058Z" fill="#A31C1C"/>
<path d="M170.216 101.863L127.509 100.236L107.813 99.4794L65.1198 97.8723C64.6173 97.8528 64.1158 97.9324 63.644 98.1067C63.1723 98.281 62.7396 98.5465 62.3705 98.8881C62.0014 99.2297 61.7032 99.6407 61.4929 100.098C61.2826 100.554 61.1644 101.048 61.145 101.551L60.74 112.332L60.4887 118.878L55.3421 253.45L55.2163 256.833L54.6859 270.778C54.6663 271.28 54.7459 271.782 54.9202 272.253C55.0945 272.725 55.3601 273.158 55.7016 273.527C56.0432 273.896 56.4542 274.194 56.911 274.404C57.3679 274.615 57.8616 274.733 58.3641 274.752L101.06 276.381L120.755 277.127L163.451 278.755C163.954 278.775 164.455 278.695 164.927 278.521C165.399 278.347 165.831 278.081 166.2 277.739C166.569 277.398 166.868 276.987 167.078 276.53C167.288 276.073 167.406 275.579 167.426 275.077L167.958 261.143L168.093 257.748L173.23 123.189L173.48 116.631L173.887 105.861C173.909 105.357 173.832 104.854 173.66 104.38C173.487 103.906 173.223 103.471 172.882 103.099C172.541 102.728 172.13 102.427 171.672 102.215C171.215 102.003 170.72 101.883 170.216 101.863Z" fill="#E33C36"/>
<path d="M123.001 16.2457C123.001 16.2457 96.8365 14.7976 77.6587 33.2841C58.4809 51.7707 66.6004 57.595 68.6839 57.7044L164.628 61.3785C169.692 61.5635 176.049 62.8325 172.508 54.1422C168.967 45.4518 150.748 18.9442 123.001 16.2457Z" fill="#E33C36"/>
<path d="M89.7074 44.0355C89.7074 44.0355 98.5549 24.8462 120.728 25.6979C142.901 26.5495 153.413 43.6312 149.047 48.8299C146.083 52.3477 85.1123 55.184 89.7074 44.0355Z" fill="#A31C1C"/>
<path d="M159.397 74.0946L133.764 73.1175L130.323 72.9782L107.101 72.095L104.701 71.9995L78.0168 70.9801C77.6404 70.9684 77.2748 71.1061 76.9997 71.3632C76.7245 71.6202 76.5623 71.9758 76.5485 72.352L76.1187 83.4116C76.1043 83.7818 76.2336 84.1433 76.4796 84.4204C76.7256 84.6976 77.0691 84.8689 77.4384 84.8985L104.133 85.9164L106.521 86.0027L129.745 86.8966L133.184 87.0252L158.817 88.0024C159.187 88.0223 159.55 87.8948 159.827 87.6478C160.104 87.4008 160.271 87.0544 160.293 86.6842L160.723 75.6246C160.739 75.4366 160.717 75.2473 160.658 75.0679C160.6 74.8885 160.506 74.7227 160.382 74.5801C160.259 74.4375 160.108 74.3211 159.939 74.2377C159.769 74.1544 159.585 74.1057 159.397 74.0946Z" fill="#E33C36"/>
<path d="M100.282 146.799C100.265 147.278 100.153 147.748 99.9531 148.183C99.7535 148.619 99.4701 149.01 99.119 149.336C98.768 149.662 98.3562 149.915 97.9071 150.081C97.4581 150.248 96.9806 150.324 96.5021 150.306L79.285 149.655C78.3173 149.617 77.4044 149.196 76.7467 148.485C76.0889 147.775 75.7401 146.832 75.7769 145.864L76.9384 116.575C76.9548 116.096 77.0655 115.624 77.2643 115.188C77.4632 114.751 77.7464 114.358 78.0975 114.032C78.4485 113.705 78.8606 113.451 79.3102 113.283C79.7597 113.116 80.2377 113.04 80.717 113.058L97.9356 113.719C98.4156 113.737 98.8873 113.848 99.324 114.048C99.7607 114.248 100.154 114.532 100.481 114.884C100.807 115.236 101.062 115.649 101.229 116.099C101.396 116.55 101.473 117.029 101.455 117.508L100.282 146.799Z" fill="white"/>
<path d="M128.028 147.859C128.01 148.338 127.898 148.808 127.699 149.244C127.499 149.679 127.216 150.071 126.865 150.396C126.514 150.722 126.102 150.975 125.653 151.142C125.204 151.308 124.726 151.384 124.248 151.366L107.02 150.717C106.053 150.676 105.142 150.254 104.485 149.544C103.828 148.834 103.478 147.893 103.512 146.926L104.673 117.637C104.711 116.668 105.132 115.755 105.842 115.095C106.552 114.436 107.494 114.084 108.463 114.118L125.681 114.779C126.161 114.797 126.632 114.909 127.069 115.109C127.505 115.309 127.897 115.594 128.223 115.946C128.549 116.298 128.802 116.711 128.968 117.162C129.134 117.612 129.209 118.091 129.189 118.57L128.028 147.859Z" fill="white"/>
<path d="M155.918 148.931C155.88 149.899 155.46 150.812 154.749 151.47C154.038 152.127 153.095 152.476 152.127 152.439L134.909 151.778C133.941 151.74 133.028 151.319 132.37 150.608C131.713 149.897 131.364 148.955 131.401 147.987L132.562 118.698C132.601 117.732 133.02 116.821 133.728 116.164C134.437 115.507 135.377 115.157 136.342 115.191L153.57 115.84C154.049 115.859 154.519 115.972 154.955 116.173C155.39 116.374 155.781 116.659 156.106 117.011C156.43 117.363 156.683 117.776 156.848 118.226C157.013 118.676 157.087 119.154 157.068 119.633L155.918 148.931Z" fill="white"/>
<path d="M98.7577 186.929C98.7167 187.896 98.2952 188.807 97.585 189.464C96.8748 190.121 95.9336 190.471 94.9667 190.437L77.7497 189.787C76.783 189.746 75.8717 189.324 75.2145 188.614C74.5573 187.904 74.2075 186.963 74.2415 185.996L75.403 156.706C75.4205 156.226 75.5325 155.755 75.7325 155.318C75.9324 154.881 76.2164 154.488 76.5684 154.162C76.9203 153.835 77.3332 153.58 77.7835 153.413C78.2337 153.246 78.7125 153.169 79.1924 153.187L96.411 153.849C97.3787 153.887 98.2917 154.308 98.9495 155.019C99.6073 155.729 99.956 156.672 99.9192 157.64L98.7577 186.929Z" fill="white"/>
<path d="M126.514 187.988C126.473 188.954 126.052 189.866 125.341 190.523C124.631 191.18 123.69 191.53 122.723 191.496L105.497 190.858C105.017 190.84 104.546 190.728 104.11 190.528C103.673 190.328 103.281 190.043 102.955 189.691C102.629 189.339 102.376 188.926 102.21 188.475C102.044 188.025 101.969 187.546 101.989 187.067L103.149 157.767C103.166 157.288 103.278 156.818 103.478 156.382C103.677 155.947 103.961 155.555 104.312 155.23C104.663 154.904 105.075 154.651 105.524 154.484C105.973 154.318 106.45 154.242 106.929 154.26L124.148 154.922C124.628 154.939 125.099 155.051 125.536 155.251C125.973 155.451 126.365 155.735 126.692 156.087C127.019 156.439 127.273 156.852 127.441 157.302C127.608 157.752 127.684 158.231 127.666 158.711L126.514 187.988Z" fill="white"/>
<path d="M154.392 189.05C154.375 189.53 154.263 190.002 154.063 190.439C153.863 190.875 153.579 191.268 153.227 191.595C152.875 191.922 152.462 192.176 152.012 192.343C151.561 192.51 151.083 192.587 150.603 192.569L133.384 191.908C132.416 191.87 131.503 191.449 130.846 190.738C130.188 190.027 129.839 189.084 129.876 188.117L131.038 158.828C131.076 157.86 131.496 156.947 132.207 156.289C132.918 155.631 133.861 155.283 134.828 155.319L152.047 155.981C152.526 155.999 152.996 156.11 153.431 156.31C153.867 156.51 154.258 156.793 154.584 157.144C154.91 157.495 155.163 157.907 155.329 158.356C155.496 158.805 155.572 159.283 155.554 159.761L154.392 189.05Z" fill="white"/>
<path d="M97.2098 227.348C97.1712 228.314 96.7518 229.225 96.0434 229.882C95.335 230.539 94.3952 230.889 93.4295 230.855L76.2002 230.195C75.7217 230.177 75.2512 230.066 74.8159 229.866C74.3806 229.666 73.989 229.383 73.6633 229.032C73.3376 228.681 73.0844 228.269 72.918 227.82C72.7516 227.371 72.6753 226.893 72.6936 226.415L73.8535 197.115C73.8945 196.148 74.316 195.237 75.0262 194.58C75.7364 193.923 76.6776 193.573 77.6445 193.607L94.8631 194.268C95.8308 194.306 96.7438 194.727 97.4016 195.438C98.0594 196.149 98.4082 197.091 98.3713 198.059L97.2098 227.348Z" fill="white"/>
<path d="M124.955 228.409C124.917 229.376 124.497 230.289 123.786 230.947C123.075 231.605 122.132 231.954 121.164 231.917L103.946 231.255C103.467 231.238 102.997 231.126 102.562 230.926C102.126 230.726 101.735 230.443 101.409 230.092C101.083 229.741 100.83 229.329 100.664 228.88C100.497 228.431 100.421 227.954 100.439 227.475L101.599 198.175C101.64 197.208 102.062 196.297 102.772 195.64C103.482 194.983 104.423 194.633 105.39 194.667L122.609 195.328C123.087 195.346 123.558 195.458 123.993 195.658C124.428 195.857 124.82 196.141 125.146 196.492C125.471 196.843 125.725 197.255 125.891 197.704C126.057 198.153 126.134 198.63 126.115 199.109L124.955 228.409Z" fill="white"/>
<path d="M152.846 229.48C152.828 229.96 152.716 230.431 152.516 230.866C152.315 231.302 152.03 231.694 151.678 232.019C151.325 232.344 150.912 232.596 150.461 232.761C150.011 232.925 149.532 232.999 149.053 232.978L131.836 232.327C131.357 232.308 130.887 232.195 130.452 231.994C130.017 231.793 129.625 231.508 129.301 231.156C128.976 230.804 128.724 230.391 128.559 229.941C128.393 229.491 128.319 229.013 128.339 228.534L129.5 199.245C129.518 198.767 129.63 198.296 129.829 197.861C130.029 197.426 130.312 197.034 130.663 196.708C131.014 196.383 131.426 196.129 131.875 195.963C132.324 195.797 132.802 195.72 133.28 195.739L150.497 196.389C151.466 196.428 152.38 196.848 153.039 197.558C153.698 198.268 154.05 199.21 154.016 200.179L152.846 229.48Z" fill="white"/>
<path d="M177.724 279.281L167.097 278.875L156.48 278.468L65.3365 274.984L54.357 274.576L44.0944 274.182C43.5773 274.161 43.0612 274.243 42.5756 274.422C42.09 274.601 41.6445 274.874 41.2645 275.225C40.8846 275.577 40.5777 276 40.3613 276.47C40.1448 276.94 40.0232 277.448 40.0034 277.965L39.4709 291.822C39.4506 292.34 39.5327 292.857 39.7126 293.343C39.8924 293.829 40.1665 294.275 40.519 294.655C40.8715 295.035 41.2955 295.341 41.7668 295.557C42.2381 295.773 42.7473 295.893 43.2652 295.912L53.5278 296.305L64.5088 296.725L155.653 300.208L166.269 300.616L176.886 301.023C177.932 301.061 178.951 300.683 179.72 299.972C180.488 299.26 180.943 298.274 180.986 297.227L181.518 283.37C181.557 282.325 181.178 281.308 180.467 280.541C179.756 279.774 178.769 279.321 177.724 279.281Z" fill="#A31C1C"/>
<path d="M142.153 247.865L133.306 247.526L122.679 247.12L101.435 246.307L92.7541 245.975L81.9516 245.574C81.392 245.55 80.8331 245.637 80.3074 245.831C79.7818 246.024 79.2997 246.32 78.8889 246.701C78.4781 247.082 78.1467 247.54 77.9139 248.05C77.6812 248.559 77.5518 249.11 77.533 249.669L77.1275 260.374C77.1053 260.934 77.1937 261.492 77.3877 262.018C77.5817 262.544 77.8775 263.026 78.258 263.438C78.6386 263.849 79.0965 264.181 79.6056 264.416C80.1147 264.65 80.665 264.782 81.225 264.803L92.0183 265.217L100.698 265.538L121.941 266.351L132.568 266.757L141.415 267.096C141.975 267.118 142.533 267.03 143.058 266.836C143.583 266.642 144.065 266.346 144.475 265.966C144.886 265.585 145.217 265.127 145.45 264.618C145.683 264.11 145.814 263.56 145.834 263L146.25 252.295C146.272 251.735 146.184 251.176 145.99 250.65C145.796 250.124 145.5 249.642 145.12 249.231C144.739 248.819 144.281 248.487 143.772 248.253C143.263 248.018 142.713 247.887 142.153 247.865Z" fill="#A31C1C"/>
</g>
<defs>
<clipPath id="clip0_230_745">
<rect width="175.278" height="298.355" fill="white" transform="translate(0 25.6711) rotate(-8.42182)"/>
</clipPath>
</defs>
</svg>
