<svg width="26" height="26" viewBox="0 0 26 26" fill="none" xmlns="http://www.w3.org/2000/svg">
<path d="M25.5224 20.3666L19.5896 14.9724C19.3091 14.7175 18.9406 14.5815 18.5618 14.5932C18.183 14.605 17.8236 14.7634 17.5594 15.0351L14.0669 18.6269C13.2262 18.4664 11.5362 17.9395 9.79645 16.2042C8.05675 14.463 7.52988 12.7686 7.37371 11.9337L10.9626 8.43973C11.2346 8.17575 11.3933 7.81627 11.405 7.43737C11.4167 7.05847 11.2806 6.68987 11.0253 6.40959L5.63255 0.478261C5.3772 0.197101 5.02231 0.0265572 4.64325 0.0028486C4.26418 -0.02086 3.8908 0.104135 3.60241 0.351286L0.435337 3.06738C0.183009 3.32062 0.0324027 3.65767 0.0120874 4.01458C-0.00980485 4.37945 -0.427216 13.0225 6.27472 19.7274C12.1214 25.5726 19.4451 26.0002 21.4621 26.0002C21.7569 26.0002 21.9379 25.9915 21.986 25.9885C22.3429 25.9686 22.6798 25.8173 22.9318 25.5638L25.6464 22.3953C25.8945 22.1078 26.0205 21.7347 25.9973 21.3557C25.9741 20.9767 25.8037 20.6217 25.5224 20.3666Z" fill="white"/>
</svg>
