<svg width="259" height="261" viewBox="0 0 259 261" fill="none" xmlns="http://www.w3.org/2000/svg">
<path fill-rule="evenodd" clip-rule="evenodd" d="M258.463 138.128V136.676C258.463 134.192 257.797 133.925 257.679 131.632C257.235 126.588 256.357 121.59 255.054 116.69C255.328 116.69 255.054 115.429 254.74 115.276C254.349 113.365 253.918 111.455 253.447 109.658C252.966 107.53 252.297 105.446 251.449 103.43C251.762 102.13 249.999 99.8756 249.45 97.2388C248.196 93.4174 247.256 91.8888 246.394 89.0992C245.645 87.3093 244.795 85.5614 243.847 83.8638C242.946 81.8766 242.005 80.0424 240.986 78.017C240.438 77.0616 239.811 75.6095 239.419 75.4948C237.143 71.5334 234.631 67.7054 231.895 64.0305L230.72 62.6166C230.419 62.7955 230.073 62.8901 229.721 62.8901C229.368 62.8901 229.022 62.7955 228.721 62.6166C228.075 62.2326 227.471 61.7844 226.919 61.2791C226.14 60.8432 225.428 60.303 224.803 59.6741C224.528 59.3554 224.339 58.9743 224.254 58.5659C223.941 58.1455 223.627 57.7634 223.392 57.3812C223.18 57.0437 223.087 56.6471 223.13 56.2531C223.172 55.8592 223.347 55.49 223.627 55.203C221.002 53.2923 218.416 51.3816 215.79 49.3944C215.322 49.5609 214.809 49.5609 214.34 49.3944C212.412 48.4635 210.598 47.3226 208.933 45.9933C206.503 44.5794 203.995 43.2037 201.527 41.828C202.235 42.3284 202.982 42.7756 203.76 43.1655C203.76 43.1655 203.76 43.1655 204.191 43.7005C204.622 44.2355 206.543 45.7258 207.483 46.1844L209.56 48.0187C209.285 47.3691 210.814 48.9359 211.715 49.8148C211.989 50.0823 212.264 50.388 212.264 50.2351C213.204 51.5344 214.732 52.4134 216.535 54.7062C219.63 58.5277 219.983 58.9098 222.765 62.8459C222.765 62.2345 223.784 63.9159 224.019 64.4891C224.254 65.0623 224.489 64.4891 225.038 65.5209C225.234 66.4763 227.428 69.648 228.29 71.5205C228.8 72.3995 229.388 73.7752 229.74 73.8516C230.095 74.466 230.516 75.0424 230.994 75.5713C232.587 78.3313 233.9 81.2367 234.913 84.2459C236.423 87.3376 237.668 90.5458 238.635 93.8377C239.145 95.9013 239.772 96.0542 240.242 98.347C241.784 102.899 243.014 107.546 243.925 112.257V112.945C244.317 114.091 244.317 116.766 244.905 116.766V117.454C245.336 119.938 245.689 122.384 245.963 124.868L246.394 128.957C247.434 137.247 247.67 145.615 247.099 153.949C247.099 155.516 247.099 157.083 246.707 158.649C247.178 160.293 245.571 163.35 246.198 165.337C245.884 167.324 245.532 169.158 245.14 171.26C244.16 177.107 243.298 178.559 242.436 182.724C242.005 183.947 241.613 185.208 241.143 186.546C240.183 190.109 238.788 193.547 236.989 196.787L236.049 198.507C234.638 201.067 233.188 203.245 232.13 205.003C231.072 206.761 229.231 209.169 227.389 211.576C225.547 213.984 222.569 216.812 221.159 218.684C217.475 222.506 215.829 224.263 213.126 226.977L211.597 228.314C209.442 229.996 205.994 232.785 203.76 234.925C201.447 236.79 199.027 238.526 196.511 240.122C193.415 242.071 190.477 243.944 188.243 245.32C186.009 246.695 181.542 248.262 180.092 249.141L176.879 250.44C175.394 251.09 173.845 251.589 172.255 251.931V252.771C171.354 253.039 171.589 252.771 170.884 252.771C170.884 252.962 170.375 253.153 170.257 253.345C166.143 254.453 160.108 256.363 155.21 257.166C153.792 257.301 152.389 257.557 151.017 257.93C148.431 258.274 145.845 258.503 143.18 258.695H141.769C139.166 258.96 136.547 259.037 133.932 258.924C131.317 259.03 128.697 258.94 126.095 258.656H123.979C120.65 258.406 117.339 257.959 114.065 257.319C109.872 256.402 107.678 256.134 103.642 254.95L102.27 254.567C100.652 254.165 99.0563 253.68 97.4899 253.115L94.8253 252.16C89.0102 250.11 83.3969 247.552 78.054 244.517C77.5446 244.288 76.8393 243.829 76.7217 243.906C74.893 242.887 73.0905 241.778 71.3141 240.581C68.6673 239.03 66.1397 237.293 63.7513 235.384C62.4582 234.39 61.1651 233.397 59.8328 232.327L58.2262 230.951C56.1561 229.398 54.2167 227.685 52.4268 225.83C49.6838 222.964 48.0773 222.009 45.5302 218.837L44.1587 217.27C43.1007 216.009 42.0819 214.786 41.0631 213.449C40.0443 212.111 37.1446 208.06 35.6947 206.952C34.5975 204.927 32.9125 203.131 30.7574 199.309L30.052 198.125C28.5341 196.061 27.2219 193.86 26.1335 191.552C25.8984 191.552 25.7025 191.552 25.3498 191.132C25.3498 189.374 21.9407 184.597 22.0191 183.489C21.4705 182.228 22.3325 182.457 21.4313 180.814L20.6475 181.043L19.8638 179.132C17.529 174.139 15.7173 168.928 14.4563 163.579H14.182L13.3591 160.254C12.8889 159.108 12.8889 156.433 12.1835 156.433C11.439 152.879 11.7917 152.42 11.0864 149.669C11.0864 149.287 11.0863 148.905 10.6945 149.019C10.6945 148.14 10.9688 148.064 10.6945 146.956C10.1745 145.428 9.92281 143.826 9.94998 142.217V141.529C9.63907 140.196 9.63907 138.812 9.94998 137.479C9.94998 136.676 9.94996 135.53 9.5973 135.415C9.5973 131.861 9.98915 127.772 9.5973 125.174C9.56651 123.346 9.77724 121.522 10.2243 119.747C10.0464 118.143 10.1928 116.52 10.6553 114.97L11.2039 112.295C12.1444 109.009 12.1051 107.06 12.928 104.27C13.6471 100.915 14.67 97.6283 15.9845 94.4492L16.5331 93.1881C16.8858 92.2327 17.6303 90.9335 17.3168 90.5131C18.2572 88.3349 19.2369 86.1949 20.2165 84.2077L20.8435 82.9849C21.157 80.5009 23.2338 79.1634 23.4689 77.3291L23.8216 76.7559C25.3498 75.5331 25.7416 71.7498 28.2887 68.922C30.1052 66.4674 31.7797 63.9158 33.3044 61.2791L33.7354 60.7441C35.2932 59.004 36.6959 57.1374 37.9283 55.1648L38.3985 54.668C40.4753 54.133 41.9643 49.5091 44.433 48.9741L44.1979 48.6684L47.2152 45.8405L50.3892 43.1273C52.8579 41.484 53.2889 39.3058 54.9347 39.9555C56.1494 37.9301 56.8156 38.0065 58.8532 36.134C58.8532 36.478 60.1071 35.8665 59.9896 35.3315C62.6933 33.5355 65.4363 31.8158 68.2577 30.2108V29.8669C70.1386 28.644 70.6871 29.2172 72.7248 27.8797C73.7044 27.1154 76.6433 26.4276 76.3298 25.6633C78.0148 24.8608 79.6998 24.0583 81.4239 23.3322C84.8216 21.8358 88.3167 20.5592 91.8864 19.5108C94.1592 18.479 93.493 18.9376 95.8049 17.9058C95.8049 18.5172 100.076 17.2944 99.7235 16.7976C101.8 16.7976 102.623 15.804 105.836 15.3072C106.973 15.0397 108.148 14.8486 109.285 14.6194C112.733 14.0461 115.633 13.4729 118.297 12.8615C118.728 12.8615 121.001 13.3583 121.119 12.5558C122.49 12.5558 123.901 12.2501 125.311 12.1736H126.017C129.504 11.9061 133.031 11.8297 136.558 11.7915C141.456 11.4476 142.592 12.0208 148.588 11.9826C150.233 11.9826 151.879 12.2883 153.486 12.4793H154.191C155.562 12.2883 157.678 13.1672 159.873 12.9761C159.873 13.664 163.282 13.6258 164.653 14.0844C165.359 14.0844 165.555 14.0844 166.103 14.0844C167.984 14.4283 169.787 14.8869 171.628 15.269C174.129 15.9939 176.667 16.5934 179.23 17.0651C179.23 17.0651 179.23 17.3708 179.818 17.4854C183.736 18.482 187.574 19.7593 191.299 21.3069L192.593 21.8037C194.536 22.6974 196.539 23.4634 198.588 24.0965L199.215 24.4022C200.9 25.4722 205.406 27.0772 208.737 29.1026L209.364 29.4465C211.715 30.8222 213.909 31.9687 215.594 32.8476C216.022 33.0835 216.467 33.2878 216.927 33.459C216.927 34.4144 220.845 35.8665 223.314 37.8537C223.862 38.274 223.902 38.4269 224.333 38.7708C224.764 39.1148 224.96 39.0001 225.626 39.4969C226.401 40.0134 227.123 40.6022 227.781 41.2548C227.781 41.5605 226.762 40.8726 226.292 40.7198C226.873 41.0985 227.377 41.5777 227.781 42.1337C229.113 42.4394 228.447 42.1337 230.132 43.7387C231.033 43.7387 230.406 43.3948 231.895 44.1209C233.384 44.8469 234.011 45.8405 234.756 46.3373C234.756 46.3373 236.127 47.6748 236.363 47.713C237.616 48.7548 238.782 49.8921 239.85 51.1141C239.458 50.0823 242.632 53.3687 243.142 53.9801C245.062 56.1584 240.203 51.3434 241.848 53.1012C242.727 53.875 243.552 54.7048 244.317 55.5852C245.845 57.552 247.593 59.3464 249.529 60.9352C247.138 58.2219 244.827 55.4323 242.632 52.5662C242.464 52.3741 242.351 52.1427 242.303 51.8947C242.255 51.6468 242.274 51.3909 242.358 51.1523C240.482 49.1 238.494 47.1482 236.402 45.3055C235.265 44.2737 233.619 43.5858 234.677 43.0508C233.478 41.7709 232.167 40.5947 230.759 39.5351L228.369 34.529L226.135 32.6183C225.391 31.9687 220.728 31.7394 219.983 31.128C215.438 27.8415 213.87 23.7526 208.227 20.5044C206.974 19.7783 203.956 18.8611 202.663 18.1733L204.074 20.9629C201.605 20.0458 193.219 12.7086 188.086 10.6833C187.157 10.2487 186.166 9.95239 185.147 9.80434C182.373 8.64369 179.534 7.63579 176.644 6.7854L174.45 6.09755C171.824 5.33326 169.121 4.56897 166.417 3.91932C164.475 3.31474 162.458 2.9677 160.421 2.88754C153.966 1.53136 147.418 0.637303 140.829 0.212532C139.533 -0.0159482 138.206 -0.0159482 136.91 0.212532H136.166C133.103 -0.0708439 130.02 -0.0708439 126.957 0.212532H123.901C121.04 1.01503 118.611 -0.0549713 116.064 1.05325C112.992 1.14994 109.936 1.5209 106.934 2.16147C105.358 2.00347 103.769 2.28159 102.349 2.96396H101.604C99.5667 3.30789 97.6858 3.80468 95.5698 4.26325C93.4538 4.72183 92.5525 5.06576 91.0635 5.48612C91.2268 5.97788 91.1872 6.51234 90.9531 6.9761C90.719 7.43985 90.3088 7.79639 89.8096 7.97005C85.2641 9.6897 80.8361 11.7915 76.4082 13.7022C76.1537 13.9903 75.8309 14.2133 75.4678 14.3519C72.764 15.269 70.2953 16.6065 67.6307 17.5236C67.2743 17.6434 66.888 17.6487 66.5283 17.5386C66.1686 17.4286 65.8546 17.2091 65.6323 16.9122C63.3693 18.378 61.1973 19.9731 59.1275 21.689C59.2262 21.9161 59.2698 22.1624 59.2551 22.4086C59.2404 22.6548 59.1677 22.8945 59.0426 23.1089C58.9175 23.3232 58.7434 23.5066 58.5339 23.6448C58.3244 23.7829 58.085 23.8721 57.8344 23.9054L57.0115 24.0965C58.814 24.5933 59.3234 27.4212 57.0115 27.7269C56.7768 27.7625 56.5509 27.8402 56.3453 27.9562C56.0953 28.1677 55.8188 28.3474 55.5224 28.4912L55.0522 28.7969C52.2965 30.4003 49.6759 32.2148 47.2152 34.2233C45.3734 35.943 42.1211 34.9876 43.9628 33.3062C45.8045 31.6247 47.8813 33.3062 50.6243 31.5865C51.8936 30.4675 53.3183 29.5284 54.8563 28.7969C55.1698 28.5676 55.9143 25.8544 56.2278 25.6251C55.4049 25.6251 52.7011 23.9437 52.5444 23.1794L56.6588 24.0965C52.5444 23.1794 47.0584 27.574 45.7653 27.918C41.0239 32.0451 35.3028 36.8601 30.0912 42.0955C27.3091 45.9169 24.331 48.9741 21.2745 52.9102C20.5187 53.672 19.8965 54.5499 19.4328 55.5087C20.3506 55.1404 21.2933 54.8339 22.2542 54.5916C22.59 54.5083 22.9422 54.5115 23.2763 54.6011C23.6105 54.6906 23.915 54.8633 24.16 55.1022C24.405 55.3412 24.5821 55.6382 24.6739 55.964C24.7657 56.2898 24.7691 56.6334 24.6836 56.9609C25.1263 56.9677 25.5551 57.1122 25.9076 57.3735C26.26 57.6347 26.5176 57.9989 26.6429 58.413C26.9339 58.4639 27.2072 58.5853 27.4375 58.766C27.6678 58.9468 27.8478 59.1812 27.961 59.4475C28.0742 59.7139 28.1168 60.0038 28.0851 60.2904C28.0533 60.5771 27.9481 60.8514 27.7793 61.088C19.3936 72.7816 15.7886 86.577 9.51894 99.3024C8.38256 101.557 5.13018 99.5699 6.10981 97.3535C8.11177 92.9671 9.78799 88.4462 11.1255 83.8256C12.3812 79.438 13.9659 75.1465 15.8669 70.9856C14.4954 70.9856 13.0064 69.457 13.9469 68.0813C16.1007 65.3573 18.0269 62.4692 19.7071 59.4448C18.1377 60.2168 16.6426 61.1248 15.24 62.158C13.8293 64.6037 13.0064 66.3998 10.6553 70.527L10.2635 71.1766C9.16628 74.3102 7.91234 75.342 6.85434 78.8195C6.85434 78.8195 6.18817 79.2016 6.50165 79.5456C4.97343 82.832 4.11135 85.1249 2.58313 88.4113C3.05335 89.7106 1.01572 91.8124 1.6035 92.2327L1.3292 92.9588C-1.25314 100.994 -2.79334 109.313 -3.25547 117.722C-3.49058 119.709 -3.64731 121.543 -3.76487 123.76C-3.88242 125.976 -3.96081 127.275 -4 129.033C-3.95298 134.607 -3.33602 140.163 -2.15829 145.618C-2.15829 147.109 -1.76642 148.599 -1.53131 150.089C-1.53131 150.089 -1.88398 150.089 -1.53131 150.815C-1.17864 151.541 -0.943525 152.611 -0.669228 153.758V154.484C0.388775 157.732 1.36838 162.127 2.58313 165.948L3.4844 168.776C4.15987 170.133 4.76155 171.523 5.28692 172.941C5.71796 174.088 6.14901 175.234 6.61924 176.381C7.08946 177.527 7.79477 180.202 8.34337 179.744C10.2743 184.011 12.4728 188.159 14.9265 192.163C15.3575 192.813 15.9845 194.189 16.4939 194.877C16.6061 194.598 16.7895 194.351 17.0268 194.161C17.2641 193.97 17.5473 193.842 17.8496 193.789C18.1519 193.735 18.4633 193.758 18.7541 193.855C19.0449 193.951 19.3055 194.119 19.5112 194.342L19.903 194.685C20.1638 194.534 20.4616 194.454 20.7651 194.454C21.0686 194.454 21.3664 194.534 21.6272 194.685L20.3341 193.157C20.0436 193.127 19.7623 193.04 19.5066 192.902C19.2509 192.764 19.0259 192.578 18.845 192.354C17.0466 190.21 15.5204 187.862 14.2995 185.361C14.2498 185.109 14.2498 184.849 14.2995 184.597C10.6945 180.546 6.46248 176.954 5.71796 171.031C5.40448 168.585 9.32301 168.623 9.63649 171.031C10.8145 175.637 13.4628 179.758 17.1992 182.801C17.4579 182.963 17.6837 183.17 17.8654 183.412L18.4532 184.177C19.4315 185.281 20.3223 186.456 21.1178 187.692C22.9203 189.985 24.8012 192.278 26.7213 194.494C27.505 195.412 21.7839 186.852 21.1178 187.692C23.0053 191.314 24.7054 195.025 26.2119 198.813C28.7021 202.007 30.942 205.379 32.9126 208.901C33.0064 209.2 33.0064 209.519 32.9126 209.818C34.0097 211.156 35.0286 212.57 36.0082 213.984C36.1448 214.172 36.2403 214.385 36.2888 214.611C36.3372 214.837 36.3376 215.07 36.2898 215.295C36.242 215.521 36.1471 215.735 36.0111 215.923C35.875 216.112 35.7006 216.271 35.4988 216.391C36.8702 217.576 38.3201 218.722 39.4173 219.983C39.6265 220.176 39.7865 220.414 39.8844 220.678C39.9823 220.942 40.0155 221.224 39.9812 221.503C39.9469 221.782 39.8462 222.049 39.687 222.282C39.5278 222.516 39.3147 222.71 39.0646 222.849C41.886 225.448 44.0804 227.512 48.3124 231.104C49.6782 232.103 50.9863 233.174 52.2309 234.314C54.3861 235.728 57.7168 238.135 60.6557 240.275C61.257 240.726 61.9155 241.098 62.615 241.383C65.2445 243.16 67.9649 244.805 70.7655 246.313L71.3925 246.657C72.633 247.436 73.9448 248.101 75.311 248.644C77.6621 249.867 80.1308 251.013 82.5603 252.083C83.4591 252.507 84.3891 252.865 85.3425 253.153C87.3801 253.956 89.261 254.644 91.4945 255.37C92.9052 255.867 94.2767 256.478 95.6874 256.937C97.5386 257.596 99.4378 258.12 101.369 258.503C102.545 258.847 103.72 259.153 104.935 259.421C106.833 259.913 108.755 260.308 110.695 260.605L114.3 261.293C116.23 261.665 118.179 261.933 120.139 262.096H120.883C123.548 262.401 126.252 262.707 128.721 262.898H129.465C132.326 262.898 134.951 263.127 139.81 262.898H140.515C143.885 262.669 149.371 262.516 152.271 261.943H152.976C156.175 261.59 159.353 261.079 162.498 260.414L164.653 260.032C166.371 259.749 168.062 259.328 169.708 258.771C173.099 258.026 176.426 257.029 179.661 255.79C187.876 252.944 195.757 249.255 203.173 244.785C205.566 243.497 207.835 242.001 209.952 240.313L210.579 239.931C212.224 238.81 213.831 237.664 215.398 236.492C218.259 234.008 220.375 232.671 224.96 228.314C227.641 226.053 230.035 223.487 232.091 220.671C233.933 219.219 233.267 219.487 235.069 217.423L235.54 216.85C238.285 213.943 240.714 210.767 242.789 207.373C243.612 206.15 244.317 204.927 245.022 203.551C244.796 203.537 244.574 203.479 244.371 203.38C244.167 203.282 243.986 203.146 243.836 202.979C243.687 202.812 243.573 202.618 243.501 202.408C243.429 202.198 243.4 201.976 243.416 201.755C243.479 199.609 243.741 197.473 244.2 195.373C244.109 194.819 244.22 194.251 244.513 193.768C244.983 191.781 245.532 189.947 246.08 187.807C245.869 187.649 245.696 187.447 245.574 187.215C245.452 186.984 245.384 186.729 245.375 186.469C245.322 181.098 246.224 175.758 248.04 170.687C248.706 168.241 252.154 169.349 251.958 171.719V172.559C252.043 172.911 252.043 173.278 251.958 173.629C251.488 176.228 251.057 178.865 250.587 181.272C250.769 181.019 251.001 180.803 251.27 180.637C251.538 180.471 251.837 180.358 252.15 180.305C252.463 180.252 252.784 180.259 253.093 180.327C253.403 180.394 253.697 180.521 253.957 180.699C254.217 180.877 254.438 181.103 254.608 181.365C254.778 181.627 254.894 181.918 254.949 182.224C255.003 182.529 254.995 182.841 254.926 183.144C254.857 183.446 254.727 183.732 254.544 183.985C254.509 184.986 254.073 185.932 253.33 186.622C253.593 186.909 253.763 187.265 253.819 187.646C253.874 188.027 253.813 188.415 253.643 188.762L253.447 189.183C253.643 188.609 253.839 188.036 254.074 187.425C254.074 185.629 255.485 183.985 255.25 182.38L255.602 180.967C257.539 173.37 258.643 165.594 258.894 157.77V157.044C259.09 151.236 259.051 147.376 258.463 138.128ZM30.6006 54.8209C31.3059 53.0248 32.5207 51.4962 33.226 49.7383C33.9313 47.9805 37.8891 48.4391 37.1445 50.7319C36.4 53.0248 35.2245 54.0566 34.5583 55.8527C33.8922 57.6487 29.6993 57.1519 30.6006 54.8209ZM257.17 162.968C257.17 163.474 256.963 163.96 256.596 164.319C256.229 164.677 255.73 164.878 255.211 164.878C254.691 164.878 254.193 164.677 253.825 164.319C253.458 163.96 253.251 163.474 253.251 162.968V155.325C253.251 154.818 253.458 154.332 253.825 153.974C254.193 153.615 254.691 153.414 255.211 153.414C255.73 153.414 256.229 153.615 256.596 153.974C256.963 154.332 257.17 154.818 257.17 155.325V162.968Z" fill="#F7931E"/>
</svg>
