<svg width="175" height="121" viewBox="0 0 175 121" fill="none" xmlns="http://www.w3.org/2000/svg">
<path d="M89.3972 0.570425L89.3975 0.570434C113.458 1.34442 135.015 8.66166 150.412 19.8159C165.812 30.9724 175.004 45.9279 174.479 61.9951C173.953 78.0624 163.82 92.3646 147.741 102.473C131.665 112.58 109.692 118.458 85.6309 117.67L85.6271 117.67C70.4674 117.289 55.5183 114.032 41.5752 108.072L41.1661 107.897L40.9448 108.283C34.6398 119.285 23.4074 120.889 15.5049 120.432L15.4596 120.43L15.4145 120.435C15.1705 120.465 14.924 120.402 14.7252 120.257L14.4308 120.661L14.7252 120.257C14.5265 120.112 14.3904 119.897 14.3445 119.656C14.2987 119.414 14.3464 119.165 14.4782 118.957C14.6099 118.75 14.8157 118.6 15.0539 118.539L15.0914 118.529L15.1269 118.514C20.1972 116.331 22.592 111.96 23.6937 107.863C24.7943 103.77 24.625 99.8863 24.5225 98.5395L24.5049 98.3089L24.3178 98.1729C9.03831 87.0753 0.00956073 72.228 0.520614 56.2451C1.04599 40.1778 11.1789 25.8756 27.2616 15.767C43.3412 5.6604 65.322 -0.217913 89.3972 0.570425Z" fill="#FDE4C7" stroke="#F7931E"/>
<g clip-path="url(#clip0_230_2320)">
<path d="M77.8278 33.7664C77.5795 34.0262 77.3067 34.2613 77.013 34.4683C76.7817 33.9001 76.4732 33.3663 76.0964 32.8821C76.0538 32.5417 75.8923 32.2273 75.6405 31.9943C75.3886 31.7613 75.0626 31.6245 74.7197 31.6082C72.6442 31.559 70.6705 33.5804 69.7679 35.7808C69.22 35.5983 68.6546 35.4299 68.0716 35.2685C68.8723 32.8996 68.8969 30.2956 67.7204 28.2005C66.256 25.6036 61.7502 23.7927 58.4454 24.4911C57.592 23.7892 56.2329 23.7681 55.6148 24.9263C54.9967 26.0844 54.9124 27.3583 54.8773 28.6462C54.7123 27.8601 54.5261 27.0775 54.2943 26.3054C54.2535 26.1787 54.1693 26.0704 54.0567 25.9992C53.944 25.9281 53.81 25.8988 53.6779 25.9163C53.5458 25.9339 53.4241 25.9972 53.3339 26.0952C53.2438 26.1933 53.1909 26.3198 53.1846 26.4528C53.2021 30.815 54.1293 35.1421 54.5893 39.4833C54.628 40.9748 54.7052 42.4698 54.8457 43.9472C54.8457 45.1755 56.7176 45.4703 57.0161 44.242C57.1952 43.505 57.3673 42.7646 57.5007 42.0241C59.6079 42.6663 62.2313 41.9083 63.9627 40.8028C65.4501 39.7975 66.6467 38.419 67.4325 36.8056C68.0646 36.9986 68.6897 37.2197 69.3113 37.4513C69.0585 39.2867 69.7398 40.9151 71.9523 41.2029C73.912 41.4555 75.9208 40.0693 76.8269 38.3953C77.2407 37.6459 77.4274 36.7924 77.3642 35.9388C77.8943 35.5218 78.3492 35.0174 78.7093 34.4473C78.7877 34.3297 78.8187 34.1869 78.7959 34.0474C78.7731 33.908 78.6982 33.7824 78.5863 33.696C78.4744 33.6096 78.3339 33.5688 78.1931 33.5819C78.0524 33.595 77.9218 33.6609 77.8278 33.7664ZM62.8775 37.4373C61.8239 38.0339 59.492 39.0832 58.0802 38.6585C58.1188 38.4129 58.1539 38.1637 58.1926 37.9181C59.2707 36.581 62.3331 36.1318 63.5869 36.1423C63.8995 36.1423 64.205 36.1634 64.5105 36.1914C64.0254 36.679 63.476 37.0981 62.8775 37.4373ZM66.3473 32.6891C66.2279 33.4125 65.9806 34.1088 65.6168 34.7456C63.1584 34.3701 60.6509 34.4578 58.5227 35.5071C58.5543 35.2755 58.5824 35.0439 58.614 34.8052C58.8001 33.3418 58.9266 31.8643 59.0565 30.3904C59.1724 29.0919 59.4744 27.6145 59.2918 26.2809C60.6597 26.3669 62.0006 26.6999 63.2498 27.2635C65.5992 28.2497 66.7722 30.1096 66.3473 32.6891ZM75.7592 35.0228L75.6574 35.0439C75.3823 35.0889 75.1 35.0472 74.8497 34.9245C75.0393 34.728 75.2289 34.5315 75.408 34.3244C75.5493 34.5442 75.6671 34.7783 75.7592 35.0228ZM75.5872 37.9391C75.0533 38.8832 72.2859 40.6098 72.3527 38.6024C72.3737 37.9005 73.0551 36.967 73.5643 36.3388C73.6872 36.439 73.8202 36.526 73.9611 36.5985C74.2724 36.7515 74.6113 36.8402 74.9576 36.8595C75.304 36.8788 75.6506 36.8282 75.977 36.7108C75.9282 37.1361 75.7957 37.5476 75.5872 37.9216V37.9391Z" fill="#F7931E"/>
<path d="M122.176 41.8838C119.683 41.589 119.075 38.8517 119.051 36.7636C119.026 34.4965 119.377 32.2013 118.868 29.9658C118.693 29.1973 117.495 29.0148 117.133 29.7412C116.245 31.571 115.682 33.541 115.469 35.5633C115.245 35.8667 114.988 36.1444 114.703 36.3916C114.12 36.8829 113.632 37.2268 112.866 37.0268C112.101 36.8267 111.778 36.4653 111.771 35.5949C111.771 33.8823 113.33 32.2996 113.878 30.7274C114.352 29.3693 112.533 27.8462 111.318 28.7586C110.306 29.5659 109.575 30.671 109.228 31.9171C108.604 32.3007 107.96 32.6521 107.3 32.9699L107.219 33.005C107.178 32.5554 107.043 32.1194 106.824 31.7248C106.604 31.3302 106.305 30.9858 105.944 30.7134C105.601 30.4722 105.2 30.3257 104.782 30.2887C104.668 30.1213 104.518 29.9811 104.343 29.8781C101.488 28.148 97.8177 32.1873 97.3507 34.7913C97.3169 34.977 97.2934 35.1645 97.2804 35.3528L96.9714 35.4756C97.2242 32.1592 96.9257 28.3656 94.8642 25.9651C94.0565 25.0211 92.3883 25.7862 92.4269 26.9723C92.455 27.8602 92.5428 28.7902 92.6482 29.7377C92.6946 30.7642 92.576 31.7915 92.297 32.7804C91.8545 34.1631 89.8808 36.6583 88.2829 35.1212C87.3452 34.2192 87.8368 32.5523 88.181 31.4924C88.6305 30.1132 89.0976 28.6604 89.6525 27.3233C90.0037 26.5021 88.9852 25.5686 88.1915 25.8634C83.7103 27.4882 81.7366 36.367 87.591 37.5181C90.0002 37.9919 91.9212 36.8724 93.1223 35.1177C93.1397 35.8628 93.1092 36.6084 93.031 37.3496C91.6393 38.1335 90.343 39.0756 89.1679 40.1572C88.0932 41.1644 87.4365 42.6137 87.9914 44.0491C88.2263 44.6879 88.7024 45.2093 89.3176 45.5013C89.9329 45.7932 90.6381 45.8326 91.282 45.6108C94.6149 44.6457 96.2409 40.8661 96.708 37.7462C96.7606 37.3953 96.8098 37.0162 96.8555 36.6372C97.01 36.5706 97.1715 36.5109 97.3296 36.4477C97.7019 38.7639 99.7142 40.5853 102.302 39.9115C104.687 39.2903 106.791 37.104 107.195 34.6474C107.834 34.3197 108.425 33.9052 108.951 33.4156C108.793 35.2826 109.358 37.1812 110.851 38.3288C112.343 39.4763 114.053 39.0868 115.416 38.055C115.451 38.6693 115.537 39.2796 115.672 39.8799C116.375 42.9366 119.297 45.5511 122.559 44.5544C124.115 44.1052 123.666 42.0417 122.176 41.8838ZM92.0793 40.831C91.8404 41.3118 90.8711 43.1647 90.2214 43.1226C89.0379 43.0419 90.6429 40.7889 90.7412 40.666C91.1007 40.2854 91.4893 39.9334 91.9037 39.6132C92.1811 39.3816 92.4691 39.1605 92.7606 38.9499C92.6006 39.5958 92.3722 40.2229 92.0793 40.8204V40.831ZM105.073 35.8266C104.396 36.9987 102.899 38.1814 101.453 37.7287C99.7809 37.2058 100.75 35.437 101.983 34.0613C102.48 34.6546 103.168 35.0576 103.928 35.2019C104.401 35.2772 104.882 35.2902 105.358 35.2405C105.277 35.4384 105.183 35.6307 105.077 35.816L105.073 35.8266ZM102.847 33.2085C103.194 32.8749 103.588 32.5935 104.016 32.3733C104.213 32.2905 104.393 32.1714 104.547 32.0224C105.151 32.1417 105.523 32.9032 105.621 33.5595C104.508 33.7946 103.247 33.8683 102.85 33.198L102.847 33.2085Z" fill="#F7931E"/>
<path d="M121.871 59.0344C119.914 58.4624 118.008 58.1641 116.15 57.2481C114.734 56.5475 113.422 55.6547 112.251 54.595C113.121 54.181 113.956 53.6987 114.748 53.1526C116.22 52.1279 118.991 49.9942 118.194 47.8429C116.929 44.4493 112.424 48.801 110.51 52.1279C110.604 49.166 111.268 46.3409 111.672 43.3544C111.834 42.1752 110.373 40.8276 109.372 42.0173C106.608 45.3056 105.895 50.0679 106.211 54.2405C106.274 55.0688 106.376 55.8876 106.516 56.6971C106.109 57.6833 105.617 59.2871 104.567 59.8275C103.24 60.5118 102.882 58.8273 102.755 57.771C102.46 55.332 103.275 52.8578 103.184 50.3802C103.145 49.2888 101.779 49.166 101.354 50.0714C99.1801 49.2467 96.6901 50.4995 95.2537 52.177C94.2002 53.3878 93.266 55.4794 93.6101 57.199C93.2358 57.7518 92.8011 58.2615 92.3142 58.7185C91.3941 59.5713 89.6627 60.926 88.3177 60.4733C87.2465 60.1223 87.1447 59.1046 87.4397 57.9886C88.8572 57.6783 90.2059 57.1109 91.4187 56.3146C94.8042 53.9282 92.8235 48.6711 88.574 50.2539C86.1157 51.1768 84.0437 53.9738 83.6573 56.7778L83.0463 56.8972C83.2303 55.7532 83.0145 54.5809 82.4352 53.5773C80.6336 50.5171 77.817 51.2365 75.9135 53.1983C75.8508 52.7394 75.7605 52.2847 75.6431 51.8366C75.2393 50.303 73.2796 50.5522 72.7774 51.8366C72.495 52.5722 72.281 53.3323 72.1382 54.1072C70.4476 54.3918 68.797 54.8772 67.2215 55.5531C66.9652 55.0946 66.6666 54.661 66.3295 54.2581C64.9914 52.6508 60.159 50.689 61.0932 48.071C61.9958 45.5478 67.1021 46.3725 68.2786 48.071C68.3374 48.1628 68.4266 48.2309 68.5306 48.2635C68.6346 48.296 68.7468 48.2909 68.8474 48.249C68.948 48.2071 69.0307 48.1311 69.0808 48.0344C69.1309 47.9377 69.1453 47.8264 69.1215 47.7201C68.2189 44.2528 63.3022 43.607 60.5875 45.2635C59.8423 45.7094 59.2608 46.3834 58.9293 47.1857C58.5978 47.9879 58.534 48.8756 58.7472 49.7169C59.3091 52.0366 61.2512 53.2614 62.9932 54.6652C63.7125 55.2417 64.3329 55.9315 64.8299 56.7077C62.6204 57.9025 60.6348 59.471 58.9615 61.3436C57.6866 62.814 57.2582 65.2495 59.1441 66.4603C60.9001 67.6008 63.5059 66.9516 65.1144 65.8637C67.6113 64.1862 68.5947 61.3752 68.2365 58.6554C69.3849 58.2062 70.5473 57.8447 71.7484 57.4832C71.6676 58.694 71.629 59.8977 71.5517 61.0207C71.3551 63.9897 70.9863 66.9867 71.9451 69.8679C72.5105 71.57 75.4816 71.4191 75.2674 69.4187C75.1234 68.0606 75.4781 66.7621 75.5975 65.4075C75.6782 64.5161 75.7309 63.6212 75.7801 62.7228C76.3553 62.9702 76.9924 63.0363 77.6063 62.9123C79.6362 62.5368 81.4694 60.9119 82.4317 58.9361L83.6925 58.7291C83.8497 59.6805 84.2762 60.567 84.9216 61.2839C87.9138 64.6108 92.2124 62.0033 94.755 59.0133C96.1036 59.9223 97.9158 58.8273 99.0326 57.7429C99.2292 57.5499 99.4118 57.3499 99.591 57.1463C99.4294 59.0028 99.7841 60.7821 101.347 62.249C103.542 64.3231 106.081 63 107.696 60.9189C108.399 62.821 109.242 64.9337 110.857 66.1444C112.216 67.1622 113.597 65.4847 113.396 64.1967C113.14 62.5508 112.013 60.9786 111.528 59.3573C111.245 58.4067 111.02 57.4398 110.854 56.462C113.168 59.5959 118.067 61.7858 121.526 61.8454C123.121 61.863 123.405 59.4836 121.871 59.0344ZM89.3748 54.2686C89.6452 53.9177 90.0455 53.1947 90.5056 53.0368C91.4433 52.7175 91.057 53.8229 90.6636 54.2581C90.0719 54.8401 89.3494 55.2721 88.5565 55.518C88.8077 55.0878 89.0808 54.6708 89.3748 54.2686ZM65.6552 60.6768C65.4248 61.8457 64.7565 62.8825 63.7869 63.5756C63.2847 63.9265 60.6648 65.1759 60.5032 63.8493C60.4084 63.0667 62.4804 61.8454 62.9967 61.484C63.8781 60.8731 64.7952 60.3153 65.743 59.8135C65.7395 60.1033 65.7101 60.3922 65.6552 60.6768ZM77.1638 60.6417C76.8758 60.0346 78.0277 59.8942 78.5194 59.7503C78.9198 59.638 79.3201 59.5397 79.724 59.445C78.9619 60.2276 77.5396 61.4208 77.1638 60.6417ZM81.0269 57.2902C80.2999 57.4271 79.573 57.571 78.8495 57.7359C77.9469 57.943 76.8337 58.1816 75.9732 58.6975C76.0365 57.6447 76.0891 56.5919 76.0716 55.539C76.3639 55.162 76.6869 54.8099 77.0374 54.4862C78.3754 53.2509 80.5844 52.8859 81.1709 55.1249C81.3348 55.8406 81.2847 56.5887 81.0269 57.2762V57.2902ZM99.4926 54.2335C99.1134 54.9219 98.66 55.5668 98.1405 56.1567C97.7612 56.5778 96.2792 57.8272 96.9359 56.5603C97.7367 55.0267 98.9377 53.9738 100.163 52.921C99.9562 53.3667 99.742 53.7984 99.5032 54.2195L99.4926 54.2335Z" fill="#F7931E"/>
<path d="M125.063 89.2608C122.478 88.4782 123.486 83.1825 123.862 81.2629C124.213 79.4766 124.786 75.6479 122.152 75.2618C119.908 74.939 117.888 76.8481 116.856 78.6028C116.726 78.8239 116.589 79.066 116.448 79.3257C116.354 78.4905 116.262 77.6552 116.199 76.8305C118.117 74.4511 120.838 69.6854 118.338 67.0042C117.825 66.4642 117.122 66.1443 116.378 66.1123C115.634 66.0802 114.906 66.3383 114.348 66.8322C112.719 68.1763 112.136 70.5838 111.932 72.5806C111.763 74.7793 111.813 76.9893 112.08 79.1783C111.465 79.6837 110.836 80.1715 110.215 80.6488C109.823 79.8837 109.306 79.1888 108.687 78.5922C107.844 77.86 106.841 77.3349 105.758 77.0586C105.6 75.6233 104.705 74.223 103.17 73.9914C101.235 73.6966 100.88 75.6654 101.888 76.9393C102.473 77.6187 103.209 78.1512 104.037 78.494C103.778 79.4459 103.341 80.3402 102.748 81.1295C101.797 82.4596 97.3822 86.9692 96.7009 83.3931C96.2865 81.2173 98.0144 79.0976 98.7554 77.1604C99.226 75.9251 97.5368 74.6231 96.4551 75.4057C94.1969 77.0271 93.2944 79.7925 93.333 82.5438V82.7228C93.0591 83.8809 92.585 85.1794 91.7667 85.7619C91.4155 86.0287 91.7035 86.1129 91.2294 85.8813C91.0373 85.6574 90.881 85.4053 90.7658 85.1338C90.5201 84.5979 90.3647 84.0252 90.3057 83.4387C90.1987 82.4247 90.1647 81.4044 90.2039 80.3856C90.678 79.8626 91.1275 79.3327 91.5384 78.7853C93.4067 76.3076 94.3479 73.5527 94.7623 70.489C95.0398 68.408 95.1346 64.4634 91.872 64.9933C89.0625 65.453 87.5594 69.6187 86.9553 71.963C86.1261 75.1901 85.8881 78.5406 86.253 81.8525C86.2775 82.056 86.3091 82.2666 86.3443 82.4877C86.0141 82.8386 85.6805 83.172 85.3434 83.5124C85.0448 80.7962 84.6796 78.0378 83.8192 75.504C83.7634 75.325 83.6496 75.1695 83.4957 75.0622C83.3419 74.9548 83.1567 74.9016 82.9693 74.9109C82.8832 74.6329 82.6989 74.3957 82.4509 74.2434C82.2028 74.091 81.9078 74.0339 81.6207 74.0827C78.892 74.3108 76.4687 75.6829 75.5486 78.4168C75.1026 79.7468 74.8462 81.9262 75.4468 83.4458C74.6604 84.4924 73.7812 85.4661 72.8198 86.355C72.3827 86.8204 71.8543 87.1907 71.2676 87.443C71.268 87.349 71.2751 87.2552 71.2886 87.1622C71.3308 86.7867 71.3237 86.4007 71.3694 86.0217C71.7417 82.8316 73.5222 78.9291 72.3106 75.7391C71.4712 73.5352 68.7706 73.4194 67.1551 74.8968C66.3521 75.6905 65.7304 76.6482 65.3324 77.7044C65.1804 76.5042 64.834 75.3367 64.3069 74.2476C63.9347 73.5282 63.1796 73.5457 62.6423 73.9177C62.4034 73.9365 62.1756 74.0259 61.988 74.1747C61.8003 74.3235 61.6613 74.5248 61.5887 74.753C60.1242 78.7923 57.3112 83.4212 53.1811 85.1969C50.2487 86.4568 50.7544 83.1124 51.6078 81.4243C52.707 79.259 55.1197 79.0309 57.0021 77.9149C58.3788 77.1078 57.5008 74.6371 55.9485 75.1495C55.5036 75.1783 55.0612 75.2381 54.6245 75.3285C52.1978 75.1074 48.8896 72.521 51.0529 70.4504C52.8335 68.7519 56.3594 69.1555 57.9995 70.7628C58.5579 71.3102 59.3059 70.6224 59.018 69.9767C57.5078 66.5515 51.232 67.0147 49.2408 69.6433C48.0678 71.1874 48.2223 73.1527 49.4409 74.6231C50.0771 75.3659 50.8572 75.9724 51.7342 76.4059C50.1023 77.263 48.776 78.6042 47.9378 80.2452C46.5014 83.2597 46.3013 87.9659 50.2311 89.145C53.722 90.1733 57.1953 87.3377 59.327 84.8635C60.1097 83.9509 60.8024 82.9648 61.3955 81.9192C61.4166 82.8562 61.5395 83.7826 61.9715 84.4354C62.6493 85.4672 63.7591 85.6707 64.8513 85.1899L64.9391 85.1513C65.7363 84.8004 66.1085 83.6598 65.8592 82.8211C65.8592 82.7509 65.8522 82.6702 65.8381 82.5789C66.235 81.2629 66.5405 79.9153 66.9795 78.6133C67.2334 77.8031 67.6049 77.0345 68.0822 76.3322C68.237 76.1008 68.4134 75.8846 68.609 75.6865H70.1402C70.3053 75.8233 70.2456 76.5533 70.2315 76.7568C70.1016 78.5115 69.2306 80.2382 68.7495 81.8981C68.2684 83.5581 67.7907 85.4075 67.7486 87.1622C67.6784 89.9943 70.2842 92.0087 72.9147 90.4856C74.904 89.2124 76.4375 87.3409 77.294 85.1408C78.8077 85.4742 80.1352 83.9125 81.0307 82.7755C81.3466 82.3762 81.6285 81.9512 81.8736 81.5051C81.9227 83.2247 82.0386 84.9443 82.1054 86.6358C82.1054 86.7341 82.1054 86.8323 82.1054 86.9306C81.5961 87.5096 81.1045 88.1027 80.6409 88.7169C79.2818 90.5172 77.4802 93.1317 78.1544 95.5111C79.0008 98.4484 82.1826 97.5851 83.7314 95.8129C85.9579 93.258 86.0703 89.8469 85.691 86.6358C85.6313 86.1234 85.5751 85.604 85.519 85.0811C85.8912 84.6986 86.274 84.3196 86.6603 83.9441C87.2679 86.2217 88.5252 88.6291 90.9098 88.8783C92.7079 89.0643 93.8949 87.6184 94.6324 85.8778C95.2178 86.4533 95.9963 86.791 96.8168 86.8253C99.1874 86.9516 101.516 84.9267 103.061 83.3334C104.23 82.1938 105.089 80.7743 105.554 79.2099C106.317 79.5419 107 80.031 107.56 80.6452C107.901 81.0504 108.186 81.5002 108.406 81.9823C106.65 83.2633 104.859 84.7407 105.108 87.078C105.117 87.1759 105.144 87.2713 105.189 87.3587C105.206 87.6049 105.271 87.8454 105.38 88.0664C105.49 88.2874 105.642 88.4846 105.828 88.6467C107.03 89.7206 108.884 89.2082 109.888 88.1378C111.43 86.4989 111.486 84.0388 110.738 81.8876L111.089 81.6244C111.472 81.3261 111.851 81.0243 112.224 80.7189C112.452 83.0702 112.729 85.604 113.502 87.7904C113.637 88.1702 113.898 88.4922 114.242 88.7021C114.586 88.9121 114.993 88.9973 115.392 88.9433C115.792 88.8894 116.161 88.6997 116.437 88.406C116.713 88.1123 116.88 87.7326 116.909 87.3307C117.011 85.7349 116.974 84.1333 116.8 82.5438C116.842 82.3999 116.887 82.2526 116.94 82.1087C117.418 80.8067 118.015 79.3854 118.945 78.3325C119.255 77.9816 120.533 76.7077 121.123 76.9288C121.435 77.0481 121.172 77.5149 121.049 77.9219C120.645 79.259 120.059 80.5364 119.701 81.8911C119.033 84.4284 118.967 87.2113 119.901 89.689C120.715 91.8473 123.135 94.009 125.471 92.4298C125.757 92.2525 125.987 91.9964 126.132 91.6922C126.277 91.388 126.331 91.0484 126.288 90.7142C126.245 90.38 126.107 90.0653 125.89 89.8075C125.672 89.5498 125.386 89.36 125.063 89.2608ZM90.7482 74.9565C90.9536 73.6073 91.2386 72.2714 91.6016 70.9558C91.7842 70.2539 91.995 69.5696 92.1951 68.8747C92.5463 67.7061 93.1258 66.8884 93.2136 69.0291C93.3295 72.0226 92.0547 75.1986 90.404 77.6587C90.5094 76.7287 90.6253 75.8198 90.7482 74.9565ZM81.8595 79.0906C81.6879 79.5235 81.4897 79.9455 81.266 80.354C81.0623 80.7365 78.9833 84.0353 78.2352 82.9369C77.7014 82.1508 79.0816 80.0135 79.4539 79.4275C80.0509 78.5115 80.9464 77.4692 81.9754 77.0341C81.9122 77.7254 81.8771 78.4062 81.8595 79.0906ZM81.8595 91.6507C81.6523 92.4193 81.3608 93.2826 80.7603 93.8476C80.3424 94.2407 80.4548 94.4442 80.6865 93.5669C80.8446 92.9668 80.813 92.3421 81.0132 91.7314C81.3026 90.8582 81.689 90.0201 82.1651 89.2328C82.1667 90.0478 82.0676 90.8599 81.8701 91.6507H81.8595ZM103.57 76.3287C102.4 76.0947 102.309 75.649 103.3 74.9916L103.936 75.9321C104.017 76.1249 104.077 76.3261 104.115 76.5322C103.943 76.4691 103.763 76.4024 103.581 76.3287H103.57ZM108.466 86.4007C108.364 86.6449 108.194 86.8552 107.977 87.0074C107.76 87.1595 107.505 87.2473 107.24 87.2605C107.086 87.2636 106.934 87.2244 106.801 87.147C106.668 87.0696 106.559 86.9571 106.485 86.8218C106.735 85.4531 107.725 84.3196 108.849 83.3545C108.907 83.6495 108.941 83.9488 108.951 84.2494C108.991 84.9962 108.827 85.7399 108.476 86.4007H108.466ZM116.171 68.9835C116.494 68.6747 117.014 69.2713 117.179 69.6854C117.492 70.496 117.133 71.8156 116.919 72.6017C116.721 73.3216 116.438 74.0155 116.076 74.6687C116.027 73.1597 116.027 71.6506 116.076 70.1416C116.108 69.903 115.992 69.166 116.182 68.9835H116.171Z" fill="#F7931E"/>
<path d="M136.972 68.7134C135.129 63.8178 128.358 66.8183 126.942 70.4295C126.626 71.2367 127.803 71.8333 128.347 71.2542C129.337 70.2014 130.387 69.3346 131.824 69.0082C133.26 68.6818 134.549 68.8994 134.307 70.6787C134.015 72.8264 131.796 74.89 129.583 74.6794C128.53 74.5741 127.592 75.8515 127.95 76.8201C128.493 78.1375 128.733 79.5599 128.653 80.9823C128.424 83.7126 132.916 83.7898 132.962 80.9823C133.005 79.7433 132.777 78.5097 132.294 77.3676C133.6 76.8753 134.748 76.0414 135.62 74.9531C136.997 73.223 137.777 70.8191 136.972 68.7134Z" fill="#F7931E"/>
<path d="M133.285 84.3759C132.898 84.1533 132.447 84.0691 132.006 84.1373C131.576 84.1982 131.175 84.3906 130.858 84.6883C130.82 84.7145 130.788 84.7479 130.763 84.7865C130.657 84.8836 130.566 84.996 130.493 85.1199C130.245 85.3131 130.043 85.5586 129.902 85.8389C129.76 86.1193 129.682 86.4274 129.674 86.7413C129.677 87.0538 129.746 87.3622 129.876 87.6464C130.006 87.9306 130.195 88.1842 130.429 88.3907C130.69 88.6373 131.003 88.8223 131.345 88.9321C131.687 89.042 132.049 89.0738 132.405 89.0253C132.761 88.9768 133.101 88.8493 133.401 88.652C133.701 88.4547 133.953 88.1927 134.138 87.8853C134.485 87.3054 134.589 86.6126 134.43 85.9562C134.27 85.2997 133.859 84.7322 133.285 84.3759Z" fill="#F7931E"/>
<path d="M101.993 70.9805C101.846 70.4686 101.506 70.0335 101.045 69.7662C100.619 69.5265 100.124 69.4352 99.6403 69.5065C99.3649 69.5241 99.0983 69.6098 98.8641 69.7557C98.7181 69.8444 98.5816 69.9479 98.4568 70.0645C98.2443 70.3031 98.083 70.5825 97.9826 70.8857C97.8984 71.1971 97.8984 71.5253 97.9826 71.8368C98.027 71.9904 98.0907 72.1378 98.1723 72.2754C98.3089 72.7106 98.595 73.0835 98.98 73.3283C99.4463 73.5971 99.9997 73.6719 100.521 73.5367C101.042 73.4014 101.489 73.0669 101.765 72.6053C101.91 72.3635 102.005 72.0951 102.044 71.816C102.083 71.5369 102.066 71.2528 101.993 70.9805Z" fill="#F7931E"/>
</g>
<defs>
<clipPath id="clip0_230_2320">
<rect width="90.2987" height="73.4167" fill="white" transform="translate(47 24)"/>
</clipPath>
</defs>
</svg>
