<svg width="55" height="102" viewBox="0 0 55 102" fill="none" xmlns="http://www.w3.org/2000/svg">
<path d="M19.1813 96.0281H15.0413L14.0913 79.5881H20.1213L19.1813 96.0281Z" fill="#F2B193"/>
<path d="M19.1813 96.0281H15.0413L14.0913 79.5881H20.1213L19.1813 96.0281Z" fill="#F8B78F"/>
<g style="mix-blend-mode:multiply" opacity="0.5">
<path d="M14.0913 79.5881V80.7881H18.5013L17.5613 96.0281H19.1813L20.1213 79.5881H14.0913Z" fill="#F2B193"/>
</g>
<path d="M17.2811 94.8282C16.4611 94.8282 15.2012 94.9482 14.7212 95.7382V96.3282C14.6034 96.6025 14.5557 96.9017 14.5824 97.199C14.609 97.4962 14.7092 97.7822 14.8738 98.0311C15.0385 98.2801 15.2624 98.4842 15.5255 98.625C15.7887 98.7659 16.0827 98.8392 16.3812 98.8382C16.3812 98.8382 19.4612 99.4282 19.3812 96.3282V96.2182C19.2204 95.796 18.9314 95.4348 18.5547 95.1855C18.178 94.9361 17.7326 94.8112 17.2811 94.8282Z" fill="white"/>
<path d="M17.1413 101.628C17.5191 101.629 17.8927 101.548 18.2369 101.392C18.5812 101.237 18.8881 101.009 19.1372 100.725C19.3863 100.441 19.5717 100.107 19.6811 99.7451C19.7904 99.3835 19.8212 99.0026 19.7713 98.6281L19.5113 95.6281C19.3913 94.3281 16.8713 94.2581 16.8713 94.2581C14.7613 94.2581 14.4213 95.6281 14.4213 95.6281L12.9213 98.8781C12.9213 98.8781 11.9613 101.918 17.1413 101.628ZM18.7413 95.8581C18.8082 96.2451 18.7929 96.6419 18.6964 97.0226C18.5999 97.4034 18.4244 97.7596 18.1813 98.0681C17.5213 98.6981 16.1813 98.4381 15.4213 98.0681C14.6613 97.6981 14.6713 96.358 15.1013 95.678C15.1013 95.678 15.4113 94.858 16.8713 94.928C16.8713 95.008 18.5813 95.0081 18.7413 95.8881V95.8581Z" fill="#B54975"/>
<path d="M17.1712 100.718C14.2212 100.868 13.1712 99.9781 12.8712 99.1381C12.7812 99.8981 12.9412 101.868 17.1412 101.658C17.5096 101.657 17.8737 101.579 18.2103 101.429C18.5468 101.279 18.8485 101.061 19.096 100.788C19.3435 100.515 19.5313 100.194 19.6476 99.8443C19.7638 99.4948 19.8059 99.1248 19.7712 98.7581C19.6016 99.3182 19.2583 99.81 18.791 100.162C18.3236 100.515 17.7564 100.709 17.1712 100.718Z" fill="white"/>
<g style="mix-blend-mode:soft-light">
<path d="M14.1012 97.3682C14.0541 97.6846 13.9906 97.9983 13.9112 98.3082C13.8982 98.3823 13.8815 98.4557 13.8612 98.5282C13.8545 98.5947 13.8545 98.6617 13.8612 98.7282C13.8502 98.858 13.8818 98.9879 13.9512 99.0982C13.9512 99.1582 14.0412 99.1882 14.0812 99.2482L14.2712 99.3682C14.4301 99.4451 14.5938 99.5119 14.7612 99.5682C14.9316 99.6306 15.1052 99.684 15.2812 99.7282C15.4612 99.7282 15.6212 99.8282 15.7912 99.8482L16.2812 99.9382H16.7312C16.9577 99.9501 17.1847 99.9501 17.4112 99.9382H17.6812L17.4212 100.018L17.1312 100.098C17.0046 100.138 16.8736 100.161 16.7412 100.168H16.2612H15.7312C15.3474 100.121 14.969 100.037 14.6012 99.9182C14.4124 99.8474 14.2286 99.7639 14.0512 99.6682C13.9612 99.6182 13.8712 99.5382 13.7812 99.4782C13.7057 99.3915 13.6387 99.2977 13.5812 99.1982C13.4707 99.0295 13.418 98.8294 13.4312 98.6282C13.4547 98.5426 13.4848 98.4591 13.5212 98.3782L13.6212 98.1782C13.7676 97.9003 13.9278 97.63 14.1012 97.3682Z" fill="white"/>
</g>
<path d="M25.3013 96.0281H29.4413L30.3913 79.5881H24.3613L25.3013 96.0281Z" fill="#F2B193"/>
<path d="M25.3013 96.0281H29.4413L30.3913 79.5881H24.3613L25.3013 96.0281Z" fill="#F8B78F"/>
<g style="mix-blend-mode:multiply" opacity="0.5">
<path d="M30.3913 79.5881V80.7881H25.9813L26.9313 96.0281H25.3013L24.3613 79.5881H30.3913Z" fill="#F2B193"/>
</g>
<path d="M29.791 95.6782C29.5209 95.3594 29.1835 95.1045 28.8031 94.9316C28.4228 94.7587 28.0088 94.6721 27.5911 94.6782C27.1168 94.6634 26.6461 94.7639 26.2194 94.9712C25.7926 95.1785 25.4226 95.4863 25.141 95.8682V96.2982C25.041 99.3982 28.141 98.8082 28.141 98.8082C28.4396 98.8101 28.7338 98.7372 28.997 98.5963C29.2602 98.4554 29.484 98.251 29.648 98.0015C29.812 97.752 29.911 97.4655 29.936 97.168C29.9609 96.8705 29.9111 96.5715 29.791 96.2982V95.6782Z" fill="white"/>
<path d="M31.5911 98.8481L30.1011 95.6281C30.1011 95.6281 29.7611 94.3081 27.6511 94.2581C27.6511 94.2581 25.121 94.3281 25.011 95.6281L24.7411 98.6281C24.6927 99.0031 24.7249 99.3842 24.8355 99.7458C24.9461 100.108 25.1325 100.441 25.3824 100.725C25.6322 101.009 25.9397 101.237 26.2843 101.392C26.629 101.548 27.0029 101.628 27.3811 101.628C32.5611 101.918 31.5911 98.8481 31.5911 98.8481ZM27.6511 95.0081C29.1011 94.9381 29.421 95.7581 29.421 95.7581C29.851 96.4381 29.9411 97.758 29.0911 98.148C28.2411 98.538 27.0011 98.728 26.3311 98.148C26.0868 97.8403 25.9114 97.4839 25.8165 97.1027C25.7217 96.7214 25.7096 96.3243 25.7811 95.938C25.9311 95.008 27.6511 95.0081 27.6511 95.0081Z" fill="#B54975"/>
<path d="M27.3511 100.718C30.2911 100.868 31.3511 99.9781 31.6511 99.1381C31.7411 99.8981 31.5711 101.868 27.3811 101.658C27.0127 101.657 26.6486 101.579 26.312 101.429C25.9754 101.279 25.6738 101.061 25.4263 100.788C25.1788 100.515 24.9909 100.194 24.8747 99.8443C24.7584 99.4948 24.7163 99.1248 24.7511 98.7581C24.9193 99.319 25.2622 99.8117 25.7298 100.164C26.1975 100.517 26.7655 100.711 27.3511 100.718Z" fill="white"/>
<g style="mix-blend-mode:soft-light">
<path d="M30.4313 97.3682C30.4313 97.3682 30.4813 97.7482 30.6113 98.3082C30.6113 98.3782 30.6113 98.4482 30.6613 98.5282C30.6671 98.5947 30.6671 98.6616 30.6613 98.7282C30.6636 98.8585 30.6289 98.9868 30.5613 99.0982C30.5613 99.1582 30.4713 99.1882 30.4313 99.2482L30.2413 99.3682C30.0831 99.4468 29.9194 99.5137 29.7513 99.5682C29.5814 99.632 29.4077 99.6854 29.2313 99.7282C29.0613 99.7282 28.8913 99.8282 28.7213 99.8482L28.2313 99.9382H27.7913C27.5614 99.9498 27.3312 99.9498 27.1013 99.9382H26.8413L27.0913 100.018L27.3913 100.098C27.5174 100.139 27.6487 100.163 27.7813 100.168H28.2513H28.7813C29.1654 100.123 29.5441 100.039 29.9113 99.9182C30.1009 99.8493 30.2848 99.7657 30.4613 99.6682C30.5552 99.6106 30.6454 99.5471 30.7313 99.4782C30.81 99.394 30.8772 99.2999 30.9313 99.1982C31.0321 99.0042 31.057 98.7796 31.0013 98.5682C30.9826 98.4812 30.9523 98.3971 30.9113 98.3182L30.8213 98.1182C30.7026 97.8625 30.5725 97.6122 30.4313 97.3682Z" fill="white"/>
</g>
<path d="M11.521 69.5481L12.721 84.3481C13.9312 84.9254 15.2551 85.225 16.596 85.225C17.9369 85.225 19.2608 84.9254 20.471 84.3481L21.221 78.6681H23.221L24.351 84.3481C25.6388 84.9129 27.0298 85.2046 28.436 85.2046C29.8422 85.2046 31.2332 84.9129 32.521 84.3481L32.891 69.5481H11.521Z" fill="#2662A3"/>
<path d="M25.161 41.6482H19.251V44.2882H25.161V41.6482Z" fill="#FBB88E"/>
<path d="M25.161 42.4382V41.6282H19.251V43.2382C21.256 43.4178 23.2758 43.1444 25.161 42.4382Z" fill="#E69D82"/>
<path d="M10.7613 69.2981C9.69345 62.9131 11.0641 56.3599 14.6013 50.9381C14.6013 50.9381 13.9713 49.3981 12.6013 49.7781C12.6013 49.7781 4.5413 58.9681 8.5313 69.7781C8.5713 69.7981 9.91128 71.6281 10.7613 69.2981Z" fill="#F8B78F"/>
<path d="M8.78135 74.2982C8.17474 73.4404 7.78369 72.4491 7.64134 71.4082C7.52397 70.6212 7.71373 69.8192 8.17134 69.1682C8.46346 68.7874 8.88278 68.5243 9.35276 68.427C9.82275 68.3297 10.312 68.4047 10.7313 68.6382C11.0617 68.925 11.316 69.2892 11.4714 69.6982V69.7682C11.6903 70.1975 11.985 70.5837 12.3414 70.9082C12.9514 71.4282 12.5314 71.9082 12.5314 71.9082C12.4837 71.9584 12.4263 71.9985 12.3627 72.0258C12.2991 72.0531 12.2306 72.0672 12.1614 72.0672C12.0921 72.0672 12.0236 72.0531 11.96 72.0258C11.8964 71.9985 11.839 71.9584 11.7913 71.9082C11.5313 71.6682 11.2814 71.4082 11.0314 71.1582C10.5814 70.8682 10.5813 71.2682 10.5813 71.2682C10.8774 72.0584 11.2352 72.8241 11.6513 73.5582C11.7076 73.6721 11.7192 73.8029 11.6841 73.925C11.649 74.0471 11.5695 74.1516 11.4613 74.2182C11.4613 74.2182 11.1613 74.5382 10.4613 73.5082C10.0851 72.885 9.79896 72.2116 9.61134 71.5082C9.78871 72.2515 10.0645 72.9678 10.4313 73.6382C10.9213 74.2382 10.3613 74.4882 10.3613 74.4882C9.68134 74.6582 9.21135 73.2982 9.21135 73.2982C8.77135 72.1182 8.54133 71.6382 8.54133 71.6382L9.26133 73.5682C9.26133 73.5682 9.62133 74.1982 9.26133 74.3782C9.37133 74.4182 9.12135 74.6282 8.78135 74.2982Z" fill="#F8B78F"/>
<path d="M31.6113 46.4482C31.4938 45.9625 31.2524 45.5155 30.9106 45.151C30.5688 44.7864 30.1384 44.5167 29.6613 44.3682L24.4413 43.3682H20.0013L14.7813 44.3682C14.2949 44.5092 13.8541 44.7756 13.5031 45.1407C13.1521 45.5057 12.9032 45.9566 12.7813 46.4482C12.4413 56.5182 12.1413 62.1282 11.5513 70.2282C18.4701 72.3643 25.8724 72.3643 32.7913 70.2282C32.6013 65.9982 32.1113 56.7582 31.6113 46.4482Z" fill="#FBB88E"/>
<path d="M25.5311 43.5481L29.6411 44.3681C30.1275 44.5091 30.5682 44.7755 30.9193 45.1406C31.2703 45.5056 31.5192 45.9565 31.6411 46.4481C32.0311 54.4481 32.2311 59.2581 32.8711 70.2281C25.9484 72.3613 18.5438 72.3613 11.6211 70.2281C12.1111 61.6281 12.4111 56.8181 12.8511 46.4481C12.9686 45.9624 13.21 45.5154 13.5517 45.1509C13.8935 44.7863 14.324 44.5166 14.8011 44.3681L18.7411 43.5881C18.7411 43.5881 18.8011 46.1181 22.0811 46.0481C22.0411 46.0481 25.1611 46.4481 25.5311 43.5481Z" fill="#C56FAD"/>
<path d="M14.6912 44.3882C14.6912 44.3882 10.9912 44.5282 9.50116 49.2282L8.43115 52.0482C8.97023 52.9456 9.73473 53.6863 10.6487 54.1968C11.5627 54.7073 12.5943 54.9698 13.6411 54.9582C13.6411 54.9582 15.8612 48.2082 14.6912 44.3882Z" fill="#945EA7"/>
<path d="M29.5612 44.3882C29.5612 44.3882 33.2512 44.5282 34.7512 49.2282L35.8311 52.0482C35.2921 52.9456 34.5276 53.6863 33.6136 54.1968C32.6996 54.7073 31.668 54.9698 30.6212 54.9582C30.6212 54.9582 28.4312 48.2082 29.5612 44.3882Z" fill="#945EA7"/>
<path d="M6.43097 43.0281C6.43097 43.0281 19.951 38.4081 38.131 43.0281L41.611 21.7781H2.75098L6.43097 43.0281Z" fill="#521706"/>
<path d="M1.13135 25.8082L2.36134 45.2582L6.39134 43.0282V21.9182L1.13135 25.8082Z" fill="#923D2E"/>
<path d="M43.3513 25.8082L42.1213 45.2582L38.0913 43.0282V21.9182L43.3513 25.8082Z" fill="#923D2E"/>
<path d="M41.891 24.9081C41.891 34.5081 33.081 42.2981 22.221 42.2981C11.361 42.2981 2.56104 34.5081 2.56104 24.9081C2.56104 15.3081 11.361 7.50806 22.221 7.50806C33.081 7.50806 41.891 15.2981 41.891 24.9081Z" fill="#F8B78F"/>
<path d="M0.0911151 28.3882C0.0362205 28.7343 0.0597484 29.0883 0.159963 29.424C0.260177 29.7598 0.434525 30.0688 0.670125 30.3281C0.905725 30.5875 1.19655 30.7907 1.52117 30.9226C1.84578 31.0545 2.1959 31.1119 2.54564 31.0904C2.89539 31.0689 3.23582 30.9692 3.54186 30.7985C3.8479 30.6279 4.11171 30.3907 4.3138 30.1044C4.5159 29.8182 4.65114 29.4902 4.70952 29.1447C4.76791 28.7992 4.74794 28.445 4.65111 28.1082C4.70601 27.7621 4.68248 27.4082 4.58226 27.0724C4.48205 26.7366 4.3077 26.4277 4.0721 26.1683C3.8365 25.9089 3.54567 25.7058 3.22106 25.5738C2.89644 25.4419 2.54633 25.3845 2.19658 25.406C1.84684 25.4275 1.5064 25.5273 1.20037 25.6979C0.894332 25.8686 0.630522 26.1058 0.428426 26.392C0.226329 26.6783 0.0910864 27.0062 0.0327044 27.3517C-0.0256776 27.6973 -0.0057079 28.0515 0.0911151 28.3882Z" fill="#F8B78F"/>
<path d="M1.21117 26.2882C1.38305 26.1951 1.57568 26.147 1.77116 26.1482C2.60116 26.1482 3.20116 27.5582 2.36116 27.7582C2.27461 27.8582 2.22697 27.986 2.22697 28.1182C2.22697 28.2504 2.27461 28.3783 2.36116 28.4782C2.53469 28.6501 2.67053 28.8563 2.76006 29.0835C2.84958 29.3108 2.89084 29.5542 2.88118 29.7982C2.83194 29.9285 2.74644 30.042 2.63481 30.1253C2.52318 30.2085 2.39008 30.2582 2.25117 30.2682C2.04117 30.3182 2.01117 30.1382 2.18117 30.0582C2.30741 29.9944 2.4196 29.9061 2.51115 29.7982V29.7482C2.53559 29.6804 2.53559 29.6061 2.51115 29.5382C2.42153 29.6177 2.30593 29.6615 2.18617 29.6615C2.06641 29.6615 1.95079 29.6177 1.86116 29.5382C1.72116 29.3182 1.86117 29.0082 1.81117 28.7682C1.77051 28.6048 1.71007 28.447 1.63118 28.2982C1.29118 27.5882 1.98115 27.5082 1.98115 27.5082C2.06433 27.5009 2.14798 27.5009 2.23115 27.5082C2.59115 27.3282 2.23116 26.7482 2.02116 26.6482C1.90479 26.5846 1.77108 26.56 1.63969 26.578C1.5083 26.596 1.38614 26.6557 1.29115 26.7482C1.114 26.9694 1.01863 27.2449 1.02116 27.5282C1.02752 27.869 1.08828 28.2066 1.20116 28.5282C1.27116 28.6982 1.36116 28.9082 1.42116 29.0782C1.48116 29.2482 1.29117 29.3482 1.21117 29.1482C0.964315 28.6425 0.792499 28.1035 0.701156 27.5482C0.65158 27.3113 0.673602 27.065 0.764419 26.8406C0.855236 26.6163 1.01075 26.424 1.21117 26.2882Z" fill="#E69D82"/>
<path d="M44.3609 28.3881C44.2375 28.8134 43.9966 29.1952 43.6657 29.4895C43.3348 29.7838 42.9275 29.9786 42.4907 30.0515C42.0539 30.1244 41.6054 30.0724 41.1969 29.9015C40.7884 29.7305 40.4365 29.4477 40.1817 29.0855C39.927 28.7233 39.7797 28.2964 39.757 27.8542C39.7343 27.412 39.837 26.9723 40.0532 26.5859C40.2695 26.1994 40.5905 25.882 40.9793 25.6701C41.3682 25.4582 41.8089 25.3604 42.2509 25.3881C42.9252 25.5126 43.5239 25.8965 43.9184 26.4574C44.3129 27.0182 44.4717 27.7114 44.3609 28.3881Z" fill="#F8B78F"/>
<path d="M43.2409 26.2882C43.0686 26.1963 42.8763 26.1482 42.6809 26.1482C41.8409 26.1482 41.2409 27.5582 42.0809 27.7582C42.1675 27.8582 42.2151 27.986 42.2151 28.1182C42.2151 28.2504 42.1675 28.3782 42.0809 28.4782C41.9074 28.6501 41.7716 28.8562 41.682 29.0835C41.5925 29.3108 41.5513 29.5542 41.5609 29.7982C41.6084 29.9277 41.6921 30.0408 41.802 30.1241C41.9119 30.2075 42.0434 30.2575 42.1809 30.2682C42.3909 30.3182 42.4309 30.1382 42.2609 30.0582C42.1338 29.9959 42.0213 29.9073 41.9309 29.7982V29.7482C41.9112 29.6796 41.9112 29.6068 41.9309 29.5382C42.0179 29.619 42.1322 29.664 42.251 29.664C42.3697 29.664 42.484 29.619 42.571 29.5382C42.721 29.3182 42.571 29.0082 42.631 28.7682C42.6636 28.6039 42.7209 28.4454 42.8009 28.2982C43.1409 27.5882 42.4509 27.5082 42.4509 27.5082C42.3677 27.5015 42.2841 27.5015 42.2009 27.5082C41.8409 27.3282 42.201 26.7482 42.411 26.6482C42.5273 26.5846 42.661 26.56 42.7924 26.578C42.9238 26.596 43.046 26.6556 43.1409 26.7482C43.3219 26.9672 43.4178 27.2442 43.411 27.5282C43.415 27.8699 43.3539 28.2093 43.2309 28.5282L43.0109 29.0782C42.9309 29.2682 43.141 29.3482 43.221 29.1482C43.4669 28.6412 43.6418 28.1029 43.7409 27.5482C43.7889 27.3123 43.7671 27.0676 43.6783 26.8438C43.5896 26.6201 43.4376 26.427 43.2409 26.2882Z" fill="#E69D82"/>
<path d="M23.256 28.693C23.2561 28.7359 23.2474 28.7783 23.2307 28.8178C23.214 28.8573 23.1896 28.893 23.1588 28.9229C23.128 28.9527 23.0916 28.9761 23.0516 28.9916C23.0116 29.0071 22.9689 29.0143 22.926 29.013C22.6562 29.0389 22.4058 29.1644 22.2235 29.3651C22.0413 29.5657 21.9403 29.827 21.9403 30.098C21.9403 30.369 22.0413 30.6304 22.2235 30.831C22.4058 31.0316 22.6562 31.1571 22.926 31.183C23.0135 31.183 23.0975 31.2178 23.1594 31.2797C23.2212 31.3416 23.256 31.4255 23.256 31.513C23.256 31.6005 23.2212 31.6845 23.1594 31.7463C23.0975 31.8082 23.0135 31.843 22.926 31.843C22.4645 31.843 22.022 31.6597 21.6957 31.3334C21.3694 31.0071 21.186 30.5645 21.186 30.103C21.186 29.6415 21.3694 29.199 21.6957 28.8727C22.022 28.5463 22.4645 28.363 22.926 28.363C22.9697 28.3616 23.0133 28.3692 23.054 28.3853C23.0946 28.4014 23.1316 28.4256 23.1625 28.4566C23.1934 28.4875 23.2176 28.5244 23.2337 28.5651C23.2498 28.6058 23.2574 28.6493 23.256 28.693Z" fill="#E89D7F"/>
<path opacity="0.3" d="M8.71094 30.6882C8.71094 31.6882 9.97094 32.4582 11.5309 32.4582C13.0909 32.4582 14.351 31.6682 14.351 30.6882C14.351 29.7082 13.0809 28.9182 11.5309 28.9182C9.98094 28.9182 8.71094 29.7082 8.71094 30.6882Z" fill="#F27383"/>
<path opacity="0.3" d="M30.1011 30.6882C30.1011 31.6882 31.3611 32.4582 32.9211 32.4582C34.4811 32.4582 35.7411 31.6682 35.7411 30.6882C35.7411 29.7082 34.4711 28.9182 32.9211 28.9182C31.3711 28.9182 30.1011 29.7082 30.1011 30.6882Z" fill="#F27383"/>
<path d="M22.2211 36.5081C21.0728 36.3791 19.9895 35.9089 19.1111 35.1581C19.0685 35.1202 19.0395 35.0693 19.0287 35.0133C19.0178 34.9573 19.0257 34.8992 19.0511 34.8481C19.06 34.8233 19.0746 34.8009 19.0937 34.7826C19.1128 34.7644 19.1359 34.7509 19.1611 34.7431C19.1863 34.7354 19.213 34.7336 19.2391 34.7379C19.2651 34.7422 19.2898 34.7526 19.3111 34.7681C21.1933 35.4379 23.2489 35.4379 25.1311 34.7681C25.2411 34.7681 25.3411 34.7681 25.3911 34.8481C25.4183 34.8988 25.4272 34.9573 25.4162 35.0138C25.4053 35.0703 25.3752 35.1212 25.3311 35.1581C24.4501 35.9047 23.3682 36.3744 22.2211 36.5081Z" fill="#F3917E"/>
<path d="M22.1213 37.9982C21.6965 38.0103 21.2749 37.9212 20.8913 37.7382C20.8168 37.6908 20.7637 37.6163 20.7432 37.5305C20.7227 37.4447 20.7363 37.3542 20.7813 37.2782C20.8268 37.2045 20.8995 37.1516 20.9838 37.131C21.068 37.1104 21.1569 37.1238 21.2313 37.1683C21.5561 37.3033 21.9045 37.3728 22.2563 37.3728C22.6081 37.3728 22.9564 37.3033 23.2813 37.1683C23.3219 37.1528 23.3653 37.146 23.4086 37.1484C23.452 37.1508 23.4944 37.1622 23.533 37.182C23.5717 37.2018 23.6057 37.2295 23.633 37.2633C23.6603 37.2971 23.6801 37.3363 23.6913 37.3782C23.7202 37.4605 23.7153 37.5508 23.6779 37.6295C23.6404 37.7082 23.5733 37.7688 23.4913 37.7983C23.0477 37.9354 22.5856 38.0028 22.1213 37.9982Z" fill="#F5A586"/>
<path d="M11.521 21.3882C12.1111 20.855 12.8589 20.5285 13.651 20.4582C13.7354 20.4351 13.8144 20.3955 13.8833 20.3416C13.9523 20.2878 14.0098 20.2207 14.0526 20.1444C14.0954 20.0681 14.1226 19.9841 14.1327 19.8972C14.1427 19.8102 14.1353 19.7222 14.111 19.6382C14.0621 19.4714 13.9502 19.3302 13.7991 19.2444C13.6479 19.1586 13.4693 19.1348 13.301 19.1782C12.2813 19.3046 11.3285 19.753 10.581 20.4582C9.96103 21.0482 10.901 21.9782 11.521 21.3882Z" fill="#923D2E"/>
<path d="M32.9312 21.3882C32.3364 20.8561 31.5859 20.5299 30.7912 20.4582C30.7068 20.4351 30.6278 20.3955 30.5589 20.3416C30.4899 20.2878 30.4324 20.2207 30.3896 20.1444C30.3468 20.0681 30.3196 19.9841 30.3095 19.8972C30.2995 19.8102 30.3069 19.7222 30.3312 19.6382C30.3801 19.4714 30.492 19.3302 30.6431 19.2444C30.7943 19.1586 30.9728 19.1348 31.1412 19.1782C32.1615 19.3026 33.1149 19.7513 33.8612 20.4582C34.4812 21.0482 33.5412 21.9782 32.9312 21.3882Z" fill="#923D2E"/>
<path d="M3.43097 30.2782C3.43097 30.4444 3.3817 30.6068 3.2894 30.7449C3.1971 30.883 3.0659 30.9907 2.91241 31.0543C2.75892 31.1179 2.59004 31.1345 2.42709 31.1021C2.26415 31.0697 2.11448 30.9897 1.99701 30.8722C1.87953 30.7547 1.79953 30.6051 1.76712 30.4421C1.73471 30.2792 1.75133 30.1103 1.81491 29.9568C1.87849 29.8033 1.98616 29.6721 2.1243 29.5798C2.26244 29.4875 2.42484 29.4382 2.59097 29.4382C2.81295 29.4408 3.0251 29.5302 3.18207 29.6871C3.33904 29.8441 3.42837 30.0563 3.43097 30.2782Z" fill="white"/>
<path d="M2.76117 30.7282C2.58347 30.7282 2.41306 30.6576 2.28741 30.532C2.16176 30.4063 2.09119 30.2359 2.09119 30.0582C2.09218 29.918 2.13847 29.7819 2.22317 29.6702C2.30788 29.5584 2.42645 29.4771 2.56119 29.4382C2.39505 29.4382 2.23265 29.4875 2.09451 29.5798C1.95638 29.6721 1.8487 29.8033 1.78513 29.9568C1.72155 30.1103 1.70492 30.2792 1.73733 30.4421C1.76975 30.6051 1.84975 30.7547 1.96722 30.8722C2.0847 30.9897 2.23436 31.0697 2.39731 31.1021C2.56025 31.1345 2.72914 31.1179 2.88263 31.0543C3.03612 30.9907 3.16731 30.883 3.25961 30.7449C3.35191 30.6068 3.40118 30.4444 3.40118 30.2782C3.40118 30.2782 3.40118 30.2782 3.40118 30.2182C3.3691 30.3637 3.28801 30.4938 3.17151 30.5866C3.055 30.6794 2.91014 30.7294 2.76117 30.7282Z" fill="#E6E7E8"/>
<path d="M42.4314 30.2783C42.4334 30.4472 42.3849 30.6129 42.2923 30.7542C42.1997 30.8955 42.067 31.0061 41.9113 31.0716C41.7556 31.1372 41.5839 31.1549 41.418 31.1224C41.2522 31.0899 41.0999 31.0088 40.9804 30.8893C40.8609 30.7698 40.7798 30.6174 40.7473 30.4516C40.7148 30.2858 40.7325 30.1141 40.7981 29.9584C40.8636 29.8027 40.9741 29.67 41.1154 29.5774C41.2567 29.4847 41.4224 29.4363 41.5914 29.4383C41.8134 29.4409 42.0255 29.5302 42.1825 29.6872C42.3395 29.8442 42.4288 30.0563 42.4314 30.2783Z" fill="white"/>
<path d="M41.771 30.7282C41.5933 30.7282 41.4229 30.6576 41.2972 30.532C41.1716 30.4063 41.101 30.2359 41.101 30.0582C41.102 29.918 41.1483 29.7819 41.233 29.6702C41.3177 29.5584 41.4362 29.4771 41.571 29.4382C41.4048 29.4382 41.2424 29.4875 41.1043 29.5798C40.9661 29.6721 40.8585 29.8033 40.7949 29.9568C40.7313 30.1103 40.7147 30.2792 40.7471 30.4421C40.7795 30.6051 40.8595 30.7547 40.977 30.8722C41.0945 30.9897 41.2442 31.0697 41.4071 31.1021C41.57 31.1345 41.7389 31.1179 41.8924 31.0543C42.0459 30.9907 42.1771 30.883 42.2694 30.7449C42.3617 30.6068 42.411 30.4444 42.411 30.2782C42.411 30.2782 42.411 30.2782 42.411 30.2182C42.3789 30.3637 42.2978 30.4938 42.1813 30.5866C42.0648 30.6794 41.9199 30.7294 41.771 30.7282Z" fill="#E6E7E8"/>
<path d="M13.6412 29.1782C13.5847 29.1897 13.5339 29.2204 13.4974 29.265C13.4609 29.3097 13.4409 29.3656 13.4409 29.4232C13.4409 29.4809 13.4609 29.5368 13.4974 29.5815C13.5339 29.6261 13.5847 29.6568 13.6412 29.6682C13.6977 29.6568 13.7485 29.6261 13.785 29.5815C13.8215 29.5368 13.8414 29.4809 13.8414 29.4232C13.8414 29.3656 13.8215 29.3097 13.785 29.265C13.7485 29.2204 13.6977 29.1897 13.6412 29.1782Z" fill="#C88972"/>
<path d="M11.3409 29.3982C11.2844 29.4097 11.2335 29.4403 11.1971 29.485C11.1606 29.5296 11.1406 29.5856 11.1406 29.6432C11.1406 29.7009 11.1606 29.7568 11.1971 29.8014C11.2335 29.8461 11.2844 29.8767 11.3409 29.8882C11.3974 29.8767 11.4482 29.8461 11.4847 29.8014C11.5212 29.7568 11.5411 29.7009 11.5411 29.6432C11.5411 29.5856 11.5212 29.5296 11.4847 29.485C11.4482 29.4403 11.3974 29.4097 11.3409 29.3982Z" fill="#C88972"/>
<path d="M12.7613 30.4382C12.7047 30.4497 12.654 30.4804 12.6175 30.525C12.581 30.5697 12.561 30.6256 12.561 30.6832C12.561 30.7409 12.581 30.7968 12.6175 30.8415C12.654 30.8861 12.7047 30.9167 12.7613 30.9282C12.8178 30.9167 12.8686 30.8861 12.9051 30.8415C12.9416 30.7968 12.9615 30.7409 12.9615 30.6832C12.9615 30.6256 12.9416 30.5697 12.9051 30.525C12.8686 30.4804 12.8178 30.4497 12.7613 30.4382Z" fill="#C88972"/>
<path d="M14.9014 30.1582C14.8351 30.1582 14.7715 30.1845 14.7246 30.2314C14.6777 30.2783 14.6514 30.3419 14.6514 30.4082C14.6514 30.4745 14.6777 30.5381 14.7246 30.585C14.7715 30.6319 14.8351 30.6582 14.9014 30.6582C14.9677 30.6582 15.0313 30.6319 15.0782 30.585C15.125 30.5381 15.1514 30.4745 15.1514 30.4082C15.1514 30.3419 15.125 30.2783 15.0782 30.2314C15.0313 30.1845 14.9677 30.1582 14.9014 30.1582Z" fill="#C88972"/>
<path d="M10.9009 30.7683C10.8444 30.7798 10.7936 30.8104 10.7571 30.8551C10.7206 30.8997 10.7007 30.9556 10.7007 31.0133C10.7007 31.071 10.7206 31.1269 10.7571 31.1715C10.7936 31.2162 10.8444 31.2468 10.9009 31.2583C10.9575 31.2468 11.0083 31.2162 11.0448 31.1715C11.0813 31.1269 11.1012 31.071 11.1012 31.0133C11.1012 30.9556 11.0813 30.8997 11.0448 30.8551C11.0083 30.8104 10.9575 30.7798 10.9009 30.7683Z" fill="#C88972"/>
<path d="M13.3614 31.8081C13.3049 31.8196 13.2541 31.8502 13.2176 31.8949C13.1811 31.9395 13.1611 31.9954 13.1611 32.0531C13.1611 32.1108 13.1811 32.1667 13.2176 32.2113C13.2541 32.256 13.3049 32.2867 13.3614 32.2981C13.4179 32.2867 13.4687 32.256 13.5052 32.2113C13.5417 32.1667 13.5616 32.1108 13.5616 32.0531C13.5616 31.9954 13.5417 31.9395 13.5052 31.8949C13.4687 31.8502 13.4179 31.8196 13.3614 31.8081Z" fill="#C88972"/>
<path d="M32.2813 29.1782C32.2248 29.1897 32.174 29.2204 32.1375 29.265C32.101 29.3097 32.0811 29.3656 32.0811 29.4232C32.0811 29.4809 32.101 29.5368 32.1375 29.5815C32.174 29.6261 32.2248 29.6568 32.2813 29.6682C32.3378 29.6568 32.3886 29.6261 32.4251 29.5815C32.4616 29.5368 32.4816 29.4809 32.4816 29.4232C32.4816 29.3656 32.4616 29.3097 32.4251 29.265C32.3886 29.2204 32.3378 29.1897 32.2813 29.1782Z" fill="#C88972"/>
<path d="M29.981 29.3982C29.9245 29.4097 29.8737 29.4403 29.8372 29.485C29.8007 29.5296 29.7808 29.5856 29.7808 29.6432C29.7808 29.7009 29.8007 29.7568 29.8372 29.8014C29.8737 29.8461 29.9245 29.8767 29.981 29.8882C30.0375 29.8767 30.0883 29.8461 30.1248 29.8014C30.1613 29.7568 30.1812 29.7009 30.1812 29.6432C30.1812 29.5856 30.1613 29.5296 30.1248 29.485C30.0883 29.4403 30.0375 29.4097 29.981 29.3982Z" fill="#C88972"/>
<path d="M31.4312 30.4382C31.3747 30.4497 31.3239 30.4804 31.2874 30.525C31.2509 30.5697 31.231 30.6256 31.231 30.6832C31.231 30.7409 31.2509 30.7968 31.2874 30.8415C31.3239 30.8861 31.3747 30.9167 31.4312 30.9282C31.4877 30.9167 31.5385 30.8861 31.575 30.8415C31.6115 30.7968 31.6315 30.7409 31.6315 30.6832C31.6315 30.6256 31.6115 30.5697 31.575 30.525C31.5385 30.4804 31.4877 30.4497 31.4312 30.4382Z" fill="#C88972"/>
<path d="M33.5513 30.1582C33.485 30.1582 33.4214 30.1845 33.3745 30.2314C33.3276 30.2783 33.3013 30.3419 33.3013 30.4082C33.3013 30.4745 33.3276 30.5381 33.3745 30.585C33.4214 30.6319 33.485 30.6582 33.5513 30.6582C33.6176 30.6582 33.6812 30.6319 33.7281 30.585C33.7749 30.5381 33.8013 30.4745 33.8013 30.4082C33.8013 30.3419 33.7749 30.2783 33.7281 30.2314C33.6812 30.1845 33.6176 30.1582 33.5513 30.1582Z" fill="#C88972"/>
<path d="M29.541 30.7683C29.4845 30.7798 29.4337 30.8104 29.3972 30.8551C29.3608 30.8997 29.3408 30.9556 29.3408 31.0133C29.3408 31.071 29.3608 31.1269 29.3972 31.1715C29.4337 31.2162 29.4845 31.2468 29.541 31.2583C29.5976 31.2468 29.6484 31.2162 29.6849 31.1715C29.7214 31.1269 29.7413 31.071 29.7413 31.0133C29.7413 30.9556 29.7214 30.8997 29.6849 30.8551C29.6484 30.8104 29.5976 30.7798 29.541 30.7683Z" fill="#C88972"/>
<path d="M32.0113 31.8081C31.9547 31.8196 31.904 31.8502 31.8675 31.8949C31.831 31.9395 31.811 31.9954 31.811 32.0531C31.811 32.1108 31.831 32.1667 31.8675 32.2113C31.904 32.256 31.9547 32.2867 32.0113 32.2981C32.0678 32.2867 32.1186 32.256 32.1551 32.2113C32.1916 32.1667 32.2115 32.1108 32.2115 32.0531C32.2115 31.9954 32.1916 31.9395 32.1551 31.8949C32.1186 31.8502 32.0678 31.8196 32.0113 31.8081Z" fill="#C88972"/>
<path d="M17.0513 26.2083C17.0513 26.8989 16.8464 27.5741 16.4624 28.1483C16.0785 28.7224 15.5328 29.1697 14.8946 29.4336C14.2563 29.6974 13.554 29.766 12.8767 29.6305C12.1995 29.495 11.5776 29.1616 11.09 28.6725C10.6023 28.1834 10.2707 27.5606 10.1371 26.883C10.0036 26.2053 10.0741 25.5033 10.3398 24.8658C10.6055 24.2282 11.0544 23.6839 11.6296 23.3016C12.2049 22.9193 12.8806 22.7163 13.5713 22.7183C14.0292 22.7183 14.4825 22.8086 14.9054 22.9841C15.3282 23.1597 15.7123 23.4169 16.0356 23.7411C16.3589 24.0653 16.615 24.4501 16.7893 24.8735C16.9636 25.2968 17.0526 25.7504 17.0513 26.2083Z" fill="white"/>
<path d="M16.4314 26.2081C16.4079 26.6477 16.256 27.0707 15.9945 27.4248C15.733 27.7789 15.3734 28.0485 14.9601 28.2002C14.5469 28.352 14.0983 28.3792 13.6698 28.2785C13.2413 28.1777 12.8517 27.9536 12.5494 27.6336C12.247 27.3137 12.0451 26.9122 11.9687 26.4787C11.8923 26.0452 11.9448 25.5988 12.1195 25.1948C12.2943 24.7908 12.5838 24.4469 12.952 24.2058C13.3203 23.9647 13.7512 23.8368 14.1914 23.8381C14.4943 23.8459 14.7927 23.9135 15.0695 24.0369C15.3462 24.1604 15.5958 24.3373 15.804 24.5575C16.0121 24.7778 16.1747 25.037 16.2824 25.3202C16.3901 25.6035 16.4407 25.9052 16.4314 26.2081Z" fill="#003D41"/>
<path d="M13.5711 29.6882C13.5711 29.6882 13.3911 29.6882 13.0911 29.7382C12.9064 29.7771 12.7157 29.7771 12.5311 29.7382C12.2785 29.7114 12.032 29.6439 11.8011 29.5382C11.6641 29.4866 11.5305 29.4265 11.4011 29.3582C11.2665 29.2751 11.1363 29.1849 11.011 29.0882C10.7293 28.8865 10.4827 28.6399 10.2811 28.3582C10.0644 28.0523 9.89583 27.7151 9.78107 27.3582C9.66449 26.9887 9.59723 26.6054 9.58105 26.2182C9.59805 25.8377 9.66532 25.4611 9.78107 25.0982C9.89258 24.7401 10.0614 24.4023 10.2811 24.0982C10.4827 23.8165 10.7293 23.5699 11.011 23.3682L11.3911 23.0982C11.5311 23.0182 11.6711 22.9782 11.8011 22.9182C12.0294 22.8169 12.2725 22.7527 12.5211 22.7282C12.7096 22.6948 12.9025 22.6948 13.0911 22.7282C13.4011 22.7282 13.5711 22.7282 13.5711 22.7282L13.1111 22.8782C12.9426 22.9176 12.7809 22.9816 12.6311 23.0682C12.4317 23.1593 12.2438 23.2734 12.0711 23.4082C11.8603 23.5458 11.6687 23.7105 11.5011 23.8982C11.322 24.1037 11.1614 24.3246 11.0211 24.5582C10.891 24.8021 10.7903 25.0606 10.7211 25.3282C10.6325 25.6168 10.5854 25.9164 10.5811 26.2182C10.5886 26.5092 10.6322 26.7981 10.7111 27.0782C10.7829 27.3561 10.887 27.6245 11.0211 27.8782C11.159 28.1104 11.3198 28.3281 11.5011 28.5282C11.6687 28.7159 11.8603 28.8807 12.0711 29.0182C12.2394 29.1543 12.4241 29.2685 12.6211 29.3582C12.7748 29.4463 12.9396 29.5136 13.1111 29.5582L13.5711 29.6882Z" fill="#E89D7F"/>
<path d="M27.4312 26.2083C27.4312 26.8989 27.6361 27.5741 28.02 28.1483C28.404 28.7224 28.9496 29.1697 29.5879 29.4336C30.2262 29.6974 30.9285 29.766 31.6057 29.6305C32.283 29.495 32.9048 29.1616 33.3925 28.6725C33.8802 28.1834 34.2118 27.5606 34.3453 26.883C34.4789 26.2053 34.4083 25.5033 34.1426 24.8658C33.8769 24.2282 33.4281 23.6839 32.8528 23.3016C32.2776 22.9193 31.6019 22.7163 30.9112 22.7183C30.4533 22.7183 30 22.8086 29.5771 22.9841C29.1542 23.1597 28.7702 23.4169 28.4469 23.7411C28.1236 24.0653 27.8675 24.4501 27.6932 24.8735C27.5189 25.2968 27.4299 25.7504 27.4312 26.2083Z" fill="white"/>
<path d="M28.0413 26.2081C28.0648 26.6473 28.2164 27.0699 28.4775 27.4238C28.7385 27.7777 29.0976 28.0473 29.5102 28.1994C29.9228 28.3514 30.371 28.3792 30.7993 28.2793C31.2275 28.1794 31.6171 27.9562 31.9199 27.6373C32.2227 27.3184 32.4254 26.9177 32.5029 26.4848C32.5804 26.052 32.5294 25.6058 32.3561 25.2017C32.1829 24.7975 31.895 24.4529 31.528 24.2106C31.161 23.9682 30.7311 23.8388 30.2913 23.8381C29.9879 23.8459 29.6891 23.9134 29.4118 24.0367C29.1345 24.1601 28.8842 24.3369 28.6753 24.5569C28.4663 24.777 28.3028 25.0361 28.194 25.3195C28.0852 25.6028 28.0333 25.9048 28.0413 26.2081Z" fill="#003D41"/>
<path d="M30.8711 29.6883L31.3311 29.5483C31.5026 29.5036 31.6674 29.4364 31.8211 29.3483C32.0213 29.2588 32.2094 29.1446 32.3811 29.0083C32.5887 28.8705 32.777 28.7057 32.9411 28.5183C33.1256 28.3185 33.2898 28.1007 33.4311 27.8683C33.561 27.6127 33.6648 27.3447 33.7411 27.0683C33.8166 26.7877 33.8569 26.4988 33.8611 26.2083C33.855 25.9073 33.8113 25.6084 33.7311 25.3183C33.6582 25.0504 33.5542 24.792 33.4211 24.5483C33.284 24.3125 33.1232 24.0914 32.9411 23.8883C32.777 23.7009 32.5887 23.5361 32.3811 23.3983C32.2035 23.2653 32.0125 23.1514 31.8111 23.0583C31.6613 22.9717 31.4996 22.9077 31.3311 22.8683L30.8711 22.7183C31.0343 22.7101 31.1979 22.7101 31.3611 22.7183C31.5462 22.6847 31.7359 22.6847 31.9211 22.7183C32.1729 22.7426 32.4194 22.8067 32.6511 22.9083C32.7711 22.9683 32.9211 23.0083 33.0511 23.0883L33.4411 23.3583C33.7173 23.563 33.9602 23.8092 34.1611 24.0883C34.3841 24.3918 34.5563 24.7295 34.6711 25.0883C34.7787 25.4527 34.8425 25.8287 34.8611 26.2083C34.8449 26.5954 34.7777 26.9788 34.6611 27.3483C34.5504 27.7068 34.3815 28.0446 34.1611 28.3483C33.9594 28.63 33.7128 28.8766 33.4311 29.0783L33.0511 29.3483C32.9211 29.4283 32.7711 29.4683 32.6511 29.5283C32.4167 29.634 32.1669 29.7015 31.9111 29.7283C31.7265 29.7674 31.5357 29.7674 31.3511 29.7283C31.0511 29.7183 30.8711 29.6883 30.8711 29.6883Z" fill="#E89D7F"/>
<path d="M38.5409 20.7781C39.4809 20.8381 39.9709 22.0581 40.5409 22.7781C41.0444 23.6092 41.4888 24.4747 41.8709 25.3681C42.4336 25.3352 42.9877 25.5175 43.4209 25.8781C43.4533 25.3614 43.5168 24.8472 43.6109 24.3381C43.6866 23.0059 43.6866 21.6704 43.6109 20.3381C43.4609 16.7281 43.0309 12.9581 41.0509 9.84812C39.1388 6.79972 36.473 4.29581 33.3109 2.57814C30.4707 1.09384 27.3495 0.224928 24.1509 0.0281169C21.7282 -0.0688855 19.3019 0.0852615 16.9109 0.488108C16.9109 0.488108 -2.21908 3.27813 1.10092 25.7581C1.10092 25.7581 1.25091 25.3881 2.53091 25.3681C2.53091 25.3681 3.16089 23.1181 3.20089 22.9881C3.62379 21.5764 4.37407 20.2845 5.39062 19.2176C6.40718 18.1506 7.66129 17.3388 9.0509 16.8481C9.0509 16.8481 14.9709 14.8481 16.2709 12.4381C16.3109 12.4881 17.4809 19.5181 38.5409 20.7781Z" fill="#923D2E"/>
<path opacity="0.1" d="M33.4811 7.84821C30.4627 6.58847 27.1956 6.03767 23.9311 6.2382C31.7211 10.0382 32.4911 12.4282 32.4911 12.4282C29.7869 10.5535 26.7217 9.26281 23.4911 8.63822C24.4111 11.5582 29.4911 13.4882 29.4911 13.4882C22.2911 12.6282 21.0211 9.07822 21.0211 9.07822C19.6411 8.07822 19.1211 10.7882 19.1211 10.7882C19.173 10.0814 19.0097 9.37548 18.6527 8.76325C18.2957 8.15103 17.7618 7.6612 17.1211 7.35822L17.7611 2.00822C17.7611 2.00822 29.3511 0.798212 33.4811 7.84821Z" fill="white"/>
<path opacity="0.1" d="M8.7113 11.2381C9.97998 9.75514 11.4874 8.49449 13.1713 7.50809C9.4913 8.60809 5.59131 12.0081 5.59131 12.0081C6.92844 9.58277 8.80716 7.49871 11.0813 5.91809C9.17217 6.40589 7.41764 7.36915 5.98129 8.71808C11.4113 2.24808 17.1613 2.02808 17.1613 2.02808L16.2313 10.6281C16.2313 10.6281 15.1713 8.24807 8.7113 11.2381Z" fill="white"/>
<path opacity="0.1" d="M31.5312 15.088C31.5312 15.088 40.2213 18.028 41.5312 21.778C41.0326 20.1661 40.2279 18.6654 39.1613 17.3581C39.1613 17.3581 41.9113 17.838 42.6013 20.118C42.6013 20.118 42.9512 14.6581 33.4912 12.0081C33.4912 12.0081 37.0512 14.098 38.1812 16.558C38.2212 16.558 34.8512 14.178 31.5312 15.088Z" fill="white"/>
<path opacity="0.1" d="M11.431 13.0982C11.431 13.0982 3.43097 17.5282 2.73097 21.4582C2.9414 19.7845 3.46738 18.1659 4.28099 16.6882C4.28099 16.6882 1.66097 17.6882 1.39097 20.0182C1.39097 20.0182 0.0709729 14.6982 8.92097 10.4182C8.92097 10.4182 5.79098 13.0982 5.11098 15.7282C5.13098 15.7282 8.03098 12.7882 11.431 13.0982Z" fill="white"/>
<g style="mix-blend-mode:soft-light" opacity="0.2">
<path d="M30.431 39.8881C22.171 46.2981 39.311 56.7781 43.631 47.3781C45.021 44.3781 41.961 40.5781 39.131 39.5281C37.441 38.9081 33.131 38.2281 31.531 39.1581C31.1479 39.3758 30.7803 39.6197 30.431 39.8881Z" fill="white"/>
</g>
<path d="M36.541 40.0682C38.091 40.3282 39.231 41.2882 39.071 42.2082C38.911 43.1282 37.541 43.6782 35.981 43.4182C34.421 43.1582 33.301 42.1982 33.451 41.2682C33.601 40.3382 34.991 39.8082 36.541 40.0682Z" fill="white"/>
<g opacity="0.85">
<path d="M11.633 58.1296C11.4919 57.8356 11.0022 57.5191 10.7432 57.6282C9.63977 55.3682 8.66261 53.3167 8.06463 51.9245C7.35217 50.2656 8.16982 50.0218 9.38401 48.7708C9.8534 48.2867 10.9923 47.2501 12.3884 46.0064C13.3665 46.0228 13.6867 45.4248 13.2946 45.2026C14.7227 43.9381 16.4209 42.4474 17.822 41.2255C18.8951 41.3183 19.2939 40.5482 18.7338 40.4412C20.0189 39.3222 20.7945 38.6501 21.1383 38.3456C22.0265 37.5623 22.7069 36.9494 23.8507 36.9207C24.2186 36.9124 25.3578 36.8597 27.5399 36.7523C27.3345 37.0912 27.7744 37.374 28.6611 36.7284C30.413 36.6405 32.3777 36.5121 34.118 36.4201C34.0209 36.8156 34.5998 37.0437 35.3418 36.3493C37.6039 36.2274 39.8387 36.108 40.2039 36.0719C41.3124 35.9609 41.8309 35.7771 42.5928 37.4161C42.8584 37.9885 43.8706 40.3286 45.1012 43.1972C44.641 43.6484 44.9884 44.4837 45.5939 44.3444C46.4544 46.3528 47.4475 48.675 48.286 50.637C47.7293 51.1071 48.2219 52.1025 48.8038 51.8476C49.8924 54.3986 50.6627 56.2035 50.8757 56.6996C51.5359 58.2368 51.6125 58.4151 50.8741 59.2528C50.6325 59.5274 49.358 60.911 47.7062 62.7003C47.3442 62.2915 46.5705 62.71 46.8444 63.634C45.5345 65.0519 44.0776 66.629 42.7424 68.0754C42.2739 67.5831 41.6903 68.0576 41.8673 69.024C40.204 70.826 38.8564 72.2912 38.4357 72.7635C37.6842 73.6054 37.1724 74.1289 35.5075 74.0212C34.8289 73.9772 32.9058 73.7685 30.5941 73.5084C30.0079 72.6698 29.3893 72.7998 29.5036 73.385C27.7515 73.1862 25.8641 72.9685 24.1688 72.7771C24.0215 72.2697 23.2686 71.9341 23.2695 72.6746C21.4145 72.4649 19.8924 72.2986 19.1996 72.2395C18.1707 72.1525 17.6214 71.704 17.3415 71.0523C16.9735 70.1955 16.0715 68.4161 14.8962 66.0528C15.5814 65.6356 15.0377 64.7066 14.2871 64.7761C13.3972 62.9902 12.3902 60.9712 11.4628 59.0898C11.9098 58.8547 11.7446 58.3599 11.6337 58.1279" fill="white"/>
<path d="M35.3875 36.9836C37.9061 36.8475 39.7158 36.7066 40.1352 36.7228C40.3501 36.7315 40.5602 36.9626 40.3558 37.1641C39.6168 37.8904 38.471 39.0161 37.1623 40.302C36.9419 40.5189 36.313 40.6202 36.0623 40.6135C35.4751 40.5966 33.4849 40.6441 31.6106 40.6313C31.4886 40.63 31.2913 40.3828 31.5284 40.1884C32.927 38.8766 33.9723 37.8901 34.5321 37.3616C34.6856 37.2158 35.2504 36.9902 35.3878 36.9827L35.3875 36.9836Z" fill="#006837"/>
<path d="M32.768 37.1251C33.1515 37.1136 33.2886 37.4001 33.1532 37.5303C32.4127 38.2431 31.4095 39.1436 30.1381 40.3585C29.9633 40.5254 29.4154 40.6689 29.177 40.6647C27.9283 40.6416 26.6708 40.6768 25.3999 40.6597C25.2088 40.657 25.1946 40.4216 25.3448 40.278C26.4636 39.2078 27.3637 38.3995 27.9318 37.8476C28.3139 37.5055 28.6808 37.314 28.8621 37.3054C30.1612 37.2418 31.3413 37.1679 32.7682 37.1257L32.768 37.1251Z" fill="#006837"/>
<path d="M26.584 37.4125C26.7718 37.4025 26.8754 37.642 26.7349 37.8082C26.074 38.4367 25.249 39.188 24.089 40.2858C23.9408 40.4257 23.5457 40.6668 23.2983 40.6664C21.9362 40.6652 20.795 40.6786 19.9077 40.6699C19.6971 40.6728 19.6879 40.4097 19.84 40.2738C21.0121 39.2223 21.8543 38.4947 21.9892 38.3584C22.6961 37.7003 23.0013 37.6348 23.607 37.5668C23.7735 37.5483 24.8543 37.5029 26.5846 37.4123L26.584 37.4125Z" fill="#006837"/>
<path d="M14.7407 44.8545C15.9087 43.8034 16.963 42.8625 18.0589 41.8755C18.2632 41.6917 18.5933 41.5048 18.75 41.5081C19.5352 41.524 20.7053 41.5088 22.2989 41.5376C22.477 41.5409 22.543 41.6948 22.3674 41.8613C21.2972 42.8754 20.2237 43.8704 19.1641 44.8615C18.937 45.0742 18.4146 45.2541 18.1657 45.255C16.7663 45.2593 15.7412 45.2617 14.8248 45.2774C14.6398 45.2806 14.5612 45.0156 14.7401 44.8547L14.7407 44.8545Z" fill="#006837"/>
<path d="M28.2147 41.5956C28.4618 41.5954 28.5325 41.88 28.3927 42.01C27.3356 42.9937 26.4084 43.8786 25.4076 44.8339C25.22 45.055 24.5552 45.2303 24.2377 45.2311C23.0268 45.2335 21.9379 45.2421 20.683 45.2507C20.4367 45.2526 20.4399 44.9066 20.6175 44.7413C21.6111 43.8153 22.636 42.8553 23.6052 41.9446C23.829 41.7341 24.216 41.5679 24.4756 41.5672C25.7 41.5633 26.9674 41.5953 28.2139 41.5953L28.2147 41.5956Z" fill="#006837"/>
<path d="M35.4564 41.9707C34.4346 42.9774 33.3823 44.0134 32.3908 44.9887C32.2348 45.1419 31.6115 45.1836 31.3638 45.184L29.9322 45.1873C29.4417 45.1734 28.3886 45.1963 27.008 45.1917C26.6883 45.1906 26.6196 44.7822 26.8731 44.5469C27.8335 43.6556 28.7557 42.7885 29.705 41.8991C29.8848 41.7307 30.4114 41.5639 30.6244 41.5649C32.8343 41.5749 34.6336 41.5479 35.2827 41.5679C35.478 41.5737 35.5986 41.8298 35.4557 41.9724" fill="#006837"/>
<path d="M29.8345 46.1847C30.0338 46.1916 30.2091 46.1919 30.372 46.1996C30.7695 46.2189 30.8392 46.5753 30.6739 46.7381C29.1231 48.2742 27.9645 49.4195 27.6402 49.7283C26.5843 50.7362 26.1855 50.8256 24.4177 50.7959C24.1142 50.7914 22.7544 50.7695 20.801 50.6974C20.7409 50.6956 20.5615 50.5524 20.6863 50.4302C21.1347 49.9911 21.0107 50.1151 21.4898 49.6635C22.0129 49.1697 23.1477 48.1004 24.698 46.6683C24.9259 46.4574 25.793 46.169 26.183 46.171C28.0025 46.1798 29.1644 46.1914 29.8339 46.185L29.8345 46.1847Z" fill="#006837"/>
<path d="M18.781 50.6542C17.3324 50.6033 16.4963 50.5754 14.9903 50.5223C14.8319 50.502 14.7292 50.2431 14.8244 50.1359C14.977 49.9997 14.5182 50.4079 14.8244 50.1359C15.3593 49.6597 17.0277 48.0504 18.7127 46.4912C18.9695 46.2537 19.3933 46.1734 19.7097 46.1717C21.1047 46.1637 21.9808 46.1942 23.3478 46.1933C23.7001 46.1931 23.768 46.3511 23.6664 46.4435C22.3049 47.6886 21.411 48.5838 20.9521 48.9822C20.5153 49.3612 20.1014 49.8215 19.665 50.1686C19.3495 50.4192 19.0676 50.6638 18.7815 50.6539L18.781 50.6542Z" fill="#006837"/>
<path d="M17.1214 46.0813C17.4514 46.0801 17.5425 46.3333 17.4196 46.4468C16.0446 47.7197 15.0539 48.6212 14.593 49.0741C14.146 49.5133 14.1758 49.5005 13.716 49.9098C13.4606 50.1374 13.0851 50.3927 12.86 50.3834C11.2725 50.318 10.2088 50.2981 9.33473 50.2625C9.07633 50.2068 9.10811 49.8747 9.23361 49.7508C9.35911 49.627 9.35989 49.6387 9.4337 49.559C9.6338 49.3671 11.0201 48.1452 12.8543 46.4894C13.028 46.3329 13.4909 46.0854 13.7875 46.0788C14.5772 46.0609 15.7018 46.0878 17.1222 46.0816L17.1214 46.0813Z" fill="#006837"/>
<path d="M33.6114 39.3549C33.5283 39.433 33.5831 39.5719 33.697 39.5724L34.1187 39.5742C34.1512 39.5744 34.1825 39.5616 34.2056 39.5397L34.7828 38.991C34.8093 38.9655 34.8451 38.9536 34.8813 38.9571L37.0716 39.0546C37.1083 39.0579 37.2642 39.0114 37.2904 38.9853L37.4655 38.8126C37.6424 38.6505 37.5204 38.4995 37.4137 38.4896L35.5682 38.4269C35.4629 38.417 35.4159 38.2896 35.4901 38.214L35.7652 37.932C35.8456 37.8494 35.7818 37.7108 35.6665 37.7187L35.3758 37.739C35.3469 37.7408 35.3197 37.7532 35.2983 37.7723L33.6117 39.3541L33.6114 39.3549Z" fill="white"/>
<path fill-rule="evenodd" clip-rule="evenodd" d="M29.2367 43.3666C29.1562 43.3271 29.1392 43.2185 29.2044 43.1566L29.6862 42.6947C29.7087 42.6731 29.7385 42.6603 29.7697 42.6589L33.3835 42.491C33.5027 42.4857 33.5653 42.6298 33.4805 42.7135L33.2212 42.9682C33.1978 42.991 33.1668 43.0043 33.1342 43.0056L31.8037 43.0453C31.7681 43.0464 31.7353 43.0619 31.7117 43.0876L31.2996 43.5407C31.2397 43.6067 31.2623 43.7121 31.3446 43.7474L31.938 44.001C32.0228 44.0374 32.044 44.1476 31.9787 44.2124L31.7075 44.4821C31.6686 44.5215 31.6084 44.531 31.5584 44.5066L29.2372 43.3678L29.2367 43.3666ZM30.6889 43.4951C30.7393 43.5222 30.8018 43.513 30.8422 43.4723L31.0817 43.2324C31.1642 43.1497 31.1043 43.0087 30.9867 43.0112L30.3252 43.0249C30.1916 43.0279 30.1487 43.2059 30.2668 43.2689L30.6895 43.4948L30.6889 43.4951Z" fill="white"/>
<path d="M26.9696 47.2983C26.9956 47.2701 27.0332 47.254 27.0715 47.2545C27.9201 47.2799 28.3725 47.789 27.2166 48.842C26.0334 49.9201 25.2584 49.6647 24.3366 49.5987C23.4148 49.5327 23.4582 48.7407 24.0924 48.0057C24.6448 47.3645 25.3963 47.0622 26.0968 47.0685C26.216 47.0696 26.2606 47.2129 26.1706 47.2911L25.8293 47.5867C25.7993 47.6123 25.7605 47.624 25.7209 47.6206C25.2646 47.5792 24.9392 47.7211 24.6528 48.0525C24.3536 48.3985 24.0931 48.9412 24.6578 48.9981C25.2225 49.055 25.979 49.1637 26.5979 48.6281C27.1069 48.187 27.2486 47.8642 26.891 47.7501C26.7771 47.7135 26.716 47.5696 26.7975 47.483L26.9698 47.2988L26.9696 47.2983Z" fill="white"/>
<path d="M30.565 37.8819C31.2297 37.9496 31.0173 38.6884 30.5191 39.1729C30.0209 39.6573 29.6562 39.8458 28.6791 39.8219C27.475 39.7924 27.4281 39.0781 27.9538 38.5443C28.5299 37.96 29.0356 37.8022 29.4598 37.8509C29.5511 37.8611 29.5882 37.9674 29.5328 38.0406L29.3694 38.257C29.347 38.2871 29.3119 38.3057 29.2742 38.3085C28.9424 38.3316 28.8186 38.3544 28.4516 38.7183C28.0633 39.1033 28.2626 39.3291 28.8165 39.3031C29.3703 39.2771 29.771 39.2414 30.1899 38.8192C30.5901 38.4156 30.481 38.252 30.1908 38.3032C30.1632 38.308 30.1388 38.3235 30.121 38.3445L29.9162 38.5864C29.8863 38.6219 29.8391 38.6386 29.7939 38.6305L29.7217 38.617C29.6288 38.5997 29.5848 38.4922 29.6393 38.4151L29.9524 37.9685C29.9721 37.9402 30.0019 37.921 30.0363 37.9155C30.1463 37.8986 30.402 37.8643 30.5653 37.8811L30.565 37.8819Z" fill="white"/>
<path d="M22.9544 39.8951C23.4971 39.876 23.8128 39.7114 24.3241 39.1309C24.835 38.5513 24.5713 38.0226 23.7471 38.0623C23.1854 38.0895 22.6135 38.3564 22.0502 38.9655C21.4872 39.5753 21.9039 39.8646 22.9542 39.8945L22.9544 39.8951ZM23.3835 38.4374C23.8922 38.4279 24.3951 38.5531 23.9897 38.9511C23.585 39.3488 23.2909 39.4122 23.0187 39.4281C22.6011 39.4309 22.1582 39.3535 22.5036 38.9721C22.8484 38.5909 23.0886 38.4595 23.3835 38.4374Z" fill="white"/>
<path d="M19.1583 44.044C18.9826 44.171 18.8621 44.2587 18.8371 44.2596L16.9309 44.3798C16.9053 44.3809 16.5296 44.3975 16.5296 44.3975C16.1823 44.2564 16.6194 43.9422 16.6202 43.9193L17.1852 43.4443C17.5134 43.1741 17.7723 42.9103 18.0627 42.7312C18.3524 42.5524 18.744 42.3772 19.062 42.302C19.38 42.2269 20.0161 42.287 20.2292 42.6779C20.5224 43.2144 19.1592 44.0443 19.1592 44.0443L19.1583 44.044ZM18.7885 43.719L19.1127 43.4428C19.3074 43.2482 19.3751 43.1429 19.3786 43.0425C19.3858 42.8487 19.276 42.6918 19.0284 42.6809C18.717 42.6663 18.6675 42.7335 18.4089 42.8368C18.1509 42.9398 17.8918 43.1917 17.5978 43.4987L17.3631 43.7909L18.7885 43.719Z" fill="white"/>
<path d="M24.9516 44.2395C24.94 44.2501 24.9242 44.2562 24.9085 44.2559L22.171 44.2458C22.1108 44.2455 22.0832 44.1712 22.1291 44.1318L22.5558 43.762C22.5616 43.7574 22.5676 43.7534 22.5748 43.7504L24.8107 42.8819C24.8779 42.8558 24.859 42.7559 24.7871 42.7564L23.8823 42.7594C23.8244 42.7595 23.7953 42.6901 23.8349 42.6491L24.1251 42.3528C24.1368 42.3407 24.1529 42.3338 24.1698 42.3336L26.9963 42.268C27.0577 42.2663 27.0869 42.3442 27.0387 42.3833L26.6448 42.7043C26.639 42.7089 26.6327 42.7123 26.6256 42.7154L24.0405 43.6392C23.9725 43.6635 23.9891 43.7644 24.062 43.7649L25.3012 43.7757C25.3608 43.7763 25.3882 43.85 25.3435 43.889L24.9511 44.2383L24.9516 44.2395Z" fill="white"/>
<path d="M19.4031 49.4633C19.4398 49.4666 19.5503 49.4869 19.5768 49.4614L21.3967 47.6903C21.5828 47.4839 21.3469 47.4115 21.2246 47.4047L21.095 47.4187C21.0617 47.4168 20.9618 47.4851 20.937 47.5078L19.6019 48.6978C19.5728 48.7237 19.4837 48.8566 19.1727 48.8397C18.7505 48.8169 19.1747 48.4299 19.2594 48.3526L20.0321 47.6422C20.1236 47.5577 20.0771 47.4117 19.9515 47.407L19.6965 47.3986C19.662 47.3972 19.6418 47.4291 19.6177 47.4536L18.4609 48.5917C18.2408 48.783 18.2387 48.834 17.9582 48.8239C17.4482 48.8056 17.9621 48.4366 18.0544 48.3489L18.8743 47.5709C18.9632 47.4868 18.9982 47.3333 18.8753 47.3268L18.632 47.3127C18.5978 47.3104 18.5648 47.3224 18.5396 47.346L16.7131 49.0443C16.6243 49.127 16.7054 49.3485 16.8271 49.3591L19.4025 49.4635L19.4031 49.4633Z" fill="white"/>
<path fill-rule="evenodd" clip-rule="evenodd" d="M12.392 47.4329C13.0236 46.8332 13.1325 46.7399 13.6412 46.7205C13.8845 46.7114 14.0902 46.878 14.1789 47.1436C14.2675 47.4092 14.0551 47.6777 13.9188 47.8189C13.6726 48.073 13.5682 48.1997 13.3273 48.4183C13.218 48.5486 13.2505 48.6688 13.3851 48.6746L13.8662 48.6947C13.9833 48.6994 14.0348 48.8454 13.9457 48.9225L13.6267 49.1994C13.6025 49.2204 13.5714 49.2316 13.5394 49.2312L11.0491 49.1835C10.9408 49.1813 10.833 49.0009 10.9018 48.9177C11.2005 48.5591 11.8643 47.9046 12.3925 47.4341L12.392 47.4329ZM11.7075 48.5787C11.6404 48.6527 11.5674 48.7328 11.6669 48.7275L12.3059 48.691C12.3225 48.6902 12.4478 48.6449 12.4631 48.6376C13.0168 48.2677 13.4068 47.8488 13.5126 47.7087C13.6197 47.5667 13.7416 47.2749 13.4682 47.1777C13.1942 47.0806 12.9077 47.3823 12.66 47.5834C12.3687 47.8194 11.9622 48.2574 11.7081 48.5784L11.7075 48.5787Z" fill="white"/>
<path d="M50.3611 56.7613C50.7213 57.577 50.6779 58.0844 50.0625 58.6955C49.8896 58.8686 49.0503 59.8019 47.7049 61.2639C47.309 61.5752 46.9512 61.5594 46.8213 61.262C46.4 60.2975 45.7595 58.8457 44.9592 57.0086C44.7435 56.5115 44.8073 55.8131 45.2217 55.3999C46.3363 54.2326 47.0767 53.4704 47.7411 52.7973C48.0364 52.4982 48.519 52.6419 48.6746 52.9974C49.5533 55.0072 50.1792 56.3493 50.3617 56.7611" fill="#FF0000"/>
<path d="M46.4536 62.1319C46.531 62.3946 46.3031 62.7764 46.1107 62.9862C44.9954 64.2011 43.8723 65.4441 42.7037 66.7109C42.4373 66.9998 42.0907 66.9953 41.9074 66.5931C41.4591 65.6119 40.815 64.0974 39.8913 61.9813C39.6872 61.5011 39.8433 60.9602 40.1626 60.6281C41.2517 59.4937 42.2254 58.5443 43.3204 57.3989C43.6391 57.0656 44.2436 57.0737 44.4247 57.4903C45.38 59.6818 46.0773 61.2674 46.4536 62.1319Z" fill="#FF0000"/>
<path d="M41.2964 67.3903C41.4821 67.8176 41.2018 68.2883 40.9532 68.5611C39.2734 70.4203 38.1673 71.6532 37.856 71.9381C37.3246 72.4241 36.7225 72.665 36.5842 72.343C36.085 71.2268 34.8814 68.4032 34.6133 67.7542C34.283 66.9588 34.7641 66.2176 35.1897 65.8123C35.53 65.4882 36.7412 64.2038 38.3083 62.5674C38.5809 62.2829 39.1141 62.3964 39.2317 62.6652C40.1403 64.7496 40.8608 66.3909 41.2964 67.3903Z" fill="#FF0000"/>
<path d="M47.6707 50.6593C47.8453 51.1479 47.7342 51.5487 47.5638 51.7257C46.9867 52.3274 45.9214 53.4022 44.5773 54.803C44.3582 54.9607 44.0648 54.9221 43.9599 54.6811C43.1703 52.869 42.3123 50.9782 41.5522 49.2396C41.4141 48.9182 41.3699 48.404 41.62 48.156C43.0662 46.7248 43.9647 45.8078 44.6283 45.1379C44.8254 44.9388 45.277 45.1764 45.3984 45.4541C46.156 47.1902 46.9415 48.9879 47.6707 50.6593Z" fill="#FF0000"/>
<path d="M43.2132 54.9168C43.4175 55.3926 43.2685 56.1968 42.9275 56.5537C41.834 57.6978 40.8041 58.7645 39.7071 59.9087C39.4389 60.1885 38.9286 59.9853 38.8215 59.6556C38.0805 57.9533 37.2966 56.2432 36.5659 54.5682C36.4327 54.2631 36.3101 53.5615 36.6303 53.2382C37.7671 52.0882 38.9451 50.8746 40.0933 49.7084C40.2901 49.5087 40.8288 49.533 40.9322 49.7704C41.6739 51.471 42.4453 53.1554 43.2132 54.9168Z" fill="#FF0000"/>
<path d="M38.2336 60.424C38.4124 60.8402 38.2455 61.3561 38.0506 61.5599C36.2803 63.4072 34.9346 64.8094 34.5774 65.1485C34.0828 65.4768 33.6448 65.5258 33.4407 65.0506C32.9694 63.9534 31.219 59.878 31.0531 59.4916C30.8871 59.1052 30.9657 58.9592 31.3556 58.5516C31.5262 58.3731 31.6928 58.197 31.8965 58.0021C32.2334 57.6816 33.3308 56.5796 34.9078 54.9827C35.2031 54.6836 35.7852 54.8877 35.9386 55.2448C36.6991 56.9861 37.4704 58.6733 38.2339 60.4246L38.2336 60.424Z" fill="#FF0000"/>
<path d="M44.397 43.2015C44.492 43.4178 44.4854 44.0421 44.2571 44.2751C43.6889 44.8546 42.6618 45.9017 41.4208 47.1643C41.2474 47.3411 40.7878 47.4516 40.6288 47.0814C39.6851 45.0487 39.0537 43.5606 38.8392 43.0792C38.5973 42.5341 38.1985 41.5874 38.1985 41.5874C38.0758 41.3017 37.8579 40.7993 38.0818 40.5774C39.4211 39.2493 40.466 38.275 41.1441 37.601C41.3554 37.3909 41.8598 37.4765 41.9917 37.7673C42.1263 38.0627 43.138 40.3211 44.3962 43.2011L44.397 43.2015Z" fill="#FF0000"/>
<path d="M40.1162 47.543C40.2898 47.9473 40.2232 48.5289 39.8578 48.8998C38.7647 50.0085 37.6078 51.1791 36.5117 52.2876C36.1621 52.6412 35.802 52.4604 35.6486 52.1032C34.6283 49.7687 33.8369 48.0265 33.6106 47.5192C33.5273 47.3303 33.4288 47.0993 33.3529 46.9193C33.1294 46.3875 33.0983 45.672 33.3712 45.4029C34.5278 44.2628 35.4757 43.3175 36.6431 42.1664C36.7689 42.0417 37.2158 41.8455 37.4364 41.9662C37.7315 42.1551 37.9215 42.5382 38.2329 43.2336C38.451 43.7233 39.1834 45.4039 40.1182 47.5443" fill="#FF0000"/>
<path d="M35.0238 53.115C35.0921 53.2707 35.0137 53.6653 34.818 53.8659C33.0575 55.6701 31.602 57.1011 31.2459 57.4426C30.9186 57.7576 30.3728 57.7893 30.2121 57.4974C30.0512 57.205 27.7349 51.7298 27.7349 51.7298C27.7349 51.7298 27.4527 51.0875 27.8046 50.7443C27.9393 50.6123 28.4199 50.1262 28.4199 50.1262C28.4199 50.1262 29.6482 48.8076 31.2793 47.2694C31.5052 47.0439 32.4212 47.2395 32.6626 47.7835C32.9113 48.3412 33.8559 50.4434 35.0235 53.1159L35.0238 53.115Z" fill="#FF0000"/>
<path d="M37.5431 70.5437C37.5795 70.6283 37.6899 70.6487 37.7544 70.5836L40.2098 68.0981C40.2481 68.0591 40.2582 68.0004 40.2349 67.951L39.9808 67.4203C39.9411 67.3378 39.8307 67.3209 39.7687 67.3885L38.2669 69.0159C38.2034 69.0849 38.0897 69.0652 38.0522 68.9796L37.7798 68.3487C37.7591 68.3004 37.7696 68.2443 37.8058 68.2069L39.309 66.6636C39.3467 66.6248 39.3568 66.566 39.3329 66.517L39.0526 65.9318C39.0132 65.8499 38.9034 65.8327 38.8409 65.8992L37.524 67.301C37.4602 67.3693 37.3471 67.3494 37.3102 67.2636L37.0537 66.6696C37.0337 66.6231 37.0427 66.5684 37.0768 66.5311L38.6859 64.7623C38.7204 64.7241 38.7291 64.6703 38.7088 64.6232L38.4999 64.1401C38.4631 64.0543 38.3502 64.0349 38.2861 64.1027L35.9273 66.6089C35.8919 66.6466 35.8823 66.7016 35.9028 66.7493L37.543 70.5451L37.5431 70.5437Z" fill="white"/>
<path d="M41.1676 61.2598C41.1246 61.3044 41.0726 61.3924 41.086 61.453C41.1166 61.5917 42.4052 64.4785 42.7369 65.2195C42.7742 65.3031 42.8833 65.3219 42.9472 65.257L43.412 64.7869C43.4488 64.7492 43.4599 64.6929 43.4392 64.6446L42.4639 62.374C42.4158 62.2619 42.5344 62.1517 42.6431 62.2074L43.5954 62.6996C43.6845 62.746 43.7905 62.6772 43.7842 62.5768L43.7163 61.3926C43.7078 61.2479 43.9077 61.2002 43.965 61.3338L44.7149 63.0797C44.7518 63.1655 44.8648 63.1855 44.9287 63.1171L45.3828 62.6303C45.4182 62.5926 45.4277 62.5376 45.4075 62.4905L43.8033 58.7555C43.7665 58.6696 43.6534 58.6497 43.5895 58.7181L43.1081 59.2335C43.0883 59.2547 43.0756 59.2827 43.0734 59.312L42.9378 61.0666C42.9305 61.1581 42.8336 61.2138 42.7511 61.1729L41.8203 60.716C41.77 60.691 41.709 60.7017 41.6697 60.7419L41.1667 61.2595L41.1676 61.2598Z" fill="white"/>
<path fill-rule="evenodd" clip-rule="evenodd" d="M38.8434 52.9704C38.837 52.9308 38.8498 52.8899 38.8777 52.861L39.5317 52.1754C39.5862 52.1181 39.6787 52.1229 39.7277 52.1845L42.2634 55.4064C42.3027 55.4566 42.3 55.5277 42.2572 55.5744L41.9107 55.9534C41.857 56.0125 41.763 56.0091 41.7135 55.9463L41.1173 55.1945C41.065 55.1287 40.9656 55.129 40.9141 55.1949L40.2394 56.0497C40.2165 56.0786 40.2071 56.1158 40.2134 56.152L40.4407 57.4852C40.4479 57.5266 40.4341 57.5686 40.4048 57.5988L39.8515 58.1557C39.7765 58.231 39.6475 58.1889 39.6313 58.0836L38.8449 52.9705L38.8434 52.9704ZM39.9368 54.9275C39.951 55.0393 40.0919 55.0812 40.1649 54.9948L40.4893 54.6104C40.5286 54.5638 40.5299 54.4962 40.4929 54.4478L40.0433 53.8598C39.9628 53.7545 39.7945 53.8233 39.8116 53.9551L39.9368 54.9275Z" fill="white"/>
<path d="M36.6356 59.504C37.2469 60.9273 36.765 61.2819 35.8138 62.3148C34.8628 63.3483 33.9129 62.5344 33.2635 61.0223C32.614 59.5101 32.9502 58.7308 33.9954 57.688C34.7291 56.9561 35.6656 57.3689 36.0611 58.173C36.0855 58.2232 36.0719 58.2835 36.0299 58.3206L35.3756 58.8954C35.3094 58.9535 35.2067 58.9298 35.1713 58.849C35.0207 58.5033 34.8678 58.2822 34.3143 58.7446C33.6764 59.277 33.8454 59.9354 34.1489 60.642C34.4524 61.3485 34.9458 61.8132 35.4465 61.4597C35.8903 61.1462 35.9506 60.6881 35.8285 60.2031C35.8058 60.1125 35.6959 60.0835 35.6263 60.1451L35.2956 60.439C35.2297 60.4977 35.1252 60.4748 35.0901 60.3931L34.8932 59.9346C34.8706 59.8821 34.8849 59.8216 34.9283 59.7846L36.1376 58.7539C36.2027 58.6984 36.3012 58.7203 36.3347 58.7985C36.4072 58.9672 36.5196 59.2339 36.6354 59.5034L36.6356 59.504Z" fill="white"/>
<path d="M49.2616 56.5837C49.6397 57.6466 49.5717 58.1936 48.6788 59.0827C47.7859 59.9719 47.0184 59.1715 46.5188 57.7617C46.1286 56.6609 46.197 55.9436 47.0705 55.0175C47.944 54.0915 48.7492 55.144 49.2616 56.5837ZM47.3837 57.7596C47.6176 58.304 47.9017 58.8833 48.4194 58.3226C48.9371 57.762 48.592 56.9158 48.3582 56.3714C48.1244 55.827 47.895 55.1811 47.348 55.7459C46.801 56.3106 47.1502 57.2158 47.3837 57.7596Z" fill="white"/>
<path d="M43.4561 48.3711C43.4213 48.29 43.328 48.2651 43.2775 48.3235L42.8178 48.855C42.7889 48.8879 42.7836 48.9396 42.8033 48.9855C42.8033 48.9855 44.3391 53.0564 44.5841 53.0875C44.8283 53.1182 45.2328 52.6048 45.2328 52.6048L46.8606 50.9091C46.8887 50.8759 46.8943 50.8247 46.8745 50.7788L46.6254 50.1987C46.5905 50.1176 46.4964 50.0923 46.4461 50.1513L44.9963 51.5855C44.9461 51.6445 44.8522 51.6199 44.8171 51.5382L43.4567 48.3708L43.4561 48.3711Z" fill="white"/>
<path d="M40.0812 40.7855C40.0451 40.7015 39.9514 40.6739 39.902 40.7333L39.4532 41.2735C39.4253 41.3074 39.4205 41.3603 39.441 41.408C39.441 41.408 41.0463 45.634 41.2902 45.6706C41.5346 45.7069 41.9288 45.1844 41.9288 45.1844L43.522 43.464C43.5493 43.4305 43.5541 43.3775 43.5336 43.3298L43.2747 42.727C43.2383 42.6423 43.144 42.6151 43.0948 42.675L41.6738 44.1286C41.6247 44.1885 41.5304 44.1613 41.494 44.0766L40.0804 40.7852L40.0812 40.7855Z" fill="white"/>
<path d="M36.3513 50.5064C36.3897 50.5909 36.5014 50.6093 36.5647 50.5411L38.9064 48.0296C38.9423 47.9916 38.9514 47.9354 38.9295 47.8877L38.6606 47.2912C38.6222 47.2067 38.5105 47.1883 38.4472 47.2565L36.9789 48.8384C36.9157 48.9066 36.804 48.8881 36.7655 48.8036L36.4745 48.1588C36.4531 48.1108 36.4628 48.0544 36.4985 48.0158L37.98 46.4613C38.0165 46.423 38.0262 46.3666 38.004 46.3182L37.7086 45.6633C37.6704 45.5794 37.5599 45.5605 37.4967 45.6272L36.1604 47.0296C36.0972 47.0962 35.9861 47.0776 35.9485 46.9934L35.6129 46.2498C35.591 46.2006 35.6014 46.1424 35.6396 46.1048L37.3338 44.4125C37.3718 44.3742 37.3824 44.3167 37.3605 44.2675L37.1509 43.8024C37.1132 43.7197 37.0045 43.7 36.9403 43.7643L34.5061 46.2117C34.4681 46.2499 34.4575 46.3075 34.4799 46.3564L36.3514 50.5049L36.3513 50.5064Z" fill="white"/>
<path d="M29.203 51.5362C29.1823 51.4879 29.1928 51.4318 29.2296 51.3941L29.8355 50.7758C29.9004 50.7098 30.0111 50.7308 30.0475 50.8154L30.6564 52.2334C30.6936 52.3198 30.807 52.3389 30.8709 52.2705L31.8372 51.2283C31.8719 51.1908 31.8815 51.1358 31.8613 51.0887L31.1931 49.5331C31.1729 49.486 31.1819 49.4313 31.2172 49.3935L31.8019 48.7603C31.8655 48.6913 31.9792 48.711 32.0169 48.7972L33.8547 53.0661C33.8749 53.1132 33.8659 53.1679 33.8306 53.2057L33.2464 53.8386C33.1828 53.9076 33.0692 53.8879 33.032 53.8015L32.4141 52.3627C32.3769 52.2762 32.2633 52.2566 32.1997 52.3255L31.2339 53.3675C31.1992 53.405 31.1896 53.46 31.2099 53.5071L31.9179 55.1557C31.9387 55.204 31.9282 55.2601 31.8914 55.2978L31.2848 55.9164C31.22 55.9824 31.1093 55.9614 31.0729 55.8767L29.2042 51.5357L29.203 51.5362Z" fill="white"/>
<path d="M35.7664 72.6169C35.9299 72.981 35.6363 73.3812 35.3463 73.3637C35.0435 73.3165 33.1294 73.1089 30.5968 72.8195C30.3741 72.7943 30.1722 72.5413 30.021 72.2172C29.5999 71.3174 28.7548 69.6061 27.801 67.5417C27.6784 67.2759 27.8127 66.829 28.0848 66.8887C29.7962 67.0288 30.9841 67.1422 31.2705 67.1463L32.8294 67.2586C33.2529 67.2893 33.5936 67.5646 33.6863 67.7755C34.2039 68.9459 35.6279 72.3091 35.7658 72.6172L35.7664 72.6169Z" fill="#F7931E"/>
<path d="M28.3878 72.6076C27.0059 72.4468 25.6107 72.2932 24.3439 72.1522C23.973 72.1109 23.4657 71.7158 23.2859 71.3332C22.8779 70.4639 22.2404 69.0307 21.3586 67.1748C21.163 66.7638 21.2975 66.3748 21.6645 66.4071C23.0751 66.5308 24.3552 66.6174 25.7118 66.7339C26.1248 66.7465 26.643 67.1687 26.7791 67.4641C27.6592 69.3751 28.453 70.939 28.9199 71.9553C29.0335 72.2017 28.6483 72.6384 28.3881 72.6082L28.3878 72.6076Z" fill="#F7931E"/>
<path d="M16.4008 65.9774C17.1754 66.0395 17.9988 66.1019 19.2367 66.2016C19.5813 66.2295 20.2081 66.4391 20.409 66.8592C21.2187 68.5553 21.8941 70.0062 22.3706 71.012C22.52 71.3271 22.2579 71.8416 22.0422 71.8212C21.3379 71.755 22.0455 71.8205 20.4015 71.6466C18.2468 71.5169 18.0701 70.9345 17.83 70.4642C17.7554 70.3168 17.1122 68.9623 16.0298 66.7696C15.8576 66.4212 16.0328 65.9476 16.4014 65.9772L16.4008 65.9774Z" fill="#F7931E"/>
<path d="M25.747 65.2253C25.8688 65.4908 25.6582 65.8638 25.4121 65.8416C24.0375 65.7194 22.3257 65.6128 20.9434 65.4875C21.0255 65.4946 20.8613 65.479 20.9434 65.4875C20.727 65.4689 20.4701 65.2621 20.3483 65.0015C19.4867 63.1681 18.6764 61.5181 17.853 59.6718C17.6777 59.2456 18.0161 58.8658 18.2455 58.8788C19.5674 58.9587 20.8338 59.0067 22.1259 59.0831C22.745 59.135 23.0869 59.6238 23.2093 59.889C24.0152 61.637 24.9208 63.4282 25.7468 65.2247L25.747 65.2253Z" fill="#F7931E"/>
<path d="M19.0444 65.335C17.429 65.1997 16.3937 65.1274 15.6643 65.0868C15.2611 64.9767 15.0663 64.7419 14.9655 64.5366C14.1048 62.7811 13.2795 60.9335 12.392 59.1253C12.2774 58.8913 12.3423 58.5541 12.5425 58.5648C13.3734 58.6098 14.5317 58.6463 15.9549 58.7236C16.3385 58.7058 16.729 59.0691 16.867 59.3559C16.957 59.544 17.0058 59.6494 17.0979 59.8408C17.8703 61.4633 18.5714 63.0069 19.3623 64.6674C19.5162 64.9911 19.2513 65.3528 19.0444 65.335Z" fill="#F7931E"/>
<path d="M26.6864 65.2724C25.853 63.4635 24.9791 61.6622 24.1547 59.8742C24.0186 59.5788 24.3075 59.1991 24.5443 59.2111C26.3754 59.306 27.7718 59.3935 28.0673 59.3972C28.8678 59.4425 28.5039 59.4223 29.3769 59.4718C29.7275 59.4921 30.1678 59.5785 30.3071 59.9028C30.8462 61.158 32.819 65.8336 32.8875 65.9108C32.9558 65.9874 32.8101 66.2272 32.5705 66.3302C32.2371 66.4733 31.9537 66.3825 31.3717 66.3493C31.0731 66.3447 29.6172 66.191 27.6841 66.0347C27.3195 66.0048 26.824 65.5961 26.6852 65.2729L26.6864 65.2724Z" fill="#F7931E"/>
<path d="M27.065 52.3753C27.6394 53.7127 29.1073 57.0599 29.3114 57.6057C29.5155 58.1516 29.109 58.5289 27.6928 58.5121C27.3834 58.5087 26.1878 58.4579 24.1353 58.3507C23.6664 58.3261 23.288 58.0189 23.1189 57.6254C21.8944 54.9682 20.9332 53.0017 20.7782 52.6671C20.7289 52.5605 20.638 52.3374 20.592 52.2336C20.4347 51.8788 20.9697 51.5361 21.2122 51.5449C22.8589 51.6018 24.0461 51.6477 24.3232 51.6516C24.9384 51.66 25.2795 51.6632 25.8575 51.6968C26.4515 51.7312 26.8514 51.878 27.0647 52.3747L27.065 52.3753Z" fill="#F7931E"/>
<path d="M22.0683 57.4823C22.2039 57.7765 21.967 58.2313 21.6046 58.2097C20.1943 58.1261 19.0774 58.0825 17.6689 57.9981C17.0895 57.9631 16.7686 57.4363 16.6433 57.1709C15.5714 54.9185 14.7444 53.1606 14.523 52.7274C14.3442 52.3112 14.1482 51.9371 14.1611 51.7204C14.174 51.5037 14.407 51.3506 14.5459 51.3566C16.0191 51.4174 17.2183 51.4257 18.6455 51.4844C18.9224 51.4714 19.3135 51.7258 19.6287 52.2953C19.7621 52.6059 19.9409 52.9613 20.0672 53.2341C20.2135 53.5484 20.9545 55.0664 22.0683 57.4823Z" fill="#F7931E"/>
<path d="M15.3402 57.8638C13.7466 57.7777 12.8343 57.755 12.1461 57.7165C11.9325 57.7059 11.5366 57.4797 11.3631 57.1121C10.2148 54.6948 9.22474 52.6594 8.82102 51.7967C8.66944 51.4734 8.87548 51.149 9.07973 51.1559C9.91838 51.1863 10.9885 51.2048 12.5397 51.2597C12.6944 51.2646 13.0601 51.3942 13.2567 51.7696C13.4748 52.2776 13.6882 52.7234 13.877 53.1318C14.0266 53.4538 14.8296 55.1769 15.8814 57.3842C16.0094 57.6823 15.5459 57.8461 15.3402 57.8638Z" fill="#F7931E"/>
<path d="M30.6956 71.9262C30.715 71.968 30.7547 71.9962 30.8006 72.0012L34.0247 72.3334C34.1229 72.3434 34.1961 72.2442 34.1569 72.153L33.9285 71.6211C33.9098 71.5776 33.8688 71.5479 33.8223 71.5431L31.506 71.3119C31.4595 71.3071 31.4185 71.2774 31.4 71.2345L31.155 70.6674C31.1166 70.5779 31.1866 70.4794 31.2836 70.4865L32.9586 70.611C33.0556 70.6181 33.1258 70.5201 33.0874 70.4307L32.8666 69.9167C32.8474 69.872 32.8047 69.8416 32.7561 69.8385L30.8296 69.7089C30.7809 69.7058 30.7373 69.6751 30.7185 69.6295L30.5167 69.1483C30.4789 69.0586 30.55 68.961 30.6472 68.9687L32.6459 69.133C32.7425 69.1409 32.8136 69.0433 32.7763 68.9533L32.5588 68.4337C32.5396 68.389 32.4983 68.3587 32.45 68.3547L29.1473 68.0761C29.0483 68.0678 28.9768 68.1691 29.0183 68.2593L30.695 71.9264L30.6956 71.9262Z" fill="white"/>
<path d="M25.1475 67.9829C25.1411 67.9023 25.2086 67.8358 25.2887 67.8431L25.8372 67.895C25.899 67.9009 25.9482 67.9497 25.9545 68.012L26.2811 71.4397C26.2894 71.523 26.2174 71.5921 26.1346 71.5803L25.2287 71.4574C25.1926 71.4524 25.16 71.4325 25.1394 71.4025L22.6176 67.7508C22.5557 67.6609 22.6252 67.5399 22.7337 67.5477L23.3856 67.5954C23.425 67.5983 23.4607 67.619 23.4832 67.6517L25.0663 69.9628C25.1416 70.0724 25.3134 70.012 25.3028 69.8788L25.1481 67.9826L25.1475 67.9829Z" fill="white"/>
<path d="M18.0947 69.5571C18.5746 70.474 18.9488 70.7829 19.9395 70.7988C20.9296 70.815 20.8036 69.8245 20.166 68.6096C19.6681 67.6609 19.1871 67.2432 18.1832 67.1913C17.1794 67.14 17.4447 68.315 18.0947 69.5571ZM19.743 69.1458C19.9693 69.6398 20.1929 70.1885 19.5908 70.1498C18.9887 70.1111 18.6283 69.3541 18.402 68.8601C18.1757 68.3662 17.884 67.8086 18.5033 67.8314C19.1226 67.8543 19.5173 68.6516 19.7436 69.1456L19.743 69.1458Z" fill="white"/>
<path d="M14.499 60.2492C14.4598 60.1728 14.371 59.9511 14.2559 59.9299C14.2559 59.9299 13.7105 59.811 13.5614 59.875C13.4875 59.9068 13.5266 60.0489 13.5488 60.0923C13.5488 60.0923 15.3205 63.9757 15.5649 63.9873C15.8093 63.9989 17.8125 64.2643 17.8125 64.2643C17.9148 64.2556 17.9914 64.1874 17.9572 64.0256L17.7907 63.638C17.7516 63.5616 17.6287 63.4251 17.454 63.4295L15.9414 63.1963L14.499 60.2492Z" fill="white"/>
<path d="M20.0068 60.2877C19.9846 60.2641 19.955 60.2493 19.9232 60.246L19.3124 60.1905C19.1948 60.1796 19.1247 60.3191 19.2042 60.4072L21.5145 62.961C21.524 62.9718 21.532 62.9839 21.5377 62.997L22.194 64.5252C22.2127 64.5687 22.254 64.599 22.3017 64.6033L22.8861 64.6567C22.9839 64.6655 23.0559 64.5668 23.0169 64.4762L22.4246 63.097C22.4187 63.0833 22.4149 63.0679 22.4141 63.0528L22.2742 60.5301C22.2705 60.4624 22.216 60.4096 22.1487 60.4074L21.6272 60.392C21.5492 60.3895 21.4872 60.4556 21.4937 60.5334L21.5976 61.6746C21.609 61.7982 21.4565 61.8658 21.3726 61.774L20.0068 60.2877Z" fill="white"/>
<path fill-rule="evenodd" clip-rule="evenodd" d="M23.2918 52.9182C23.9034 52.7621 24.9314 52.6823 25.5876 53.1363C26.2444 53.5902 26.3118 53.8557 26.411 54.1443C26.5103 54.4329 26.4644 54.762 26.2653 55.1173C26.0795 55.4492 25.7477 55.8968 24.7707 55.8666C24.672 55.8638 24.5996 55.9633 24.6386 56.054L25.0844 57.0921C25.1231 57.1821 25.0519 57.2812 24.9542 57.2723L24.1404 57.2044C24.0935 57.2005 24.0519 57.1711 24.0326 57.1278L22.3754 53.4255C22.3507 53.3697 22.3679 53.3044 22.42 53.2729C22.5589 53.1885 22.8595 53.0283 23.2918 52.9182ZM23.7295 53.8058C23.6636 53.8299 23.6347 53.9059 23.6624 53.9703L24.0931 54.9732C24.1121 55.0173 24.154 55.0473 24.202 55.0507C24.992 55.1076 25.3194 55.0214 25.5285 54.7946C25.7442 54.56 25.5974 54.2988 25.4787 54.1062C25.3599 53.9135 25.0345 53.7496 24.8187 53.7159C24.6211 53.6849 24.1665 53.6443 23.7286 53.8055L23.7295 53.8058Z" fill="white"/>
<path fill-rule="evenodd" clip-rule="evenodd" d="M26.8172 60.7971C27.4288 60.6411 28.4567 60.5612 29.113 61.0153C29.7698 61.4691 29.8372 61.7346 29.9364 62.0232C30.0357 62.3118 29.9898 62.6409 29.7907 62.9962C29.6049 63.3281 29.2731 63.7757 28.2961 63.7455C28.1974 63.7427 28.125 63.8422 28.164 63.9329L28.6098 64.971C28.6485 65.061 28.5773 65.1601 28.4796 65.1512L27.6658 65.0833C27.6189 65.0795 27.5773 65.05 27.558 65.0067L25.9008 61.3044C25.8761 61.2486 25.8933 61.1833 25.9454 61.1518C26.0843 61.0674 26.3849 60.9072 26.8172 60.7971ZM27.2549 61.6847C27.189 61.7088 27.1601 61.7848 27.1878 61.8492L27.6185 62.8521C27.6375 62.8962 27.6794 62.9263 27.7274 62.9296C28.5174 62.9865 28.8448 62.9003 29.0539 62.6735C29.2696 62.4389 29.1228 62.1778 29.004 61.9851C28.8853 61.7925 28.5599 61.6285 28.3441 61.5948C28.1465 61.5638 27.6919 61.5232 27.254 61.6844L27.2549 61.6847Z" fill="white"/>
<path fill-rule="evenodd" clip-rule="evenodd" d="M17.812 52.8042C17.7895 52.7715 17.7535 52.7502 17.7135 52.7476L16.862 52.6889C16.7812 52.6833 16.7147 52.7521 16.724 52.8329L17.1645 56.769C17.1711 56.8304 17.2206 56.8783 17.2816 56.8839L17.7327 56.9246C17.8143 56.932 17.882 56.8627 17.8733 56.7816L17.7762 55.8812C17.7669 55.7955 17.8419 55.7251 17.9263 55.739L18.9009 55.9017C18.9366 55.9076 18.9682 55.9286 18.988 55.9582L19.7059 57.0525C19.7286 57.0873 19.7668 57.109 19.808 57.1111L20.5052 57.1443C20.6119 57.1493 20.6787 57.0302 20.6187 56.9415L17.8117 52.805L17.812 52.8042ZM18.3635 54.8973C18.4294 54.9898 18.3531 55.1164 18.2406 55.1012L17.8076 55.0435C17.7493 55.036 17.7032 54.9895 17.6958 54.9312L17.6121 54.2644C17.5958 54.1309 17.768 54.0633 17.8468 54.1728L18.3635 54.8973Z" fill="white"/>
<path d="M12.6961 52.6199C12.6767 52.5781 12.6356 52.5498 12.5893 52.5457L12.0768 52.5017C11.977 52.493 11.9059 52.5956 11.9483 52.6861L12.5309 53.9226C12.5741 54.0149 12.4995 54.119 12.3981 54.1067L11.4888 53.9972C11.4441 53.9917 11.4061 53.9642 11.3867 53.9239L10.6995 52.4654C10.6806 52.4247 10.6421 52.3975 10.598 52.3917L10.0865 52.3289C9.98516 52.3166 9.90966 52.4204 9.9531 52.5133L11.8028 56.4451C11.8217 56.4858 11.8602 56.513 11.9044 56.5188L12.4158 56.5816C12.5172 56.5939 12.5927 56.4901 12.5492 56.3972L11.9591 55.1449C11.9159 55.0526 11.9906 54.9485 12.0919 54.9607L13.0012 55.0702C13.046 55.0757 13.0839 55.1032 13.1034 55.1436L13.8309 56.6879C13.8503 56.7297 13.8914 56.7579 13.9377 56.7621L14.4508 56.8058C14.5506 56.8145 14.6217 56.712 14.5793 56.6214L12.6967 52.6197L12.6961 52.6199Z" fill="white"/>
</g>
<path d="M43.4398 52.79C44.3561 52.1457 45.0864 51.2712 45.5569 50.2547C46.0274 49.2382 46.2216 48.1155 46.1198 47C46.6152 47.18 47.0577 47.4811 47.407 47.8758C47.7563 48.2706 48.0014 48.7464 48.1198 49.26C48.3397 50.3627 48.134 51.5078 47.5441 52.4651C46.9542 53.4224 46.0237 54.1208 44.9398 54.42C44.9398 54.42 42.8798 55.17 43.4398 52.79Z" fill="#F8B78F"/>
<path d="M42.3196 58.05C43.2975 57.6703 44.169 57.0596 44.8596 56.27C45.3933 55.6825 45.6829 54.9136 45.6696 54.12C45.6352 53.6425 45.4305 53.1931 45.0929 52.8536C44.7552 52.5142 44.307 52.3071 43.8296 52.27C43.3952 52.3237 42.9801 52.4815 42.6196 52.73H42.5496C42.1247 52.9571 41.6652 53.1125 41.1896 53.19C40.3796 53.29 40.4796 53.91 40.4796 53.91C40.4902 53.9796 40.5151 54.0462 40.5526 54.1056C40.5901 54.1651 40.6396 54.2161 40.6978 54.2556C40.756 54.295 40.8218 54.322 40.8909 54.3348C40.9601 54.3476 41.0311 54.346 41.0996 54.33L42.0996 54.13C42.6296 54.13 42.4096 54.47 42.4096 54.47C41.7241 54.9612 41.002 55.3992 40.2496 55.78C40.1405 55.8432 40.0592 55.9453 40.0221 56.0658C39.985 56.1863 39.9949 56.3164 40.0496 56.43C40.0496 56.43 40.1196 56.87 41.2596 56.43C41.9062 56.1265 42.5085 55.7362 43.0496 55.27C42.4869 55.7855 41.862 56.229 41.1896 56.59C40.4396 56.81 40.7696 57.33 40.7696 57.33C41.2496 57.85 42.3896 56.98 42.3896 56.98C43.3896 56.24 43.8696 55.98 43.8696 55.98L42.1996 57.18C42.1996 57.18 41.5496 57.51 41.7196 57.84C41.7596 57.83 41.8396 58.16 42.3196 58.05Z" fill="#F8B78F"/>
</svg>
