<svg width="70" height="106" viewBox="0 0 70 106" fill="none" xmlns="http://www.w3.org/2000/svg">
<path d="M18.6802 31.9289L18.5901 65.9989L14.0102 67.9989L13.2102 34.7489C13.2102 34.7489 9.61015 5.94886 32.2102 5.20886C32.2102 5.20886 53.2601 2.52887 58.9401 16.3689C58.9401 16.3689 63.1902 22.0089 60.5702 44.3689L58.9401 68.3689L55.0301 66.0289L57.1301 38.7789C57.1301 38.7789 59.6701 38.2189 59.6101 34.9489C59.4944 34.3411 59.16 33.7968 58.6701 33.4189C58.6701 33.4189 59.2002 14.7289 49.3702 10.8789C49.3702 10.8789 26.3701 1.10886 21.6401 23.1389C19.852 25.6854 18.8127 28.6819 18.6401 31.7889" fill="#70432E"/>
<g style="mix-blend-mode:multiply" opacity="0.5">
<path d="M69.2301 96.9589C69.2301 100.589 58.4101 103.529 45.0601 103.529C31.7101 103.529 20.8901 100.589 20.8901 96.9589C20.8901 93.3289 31.7101 90.3989 45.0601 90.3989C58.4101 90.3989 69.2301 93.3289 69.2301 96.9589Z" fill="#EAD2BB"/>
</g>
<path d="M19.5901 66.2689C25.3006 63.6008 31.527 62.218 37.8301 62.218C44.1332 62.218 50.3596 63.6008 56.0701 66.2689L59.9901 32.6589H16.3701L19.5901 66.2689Z" fill="#5B3522"/>
<path d="M42.0304 49.8589H36.1304V52.4989H42.0304V49.8589Z" fill="#FBB88E"/>
<path d="M42.0304 50.6389V49.8589H36.1304V51.4689C38.1345 51.6402 40.1513 51.3565 42.0304 50.6389Z" fill="#E69D82"/>
<path d="M49.8004 72.9587C50.8613 66.5725 49.4874 60.0207 45.9504 54.5987C45.9504 54.5987 45.8004 52.4687 47.1304 52.8587C47.1304 52.8587 56.6704 59.9787 51.9804 73.4587C52.0204 73.4587 50.6904 75.2487 49.8004 72.9587Z" fill="#F8B78F"/>
<path d="M51.8004 77.9589C52.407 77.1012 52.798 76.1099 52.9404 75.0689C53.0577 74.2819 52.868 73.4799 52.4104 72.829C52.1173 72.4523 51.6992 72.1928 51.2315 72.0975C50.7639 72.0021 50.2775 72.0771 49.8604 72.309C49.5251 72.5895 49.267 72.9509 49.1104 73.359C49.1068 73.3855 49.1068 73.4124 49.1104 73.439C48.8813 73.8616 48.584 74.2434 48.2304 74.5689C47.6204 75.0989 48.0404 75.5689 48.0404 75.5689C48.0889 75.6195 48.1471 75.6597 48.2116 75.6871C48.276 75.7146 48.3453 75.7287 48.4154 75.7287C48.4854 75.7287 48.5547 75.7146 48.6192 75.6871C48.6836 75.6597 48.7418 75.6195 48.7904 75.5689C49.0404 75.3289 49.2904 75.0689 49.5404 74.8189C49.9904 74.5289 49.9904 74.9289 49.9904 74.9289C49.6988 75.721 49.3408 76.4871 48.9204 77.219C48.865 77.334 48.8549 77.4657 48.8919 77.5879C48.9289 77.7101 49.0105 77.814 49.1204 77.879C49.1204 77.879 49.4104 78.1989 50.1204 77.1789C50.4912 76.5542 50.7739 75.8811 50.9604 75.1789C50.7833 75.9209 50.511 76.6368 50.1504 77.309C49.6504 77.909 50.2104 78.1489 50.2104 78.1489C50.9004 78.3189 51.3604 76.969 51.3604 76.969C51.8004 75.779 52.0304 75.299 52.0304 75.299L51.3104 77.2289C51.3104 77.2289 50.9504 77.859 51.3104 78.049C51.2304 78.089 51.4804 78.3089 51.8004 77.9589Z" fill="#F8B78F"/>
<path d="M51.8 87.0587C51.59 84.0587 49.64 83.4387 49.64 83.4387C49.1859 83.3079 48.7041 83.3079 48.25 83.4387V93.2487C49.1004 93.6164 50.0592 93.645 50.93 93.3287C53.66 92.2387 51.8 87.0587 51.8 87.0587Z" fill="white"/>
<path d="M51.1104 87.0589C51.051 86.7547 51.0076 86.4476 50.9804 86.1389C50.9072 85.8293 50.8034 85.5278 50.6704 85.2389C50.4033 84.5262 49.8886 83.9334 49.2204 83.5689C48.8959 83.4419 48.5463 83.3921 48.1992 83.4234C47.8522 83.4546 47.5171 83.566 47.2204 83.7489C46.7084 84.0263 46.275 84.4288 45.9604 84.9189C45.9604 84.9689 45.7804 85.1589 45.7904 85.2189L46.9804 91.6589C47.042 91.9904 47.1793 92.3032 47.3816 92.5729C47.5839 92.8426 47.8457 93.062 48.1467 93.214C48.4477 93.3659 48.7797 93.4463 49.1168 93.4489C49.454 93.4515 49.7872 93.3762 50.0904 93.2289C52.9504 92.3989 51.1104 87.0589 51.1104 87.0589Z" fill="#F37C91"/>
<path d="M47.4701 88.9989L36.6801 98.0989L34.3901 90.2689L46.5901 84.5889C46.5901 84.5889 47.6901 84.0888 48.4001 85.7888C48.4001 85.7888 49.1401 88.1689 47.4701 88.9989Z" fill="#F8B78F"/>
<path d="M49.0504 91.0289C51.1304 90.5789 49.8704 88.6389 49.8704 88.6389C49.1193 89.0852 48.2725 89.3457 47.4004 89.3989C47.4004 89.3989 47.4104 91.3889 49.0504 91.0289Z" fill="#F8B78F"/>
<g style="mix-blend-mode:soft-light">
<path d="M49.73 92.5789C49.8756 92.4763 50.0158 92.3661 50.15 92.2489C50.2774 92.1365 50.3976 92.0163 50.51 91.8889C50.6307 91.7501 50.7316 91.5953 50.81 91.4289C50.8982 91.2646 50.9654 91.0899 51.01 90.9089C51.0052 90.819 51.0052 90.7288 51.01 90.6389V90.3989C51.01 90.2389 51.01 90.1089 51.01 90.0089C51.01 89.9089 51.01 89.8589 51.01 89.8589C51.0377 89.8997 51.0611 89.9433 51.08 89.9889C51.1478 90.1113 51.1983 90.2426 51.23 90.3789C51.2826 90.571 51.3062 90.7698 51.3 90.9689C51.3 91.0789 51.3 91.1989 51.24 91.3089C51.18 91.4189 51.17 91.5389 51.12 91.6489C51.0615 91.7541 50.9946 91.8544 50.92 91.9489C50.8442 92.0394 50.7605 92.1231 50.67 92.1989C50.5153 92.3283 50.3394 92.4298 50.15 92.4989C50.016 92.5507 49.8737 92.5778 49.73 92.5789Z" fill="white"/>
</g>
<path d="M32.1799 96.4488L31.6699 87.7388H37.7099L37.2099 96.4488H32.1799Z" fill="#F2B193"/>
<path d="M32.1799 96.4388L31.6699 87.7388H37.6699L37.1699 96.4388C37.198 96.7737 37.152 97.1107 37.0352 97.4259C36.9185 97.741 36.7337 98.0266 36.4942 98.2624C36.2546 98.4981 35.9661 98.6782 35.6491 98.7899C35.3321 98.9017 34.9944 98.9422 34.6599 98.9088C34.6599 98.9088 32.0699 98.9088 32.1799 96.4388Z" fill="#F8B78F"/>
<g style="mix-blend-mode:multiply" opacity="0.5">
<path d="M35.0499 98.5288C36.4499 97.7888 36.5699 96.4388 36.4599 94.9788C36.3499 93.5188 36.7899 91.6988 36.1199 90.4088C35.1799 88.6288 33.3999 89.0688 31.7399 88.8088L31.6699 87.7388H37.6699L37.1699 96.4388C37.198 96.7737 37.152 97.1107 37.0352 97.4259C36.9185 97.741 36.7337 98.0266 36.4942 98.2624C36.2546 98.4981 35.9661 98.6782 35.6491 98.7899C35.3321 98.9017 34.9944 98.9422 34.6599 98.9088C34.4203 98.9017 34.1822 98.8682 33.9499 98.8088C34.3332 98.8006 34.7095 98.7049 35.0499 98.5288Z" fill="#F2B193"/>
</g>
<path d="M61.31 87.1189C61.1 84.1189 59.15 83.4989 59.15 83.4989C58.7003 83.3614 58.2197 83.3614 57.77 83.4989V93.3089C58.621 93.6764 59.581 93.7015 60.45 93.3789C63.22 92.2989 61.31 87.1189 61.31 87.1189Z" fill="white"/>
<path d="M60.68 87.1189C60.6171 86.8115 60.5704 86.5011 60.54 86.1889C60.4702 85.8828 60.3697 85.5847 60.24 85.2989C59.9665 84.5874 59.4538 83.9934 58.79 83.6189C58.4644 83.4971 58.1156 83.4501 57.7695 83.4813C57.4233 83.5124 57.0886 83.621 56.79 83.7989C56.2746 84.0798 55.838 84.4855 55.52 84.9789C55.52 85.0289 55.3399 85.2089 55.3599 85.2789L56.54 91.7189C56.6028 92.0495 56.741 92.3611 56.9439 92.6297C57.1467 92.8982 57.4087 93.1164 57.7095 93.2673C58.0103 93.4182 58.3418 93.4977 58.6784 93.4997C59.0149 93.5017 59.3474 93.4262 59.65 93.2789C62.51 92.4589 60.68 87.1189 60.68 87.1189Z" fill="#F37C91"/>
<path d="M57.04 89.0588L46.24 98.1588L43.96 90.3188L56.15 84.6388C56.15 84.6388 57.25 84.1488 57.96 85.8488C57.96 85.8488 58.7 88.2288 57.04 89.0588Z" fill="#F8B78F"/>
<path d="M58.61 91.0887C60.69 90.6287 59.43 88.6987 59.43 88.6987C58.6793 89.1461 57.8322 89.4067 56.96 89.4587C56.96 89.4587 56.97 91.4387 58.61 91.0887Z" fill="#F8B78F"/>
<g style="mix-blend-mode:soft-light">
<path d="M59.29 92.6389C59.4357 92.5363 59.5759 92.4261 59.71 92.3089C59.8374 92.1966 59.9577 92.0763 60.07 91.9489C60.1915 91.805 60.2956 91.6473 60.38 91.4789C60.464 91.3138 60.5278 91.1392 60.57 90.9589C60.5653 90.8723 60.5653 90.7855 60.57 90.6989V90.4589C60.577 90.329 60.577 90.1988 60.57 90.0689C60.57 89.9689 60.57 89.9089 60.57 89.9089L60.65 90.0489C60.712 90.1705 60.7623 90.2978 60.8 90.4289C60.8527 90.6243 60.873 90.827 60.86 91.0289C60.869 91.1421 60.869 91.2558 60.86 91.3689C60.8255 91.4854 60.782 91.5991 60.73 91.7089C60.6725 91.8147 60.6056 91.9152 60.53 92.0089C60.4578 92.0994 60.3775 92.1831 60.29 92.2589C60.1327 92.3874 59.953 92.4857 59.76 92.5489C59.6104 92.608 59.4509 92.6385 59.29 92.6389Z" fill="white"/>
</g>
<path d="M41.7402 96.5088L41.2402 87.7988H47.2602L46.7602 96.5088H41.7402Z" fill="#F2B193"/>
<path d="M41.7402 96.5289L41.2402 87.8188H47.2402L46.8002 96.5289C46.8265 96.8634 46.7793 97.1996 46.6619 97.5139C46.5445 97.8283 46.3597 98.1131 46.1205 98.3485C45.8814 98.5838 45.5936 98.764 45.2774 98.8764C44.9612 98.9887 44.6243 99.0305 44.2902 98.9989C44.2902 98.9989 41.6302 98.9689 41.7402 96.5289Z" fill="#F8B78F"/>
<g style="mix-blend-mode:multiply" opacity="0.5">
<path d="M45.6803 90.4688C45.8107 90.742 45.9048 91.0312 45.9603 91.3288C46.4086 92.2042 46.7253 93.141 46.9003 94.1088L47.2603 87.7888H41.2603L41.3203 88.8688C42.9603 89.1288 44.7403 88.6788 45.6803 90.4688Z" fill="#F2B193"/>
</g>
<path d="M48.4901 54.6488C48.3682 54.1573 48.1193 53.7064 47.7683 53.3414C47.4173 52.9763 46.9765 52.7099 46.4901 52.5688L41.2801 51.5688H36.8301L31.6201 52.5688C31.1338 52.7099 30.693 52.9763 30.342 53.3414C29.991 53.7064 29.742 54.1573 29.6201 54.6488C29.2801 64.7188 28.9801 70.3388 28.3901 78.4288C31.8012 79.6271 35.4072 80.1732 39.0201 80.0388C42.6298 80.1727 46.2324 79.6265 49.6401 78.4288C49.4801 74.1988 48.9901 64.9588 48.4901 54.6488Z" fill="#FBB88E"/>
<path d="M32.0403 52.5289C32.0403 52.5289 33.0403 59.1989 29.4603 60.1989C29.4603 60.1989 29.1403 64.2589 28.3403 78.3189L27.0703 87.4589C34.8929 89.7929 43.2192 89.8449 51.0703 87.6089L49.7103 78.2089C49.7103 78.2089 49.3203 69.4289 48.7103 59.0489C48.7103 59.0489 45.2103 58.5689 45.4903 52.3989L44.1203 52.0889C44.1203 52.0889 44.3503 56.4389 38.5203 56.4789C38.5203 56.4789 33.5203 56.5489 33.2003 52.3089L32.0403 52.5289Z" fill="#7771B4"/>
<path d="M41.1201 61.0087C39.5201 61.1987 39.3001 63.1087 39.1201 64.3187C39.1063 64.374 39.0814 64.4259 39.047 64.4712C39.0125 64.5166 38.9691 64.5544 38.9195 64.5825C38.87 64.6106 38.8152 64.6282 38.7586 64.6345C38.7019 64.6407 38.6446 64.6353 38.5901 64.6187C37.3201 64.2287 35.2601 63.9887 34.5901 65.5187C34.2586 66.2632 34.1623 67.0911 34.3143 67.8917C34.4662 68.6923 34.859 69.4275 35.4401 69.9987C36.9426 71.4089 38.6237 72.6159 40.4401 73.5887C40.5019 73.6254 40.5534 73.677 40.5901 73.7387C42.233 71.0425 43.3399 68.0545 43.8501 64.9387C44.3301 62.5287 43.1301 60.7687 41.1201 61.0087Z" fill="#F37C91"/>
<path d="M58.1703 32.6588C58.1703 42.2688 49.3703 50.0588 38.5103 50.0588C27.6503 50.0588 18.8003 42.2688 18.8003 32.6588C18.8003 23.0488 27.6103 15.2688 38.4703 15.2688C49.3303 15.2688 58.1703 23.0588 58.1703 32.6588Z" fill="#F8B78F"/>
<path d="M60.6403 36.1489C60.5153 36.5711 60.2738 36.9494 59.9434 37.2404C59.613 37.5315 59.2073 37.7234 58.7727 37.7941C58.3382 37.8649 57.8925 37.8116 57.4869 37.6404C57.0812 37.4693 56.7321 37.1871 56.4796 36.8264C56.2272 36.4658 56.0816 36.0412 56.0596 35.6014C56.0376 35.1617 56.1401 34.7247 56.3553 34.3407C56.5705 33.9566 56.8897 33.641 57.2762 33.4302C57.6627 33.2194 58.1009 33.1219 58.5403 33.1489C59.2141 33.2733 59.8119 33.6576 60.2048 34.2188C60.5976 34.7801 60.7541 35.4734 60.6403 36.1489Z" fill="#F8B78F"/>
<path d="M59.52 34.0389C59.3505 33.9501 59.1613 33.9054 58.97 33.9089C58.13 33.9089 57.53 35.3089 58.37 35.5189C58.4558 35.6172 58.5031 35.7434 58.5031 35.8739C58.5031 36.0044 58.4558 36.1305 58.37 36.2289C58.1965 36.4008 58.0606 36.6069 57.9711 36.8342C57.8816 37.0614 57.8403 37.3048 57.85 37.5489C57.9007 37.6791 57.9864 37.7928 58.0975 37.8774C58.2087 37.9621 58.341 38.0145 58.48 38.0289C58.69 38.0289 58.72 37.8889 58.55 37.8189C58.4219 37.7536 58.3093 37.6616 58.22 37.5489C58.22 37.5489 58.22 37.5489 58.22 37.4989C58.1954 37.4345 58.1954 37.3633 58.22 37.2989C58.3131 37.3732 58.4311 37.4095 58.5499 37.4002C58.6687 37.3909 58.7795 37.3368 58.86 37.2489C59.01 37.0389 58.86 36.7289 58.86 36.4889C58.9006 36.3223 58.9611 36.1611 59.04 36.0089C59.38 35.3089 58.69 35.2289 58.69 35.2289C58.6071 35.2166 58.5229 35.2166 58.44 35.2289C58.08 35.0489 58.44 34.4589 58.65 34.3589C58.7672 34.2983 58.9002 34.2754 59.0308 34.2933C59.1615 34.3112 59.2835 34.369 59.38 34.4589C59.5586 34.6831 59.654 34.9623 59.65 35.2489C59.6511 35.5904 59.5901 35.9292 59.47 36.2489L59.25 36.7989C59.17 36.9989 59.38 37.0689 59.46 36.8789C59.7054 36.3726 59.8772 35.8338 59.97 35.2789C60.0193 35.0508 60.0032 34.8134 59.9236 34.5941C59.844 34.3747 59.7041 34.1823 59.52 34.0389Z" fill="#E69D82"/>
<path d="M39.5944 36.4646C39.5944 36.5521 39.5596 36.636 39.4977 36.6979C39.4358 36.7598 39.3519 36.7946 39.2644 36.7946C38.9779 36.7946 38.7032 36.9084 38.5007 37.1109C38.2982 37.3134 38.1844 37.5881 38.1844 37.8746C38.1844 38.161 38.2982 38.4357 38.5007 38.6383C38.7032 38.8408 38.9779 38.9546 39.2644 38.9546C39.3519 38.9546 39.4358 38.9894 39.4977 39.0512C39.5596 39.1131 39.5944 39.1971 39.5944 39.2846C39.5907 39.3289 39.578 39.3721 39.5573 39.4114C39.5365 39.4507 39.5079 39.4855 39.4734 39.5135C39.4388 39.5415 39.3989 39.5623 39.3561 39.5745C39.3134 39.5867 39.2685 39.5901 39.2244 39.5846C38.9959 39.5846 38.7696 39.5396 38.5585 39.4521C38.3474 39.3647 38.1556 39.2365 37.994 39.075C37.8324 38.9134 37.7043 38.7216 37.6168 38.5105C37.5294 38.2994 37.4844 38.0731 37.4844 37.8446C37.4844 37.6161 37.5294 37.3898 37.6168 37.1787C37.7043 36.9676 37.8324 36.7758 37.994 36.6142C38.1556 36.4526 38.3474 36.3245 38.5585 36.237C38.7696 36.1496 38.9959 36.1046 39.2244 36.1046C39.2736 36.0983 39.3236 36.1033 39.3706 36.119C39.4177 36.1347 39.4606 36.1608 39.4961 36.1954C39.5317 36.23 39.559 36.2722 39.576 36.3188C39.593 36.3654 39.5993 36.4152 39.5944 36.4646Z" fill="#E89D7F"/>
<path d="M52.0199 28.0688C52.0199 28.0688 54.1099 24.8688 51.0799 19.1688C51.0799 19.1688 57.3999 25.9088 58.1599 33.1688C58.7219 33.1279 59.2778 33.3072 59.7099 33.6688C59.7099 33.6688 59.8999 32.2388 59.9099 32.1288C59.9806 30.7964 59.9806 29.4612 59.9099 28.1288C59.7599 24.5188 59.3299 20.7588 57.3499 17.6488C55.4339 14.5975 52.765 12.0905 49.5999 10.3688C46.7613 8.89102 43.6441 8.02569 40.4499 7.82883C38.0238 7.72681 35.5937 7.881 33.1999 8.28882C33.1999 8.28882 14.0799 11.0688 17.3899 33.5488C17.3899 33.5488 17.5499 33.1888 18.8199 33.1688C18.8199 33.1688 19.4799 30.9188 19.4999 30.7788C19.5199 30.6388 21.3399 22.8888 26.3399 19.7788C26.3399 19.7788 24.4499 21.6388 22.9899 26.8888L43.1199 27.7388L44.2999 24.6688L44.7799 27.7388L49.7799 28.0888L50.0199 19.7788C51.6922 22.1982 52.4051 25.153 52.0199 28.0688Z" fill="#70432E"/>
<path d="M38.3703 45.4688C36.6303 45.3388 35.3703 43.2588 35.3703 43.2288C35.2303 43.0088 35.1803 42.9088 35.2603 42.6788C35.3403 42.4488 35.4303 42.4988 35.6203 42.4888C35.6203 42.4888 38.5003 42.4888 41.4103 42.4888C41.4712 42.4903 41.531 42.5044 41.5861 42.5302C41.6411 42.556 41.6903 42.593 41.7303 42.6388C41.8603 42.7988 41.7303 43.0788 41.6203 43.1588C40.2103 45.0088 39.2903 45.4688 38.3703 45.4688Z" fill="#D7656F"/>
<path d="M39.52 43.3788C39.9386 43.2095 40.2899 42.9073 40.52 42.5188H36.52C36.8472 42.9826 37.323 43.3207 37.8686 43.4771C38.4142 43.6335 38.9968 43.5988 39.52 43.3788Z" fill="white"/>
<path d="M38.4101 46.639C37.9836 46.6567 37.5598 46.5637 37.1801 46.3689C37.1425 46.3474 37.1097 46.3184 37.0837 46.2838C37.0577 46.2491 37.039 46.2096 37.0287 46.1675C37.0184 46.1254 37.0168 46.0817 37.0239 46.039C37.031 45.9963 37.0467 45.9554 37.0701 45.9189C37.1139 45.8435 37.1859 45.7885 37.2703 45.766C37.3546 45.7435 37.4444 45.7554 37.5201 45.799C37.8369 45.931 38.1768 45.999 38.5201 45.999C38.8633 45.999 39.2032 45.931 39.5201 45.799C39.6023 45.7701 39.6926 45.7749 39.7713 45.8124C39.85 45.8498 39.9106 45.9169 39.9401 45.999C39.9556 46.0402 39.9624 46.0842 39.9601 46.1283C39.9579 46.1723 39.9465 46.2154 39.9268 46.2548C39.9071 46.2943 39.8794 46.3292 39.8456 46.3574C39.8117 46.3857 39.7724 46.4066 39.73 46.4189C39.3045 46.5617 38.8589 46.636 38.4101 46.639Z" fill="#F5A586"/>
<path d="M28.4704 29.5288C29.1683 29.1446 29.9708 28.9939 30.7604 29.0988C30.848 29.095 30.934 29.0737 31.0133 29.0363C31.0925 28.9989 31.1636 28.9461 31.2223 28.8809C31.2809 28.8158 31.326 28.7396 31.3548 28.6568C31.3837 28.574 31.3958 28.4863 31.3904 28.3988C31.3801 28.2246 31.3022 28.0613 31.1734 27.9437C31.0445 27.826 30.8748 27.7633 30.7004 27.7688C29.6806 27.6665 28.6547 27.8906 27.7704 28.4088C27.0304 28.8488 27.7704 29.9688 28.4704 29.5288Z" fill="#70432E"/>
<path d="M48.5504 29.5289C47.8494 29.1432 47.0433 28.9925 46.2504 29.0989C45.8904 29.0989 45.6104 28.7289 45.6204 28.3989C45.6354 28.2265 45.7147 28.066 45.8425 27.9493C45.9703 27.8326 46.1373 27.7682 46.3104 27.7689C47.3334 27.6652 48.363 27.8893 49.2504 28.4089C49.9904 28.8489 49.2504 29.9689 48.5504 29.5289Z" fill="#70432E"/>
<path d="M58.6902 38.0387C58.6902 38.2615 58.6017 38.4752 58.4442 38.6327C58.2867 38.7902 58.073 38.8787 57.8503 38.8787C57.6275 38.8787 57.4138 38.7902 57.2563 38.6327C57.0987 38.4752 57.0103 38.2615 57.0103 38.0387C57.0103 37.8159 57.0987 37.6023 57.2563 37.4448C57.4138 37.2872 57.6275 37.1987 57.8503 37.1987C58.073 37.1987 58.2867 37.2872 58.4442 37.4448C58.6017 37.6023 58.6902 37.8159 58.6902 38.0387Z" fill="white"/>
<path d="M58.0502 38.5288C57.8949 38.5226 57.7465 38.4626 57.6306 38.359C57.5146 38.2555 57.4382 38.1148 57.4146 37.9612C57.391 37.8075 57.4215 37.6504 57.501 37.5168C57.5804 37.3832 57.7039 37.2813 57.8502 37.2288C57.642 37.2514 57.4494 37.3502 57.3095 37.5062C57.1697 37.6621 57.0923 37.8643 57.0923 38.0738C57.0923 38.2833 57.1697 38.4854 57.3095 38.6413C57.4494 38.7973 57.642 38.8961 57.8502 38.9188C58.073 38.9188 58.2867 38.8303 58.4442 38.6727C58.6017 38.5152 58.6902 38.3015 58.6902 38.0788V38.0188C58.6565 38.1634 58.575 38.2924 58.4588 38.3849C58.3427 38.4775 58.1987 38.5281 58.0502 38.5288Z" fill="#E6E7E8"/>
<path d="M29.9302 36.9287C29.8639 36.9287 29.8003 36.9551 29.7534 37.0019C29.7065 37.0488 29.6802 37.1124 29.6802 37.1787C29.6802 37.245 29.7065 37.3086 29.7534 37.3555C29.8003 37.4024 29.8639 37.4287 29.9302 37.4287C29.9965 37.4287 30.0601 37.4024 30.1069 37.3555C30.1538 37.3086 30.1802 37.245 30.1802 37.1787C30.1802 37.1124 30.1538 37.0488 30.1069 37.0019C30.0601 36.9551 29.9965 36.9287 29.9302 36.9287Z" fill="#C88972"/>
<path d="M27.6201 37.1489C27.5538 37.1489 27.4902 37.1753 27.4433 37.2222C27.3964 37.269 27.3701 37.3326 27.3701 37.3989C27.3701 37.4652 27.3964 37.5288 27.4433 37.5757C27.4902 37.6226 27.5538 37.6489 27.6201 37.6489C27.6864 37.6489 27.75 37.6226 27.7969 37.5757C27.8438 37.5288 27.8701 37.4652 27.8701 37.3989C27.8701 37.3326 27.8438 37.269 27.7969 37.2222C27.75 37.1753 27.6864 37.1489 27.6201 37.1489Z" fill="#C88972"/>
<path d="M29.0503 38.1887C28.984 38.1887 28.9204 38.2151 28.8735 38.2619C28.8266 38.3088 28.8003 38.3724 28.8003 38.4387C28.8003 38.505 28.8266 38.5686 28.8735 38.6155C28.9204 38.6624 28.984 38.6887 29.0503 38.6887C29.1166 38.6887 29.1802 38.6624 29.2271 38.6155C29.274 38.5686 29.3003 38.505 29.3003 38.4387C29.3003 38.3724 29.274 38.3088 29.2271 38.2619C29.1802 38.2151 29.1166 38.1887 29.0503 38.1887Z" fill="#C88972"/>
<path d="M31.19 37.9189C31.1335 37.9304 31.0827 37.9611 31.0462 38.0057C31.0097 38.0504 30.9897 38.1063 30.9897 38.1639C30.9897 38.2216 31.0097 38.2775 31.0462 38.3222C31.0827 38.3668 31.1335 38.3975 31.19 38.409C31.2465 38.3975 31.2973 38.3668 31.3338 38.3222C31.3703 38.2775 31.3903 38.2216 31.3903 38.1639C31.3903 38.1063 31.3703 38.0504 31.3338 38.0057C31.2973 37.9611 31.2465 37.9304 31.19 37.9189Z" fill="#C88972"/>
<path d="M29.6505 39.5288C29.5939 39.5403 29.5431 39.5709 29.5066 39.6156C29.4701 39.6603 29.4502 39.7161 29.4502 39.7738C29.4502 39.8315 29.4701 39.8874 29.5066 39.932C29.5431 39.9767 29.5939 40.0073 29.6505 40.0188C29.707 40.0073 29.7578 39.9767 29.7943 39.932C29.8308 39.8874 29.8507 39.8315 29.8507 39.7738C29.8507 39.7161 29.8308 39.6603 29.7943 39.6156C29.7578 39.5709 29.707 39.5403 29.6505 39.5288Z" fill="#C88972"/>
<path d="M48.5703 36.9287C48.504 36.9287 48.4404 36.9551 48.3935 37.0019C48.3466 37.0488 48.3203 37.1124 48.3203 37.1787C48.3203 37.245 48.3466 37.3086 48.3935 37.3555C48.4404 37.4024 48.504 37.4287 48.5703 37.4287C48.6366 37.4287 48.7002 37.4024 48.7471 37.3555C48.794 37.3086 48.8203 37.245 48.8203 37.1787C48.8203 37.1124 48.794 37.0488 48.7471 37.0019C48.7002 36.9551 48.6366 36.9287 48.5703 36.9287Z" fill="#C88972"/>
<path d="M46.27 37.1489C46.2037 37.1489 46.1401 37.1753 46.0932 37.2222C46.0464 37.269 46.02 37.3326 46.02 37.3989C46.02 37.4652 46.0464 37.5288 46.0932 37.5757C46.1401 37.6226 46.2037 37.6489 46.27 37.6489C46.3363 37.6489 46.3999 37.6226 46.4468 37.5757C46.4937 37.5288 46.52 37.4652 46.52 37.3989C46.52 37.3326 46.4937 37.269 46.4468 37.2222C46.3999 37.1753 46.3363 37.1489 46.27 37.1489Z" fill="#C88972"/>
<path d="M47.6904 38.1887C47.6241 38.1887 47.5605 38.2151 47.5137 38.2619C47.4668 38.3088 47.4404 38.3724 47.4404 38.4387C47.4404 38.505 47.4668 38.5686 47.5137 38.6155C47.5605 38.6624 47.6241 38.6887 47.6904 38.6887C47.7567 38.6887 47.8203 38.6624 47.8672 38.6155C47.9141 38.5686 47.9404 38.505 47.9404 38.4387C47.9404 38.3724 47.9141 38.3088 47.8672 38.2619C47.8203 38.2151 47.7567 38.1887 47.6904 38.1887Z" fill="#C88972"/>
<path d="M49.8004 37.9189C49.7438 37.9304 49.693 37.9611 49.6565 38.0057C49.62 38.0504 49.6001 38.1063 49.6001 38.1639C49.6001 38.2216 49.62 38.2775 49.6565 38.3222C49.693 38.3668 49.7438 38.3975 49.8004 38.409C49.8569 38.3975 49.9077 38.3668 49.9442 38.3222C49.9807 38.2775 50.0006 38.2216 50.0006 38.1639C50.0006 38.1063 49.9807 38.0504 49.9442 38.0057C49.9077 37.9611 49.8569 37.9304 49.8004 37.9189Z" fill="#C88972"/>
<path d="M45.8003 38.5288C45.734 38.5288 45.6704 38.5552 45.6235 38.602C45.5766 38.6489 45.5503 38.7125 45.5503 38.7788C45.5503 38.8451 45.5766 38.9087 45.6235 38.9556C45.6704 39.0025 45.734 39.0288 45.8003 39.0288C45.8666 39.0288 45.9302 39.0025 45.9771 38.9556C46.024 38.9087 46.0503 38.8451 46.0503 38.7788C46.0503 38.7125 46.024 38.6489 45.9771 38.602C45.9302 38.5552 45.8666 38.5288 45.8003 38.5288Z" fill="#C88972"/>
<path d="M48.3004 39.5288C48.2438 39.5403 48.193 39.5709 48.1565 39.6156C48.12 39.6603 48.1001 39.7161 48.1001 39.7738C48.1001 39.8315 48.12 39.8874 48.1565 39.932C48.193 39.9767 48.2438 40.0073 48.3004 40.0188C48.3569 40.0073 48.4077 39.9767 48.4442 39.932C48.4807 39.8874 48.5006 39.8315 48.5006 39.7738C48.5006 39.7161 48.4807 39.6603 48.4442 39.6156C48.4077 39.5709 48.3569 39.5403 48.3004 39.5288Z" fill="#C88972"/>
<path d="M33.3404 33.6687C33.3403 34.3594 33.1354 35.0346 32.7515 35.6087C32.3676 36.1828 31.8219 36.6302 31.1836 36.894C30.5453 37.1579 29.8431 37.2264 29.1658 37.0909C28.4885 36.9555 27.8667 36.6221 27.379 36.133C26.8913 35.6439 26.5597 35.0211 26.4262 34.3434C26.2927 33.6658 26.3632 32.9638 26.6289 32.3262C26.8946 31.6887 27.3435 31.1443 27.9187 30.762C28.4939 30.3798 29.1697 30.1767 29.8604 30.1787C30.3182 30.1787 30.7715 30.2691 31.1944 30.4446C31.6173 30.6201 32.0014 30.8773 32.3246 31.2015C32.6479 31.5257 32.904 31.9106 33.0783 32.3339C33.2526 32.7573 33.3417 33.2109 33.3404 33.6687Z" fill="white"/>
<path d="M32.6902 33.6688C32.6667 34.108 32.5151 34.5306 32.254 34.8845C31.993 35.2384 31.6339 35.508 31.2213 35.6601C30.8086 35.8121 30.3605 35.8399 29.9322 35.74C29.504 35.6401 29.1144 35.4169 28.8116 35.098C28.5088 34.779 28.3061 34.3784 28.2286 33.9455C28.1511 33.5126 28.2021 33.0665 28.3753 32.6623C28.5486 32.2581 28.8365 31.9136 29.2035 31.6713C29.5705 31.4289 30.0004 31.2995 30.4402 31.2988C30.7435 31.3066 31.0424 31.3741 31.3197 31.4974C31.597 31.6208 31.8473 31.7975 32.0562 32.0176C32.2652 32.2377 32.4287 32.4968 32.5375 32.7801C32.6463 33.0635 32.6981 33.3654 32.6902 33.6688Z" fill="#70432E"/>
<path d="M29.8601 37.1489C29.8601 37.1489 29.6801 37.1489 29.3801 37.1489C29.1955 37.188 29.0047 37.188 28.8201 37.1489C28.5673 37.1234 28.3206 37.0558 28.0901 36.9489C27.9601 36.8889 27.8201 36.8489 27.6801 36.7689L27.3001 36.5089C27.0231 36.3018 26.7772 36.0559 26.5701 35.7789C26.3505 35.4748 26.1816 35.1371 26.0701 34.7789C25.9468 34.3939 25.8794 33.9931 25.8701 33.5889C25.8955 33.2265 25.9592 32.8679 26.0601 32.5189C26.179 32.1619 26.3509 31.8248 26.5701 31.5189C26.7737 31.2422 27.0162 30.9963 27.2901 30.7889L27.6801 30.5189C27.8101 30.4489 27.9601 30.3989 28.0801 30.3389C28.3119 30.2373 28.5582 30.1732 28.8101 30.1489C28.9986 30.1154 29.1916 30.1154 29.3801 30.1489L29.8601 30.1989L29.4001 30.3489C29.2314 30.3922 29.0697 30.4596 28.9201 30.5489C28.719 30.6323 28.5305 30.7434 28.3601 30.8789C28.1449 31.0144 27.9525 31.1832 27.7901 31.3789C27.6088 31.579 27.448 31.7968 27.3101 32.0289C27.1812 32.2745 27.0774 32.5325 27.0001 32.7989C26.9191 33.1058 26.8754 33.4215 26.8701 33.7389C26.9019 34.3005 27.0519 34.8491 27.3101 35.3489C27.4447 35.5832 27.6058 35.8013 27.7901 35.9989C27.9568 36.1867 28.1447 36.3545 28.3501 36.4989C28.5243 36.6289 28.712 36.7395 28.9101 36.8289C29.0639 36.917 29.2286 36.9842 29.4001 37.0289L29.8601 37.1489Z" fill="#E89D7F"/>
<path d="M43.6802 33.6687C43.6802 34.3594 43.8851 35.0346 44.2691 35.6087C44.653 36.1828 45.1986 36.6302 45.8369 36.894C46.4752 37.1579 47.1775 37.2264 47.8547 37.0909C48.532 36.9555 49.1538 36.6221 49.6415 36.133C50.1292 35.6439 50.4608 35.0211 50.5943 34.3434C50.7279 33.6658 50.6573 32.9638 50.3916 32.3262C50.126 31.6887 49.6771 31.1443 49.1018 30.762C48.5266 30.3798 47.8509 30.1767 47.1602 30.1787C46.7023 30.1787 46.249 30.2691 45.8261 30.4446C45.4033 30.6201 45.0192 30.8773 44.6959 31.2015C44.3726 31.5257 44.1165 31.9106 43.9422 32.3339C43.7679 32.7573 43.6789 33.2109 43.6802 33.6687Z" fill="white"/>
<path d="M44.3302 33.6688C44.3537 34.1084 44.5056 34.5314 44.7671 34.8855C45.0286 35.2396 45.3882 35.5092 45.8014 35.6609C46.2146 35.8127 46.6633 35.8399 47.0918 35.7391C47.5203 35.6384 47.9098 35.4142 48.2122 35.0943C48.5146 34.7744 48.7164 34.3729 48.7928 33.9394C48.8692 33.5059 48.8168 33.0595 48.642 32.6555C48.4673 32.2515 48.1778 31.9076 47.8095 31.6665C47.4413 31.4253 47.0104 31.2975 46.5702 31.2988C46.2673 31.3066 45.9688 31.3741 45.6921 31.4976C45.4153 31.6211 45.1657 31.798 44.9576 32.0182C44.7494 32.2385 44.5868 32.4977 44.4792 32.7809C44.3715 33.0642 44.3209 33.3659 44.3302 33.6688Z" fill="#70432E"/>
<path d="M47.1602 37.1489L47.6202 37.0089C47.7916 36.9642 47.9564 36.8969 48.1102 36.8089C48.3048 36.7188 48.4891 36.6082 48.6602 36.4789C48.8687 36.3346 49.06 36.1669 49.2301 35.9789C49.4114 35.7787 49.5722 35.561 49.7102 35.3289C49.8442 35.0752 49.9483 34.8067 50.0202 34.5289C50.0929 34.2644 50.1365 33.9928 50.1502 33.7189C50.147 33.4006 50.0998 33.0843 50.0102 32.7789C49.9409 32.5112 49.8402 32.2528 49.7102 32.0089C49.5698 31.7752 49.4092 31.5544 49.2301 31.3489C49.0603 31.1635 48.8689 30.999 48.6602 30.8589C48.4898 30.7233 48.3013 30.6123 48.1002 30.5289C47.9506 30.4396 47.7889 30.3722 47.6202 30.3289L47.1602 30.1789L47.6402 30.1289C47.8287 30.0954 48.0216 30.0954 48.2102 30.1289C48.4588 30.1534 48.7018 30.2175 48.9302 30.3189L49.3401 30.4989L49.7202 30.7689C49.9995 30.9733 50.2458 31.2195 50.4501 31.4989C50.6698 31.803 50.8386 32.1407 50.9501 32.4989C51.2179 33.2284 51.2179 34.0293 50.9501 34.7589C50.8344 35.1153 50.6658 35.4524 50.4501 35.7589C50.243 36.0359 49.9972 36.2818 49.7202 36.4889L49.3302 36.7489C49.2007 36.8171 49.0671 36.8772 48.9302 36.9289C48.6992 37.0345 48.4527 37.1021 48.2001 37.1289C48.0155 37.1677 47.8248 37.1677 47.6402 37.1289C47.3402 37.1789 47.1602 37.1489 47.1602 37.1489Z" fill="#E89D7F"/>
<path opacity="0.3" d="M25 39.8088C25 40.8088 26.26 41.5788 27.81 41.5788C29.36 41.5788 30.63 40.7888 30.63 39.8088C30.63 38.8288 29.37 38.0388 27.81 38.0388C26.25 38.0388 25 38.8288 25 39.8088Z" fill="#F27383"/>
<path opacity="0.3" d="M46.3804 39.8088C46.3804 40.8088 47.6404 41.5788 49.2004 41.5788C50.7604 41.5788 52.0204 40.7888 52.0204 39.8088C52.0204 38.8288 50.7604 38.0388 49.2004 38.0388C47.6404 38.0388 46.3804 38.8288 46.3804 39.8088Z" fill="#F27383"/>
<path opacity="0.1" d="M52.2499 13.9088C48.9467 12.5318 45.372 11.9297 41.7999 12.1489C50.3099 16.2989 51.1499 18.9088 51.1499 18.9088C48.2005 16.8669 44.8605 15.4573 41.3399 14.7688C42.3399 17.9588 47.8899 20.0689 47.8899 20.0689C40.0199 19.1289 38.6399 15.2489 38.6399 15.2489C37.1299 14.2489 36.5599 17.1188 36.5599 17.1188C36.621 16.3525 36.4494 15.5856 36.0676 14.9183C35.6858 14.2511 35.1115 13.7145 34.4199 13.3788L35.1199 7.53885C35.1199 7.53885 47.7299 6.21885 52.2499 13.9088Z" fill="white"/>
<path opacity="0.1" d="M25.19 17.6188C26.5737 15.9987 28.22 14.6228 30.06 13.5488C26.06 14.7388 21.79 18.4488 21.79 18.4488C23.6 14.6288 27.79 11.8088 27.79 11.8088C25.7102 12.3233 23.7942 13.3553 22.22 14.8088C28.15 7.74878 34.43 7.50879 34.43 7.50879L33.43 16.9388C33.43 16.9388 32.25 14.3488 25.19 17.6188Z" fill="white"/>
<path opacity="0.1" d="M53.0503 20.3688C53.0503 20.3688 59.3503 27.0488 58.7803 30.9888C59.1021 29.3377 59.1021 27.64 58.7803 25.9888C58.7803 25.9888 60.9903 27.6988 60.5203 29.9888C60.5203 29.9888 63.3903 25.3288 56.2703 18.5588C56.2703 18.5588 58.4403 22.0688 58.2703 24.7788C58.2603 24.8088 56.4003 21.1188 53.0503 20.3688Z" fill="white"/>
<path d="M38.1702 4.40875L31.4202 0.148754C31.1071 0.0330713 30.7734 -0.0160319 30.4402 0.00458124C30.1071 0.0251944 29.7819 0.115069 29.4854 0.268467C29.189 0.421864 28.9278 0.635407 28.7186 0.895458C28.5093 1.15551 28.3566 1.45635 28.2702 1.77875C28.2702 1.77875 26.2702 8.77875 29.6102 11.4988C29.6102 11.4988 34.0702 12.8188 38.1702 6.42875V4.40875Z" fill="#B17BB5"/>
<path opacity="0.1" d="M30.2201 7.13886C29.7501 6.59886 30.4202 6.13886 30.6502 5.57886C29.5102 5.57886 29.3501 3.98886 29.8901 3.22886C30.3001 2.65886 31.1601 2.67886 31.7301 2.36886C31.9901 2.22886 31.1401 1.87886 31.0801 1.86886H30.5201C30.2119 1.87543 29.9038 1.85199 29.6002 1.79886C29.582 1.7949 29.5651 1.78641 29.5511 1.77417C29.5371 1.76193 29.5265 1.74633 29.5201 1.72886C29.3374 1.70887 29.1529 1.70887 28.9701 1.72886C28.9701 2.20886 28.6002 2.66886 28.6502 3.13886C28.7002 3.60886 29.1702 4.23886 29.1002 4.81886C29.0302 5.39886 28.8501 5.92886 28.8401 6.48886C28.8349 6.7611 28.8895 7.03117 29.0001 7.27999C29.1107 7.52881 29.2746 7.75031 29.4801 7.92886C29.6915 8.1642 29.8182 8.46334 29.8401 8.77886C29.8401 9.17886 29.4102 9.39886 30.0402 9.69886C30.4618 9.89344 30.9316 9.95927 31.3905 9.88812C31.8494 9.81697 32.2772 9.61199 32.6202 9.29886L32.4501 9.22886C32.4309 9.2238 32.413 9.21438 32.398 9.20132C32.3829 9.18827 32.3711 9.17193 32.3634 9.15357C32.3556 9.13521 32.3522 9.11531 32.3534 9.09542C32.3546 9.07553 32.3603 9.05618 32.3702 9.03886C32.5002 8.84886 32.6202 8.64886 32.7602 8.47886C32.3902 8.33886 32.2302 7.99886 31.8202 7.81886C31.4102 7.63886 30.6401 7.61886 30.2201 7.13886Z" fill="white"/>
<g style="mix-blend-mode:multiply">
<path d="M31.4203 0.148925C31.0436 0.0222772 30.6428 -0.0156419 30.249 0.0381308C29.8553 0.0919034 29.4793 0.235912 29.1503 0.458922C30.1723 0.513298 31.1695 0.793337 32.0703 1.27892C33.3409 1.78508 34.4723 2.58733 35.3703 3.61892C35.39 3.64092 35.4009 3.6694 35.4009 3.69892C35.4009 3.72844 35.39 3.75692 35.3703 3.77892C34.9403 4.21892 34.1703 4.11892 33.6203 4.03892C33.0703 3.95892 32.8003 3.91892 32.3803 3.88892C32.2703 3.88892 31.2503 3.95892 31.6303 4.14892C32.7303 4.68892 34.1003 4.27892 35.2503 4.54892C35.3203 4.54892 35.3503 4.63892 35.3403 4.70892C35.1103 6.29892 32.6303 5.37892 32.0303 6.61892C33.2103 6.76892 34.1703 5.78892 35.3403 5.79892C35.3758 5.79883 35.41 5.8122 35.436 5.83633C35.4619 5.86046 35.4778 5.89355 35.4803 5.92892C35.6103 7.02892 34.0303 7.24892 33.3803 7.92892C34.2403 7.83892 34.9003 7.10892 35.7103 6.81892C35.7267 6.81279 35.7442 6.8103 35.7617 6.81164C35.7791 6.81299 35.796 6.81813 35.8113 6.8267C35.8265 6.83528 35.8397 6.84708 35.8499 6.86128C35.8601 6.87548 35.8671 6.89174 35.8703 6.90892C36.5103 8.61892 34.1503 10.1389 32.8003 10.5689C31.7838 10.9912 30.6584 11.0754 29.5903 10.8089C29.2419 10.6907 28.9068 10.5365 28.5903 10.3489C28.8504 10.796 29.1892 11.1924 29.5903 11.5189C29.5903 11.5189 34.0503 12.8389 38.1503 6.44892V4.44892L31.4203 0.148925Z" fill="#D1C0DE"/>
</g>
<path d="M38.29 4.40875L45.04 0.148754C45.3531 0.0330713 45.6869 -0.0160319 46.0201 0.00458124C46.3532 0.0251944 46.6784 0.115069 46.9748 0.268467C47.2713 0.421864 47.5324 0.635407 47.7417 0.895458C47.9509 1.15551 48.1036 1.45635 48.19 1.77875C48.19 1.77875 50.19 8.77875 46.85 11.4988C46.85 11.4988 42.38 12.8188 38.29 6.42875V4.40875Z" fill="#B17BB5"/>
<path opacity="0.1" d="M46.2404 7.13886C46.7004 6.59886 46.0304 6.13886 45.8104 5.57886C46.9504 5.57886 47.1104 3.98886 46.5704 3.22886C46.1604 2.65886 45.3004 2.67886 44.7204 2.36886C44.4704 2.22886 45.3104 1.87886 45.3804 1.86886H45.9404C46.2453 1.87581 46.5502 1.85237 46.8504 1.79886C46.8704 1.79653 46.8893 1.78878 46.9052 1.77643C46.9211 1.76409 46.9333 1.74763 46.9404 1.72886C47.1232 1.70887 47.3076 1.70887 47.4904 1.72886C47.4904 2.20886 47.8504 2.66886 47.8104 3.13886C47.7704 3.60886 47.2904 4.23886 47.3504 4.81886C47.4104 5.39886 47.6104 5.92886 47.6204 6.48886C47.623 6.7607 47.5672 7.02992 47.4568 7.27834C47.3463 7.52676 47.1839 7.74859 46.9804 7.92886C46.7613 8.15913 46.6333 8.46123 46.6204 8.77886C46.6204 9.17886 47.0504 9.39886 46.4204 9.69886C45.9987 9.89344 45.529 9.95927 45.0701 9.88812C44.6111 9.81697 44.1834 9.61199 43.8404 9.29886L44.0104 9.22886C44.0297 9.2238 44.0476 9.21438 44.0626 9.20132C44.0777 9.18827 44.0895 9.17193 44.0972 9.15357C44.105 9.13521 44.1084 9.11531 44.1072 9.09542C44.106 9.07553 44.1003 9.05618 44.0904 9.03886C43.9504 8.84886 43.8404 8.64886 43.6904 8.47886C44.0704 8.33886 44.2304 7.99886 44.6904 7.81886C45.1504 7.63886 45.8004 7.61886 46.2404 7.13886Z" fill="white"/>
<g style="mix-blend-mode:multiply">
<path d="M45.0401 0.148925C45.4168 0.0222772 45.8176 -0.0156419 46.2114 0.0381308C46.6051 0.0919034 46.9811 0.235912 47.3101 0.458922C46.2881 0.513298 45.2909 0.793337 44.3901 1.27892C43.1179 1.78742 41.9838 2.58917 41.0801 3.61892C41.066 3.64324 41.0586 3.67083 41.0586 3.69892C41.0586 3.72701 41.066 3.7546 41.0801 3.77892C41.3359 3.94972 41.6265 4.06163 41.9309 4.10659C42.2352 4.15155 42.5457 4.12844 42.8401 4.03892C43.2501 3.98892 43.6601 3.91892 44.0701 3.88892C44.1801 3.88892 45.2101 3.95892 44.8201 4.14892C43.7301 4.68892 42.3601 4.27892 41.2101 4.54892C41.1301 4.54892 41.1101 4.63892 41.1201 4.70892C41.3501 6.29892 43.8301 5.37892 44.4301 6.61892C43.2501 6.76892 42.2901 5.78892 41.1101 5.79892C41.0756 5.79892 41.0425 5.81262 41.0181 5.837C40.9938 5.86138 40.9801 5.89445 40.9801 5.92892C40.8501 7.02892 42.4301 7.24892 43.0801 7.92892C42.2101 7.83892 41.5601 7.10892 40.7501 6.81892C40.7337 6.81279 40.7162 6.8103 40.6987 6.81164C40.6813 6.81299 40.6644 6.81813 40.6491 6.8267C40.6339 6.83528 40.6207 6.84708 40.6105 6.86128C40.6003 6.87548 40.5933 6.89174 40.5901 6.90892C39.9401 8.61892 42.3101 10.1389 43.6601 10.5689C44.6766 10.9912 45.802 11.0754 46.8701 10.8089C47.2185 10.6907 47.5536 10.5365 47.8701 10.3489C47.61 10.796 47.2712 11.1924 46.8701 11.5189C46.8701 11.5189 42.4001 12.8389 38.3101 6.44892V4.44892L45.0401 0.148925Z" fill="#D1C0DE"/>
</g>
<path d="M38.9003 3.18872H37.5603C36.7042 3.18872 36.0103 3.88268 36.0103 4.73872V6.89872C36.0103 7.75476 36.7042 8.44872 37.5603 8.44872H38.9003C39.7563 8.44872 40.4503 7.75476 40.4503 6.89872V4.73872C40.4503 3.88268 39.7563 3.18872 38.9003 3.18872Z" fill="#B17BB5"/>
<g style="mix-blend-mode:multiply">
<path d="M40.2703 6.12875C40.3656 6.42881 40.3442 6.7538 40.2103 7.03875C40.1503 7.19875 39.9103 7.33875 39.7703 7.15875L39.6803 7.03875C39.4803 7.30875 39.4303 7.70875 39.1603 7.93875C39.0287 8.01699 38.881 8.06398 38.7284 8.07611C38.5759 8.08825 38.4225 8.06521 38.2803 8.00875C37.6503 7.86875 37.9203 7.35875 38.0403 6.94875C37.4103 7.03875 36.8603 6.36875 36.8103 5.71875C36.8279 5.51382 36.9016 5.31769 37.0233 5.15187C37.145 4.98606 37.31 4.85697 37.5003 4.77875C37.6303 4.70875 38.3103 4.47875 37.7803 4.43875C37.6135 4.42879 37.452 4.37722 37.3103 4.28875C37.2805 4.27125 37.2545 4.24799 37.2338 4.22032C37.2131 4.19266 37.1981 4.16115 37.1897 4.12763C37.1814 4.09412 37.1798 4.05927 37.185 4.02512C37.1902 3.99097 37.2022 3.95821 37.2203 3.92875C37.4189 3.63154 37.6779 3.37942 37.9803 3.18875H37.5603C37.3564 3.18742 37.1542 3.22661 36.9655 3.30403C36.7769 3.38146 36.6055 3.49558 36.4613 3.63977C36.3171 3.78397 36.203 3.95537 36.1256 4.14402C36.0481 4.33268 36.009 4.53483 36.0103 4.73875V6.89875C36.0103 7.30984 36.1736 7.70409 36.4643 7.99477C36.7549 8.28545 37.1492 8.44875 37.5603 8.44875H38.9003C39.3114 8.44875 39.7056 8.28545 39.9963 7.99477C40.287 7.70409 40.4503 7.30984 40.4503 6.89875V5.24875C40.2403 5.40875 40.2203 5.85875 40.2703 6.12875Z" fill="#D0ACD1"/>
</g>
<path opacity="0.1" d="M38.5603 3.70894C38.5066 3.73122 38.4612 3.76966 38.4303 3.81894C38.4592 3.88943 38.4592 3.96845 38.4303 4.03894C38.6203 4.11894 38.7503 4.26894 38.6803 4.65894C38.6446 4.7684 38.5698 4.86093 38.4703 4.91894C38.2203 5.33894 37.6203 4.91894 37.5903 5.60894C37.5903 5.99894 38.2403 5.91894 38.4703 6.24894C38.4974 6.26332 38.5212 6.2832 38.5401 6.30731C38.5591 6.33142 38.5728 6.35923 38.5803 6.38894C38.6 6.49806 38.6 6.60982 38.5803 6.71894C38.6149 6.81084 38.6785 6.88892 38.7616 6.94128C38.8446 6.99363 38.9425 7.0174 39.0403 7.00894C39.1232 6.74736 39.2924 6.52168 39.5203 6.36893C39.5538 6.34963 39.5917 6.33946 39.6303 6.33946C39.669 6.33946 39.7069 6.34963 39.7403 6.36893C39.7403 5.77893 39.4103 5.17894 39.9703 4.68894C39.9703 4.58894 39.9703 4.50894 39.8903 4.48894C39.7498 4.44607 39.6127 4.39258 39.4803 4.32894C39.4308 4.2938 39.3905 4.24732 39.3627 4.19338C39.3348 4.13945 39.3203 4.07963 39.3203 4.01894C39.3203 3.83894 39.3903 3.86894 39.3203 3.81894C39.1166 3.72254 38.8955 3.66813 38.6703 3.65894L38.5603 3.70894Z" fill="white"/>
<path d="M14.8501 64.6588C21.1586 62.975 26.6307 59.0364 30.2301 53.5888C30.2301 53.5888 31.9501 53.1788 31.7601 56.0788C31.7601 56.0788 30.1201 64.6688 15.2601 66.8688C15.2601 66.8688 13.0901 66.3588 14.8501 64.6588Z" fill="#F8B78F"/>
<g opacity="0.85">
<path d="M1.14145 78.6483C1.12136 78.2972 0.762743 77.7806 0.459701 77.7831C0.286528 75.0763 0.153742 72.6291 0.128641 70.9951C0.098735 69.0483 1.0143 69.1406 2.73868 68.3911C3.40548 68.1009 4.96678 67.5344 6.86951 66.8668C7.83837 67.2845 8.40309 66.8195 8.10323 66.437C10.0464 65.7618 12.3519 64.9718 14.2508 64.3281C15.283 64.861 15.9968 64.2565 15.482 63.92C17.2229 63.3312 18.2723 62.9791 18.7402 62.8165C19.9475 62.3997 20.8775 62.0676 22.0301 62.5084C22.4005 62.6511 23.5583 63.0659 25.7788 63.8542C25.4348 64.108 25.7576 64.5706 26.9068 64.2905C28.6902 64.9217 30.7025 65.5999 32.4759 66.2222C32.2168 66.5768 32.7006 67.0419 33.7257 66.6538C36.0318 67.4604 38.3099 68.2583 38.6889 68.3722C39.84 68.7164 40.4326 68.7458 40.5199 70.6931C40.55 71.373 40.5992 74.1224 40.6495 77.4884C40.0054 77.7496 40.0092 78.7253 40.6702 78.8348C40.7043 81.1911 40.7419 83.9147 40.7731 86.2157C40.025 86.4561 40.1078 87.651 40.7928 87.6356C40.8317 90.6266 40.8593 92.7429 40.8683 93.3251C40.896 95.1292 40.8992 95.3384 39.819 95.8709C39.4654 96.0457 37.6265 96.9027 35.2447 98.0095C35.0514 97.4532 34.108 97.5531 34.0021 98.5872C32.1137 99.4638 30.0134 100.439 28.0883 101.334C27.823 100.65 27.0462 100.884 26.8262 101.921C24.4278 103.035 22.4825 103.944 21.8691 104.242C20.7741 104.774 20.0488 105.086 18.4324 104.295C17.7737 103.973 15.9413 102.975 13.7423 101.768C13.5018 100.69 12.8315 100.566 12.7053 101.197C11.0394 100.28 9.24623 99.288 7.63391 98.4015C7.6952 97.8349 7.08195 97.1913 6.77902 97.9302C5.01492 96.9599 3.56507 96.1695 2.89834 95.8263C1.90778 95.3172 1.54397 94.6445 1.53222 93.8797C1.51677 92.8741 1.34733 90.7292 1.14482 87.8898C1.9995 87.7549 1.83834 86.6052 1.06123 86.3666C0.90646 84.2201 0.730589 81.7932 0.577623 79.5361C1.12001 79.4851 1.15828 78.9238 1.14283 78.6469" fill="white"/>
<path d="M33.5111 67.3051C36.079 68.2029 37.9418 68.805 38.3534 68.9932C38.5642 69.0901 38.679 69.4068 38.3924 69.5239C37.3573 69.9451 35.7525 70.5976 33.9196 71.3432C33.6107 71.4691 32.942 71.312 32.6946 71.2024C32.116 70.9446 30.1114 70.1754 28.2473 69.3935C28.1261 69.3421 28.0308 69.0146 28.3471 68.9181C30.2803 68.1835 31.7277 67.6286 32.5028 67.3311C32.7158 67.2488 33.3717 67.2555 33.5118 67.3044L33.5111 67.3051Z" fill="#006837"/>
<path d="M30.8403 66.3713C31.2275 66.5172 31.2468 66.8592 31.0582 66.9335C30.0272 67.3406 28.6571 67.8271 26.8905 68.5171C26.6477 68.6119 26.0424 68.5302 25.8063 68.4281C24.5704 67.8927 23.3017 67.4117 22.0412 66.8732C21.8516 66.7922 21.934 66.5515 22.1428 66.4699C23.6978 65.8615 24.9272 65.4248 25.7203 65.1074C26.2417 64.923 26.6863 64.8826 26.8707 64.9484C28.1924 65.418 29.3999 65.8286 30.8403 66.372L30.8403 66.3713Z" fill="#006837"/>
<path d="M24.5546 64.1203C24.746 64.1874 24.751 64.4687 24.5427 64.5769C23.6256 64.9325 22.4945 65.3433 20.8871 65.9622C20.6818 66.041 20.1889 66.1193 19.9423 66.0174C18.5842 65.4573 17.4405 65.0024 16.5591 64.6295C16.3478 64.546 16.4466 64.2799 16.6541 64.2067C18.2546 63.6389 19.3932 63.2589 19.5837 63.1782C20.5587 62.8119 20.89 62.8719 21.5221 63.0526C21.6957 63.1024 22.7924 63.5006 24.5553 64.1203L24.5546 64.1203Z" fill="#006837"/>
<path d="M9.68822 66.6828C11.2845 66.1137 12.7221 65.608 14.2202 65.0733C14.4994 64.9738 14.9053 64.9228 15.0603 64.9904C15.8368 65.3285 17.0101 65.7934 18.5878 66.4761C18.764 66.5525 18.7667 66.7331 18.5232 66.8271C17.0397 67.3994 15.5607 67.9512 14.0972 68.505C13.7834 68.6239 13.1886 68.5889 12.9399 68.4878C11.5425 67.9178 10.519 67.4995 9.59863 67.1392C9.41273 67.0664 9.44317 66.7699 9.68752 66.6828L9.68822 66.6828Z" fill="#006837"/>
<path d="M24.4645 68.9617C24.7111 69.0629 24.6648 69.3758 24.472 69.4481C23.014 69.9954 21.7261 70.4975 20.3359 71.0396C20.0581 71.1832 19.3231 71.0853 19.0061 70.9557C17.7974 70.4612 16.7078 70.023 15.4527 69.5166C15.2062 69.4175 15.3514 69.0737 15.5964 68.9818C16.9674 68.4658 18.3835 67.9289 19.7238 67.4183C20.0335 67.3002 20.4876 67.2932 20.7469 67.3991C21.9696 67.8976 23.2205 68.4496 24.4638 68.961L24.4645 68.9617Z" fill="#006837"/>
<path d="M31.5336 72.3075C30.1013 72.8923 28.6267 73.4938 27.2375 74.0597C27.0191 74.1484 26.3803 73.9343 26.133 73.8331L24.7038 73.2488C24.2204 73.0337 23.1606 72.6244 21.7856 72.0534C21.4671 71.9211 21.5661 71.4856 21.9155 71.3549C23.2392 70.86 24.5148 70.3735 25.8266 69.876C26.075 69.7819 26.6686 69.8316 26.8807 69.92C29.0807 70.8368 30.8863 71.5482 31.5256 71.8344C31.718 71.9204 31.7332 72.2253 31.5322 72.3089" fill="#006837"/>
<path d="M24.1972 74.2035C24.3931 74.2922 24.5678 74.3644 24.7271 74.439C25.1156 74.6213 25.0389 75.0053 24.8073 75.0999C22.6302 75.9957 21.0046 76.6625 20.5544 76.8374C19.0877 77.4094 18.6533 77.3349 16.9023 76.5799C16.6015 76.4509 15.2542 75.871 13.3355 74.9975C13.2763 74.9712 13.1561 74.7546 13.3307 74.684C13.9582 74.4301 13.7836 74.5028 14.4468 74.249C15.1711 73.9712 16.7417 73.3703 18.8756 72.5781C19.1895 72.4613 20.1726 72.5295 20.5608 72.6915C22.372 73.4469 23.526 73.9353 24.1965 74.2035L24.1972 74.2035Z" fill="#006837"/>
<path d="M11.3384 74.1254C9.91459 73.4802 9.09204 73.1093 7.61182 72.4384C7.46212 72.3532 7.46591 72.0528 7.60486 71.9849C7.81302 71.9117 7.18782 72.1306 7.60486 71.9849C8.33379 71.7294 10.6582 70.809 12.9786 69.9453C13.3322 69.8138 13.7879 69.9076 14.1041 70.0358C15.4987 70.6002 16.36 70.9902 17.7238 71.5502C18.0753 71.6946 18.0781 71.88 17.9389 71.9304C16.07 72.6136 14.8112 73.1397 14.19 73.3488C13.5988 73.5475 12.9971 73.8368 12.4194 74.0038C12.002 74.1243 11.6204 74.2527 11.3391 74.1254L11.3384 74.1254Z" fill="#006837"/>
<path d="M11.5597 68.8835C11.8893 69.0177 11.8763 69.3077 11.7071 69.3705C9.81338 70.0757 8.45533 70.5684 7.8098 70.831C7.18375 71.0856 7.21874 71.085 6.59215 71.3047C6.24405 71.4269 5.76472 71.5273 5.54408 71.4257C3.98756 70.7091 2.93482 70.2528 2.07761 69.8586C1.84275 69.697 2.01075 69.3787 2.18673 69.3067C2.36271 69.2348 2.3587 69.2467 2.46503 69.1975C2.74334 69.0882 4.62744 68.4384 7.13628 67.5396C7.37366 67.4548 7.93695 67.3978 8.2355 67.5129C9.03046 67.8192 10.1411 68.3075 11.5604 68.8842L11.5597 68.8835Z" fill="#006837"/>
<path d="M30.7662 68.9412C30.6514 68.985 30.649 69.146 30.7624 69.1932L31.1823 69.3681C31.2147 69.3816 31.2511 69.3817 31.2831 69.3693L32.0839 69.0589C32.1208 69.0443 32.1615 69.0472 32.196 69.0655L34.3406 70.0615C34.3759 70.0799 34.5504 70.0975 34.5873 70.0822L34.8329 69.9819C35.0758 69.8927 35.016 69.6921 34.9137 69.6383L33.0987 68.8186C32.9978 68.7655 33.0032 68.6192 33.1082 68.5741L33.4983 68.4058C33.6124 68.3564 33.6056 68.192 33.4874 68.1525L33.1891 68.0535C33.1596 68.0435 33.1274 68.0447 33.0982 68.0549L30.7669 68.9405L30.7662 68.9412Z" fill="white"/>
<path fill-rule="evenodd" clip-rule="evenodd" d="M24.7568 71.1474C24.6927 71.0749 24.7203 70.9597 24.8108 70.9247L25.4808 70.6617C25.5121 70.6493 25.5471 70.6488 25.5788 70.6602L29.252 71.9757C29.3731 72.0193 29.3764 72.1887 29.2575 72.2374L28.8944 72.3851C28.8617 72.3982 28.8253 72.3987 28.7922 72.3866L27.4489 71.8802C27.413 71.8668 27.3738 71.8688 27.3398 71.8847L26.7428 72.1675C26.656 72.2088 26.6353 72.3232 26.7029 72.3921L27.1907 72.8886C27.2604 72.9596 27.2363 73.0783 27.1445 73.1161L26.7633 73.2739C26.7084 73.2971 26.6445 73.282 26.6046 73.2371L24.7568 71.1488L24.7568 71.1474ZM26.1524 71.8714C26.1917 71.9191 26.2577 71.9356 26.3147 71.9116L26.652 71.7707C26.7682 71.722 26.7664 71.5568 26.6481 71.511L25.9826 71.2532C25.8482 71.2013 25.7323 71.3613 25.8243 71.4726L26.1531 71.8714L26.1524 71.8714Z" fill="white"/>
<path d="M20.8824 74.1383C20.92 74.121 20.9641 74.1203 21.0021 74.1365C21.838 74.51 22.0803 75.2035 20.4954 75.7794C18.8728 76.3692 18.2047 75.7964 17.3124 75.3523C16.4201 74.9083 16.7884 74.1361 17.7225 73.6633C18.5366 73.2504 19.4102 73.2573 20.1063 73.5511C20.2246 73.6011 20.2103 73.7623 20.0884 73.8034L19.6268 73.9581C19.5864 73.9714 19.5429 73.9671 19.5048 73.9474C19.0666 73.719 18.6839 73.7269 18.2623 73.9399C17.8219 74.1623 17.3393 74.5966 17.8792 74.8851C18.4191 75.1736 19.129 75.5925 19.966 75.3123C20.6547 75.0812 20.9286 74.8173 20.6187 74.5568C20.5201 74.4736 20.5182 74.3049 20.635 74.252L20.8825 74.139L20.8824 74.1383Z" fill="white"/>
<path d="M28.3322 66.2223C28.9674 66.5625 28.4524 67.2123 27.7568 67.491C27.0611 67.7698 26.62 67.8081 25.6552 67.3833C24.4664 66.8598 24.7127 66.1281 25.4561 65.8115C26.2704 65.4651 26.8396 65.5152 27.2427 65.7379C27.3295 65.7855 27.3229 65.9067 27.2376 65.957L26.9858 66.1058C26.9511 66.1266 26.9085 66.1308 26.8698 66.1181C26.5293 66.005 26.3966 65.9769 25.8812 66.1892C25.3359 66.4139 25.4421 66.721 26.0051 66.9223C26.5682 67.1236 26.9824 67.2524 27.5736 67.0032C28.1383 66.7649 28.0966 66.557 27.7862 66.489C27.7567 66.4824 27.7259 66.4878 27.6996 66.5015L27.3961 66.6587C27.3516 66.6818 27.2977 66.6791 27.256 66.6525L27.1895 66.6094C27.104 66.554 27.1042 66.4287 27.1901 66.3742L27.6857 66.0572C27.7169 66.0371 27.7546 66.0303 27.7911 66.0388C27.9078 66.0671 28.1769 66.1379 28.3329 66.2216L28.3322 66.2223Z" fill="white"/>
<path d="M19.9157 65.107C20.4648 65.3107 20.8472 65.2761 21.5954 64.9069C22.3429 64.5385 22.2967 63.9029 21.4585 63.6043C20.887 63.401 20.2071 63.4324 19.3953 63.8089C18.5836 64.186 18.8804 64.6455 19.9157 65.1063L19.9157 65.107ZM20.9418 63.8292C21.4531 64.0286 21.9033 64.3597 21.3357 64.5903C20.7688 64.8209 20.4494 64.7635 20.1715 64.6677C19.7538 64.4991 19.3439 64.2401 19.8449 64.0015C20.3452 63.7628 20.6386 63.7303 20.9418 63.8292Z" fill="white"/>
<path d="M14.427 67.6872C14.1996 67.7418 14.0434 67.7798 14.0181 67.7704L12.0676 67.1081C12.0416 67.0987 11.6601 66.9611 11.6601 66.9611C11.3715 66.6779 11.9364 66.5439 11.9466 66.5213L12.7051 66.2794C13.1433 66.1446 13.5098 65.9878 13.8729 65.9283C14.2352 65.8688 14.6977 65.8547 15.0457 65.9103C15.3938 65.9658 16.0034 66.2868 16.0556 66.7641C16.1279 67.4195 14.4277 67.6879 14.4277 67.6879L14.427 67.6872ZM14.1915 67.2113L14.6281 67.0688C14.9022 66.9547 15.013 66.8774 15.0577 66.7787C15.1443 66.5884 15.0992 66.3868 14.8567 66.2743C14.5522 66.132 14.4752 66.1787 14.1748 66.1756C13.8752 66.1725 13.5135 66.3174 13.0942 66.503L12.7403 66.6981L14.1915 67.2113Z" fill="white"/>
<path d="M20.1249 70.2595C20.1089 70.2654 20.0907 70.265 20.0751 70.2582L17.3489 69.1249C17.289 69.0999 17.2919 69.0144 17.3539 68.9939L17.9312 68.8002C17.9388 68.798 17.9465 68.7965 17.9549 68.7964L20.5414 68.8476C20.6191 68.8492 20.6412 68.7418 20.5694 68.7128L19.6657 68.3445C19.6079 68.3209 19.6074 68.2397 19.6637 68.2151L20.0747 68.0387C20.0913 68.0314 20.1102 68.0311 20.1271 68.0378L22.9732 69.1323C23.0351 69.1558 23.0323 69.2454 22.9682 69.2646L22.4436 69.4232C22.4359 69.4254 22.4282 69.4262 22.4198 69.4263L19.4625 69.287C19.3847 69.2833 19.3598 69.3908 19.4323 69.4211L20.6638 69.9405C20.723 69.9655 20.7201 70.0502 20.6595 70.0707L20.1248 70.2581L20.1249 70.2595Z" fill="white"/>
<path d="M12.4476 73.1927C12.4828 73.2111 12.5846 73.2767 12.6215 73.2622L15.1635 72.2425C15.4338 72.113 15.2282 71.944 15.109 71.887L14.974 71.8478C14.9416 71.8322 14.8139 71.8594 14.7798 71.8718L12.96 72.5108C12.9203 72.5247 12.7769 72.6207 12.4736 72.4763C12.0619 72.2803 12.6438 72.0684 12.76 72.026L13.8221 71.6345C13.9481 71.5878 13.9617 71.4231 13.8383 71.3669L13.5874 71.2539C13.5536 71.2383 13.5203 71.2619 13.4863 71.2764L11.8655 71.9369C11.5675 72.0373 11.5444 72.0874 11.2688 71.9621C10.7677 71.7346 11.4316 71.5775 11.5596 71.5279L12.6966 71.0883C12.8198 71.041 12.9177 70.9023 12.7979 70.8453L12.5609 70.7314C12.5278 70.7151 12.49 70.7135 12.4552 70.7267L9.93654 71.6711C9.81405 71.7171 9.80396 71.9713 9.92108 72.0318L12.4469 73.1928L12.4476 73.1927Z" fill="white"/>
<path fill-rule="evenodd" clip-rule="evenodd" d="M6.28783 68.291C7.16387 67.9521 7.31081 67.9036 7.82609 68.0931C8.07247 68.1838 8.20931 68.4344 8.18874 68.7357C8.16817 69.037 7.84617 69.2176 7.65218 69.3025C7.30245 69.4549 7.14624 69.5384 6.81629 69.6576C6.65381 69.7427 6.63695 69.8759 6.76878 69.9369L7.24039 70.1544C7.3553 70.2072 7.34666 70.3739 7.22619 70.4143L6.79445 70.5595C6.76172 70.5705 6.726 70.5689 6.69429 70.5554L4.23011 69.4859C4.123 69.4393 4.08946 69.2151 4.19221 69.1603C4.63727 68.9253 5.56797 68.545 6.28785 68.2924L6.28783 68.291ZM5.13494 69.1529C5.03765 69.1992 4.93203 69.2491 5.03337 69.2846L5.6857 69.5105C5.70259 69.5165 5.84618 69.5227 5.86436 69.5217C6.56844 69.38 7.12935 69.1222 7.29236 69.0259C7.45745 68.9282 7.69873 68.6872 7.46593 68.478C7.23243 68.2688 6.82297 68.4522 6.49341 68.551C6.10601 68.6669 5.5208 68.937 5.13564 69.1529L5.13494 69.1529Z" fill="white"/>
<path d="M40.3298 93.1752C40.3543 94.1365 40.1029 94.6248 39.2383 94.9817C38.9949 95.0834 37.7748 95.6699 35.833 96.576C35.3103 96.7241 34.9599 96.5614 34.9525 96.2116C34.928 95.0766 34.8849 93.3659 34.8405 91.2051C34.8295 90.6208 35.1797 89.9505 35.7625 89.7084C37.3531 89.0015 38.4045 88.5451 39.3433 88.1464C39.7605 87.9692 40.183 88.3106 40.1922 88.729C40.2439 91.0941 40.3174 92.6896 40.3305 93.1751" fill="#FF0000"/>
<path d="M34.2284 96.9286C34.1979 97.2223 33.8138 97.5096 33.5358 97.6399C31.9249 98.394 30.2948 99.1729 28.6094 99.9568C28.2251 100.136 27.8813 99.989 27.8635 99.5126C27.819 98.3499 27.798 96.5752 27.7451 94.0855C27.7386 93.5229 28.1162 93.0474 28.5709 92.8472C30.1227 92.1626 31.4834 91.6154 33.0456 90.9222C33.5002 90.7206 34.0998 90.9767 34.1095 91.4665C34.1631 94.0443 34.2079 95.9118 34.2284 96.9286Z" fill="#FF0000"/>
<path d="M26.9269 100.057C26.9367 100.559 26.464 100.914 26.1041 101.084C23.6658 102.249 22.0566 103.025 21.6293 103.181C20.8998 103.448 20.2004 103.441 20.1946 103.063C20.1548 101.745 20.113 98.4347 20.1119 97.6773C20.1088 96.7485 20.8929 96.2066 21.4836 95.9771C21.9561 95.7934 23.6911 95.0094 25.9256 94.0203C26.3142 93.8485 26.7995 94.1805 26.8064 94.4968C26.8574 96.9487 26.9025 98.8812 26.9269 100.057Z" fill="#FF0000"/>
<path d="M40.15 85.9853C40.1236 86.5443 39.8483 86.8985 39.6057 87.0051C38.7832 87.3684 37.2797 88.0033 35.3643 88.8488C35.0811 88.9162 34.8043 88.7573 34.7986 88.474C34.7546 86.3426 34.6747 84.1046 34.63 82.0586C34.6242 81.6814 34.791 81.1504 35.1423 81.0057C37.172 80.1717 38.4445 79.6258 39.3813 79.2299C39.6594 79.1122 40.0124 79.5345 40.0195 79.8613C40.0628 81.9038 40.1086 84.019 40.15 85.9853Z" fill="#FF0000"/>
<path d="M33.9576 88.4027C33.9662 88.9611 33.4876 89.702 33.001 89.9181C31.4409 90.6105 29.976 91.2518 28.4124 91.9429C28.03 92.1118 27.6044 91.6998 27.633 91.327C27.5924 89.325 27.5123 87.2978 27.4708 85.3273C27.4632 84.9684 27.6287 84.2183 28.0808 84.0272C29.6865 83.3467 31.3595 82.6196 32.9832 81.9276C33.2614 81.8093 33.7887 82.0546 33.7944 82.3338C33.8364 84.3343 33.9146 86.3308 33.9576 88.4027Z" fill="#FF0000"/>
<path d="M26.7309 91.8519C26.7384 92.3404 26.3602 92.7864 26.0821 92.9097C23.5584 94.0257 21.641 94.872 21.1455 95.0637C20.5175 95.1882 20.0605 95.0573 20.0519 94.4995C20.0322 93.2119 19.9587 88.4288 19.9517 87.9754C19.9447 87.5219 20.083 87.4085 20.6392 87.162C20.8825 87.0539 21.1209 86.9467 21.4041 86.8359C21.8717 86.6545 23.4184 86.0056 25.6466 85.0601C26.0638 84.8829 26.5606 85.3253 26.567 85.7445C26.6111 87.7933 26.688 89.7926 26.7309 91.8526L26.7309 91.8519Z" fill="#FF0000"/>
<path d="M39.9451 77.2039C39.9511 77.4585 39.6883 78.0785 39.365 78.2172C38.5604 78.562 37.1064 79.1849 35.3505 79.935C35.1051 80.0402 34.6013 79.9619 34.5946 79.5273C34.4875 77.1127 34.4684 75.3694 34.452 74.8013C34.4344 74.1583 34.4251 73.0504 34.4251 73.0504C34.42 72.7152 34.4088 72.1246 34.7232 71.9952C36.604 71.2201 38.0459 70.6772 38.9988 70.2832C39.2958 70.1604 39.7637 70.4528 39.776 70.7969C39.7891 71.1467 39.8713 73.8144 39.9444 77.2032L39.9451 77.2039Z" fill="#FF0000"/>
<path d="M33.8946 79.7774C33.9019 80.2519 33.5968 80.8046 33.0801 81.0246C31.5349 81.6818 29.9006 82.3747 28.3526 83.0305C27.8588 83.2397 27.5738 82.9116 27.5674 82.4924C27.5077 79.7453 27.4333 77.683 27.4157 77.0841C27.4102 76.8616 27.4067 76.5908 27.4049 76.3801C27.4002 75.7579 27.6627 75.0315 28.0453 74.8752C29.6667 74.2126 31 73.6587 32.6368 72.9896C32.8134 72.9169 33.3396 72.9046 33.5101 73.1155C33.727 73.4251 33.7593 73.8851 33.7845 74.7065C33.8011 75.2844 33.8419 77.2612 33.896 79.7795" fill="#FF0000"/>
<path d="M26.529 83.2447C26.5332 83.428 26.2931 83.7894 26.0156 83.9091C23.5193 84.9862 21.4805 85.8162 20.9851 86.0107C20.5294 86.1906 19.9721 85.9983 19.9316 85.6412C19.8911 85.2834 19.8276 78.8721 19.8276 78.8721C19.8276 78.8721 19.8097 78.1157 20.3015 77.9178C20.4901 77.8414 21.1688 77.5538 21.1688 77.5538C21.1688 77.5538 22.9349 76.7427 25.193 75.8779C25.5109 75.7456 26.3442 76.3166 26.3617 76.9581C26.3809 77.6165 26.4604 80.1008 26.5283 83.2454L26.529 83.2447Z" fill="#FF0000"/>
<path d="M21.8895 101.662C21.891 101.761 21.9928 101.827 22.0839 101.789L25.5527 100.317C25.607 100.294 25.6411 100.239 25.6381 100.181L25.6025 99.5471C25.5968 99.4485 25.4936 99.3864 25.404 99.4284L23.2384 100.435C23.1466 100.478 23.0413 100.412 23.0391 100.311L23.0263 99.5699C23.0254 99.5132 23.0589 99.4616 23.1104 99.4391L25.243 98.5167C25.2965 98.4935 25.3307 98.4391 25.327 98.3803L25.2875 97.6817C25.2818 97.5838 25.1794 97.5216 25.0897 97.5622L23.2011 98.42C23.1094 98.462 23.0048 98.3957 23.0032 98.2949L22.9911 97.5973C22.9902 97.5427 23.0217 97.4918 23.071 97.4686L25.4017 96.3647C25.4517 96.3408 25.4825 96.2907 25.4816 96.2354L25.4715 95.6679C25.47 95.5671 25.3653 95.5015 25.2736 95.5428L21.8925 97.0745C21.8418 97.0976 21.8097 97.1485 21.8105 97.2045L21.8888 101.663L21.8895 101.662Z" fill="white"/>
<path d="M29.3142 93.8896C29.253 93.9165 29.1651 93.9829 29.1535 94.0489C29.1272 94.1998 29.2278 97.6077 29.2546 98.483C29.2575 98.5816 29.3585 98.6452 29.4489 98.6067L30.1054 98.3285C30.1576 98.306 30.1918 98.2544 30.1909 98.1977L30.15 95.5329C30.148 95.4013 30.3115 95.34 30.397 95.4402L31.1448 96.3219C31.2147 96.4048 31.3487 96.3796 31.3835 96.2769L31.8017 95.0679C31.8527 94.9202 32.0716 94.9546 32.074 95.1114L32.1055 97.1604C32.107 97.2611 32.2116 97.3274 32.3034 97.2854L32.956 96.9863C33.0068 96.9631 33.0389 96.9122 33.038 96.8569L32.9707 92.4734C32.9692 92.3727 32.8645 92.3064 32.7728 92.3484L32.0812 92.6649C32.0527 92.6779 32.0286 92.7007 32.0143 92.7289L31.1591 94.4234C31.1142 94.5115 30.9948 94.5274 30.9292 94.4528L30.1884 93.6151C30.1485 93.5695 30.0832 93.5551 30.0276 93.5791L29.3135 93.8889L29.3142 93.8896Z" fill="white"/>
<path fill-rule="evenodd" clip-rule="evenodd" d="M30.3975 84.6679C30.4074 84.6258 30.4369 84.5903 30.4766 84.5729L31.4102 84.1575C31.4881 84.1227 31.5783 84.1654 31.602 84.247L32.809 88.501C32.8275 88.5672 32.7957 88.6369 32.7338 88.6659L32.2328 88.9018C32.1549 88.9387 32.0626 88.8967 32.0389 88.8138L31.7528 87.8193C31.7276 87.7322 31.6283 87.6917 31.5499 87.7363L30.5263 88.312C30.4916 88.3315 30.4669 88.3647 30.4584 88.4034L30.138 89.8264C30.1282 89.8707 30.0972 89.9068 30.0555 89.925L29.2752 90.2533C29.1695 90.2977 29.0581 90.2028 29.0851 90.0911L30.3989 84.6686L30.3975 84.6679ZM30.685 87.0686C30.6532 87.1859 30.7765 87.2855 30.8849 87.2293L31.3661 86.979C31.4244 86.9487 31.4535 86.8818 31.4364 86.8183L31.2293 86.0474C31.1922 85.9093 30.9962 85.9089 30.9591 86.0473L30.685 87.0686Z" fill="white"/>
<path d="M25.515 90.279C25.5406 91.9494 24.9145 92.1053 23.5419 92.7452C22.1693 93.3857 21.5559 92.1842 21.5286 90.4095C21.5014 88.6349 22.1565 87.9955 23.6268 87.3843C24.659 86.9554 25.4236 87.7515 25.4882 88.7157C25.4919 88.7758 25.4535 88.8303 25.3964 88.8501L24.508 89.1549C24.4181 89.1857 24.3254 89.1199 24.3233 89.0248C24.3149 88.6182 24.2532 88.335 23.5113 88.569C22.6566 88.8383 22.5551 89.5643 22.5678 90.3936C22.5806 91.2228 22.882 91.8887 23.5265 91.7417C24.0977 91.6111 24.3459 91.1789 24.4231 90.645C24.4376 90.5454 24.3399 90.4713 24.2452 90.5043L23.7948 90.6617C23.7049 90.6932 23.6101 90.6274 23.6087 90.5316L23.6004 89.9934C23.5995 89.9318 23.6385 89.8773 23.697 89.8582L25.3261 89.3265C25.4138 89.2978 25.503 89.3601 25.5044 89.4518C25.5074 89.6498 25.5101 89.962 25.515 90.2783L25.515 90.279Z" fill="white"/>
<path d="M39.3058 92.5469C39.2467 93.7623 38.9544 94.2798 37.699 94.8003C36.4435 95.3207 36.0065 94.2075 36.0867 92.5964C36.1493 91.3383 36.5118 90.651 37.763 90.0858C39.0143 89.5206 39.3855 90.9008 39.3058 92.5469ZM36.9503 92.9492C36.9601 93.5881 37.0058 94.2825 37.7522 93.9357C38.4986 93.589 38.5017 92.6034 38.4919 91.9645C38.482 91.3256 38.5183 90.5873 37.7409 90.9261C36.9636 91.2649 36.9405 92.311 36.9503 92.9492Z" fill="white"/>
<path d="M36.8854 81.9736C36.8839 81.8785 36.801 81.8153 36.7267 81.8529L36.0502 82.1944C36.0078 82.2153 35.9813 82.2647 35.9821 82.3186C35.9821 82.3186 35.8435 87.009 36.0751 87.1406C36.306 87.2714 36.9201 86.9253 36.9201 86.9253L39.2395 85.902C39.2811 85.8804 39.3077 85.8317 39.3069 85.7778L39.2964 85.0969C39.2949 85.0017 39.2114 84.9379 39.137 84.9762L37.1025 85.8117C37.0282 85.8499 36.9446 85.7868 36.9432 85.6909L36.8861 81.9736L36.8854 81.9736Z" fill="white"/>
<path d="M36.6326 73.0228C36.6311 72.9241 36.5489 72.8582 36.4753 72.8971L35.806 73.2517C35.7643 73.2741 35.7378 73.3249 35.7387 73.3809C35.7387 73.3809 35.6057 78.2546 35.8338 78.3911C36.0627 78.5276 36.6704 78.1683 36.6704 78.1683L38.9653 77.1062C39.0063 77.0838 39.0328 77.033 39.0319 76.9771L39.021 76.2696C39.0195 76.1702 38.9366 76.1043 38.863 76.1439L36.8493 77.0106C36.7757 77.0502 36.6928 76.9843 36.6912 76.8849L36.6319 73.0221L36.6326 73.0228Z" fill="white"/>
<path d="M28.9235 81.1878C28.9271 81.2878 29.031 81.352 29.122 81.31L32.4882 79.766C32.5397 79.7428 32.5717 79.6905 32.5695 79.6338L32.546 78.9286C32.5424 78.8286 32.4385 78.7644 32.3475 78.8064L30.2339 79.7817C30.1428 79.8237 30.039 79.7595 30.0353 79.6595L30.0096 78.8969C30.008 78.8402 30.0408 78.7879 30.0923 78.7641L32.2078 77.8216C32.2599 77.7984 32.2927 77.7461 32.2904 77.6887L32.2645 76.9143C32.2609 76.815 32.1584 76.7507 32.068 76.7913L30.1597 77.6417C30.0693 77.6823 29.9662 77.6181 29.9632 77.5187L29.9336 76.6393C29.932 76.5812 29.9662 76.5275 30.0198 76.5057L32.404 75.5129C32.4575 75.4904 32.4917 75.4374 32.4901 75.3793L32.4719 74.8294C32.4683 74.7315 32.3679 74.6672 32.2775 74.705L28.8453 76.1472C28.7918 76.1697 28.7576 76.2227 28.7599 76.2808L28.9241 81.1863L28.9235 81.1878Z" fill="white"/>
<path d="M21.3707 79.2818C21.3698 79.2251 21.4033 79.1735 21.4555 79.151L22.3135 78.7829C22.4053 78.7437 22.5071 78.8101 22.5087 78.9094L22.5342 80.5735C22.5358 80.675 22.6411 80.7406 22.7328 80.6986L24.1243 80.0556C24.1743 80.0325 24.2064 79.9816 24.2056 79.9263L24.1775 78.1005C24.1767 78.0453 24.2081 77.9944 24.2589 77.9712L25.1019 77.5796C25.1936 77.5369 25.2989 77.6031 25.3012 77.7046L25.3824 82.7165C25.3832 82.7717 25.3518 82.8226 25.3011 82.8458L24.4587 83.2374C24.367 83.2801 24.2617 83.2138 24.2601 83.1124L24.2342 81.4238C24.2326 81.3223 24.1273 81.256 24.0356 81.2987L22.6448 81.9417C22.5948 81.9648 22.5627 82.0157 22.5635 82.071L22.5933 84.0059C22.5941 84.0626 22.5606 84.1142 22.5085 84.1367L21.6497 84.5048C21.5579 84.544 21.4561 84.4777 21.4546 84.3783L21.3721 79.2818L21.3707 79.2818Z" fill="white"/>
<path d="M19.2669 103.001C19.2805 103.431 18.8235 103.709 18.5415 103.573C18.2589 103.402 16.4349 102.409 14.0277 101.081C13.8159 100.965 13.7183 100.63 13.7005 100.244C13.6498 99.174 13.509 97.1204 13.4049 94.6701C13.3917 94.3546 13.709 93.964 13.956 94.1352C15.6054 94.9771 16.7437 95.5777 17.0276 95.6994L18.5364 96.451C18.9462 96.6554 19.173 97.0698 19.1789 97.3182C19.2148 98.698 19.255 102.637 19.2662 103.001L19.2669 103.001Z" fill="#F7931E"/>
<path d="M11.9116 99.9638C10.5992 99.2364 9.27071 98.5107 8.06504 97.8503C7.71209 97.6569 7.36826 97.0546 7.34587 96.5993C7.29568 95.5648 7.248 93.8738 7.13001 91.6609C7.10358 91.1706 7.39735 90.8378 7.75014 91.0207C9.10625 91.7229 10.3476 92.3345 11.6528 93.0074C12.0595 93.1895 12.4031 93.8233 12.4176 94.1737C12.5112 96.4408 12.6613 98.3263 12.7099 99.5316C12.7221 99.824 12.1587 100.101 11.9116 99.9645L11.9116 99.9638Z" fill="#F7931E"/>
<path d="M2.6761 88.4318C3.42319 88.8116 4.21889 89.2116 5.41255 89.819C5.74482 89.9882 6.28395 90.4545 6.31196 90.956C6.42354 92.9799 6.50182 94.7041 6.56434 95.9029C6.58411 96.2785 6.11156 96.684 5.9048 96.5752C5.22949 96.2202 5.90831 96.5758 4.33998 95.7278C2.24414 94.7142 2.3069 94.0609 2.26038 93.4932C2.24646 93.3157 2.16075 91.7008 1.98104 89.0696C1.95222 88.6515 2.32125 88.251 2.6768 88.4318L2.6761 88.4318Z" fill="#F7931E"/>
<path d="M12.3066 91.517C12.3191 91.8318 11.956 92.1174 11.7196 91.9943C10.3988 91.3084 8.73517 90.4996 7.40792 89.8074C7.48694 89.8482 7.32957 89.7652 7.40792 89.8074C7.19978 89.7 7.0284 89.3883 7.01384 89.0785C6.90683 86.8963 6.77564 84.9181 6.71207 82.7387C6.71213 82.2417 7.20542 82.0018 7.42895 82.1089C8.71453 82.731 9.95797 83.2985 11.2153 83.905C11.8115 84.2108 11.952 84.8386 11.9652 85.1534C12.0517 87.2274 12.2199 89.3856 12.3066 91.5163L12.3066 91.517Z" fill="#F7931E"/>
<path d="M5.57687 88.8758C4.02121 88.078 3.01824 87.581 2.30746 87.2412C1.95045 86.966 1.85253 86.6519 1.83615 86.4057C1.69814 84.3017 1.63313 82.1202 1.48994 79.9525C1.47163 79.6721 1.67476 79.3624 1.87008 79.4553C2.68025 79.8412 3.82064 80.3528 5.20832 81.014C5.59824 81.1536 5.83865 81.6762 5.85861 82.0189C5.87116 82.2434 5.87659 82.3686 5.8899 82.5973C5.99452 84.5325 6.06039 86.3597 6.16781 88.3404C6.18844 88.7264 5.77583 88.9784 5.57687 88.8758Z" fill="#F7931E"/>
<path d="M13.2249 91.9496C13.1359 89.8035 13.0034 87.6482 12.9148 85.5266C12.9004 85.1762 13.3443 84.916 13.5756 85.0251C15.363 85.8712 16.7198 86.5314 17.0129 86.6564C17.7928 87.0301 17.4382 86.8606 18.2886 87.2682C18.6299 87.4323 19.0336 87.6991 19.0395 88.0798C19.0621 89.5529 19.1112 95.0258 19.1478 95.1309C19.1844 95.2353 18.9408 95.4148 18.6595 95.4191C18.2683 95.4251 18.0229 95.2182 17.456 94.9462C17.16 94.8192 15.771 94.0684 13.9071 93.1192C13.5558 92.9398 13.2293 92.3289 13.2235 91.9496L13.2249 91.9496Z" fill="#F7931E"/>
<path d="M18.8945 79.2415C18.9186 80.8112 19.0093 84.7519 18.9888 85.3801C18.9684 86.0083 18.4081 86.2178 17.0025 85.6199C16.6953 85.4895 15.5237 84.9483 13.5205 83.9991C13.0629 83.7822 12.8115 83.3205 12.8044 82.8587C12.6734 79.706 12.5217 77.3502 12.5044 76.9528C12.499 76.8262 12.4999 76.5665 12.4966 76.4441C12.4853 76.0257 13.1596 75.9033 13.3978 76.0117C15.0169 76.7442 16.1821 77.2771 16.4569 77.3947C17.0671 77.6555 17.4059 77.7987 17.9687 78.0693C18.5469 78.3474 18.8855 78.6579 18.8945 79.2408L18.8945 79.2415Z" fill="#F7931E"/>
<path d="M11.8151 82.2845C11.8295 82.6336 11.4066 82.9901 11.054 82.8198C9.68174 82.1577 8.5856 81.6559 7.21541 80.9938C6.65196 80.721 6.54807 80.064 6.53202 79.7478C6.38716 77.0615 6.28361 74.9689 6.24058 74.4459C6.23308 73.9575 6.19111 73.5039 6.29287 73.293C6.39462 73.0822 6.68983 73.0251 6.82589 73.0881C8.27032 73.7533 9.46303 74.2537 10.8623 74.8978C11.1439 74.9985 11.4295 75.4127 11.5102 76.11C11.5158 76.4746 11.5483 76.9025 11.5624 77.2263C11.5793 77.5998 11.6954 79.4179 11.8151 82.2845Z" fill="#F7931E"/>
<path d="M4.94799 79.9044C3.39392 79.1646 2.49327 78.7676 1.82269 78.4468C1.61399 78.3485 1.31195 77.9605 1.28982 77.5227C1.13635 74.6405 0.984136 72.2042 0.935476 71.1781C0.916968 70.7934 1.25558 70.5544 1.45646 70.6451C2.28046 71.0195 3.34022 71.4771 4.86485 72.1684C5.01709 72.2367 5.32866 72.5161 5.37065 72.9711C5.37981 73.5674 5.40968 74.0996 5.43043 74.5843C5.44751 74.9669 5.54126 77.015 5.68461 79.6481C5.68998 79.998 5.1604 79.9712 4.94799 79.9044Z" fill="#F7931E"/>
<path d="M14.4928 100.231C14.4949 100.28 14.5229 100.325 14.5667 100.349L17.646 102.003C17.7399 102.053 17.8536 101.984 17.852 101.877L17.8424 101.253C17.8416 101.202 17.8129 101.156 17.7684 101.132L15.5531 99.9507C15.5086 99.9268 15.4799 99.8804 15.4791 99.83L15.4675 99.1638C15.4659 99.0589 15.5761 98.9893 15.6699 99.0361L17.2895 99.8477C17.3833 99.8946 17.4936 99.8257 17.4919 99.7207L17.4827 99.1175C17.4819 99.065 17.4517 99.0172 17.4045 98.9941L15.5362 98.0743C15.4889 98.0513 15.4581 98.0027 15.458 97.9495L15.4542 97.3868C15.4533 97.2819 15.5642 97.2137 15.6581 97.2612L17.5841 98.2452C17.6772 98.2927 17.7881 98.2245 17.7879 98.1195L17.7842 97.512C17.7834 97.4596 17.7547 97.4124 17.7081 97.3886L14.5283 95.7555C14.4331 95.7065 14.3201 95.7783 14.3245 95.8853L14.4921 100.231L14.4928 100.231Z" fill="white"/>
<path d="M10.5771 94.0216C10.6038 93.9385 10.6984 93.9 10.7753 93.9401L11.301 94.2169C11.3603 94.2482 11.3894 94.3171 11.3701 94.3817L10.2893 97.9345C10.2633 98.021 10.1631 98.0604 10.0854 98.0147L9.2323 97.5203C9.19839 97.5005 9.17409 97.4673 9.1658 97.4289L8.14901 92.752C8.12414 92.6369 8.24312 92.5448 8.34822 92.5971L8.97882 92.9122C9.01691 92.9312 9.04405 92.9665 9.05309 93.0083L9.68364 95.963C9.7138 96.1032 9.90994 96.1135 9.95403 95.9763L10.5778 94.0215L10.5771 94.0216Z" fill="white"/>
<path d="M2.89735 92.6975C2.99982 93.8089 3.2463 94.2706 4.22783 94.693C5.20866 95.1154 5.48947 94.0758 5.35204 92.6024C5.24478 91.4519 4.93646 90.8379 3.9564 90.3742C2.97635 89.9112 2.75873 91.1919 2.89735 92.6975ZM4.71013 92.9636C4.73313 93.5492 4.73104 94.1883 4.14639 93.9026C3.56174 93.6169 3.51287 92.714 3.48988 92.1284C3.46688 91.5429 3.4047 90.867 4.01302 91.144C4.62134 91.4209 4.68784 92.3781 4.71083 92.9636L4.71013 92.9636Z" fill="white"/>
<path d="M3.13008 81.9385C3.12236 81.8462 3.12471 81.5886 3.01866 81.5202C3.01866 81.5202 2.52343 81.1778 2.34849 81.1805C2.26171 81.1818 2.24244 81.3396 2.24674 81.3921C2.24674 81.3921 2.4203 85.9923 2.6593 86.1041C2.89831 86.216 4.78739 87.3027 4.78739 87.3027C4.89289 87.336 4.99732 87.2994 5.02963 87.124L5.02264 86.6691C5.01492 86.5768 4.94836 86.3903 4.77234 86.323L3.35932 85.4697L3.13008 81.9385Z" fill="white"/>
<path d="M8.60779 84.2368C8.59539 84.2041 8.57187 84.1772 8.54152 84.1608L7.95516 83.8549C7.84226 83.7957 7.71516 83.9061 7.75831 84.0266L9.01453 87.5218C9.01965 87.5364 9.02269 87.5517 9.02292 87.5671L9.05047 89.3607C9.05126 89.4118 9.07998 89.4589 9.12585 89.4827L9.68681 89.7758C9.78066 89.8247 9.89299 89.7558 9.89136 89.6495L9.86649 88.0308C9.86625 88.0147 9.86879 87.9979 9.87415 87.9824L10.7698 85.4089C10.7939 85.34 10.7612 85.2649 10.695 85.2351L10.1812 85.0057C10.1044 84.9712 10.0154 85.0117 9.99004 85.0919L9.6253 86.2727C9.58597 86.4007 9.40616 86.4056 9.36012 86.2796L8.60779 84.2368Z" fill="white"/>
<path fill-rule="evenodd" clip-rule="evenodd" d="M14.9083 78.2347C15.5824 78.3301 16.6404 78.6722 17.1086 79.3944C17.5774 80.1165 17.5357 80.4091 17.5163 80.7376C17.4968 81.0662 17.3161 81.3756 16.9717 81.6482C16.6501 81.9031 16.1355 82.2134 15.1735 81.7823C15.0762 81.739 14.9632 81.8086 14.9648 81.915L14.9835 83.1333C14.9852 83.239 14.8735 83.3086 14.7797 83.2596L13.9959 82.858C13.9507 82.8349 13.9213 82.7884 13.9198 82.7374L13.7862 78.3647C13.7844 78.2989 13.8283 78.2408 13.8933 78.2307C14.0665 78.2036 14.432 78.1672 14.9083 78.2347ZM14.9806 79.2997C14.905 79.2966 14.8451 79.3605 14.8463 79.4361L14.8643 80.6132C14.8651 80.665 14.8946 80.7121 14.9411 80.7352C15.7057 81.1161 16.0676 81.1645 16.3693 81.024C16.6806 80.8786 16.6414 80.5579 16.602 80.317C16.5626 80.0761 16.3053 79.7791 16.104 79.6569C15.9196 79.5449 15.4828 79.3179 14.9799 79.299L14.9806 79.2997Z" fill="white"/>
<path fill-rule="evenodd" clip-rule="evenodd" d="M15.191 87.5394C15.8651 87.6348 16.9231 87.9769 17.3913 88.6991C17.8602 89.4212 17.8184 89.7137 17.799 90.0423C17.7795 90.3709 17.5988 90.6803 17.2544 90.9529C16.9329 91.2078 16.4183 91.518 15.4562 91.0869C15.3589 91.0436 15.2459 91.1133 15.2475 91.2196L15.2663 92.438C15.2679 92.5436 15.1563 92.6133 15.0624 92.5643L14.2786 92.1627C14.2334 92.1396 14.204 92.0931 14.2025 92.042L14.0689 87.6694C14.0672 87.6036 14.1111 87.5455 14.176 87.5354C14.3492 87.5083 14.7147 87.4719 15.191 87.5394ZM15.2634 88.6044C15.1877 88.6013 15.1278 88.6652 15.129 88.7408L15.147 89.9179C15.1478 89.9696 15.1773 90.0168 15.2238 90.0399C15.9884 90.4208 16.3503 90.4691 16.652 90.3287C16.9633 90.1832 16.9241 89.8626 16.8847 89.6217C16.8453 89.3808 16.588 89.0838 16.3867 88.9616C16.2023 88.8496 15.7655 88.6225 15.2627 88.6037L15.2634 88.6044Z" fill="white"/>
<path fill-rule="evenodd" clip-rule="evenodd" d="M9.48973 75.8723C9.48069 75.8304 9.45354 75.7944 9.41475 75.7754L8.58953 75.3674C8.51124 75.3287 8.41668 75.3701 8.39278 75.4544L7.21693 79.561C7.19832 79.6249 7.22806 79.6931 7.28663 79.7237L7.71987 79.9494C7.79819 79.9902 7.89415 79.9488 7.91875 79.8645L8.19133 78.9265C8.21726 78.8372 8.32094 78.7978 8.39938 78.8463L9.30467 79.4085C9.33788 79.429 9.3608 79.4629 9.36838 79.5006L9.63535 80.8866C9.64373 80.9306 9.673 80.9679 9.71319 80.9869L10.3949 81.3061C10.4993 81.3549 10.6148 81.2636 10.5913 81.1505L9.48904 75.873L9.48973 75.8723ZM9.18089 78.1862C9.20863 78.3054 9.08059 78.4005 8.97466 78.3391L8.56647 78.1039C8.51139 78.0726 8.48449 78.0072 8.50105 77.946L8.69119 77.2467C8.72964 77.1068 8.92918 77.11 8.96285 77.2516L9.18089 78.1862Z" fill="white"/>
<path d="M4.46292 73.5892C4.46076 73.5396 4.43137 73.4945 4.38691 73.4714L3.89374 73.2172C3.79778 73.1676 3.68481 73.2407 3.68997 73.3484L3.76368 74.8207C3.76887 74.9305 3.6517 75.0037 3.55568 74.9499L2.69362 74.4675C2.65126 74.4437 2.6247 74.4007 2.62186 74.3525L2.53498 72.6158C2.53284 72.5675 2.50558 72.5246 2.46392 72.5007L1.97956 72.2281C1.88354 72.1743 1.76566 72.2468 1.77086 72.3573L2.00235 77.0379C2.00449 77.0862 2.03175 77.1291 2.07341 77.153L2.55777 77.4256C2.65379 77.4794 2.77167 77.4069 2.76647 77.2964L2.69177 75.8052C2.68658 75.6954 2.80375 75.6222 2.89977 75.676L3.76183 76.1583C3.8042 76.1822 3.83075 76.2252 3.83359 76.2734L3.92554 78.1122C3.9277 78.1619 3.95709 78.2069 4.00154 78.23L4.49542 78.4842C4.59137 78.5338 4.70434 78.4607 4.69919 78.353L4.46362 73.5892L4.46292 73.5892Z" fill="white"/>
</g>
</svg>
