<svg width="55" height="109" viewBox="0 0 55 109" fill="none" xmlns="http://www.w3.org/2000/svg">
<g opacity="0.85">
<path d="M0.885914 81.8778C0.871368 81.53 0.524345 81.0133 0.224423 81.0112C0.0942024 78.3299 0 75.9063 0 74.289C0 72.362 0.904616 72.4673 2.62242 71.7517C3.28668 71.4747 4.84032 70.9379 6.73336 70.3061C7.68577 70.7342 8.25168 70.2826 7.96076 69.8996C9.89398 69.2609 12.1874 68.5142 14.0763 67.9061C15.0896 68.4491 15.8052 67.8617 15.3009 67.521C17.0326 66.9647 18.0764 66.6323 18.5419 66.4785C19.7429 66.0844 20.6683 65.7699 21.8022 66.2236C22.1666 66.3704 23.306 66.7985 25.4913 67.6124C25.1471 67.8583 25.4595 68.321 26.601 68.0612C28.3562 68.713 30.3372 69.4147 32.0827 70.0575C31.8209 70.4045 32.2926 70.8721 33.3129 70.5036C35.5827 71.3368 37.8249 72.1611 38.1982 72.2795C39.3321 72.6376 39.9181 72.6757 39.9749 74.6041C39.9943 75.2774 40.0012 77.9988 39.9998 81.3306C39.3584 81.5792 39.3473 82.5448 39.9998 82.6632C39.9977 84.9954 39.9936 87.6913 39.9894 89.9687C39.2455 90.1952 39.3092 91.379 39.9874 91.3741C39.9804 94.3346 39.9756 96.4292 39.9756 97.0055C39.9756 98.7912 39.9756 98.9983 38.8985 99.5088C38.5459 99.6764 36.7132 100.497 34.3394 101.556C34.1565 101.002 33.2214 101.087 33.1009 102.108C31.219 102.947 29.1257 103.88 27.2071 104.736C26.9549 104.056 26.1826 104.276 25.9492 105.298C23.5588 106.365 21.6201 107.234 21.0084 107.52C19.9168 108.029 19.1943 108.327 17.6068 107.52C16.9598 107.191 15.1617 106.176 13.004 104.948C12.7824 103.878 12.1209 103.745 11.9865 104.367C10.3518 103.434 8.59247 102.426 7.01043 101.524C7.0797 100.964 6.48262 100.318 6.17162 101.044C4.44065 100.057 3.01793 99.2532 2.36336 98.9034C1.39086 98.3846 1.04107 97.7134 1.04107 96.9563C1.04107 95.961 0.906002 93.8359 0.748768 91.023C1.59659 90.9024 1.45459 89.7623 0.689199 89.5144C0.568676 87.3879 0.431528 84.9836 0.314468 82.7477C0.851974 82.7055 0.898383 82.1507 0.8873 81.8764" fill="white"/>
<path d="M33.0906 71.145C35.6181 72.0725 37.4523 72.6966 37.8568 72.8892C38.0639 72.9882 38.1726 73.3034 37.8873 73.4149C36.8566 73.816 35.2586 74.4373 33.4335 75.1472C33.1259 75.2671 32.4665 75.1015 32.2234 74.9893C31.6547 74.7254 29.6827 73.9337 27.8499 73.1316C27.7308 73.079 27.6414 72.7534 27.9559 72.6627C29.8801 71.9652 31.3208 71.438 32.0925 71.1554C32.3044 71.0772 32.9534 71.0938 33.0913 71.1444L33.0906 71.145Z" fill="#006837"/>
<path d="M30.4621 70.1802C30.843 70.3305 30.8569 70.6692 30.6692 70.7399C29.6427 71.1271 28.2795 71.5877 26.5208 72.2436C26.2791 72.3337 25.6813 72.2436 25.4493 72.139C24.2344 71.5904 22.9862 71.0952 21.747 70.5431C21.5607 70.46 21.6459 70.2231 21.8537 70.1456C23.4018 69.5672 24.625 69.1537 25.4147 68.8517C25.9335 68.6771 26.374 68.6439 26.5555 68.7117C27.8563 69.1966 29.0449 69.6212 30.4621 70.1809V70.1802Z" fill="#006837"/>
<path d="M24.2756 67.8568C24.464 67.9261 24.4647 68.2045 24.2569 68.3084C23.344 68.6465 22.2184 69.0357 20.6184 69.6238C20.414 69.6986 19.925 69.7686 19.6826 69.664C18.3471 69.0891 17.2222 68.6215 16.3557 68.2392C16.1479 68.1533 16.2498 67.8915 16.4562 67.8222C18.0486 67.2847 19.1811 66.9259 19.3709 66.849C20.3413 66.5013 20.6682 66.5657 21.2909 66.7541C21.462 66.8061 22.5412 67.2168 24.2763 67.8568H24.2756Z" fill="#006837"/>
<path d="M9.52554 70.1669C11.1138 69.628 12.5442 69.1494 14.0348 68.6431C14.3125 68.5489 14.715 68.5045 14.8673 68.5738C15.6307 68.9201 16.7846 69.3981 18.3355 70.0977C18.5087 70.1759 18.5087 70.3546 18.2662 70.444C16.7895 70.9877 15.3176 71.5114 13.8609 72.0371C13.5485 72.15 12.9604 72.1064 12.7159 72.0025C11.3417 71.4172 10.3353 70.9877 9.42995 70.6172C9.24709 70.5423 9.28172 70.2494 9.52485 70.1669H9.52554Z" fill="#006837"/>
<path d="M24.1128 72.6466C24.3553 72.7505 24.3047 73.0594 24.1128 73.128C22.6617 73.6475 21.3796 74.1247 19.9956 74.6401C19.7186 74.7779 18.9927 74.6699 18.681 74.5369C17.4924 74.0292 16.4208 73.5789 15.1865 73.0587C14.9441 72.9569 15.093 72.6189 15.3368 72.5316C16.7013 72.0419 18.1109 71.5321 19.445 71.0472C19.7532 70.935 20.2027 70.935 20.4576 71.0438C21.6601 71.5557 22.8896 72.1209 24.1121 72.6459L24.1128 72.6466Z" fill="#006837"/>
<path d="M31.0575 76.065C29.6314 76.6219 28.1629 77.1947 26.7797 77.7336C26.5622 77.8181 25.9332 77.5965 25.6901 77.4926L24.2847 76.8927C23.8095 76.6725 22.7671 76.2513 21.415 75.6653C21.1019 75.5296 21.2065 75.1001 21.5542 74.9761C22.8717 74.5065 24.1413 74.0445 25.447 73.5721C25.6943 73.4828 26.281 73.5409 26.4894 73.6317C28.6526 74.5723 30.4286 75.3038 31.0569 75.5968C31.246 75.6847 31.2563 75.9867 31.0562 76.0664" fill="#006837"/>
<path d="M23.7689 77.8299C23.9615 77.9206 24.1332 77.9947 24.2898 78.0709C24.6714 78.2572 24.5897 78.6361 24.359 78.7262C22.191 79.5795 20.5723 80.2147 20.1241 80.3809C18.664 80.9247 18.2352 80.8443 16.514 80.0706C16.2182 79.9383 14.8938 79.344 13.0084 78.4505C12.9502 78.4235 12.8345 78.2074 13.0084 78.1402C13.6332 77.8984 13.4593 77.9677 14.1194 77.7267C14.8405 77.4628 16.4038 76.892 18.5275 76.1405C18.8399 76.0296 19.8117 76.1121 20.1934 76.2783C21.9742 77.0534 23.1088 77.5542 23.7682 77.8299H23.7689Z" fill="#006837"/>
<path d="M11.0451 77.5569C9.64588 76.8968 8.83755 76.5172 7.38296 75.8308C7.23611 75.7442 7.24443 75.447 7.38296 75.3819C7.59006 75.3127 6.96805 75.5198 7.38296 75.3819C8.10817 75.1402 10.4224 74.2647 12.7317 73.4452C13.0836 73.3206 13.5331 73.4203 13.8441 73.5519C15.2156 74.1317 16.062 74.5306 17.403 75.1056C17.7486 75.2538 17.7486 75.4373 17.6101 75.4851C15.7503 76.1328 14.4966 76.6343 13.8787 76.8317C13.2907 77.0194 12.6908 77.2964 12.1166 77.453C11.7017 77.5659 11.3221 77.6871 11.0458 77.5569H11.0451Z" fill="#006837"/>
<path d="M11.3436 72.373C11.6678 72.5109 11.6505 72.7976 11.4821 72.8572C9.59741 73.5263 8.24603 73.9932 7.60324 74.2432C6.97984 74.4856 7.01448 74.4856 6.39108 74.6934C6.04475 74.8091 5.56889 74.9012 5.35209 74.7973C3.82269 74.0645 2.78786 73.597 1.94558 73.1938C1.71561 73.0304 1.8867 72.718 2.06195 72.6494C2.23719 72.5808 2.23303 72.5926 2.33901 72.5455C2.61607 72.4416 4.49042 71.8272 6.98677 70.9759C7.22297 70.8956 7.78125 70.8478 8.07494 70.9662C8.85696 71.2814 9.94859 71.7815 11.3443 72.3737L11.3436 72.373Z" fill="#006837"/>
<path d="M30.3498 72.7222C30.2355 72.7637 30.2306 72.923 30.3422 72.9715L30.755 73.1509C30.7869 73.1648 30.8229 73.1655 30.8547 73.1537L31.652 72.8586C31.6887 72.8448 31.7289 72.8482 31.7628 72.8669L33.8699 73.8851C33.9045 73.9038 34.077 73.9239 34.1137 73.9094L34.3582 73.8138C34.6 73.7293 34.5439 73.5298 34.4434 73.4751L32.6598 72.6363C32.5608 72.5822 32.5684 72.4375 32.673 72.3945L33.0616 72.2338C33.1752 72.1867 33.171 72.024 33.0546 71.9831L32.7609 71.8806C32.7318 71.8702 32.7 71.8709 32.6709 71.8806L30.3505 72.7215L30.3498 72.7222Z" fill="white"/>
<path fill-rule="evenodd" clip-rule="evenodd" d="M24.3691 74.8139C24.3068 74.7412 24.3359 74.6276 24.4259 74.5943L25.093 74.3443C25.1241 74.3325 25.1588 74.3325 25.1899 74.3443L28.8049 75.7019C28.9241 75.7469 28.9248 75.9145 28.8063 75.961L28.4448 76.1016C28.4122 76.114 28.3762 76.114 28.3436 76.1016L27.022 75.58C26.9867 75.5661 26.9479 75.5675 26.914 75.5828L26.319 75.8536C26.2324 75.8931 26.2102 76.006 26.276 76.0752L26.7512 76.574C26.8191 76.6453 26.7935 76.7624 26.702 76.7984L26.3224 76.9487C26.2677 76.9709 26.2047 76.9549 26.1659 76.9099L24.3691 74.8153V74.8139ZM25.7392 75.5516C25.7773 75.5994 25.8424 75.6167 25.8992 75.5938L26.2352 75.4595C26.3508 75.4131 26.3515 75.2496 26.2352 75.2025L25.5806 74.9372C25.4483 74.8839 25.3312 75.0404 25.4206 75.1519L25.7399 75.5516H25.7392Z" fill="white"/>
<path d="M20.4897 77.7149C20.5271 77.6983 20.5708 77.6983 20.6082 77.7149C21.4297 78.0973 21.6589 78.7872 20.0818 79.333C18.4672 79.892 17.8147 79.315 16.9385 78.862C16.0622 78.409 16.4383 77.6505 17.37 77.1968C18.1818 76.8006 19.0462 76.8207 19.7306 77.122C19.8469 77.1733 19.8303 77.3326 19.7091 77.3714L19.2499 77.5175C19.2097 77.53 19.1667 77.5252 19.1293 77.5051C18.6992 77.2723 18.3203 77.2744 17.8999 77.4787C17.4607 77.6921 16.9765 78.1146 17.5064 78.4083C18.0363 78.702 18.7324 79.1273 19.565 78.8627C20.2501 78.6445 20.5251 78.3875 20.2224 78.125C20.1261 78.0412 20.1268 77.8743 20.2431 77.8237L20.4897 77.7156V77.7149Z" fill="white"/>
<path d="M27.9822 69.9945C28.6056 70.3408 28.0861 70.976 27.3935 71.2412C26.7008 71.5065 26.2637 71.5377 25.3155 71.1027C24.147 70.5666 24.4019 69.8462 25.1423 69.5442C25.9534 69.2138 26.5159 69.272 26.9114 69.4985C26.9966 69.547 26.9883 69.6668 26.9031 69.7153L26.6516 69.8587C26.617 69.8788 26.5747 69.8822 26.5366 69.8691C26.2014 69.752 26.0705 69.7222 25.5572 69.9245C25.0142 70.1385 25.1146 70.444 25.6687 70.6518C26.2229 70.8596 26.6308 70.9933 27.2196 70.7557C27.782 70.5285 27.7439 70.3221 27.4378 70.25C27.4087 70.2431 27.3782 70.248 27.3519 70.2611L27.0492 70.4121C27.0049 70.4343 26.9515 70.4308 26.9107 70.4038L26.8456 70.3602C26.7617 70.3041 26.7638 70.1801 26.8497 70.1274L27.345 69.8213C27.3761 69.8019 27.4135 69.7957 27.4496 69.8047C27.5645 69.8344 27.8298 69.9086 27.9829 69.9938L27.9822 69.9945Z" fill="white"/>
<path d="M19.6701 68.763C20.2104 68.9729 20.5892 68.9445 21.3352 68.5905C22.0805 68.2373 22.0445 67.6076 21.2196 67.2994C20.6571 67.0895 19.9839 67.1103 19.1748 67.4705C18.3658 67.8314 18.6526 68.2906 19.6701 68.7623V68.763ZM20.7049 67.5141C21.2078 67.7191 21.6483 68.0537 21.0831 68.2733C20.5186 68.4928 20.2034 68.4312 19.9298 68.3321C19.5191 68.159 19.1173 67.8965 19.6167 67.6679C20.1155 67.4393 20.4064 67.4116 20.7049 67.5141Z" fill="white"/>
<path d="M14.1994 71.2328C13.9736 71.2833 13.8184 71.3187 13.7935 71.309L11.8734 70.6239C11.8478 70.6142 11.4724 70.4722 11.4724 70.4722C11.1911 70.1875 11.7522 70.0636 11.7626 70.0414L12.5169 69.8135C12.9526 69.6868 13.3176 69.5371 13.6778 69.4838C14.0373 69.4305 14.4951 69.4235 14.8387 69.4838C15.1823 69.5441 15.7807 69.871 15.825 70.3441C15.8867 70.9938 14.2001 71.2335 14.2001 71.2335L14.1994 71.2328ZM13.9736 70.7583L14.4079 70.6239C14.6808 70.5152 14.7916 70.4404 14.8373 70.3434C14.926 70.1564 14.8844 69.9562 14.6461 69.8412C14.3469 69.6958 14.27 69.7408 13.9729 69.7332C13.6764 69.7255 13.3162 69.8634 12.8985 70.0407L12.5453 70.2284L13.9736 70.7583Z" fill="white"/>
<path d="M19.799 73.8651C19.783 73.8706 19.765 73.8699 19.7498 73.863L17.0692 72.7C17.0103 72.6744 17.0145 72.5899 17.0761 72.5705L17.6503 72.3876C17.6579 72.3856 17.6656 72.3842 17.6739 72.3842L20.2326 72.4742C20.3094 72.477 20.333 72.371 20.2623 72.3412L19.3737 71.963C19.3169 71.9388 19.3176 71.8584 19.3737 71.8349L19.783 71.6666C19.7996 71.6596 19.8183 71.6596 19.835 71.6666L22.6347 72.7928C22.6957 72.8171 22.6915 72.9057 22.6278 72.9238L22.1062 73.0727C22.0986 73.0748 22.091 73.0754 22.0827 73.0754L19.1582 72.8926C19.0814 72.8877 19.055 72.9937 19.1264 73.0249L20.3372 73.5575C20.3953 73.5832 20.3912 73.667 20.3309 73.6864L19.799 73.8637V73.8651Z" fill="white"/>
<path d="M12.1571 76.6509C12.1918 76.6696 12.2915 76.7361 12.3282 76.7222L14.8592 75.7518C15.1286 75.6278 14.9278 75.4574 14.8107 75.3993L14.6777 75.3584C14.6459 75.3425 14.5191 75.3674 14.4852 75.3792L12.6745 75.9839C12.6351 75.997 12.4917 76.0898 12.1938 75.9423C11.7893 75.7421 12.3684 75.5413 12.4841 75.5011L13.5411 75.1298C13.6664 75.0855 13.6824 74.9227 13.5611 74.8652L13.3146 74.7495C13.2813 74.7336 13.2481 74.7565 13.2141 74.7703L11.6002 75.3993C11.3038 75.4942 11.2802 75.5433 11.0094 75.4152C10.5169 75.1825 11.1763 75.037 11.3038 74.9899L12.4356 74.5722C12.5582 74.5272 12.6572 74.3914 12.5395 74.3333L12.3067 74.2169C12.2742 74.2003 12.2368 74.1982 12.2021 74.2107L9.6954 75.107C9.57349 75.1506 9.55964 75.402 9.67462 75.4637L12.1564 76.6509H12.1571Z" fill="white"/>
<path fill-rule="evenodd" clip-rule="evenodd" d="M6.13621 71.7067C7.00827 71.3846 7.15442 71.3389 7.66145 71.5342C7.90388 71.6277 8.03549 71.8777 8.01055 72.1756C7.98561 72.4734 7.66422 72.6473 7.47097 72.7283C7.12256 72.8738 6.96671 72.9541 6.63839 73.067C6.4763 73.1488 6.4576 73.2804 6.58713 73.3427L7.05052 73.5651C7.16342 73.6191 7.15234 73.784 7.03251 73.8221L6.60306 73.9592C6.57051 73.9696 6.53518 73.9675 6.50401 73.9537L4.08177 72.8579C3.97649 72.8101 3.9467 72.5877 4.04922 72.5351C4.49321 72.3093 5.41999 71.947 6.13621 71.708V71.7067ZM4.98223 72.542C4.88526 72.5863 4.77998 72.6341 4.87972 72.6708L5.52182 72.9043C5.53844 72.9105 5.68044 72.9188 5.69844 72.9181C6.39734 72.7886 6.95632 72.542 7.11909 72.4492C7.28395 72.355 7.52638 72.1202 7.29919 71.9096C7.0713 71.699 6.66332 71.8743 6.33569 71.9671C5.95057 72.0758 5.36735 72.3342 4.98293 72.542H4.98223Z" fill="white"/>
<path d="M39.445 96.849C39.4547 97.8007 39.1985 98.28 38.3375 98.6201C38.095 98.7171 36.8787 99.2789 34.9434 100.146C34.4239 100.285 34.0797 100.118 34.0776 99.772C34.0707 98.6485 34.0541 96.955 34.043 94.816C34.0409 94.2377 34.3976 93.5796 34.9781 93.349C36.5629 92.6736 37.6102 92.238 38.5453 91.8577C38.9609 91.6887 39.3737 92.0329 39.3765 92.4471C39.3917 94.7883 39.4402 96.3683 39.4457 96.849" fill="#FF0000"/>
<path d="M33.35 100.47C33.3154 100.76 32.931 101.039 32.6539 101.163C31.0483 101.885 29.4233 102.631 27.7436 103.381C27.3606 103.552 27.0226 103.402 27.0122 102.93C26.9859 101.779 26.9921 100.023 26.9775 97.5581C26.9796 97.0012 27.3606 96.5365 27.8136 96.3453C29.3596 95.6914 30.7144 95.1705 32.2709 94.5083C32.7239 94.3158 33.3133 94.5783 33.3154 95.0632C33.3292 97.6149 33.3452 99.4636 33.35 100.47Z" fill="#FF0000"/>
<path d="M26.0775 103.455C26.0796 103.952 25.6065 104.296 25.2477 104.459C22.8172 105.574 21.213 106.318 20.7877 106.466C20.0618 106.719 19.3698 106.701 19.3698 106.327C19.3504 105.022 19.3594 101.746 19.3698 100.997C19.3809 100.078 20.165 99.5532 20.7531 99.335C21.2234 99.1604 22.9523 98.411 25.1785 97.4662C25.5657 97.302 26.0408 97.638 26.0429 97.951C26.0561 100.378 26.0713 102.291 26.0775 103.455Z" fill="#FF0000"/>
<path d="M39.3764 89.7312C39.3418 90.284 39.064 90.6303 38.8223 90.7321C38.0028 91.0791 36.5053 91.6845 34.597 92.4922C34.3158 92.5545 34.0443 92.3931 34.0429 92.1126C34.0318 90.0027 33.9868 87.7869 33.9736 85.7616C33.9736 85.3882 34.1468 84.8653 34.4966 84.7274C36.5178 83.9329 37.7854 83.4121 38.7184 83.0346C38.9954 82.9223 39.3383 83.3456 39.3404 83.669C39.3521 85.6909 39.3653 87.7848 39.3764 89.7312Z" fill="#FF0000"/>
<path d="M33.2119 92.0294C33.2119 92.5822 32.727 93.3081 32.2421 93.5145C30.6878 94.176 29.2284 94.7883 27.6706 95.4484C27.2896 95.6098 26.8747 95.1956 26.9086 94.8271C26.8989 92.8454 26.8505 90.838 26.8394 88.8875C26.8373 88.5322 27.0125 87.7924 27.4628 87.6102C29.0621 86.9612 30.7287 86.2672 32.346 85.6071C32.6231 85.4942 33.1412 85.7449 33.1426 86.0213C33.1537 88.0016 33.2008 89.9784 33.2119 92.0294Z" fill="#FF0000"/>
<path d="M26.008 95.3326C26.008 95.8161 25.627 96.2518 25.3499 96.3695C22.8356 97.4356 20.9252 98.2439 20.432 98.4261C19.8086 98.5397 19.3584 98.4032 19.3584 97.8511C19.3584 96.5767 19.3584 91.8423 19.3584 91.3935C19.3584 90.9446 19.4969 90.8345 20.0511 90.599C20.2935 90.4958 20.5311 90.3933 20.813 90.288C21.2785 90.1155 22.8189 89.497 25.0382 88.5951C25.4538 88.4261 25.9387 88.8715 25.9387 89.2864C25.9512 91.3145 25.9969 93.2941 26.008 95.3333V95.3326Z" fill="#FF0000"/>
<path d="M39.307 81.0381C39.3091 81.2902 39.0396 81.8997 38.7175 82.032C37.9161 82.3611 36.4678 82.9554 34.7188 83.6709C34.4743 83.7713 33.9769 83.6861 33.9769 83.256C33.9077 80.8649 33.9153 79.1395 33.9077 78.5771C33.9001 77.9405 33.9077 76.844 33.9077 76.844C33.9077 76.5122 33.9056 75.9276 34.2187 75.8043C36.0916 75.0659 37.5268 74.5506 38.4758 74.1752C38.7716 74.0581 39.2301 74.3546 39.237 74.6954C39.2446 75.0417 39.2855 77.6828 39.3063 81.0374L39.307 81.0381Z" fill="#FF0000"/>
<path d="M33.2804 83.493C33.2804 83.9626 32.9701 84.505 32.4555 84.7149C30.9164 85.3417 29.2886 86.0025 27.7467 86.628C27.2549 86.8275 26.9779 86.4985 26.9779 86.0836C26.9606 83.3642 26.9183 81.3222 26.91 80.7293C26.9079 80.509 26.9086 80.241 26.91 80.0325C26.9149 79.4167 27.1857 78.7019 27.5666 78.553C29.1812 77.9219 30.5091 77.3941 32.1389 76.7569C32.3148 76.6876 32.8357 76.6835 33.0013 76.8947C33.2111 77.2043 33.2361 77.6601 33.2486 78.4733C33.2562 79.0454 33.2666 81.0022 33.2818 83.4951" fill="#FF0000"/>
<path d="M25.9388 86.8124C25.9402 86.9939 25.6971 87.3478 25.4207 87.4621C22.9341 88.49 20.9039 89.2804 20.4107 89.4653C19.957 89.6364 19.4084 89.4376 19.3738 89.0836C19.3392 88.729 19.3738 82.3835 19.3738 82.3835C19.3738 82.3835 19.3676 81.6348 19.8573 81.4464C20.045 81.3736 20.721 81.0993 20.721 81.0993C20.721 81.0993 22.4811 80.3235 24.7288 79.5021C25.0453 79.376 25.8613 79.9537 25.8689 80.5888C25.8779 81.2406 25.9188 83.7003 25.9381 86.8131L25.9388 86.8124Z" fill="#FF0000"/>
<path d="M21.068 104.967C21.068 105.065 21.1677 105.132 21.2585 105.095L24.7135 103.692C24.7675 103.67 24.8021 103.616 24.8001 103.558L24.7744 102.931C24.7703 102.833 24.6692 102.77 24.5798 102.81L22.4215 103.774C22.33 103.814 22.2268 103.747 22.2261 103.647L22.2248 102.914C22.2248 102.858 22.2587 102.807 22.3099 102.786L24.4343 101.905C24.4877 101.883 24.5223 101.83 24.5195 101.772L24.4911 101.08C24.487 100.983 24.3865 100.92 24.2972 100.959L22.4152 101.779C22.3238 101.819 22.2213 101.752 22.2213 101.652L22.2199 100.961C22.2199 100.907 22.2518 100.857 22.3009 100.835L24.6241 99.7782C24.674 99.7554 24.7052 99.7062 24.7052 99.6515L24.7038 99.0897C24.7038 98.99 24.6013 98.9235 24.5098 98.963L21.1407 100.427C21.0902 100.449 21.0576 100.499 21.0576 100.555L21.0673 104.968L21.068 104.967Z" fill="white"/>
<path d="M28.5335 97.3885C28.4726 97.4141 28.3846 97.4785 28.3721 97.5436C28.3437 97.6926 28.3915 101.067 28.4047 101.933C28.4061 102.031 28.5051 102.095 28.5952 102.058L29.2491 101.793C29.301 101.772 29.3356 101.721 29.3356 101.665V99.0273C29.3356 98.8971 29.4984 98.8389 29.5815 98.9393L30.3081 99.8232C30.376 99.9063 30.509 99.8834 30.545 99.7823L30.9772 98.5923C31.0299 98.4469 31.246 98.4843 31.246 98.6394V100.668C31.246 100.767 31.3485 100.834 31.4399 100.794L32.0904 100.508C32.1409 100.486 32.1735 100.436 32.1735 100.381V96.0426C32.1735 95.9429 32.071 95.8757 31.9795 95.9159L31.2903 96.2186C31.2619 96.231 31.2377 96.2532 31.2231 96.2809L30.3511 97.9447C30.3054 98.0313 30.1869 98.0451 30.1232 97.9703L29.4028 97.1301C29.364 97.0844 29.2996 97.0692 29.2442 97.092L28.5328 97.3878L28.5335 97.3885Z" fill="white"/>
<path fill-rule="evenodd" clip-rule="evenodd" d="M29.7456 88.2795C29.756 88.2379 29.7858 88.2033 29.8253 88.1867L30.7555 87.7898C30.8331 87.7565 30.9218 87.8002 30.9439 87.8812L32.0736 92.1092C32.091 92.175 32.0584 92.2436 31.9968 92.2713L31.4974 92.4971C31.4198 92.5324 31.329 92.4895 31.3069 92.4071L31.0388 91.4186C31.0153 91.3321 30.9176 91.2905 30.8393 91.3334L29.8176 91.8876C29.783 91.9063 29.7581 91.9388 29.7491 91.9769L29.4104 93.3803C29.4 93.4239 29.3688 93.4592 29.3272 93.4765L28.5501 93.7896C28.4448 93.8319 28.336 93.7363 28.3644 93.6262L29.747 88.2802L29.7456 88.2795ZM29.9936 90.6595C29.9603 90.7752 30.0809 90.8756 30.1889 90.8216L30.6689 90.5812C30.7271 90.5521 30.7569 90.4863 30.741 90.4233L30.5477 89.6572C30.5131 89.5201 30.3191 89.5166 30.2803 89.653L29.9936 90.6595Z" fill="white"/>
<path d="M24.8286 93.7576C24.8286 95.411 24.2066 95.5557 22.8386 96.168C21.4706 96.781 20.8818 95.5827 20.8818 93.8262C20.8818 92.0696 21.5399 91.4469 23.0042 90.8643C24.0321 90.4557 24.7767 91.255 24.8259 92.2102C24.8286 92.2697 24.7898 92.3231 24.733 92.3418L23.8492 92.6299C23.7598 92.659 23.6691 92.5925 23.6684 92.4983C23.6663 92.0959 23.6095 91.8147 22.8719 92.0349C22.022 92.2884 21.9104 93.0053 21.9104 93.8262C21.9104 94.647 22.1986 95.3105 22.8386 95.1748C23.4059 95.0542 23.658 94.6303 23.7425 94.1032C23.7585 94.0049 23.6629 93.9301 23.5687 93.9612L23.1205 94.1101C23.0312 94.1399 22.9383 94.0734 22.9383 93.9785V93.4459C22.9383 93.3849 22.9778 93.3316 23.036 93.3136L24.6562 92.8121C24.7434 92.7851 24.8307 92.8481 24.8307 92.9389C24.8307 93.1349 24.8286 93.4438 24.8286 93.7569V93.7576Z" fill="white"/>
<path d="M38.4413 96.2117C38.3644 97.4135 38.0672 97.9212 36.817 98.4171C35.5667 98.9131 35.1511 97.8048 35.255 96.2117C35.3361 94.9677 35.7053 94.293 36.9521 93.7527C38.1988 93.2125 38.5452 94.5839 38.4413 96.2117ZM36.1042 96.5739C36.1042 97.2063 36.1389 97.8942 36.8828 97.5624C37.6267 97.2306 37.6447 96.2553 37.6447 95.6229C37.6447 94.9905 37.6918 94.2605 36.9174 94.5839C36.143 94.9074 36.1042 95.9422 36.1042 96.5739Z" fill="white"/>
<path d="M36.2066 85.7117C36.2066 85.6175 36.1256 85.5538 36.0515 85.5898L35.3768 85.9174C35.3346 85.9375 35.3076 85.986 35.3076 86.0393C35.3076 86.0393 35.0991 90.6788 35.3263 90.8125C35.5528 90.9455 36.1658 90.6123 36.1658 90.6123L38.4765 89.6349C38.5181 89.6142 38.5451 89.5664 38.5451 89.513V88.8391C38.5451 88.7449 38.4633 88.6805 38.3892 88.7172L36.3632 89.513C36.2891 89.5497 36.2073 89.486 36.2073 89.3911V85.7117H36.2066Z" fill="white"/>
<path d="M36.0926 76.8505C36.0926 76.7528 36.0123 76.6863 35.9388 76.7237L35.2711 77.0645C35.2295 77.086 35.2025 77.1358 35.2025 77.1913C35.2025 77.1913 34.9968 82.0122 35.2205 82.1507C35.445 82.2892 36.0517 81.9429 36.0517 81.9429L38.3389 80.9268C38.3798 80.9053 38.4068 80.8554 38.4068 80.8V80.0997C38.4068 80.0014 38.3257 79.9349 38.2523 79.973L36.2464 80.8C36.173 80.8381 36.0919 80.7716 36.0919 80.6733V76.8498L36.0926 76.8505Z" fill="white"/>
<path d="M28.3398 84.8132C28.3418 84.9122 28.4437 84.9774 28.5344 84.9372L31.889 83.4604C31.9402 83.4383 31.9728 83.387 31.9714 83.3309L31.9589 82.6327C31.9568 82.5336 31.855 82.4685 31.7643 82.5087L29.6579 83.4417C29.5672 83.4819 29.4653 83.4168 29.4633 83.3177L29.4494 82.5627C29.4487 82.5066 29.482 82.4554 29.5332 82.4325L31.641 81.5321C31.6929 81.5099 31.7262 81.4586 31.7248 81.4018L31.7109 80.6351C31.7089 80.5367 31.6084 80.4716 31.5184 80.5104L29.617 81.3229C29.527 81.3617 29.4259 81.2966 29.4245 81.1982L29.4085 80.3275C29.4078 80.27 29.4425 80.2174 29.4958 80.1966L31.8703 79.2504C31.9236 79.229 31.9582 79.177 31.9575 79.1195L31.9478 78.5751C31.9458 78.4781 31.8474 78.413 31.7574 78.449L28.3391 79.824C28.2857 79.8454 28.2511 79.8974 28.2525 79.9549L28.3405 84.8118L28.3398 84.8132Z" fill="white"/>
<path d="M20.895 82.8123C20.895 82.7562 20.929 82.7056 20.9809 82.6841L21.8357 82.333C21.9271 82.2955 22.0268 82.3627 22.0268 82.4611V84.1082C22.0268 84.2087 22.13 84.2752 22.2215 84.235L23.6082 83.6199C23.658 83.5978 23.6906 83.5479 23.6906 83.4932V81.686C23.6906 81.6313 23.7225 81.5814 23.773 81.5592L24.6132 81.1845C24.7047 81.1437 24.8079 81.2108 24.8086 81.3113L24.8127 86.2721C24.8127 86.3268 24.7809 86.3767 24.7303 86.3989L23.8908 86.7736C23.7994 86.8145 23.6961 86.7473 23.6961 86.6468V84.9755C23.6961 84.875 23.5929 84.8078 23.5015 84.8487L22.1155 85.4638C22.0656 85.4859 22.0331 85.5358 22.0331 85.5905V87.5057C22.0331 87.5619 21.9991 87.6124 21.9472 87.6339L21.0917 87.9851C21.0003 88.0225 20.9006 87.9553 20.9006 87.8569L20.8964 82.8123H20.895Z" fill="white"/>
<path d="M18.4523 106.252C18.4592 106.678 18.0027 106.947 17.7257 106.807C17.4486 106.634 15.6588 105.624 13.2968 104.273C13.089 104.154 12.9976 103.821 12.9858 103.44C12.9518 102.38 12.8438 100.346 12.778 97.9191C12.7697 97.6068 13.0897 97.2251 13.3314 97.3983C14.9509 98.2565 16.0681 98.8681 16.3473 98.9928L17.8289 99.7596C18.2313 99.968 18.4495 100.382 18.4516 100.627C18.4661 101.993 18.446 105.892 18.4516 106.252H18.4523Z" fill="#F7931E"/>
<path d="M11.2196 103.135C9.93197 102.395 8.62838 101.657 7.44532 100.985C7.09899 100.788 6.76789 100.187 6.75265 99.736C6.71871 98.7116 6.69724 97.0374 6.61412 94.8458C6.59542 94.3603 6.89119 94.0354 7.23752 94.2217C8.56881 94.9373 9.7879 95.5614 11.0693 96.2471C11.469 96.4334 11.7994 97.0658 11.8084 97.4128C11.8666 99.6578 11.9864 101.526 12.0162 102.719C12.0238 103.009 11.4621 103.275 11.2196 103.136V103.135Z" fill="#F7931E"/>
<path d="M2.25607 91.5825C2.9896 91.9697 3.77092 92.3777 4.94291 92.9969C5.26915 93.1694 5.79557 93.639 5.81566 94.1357C5.89532 96.1402 5.94657 97.8476 5.99021 99.0349C6.00407 99.4068 5.53028 99.8009 5.32733 99.6901C4.66446 99.3285 5.3308 99.6908 3.7917 98.8278C1.73311 97.7929 1.80515 97.1474 1.76775 96.5849C1.75666 96.409 1.6964 94.8096 1.55856 92.2031C1.5364 91.7889 1.90766 91.3983 2.25677 91.5825H2.25607Z" fill="#F7931E"/>
<path d="M11.7392 94.7821C11.7468 95.0938 11.3832 95.3708 11.1511 95.2455C9.85445 94.5466 8.22047 93.7209 6.91757 93.0158C6.99515 93.0573 6.84068 92.9728 6.91757 93.0158C6.71323 92.9063 6.54838 92.5953 6.53868 92.2885C6.46595 90.1274 6.36621 88.1678 6.33643 86.0102C6.34405 85.5184 6.83584 85.2885 7.05541 85.3979C8.31813 86.0331 9.53999 86.6135 10.775 87.2328C11.3603 87.5445 11.4898 88.1678 11.4981 88.4795C11.5522 90.5333 11.6859 92.6715 11.7392 94.7814V94.7821Z" fill="#F7931E"/>
<path d="M5.11931 92.0661C3.59199 91.2529 2.60703 90.7459 1.90883 90.3988C1.55973 90.1211 1.4676 89.8087 1.45513 89.5649C1.35054 87.4807 1.31937 85.3209 1.21062 83.1737C1.19677 82.8959 1.40249 82.5925 1.59436 82.6874C2.39023 83.0816 3.51095 83.6052 4.87411 84.2806C5.25785 84.4246 5.48781 84.9455 5.50236 85.2849C5.51136 85.5073 5.51482 85.6312 5.52452 85.8577C5.59864 87.7743 5.63604 89.5836 5.71223 91.5452C5.72678 91.9275 5.31464 92.1707 5.11931 92.0661Z" fill="#F7931E"/>
<path d="M12.641 95.2239C12.5855 93.0988 12.4872 90.964 12.4318 88.8632C12.4228 88.5161 12.8661 88.2654 13.0933 88.3769C14.8492 89.2413 16.1818 89.9153 16.47 90.0435C17.2361 90.4251 16.8877 90.2519 17.723 90.6682C18.0583 90.8359 18.4538 91.106 18.4538 91.4828C18.4538 92.9409 18.4191 98.3575 18.4538 98.4621C18.4884 98.566 18.2446 98.7398 17.9661 98.7398C17.5789 98.7398 17.3393 98.5313 16.7824 98.2536C16.4915 98.1234 15.1283 97.3593 13.2983 96.3917C12.9534 96.2088 12.6396 95.5993 12.6396 95.2239H12.641Z" fill="#F7931E"/>
<path d="M18.4447 82.7347C18.4447 84.2883 18.4745 88.1894 18.4447 88.8107C18.4149 89.432 17.8574 89.6308 16.4755 89.0178C16.1735 88.8841 15.0223 88.3307 13.0544 87.361C12.6049 87.1393 12.3632 86.6787 12.3632 86.2215C12.2814 83.0997 12.1671 80.7661 12.1561 80.3727C12.1526 80.2473 12.1574 79.9903 12.1561 79.8691C12.1512 79.4549 12.8203 79.3441 13.0544 79.4549C14.6455 80.2044 15.7905 80.7495 16.0606 80.87C16.6604 81.1374 16.9936 81.2842 17.5464 81.5606C18.1143 81.8446 18.4447 82.157 18.4447 82.734V82.7347Z" fill="#F7931E"/>
<path d="M11.393 85.6384C11.402 85.984 10.9781 86.3304 10.6318 86.1565C9.28384 85.4805 8.20675 84.9672 6.86091 84.2912C6.30747 84.0127 6.21466 83.3609 6.20357 83.0478C6.10106 80.3873 6.03041 78.3149 5.99578 77.7968C5.99578 77.3133 5.96114 76.8638 6.06504 76.6566C6.16894 76.4495 6.46194 76.3976 6.59562 76.462C8.01488 77.1422 9.18756 77.6555 10.5625 78.3142C10.8396 78.4181 11.1159 78.8323 11.1852 79.5236C11.1852 79.8845 11.2108 80.3084 11.2198 80.6291C11.2309 80.9989 11.3182 82.7999 11.393 85.6384Z" fill="#F7931E"/>
<path d="M4.63378 83.1787C3.10716 82.423 2.22193 82.0164 1.56321 81.6888C1.35819 81.5884 1.06519 81.1998 1.04995 80.7662C0.941896 77.9117 0.8283 75.4985 0.795745 74.4824C0.783277 74.1014 1.12199 73.87 1.3194 73.9629C2.12912 74.3459 3.17088 74.8148 4.66911 75.522C4.81872 75.592 5.1228 75.8732 5.15744 76.3241C5.15744 76.9143 5.17891 77.4414 5.19207 77.9214C5.20315 78.3003 5.2648 80.3284 5.36662 82.9363C5.36662 83.2826 4.84297 83.248 4.63378 83.1787Z" fill="#F7931E"/>
<path d="M13.7699 103.438C13.7713 103.488 13.7983 103.532 13.8413 103.556L16.8633 105.24C16.9555 105.291 17.0691 105.225 17.0691 105.119V104.501C17.0691 104.45 17.0414 104.404 16.9977 104.38L14.8235 103.177C14.7798 103.153 14.7521 103.107 14.7521 103.057L14.7507 102.397C14.7507 102.293 14.8609 102.226 14.953 102.274L16.5433 103.102C16.6355 103.15 16.7456 103.083 16.7456 102.979V102.382C16.7456 102.33 16.7165 102.282 16.6701 102.259L14.8352 101.32C14.7888 101.297 14.759 101.248 14.7597 101.196L14.7646 100.639C14.7653 100.535 14.8761 100.469 14.9682 100.517L16.8592 101.52C16.9506 101.569 17.0614 101.503 17.0628 101.399L17.0684 100.798C17.0684 100.746 17.0407 100.699 16.995 100.675L13.8731 99.0102C13.7796 98.9603 13.6667 99.0296 13.6695 99.1355L13.7692 103.438H13.7699Z" fill="white"/>
<path d="M9.98981 97.2342C10.0175 97.1525 10.1117 97.1158 10.1872 97.1567L10.7033 97.4386C10.7614 97.4704 10.7891 97.539 10.7691 97.6027L9.64556 101.102C9.61855 101.187 9.5188 101.225 9.44261 101.178L8.60587 100.676C8.57263 100.656 8.54908 100.623 8.54146 100.585L7.60636 95.941C7.58351 95.8267 7.70264 95.7374 7.80585 95.7907L8.42509 96.1121C8.46249 96.1315 8.48881 96.1668 8.49713 96.2084L9.07619 99.1418C9.1039 99.2811 9.29784 99.2942 9.34356 99.1591L9.99051 97.2342H9.98981Z" fill="white"/>
<path d="M2.40989 95.8072C2.49439 96.9085 2.73129 97.3691 3.69616 97.802C4.66035 98.235 4.95404 97.2105 4.84044 95.7504C4.75178 94.6103 4.45601 93.9979 3.49321 93.5242C2.53041 93.0511 2.2956 94.3152 2.40989 95.8072ZM4.19973 96.0981C4.21358 96.6779 4.20181 97.3103 3.62759 97.0186C3.05337 96.727 3.01874 95.8328 3.00489 95.253C2.99103 94.6733 2.93978 94.0035 3.53754 94.2868C4.13531 94.5701 4.18657 95.5183 4.20042 96.0981H4.19973Z" fill="white"/>
<path d="M2.80368 85.1638C2.79744 85.0724 2.80368 84.8175 2.69978 84.7482C2.69978 84.7482 2.21491 84.4019 2.04175 84.4019C1.95586 84.4019 1.93439 84.5577 1.93785 84.6097C1.93785 84.6097 2.03967 89.1646 2.27448 89.2789C2.50929 89.3932 4.36216 90.4973 4.36216 90.4973C4.46606 90.5319 4.56996 90.4973 4.6046 90.3241V89.8739C4.59836 89.7825 4.53533 89.5968 4.36216 89.5276L2.97684 88.6617L2.80368 85.1638Z" fill="white"/>
<path d="M8.18948 87.5216C8.1777 87.4891 8.15484 87.4621 8.12506 87.4454L7.54946 87.1337C7.43863 87.0735 7.31118 87.1808 7.35205 87.3007L8.54204 90.7785C8.54689 90.7931 8.54966 90.8083 8.54966 90.8235V92.5988C8.54966 92.6494 8.57737 92.6965 8.62239 92.7208L9.17306 93.0193C9.26518 93.0692 9.37739 93.0027 9.37739 92.8974V91.2953C9.37739 91.2793 9.38016 91.2627 9.3857 91.2475L10.3111 88.7144C10.336 88.6465 10.3049 88.5717 10.2398 88.5412L9.73481 88.3064C9.65931 88.2711 9.57064 88.3099 9.54432 88.3888L9.16544 89.5518C9.12457 89.6779 8.94656 89.68 8.90292 89.5546L8.18948 87.5216Z" fill="white"/>
<path fill-rule="evenodd" clip-rule="evenodd" d="M14.5153 81.6776C15.1809 81.7821 16.2227 82.1368 16.675 82.8585C17.128 83.5803 17.0823 83.8691 17.058 84.194C17.0338 84.5189 16.8502 84.8222 16.5053 85.0868C16.1832 85.3341 15.6692 85.6333 14.7237 85.1921C14.6282 85.1478 14.5153 85.215 14.5153 85.3203V86.5262C14.5153 86.6308 14.4037 86.698 14.3116 86.6481L13.5421 86.2387C13.4977 86.2152 13.4693 86.1688 13.4686 86.1182L13.4028 81.7891C13.4021 81.724 13.4465 81.6672 13.5109 81.6582C13.6827 81.6339 14.0449 81.6034 14.5153 81.6776ZM14.5707 82.7325C14.4959 82.7283 14.4356 82.7907 14.4356 82.8655V84.0305C14.4356 84.0818 14.464 84.1289 14.5097 84.1524C15.2606 84.541 15.618 84.5944 15.9186 84.46C16.2289 84.3208 16.195 84.0028 16.1596 83.7639C16.1243 83.5249 15.8743 83.227 15.6769 83.1031C15.4961 82.9895 15.0673 82.7581 14.57 82.7318L14.5707 82.7325Z" fill="white"/>
<path fill-rule="evenodd" clip-rule="evenodd" d="M14.6539 90.89C15.3196 90.9945 16.3613 91.3492 16.8136 92.0709C17.2666 92.7927 17.2209 93.0815 17.1967 93.4064C17.1724 93.7313 16.9889 94.0346 16.6439 94.2992C16.3219 94.5465 15.8079 94.8458 14.8624 94.4045C14.7668 94.3602 14.6539 94.4274 14.6539 94.5327V95.7386C14.6539 95.8432 14.5424 95.9104 14.4503 95.8605L13.6807 95.4511C13.6364 95.4276 13.608 95.3812 13.6073 95.3306L13.5415 91.0015C13.5408 90.9364 13.5851 90.8796 13.6496 90.8706C13.8213 90.8463 14.1836 90.8158 14.6539 90.89ZM14.7093 91.9449C14.6345 91.9407 14.5743 92.0031 14.5743 92.0779V93.2429C14.5743 93.2942 14.6027 93.3413 14.6484 93.3648C15.3992 93.7534 15.7566 93.8068 16.0573 93.6724C16.3676 93.5332 16.3336 93.2152 16.2983 92.9763C16.263 92.7373 16.0129 92.4394 15.8155 92.3155C15.6347 92.2019 15.206 91.9705 14.7086 91.9442L14.7093 91.9449Z" fill="white"/>
<path fill-rule="evenodd" clip-rule="evenodd" d="M9.18967 79.2574C9.18135 79.2159 9.15503 79.1799 9.11694 79.1605L8.30652 78.7442C8.22964 78.7047 8.13543 78.7442 8.1105 78.8273L6.88449 82.8731C6.86509 82.9362 6.89349 83.004 6.95098 83.0352L7.37628 83.2652C7.45316 83.3067 7.54875 83.2673 7.57438 83.1841L7.85837 82.2601C7.88538 82.1722 7.98859 82.1347 8.06548 82.1839L8.95277 82.754C8.98533 82.7748 9.0075 82.8087 9.01442 82.8461L9.25755 84.2217C9.26516 84.2654 9.29356 84.3028 9.33305 84.3222L10.0028 84.6484C10.1054 84.6983 10.221 84.6096 10.1996 84.4974L9.18897 79.2581L9.18967 79.2574ZM8.84888 81.5425C8.8745 81.661 8.74636 81.7531 8.64246 81.6908L8.2421 81.4518C8.18808 81.4199 8.16245 81.3548 8.17976 81.2946L8.37856 80.6054C8.41873 80.4675 8.61614 80.4737 8.64731 80.6144L8.84888 81.5425Z" fill="white"/>
<path d="M4.24935 76.9217C4.24797 76.8726 4.21957 76.8275 4.17593 76.804L3.69176 76.5449C3.59756 76.4944 3.48466 76.565 3.48812 76.6717L3.53868 78.1297C3.54215 78.2385 3.42509 78.3091 3.33088 78.2544L2.48514 77.764C2.44358 77.7398 2.41796 77.6968 2.41588 77.649L2.35631 75.9291C2.35492 75.8814 2.3286 75.8384 2.28774 75.8142L1.81257 75.5371C1.71837 75.4824 1.60062 75.5523 1.60408 75.6618L1.76201 80.2971C1.76339 80.3449 1.78971 80.3878 1.83058 80.4121L2.30574 80.6891C2.39995 80.7438 2.5177 80.6739 2.51424 80.5644L2.46298 79.0877C2.45952 78.9789 2.57658 78.9083 2.67078 78.963L3.51652 79.4534C3.55808 79.4777 3.58371 79.5206 3.58578 79.5684L3.64882 81.3894C3.6502 81.4386 3.6786 81.4836 3.72224 81.5072L4.2071 81.7662C4.3013 81.8168 4.41421 81.7461 4.41074 81.6394L4.25005 76.9217H4.24935Z" fill="white"/>
</g>
<path d="M18.3794 74.9525C19.2957 76.3086 21.4673 76.556 22.9609 76.7851C24.6225 77.0582 26.2996 77.2265 27.9823 77.289C30.7807 77.3719 33.5461 76.6671 35.9634 75.2548V67.7319H18.3885V74.98L18.3794 74.9525Z" fill="#0063A1"/>
<path d="M31.9408 92.3989L32.683 81.2016C32.9946 77.967 29.6684 75.9969 29.6684 75.9969L26.0031 73.8711L23.6299 79.0941L26.9378 81.1649C27.2345 81.4146 27.471 81.728 27.6297 82.0818C27.7884 82.4356 27.8651 82.8207 27.8541 83.2083L28.4038 90.5938C28.7101 91.244 29.2236 91.7741 29.8638 92.1008C30.504 92.4275 31.2346 92.5324 31.9408 92.3989Z" fill="#F8B78F"/>
<path d="M28.0739 86.9747L28.3396 90.5941C28.644 91.2619 29.1659 91.8067 29.82 92.1396C30.4741 92.4725 31.2217 92.5737 31.9407 92.4267L32.3164 86.7639C30.9102 86.9484 29.4914 87.0189 28.0739 86.9747Z" fill="white"/>
<g style="mix-blend-mode:multiply" opacity="0.5">
<path d="M29.6041 91.5742C28.5045 89.7874 28.8436 87.6982 29.0268 85.719C29.2722 84.4494 29.1774 83.1374 28.7519 81.9163C28.1382 80.9984 27.4048 80.1664 26.5711 79.4423C25.0225 77.7196 25.7189 76.0061 26.1771 73.9994L25.9663 73.8711L23.5931 79.0941L26.901 81.1649C27.1977 81.4146 27.4343 81.728 27.5929 82.0818C27.7516 82.4356 27.8283 82.8207 27.8173 83.2083L28.3671 90.5938C28.5464 90.9785 28.8009 91.3235 29.1156 91.6084C29.4304 91.8932 29.799 92.1122 30.1997 92.2523C29.9736 92.0521 29.7735 91.8243 29.6041 91.5742Z" fill="#F2B193"/>
</g>
<path d="M31.1342 96.2383C31.1342 96.2383 28.1746 94.4881 28.0188 92.4998C27.1025 94.818 31.006 97.0813 31.006 97.0813C32.7011 97.8968 35.3126 97.4387 34.9828 95.661C34.3963 96.7239 32.4812 96.8797 31.1342 96.2383Z" fill="white"/>
<path d="M28.3395 90.5938C28.8618 90.9054 29.2558 91.336 29.8606 91.0886C30.4654 90.8412 29.7231 89.9982 30.5936 90.044C31.3175 90.0898 32.3346 90.2823 33.0677 90.4106C32.9027 91.2078 32.7653 91.8034 32.7653 91.8217C32.7012 92.0508 34.9003 93.9109 35.0927 94.7081C35.5509 96.5407 32.8661 97.063 31.1343 96.2383C31.1343 96.2383 27.2399 93.9292 28.1471 91.6109L28.3395 90.5938Z" fill="#C24D58"/>
<g style="mix-blend-mode:multiply">
<path d="M30.1358 93.1047C30.4993 93.7699 31.0299 94.3289 31.6752 94.7266C32.107 94.8424 32.5604 94.8512 32.9963 94.7522C33.4322 94.6532 33.8374 94.4494 34.1767 94.1584C34.4425 93.8194 34.2592 93.8377 34.2317 93.4804C33.6931 92.9738 33.2023 92.4186 32.7656 91.8218C32.7656 91.8218 32.9031 91.2079 33.068 90.4107C32.335 90.2825 31.3179 90.09 30.594 90.0442C30.0167 90.0442 30.1267 90.3741 30.0992 90.6948C30.145 91.4278 29.6868 92.3625 30.1358 93.1047Z" fill="#BCBEC0"/>
</g>
<g style="mix-blend-mode:multiply">
<path d="M28.3395 90.5938C28.6548 90.8179 28.9964 91.0025 29.3566 91.1435C29.3566 91.3909 29.4208 91.4826 29.7598 91.5834C28.0646 92.4997 30.3829 94.9462 31.4733 95.6793C32.243 96.1924 33.7183 96.4215 34.433 95.6793C34.6281 95.5127 34.7728 95.2948 34.8505 95.0503C34.9282 94.8058 34.936 94.5443 34.8728 94.2957C34.9704 94.4187 35.0449 94.5584 35.0927 94.708C35.5509 96.5406 32.8661 97.0629 31.1343 96.2382C31.1343 96.2382 27.2399 93.9291 28.1471 91.6109L28.3395 90.5938Z" fill="#D1D3D4"/>
</g>
<path d="M32.4353 91.95C32.4353 92.06 32.5819 92.1241 32.6552 92.0875C32.7285 92.0508 32.7469 91.9409 32.6552 91.8309C32.5636 91.7209 32.5086 91.6568 32.4353 91.6935C32.362 91.7301 32.3804 91.8401 32.4353 91.95Z" fill="#BCBEC0"/>
<path d="M32.8845 92.5731C32.9304 92.683 33.0312 92.7472 33.1045 92.7105C33.1778 92.6739 33.1961 92.5639 33.1045 92.4539C33.0128 92.344 32.9578 92.2799 32.8845 92.3165C32.8112 92.3532 32.8296 92.4631 32.8845 92.5731Z" fill="#BCBEC0"/>
<path d="M33.3614 93.2877C33.4163 93.3977 33.5171 93.4618 33.5813 93.4252C33.6454 93.3885 33.6729 93.2786 33.5813 93.1686C33.4896 93.0587 33.4255 93.0037 33.3522 93.0312C33.3253 93.069 33.3115 93.1146 33.3132 93.161C33.3149 93.2074 33.3318 93.252 33.3614 93.2877Z" fill="#BCBEC0"/>
<path d="M30.3465 92.9208C30.4014 93.0308 30.4931 93.0949 30.5664 93.0583C30.6397 93.0216 30.658 92.9117 30.5664 92.8017C30.5535 92.7555 30.5237 92.7158 30.4831 92.6904C30.4424 92.665 30.3937 92.6556 30.3465 92.6643C30.3098 92.7009 30.2915 92.8109 30.3465 92.9208Z" fill="#BCBEC0"/>
<path d="M30.7312 93.5811C30.7862 93.6911 30.8778 93.746 30.9511 93.7185C31.0244 93.6911 31.0428 93.5628 30.9511 93.4528C30.8595 93.3429 30.8045 93.2879 30.7312 93.3245C30.6579 93.3612 30.6763 93.4712 30.7312 93.5811Z" fill="#BCBEC0"/>
<path d="M31.2719 94.4056C31.3268 94.5155 31.4276 94.5797 31.5009 94.543C31.5743 94.5064 31.5926 94.3964 31.5009 94.2865C31.4093 94.1765 31.3543 94.1124 31.281 94.149C31.2077 94.1857 31.2261 94.2956 31.2719 94.4056Z" fill="#BCBEC0"/>
<path d="M33.0494 92.637C33.0494 92.637 33.0952 92.637 33.0952 92.5545C33.0948 92.5217 33.0851 92.4896 33.0673 92.462C33.0495 92.4345 33.0242 92.4125 32.9944 92.3987C32.144 92.2435 31.2666 92.3456 30.4746 92.6919C30.4559 92.7136 30.4456 92.7412 30.4456 92.7698C30.4456 92.7984 30.4559 92.8261 30.4746 92.8477C30.4746 92.9119 30.557 92.9485 30.6029 92.9302C31.3652 92.6056 32.2041 92.5039 33.0219 92.637H33.0494Z" fill="#BEC0C2"/>
<path d="M33.5537 93.3524C33.5635 93.3258 33.5635 93.2965 33.5537 93.2699C33.5544 93.2368 33.5452 93.2043 33.5273 93.1765C33.5093 93.1487 33.4834 93.127 33.4529 93.1141C32.5823 92.9541 31.6844 93.0398 30.8597 93.3616C30.8417 93.3817 30.8317 93.4078 30.8317 93.4348C30.8317 93.4619 30.8417 93.488 30.8597 93.5082C30.8597 93.5723 30.9514 93.6181 30.9972 93.5998C31.7936 93.294 32.6578 93.2085 33.4987 93.3524H33.5537Z" fill="#BEC0C2"/>
<path d="M32.6188 92.0047C32.6293 91.9866 32.6348 91.9661 32.6348 91.9452C32.6348 91.9242 32.6293 91.9037 32.6188 91.8856C32.6135 91.8535 32.5983 91.8239 32.5753 91.8009C32.5523 91.7779 32.5226 91.7626 32.4905 91.7573C31.6794 91.7949 30.9156 92.1504 30.3647 92.7469C30.3446 92.7715 30.3336 92.8022 30.3336 92.834C30.3336 92.8657 30.3446 92.8965 30.3647 92.921C30.3647 92.9852 30.4655 92.9943 30.493 92.921C31.0317 92.3653 31.7631 92.0374 32.5363 92.0047H32.6188Z" fill="white"/>
<path d="M30.9968 93.5992C31.0025 93.5844 31.0025 93.5681 30.9968 93.5534C31.3415 92.8965 31.8743 92.3573 32.5271 92.0048C32.5729 92.0048 32.582 91.9132 32.5271 91.849C32.4721 91.7849 32.4354 91.7391 32.3988 91.7757C31.7054 92.1321 31.1437 92.7002 30.7952 93.3976C30.7884 93.4289 30.7899 93.4614 30.7995 93.492C30.8092 93.5225 30.8266 93.55 30.8502 93.5717C30.8576 93.5836 30.8674 93.5939 30.8789 93.6019C30.8905 93.6098 30.9036 93.6153 30.9174 93.6179C30.9312 93.6204 30.9454 93.6201 30.9591 93.6169C30.9728 93.6137 30.9856 93.6077 30.9968 93.5992Z" fill="#DEDFE0"/>
<path d="M31.4919 94.3048C31.8327 93.6352 32.353 93.0737 32.9946 92.6829C32.9946 92.6829 32.9946 92.5913 32.9946 92.5271C32.9946 92.463 32.903 92.4263 32.8572 92.4538C32.1825 92.8534 31.6407 93.443 31.2994 94.149C31.2894 94.1793 31.2884 94.2119 31.2965 94.2428C31.3046 94.2737 31.3216 94.3016 31.3453 94.3231C31.3453 94.3231 31.4735 94.3231 31.4919 94.3048Z" fill="#DEDFE0"/>
<path d="M33.2603 92.9212C33.2603 92.9212 33.2603 92.8571 33.2603 92.8021C33.2603 92.7471 33.1869 92.6738 33.1411 92.6738C32.3267 92.709 31.5593 93.0647 31.0061 93.6634C30.9888 93.6892 30.9795 93.7195 30.9795 93.7505C30.9795 93.7815 30.9888 93.8118 31.0061 93.8375C31.0061 93.9017 31.1069 93.9108 31.1436 93.8375C31.6767 93.2792 32.4064 92.9506 33.1778 92.9212H33.2603Z" fill="white"/>
<path d="M31.4921 94.3781C32.0073 93.7926 32.7305 93.431 33.508 93.3702C33.508 93.3702 33.5813 93.3061 33.563 93.2419C33.5578 93.2122 33.5435 93.1849 33.5222 93.1635C33.5009 93.1422 33.4735 93.128 33.4439 93.1228C32.6313 93.1803 31.8741 93.5556 31.3363 94.1674C31.3211 94.1938 31.313 94.2239 31.313 94.2544C31.313 94.285 31.3211 94.315 31.3363 94.3415C31.3531 94.3658 31.3784 94.3831 31.4072 94.3899C31.4359 94.3966 31.4662 94.3925 31.4921 94.3781Z" fill="white"/>
<path d="M31.5375 92.2523C31.5424 92.2423 31.5449 92.2313 31.5449 92.2202C31.5449 92.2091 31.5424 92.1981 31.5375 92.1882V92.1332C31.615 91.7968 31.5862 91.4446 31.455 91.1252C31.4285 91.0892 31.394 91.0597 31.3543 91.0391C31.3146 91.0185 31.2707 91.0072 31.226 91.0061C31.1252 91.0061 31.0702 91.0886 31.0519 91.2077C31.0461 91.3286 31.0616 91.4495 31.0977 91.565C30.8961 91.3635 30.6579 91.2077 30.5296 91.2718C30.4013 91.336 30.4379 91.336 30.4379 91.4643C30.4326 91.5415 30.4518 91.6185 30.4929 91.6842C30.7164 91.9817 31.0434 92.1844 31.4092 92.2523H31.5375ZM30.6853 91.4917C30.7678 91.4917 31.0977 91.7392 31.2626 91.9591C31.0389 91.9052 30.8374 91.7836 30.6853 91.6109C30.6853 91.6109 30.6853 91.5651 30.6853 91.5559C30.6853 91.5467 30.6762 91.5009 30.6853 91.4917ZM31.3176 91.2535C31.3176 91.2535 31.3176 91.2535 31.3634 91.2535C31.4092 91.2535 31.4367 91.4093 31.3634 91.8399C31.277 91.6726 31.23 91.4877 31.226 91.2993C31.226 91.2993 31.3268 91.2535 31.3268 91.2535H31.3176Z" fill="white"/>
<g style="mix-blend-mode:soft-light">
<path d="M30.7037 94.4058C30.7037 94.4058 30.8869 94.5157 31.1527 94.644C31.2809 94.7173 31.4367 94.7906 31.6017 94.8639C31.7684 94.9391 31.9398 95.0033 32.1148 95.0563C32.2887 95.1092 32.4664 95.149 32.6462 95.1755C32.7317 95.18 32.8173 95.18 32.9028 95.1755C32.9789 95.1845 33.0558 95.1845 33.1319 95.1755H33.645L33.5259 95.2488C33.4158 95.3214 33.2953 95.377 33.1685 95.4137C33.0866 95.4474 33.0001 95.469 32.912 95.4779C32.8148 95.4923 32.716 95.4923 32.6188 95.4779C32.5154 95.4915 32.4106 95.4915 32.3072 95.4779C32.0877 95.4527 31.8739 95.3907 31.675 95.2946L31.4092 95.1388C31.2536 95.0388 31.1119 94.9186 30.9877 94.7815C30.8739 94.6719 30.778 94.5451 30.7037 94.4058Z" fill="white"/>
</g>
<path d="M41.3236 91.3818L42.0658 80.1845C42.3774 76.9499 39.0512 74.9799 39.0512 74.9799L35.3859 72.854L33.0127 78.0678L36.3114 80.1387C36.6073 80.391 36.8432 80.7062 37.0017 81.0613C37.1602 81.4164 37.2374 81.8024 37.2277 82.1912L37.7775 89.5217C38.0764 90.1828 38.5879 90.725 39.2304 91.0621C39.873 91.3991 40.6098 91.5117 41.3236 91.3818Z" fill="#F8B78F"/>
<path d="M37.4572 85.9571L37.7229 89.5674C38.0286 90.2341 38.5507 90.7779 39.2044 91.1106C39.8581 91.4433 40.6051 91.5453 41.324 91.4L41.6997 85.728C40.294 85.9186 38.8752 85.9953 37.4572 85.9571Z" fill="white"/>
<g style="mix-blend-mode:multiply" opacity="0.5">
<path d="M38.9873 90.5571C37.8786 88.7245 38.2267 86.6811 38.41 84.6927C38.6537 83.4261 38.5589 82.1175 38.1351 80.8992C37.5237 79.9795 36.7901 79.1471 35.9543 78.4252C34.4057 76.6933 35.093 74.9798 35.5603 72.9731L35.3495 72.854L32.9763 78.0678L36.275 80.1387C36.5709 80.391 36.8068 80.7062 36.9653 81.0613C37.1238 81.4164 37.201 81.8024 37.1913 82.1912L37.7411 89.5217C37.9211 89.907 38.1758 90.2528 38.4904 90.5391C38.8049 90.8254 39.1732 91.0464 39.5737 91.1894C39.3557 91.0008 39.159 90.7888 38.9873 90.5571Z" fill="#F2B193"/>
</g>
<path d="M40.49 95.2121C40.49 95.2121 37.5212 93.4619 37.3746 91.4827V91.5285C36.4582 93.8468 40.3617 96.1101 40.3617 96.1101C42.0569 96.9256 44.6592 96.4582 44.3294 94.6898C43.7796 95.6702 41.8553 95.8626 40.49 95.2121Z" fill="white"/>
<path d="M37.7409 89.5674C38.2632 89.8881 38.6572 90.3187 39.262 90.0622C39.8667 89.8056 39.1154 88.9809 39.995 89.0267C40.8261 89.1008 41.6522 89.2232 42.4691 89.3933C42.295 90.1904 42.1667 90.7861 42.1667 90.8044C42.1025 91.0335 44.3017 92.8936 44.4941 93.6908C44.9523 95.5234 42.2675 96.0457 40.5356 95.2118C40.5356 95.2118 36.6321 92.9119 37.5485 90.6303L37.7409 89.5674Z" fill="#C24D58"/>
<g style="mix-blend-mode:multiply">
<path d="M39.5094 92.0782C39.8726 92.746 40.4031 93.308 41.0488 93.7092C41.4805 93.825 41.934 93.8338 42.3699 93.7348C42.8058 93.6358 43.2109 93.432 43.5503 93.1411C43.8252 92.7929 43.6419 92.8112 43.6144 92.463C43.078 91.9543 42.5874 91.3993 42.1483 90.8045C42.1483 90.8045 42.2766 90.1906 42.4507 89.3934C41.6339 89.2233 40.8078 89.1009 39.9767 89.0269C39.3994 89.0269 39.5002 89.3567 39.4819 89.6774C39.5277 90.4105 39.0695 91.3451 39.5094 92.0782Z" fill="#BCBEC0"/>
</g>
<g style="mix-blend-mode:multiply">
<path d="M37.7409 89.5674C38.0528 89.7992 38.3951 89.9873 38.758 90.1263C38.758 90.3738 38.813 90.4562 39.152 90.5662C37.466 91.4825 39.7843 93.929 40.8747 94.6621C41.6444 95.1752 43.1105 95.4043 43.8344 94.6621C44.0295 94.4955 44.1741 94.2776 44.2519 94.0331C44.3296 93.7886 44.3373 93.5272 44.2742 93.2785C44.3718 93.4015 44.4463 93.5412 44.4941 93.6908C44.9523 95.5234 42.2675 96.0457 40.5356 95.2119C40.5356 95.2119 36.6321 92.9119 37.5485 90.6303L37.7409 89.5674Z" fill="#D1D3D4"/>
</g>
<path d="M41.8096 90.9329C41.8646 91.0429 41.9654 91.0979 42.0295 91.0704C42.0937 91.0429 42.1211 90.9238 42.0295 90.8138C41.9379 90.7039 41.8737 90.6397 41.8004 90.6764C41.7271 90.713 41.7638 90.823 41.8096 90.9329Z" fill="#BCBEC0"/>
<path d="M42.2585 91.5557C42.3135 91.6657 42.4143 91.7207 42.4876 91.6932C42.5174 91.6571 42.5337 91.6117 42.5337 91.5649C42.5337 91.5181 42.5174 91.4727 42.4876 91.4366C42.4326 91.3267 42.3318 91.2625 42.2585 91.2992C42.1852 91.3358 42.2127 91.4458 42.2585 91.5557Z" fill="#BCBEC0"/>
<path d="M42.7439 92.2708C42.7897 92.3808 42.8905 92.4449 42.9638 92.4083C43.0371 92.3716 43.0555 92.2617 42.9638 92.1517C42.8722 92.0417 42.8172 91.9776 42.7439 92.0143C42.6706 92.0509 42.6889 92.1609 42.7439 92.2708Z" fill="#BCBEC0"/>
<path d="M39.7293 91.9042C39.7751 92.0141 39.8759 92.0782 39.9492 92.0416C40.0225 92.0049 40.0408 91.895 39.9492 91.785C39.8576 91.6751 39.8026 91.6109 39.7293 91.6476C39.656 91.6842 39.6743 91.7942 39.7293 91.9042Z" fill="#BCBEC0"/>
<path d="M40.1145 92.5549C40.1145 92.6648 40.2611 92.729 40.3344 92.6923C40.4077 92.6557 40.4261 92.5457 40.3344 92.4357C40.3215 92.3895 40.2918 92.3498 40.2511 92.3244C40.2104 92.299 40.1617 92.2897 40.1145 92.2983C40.0779 92.335 40.0595 92.4449 40.1145 92.5549Z" fill="#BCBEC0"/>
<path d="M40.6547 93.3887C40.7097 93.4987 40.8105 93.5537 40.8747 93.5262C40.9114 93.4958 40.9362 93.4533 40.9446 93.4063C40.953 93.3593 40.9445 93.3109 40.9205 93.2696C40.8655 93.1597 40.7647 93.0955 40.6914 93.1322C40.6181 93.1688 40.5998 93.2788 40.6547 93.3887Z" fill="#BCBEC0"/>
<path d="M42.4326 91.6203C42.4384 91.6074 42.4414 91.5933 42.4414 91.5791C42.4414 91.5649 42.4384 91.5508 42.4326 91.5379C42.4303 91.5055 42.4198 91.4743 42.4022 91.447C42.3846 91.4198 42.3604 91.3975 42.3318 91.3821C41.4814 91.2269 40.604 91.329 39.8119 91.6753C39.7661 91.6753 39.757 91.7578 39.8119 91.8311C39.8205 91.8595 39.8393 91.8836 39.8647 91.8989C39.8901 91.9141 39.9203 91.9194 39.9494 91.9135C40.7068 91.5826 41.5446 91.4807 42.3593 91.6203H42.4326Z" fill="#BEC0C2"/>
<path d="M42.9272 92.3258C42.9272 92.3258 42.9272 92.3258 42.9272 92.2433C42.9262 92.2118 42.9162 92.1813 42.8983 92.1553C42.8804 92.1293 42.8555 92.109 42.8265 92.0967C41.9536 91.9355 41.0532 92.0179 40.2241 92.335C40.207 92.3573 40.1978 92.3847 40.1978 92.4129C40.1978 92.441 40.207 92.4684 40.2241 92.4907C40.2323 92.5181 40.2493 92.542 40.2725 92.5586C40.2958 92.5752 40.3239 92.5836 40.3524 92.5824C41.1479 92.2731 42.0122 92.1844 42.8539 92.3258H42.9272Z" fill="#BEC0C2"/>
<path d="M41.9927 90.9878C41.9927 90.9878 42.0476 90.9236 41.9927 90.8686C41.9888 90.8384 41.9751 90.8103 41.9535 90.7887C41.9319 90.7671 41.9038 90.7533 41.8735 90.7495C41.4715 90.7666 41.0769 90.8628 40.7121 91.0326C40.3473 91.2025 40.0196 91.4425 39.7477 91.7391C39.7276 91.7637 39.7166 91.7944 39.7166 91.8262C39.7166 91.8579 39.7276 91.8887 39.7477 91.9132C39.7477 91.9682 39.8393 91.9865 39.876 91.9132C40.4147 91.3575 41.1461 91.0296 41.9193 90.9969L41.9927 90.9878Z" fill="white"/>
<path d="M40.3799 92.5729C40.7214 91.9136 41.255 91.3736 41.9102 91.0243C41.9102 91.0243 41.9102 90.9327 41.9102 90.8686C41.9102 90.8044 41.8094 90.7586 41.7727 90.7953C41.0864 91.1582 40.5295 91.7248 40.1783 92.4171C40.1715 92.4484 40.1729 92.481 40.1826 92.5115C40.1922 92.5421 40.2097 92.5696 40.2333 92.5912C40.2333 92.5912 40.3524 92.5912 40.3799 92.5729Z" fill="#DEDFE0"/>
<path d="M40.875 93.2878C41.21 92.6142 41.7317 92.0512 42.3778 91.6659C42.3956 91.6421 42.4053 91.6132 42.4053 91.5835C42.4053 91.5537 42.3956 91.5248 42.3778 91.501C42.3778 91.446 42.2953 91.4093 42.2403 91.4368C41.5677 91.8389 41.0265 92.4279 40.6826 93.132C40.6767 93.1633 40.6785 93.1956 40.6881 93.226C40.6977 93.2564 40.7147 93.2839 40.7376 93.3061C40.7474 93.3148 40.759 93.3213 40.7716 93.3252C40.7842 93.329 40.7975 93.3301 40.8105 93.3284C40.8236 93.3266 40.8361 93.3221 40.8472 93.3151C40.8583 93.3081 40.8678 93.2988 40.875 93.2878Z" fill="#DEDFE0"/>
<path d="M42.6432 91.8952C42.6432 91.8952 42.689 91.8311 42.6432 91.7761C42.6362 91.7457 42.6203 91.7181 42.5974 91.6968C42.5745 91.6756 42.5458 91.6617 42.5149 91.657C41.7038 91.6945 40.94 92.0501 40.3891 92.6466C40.369 92.6712 40.358 92.7019 40.358 92.7337C40.358 92.7654 40.369 92.7962 40.3891 92.8207C40.3891 92.8757 40.4899 92.894 40.5174 92.8207C41.0561 92.265 41.7875 91.9371 42.5607 91.9044L42.6432 91.8952Z" fill="white"/>
<path d="M40.8659 93.3522C41.3748 92.7622 42.0959 92.3967 42.8726 92.335C42.9276 92.335 42.9551 92.2801 42.9367 92.2068C42.9297 92.1763 42.9138 92.1487 42.8909 92.1275C42.868 92.1063 42.8393 92.0924 42.8084 92.0876C41.9986 92.1527 41.246 92.5307 40.7101 93.1414C40.69 93.166 40.679 93.1967 40.679 93.2284C40.679 93.2602 40.69 93.2909 40.7101 93.3155C40.7926 93.3522 40.8384 93.3705 40.8659 93.3522Z" fill="white"/>
<path d="M40.9207 91.2261C40.927 91.2083 40.927 91.1889 40.9207 91.1711V91.0886C41.004 90.7527 40.975 90.3987 40.8382 90.0807C40.8155 90.0431 40.7831 90.0122 40.7444 89.9913C40.7058 89.9704 40.6623 89.9601 40.6183 89.9616C40.5084 89.9616 40.4625 90.044 40.4442 90.1632C40.422 90.2782 40.422 90.3964 40.4442 90.5114C40.2335 90.3189 40.0044 90.1632 39.8761 90.2273C39.7478 90.2914 39.7845 90.2915 39.7845 90.4106C39.774 90.4911 39.7936 90.5727 39.8394 90.6397C40.0616 90.9385 40.3893 91.1416 40.7558 91.2078L40.9207 91.2261ZM40.0594 90.4747C40.151 90.4747 40.4809 90.7129 40.6458 90.9329C40.4202 90.8826 40.2155 90.7643 40.0594 90.5938C40.0557 90.5757 40.0557 90.557 40.0594 90.5388C40.0502 90.4839 40.0594 90.4747 40.0594 90.4747ZM40.6916 90.2273H40.7649C40.8179 90.4223 40.8179 90.6279 40.7649 90.8229C40.6794 90.6552 40.6325 90.4705 40.6275 90.2823C40.6312 90.2676 40.6394 90.2545 40.6508 90.2446C40.6623 90.2348 40.6766 90.2287 40.6916 90.2273Z" fill="white"/>
<g style="mix-blend-mode:soft-light">
<path d="M40.087 93.3794L40.536 93.6268C40.6642 93.7001 40.82 93.7734 40.9758 93.8467C41.1458 93.9188 41.3203 93.98 41.4981 94.03C41.6719 94.0857 41.8495 94.1286 42.0295 94.1583H42.2769H42.5152H43.0283L42.9 94.2407C42.7923 94.3118 42.6751 94.3673 42.5518 94.4057C42.469 94.4366 42.3829 94.4582 42.2953 94.4698C42.1978 94.4792 42.0996 94.4792 42.0021 94.4698C41.8956 94.4832 41.7878 94.4832 41.6813 94.4698L41.3606 94.4057L41.0583 94.2865C40.9575 94.2407 40.875 94.1766 40.7834 94.1308C40.6301 94.0277 40.4913 93.9044 40.371 93.7643C40.2534 93.6546 40.1571 93.5241 40.087 93.3794Z" fill="white"/>
</g>
<path d="M27.9368 74.3843L36.2569 81.1284C40.9026 80.4595 41.938 77.2615 41.938 77.2615L35.9911 70.49L27.9368 74.3843Z" fill="#0063A1"/>
<path d="M29.861 71.8918L33.6729 81.1283C31.6363 82.4295 29.2261 83.0192 26.8189 82.8051L20.4047 78.0403C20.4047 78.0403 18.3246 76.4459 18.3246 74.934L29.861 71.8918Z" fill="#0063A1"/>
<path d="M24.4546 42.4146H29.8608V45.0077H24.4546V42.4146Z" fill="#FBB88E"/>
<path d="M24.4546 43.1842V42.4146H29.8608V43.9906C28.0201 44.1617 26.1653 43.885 24.4546 43.1842Z" fill="#E69D82"/>
<path d="M9.18904 27.2862C9.18904 36.0919 17.2526 43.2208 27.2037 43.2208C37.1548 43.2208 45.2275 36.0919 45.2275 27.2862C45.2275 18.4804 37.164 11.3699 27.2037 11.3699C17.2434 11.3699 9.18904 18.4896 9.18904 27.2862Z" fill="#F8B78F"/>
<path d="M47.4907 30.4842C47.541 30.8013 47.5195 31.1257 47.4277 31.4333C47.3358 31.741 47.1761 32.0241 46.9602 32.2618C46.7443 32.4994 46.4778 32.6856 46.1804 32.8065C45.8829 32.9274 45.5621 32.9799 45.2416 32.9603C44.9212 32.9406 44.6092 32.8492 44.3288 32.6928C44.0484 32.5364 43.8066 32.3191 43.6214 32.0568C43.4363 31.7945 43.3123 31.4939 43.2588 31.1774C43.2054 30.8608 43.2236 30.5362 43.3124 30.2276C43.2621 29.9105 43.2836 29.5862 43.3755 29.2785C43.4673 28.9708 43.627 28.6877 43.8429 28.4501C44.0588 28.2124 44.3253 28.0263 44.6227 27.9054C44.9202 27.7845 45.241 27.7319 45.5615 27.7516C45.8819 27.7713 46.1939 27.8627 46.4743 28.019C46.7547 28.1754 46.9965 28.3928 47.1817 28.6551C47.3668 28.9174 47.4908 29.2179 47.5442 29.5345C47.5977 29.8511 47.5795 30.1756 47.4907 30.4842Z" fill="#F8B78F"/>
<path d="M46.4644 28.5507C46.3049 28.4706 46.1297 28.4267 45.9513 28.4224C45.1907 28.4224 44.641 29.7144 45.4107 29.9068C45.4875 29.9978 45.5297 30.113 45.5297 30.2321C45.5297 30.3512 45.4875 30.4664 45.4107 30.5574C45.2517 30.7149 45.1272 30.9038 45.0451 31.112C44.9631 31.3202 44.9253 31.5433 44.9342 31.7669C44.9892 32.0235 45.264 32.1518 45.5023 32.2067C45.7405 32.2617 45.7314 32.0785 45.5756 32.0143C45.4582 31.9545 45.355 31.8702 45.2732 31.7669V31.7211C45.2551 31.6582 45.2551 31.5915 45.2732 31.5287C45.3529 31.6027 45.4576 31.6439 45.5664 31.6439C45.6752 31.6439 45.78 31.6027 45.8596 31.5287C45.9971 31.3362 45.8596 31.043 45.9146 30.8323C45.943 30.6784 45.9956 30.5299 46.0704 30.3925C46.3911 29.7419 45.7497 29.6686 45.7497 29.6686H45.5206C45.1999 29.5036 45.5206 28.9721 45.7222 28.8805C45.8288 28.8222 45.9514 28.7997 46.0717 28.8162C46.1921 28.8327 46.3041 28.8874 46.3911 28.9722C46.5557 29.1765 46.6404 29.4338 46.6293 29.696C46.6333 30.0092 46.5773 30.3202 46.4644 30.6124C46.4094 30.7681 46.327 30.9605 46.2628 31.1163C46.1987 31.2721 46.3911 31.3637 46.4553 31.1805C46.682 30.7123 46.8335 30.2114 46.9042 29.696C46.9482 29.4831 46.9302 29.2619 46.8522 29.0589C46.7743 28.8559 46.6397 28.6795 46.4644 28.5507Z" fill="#E69D82"/>
<path d="M6.92539 30.4839C7.03994 30.8708 7.26129 31.2174 7.56401 31.4841C7.86673 31.7507 8.23855 31.9266 8.63672 31.9914C9.0349 32.0563 9.44329 32.0074 9.81497 31.8506C10.1866 31.6937 10.5065 31.4352 10.7379 31.1047C10.9692 30.7742 11.1027 30.3852 11.1228 29.9823C11.143 29.5794 11.049 29.1789 10.8518 28.827C10.6546 28.475 10.3621 28.1859 10.008 27.9927C9.65379 27.7996 9.25231 27.7102 8.84965 27.735C8.23456 27.8533 7.6897 28.2064 7.3305 28.7196C6.97131 29.2327 6.826 29.8655 6.92539 30.4839Z" fill="#F8B78F"/>
<path d="M7.9519 28.5507C8.11138 28.4706 8.28662 28.4267 8.46503 28.4224C9.22557 28.4224 9.77535 29.7144 9.00565 29.9068C8.92702 29.9969 8.8837 30.1125 8.8837 30.2321C8.8837 30.3517 8.92702 30.4673 9.00565 30.5574C9.16465 30.7149 9.28913 30.9038 9.37116 31.112C9.45319 31.3202 9.49099 31.5433 9.48214 31.7669C9.43564 31.8862 9.35717 31.9904 9.25532 32.068C9.15348 32.1456 9.03221 32.1936 8.90486 32.2067C8.71243 32.2067 8.68495 32.0785 8.84072 32.0143C8.95813 31.9545 9.06126 31.8702 9.14309 31.7669V31.7211C9.16117 31.6582 9.16117 31.5915 9.14309 31.5287C9.06097 31.6015 8.95503 31.6416 8.84529 31.6416C8.73556 31.6416 8.62962 31.6015 8.5475 31.5287C8.41921 31.3362 8.54749 31.043 8.50168 30.8323C8.4687 30.6796 8.41636 30.5318 8.34591 30.3925C8.0252 29.7419 8.65745 29.6686 8.65745 29.6686H8.8957C9.21641 29.5036 8.8957 28.9721 8.69411 28.8805C8.58747 28.8222 8.46496 28.7997 8.34456 28.8162C8.22417 28.8327 8.11224 28.8874 8.02521 28.9722C7.86057 29.1765 7.77588 29.4338 7.78696 29.696C7.78464 30.0083 7.83737 30.3184 7.94273 30.6124L8.15349 31.1163C8.21763 31.2996 8.0252 31.3637 7.9519 31.1805C7.72933 30.7107 7.578 30.2104 7.5029 29.696C7.45989 29.4822 7.47935 29.2604 7.55897 29.0573C7.63859 28.8542 7.775 28.6783 7.9519 28.5507Z" fill="#E69D82"/>
<path d="M28.2214 33.2864C28.2214 33.2062 28.1895 33.1292 28.1328 33.0725C28.0761 33.0158 27.9992 32.984 27.919 32.984C27.7804 32.9973 27.6406 32.9815 27.5085 32.9376C27.3764 32.8937 27.2549 32.8226 27.1519 32.729C27.0488 32.6354 26.9665 32.5213 26.9101 32.394C26.8538 32.2667 26.8247 32.129 26.8247 31.9898C26.8247 31.8506 26.8538 31.7129 26.9101 31.5856C26.9665 31.4583 27.0488 31.3441 27.1519 31.2505C27.2549 31.1569 27.3764 31.0859 27.5085 31.042C27.6406 30.9981 27.7804 30.9823 27.919 30.9956C27.9587 30.9956 27.998 30.9878 28.0347 30.9726C28.0714 30.9574 28.1047 30.9351 28.1328 30.907C28.1609 30.8789 28.1832 30.8456 28.1984 30.8089C28.2136 30.7722 28.2214 30.7329 28.2214 30.6932C28.2214 30.6535 28.2136 30.6142 28.1984 30.5775C28.1832 30.5408 28.1609 30.5075 28.1328 30.4794C28.1047 30.4513 28.0714 30.429 28.0347 30.4138C27.998 30.3986 27.9587 30.3908 27.919 30.3908C27.6989 30.3741 27.4776 30.4031 27.2692 30.4759C27.0608 30.5487 26.8696 30.6637 26.7077 30.8138C26.5458 30.964 26.4166 31.1459 26.3283 31.3482C26.2399 31.5506 26.1943 31.769 26.1943 31.9898C26.1943 32.2106 26.2399 32.429 26.3283 32.6313C26.4166 32.8337 26.5458 33.0156 26.7077 33.1657C26.8696 33.3158 27.0608 33.4309 27.2692 33.5036C27.4776 33.5764 27.6989 33.6054 27.919 33.5887C27.9992 33.5887 28.0761 33.5569 28.1328 33.5002C28.1895 33.4435 28.2214 33.3666 28.2214 33.2864Z" fill="#E89D7F"/>
<path opacity="0.3" d="M39.5737 32.5821C39.5737 33.4984 38.4192 34.204 36.9897 34.204C35.5603 34.204 34.4057 33.48 34.4057 32.5821C34.4057 31.6841 35.5603 30.9602 36.9897 30.9602C38.4192 30.9602 39.5737 31.6841 39.5737 32.5821Z" fill="#F27383"/>
<path opacity="0.3" d="M19.9922 32.5821C19.9922 33.4984 18.8376 34.204 17.4082 34.204C15.9787 34.204 14.8242 33.48 14.8242 32.5821C14.8242 31.6841 15.9787 30.9602 17.4082 30.9602C18.8376 30.9602 19.9922 31.6841 19.9922 32.5821Z" fill="#F27383"/>
<path d="M40.0411 4.78136C46.3545 6.02754 47.4999 15.8595 47.4999 15.8595C47.9489 20.6977 47.9672 22.5578 46.5286 28.1106C46.5286 28.1106 46.382 27.7808 45.2183 27.7624C45.2183 27.7624 44.6227 25.7007 44.5952 25.5724C44.324 24.1508 43.7325 22.8095 42.8656 21.6505C41.9988 20.4915 40.8793 19.5452 39.5922 18.8834C34.4242 15.2181 36.3393 13.5505 36.3393 13.5505C36.2476 14.0544 34.8732 14.9707 34.4242 15.0807C32.1151 15.6305 29.6593 15.1265 27.6068 15.1998C23.9416 15.3281 20.0198 15.5663 16.9868 17.8113C14.403 19.8257 12.2263 22.3135 10.5726 25.1418C10.4077 25.4075 9.33558 27.7899 9.21646 27.7624C8.70087 27.7323 8.19312 27.8993 7.79619 28.2297C7.79619 28.2297 4.87315 11.1405 13.8896 6.34824C13.8896 6.34824 29.5311 -1.94436 40.0595 4.80884" fill="#99563A"/>
<path d="M36.0094 14.0364C37.3564 10.9393 38.6575 7.81465 40.2977 4.87329C46.382 6.33939 47.4999 15.869 47.4999 15.869C47.9489 20.7071 47.9672 22.5672 46.5286 28.1201C46.5286 28.1201 46.382 27.7902 45.2183 27.7719C45.2183 27.7719 44.6227 25.7102 44.5952 25.5819C44.324 24.1602 43.7325 22.819 42.8656 21.66C41.9988 20.501 40.8793 19.5547 39.5922 18.8928C35.8811 16.2813 35.8261 14.6686 36.0827 13.9722L36.0094 14.0364Z" fill="#99563A"/>
<path d="M37.0174 23.6573C36.4718 23.1691 35.785 22.8675 35.0565 22.796C34.9023 22.7531 34.7714 22.651 34.6924 22.5119C34.6134 22.3728 34.5928 22.2081 34.6349 22.0537C34.6818 21.9002 34.7861 21.7707 34.926 21.6922C35.066 21.6137 35.2309 21.5922 35.3863 21.6323C36.3193 21.7468 37.1919 22.1542 37.8787 22.796C38.4376 23.3366 37.5855 24.1979 37.0174 23.6573Z" fill="#B46546"/>
<path d="M17.3991 23.6572C17.9411 23.1692 18.625 22.8674 19.3508 22.7958C19.5053 22.7529 19.6369 22.6512 19.7174 22.5125C19.7979 22.3738 19.8209 22.2091 19.7815 22.0536C19.7327 21.9014 19.6281 21.7733 19.4887 21.6951C19.3493 21.6169 19.1855 21.5944 19.0301 21.6321C18.0967 21.7448 17.2235 22.1525 16.5378 22.7958C15.9697 23.3365 16.831 24.1978 17.3991 23.6572Z" fill="#B46546"/>
<path d="M35.0748 31.1987C35.1266 31.2092 35.1732 31.2373 35.2066 31.2782C35.24 31.3191 35.2583 31.3704 35.2583 31.4232C35.2583 31.4761 35.24 31.5273 35.2066 31.5682C35.1732 31.6091 35.1266 31.6372 35.0748 31.6477C35.023 31.6372 34.9765 31.6091 34.943 31.5682C34.9096 31.5273 34.8913 31.4761 34.8913 31.4232C34.8913 31.3704 34.9096 31.3191 34.943 31.2782C34.9765 31.2373 35.023 31.2092 35.0748 31.1987Z" fill="#C88972"/>
<path d="M37.1822 31.4004C37.234 31.4109 37.2806 31.439 37.314 31.4799C37.3474 31.5208 37.3657 31.5721 37.3657 31.6249C37.3657 31.6778 37.3474 31.729 37.314 31.7699C37.2806 31.8108 37.234 31.8389 37.1822 31.8494C37.1304 31.8389 37.0839 31.8108 37.0504 31.7699C37.017 31.729 36.9987 31.6778 36.9987 31.6249C36.9987 31.5721 37.017 31.5208 37.0504 31.4799C37.0839 31.439 37.1304 31.4109 37.1822 31.4004Z" fill="#C88972"/>
<path d="M35.9086 32.3533C35.9694 32.3533 36.0276 32.3774 36.0706 32.4204C36.1136 32.4633 36.1377 32.5216 36.1377 32.5823C36.1377 32.6431 36.1136 32.7014 36.0706 32.7443C36.0276 32.7873 35.9694 32.8114 35.9086 32.8114C35.8479 32.8114 35.7896 32.7873 35.7466 32.7443C35.7037 32.7014 35.6795 32.6431 35.6795 32.5823C35.6795 32.5216 35.7037 32.4633 35.7466 32.4204C35.7896 32.3774 35.8479 32.3533 35.9086 32.3533Z" fill="#C88972"/>
<path d="M33.92 32.1057C33.9718 32.1162 34.0184 32.1443 34.0518 32.1852C34.0852 32.2262 34.1035 32.2774 34.1035 32.3302C34.1035 32.383 34.0852 32.4343 34.0518 32.4752C34.0184 32.5161 33.9718 32.5442 33.92 32.5547C33.8682 32.5442 33.8217 32.5161 33.7882 32.4752C33.7548 32.4343 33.7365 32.383 33.7365 32.3302C33.7365 32.2774 33.7548 32.2262 33.7882 32.1852C33.8217 32.1443 33.8682 32.1162 33.92 32.1057Z" fill="#C88972"/>
<path d="M37.5855 32.6558C37.6373 32.6663 37.6839 32.6943 37.7173 32.7353C37.7508 32.7762 37.769 32.8274 37.769 32.8803C37.769 32.9331 37.7508 32.9843 37.7173 33.0252C37.6839 33.0661 37.6373 33.0942 37.5855 33.1047C37.5338 33.0942 37.4872 33.0661 37.4538 33.0252C37.4203 32.9843 37.402 32.9331 37.402 32.8803C37.402 32.8274 37.4203 32.7762 37.4538 32.7353C37.4872 32.6943 37.5338 32.6663 37.5855 32.6558Z" fill="#C88972"/>
<path d="M35.3222 33.6084C35.3829 33.6084 35.4412 33.6326 35.4842 33.6755C35.5271 33.7185 35.5513 33.7767 35.5513 33.8375C35.5513 33.8982 35.5271 33.9565 35.4842 33.9995C35.4412 34.0424 35.3829 34.0666 35.3222 34.0666C35.2614 34.0666 35.2032 34.0424 35.1602 33.9995C35.1173 33.9565 35.0931 33.8982 35.0931 33.8375C35.0931 33.7767 35.1173 33.7185 35.1602 33.6755C35.2032 33.6326 35.2614 33.6084 35.3222 33.6084Z" fill="#C88972"/>
<path d="M17.9855 31.1987C18.0372 31.2092 18.0838 31.2373 18.1172 31.2782C18.1507 31.3191 18.1689 31.3704 18.1689 31.4232C18.1689 31.4761 18.1507 31.5273 18.1172 31.5682C18.0838 31.6091 18.0372 31.6372 17.9855 31.6477C17.9337 31.6372 17.8871 31.6091 17.8537 31.5682C17.8202 31.5273 17.802 31.4761 17.802 31.4232C17.802 31.3704 17.8202 31.3191 17.8537 31.2782C17.8871 31.2373 17.9337 31.2092 17.9855 31.1987Z" fill="#C88972"/>
<path d="M20.1021 31.4004C20.1539 31.4109 20.2005 31.439 20.2339 31.4799C20.2674 31.5208 20.2856 31.5721 20.2856 31.6249C20.2856 31.6778 20.2674 31.729 20.2339 31.7699C20.2005 31.8108 20.1539 31.8389 20.1021 31.8494C20.0504 31.8389 20.0038 31.8108 19.9704 31.7699C19.9369 31.729 19.9187 31.6778 19.9187 31.6249C19.9187 31.5721 19.9369 31.5208 19.9704 31.4799C20.0038 31.439 20.0504 31.4109 20.1021 31.4004Z" fill="#C88972"/>
<path d="M18.7919 32.3533C18.8527 32.3533 18.9109 32.3774 18.9539 32.4204C18.9969 32.4633 19.021 32.5216 19.021 32.5823C19.021 32.6431 18.9969 32.7014 18.9539 32.7443C18.9109 32.7873 18.8527 32.8114 18.7919 32.8114C18.7312 32.8114 18.6729 32.7873 18.6299 32.7443C18.587 32.7014 18.5628 32.6431 18.5628 32.5823C18.5628 32.5216 18.587 32.4633 18.6299 32.4204C18.6729 32.3774 18.7312 32.3533 18.7919 32.3533Z" fill="#C88972"/>
<path d="M16.8307 32.1057C16.8824 32.1162 16.929 32.1443 16.9625 32.1852C16.9959 32.2262 17.0142 32.2774 17.0142 32.3302C17.0142 32.383 16.9959 32.4343 16.9625 32.4752C16.929 32.5161 16.8824 32.5442 16.8307 32.5547C16.7789 32.5442 16.7323 32.5161 16.6989 32.4752C16.6654 32.4343 16.6472 32.383 16.6472 32.3302C16.6472 32.2774 16.6654 32.2262 16.6989 32.1852C16.7323 32.1443 16.7789 32.1162 16.8307 32.1057Z" fill="#C88972"/>
<path d="M20.4962 32.6558C20.548 32.6663 20.5945 32.6943 20.628 32.7353C20.6614 32.7762 20.6797 32.8274 20.6797 32.8803C20.6797 32.9331 20.6614 32.9843 20.628 33.0252C20.5945 33.0661 20.548 33.0942 20.4962 33.1047C20.4444 33.0942 20.3979 33.0661 20.3644 33.0252C20.331 32.9843 20.3127 32.9331 20.3127 32.8803C20.3127 32.8274 20.331 32.7762 20.3644 32.7353C20.3979 32.6943 20.4444 32.6663 20.4962 32.6558Z" fill="#C88972"/>
<path d="M18.2328 33.6084C18.2936 33.6084 18.3519 33.6326 18.3948 33.6755C18.4378 33.7185 18.4619 33.7767 18.4619 33.8375C18.4619 33.8982 18.4378 33.9565 18.3948 33.9995C18.3519 34.0424 18.2936 34.0666 18.2328 34.0666C18.1721 34.0666 18.1138 34.0424 18.0708 33.9995C18.0279 33.9565 18.0038 33.8982 18.0038 33.8375C18.0038 33.7767 18.0279 33.7185 18.0708 33.6755C18.1138 33.6326 18.1721 33.6084 18.2328 33.6084Z" fill="#C88972"/>
<path opacity="0.1" d="M37.2461 14.4027C37.2461 14.4027 44.3383 18.9293 44.714 22.5579C44.625 21.0142 44.2392 19.5023 43.5778 18.1046C43.5778 18.1046 45.9236 19.1309 46.0244 21.3117C46.0244 21.3117 47.5363 16.5286 39.7018 12.1028C39.7018 12.1028 42.4507 14.7326 42.8722 17.1792C42.8722 17.1792 40.3982 14.3203 37.2461 14.4027Z" fill="white"/>
<path d="M23.2081 35.6331H31.2075C31.2075 35.6331 30.5936 38.2445 27.2032 38.382C26.332 38.406 25.4756 38.1528 24.7576 37.6587C24.0396 37.1647 23.497 36.4554 23.2081 35.6331Z" fill="#C37466"/>
<path d="M25.0595 36.8977C25.394 36.5728 25.7976 36.3276 26.2401 36.1804C26.6827 36.0333 27.1527 35.988 27.6152 36.0479C28.0777 36.1078 28.5207 36.2714 28.9112 36.5264C29.3016 36.7815 29.6294 37.1214 29.8701 37.5208C29.0997 38.099 28.1667 38.4196 27.2036 38.4371C26.2417 38.4464 25.3061 38.1226 24.5555 37.5208C24.7006 37.2956 24.8696 37.0867 25.0595 36.8977Z" fill="#F3917E"/>
<path d="M27.286 39.8944C27.61 39.9008 27.9287 39.8115 28.2023 39.6378C28.2318 39.6168 28.2569 39.5901 28.276 39.5594C28.2952 39.5286 28.3082 39.4944 28.3141 39.4587C28.3201 39.423 28.3189 39.3864 28.3108 39.3511C28.3026 39.3158 28.2875 39.2825 28.2665 39.253C28.2454 39.2235 28.2188 39.1984 28.188 39.1793C28.1573 39.1601 28.1231 39.1472 28.0873 39.1412C28.0516 39.1352 28.015 39.1364 27.9797 39.1446C27.9445 39.1527 27.9111 39.1678 27.8816 39.1888C27.6486 39.3064 27.3913 39.3677 27.1303 39.3677C26.8693 39.3677 26.6119 39.3064 26.3789 39.1888C26.312 39.1614 26.237 39.1614 26.1701 39.1888C26.1032 39.2162 26.0498 39.2689 26.0215 39.3354C25.9942 39.4048 25.9953 39.482 26.0244 39.5506C26.0536 39.6191 26.1085 39.6735 26.1773 39.702C26.5304 39.8392 26.9073 39.9046 27.286 39.8944Z" fill="#F5A586"/>
<path d="M27.5606 35.6331H29.6772C29.6772 35.6331 29.3382 36.5494 27.5606 36.7418V35.6331Z" fill="white"/>
<path d="M27.0112 35.6331V36.7601C26.5682 36.77 26.1294 36.6727 25.7322 36.4765C25.3349 36.2803 24.9909 35.9909 24.7296 35.6331H27.0112Z" fill="white"/>
<path d="M31.9406 27.7351C31.9388 28.368 32.1248 28.9872 32.4751 29.5143C32.8254 30.0414 33.3242 30.4527 33.9084 30.6962C34.4925 30.9396 35.1358 31.0043 35.7568 30.8819C36.3777 30.7595 36.9484 30.4557 37.3965 30.0088C37.8447 29.5619 38.1502 28.9922 38.2743 28.3716C38.3984 27.751 38.3357 27.1075 38.0939 26.5226C37.8521 25.9378 37.4422 25.4378 36.9161 25.086C36.39 24.7342 35.7714 24.5464 35.1385 24.5464C34.292 24.5464 33.4799 24.882 32.8805 25.4798C32.281 26.0775 31.943 26.8886 31.9406 27.7351Z" fill="white"/>
<path d="M32.5363 27.7347C32.556 28.1376 32.6935 28.5259 32.9317 28.8514C33.1699 29.1769 33.4983 29.4255 33.8764 29.5662C34.2544 29.7069 34.6654 29.7336 35.0585 29.643C35.4515 29.5524 35.8094 29.3486 36.0877 29.0566C36.3661 28.7647 36.5527 28.3975 36.6244 28.0005C36.6961 27.6036 36.6498 27.1944 36.4912 26.8235C36.3327 26.4526 36.0688 26.1363 35.7322 25.914C35.3957 25.6916 35.0014 25.5727 34.598 25.5723C34.0382 25.5867 33.5069 25.8223 33.1205 26.2276C32.734 26.633 32.524 27.1749 32.5363 27.7347Z" fill="#70432E"/>
<path d="M35.1387 30.9326H35.5786C35.7452 30.9631 35.9159 30.9631 36.0825 30.9326C36.3172 30.9159 36.5469 30.8569 36.7606 30.7585C36.8797 30.7035 37.008 30.6577 37.1271 30.5936L37.4845 30.3462C37.7354 30.1561 37.9576 29.9308 38.1442 29.6773C38.3455 29.3986 38.5002 29.0892 38.6024 28.761C38.7161 28.4083 38.7779 28.041 38.7856 27.6705C38.7676 27.3409 38.7091 27.0147 38.6115 26.6993C38.5055 26.3709 38.3477 26.0616 38.1442 25.7829C37.96 25.53 37.7374 25.3074 37.4845 25.1232C37.3697 25.0346 37.2505 24.952 37.1271 24.8758C37.0085 24.8132 36.8861 24.7582 36.7606 24.7109C36.5501 24.6125 36.3234 24.5535 36.0917 24.5368C35.9225 24.5014 35.7478 24.5014 35.5786 24.5368C35.2945 24.5368 35.1387 24.5826 35.1387 24.5826L35.5511 24.7109C35.7067 24.7474 35.8553 24.8093 35.9909 24.8941C36.1783 24.9738 36.354 25.0786 36.5132 25.2057C36.7034 25.3319 36.8759 25.4829 37.0263 25.6547C37.1933 25.8428 37.3436 26.0451 37.4753 26.2594C37.596 26.4822 37.6883 26.7193 37.7502 26.965C37.8318 27.2418 37.8749 27.5286 37.8785 27.8172C37.8615 28.0707 37.8217 28.3222 37.7594 28.5685C37.6935 28.8201 37.5981 29.0631 37.4753 29.2924C37.3436 29.5067 37.1933 29.7091 37.0263 29.8972C36.8759 30.0689 36.7034 30.2199 36.5132 30.3462C36.3598 30.4695 36.1902 30.5713 36.0092 30.6486C35.8705 30.7335 35.7188 30.7954 35.5602 30.8318L35.1387 30.9326Z" fill="#E89D7F"/>
<path d="M22.4751 27.7351C22.4769 28.368 22.2909 28.9872 21.9406 29.5143C21.5903 30.0414 21.0915 30.4527 20.5073 30.6962C19.9231 30.9396 19.2799 31.0043 18.6589 30.8819C18.038 30.7595 17.4673 30.4557 17.0192 30.0088C16.571 29.5619 16.2655 28.9922 16.1414 28.3716C16.0172 27.751 16.08 27.1075 16.3218 26.5226C16.5636 25.9378 16.9734 25.4378 17.4995 25.086C18.0256 24.7342 18.6443 24.5464 19.2772 24.5464C20.1237 24.5464 20.9357 24.882 21.5352 25.4798C22.1347 26.0775 22.4727 26.8886 22.4751 27.7351Z" fill="white"/>
<path d="M21.8706 27.7348C21.8508 28.138 21.7131 28.5266 21.4745 28.8523C21.2359 29.1781 20.9069 29.4265 20.5284 29.567C20.1498 29.7074 19.7384 29.7336 19.3451 29.6422C18.9518 29.5509 18.5939 29.3461 18.316 29.0533C18.038 28.7604 17.8522 28.3924 17.7815 27.9949C17.7108 27.5974 17.7584 27.1878 17.9184 26.8171C18.0783 26.4464 18.3436 26.1308 18.6813 25.9095C19.019 25.6882 19.4143 25.571 19.818 25.5723C20.3763 25.5891 20.9052 25.8258 21.2897 26.2308C21.6741 26.6359 21.8829 27.1764 21.8706 27.7348Z" fill="#70432E"/>
<path d="M19.2773 30.9331L18.8558 30.7956C18.6972 30.7593 18.5456 30.6974 18.4068 30.6124C18.2258 30.5351 18.0563 30.4334 17.9029 30.31C17.7127 30.1837 17.5401 30.0327 17.3897 29.861C17.2227 29.6729 17.0725 29.4705 16.9407 29.2562C16.8179 29.0269 16.7226 28.784 16.6567 28.5324C16.5944 28.286 16.5545 28.0345 16.5376 27.781C16.5428 27.4985 16.5859 27.2181 16.6659 26.9471C16.7277 26.7014 16.8201 26.4644 16.9407 26.2416C17.0725 26.0273 17.2227 25.8249 17.3897 25.6368C17.5401 25.4651 17.7127 25.3141 17.9029 25.1878C18.0602 25.0629 18.2326 24.9582 18.416 24.8763C18.5555 24.7928 18.7069 24.731 18.865 24.693L19.2773 24.5647C19.2773 24.5647 19.1216 24.5647 18.8375 24.5189C18.6652 24.4836 18.4875 24.4836 18.3152 24.5189C18.0867 24.537 17.8632 24.596 17.6555 24.693C17.53 24.7403 17.4076 24.7954 17.2889 24.8579L16.9316 25.0962C16.6777 25.286 16.4524 25.5112 16.2627 25.7651C16.0656 26.0463 15.9112 26.355 15.8045 26.6814C15.703 26.9958 15.6444 27.3225 15.6304 27.6527C15.6337 28.0235 15.6955 28.3915 15.8137 28.7431C15.9159 29.0713 16.0706 29.3807 16.2718 29.6594C16.4584 29.9129 16.6806 30.1383 16.9316 30.3283L17.2889 30.5757C17.4081 30.6398 17.5363 30.6857 17.6555 30.7407C17.8692 30.8391 18.0989 30.898 18.3335 30.9147C18.5002 30.9452 18.6709 30.9452 18.8375 30.9147L19.2773 30.9331Z" fill="#E89D7F"/>
<path d="M35.9448 15.6581L38.9229 7.4021L35.1385 15.1724L35.9448 15.6581Z" fill="#F8B78F"/>
<path d="M40.041 4.78134L36.0184 14.2102C33.4274 16.6808 30.43 18.6863 27.1577 20.1387L30.5297 15.2639C30.5297 15.2639 23.016 24.1796 5.99093 23.1992C5.99093 23.1992 6.20168 10.6824 10.3984 5.84426C15.7538 2.96343 21.5765 1.05251 27.5975 0.199788C27.5975 0.199788 35.1296 -1.45873 40.041 4.78134Z" fill="#B46546"/>
<path opacity="0.1" d="M28.7614 4.6164C28.7614 4.6164 35.1206 3.96581 37.054 5.95421C36.2808 5.08003 35.3478 4.3616 34.3051 3.83753C34.8231 3.70185 35.3671 3.6996 35.8862 3.83099C36.4054 3.96238 36.8828 4.22313 37.2739 4.58891C37.2739 4.58891 35.9178 1.03363 29.1646 2.09655C29.1646 2.09655 32.0235 2.38977 33.4529 3.61763C33.4254 3.61763 30.6032 3.12281 28.7614 4.6164Z" fill="white"/>
<path opacity="0.1" d="M20.7158 7.16387C20.7158 7.16387 12.8081 10.0411 11.6535 13.5047C12.0745 12.0174 12.781 10.6262 13.7335 9.40882C13.7335 9.40882 11.2228 9.89448 10.6364 12.002C10.6364 12.002 10.2057 7.0081 18.8282 4.38745C18.8282 4.38745 15.612 6.37585 14.6132 8.65746C14.6132 8.62081 17.6553 6.40333 20.7158 7.16387Z" fill="white"/>
<path opacity="0.1" d="M28.0922 9.77515C28.0922 9.77515 22.5944 16.1893 18.9291 16.0152C20.4739 16.1463 22.0295 15.9783 23.5107 15.5204C23.5107 15.5204 22.1637 17.6921 19.9921 17.4905C19.9921 17.4905 24.5095 19.6621 30.0073 12.5241C30.0073 12.5241 27.011 14.8332 24.5095 14.9523C24.5461 14.9523 27.7257 12.8998 28.0922 9.77515Z" fill="white"/>
<path d="M18.5533 47.1608C18.6653 46.7213 18.8872 46.3175 19.1982 45.9873C19.5091 45.6571 19.8989 45.4114 20.3309 45.2732L25.114 44.3569H29.1825L33.9656 45.2732C34.41 45.405 34.8125 45.6499 35.1338 45.984C35.4551 46.3181 35.684 46.7299 35.7982 47.1792C36.1189 56.4156 36.3847 61.5561 36.9253 68.9782C33.8027 70.0749 30.5012 70.5723 27.1941 70.4443C23.8869 70.5736 20.5851 70.0762 17.4629 68.9782C17.6461 65.0839 18.0951 56.6172 18.5533 47.1608Z" fill="#FBB88E"/>
<path d="M24.1157 44.5127L20.3313 45.2732C19.8954 45.4117 19.5023 45.6596 19.1895 45.9933C18.8767 46.3269 18.6546 46.7352 18.5445 47.1791C18.178 54.5096 17.9947 58.9262 17.4175 68.9782C20.5397 70.0761 23.8415 70.5736 27.1487 70.4443C30.4558 70.5723 33.7573 70.0748 36.8799 68.9782C36.4309 61.0979 36.1652 56.6813 35.7528 47.1791C35.6386 46.7299 35.4097 46.3181 35.0884 45.984C34.7671 45.6499 34.3646 45.405 33.9202 45.2732L30.3099 44.5677C30.3099 44.5677 30.255 46.8859 27.2495 46.8218C27.3044 46.8035 24.4547 47.17 24.1157 44.5127Z" fill="#009FD0"/>
<g style="mix-blend-mode:multiply">
<path d="M17.5275 67.2097C19.9314 68.3029 22.5298 68.9042 25.1695 68.9782C28.7432 69.2072 34.3876 69.2714 34.8275 65.2121C35.1443 61.6149 35.1443 57.9969 34.8275 54.3997H36.092C36.3485 59.5402 36.5776 63.3887 36.8892 68.9598C33.7666 70.0565 30.465 70.5539 27.1579 70.4259C23.8508 70.5553 20.549 70.0578 17.4267 68.9598C17.4725 68.0527 17.4817 68.0252 17.5275 67.2097Z" fill="#CFD1D2"/>
</g>
<path d="M4.38718 59.9339C10.0912 58.3528 14.9954 54.691 18.1318 49.6712C18.1318 49.6712 19.6621 49.5979 19.8545 50.8533C19.8545 50.8533 15.2729 61.0976 4.78119 61.9406C4.81784 61.9773 2.81113 61.5649 4.38718 59.9339Z" fill="#F8B78F"/>
<path d="M0.996903 63.5445C1.94389 63.7172 2.91866 63.6575 3.83747 63.3704C3.83747 63.3704 5.17528 62.9489 5.49599 62.0692C5.69821 61.6797 5.75396 61.2306 5.65306 60.8035C5.55217 60.3764 5.30135 59.9996 4.94621 59.7418C4.58195 59.5756 4.1819 59.5032 3.78249 59.531H3.70003C3.26171 59.5077 2.83076 59.4085 2.42636 59.2378C1.74829 58.9354 1.51005 59.4669 1.51005 59.4669C1.48671 59.5264 1.47556 59.5899 1.47728 59.6538C1.47899 59.7176 1.49353 59.7805 1.52003 59.8386C1.54653 59.8968 1.58445 59.949 1.63154 59.9922C1.67862 60.0353 1.7339 60.0686 1.7941 60.09L2.71041 60.429C3.13192 60.6948 2.79288 60.8414 2.79288 60.8414C2.02451 60.9055 1.25214 60.9055 0.483772 60.8414C0.366374 60.8406 0.252821 60.8832 0.164889 60.961C0.0769562 61.0387 0.0208437 61.1463 0.00730008 61.2629C0.00730008 61.2629 -0.148484 61.6294 0.969415 61.8035C1.61861 61.8806 2.27532 61.8683 2.92116 61.7668C2.23445 61.9089 1.53179 61.9582 0.831974 61.9135C0.144741 61.7302 0.153899 62.2891 0.153899 62.2891C0.282183 62.9306 1.58334 62.7931 1.58334 62.7931C2.73789 62.7015 3.22354 62.7106 3.22354 62.7106L1.34511 62.8481C1.34511 62.8481 0.676204 62.7931 0.648715 63.1413C0.657878 63.1047 0.5754 63.3979 0.996903 63.5445Z" fill="#F8B78F"/>
<path d="M22.961 45.8504C22.961 45.8504 24.2622 48.975 20.9268 52.0263L19.0117 54.0147C18.0568 53.914 17.1449 53.5649 16.3668 53.0022C15.5887 52.4396 14.9716 51.6829 14.5768 50.8076C14.5768 50.8076 19.4882 42.8357 22.961 45.8504Z" fill="#2662A3"/>
<g style="mix-blend-mode:multiply">
<path d="M17.5822 51.916C19.0024 52.0443 20.4502 50.7798 21.3573 49.8452C22.3473 48.7665 22.8881 47.3506 22.8693 45.8867H22.9517C22.9517 45.8867 24.2529 49.0113 20.9175 52.0626L19.0024 54.051C18.0475 53.9503 17.1356 53.6012 16.3575 53.0386C15.5794 52.4759 14.9623 51.7192 14.5675 50.8439C14.5675 50.8439 14.7691 50.6515 15.1173 50.3583C15.3786 50.7918 15.7375 51.1584 16.1654 51.4288C16.5933 51.6992 17.0784 51.8661 17.5822 51.916Z" fill="#BCBEC0"/>
</g>
<path d="M50.5144 59.9339C44.8104 58.3528 39.9063 54.691 36.7698 49.6712C36.7698 49.6712 35.2396 49.5979 35.0563 50.8533C35.0563 50.8533 39.592 61.0976 50.1296 61.9406C50.0929 61.9773 52.0997 61.5649 50.5144 59.9339Z" fill="#F8B78F"/>
<path d="M53.914 63.5445C52.967 63.7172 51.9922 63.6575 51.0734 63.3704C51.0734 63.3704 49.7356 62.9489 49.4149 62.0692C49.2126 61.6797 49.1569 61.2306 49.2578 60.8035C49.3587 60.3764 49.6095 59.9996 49.9646 59.7418C50.3289 59.5756 50.729 59.5032 51.1284 59.531H51.2108C51.649 59.5066 52.0798 59.4075 52.4845 59.2378C53.1626 58.9354 53.4008 59.4669 53.4008 59.4669C53.4244 59.5258 53.436 59.5888 53.4348 59.6522C53.4337 59.7157 53.42 59.7782 53.3944 59.8362C53.3688 59.8943 53.3318 59.9466 53.2857 59.9902C53.2396 60.0338 53.1853 60.0677 53.1259 60.09L52.2096 60.429C51.7973 60.6948 52.1271 60.8414 52.1271 60.8414C52.8986 60.9056 53.674 60.9056 54.4454 60.8414C54.5628 60.8406 54.6764 60.8832 54.7643 60.961C54.8522 61.0387 54.9083 61.1463 54.9219 61.2629C54.9219 61.2629 55.0685 61.6294 53.9506 61.8035C53.3006 61.8754 52.6438 61.8569 51.9989 61.7485C52.6856 61.8906 53.3882 61.9399 54.088 61.8951C54.7753 61.7119 54.757 62.2708 54.757 62.2708C54.6378 62.9122 53.3367 62.7748 53.3367 62.7748C52.173 62.6832 51.6965 62.6923 51.6965 62.6923L53.5749 62.8298C53.5749 62.8298 54.2347 62.7748 54.2621 63.123C54.2347 63.1047 54.3355 63.3979 53.914 63.5445Z" fill="#F8B78F"/>
<path d="M31.9497 45.8504C31.9497 45.8504 30.6486 48.975 33.9748 52.0263L35.899 54.0147C36.854 53.914 37.7658 53.5649 38.5439 53.0022C39.322 52.4396 39.9392 51.6829 40.334 50.8076C40.334 50.8076 35.4134 42.8357 31.9497 45.8504Z" fill="#2662A3"/>
<g style="mix-blend-mode:multiply">
<path d="M37.3102 51.916C35.8807 52.0443 34.4421 50.7798 33.5258 49.8452C32.5424 48.7631 32.0054 47.3488 32.023 45.8867H31.9497C31.9497 45.8867 30.6486 49.0113 33.9748 52.0626L35.899 54.051C36.854 53.9503 37.7658 53.6012 38.5439 53.0386C39.322 52.4759 39.9392 51.7192 40.334 50.8439L39.7842 50.3583C39.5214 50.7925 39.161 51.1594 38.7315 51.4299C38.302 51.7003 37.8153 51.8667 37.3102 51.916Z" fill="#BCBEC0"/>
</g>
</svg>
