<svg width="65" height="65" viewBox="0 0 65 65" fill="none" xmlns="http://www.w3.org/2000/svg">
<mask id="mask0_268_6304" style="mask-type:alpha" maskUnits="userSpaceOnUse" x="0" y="-1" width="66" height="66">
<circle cx="32.8053" cy="31.8631" r="32.482" fill="#D9D9D9"/>
</mask>
<g mask="url(#mask0_268_6304)">
<path d="M20.2708 50.6037C20.2708 50.6037 13.5117 37.8609 13.5117 24.7753C13.5117 17.4807 17.374 11.015 24.1331 7.15259H29.9266V50.6037H20.2708Z" fill="#5A4650"/>
<path d="M45.3761 49.6382C45.3761 49.6382 53.1008 37.0857 53.1008 24.5331C53.1007 13.3343 44.0223 4.25598 32.8236 4.25598H30.8924C26.0646 4.25598 22.2021 7.28213 22.2021 11.015C22.2021 13.1481 23.9314 14.8773 26.0644 14.8773H29.9267V49.6381H45.3761V49.6382Z" fill="#64505A"/>
<path d="M21.2363 34.1888C21.2363 35.2554 20.3716 36.1199 19.3052 36.1199C18.2386 36.1199 17.374 35.2552 17.374 34.1888C17.374 32.2576 19.3052 28.3953 19.3052 28.3953C19.3052 28.3953 21.2363 32.2576 21.2363 34.1888Z" fill="#FFE17D"/>
<path d="M19.3052 28.3953C19.3052 28.3953 17.374 32.2576 17.374 34.1888C17.374 35.2552 18.2387 36.1199 19.3052 36.1199V28.3953Z" fill="#FFD164"/>
<path d="M48.2724 34.1888C48.2724 35.2554 47.4078 36.1199 46.3413 36.1199C45.2747 36.1199 44.4102 35.2552 44.4102 34.1888C44.4102 32.2576 46.3413 28.3953 46.3413 28.3953C46.3413 28.3953 48.2724 32.2576 48.2724 34.1888Z" fill="#FFE17D"/>
<path d="M46.3413 28.3953C46.3413 28.3953 44.4102 32.2576 44.4102 34.1888C44.4102 35.2552 45.2748 36.1199 46.3413 36.1199V28.3953Z" fill="#FFD164"/>
<path d="M51.1666 51.1705L41.1939 47.6507C40.4403 47.3848 39.7878 46.8917 39.3263 46.2394C38.8648 45.5871 38.6169 44.8077 38.6169 44.0086V39.0166H27.03V44.0086C27.0299 44.8076 26.7821 45.587 26.3206 46.2393C25.8591 46.8916 25.2066 47.3847 24.4531 47.6507L14.4804 51.1705C12.1641 51.9881 10.6152 54.1774 10.6152 56.6336V61.225C10.6152 62.8247 11.9122 64.1217 13.5119 64.1217H52.1352C53.735 64.1217 55.0319 62.8247 55.0319 61.225V56.6338C55.0318 54.1774 53.4829 51.9881 51.1666 51.1705Z" fill="#E3AA75"/>
<path d="M32.8228 42.879C34.8747 42.879 36.8335 42.4319 38.6163 41.6434V39.0166H27.0293V41.6434C28.8122 42.4317 30.771 42.879 32.8228 42.879Z" fill="#D29B6E"/>
<path d="M45.8585 24.5327H45.3757V20.6704C45.3757 17.4707 42.782 14.877 39.5823 14.877H26.0642C22.8645 14.877 20.2707 17.4707 20.2707 20.6704V24.5327H19.788C18.4548 24.5327 17.374 25.6134 17.374 26.9466C17.374 28.2798 18.4548 29.3606 19.788 29.3606H20.3195C20.8141 35.8405 26.2166 40.9475 32.8233 40.9475C39.4299 40.9475 44.8325 35.8405 45.3271 29.3606H45.8586C47.1918 29.3606 48.2726 28.2798 48.2726 26.9466C48.2724 25.6134 47.1917 24.5327 45.8585 24.5327Z" fill="#F5B97D"/>
<path d="M27.03 27.5136C26.9032 27.5137 26.7776 27.4888 26.6604 27.4403C26.5432 27.3918 26.4368 27.3206 26.3471 27.231C26.2574 27.1413 26.1863 27.0348 26.1378 26.9176C26.0893 26.8004 26.0644 26.6748 26.0645 26.548V25.5825C26.0645 25.0487 26.4964 24.6169 27.03 24.6169C27.5637 24.6169 27.9956 25.0488 27.9956 25.5825V26.548C27.9957 26.6748 27.9708 26.8004 27.9223 26.9176C27.8738 27.0348 27.8026 27.1413 27.713 27.231C27.6233 27.3206 27.5168 27.3918 27.3996 27.4403C27.2824 27.4888 27.1568 27.5137 27.03 27.5136ZM38.6169 27.5136C38.4901 27.5137 38.3645 27.4888 38.2473 27.4403C38.1301 27.3918 38.0236 27.3206 37.934 27.231C37.8443 27.1413 37.7732 27.0348 37.7247 26.9176C37.6762 26.8004 37.6512 26.6748 37.6513 26.548V25.5825C37.6512 25.4556 37.6762 25.33 37.7247 25.2129C37.7732 25.0957 37.8443 24.9892 37.934 24.8995C38.0236 24.8098 38.1301 24.7387 38.2473 24.6902C38.3645 24.6417 38.4901 24.6168 38.6169 24.6169C38.7437 24.6168 38.8693 24.6417 38.9865 24.6902C39.1037 24.7387 39.2101 24.8098 39.2998 24.8995C39.3895 24.9892 39.4606 25.0957 39.5091 25.2129C39.5576 25.33 39.5825 25.4556 39.5825 25.5825V26.548C39.5825 26.6748 39.5576 26.8004 39.5091 26.9176C39.4606 27.0348 39.3895 27.1413 39.2998 27.231C39.2101 27.3206 39.1037 27.3918 38.9865 27.4403C38.8693 27.4888 38.7437 27.5137 38.6169 27.5136Z" fill="#5A4650"/>
<path d="M32.8233 35.1547C31.374 35.1547 30.0378 34.6898 29.2486 33.911C28.8685 33.5356 28.8648 32.9247 29.2391 32.5456C29.6153 32.1647 30.2264 32.1619 30.6044 32.5362C30.926 32.853 31.6992 33.2236 32.8232 33.2236C33.9472 33.2236 34.7204 32.853 35.042 32.5362C35.4201 32.1618 36.0312 32.1647 36.4073 32.5456C36.7817 32.9247 36.7779 33.5358 36.3979 33.911C35.6088 34.6898 34.2726 35.1547 32.8233 35.1547Z" fill="#B67F5F"/>
<path d="M26.0654 23.6276C25.8825 23.6278 25.7033 23.576 25.5487 23.4783C25.394 23.3805 25.2704 23.2408 25.1922 23.0755C24.963 22.5936 25.1695 22.0175 25.6514 21.7893L26.7979 21.2462C27.2779 21.0175 27.8549 21.2235 28.0832 21.7053C28.3124 22.1872 28.1059 22.7633 27.624 22.9915L26.4774 23.5346C26.3487 23.5957 26.2079 23.6275 26.0654 23.6276ZM39.5815 23.6276C39.439 23.6275 39.2983 23.5957 39.1695 23.5348L38.0229 22.9916C37.5411 22.7634 37.3346 22.1873 37.5637 21.7054C37.792 21.2241 38.37 21.0185 38.849 21.2463L39.9956 21.7894C40.4774 22.0176 40.6839 22.5937 40.4547 23.0756C40.3765 23.2409 40.2529 23.3806 40.0983 23.4783C39.9437 23.5761 39.7644 23.6278 39.5815 23.6276Z" fill="#A06E50"/>
<path d="M51.1666 51.1706L48.9024 50.3715C45.196 55.2011 39.382 58.3283 32.8235 58.3283C26.265 58.3283 20.4509 55.2011 16.7446 50.3715L14.4804 51.1707C12.1641 51.9881 10.6152 54.1776 10.6152 56.6338V61.2251C10.6152 62.8249 11.9122 64.1219 13.5119 64.1219H52.1352C53.735 64.1219 55.0319 62.8249 55.0319 61.2251V56.6338C55.0318 54.1774 53.4829 51.9881 51.1666 51.1706Z" fill="#FF8250"/>
<path d="M32.8238 58.3283C26.2654 58.3283 20.4512 55.2011 16.7449 50.3715L14.8223 51.0502C18.8567 56.6274 25.4142 60.2596 32.8238 60.2596C40.2334 60.2596 46.7909 56.6274 50.8253 51.0502L48.9026 50.3716C45.1963 55.2011 39.3821 58.3283 32.8238 58.3283Z" fill="#DC7346"/>
<path d="M20.2707 20.6705V24.5328H19.9257C18.663 24.5328 17.5123 25.4413 17.3865 26.6977C17.2418 28.1427 18.3727 29.3607 19.788 29.3607H20.3195C20.8141 35.8406 26.2166 40.9477 32.8233 40.9477C33.4838 40.9477 34.1278 40.8834 34.7605 40.7849C28.7442 39.8564 24.133 34.6713 24.133 28.3951V20.6704C24.133 18.5373 25.8622 16.8081 27.9953 16.8081H38.6167C39.6832 16.8081 40.5479 15.9435 40.5479 14.877H26.0643C22.8646 14.8771 20.2707 17.4709 20.2707 20.6705Z" fill="#E3AA75"/>
</g>
</svg>
