<svg width="107" height="106" viewBox="0 0 107 106" fill="none" xmlns="http://www.w3.org/2000/svg">
<circle cx="54.5" cy="52.5" r="52.5" fill="#E8FCEB"/>
<mask id="mask0_230_2350" style="mask-type:alpha" maskUnits="userSpaceOnUse" x="2" y="0" width="105" height="105">
<circle cx="54.5" cy="52.5" r="52.5" fill="#D9D9D9"/>
</mask>
<g mask="url(#mask0_230_2350)">
<path d="M97.2936 76.2761C97.4328 66.6695 94.2306 64.9988 92.6295 59.3601C91.0177 53.6835 92.6576 49.8072 90.75 43.5233C88.9749 37.6759 85.7501 36.688 84.7634 28.3825C83.0925 14.3206 67.9169 7.08105 60.3987 7.08105C58.2729 7.08105 56.8213 7.62062 55.8453 8.266C54.7158 9.01334 53.2727 9.01334 52.1434 8.266C51.1674 7.62062 49.7159 7.08105 47.59 7.08105C40.0718 7.08105 24.8962 14.3206 23.2255 28.3825C22.2386 36.6878 19.014 37.6757 17.2389 43.5233C15.3313 49.8072 16.9712 53.6835 15.3594 59.3601C13.7583 64.9988 10.5561 66.6695 10.6953 76.2761C10.8568 87.4166 4.43011 89.9202 6.93615 97.2991C8.80652 102.806 18.9096 107.323 18.9096 107.323H89.0793C89.0793 107.323 99.1824 102.806 101.053 97.2991C103.559 89.9202 97.132 87.4166 97.2936 76.2761Z" fill="#64505A"/>
<path d="M53.9944 8.8264C53.3357 8.82573 52.6918 8.63079 52.1434 8.266C51.1674 7.62062 49.7159 7.08105 47.59 7.08105C40.0718 7.08105 24.8962 14.3206 23.2255 28.3825C22.2386 36.6878 19.014 37.6757 17.2389 43.5233C15.3313 49.8072 16.9712 53.6835 15.3594 59.3601C13.7583 64.9988 10.5561 66.6695 10.6953 76.2761C10.8568 87.4166 4.43011 89.9202 6.93615 97.2991C8.80652 102.806 18.9096 107.323 18.9096 107.323H53.9944V8.8264Z" fill="#5A4650"/>
<path d="M85.7326 88.2556L68.4771 82.1654C67.1734 81.7053 66.0444 80.8521 65.2458 79.7234C64.4472 78.5948 64.0184 77.2462 64.0184 75.8636V67.2261H43.9699V75.8636C43.9699 77.2462 43.541 78.5948 42.7425 79.7234C41.9439 80.8521 40.8149 81.7053 39.5111 82.1654L22.2557 88.2556C18.2479 89.6702 15.5679 93.4583 15.5679 97.7082V105.652C15.5679 108.42 17.8119 110.665 20.58 110.665H87.4083C90.1763 110.665 92.4204 108.42 92.4204 105.652V97.7082C92.4204 93.4583 89.7404 89.6702 85.7326 88.2556Z" fill="#B67F5F"/>
<path d="M85.7328 88.2557L74.2193 84.1919C69.6881 90.4549 63.5212 97.3616 56.3428 101.189C55.6197 101.573 54.8134 101.774 53.9945 101.774C53.1756 101.774 52.3693 101.573 51.6463 101.189C44.4678 97.3618 38.301 90.4549 33.7698 84.1919L22.2562 88.2557C18.2484 89.6703 15.5684 93.4584 15.5684 97.7086V105.653C15.5684 108.421 17.8124 110.665 20.5804 110.665H87.4088C90.1768 110.665 92.4209 108.421 92.4209 105.653V97.7086C92.4207 93.4584 89.7406 89.6703 85.7328 88.2557Z" fill="#B4E6A0"/>
<path d="M43.9704 71.7712C47.0551 73.1352 50.4446 73.909 53.9946 73.909C57.5445 73.909 60.9341 73.1354 64.0187 71.7712V67.2261H43.9702L43.9704 71.7712Z" fill="#A06E50"/>
<path d="M53.9941 70.5678C41.9988 70.5678 32.2749 60.8439 32.2749 48.8486V20.4468H75.7133V48.8488C75.7133 60.8439 65.9892 70.5678 53.9941 70.5678Z" fill="#CD916E"/>
<path d="M32.2749 20.4468V48.8488C32.2749 60.8439 41.999 70.568 53.9941 70.568C55.1335 70.568 56.2434 70.4537 57.3355 70.285C46.931 68.6737 38.9577 59.7048 38.9577 48.8488V40.1603C38.9577 38.7866 39.3837 37.4594 40.1113 36.2941L40.1228 36.2757C42.8659 31.8736 45.4339 31.2264 48.4069 30.4774C50.1144 30.0471 52.1037 29.5458 53.9939 28.2862C55.8843 29.5458 57.8737 30.0471 59.581 30.4774C62.5541 31.2266 65.1219 31.8736 67.865 36.2755C70.417 40.3703 73.2726 42.6337 75.7129 44.3823V20.4468H32.2749Z" fill="#B67F5F"/>
<path d="M53.9945 60.5434C51.4868 60.5434 49.1748 59.739 47.8092 58.3914C47.1517 57.742 47.1452 56.6849 47.7928 56.029C48.4438 55.3715 49.5011 55.365 50.1552 56.0126C50.7115 56.5609 52.0494 57.202 53.9943 57.202C55.9391 57.202 57.277 56.5609 57.8333 56.0126C58.4876 55.3648 59.5449 55.3715 60.1957 56.029C60.8435 56.6849 60.8369 57.7422 60.1793 58.3914C58.8141 59.739 56.5021 60.5434 53.9945 60.5434Z" fill="#A06E50"/>
<path d="M43.9703 48.8486C43.7509 48.8487 43.5335 48.8056 43.3308 48.7217C43.128 48.6378 42.9438 48.5147 42.7886 48.3595C42.6335 48.2044 42.5104 48.0202 42.4265 47.8174C42.3426 47.6146 42.2995 47.3973 42.2996 47.1779V45.5072C42.2996 44.5836 43.0469 43.8365 43.9703 43.8365C44.8936 43.8365 45.641 44.5838 45.641 45.5072V47.1779C45.6411 47.3973 45.598 47.6146 45.514 47.8174C45.4301 48.0201 45.307 48.2043 45.1519 48.3595C44.9967 48.5146 44.8125 48.6377 44.6098 48.7216C44.407 48.8055 44.1897 48.8487 43.9703 48.8486ZM64.0186 48.8486C63.7992 48.8487 63.5819 48.8056 63.3791 48.7217C63.1764 48.6378 62.9921 48.5147 62.837 48.3595C62.6818 48.2044 62.5587 48.0202 62.4748 47.8174C62.3909 47.6146 62.3478 47.3973 62.3479 47.1779V45.5072C62.3478 45.2878 62.3909 45.0704 62.4748 44.8677C62.5587 44.6649 62.6818 44.4807 62.837 44.3255C62.9921 44.1704 63.1764 44.0473 63.3791 43.9634C63.5819 43.8795 63.7992 43.8364 64.0186 43.8365C64.2381 43.8364 64.4554 43.8795 64.6581 43.9634C64.8609 44.0473 65.0451 44.1704 65.2003 44.3255C65.3554 44.4807 65.4785 44.6649 65.5624 44.8677C65.6463 45.0704 65.6894 45.2878 65.6893 45.5072V47.1779C65.6894 47.3973 65.6463 47.6146 65.5624 47.8174C65.4785 48.0202 65.3554 48.2044 65.2003 48.3595C65.0451 48.5147 64.8609 48.6378 64.6581 48.7217C64.4554 48.8056 64.2381 48.8487 64.0186 48.8486ZM45.641 42.1656H42.2996C41.376 42.1656 40.6289 41.4183 40.6289 40.4949C40.6289 39.5716 41.3762 38.8242 42.2996 38.8242H45.641C46.5645 38.8242 47.3117 39.5716 47.3117 40.4949C47.3117 41.4183 46.5643 42.1656 45.641 42.1656ZM65.6893 42.1656H62.3479C61.4244 42.1656 60.6772 41.4183 60.6772 40.4949C60.6772 39.5716 61.4246 38.8242 62.3479 38.8242H65.6893C66.6129 38.8242 67.36 39.5716 67.36 40.4949C67.36 41.4183 66.6129 42.1656 65.6893 42.1656Z" fill="#5A4650"/>
<path d="M27.8014 97.3565L19.2736 89.9517C18.3998 90.6638 17.6656 91.5171 17.0791 92.4696L25.6118 99.8789C26.1536 100.35 26.5881 100.931 26.8859 101.584C27.1837 102.237 27.3379 102.946 27.3379 103.664V110.665H30.6793V103.664C30.6796 102.468 30.4228 101.286 29.9263 100.197C29.4297 99.109 28.7051 98.1402 27.8014 97.3565ZM80.2624 97.3565L88.7903 89.9517C89.664 90.6638 90.3982 91.5171 90.9847 92.4696L82.452 99.8789C81.9102 100.35 81.4757 100.931 81.1779 101.584C80.8801 102.237 80.726 102.946 80.7259 103.664V110.665H77.3845V103.664C77.3842 102.468 77.6411 101.286 78.1376 100.197C78.6341 99.109 79.3588 98.1402 80.2624 97.3565Z" fill="#9BDC9B"/>
<path d="M92.6293 59.3601C91.0175 53.6835 92.6574 49.8072 90.7498 43.5233C88.9747 37.6759 85.7499 36.688 84.7632 28.3825C83.0923 14.3206 67.9167 7.08105 60.3985 7.08105C58.2726 7.08105 56.821 7.62062 55.8451 8.266C55.2967 8.63079 54.6528 8.82573 53.9941 8.8264V23.7882C58.3101 29.2181 64.7145 24.9019 70.7013 34.5085C75.7898 42.6738 82.1795 42.4675 84.4271 48.905C85.0713 50.7501 84.7219 52.7215 84.8761 54.6697C85.7375 65.5557 94.091 70.568 97.8461 81.9283C97.488 80.3059 97.2616 78.461 97.2934 76.2761C97.4326 66.6695 94.2304 64.9988 92.6293 59.3601Z" fill="#6E5A64"/>
<path d="M15.3594 59.3601C16.9712 53.6835 15.3313 49.8072 17.2389 43.5233C19.014 37.6759 22.2388 36.688 23.2255 28.3825C24.8964 14.3206 40.072 7.08105 47.5901 7.08105C49.716 7.08105 51.1676 7.62062 52.1436 8.266C52.692 8.63079 53.3359 8.82573 53.9945 8.8264V23.7882C49.6786 29.2181 43.2742 24.9019 37.2874 34.5085C32.1988 42.6738 25.8092 42.4675 23.5615 48.905C22.9174 50.7501 23.2668 52.7215 23.1126 54.6697C22.2512 65.5557 13.8977 70.568 10.1426 81.9283C10.5007 80.3059 10.7271 78.461 10.6953 76.2761C10.5561 66.6695 13.7583 64.9988 15.3594 59.3601Z" fill="#64505A"/>
</g>
<g clip-path="url(#clip0_230_2350)">
<path fill-rule="evenodd" clip-rule="evenodd" d="M104.701 63.6465C105.008 61.878 105.092 60.0782 104.953 58.2889V57.7232V56.9534C104.953 56.1835 104.953 55.3822 104.953 54.6595C104.953 53.9368 104.953 53.3869 104.953 52.7584C104.544 52.4128 104.717 51.5015 104.607 50.8573C104.497 50.2132 104.749 49.2862 104.199 49.1919C104.073 48.1864 103.932 47.1808 103.759 46.1753L103.507 44.8712C103.303 43.8814 103.083 42.8916 102.832 41.9017C102.579 41.9692 102.346 42.0988 102.156 42.2788C102.156 42.0589 102.156 41.8389 102.533 41.7918L102.125 40.3306C101.846 39.6907 101.64 39.0214 101.512 38.3353C101.323 37.8325 101.261 37.1098 100.774 36.9841C100.475 36.1514 100.161 35.4129 99.8309 34.5173C99.5009 33.6218 99.0924 32.7734 98.6996 31.925C98.2911 32.0035 97.5056 32.7262 97.3799 32.3334C97.2542 31.9407 97.0971 31.8935 97.3799 31.7207C97.537 31.9721 97.6313 32.3177 98.1183 31.9878C98.5897 31.2651 98.1183 30.8723 97.6313 30.4166C97.1442 29.961 96.8771 28.9712 96.4843 28.2485L96.013 27.4315L95.6359 26.7873C95.1803 26.0174 94.7246 25.2161 94.2376 24.5405L93.2949 23.1265C92.7764 22.718 92.5722 21.4611 91.8337 21.5554C91.6923 20.7541 91.0638 21.0055 91.1424 20.1727L90.9067 20.3613C90.404 19.7328 89.8698 19.1044 89.3356 18.4916L89.0842 18.2088C88.7071 17.8317 88.3772 17.1876 87.843 17.329C87.843 16.3706 86.8218 16.0563 86.3975 15.8678L85.0306 14.6109C83.6009 13.6368 82.1712 11.7514 80.5529 11.6414C79.9401 11.2486 79.1388 10.793 78.4632 10.4159C77.7876 10.0388 77.2691 9.77173 76.6564 9.4575C76.0436 9.14327 74.9438 8.24771 74.1583 8.64049C74.4882 7.98061 73.6084 8.232 73.4356 7.9492L72.7442 7.66639L72.0529 7.38358C70.9217 6.75512 69.3348 6.62942 68.7064 6.17379C68.0779 5.71815 67.1352 5.68674 66.3654 5.46677C64.6057 4.97972 62.8303 4.57122 61.0392 4.25699V3.91134C60.7563 3.91134 60.3636 3.65995 60.2379 4.1313C59.3738 3.9899 58.5096 3.8642 57.6298 3.76993C57.4412 2.92151 56.3257 3.48712 55.7758 3.22003H55.5716C51.3036 2.91233 47.019 2.91233 42.751 3.22003H42.5625C38.6974 4.02132 34.0625 4.52408 30.9516 6.69227C31.0302 6.99079 30.9516 7.14791 30.7474 7.17934C30.7474 6.47232 30.5746 6.33091 30.0875 6.64514C29.2391 6.99079 28.4064 7.35215 27.5894 7.74494L27.4165 7.8235L27.2437 7.91777H27.0709C26.4896 8.20057 25.8925 8.49909 25.3269 8.81332L24.8084 9.08043L24.1328 9.47321C23.4887 9.47321 23.9757 10.1802 23.4887 10.2902C22.0903 10.2902 21.9175 11.4057 20.4878 11.8614L20.3306 11.9713L20.0164 12.1913C19.3566 13.2125 18.2567 12.8983 18.0682 14.1395C17.8639 14.2809 17.534 13.951 17.3612 14.2338C16.7642 14.5009 17.2826 15.1765 16.5756 15.4122C15.7743 14.9565 15.4601 16.2134 14.8631 16.4648L14.7217 16.6062C14.2503 17.0619 13.779 17.5175 13.339 18.0046C13.1034 18.2402 12.8834 18.4916 12.6635 18.7273C12.0754 19.2884 11.6424 19.992 11.4065 20.7698C10.4952 21.889 9.64044 23.0531 8.84553 24.2577L8.73559 24.4148L8.62559 24.5877C8.16996 25.3104 7.71433 26.0331 7.30583 26.7559C7.55722 27.4 8.2171 26.9915 8.18567 27.4786C8.15425 27.9657 7.74575 28.0599 7.14871 27.7928C7.43151 27.7928 8.26423 27.5886 7.14871 27.1015C6.62444 28.2346 6.15771 29.3935 5.75036 30.5738C4.83478 31.7879 4.1188 33.1404 3.62935 34.5802C3.88073 34.7059 4.32064 34.8316 4.2578 35.0044C3.83359 34.8944 3.77073 35.1615 3.70788 35.4286C3.51935 35.4286 3.25225 35.4286 3.70788 35.6171C3.28367 35.9942 3.09514 36.2613 3.70788 36.8426C3.79162 36.6628 3.93271 36.5158 4.10901 36.4248C4.28532 36.3338 4.48687 36.3039 4.68199 36.3399C4.60343 36.5127 4.88626 36.6384 4.90197 36.8112L4.77626 37.1726C3.53505 37.1726 3.53505 36.8741 2.76518 37.3611L3.11084 37.4711C3.11084 38.4295 2.24673 38.6652 2.54525 39.3565C2.01106 39.2465 2.08959 39.7179 1.97961 40.0164L1.60255 41.5875C1.3983 42.4831 1.19402 43.3786 1.03691 44.2899L0.958371 44.6827L0.801246 45.6568C0.706977 46.2381 0.628414 46.8352 0.549856 47.4165C0.722683 48.2806 -0.361398 49.7104 1.0055 50.0246C1.80679 50.166 1.27262 51.1087 0.58131 50.9987C0.738425 49.1291 -0.0471654 50.7945 0.172796 51.7686C0.73841 53.1826 -0.439934 54.1096 0.487045 55.7279C0.0156998 55.7279 0.0471228 56.2935 0.487045 56.3249C-1.17347e-05 56.6077 0.172778 57.2048 0.204201 57.7232C0.0156633 58.556 0.628408 58.8388 0.691254 59.4829C0.518428 59.9543 0.125665 60.7556 0.864106 61.0541C-0.0157386 61.2269 1.3826 61.3212 0.974098 61.8397C0.408484 62.0125 0.628435 63.4108 1.20976 63.4108C0.926954 63.8664 1.71253 64.982 1.69681 65.9404C1.25689 66.0503 1.39827 66.5845 1.82248 66.5217L1.91675 66.9145C2.13671 67.81 2.37242 68.7056 2.63951 69.6011C3.3689 72.0926 4.28809 74.5245 5.38903 76.8756L5.56183 77.2369L6.26887 78.6667C6.0332 79.8608 7.47865 81.1334 7.98142 82.3117L8.09141 82.4846C8.57846 82.6103 8.70412 83.8672 9.42685 84.5114L9.66256 84.8256L10.3695 85.8154L11.0452 86.6953L11.7522 87.5594C12.1764 88.0936 12.6477 88.6435 13.1819 89.2248C13.7161 89.8061 14.0618 90.4817 14.6588 90.356C14.3446 91.0631 15.5701 91.4401 15.8843 92.0057L16.7955 92.8227C17.3926 93.3726 18.0211 93.8754 18.6495 94.3939C18.2568 94.9281 19.278 94.3939 19.4508 95.0224L19.6236 94.7867C20.2678 94.7867 19.4351 96.0907 20.095 95.5094L20.2521 95.6351C20.5192 96.6721 22.2632 97.2063 23.143 97.9133L23.4887 98.1175C24.5099 98.4789 24.5728 99.2173 25.4997 99.5787L25.6255 99.3273C25.7354 100.034 26.741 100.129 27.1966 100.16C27.0709 100.474 27.3537 100.584 27.6208 100.678C28.6735 101.166 29.7575 101.621 30.8416 102.03H31.0302C31.3915 102.831 32.9941 102.831 33.8583 103.255H34.0468C34.5181 103.397 34.9738 103.538 35.4451 103.648H35.6337L37.032 103.994H37.2362C38.804 104.747 40.5495 105.051 42.2796 104.873C42.4681 105.455 43.678 105.125 44.275 105.313V105.078H44.4793L46.506 105.203C46.8359 105.549 47.2444 105.203 47.92 105.455V105.235C49.2712 105.235 50.6224 105.235 51.9736 105.125C52.335 105.596 53.5448 105.125 54.2046 105.125C54.863 104.962 55.5376 104.872 56.2158 104.858V104.654C57.1584 104.528 58.0854 104.355 59.0124 104.182C59.9394 104.009 60.1122 103.758 60.7406 103.617C61.3691 103.475 62.0761 103.507 62.0761 103.098C62.6297 103.11 63.175 102.963 63.6473 102.674C65.1241 102.234 66.5853 101.747 68.0151 101.103L68.3764 100.961C68.9735 100.616 70.1676 100.427 70.3404 99.9558C70.7803 99.7672 71.1888 99.563 71.613 99.3587C72.6343 98.8874 73.6241 98.3532 74.5982 97.7876C74.5982 97.9133 74.9753 97.7876 74.9438 97.5991C75.8719 97.2219 76.7441 96.7197 77.5362 96.1064C77.9654 95.6884 78.4522 95.334 78.9817 95.0538C79.1702 94.8967 79.453 94.7396 79.4059 94.5982C81.1359 93.3977 82.7649 92.0577 84.2765 90.5917C84.8107 90.0051 85.3344 89.4081 85.8476 88.8006L86.2247 88.345C86.8846 87.5594 87.0417 87.0723 87.6859 86.2396C88.3301 85.4069 88.7071 84.4956 89.367 83.3644L89.5555 83.0188L90.2468 81.6204L90.3254 81.4476C90.5925 80.7249 91.0481 79.7193 91.3938 78.6824C91.7034 77.7882 91.9553 76.875 92.148 75.9486C92.1775 75.7472 92.2195 75.5478 92.2736 75.3516C91.8982 76.5633 91.4576 77.7538 90.9539 78.9181C90.8092 79.2029 90.6833 79.4968 90.5768 79.7979C90.4197 80.1436 90.2468 80.4892 90.0583 80.8192L89.8855 81.1648C89.2598 82.3465 88.5565 83.4855 87.7802 84.5742L87.6702 84.7313C87.0349 85.682 86.3312 86.5852 85.5648 87.4337L85.4391 87.5751C84.7276 88.3959 83.9612 89.1675 83.1452 89.8847L82.4382 90.5289C82.1733 90.7168 81.9445 90.951 81.7626 91.2202C80.69 92.1255 79.5675 92.97 78.4004 93.7497L78.2433 93.844C77.1906 94.5667 76.0908 95.2109 74.9753 95.8236L74.6453 96.0122C74.2525 96.2321 73.8597 96.4364 73.4512 96.6249H73.2784C72.54 97.002 71.7858 97.3477 71.0317 97.6619H70.8588L69.6177 98.1647C69.0835 98.3846 68.5493 98.5732 68.0465 98.7617C67.5437 98.9502 66.8524 99.1702 66.2397 99.3587C65.6269 99.708 64.9647 99.9622 64.2757 100.113L62.7832 100.474C62.5789 100.553 62.2489 100.569 62.2646 100.773C61.8154 100.779 61.3719 100.875 60.9606 101.056C60.395 101.056 60.5207 101.417 60.0493 101.417C59.578 101.417 57.4569 101.92 56.2472 101.983C56.1058 101.983 55.8701 101.983 55.8858 102.218C55.273 101.998 55.2102 102.218 54.3146 102.218H53.9376C52.47 102.353 50.9947 102.385 49.5226 102.313H48.1714C47.2602 102.58 46.2703 101.841 45.2805 102.313C45.092 101.7 44.1179 102.124 43.7094 102.14C43.3794 101.291 42.1382 102.25 41.8397 101.605C41.7105 101.559 41.5721 101.543 41.4357 101.559C41.2993 101.576 41.1686 101.624 41.0541 101.7C40.4257 101.7 40.4728 101.134 39.7815 101.181V101.433C39.5144 101.056 38.5874 101.433 38.2103 100.788L37.2834 100.537L36.7335 100.38L35.2723 99.9244C35.1466 99.2645 33.9368 99.3587 33.3869 98.966H33.2141C32.6956 98.7931 32.1143 98.3532 31.6429 98.636C31.6429 97.9604 30.4646 98.0076 30.0718 97.5991L29.899 97.5205C27.971 96.4597 26.1179 95.2681 24.3528 93.954C24.2271 93.4355 23.1587 92.3828 22.5303 92.6342C21.7761 91.9429 21.4147 91.0631 20.4249 90.4974C19.7022 89.8376 18.9795 89.1463 18.2882 88.4392C17.9896 88.2978 18.2882 87.7951 17.9111 88.0465C16.8427 87.0723 16.8427 85.9883 15.6172 85.4226C14.886 84.1853 13.945 83.0848 12.8363 82.1703C12.7263 82.0132 12.9148 81.8404 12.8363 81.6676L12.7263 81.5262C12.3649 80.9606 12.0036 80.3792 11.6579 79.7979C12.0821 78.6038 10.401 78.2268 10.6209 77.2212L10.3381 77.3783C9.8668 76.9855 10.5895 76.6399 10.1496 76.2471L9.75682 75.4144C9.50544 74.8645 9.26973 74.3146 9.03406 73.749L8.49987 72.3978L7.90288 70.6852C7.55722 70.3396 7.90286 69.2869 7.14871 69.3969C7.60434 68.5485 6.83447 68.2185 6.5988 67.4644C7.03872 67.3387 6.89734 66.8673 6.47312 66.9302C6.91305 66.286 6.04891 66.1289 6.47312 65.249C5.95465 64.8248 6.47311 64.1493 6.11174 63.3008C6.11174 63.0809 5.64041 63.128 5.68755 62.8295V62.641C5.51472 61.8554 5.13761 61.8082 5.84463 61.0698H5.49897L5.31044 59.263V58.5403V57.4404C5.31044 56.482 5.23188 55.5079 5.31044 54.5495C4.68198 53.9368 5.56182 53.6068 5.31044 52.727C5.10619 52.2871 5.82893 51.4386 5.02765 51.2815C5.84464 50.9359 4.88624 50.7473 5.12191 50.1817C6.23743 50.0874 5.01193 49.569 4.82339 49.4433C6.12744 49.4433 5.56185 48.2806 5.38903 47.8721C5.92322 47.8721 5.7818 47.4794 5.86035 47.1965V46.8352C6.23743 45.5782 6.0332 44.2585 6.52026 43.4886V43.3158C6.67737 42.6716 6.83448 42.0275 7.00731 41.399V41.2262C7.14995 40.3354 7.41428 39.4684 7.79289 38.6495V38.4767C8.10712 37.5811 8.42135 36.6855 8.78272 35.8057L8.86126 35.6014L9.20691 34.7687L9.56829 33.9675L10.0239 32.9933C10.5267 32.7734 10.621 31.1865 11.328 30.4638L11.5008 30.1653L11.8464 29.5682L11.925 29.4111C11.9475 29.0355 12.0907 28.6773 12.3335 28.3899C12.4906 28.1699 12.6163 27.9814 12.3335 27.9814C12.1764 27.51 13.449 27.5414 13.1034 26.8187L13.1976 26.6616C13.9989 26.6616 14.7688 25.4518 14.5488 24.8233C15.5072 24.3206 15.4444 23.3779 16.4499 22.5452C16.4499 22.3881 16.6699 22.2781 16.4499 22.0424C17.4869 22.0424 16.2614 21.1626 17.1412 20.7541C17.4083 21.0055 17.3612 21.1626 17.5654 21.3825L18.1782 20.7698C18.5552 20.3927 18.9323 20.0471 19.3251 19.6857L19.4508 19.5757C19.8907 19.1829 20.3149 18.7901 20.7706 18.4288L21.4462 17.8789L22.1375 17.329C23.063 16.722 23.9402 16.0444 24.7613 15.3022C25.7668 14.4852 26.3325 13.8724 24.5728 14.7051L24.1486 14.0924C24.6042 13.6682 25.5469 13.5582 25.484 12.8198C25.7825 12.4584 26.191 13.2125 26.4738 12.6941L26.2696 12.3641C26.4895 12.3641 26.7409 12.5841 26.9766 12.8355C26.8418 12.8879 26.7269 12.9813 26.648 13.1025C26.5691 13.2237 26.5301 13.3666 26.5367 13.5111C25.3112 14.878 28.3121 13.6211 28.9248 13.0711C29.9147 12.8983 29.9932 12.0342 30.826 11.7514C31.203 12.4898 31.5644 11.5943 31.9415 11.7514C31.9415 11.0758 32.7742 11.0758 33.2612 10.8244C33.4498 11.2172 33.6697 11.0915 33.8897 10.9815L34.3925 10.8087C34.5653 10.683 34.8795 10.6987 34.7538 10.2745C35.3509 10.4945 36.1521 9.81886 36.4349 9.72459C38.2312 9.17797 40.0566 8.73212 41.9025 8.38912L42.7667 8.232C42.9709 9.06471 43.568 8.23201 43.6466 8.07489C43.9451 9.14327 43.9607 7.68209 44.3378 7.98061H44.5107C45.0449 8.76619 46.0818 7.98061 46.836 8.09059H47.1816C48.0458 8.09059 48.9256 7.9649 49.7897 7.93348H49.9783C51.2527 7.8001 52.5375 7.8001 53.8118 7.93348H55.2102C55.9921 7.8903 56.769 8.08179 57.4412 8.48338C57.8498 8.48338 58.1482 7.99633 58.6824 8.27914C60.4735 9.23754 62.3432 8.98616 64.59 9.75602H64.9199L66.9153 10.3059C68.0276 10.7892 69.1786 11.1781 70.3561 11.4686C71.1574 11.7671 71.9272 12.097 72.7442 12.427L73.0584 12.5684L74.1583 13.0711C74.7396 13.3382 75.2895 13.621 75.8551 13.9039C76.4208 14.1867 76.8764 14.4223 77.5206 14.7994C78.5192 15.0586 79.4547 15.5183 80.2701 16.1506C80.8985 16.3391 81.3227 17.4547 82.0454 17.109L82.1711 17.2033C81.9669 17.5175 82.1711 17.6432 82.3597 17.7689C83.1767 17.5489 83.5852 19.0101 84.4336 18.7587C84.3236 19.1672 84.6221 19.4343 84.9521 19.7014C85.282 19.9685 84.8264 20.3142 85.4391 20.1885L86.1462 20.9269C86.319 21.2254 86.6646 20.9269 86.8532 21.2411L88.0001 22.5452L88.1101 22.6866C88.5972 23.2208 88.44 24.3834 89.5555 23.9906C89.5122 24.1504 89.5175 24.3194 89.5707 24.4761C89.6238 24.6328 89.7225 24.7701 89.854 24.8705C90.4039 25.279 90.5768 26.4416 91.3309 26.4416C91.6427 27.5489 92.2838 28.5352 93.1692 29.2697C93.4049 29.6625 93.7819 30.0867 93.562 30.4795C93.7977 30.8723 93.9548 31.4065 94.4104 31.4222C94.0176 32.0349 95.0703 32.8677 95.1645 32.8362C95.8121 34.2452 96.5522 35.6099 97.3799 36.9212C97.5684 37.2197 97.2542 37.3926 97.3799 37.6754L97.6313 37.5811C97.9455 38.3667 98.244 39.1522 98.5111 39.9221C98.7782 40.692 99.0453 42.0117 99.6581 42.5774C99.9094 43.4415 100.145 44.3056 100.349 45.1855L100.475 45.7039C100.852 46.6152 100.679 48.0764 101.323 48.6577L101.528 49.8989C101.779 50.6059 101.528 51.8157 102.046 52.1928L102.188 53.7639C102.36 54.2981 101.999 55.3351 102.486 55.555C102.219 56.2935 102.706 57.7704 102.486 59.0116C102.58 59.2787 102.219 59.9228 102.643 59.9228L102.549 61.1955C102.549 61.3526 102.549 61.5568 102.69 61.5883C102.282 61.9496 102.785 62.6409 102.486 63.4108C102.172 64.6049 102.785 64.6206 102.298 65.6104C102.188 66.9145 101.763 68.3128 101.622 69.8211L101.355 70.7167C101.066 71.476 100.845 72.2594 100.695 73.0577C100.475 73.8275 99.8623 74.7702 99.9094 75.3516C99.9566 75.9329 99.0767 76.7342 99.2338 77.1112C97.7709 80.0366 96.0627 82.8328 94.1276 85.4698L94.0176 85.6112C92.6941 87.3067 91.2834 88.9324 89.7912 90.4817L89.6655 90.6074C88.55 91.7229 87.3873 92.807 86.319 93.7497C86.0226 94.0834 85.6907 94.3837 85.3292 94.6453L81.637 97.709L80.9142 98.2746C80.7099 98.4318 80.6157 98.5103 80.6314 98.4789C80.6471 98.4475 80.6314 98.4789 80.8671 98.3218H80.9456L81.1342 98.1804L81.3542 98.0232L81.8412 97.6933L81.9983 97.5833C84.1979 96.0122 86.0519 94.7238 88.4086 92.7599L88.55 92.6342C89.697 91.6601 90.9696 90.3875 91.5509 89.9475L91.8337 89.6804L93.0435 88.4392C95.2507 86.0874 97.2288 83.5306 98.951 80.8035L99.061 80.6463L99.9723 79.1537L100.271 78.651C100.353 78.2618 100.55 77.9061 100.836 77.6297L101.025 77.2998C101.399 75.9875 101.899 74.7142 102.518 73.4976L102.596 73.3091C102.812 72.2958 103.128 71.3064 103.539 70.3553C103.539 69.5069 104.262 68.1242 104.104 67.3073L104.513 65.6261C104.246 64.7777 104.984 64.2592 104.701 63.6465Z" fill="#F7931E"/>
</g>
<defs>
<clipPath id="clip0_230_2350">
<rect width="105" height="102.738" fill="white" transform="translate(0 3)"/>
</clipPath>
</defs>
</svg>
