<svg width="104" height="104" viewBox="0 0 104 104" fill="none" xmlns="http://www.w3.org/2000/svg">
<g clip-path="url(#clip0_118_16595)">
<mask id="mask0_118_16595" style="mask-type:alpha" maskUnits="userSpaceOnUse" x="0" y="-1" width="105" height="105">
<circle cx="52.5" cy="51.5" r="52.5" fill="#D9D9D9"/>
</mask>
<g mask="url(#mask0_118_16595)">
<path d="M32.1178 65C32.1178 65 21 49.4568 21 33.4955C21 24.5979 27.3529 16.7112 38.4707 12H48V65H32.1178Z" fill="#501D00"/>
<path d="M72.5 66C72.5 66 85 49.6808 85 33.3617C84.9998 18.8025 70.3093 7 52.1875 7H49.0625C41.2501 7 35 10.9342 35 15.7872C35 18.5603 37.7982 20.8084 41.2499 20.8084H47.4999V65.9998L72.5 66Z" fill="#501D00"/>
<path d="M82.131 82.6604L66.0213 76.9746C64.804 76.545 63.75 75.7484 63.0044 74.6947C62.2589 73.641 61.8585 72.3819 61.8585 71.0911V63.0271H43.1411V71.0911C43.1411 72.3819 42.7407 73.6409 41.9952 74.6946C41.2497 75.7484 40.1957 76.5449 38.9786 76.9746L22.8688 82.6604C19.1271 83.9811 16.625 87.5176 16.625 91.4854V98.9022C16.625 101.486 18.7201 103.582 21.3043 103.582H83.6957C86.2799 103.582 88.375 101.486 88.375 98.9022V91.4856C88.3748 87.5176 85.8727 83.9811 82.131 82.6604Z" fill="#DFA671"/>
<path d="M52.4994 69.2664C55.8139 69.2664 58.9782 68.5441 61.8581 67.2705V63.0271H43.1406V67.2705C46.0207 68.5439 49.185 69.2664 52.4994 69.2664Z" fill="#CE976A"/>
<path d="M73.5574 39.6301H72.7775V33.391C72.7775 28.2223 68.5875 24.0323 63.4188 24.0323H41.5819C36.4132 24.0323 32.2233 28.2223 32.2233 33.391V39.6301H31.4434C29.2898 39.6301 27.5439 41.3759 27.5439 43.5295C27.5439 45.6831 29.2898 47.4289 31.4434 47.4289H32.302C33.101 57.8964 41.8282 66.1463 52.5005 66.1463C63.1727 66.1463 71.8999 57.8964 72.6989 47.4289H73.5575C75.7111 47.4289 77.457 45.6831 77.457 43.5295C77.4568 41.3759 75.711 39.6301 73.5574 39.6301Z" fill="#F1B579"/>
<path d="M43.1408 44.445C42.936 44.4451 42.7331 44.4049 42.5438 44.3265C42.3545 44.2482 42.1825 44.1333 42.0376 43.9884C41.8928 43.8436 41.7779 43.6716 41.6995 43.4823C41.6212 43.293 41.5809 43.0901 41.5811 42.8852V41.3255C41.5811 40.4632 42.2788 39.7657 43.1408 39.7657C44.0029 39.7657 44.7006 40.4634 44.7006 41.3255V42.8852C44.7007 43.0901 44.6605 43.293 44.5821 43.4823C44.5038 43.6716 44.3889 43.8436 44.244 43.9884C44.0992 44.1333 43.9272 44.2482 43.7379 44.3265C43.5486 44.4049 43.3457 44.4451 43.1408 44.445ZM61.8581 44.445C61.6532 44.4451 61.4503 44.4049 61.261 44.3265C61.0717 44.2482 60.8997 44.1333 60.7549 43.9884C60.61 43.8436 60.4951 43.6716 60.4168 43.4823C60.3384 43.293 60.2982 43.0901 60.2983 42.8852V41.3255C60.2982 41.1206 60.3384 40.9177 60.4168 40.7284C60.4951 40.5391 60.61 40.3671 60.7549 40.2223C60.8997 40.0774 61.0717 39.9625 61.261 39.8842C61.4503 39.8058 61.6532 39.7656 61.8581 39.7657C62.0629 39.7656 62.2658 39.8058 62.4551 39.8842C62.6444 39.9625 62.8164 40.0774 62.9613 40.2223C63.1061 40.3671 63.221 40.5391 63.2994 40.7284C63.3777 40.9177 63.418 41.1206 63.4178 41.3255V42.8852C63.418 43.0901 63.3777 43.293 63.2994 43.4823C63.221 43.6716 63.1061 43.8436 62.9613 43.9884C62.8164 44.1333 62.6444 44.2482 62.4551 44.3265C62.2658 44.4049 62.0629 44.4451 61.8581 44.445Z" fill="#5A4650"/>
<path d="M52.5 56.7883C50.1588 56.7883 48.0003 56.0373 46.7254 54.7792C46.1115 54.1729 46.1054 53.186 46.7101 52.5736C47.3179 51.9583 48.305 51.9537 48.9156 52.5583C49.435 53.0702 50.6841 53.6688 52.4998 53.6688C54.3155 53.6688 55.5646 53.0702 56.084 52.5583C56.6948 51.9535 57.6819 51.9583 58.2895 52.5736C58.8943 53.186 58.8881 54.1731 58.2742 54.7792C56.9997 56.0373 54.8411 56.7883 52.5 56.7883Z" fill="#B67F5F"/>
<path d="M41.5832 38.1678C41.2877 38.1682 40.9982 38.0845 40.7484 37.9266C40.4987 37.7687 40.299 37.543 40.1726 37.2759C39.8024 36.4975 40.136 35.5669 40.9144 35.1982L42.7665 34.3209C43.5419 33.9514 44.474 34.2842 44.8427 35.0626C45.2129 35.841 44.8793 36.7716 44.101 37.1403L42.2488 38.0176C42.0408 38.1163 41.8134 38.1676 41.5832 38.1678ZM63.4169 38.1678C63.1867 38.1676 62.9594 38.1163 62.7513 38.0178L60.8992 37.1405C60.1208 36.7718 59.7872 35.8412 60.1574 35.0628C60.5261 34.2852 61.4598 33.9531 62.2336 34.3211L64.0858 35.1984C64.8641 35.5671 65.1977 36.4977 64.8275 37.2761C64.7011 37.5431 64.5014 37.7688 64.2516 37.9267C64.0019 38.0845 63.7124 38.1682 63.4169 38.1678Z" fill="#A06E50"/>
<path d="M82.131 82.6604L78.4735 81.3696C72.4862 89.1713 63.0944 94.2229 52.4999 94.2229C41.9054 94.2229 32.5134 89.1713 26.5263 81.3696L22.8688 82.6606C19.1271 83.9811 16.625 87.5179 16.625 91.4857V98.9024C16.625 101.487 18.7201 103.582 21.3043 103.582H83.6957C86.2799 103.582 88.375 101.487 88.375 98.9024V91.4857C88.3748 87.5177 85.8727 83.9811 82.131 82.6604Z" fill="#25986E"/>
<path d="M32.2223 33.3912V39.6302H31.6649C29.6252 39.6302 27.7664 41.0978 27.5632 43.1274C27.3293 45.4615 29.1562 47.4291 31.4424 47.4291H32.301C33.1 57.8966 41.8272 66.1465 52.4995 66.1465C53.5665 66.1465 54.6068 66.0426 55.6288 65.8836C45.9102 64.3837 38.4614 56.0078 38.4614 45.8693V33.391C38.4614 29.9452 41.2547 27.1519 44.7004 27.1519H61.8581C63.5809 27.1519 64.9776 25.7551 64.9776 24.0323H41.5811C36.4124 24.0325 32.2223 28.2225 32.2223 33.3912Z" fill="#DFA671"/>
</g>
</g>
<defs>
<clipPath id="clip0_118_16595">
<rect width="105" height="105" fill="white" transform="translate(0 -1)"/>
</clipPath>
</defs>
</svg>
