<svg width="105" height="105" viewBox="0 0 105 105" fill="none" xmlns="http://www.w3.org/2000/svg">
<g clip-path="url(#clip0_230_220)">
<circle cx="53.5" cy="51.5" r="52.5" fill="#FCFDD1"/>
<g clip-path="url(#clip1_230_220)">
<mask id="mask0_230_220" style="mask-type:alpha" maskUnits="userSpaceOnUse" x="1" y="-1" width="105" height="105">
<circle cx="53.5" cy="51.5" r="52.5" fill="#D9D9D9"/>
</mask>
<g mask="url(#mask0_230_220)">
<path d="M33.2228 81.7444C33.2228 81.7444 22.3042 61.1599 22.3042 40.0216C22.3042 28.2381 28.5433 17.7935 39.4619 11.5542H48.8205V81.7444H33.2228Z" fill="#5A4650"/>
<path d="M73.7771 80.1848C73.7771 80.1848 86.2555 59.9076 86.2555 39.6304C86.2553 21.54 71.5903 6.875 53.4999 6.875H50.3804C42.5816 6.875 36.3423 11.7634 36.3423 17.7934C36.3423 21.2391 39.1356 24.0325 42.5814 24.0325H48.8204V80.1846H73.7771V80.1848Z" fill="#64505A"/>
<path d="M34.7825 55.2283C34.7825 56.9512 33.3858 58.3478 31.663 58.3478C29.94 58.3478 28.5435 56.951 28.5435 55.2283C28.5435 52.1087 31.663 45.8696 31.663 45.8696C31.663 45.8696 34.7825 52.1087 34.7825 55.2283Z" fill="#FFE17D"/>
<path d="M31.663 45.8696C31.663 45.8696 28.5435 52.1087 28.5435 55.2283C28.5435 56.951 29.9402 58.3478 31.663 58.3478V45.8696Z" fill="#FFD164"/>
<path d="M78.4564 55.2283C78.4564 56.9512 77.0596 58.3478 75.3368 58.3478C73.6139 58.3478 72.2173 56.951 72.2173 55.2283C72.2173 52.1087 75.3368 45.8696 75.3368 45.8696C75.3368 45.8696 78.4564 52.1087 78.4564 55.2283Z" fill="#FFE17D"/>
<path d="M75.3368 45.8696C75.3368 45.8696 72.2173 52.1087 72.2173 55.2283C72.2173 56.951 73.6141 58.3478 75.3368 58.3478V45.8696Z" fill="#FFD164"/>
<path d="M83.131 82.6607L67.0213 76.9748C65.804 76.5452 64.75 75.7487 64.0044 74.695C63.2589 73.6412 62.8585 72.3822 62.8585 71.0914V63.0273H44.1411V71.0914C44.1411 72.3822 43.7407 73.6412 42.9952 74.6949C42.2497 75.7486 41.1957 76.5452 39.9786 76.9748L23.8688 82.6607C20.1271 83.9813 17.625 87.5179 17.625 91.4857V98.9024C17.625 101.487 19.7201 103.582 22.3043 103.582H84.6957C87.2799 103.582 89.375 101.487 89.375 98.9024V91.4859C89.3748 87.5179 86.8727 83.9813 83.131 82.6607Z" fill="#E3AA75"/>
<path d="M53.4999 69.2666C56.8144 69.2666 59.9787 68.5443 62.8585 67.2707V63.0273H44.1411V67.2707C47.0212 68.5441 50.1855 69.2666 53.4999 69.2666Z" fill="#D29B6E"/>
<path d="M74.5569 39.6299H73.777V33.3908C73.777 28.2221 69.5871 24.0322 64.4184 24.0322H42.5814C37.4127 24.0322 33.2228 28.2221 33.2228 33.3908V39.6299H32.4429C30.2893 39.6299 28.5435 41.3757 28.5435 43.5294C28.5435 45.683 30.2893 47.4288 32.4429 47.4288H33.3015C34.1005 57.8963 42.8277 66.1462 53.5 66.1462C64.1722 66.1462 72.8994 57.8963 73.6984 47.4288H74.557C76.7107 47.4288 78.4565 45.683 78.4565 43.5294C78.4563 41.3757 76.7105 39.6299 74.5569 39.6299Z" fill="#F5B97D"/>
<path d="M44.1413 44.4449C43.9364 44.4451 43.7336 44.4048 43.5443 44.3265C43.355 44.2481 43.183 44.1332 43.0381 43.9884C42.8933 43.8435 42.7784 43.6715 42.7 43.4822C42.6217 43.2929 42.5814 43.09 42.5815 42.8852V41.3254C42.5815 40.4632 43.2793 39.7656 44.1413 39.7656C45.0034 39.7656 45.7011 40.4633 45.7011 41.3254V42.8852C45.7012 43.09 45.6609 43.2929 45.5826 43.4822C45.5043 43.6715 45.3894 43.8435 45.2445 43.9884C45.0997 44.1332 44.9277 44.2481 44.7384 44.3265C44.5491 44.4048 44.3462 44.4451 44.1413 44.4449ZM62.8586 44.4449C62.6537 44.4451 62.4508 44.4048 62.2615 44.3265C62.0722 44.2481 61.9002 44.1332 61.7554 43.9884C61.6105 43.8435 61.4956 43.6715 61.4173 43.4822C61.3389 43.2929 61.2987 43.09 61.2988 42.8852V41.3254C61.2987 41.1205 61.3389 40.9176 61.4173 40.7284C61.4956 40.5391 61.6105 40.3671 61.7554 40.2222C61.9002 40.0773 62.0722 39.9624 62.2615 39.8841C62.4508 39.8058 62.6537 39.7655 62.8586 39.7656C63.0634 39.7655 63.2663 39.8058 63.4556 39.8841C63.6449 39.9624 63.8169 40.0773 63.9618 40.2222C64.1066 40.3671 64.2215 40.5391 64.2999 40.7284C64.3782 40.9176 64.4185 41.1205 64.4183 41.3254V42.8852C64.4185 43.09 64.3782 43.2929 64.2999 43.4822C64.2215 43.6715 64.1066 43.8435 63.9618 43.9884C63.8169 44.1332 63.6449 44.2481 63.4556 44.3265C63.2663 44.4048 63.0634 44.4451 62.8586 44.4449Z" fill="#5A4650"/>
<path d="M53.5 56.7883C51.1588 56.7883 49.0003 56.0373 47.7254 54.7792C47.1115 54.1729 47.1054 53.186 47.7101 52.5736C48.3179 51.9583 49.305 51.9537 49.9156 52.5583C50.435 53.0702 51.6841 53.6688 53.4998 53.6688C55.3155 53.6688 56.5646 53.0702 57.084 52.5583C57.6948 51.9535 58.6819 51.9583 59.2895 52.5736C59.8943 53.186 59.8881 54.1731 59.2742 54.7792C57.9997 56.0373 55.8411 56.7883 53.5 56.7883Z" fill="#B67F5F"/>
<path d="M42.5832 38.1677C42.2877 38.168 41.9982 38.0844 41.7484 37.9265C41.4987 37.7685 41.299 37.5429 41.1726 37.2758C40.8024 36.4974 41.136 35.5668 41.9144 35.1981L43.7665 34.3207C44.5419 33.9513 45.474 34.2841 45.8427 35.0625C46.2129 35.8408 45.8793 36.7715 45.101 37.1402L43.2488 38.0175C43.0408 38.1162 42.8134 38.1675 42.5832 38.1677ZM64.4169 38.1677C64.1867 38.1674 63.9594 38.1162 63.7513 38.0177L61.8992 37.1403C61.1208 36.7716 60.7872 35.841 61.1574 35.0627C61.5261 34.285 62.4598 33.953 63.2336 34.3209L65.0858 35.1983C65.8641 35.567 66.1977 36.4976 65.8275 37.276C65.7011 37.543 65.5014 37.7687 65.2516 37.9265C65.0019 38.0844 64.7124 38.168 64.4169 38.1677Z" fill="#A06E50"/>
<path d="M83.131 82.6604L79.4735 81.3696C73.4862 89.1713 64.0944 94.2229 53.4999 94.2229C42.9054 94.2229 33.5134 89.1713 27.5263 81.3696L23.8688 82.6606C20.1271 83.9811 17.625 87.5179 17.625 91.4857V98.9024C17.625 101.487 19.7201 103.582 22.3043 103.582H84.6957C87.2799 103.582 89.375 101.487 89.375 98.9024V91.4857C89.3748 87.5177 86.8727 83.9811 83.131 82.6604Z" fill="#FF8250"/>
<path d="M53.4998 94.2229C42.9055 94.2229 33.5133 89.1713 27.5262 81.3696L24.4204 82.4659C30.9375 91.4753 41.5305 97.3426 53.4998 97.3426C65.4691 97.3426 76.0621 91.4753 82.5792 82.4659L79.4732 81.3698C73.4861 89.1713 64.0941 94.2229 53.4998 94.2229Z" fill="#DC7346"/>
<path d="M33.2228 33.391V39.6301H32.6654C30.6257 39.6301 28.7669 41.0977 28.5637 43.1272C28.3298 45.4614 30.1567 47.429 32.4429 47.429H33.3015C34.1005 57.8965 42.8277 66.1464 53.5 66.1464C54.5669 66.1464 55.6073 66.0425 56.6293 65.8835C46.9107 64.3836 39.4618 56.0077 39.4618 45.8692V33.3908C39.4618 29.9451 42.2552 27.1518 45.7009 27.1518H62.8586C64.5814 27.1518 65.9781 25.755 65.9781 24.0322H42.5816C37.4129 24.0324 33.2228 28.2223 33.2228 33.391Z" fill="#E3AA75"/>
</g>
</g>
<path fill-rule="evenodd" clip-rule="evenodd" d="M104.701 61.9823C105.008 60.1749 105.092 58.3354 104.953 56.5067V55.9286V55.1418C104.953 54.3549 104.953 53.536 104.953 52.7974C104.953 52.0587 104.953 51.4967 104.953 50.8544C104.544 50.5011 104.717 49.5698 104.607 48.9115C104.497 48.2531 104.749 47.3057 104.199 47.2094C104.073 46.1817 103.932 45.154 103.759 44.1263L103.507 42.7935C103.303 41.7819 103.083 40.7703 102.832 39.7587C102.579 39.8276 102.346 39.9601 102.156 40.1441C102.156 39.9193 102.156 39.6945 102.533 39.6463L102.125 38.1529C101.846 37.4989 101.64 36.8148 101.512 36.1136C101.323 35.5998 101.261 34.8611 100.774 34.7327C100.475 33.8816 100.161 33.1269 99.8309 32.2117C99.5009 31.2964 99.0924 30.4293 98.6996 29.5622C98.2911 29.6425 97.5056 30.3811 97.3799 29.9797C97.2542 29.5782 97.0971 29.5301 97.3799 29.3534C97.537 29.6103 97.6313 29.9636 98.1183 29.6264C98.5897 28.8877 98.1183 28.4863 97.6313 28.0206C97.1442 27.555 96.8771 26.5434 96.4843 25.8047L96.013 24.9697L95.6359 24.3114C95.1803 23.5245 94.7246 22.7056 94.2376 22.0151L93.2949 20.57C92.7764 20.1525 92.5722 18.8679 91.8337 18.9642C91.6923 18.1453 91.0638 18.4022 91.1424 17.5512L90.9067 17.7439C90.404 17.1015 89.8698 16.4592 89.3356 15.833L89.0842 15.544C88.7071 15.1586 88.3772 14.5002 87.843 14.6448C87.843 13.6652 86.8218 13.3441 86.3975 13.1514L85.0306 11.8668C83.6009 10.8712 82.1712 8.94433 80.5529 8.83193C79.9401 8.43049 79.1388 7.96483 78.4632 7.57945C77.7876 7.19407 77.2691 6.92109 76.6564 6.59994C76.0436 6.27879 74.9438 5.36351 74.1583 5.76494C74.4882 5.09053 73.6084 5.34746 73.4356 5.05842L72.7442 4.76939L72.0529 4.48035C70.9217 3.83805 69.3348 3.70958 68.7064 3.24392C68.0779 2.77825 67.1352 2.74614 66.3654 2.52133C64.6057 2.02355 62.8303 1.60606 61.0392 1.28491V0.931645C60.7563 0.931645 60.3636 0.674724 60.2379 1.15645C59.3738 1.01193 58.5096 0.883466 57.6298 0.787121C57.4412 -0.0799842 56.3257 0.498088 55.7758 0.225111H55.5716C51.3036 -0.0893599 47.019 -0.0893599 42.751 0.225111H42.5625C38.6974 1.04404 34.0625 1.55788 30.9516 3.77382C31.0302 4.07891 30.9516 4.23949 30.7474 4.27161C30.7474 3.54902 30.5746 3.4045 30.0875 3.72565C29.2391 4.07891 28.4064 4.44823 27.5894 4.84967L27.4165 4.92996L27.2437 5.0263H27.0709C26.4896 5.31534 25.8925 5.62043 25.3269 5.94158L24.8084 6.21456L24.1328 6.616C23.4887 6.616 23.9757 7.33858 23.4887 7.45099C22.0903 7.45099 21.9175 8.59107 20.4878 9.05674L20.3306 9.16914L20.0164 9.39394C19.3566 10.4377 18.2567 10.1165 18.0682 11.3851C17.8639 11.5296 17.534 11.1924 17.3612 11.4814C16.7642 11.7544 17.2826 12.4449 16.5756 12.6857C15.7743 12.2201 15.4601 13.5047 14.8631 13.7616L14.7217 13.9061C14.2503 14.3718 13.779 14.8374 13.339 15.3352C13.1034 15.5761 12.8834 15.833 12.6635 16.0739C12.0754 16.6473 11.6424 17.3664 11.4065 18.1613C10.4952 19.3052 9.64044 20.4949 8.84553 21.7261L8.73559 21.8867L8.62559 22.0633C8.16996 22.802 7.71433 23.5406 7.30583 24.2792C7.55722 24.9376 8.2171 24.5201 8.18567 25.0179C8.15425 25.5157 7.74575 25.612 7.14871 25.339C7.43151 25.339 8.26423 25.1303 7.14871 24.6325C6.62444 25.7906 6.15771 26.975 5.75036 28.1812C4.83478 29.4221 4.1188 30.8044 3.62935 32.2759C3.88073 32.4044 4.32064 32.5328 4.2578 32.7094C3.83359 32.597 3.77073 32.87 3.70788 33.143C3.51935 33.143 3.25225 33.143 3.70788 33.3357C3.28367 33.7211 3.09514 33.994 3.70788 34.5882C3.79162 34.4043 3.93271 34.2541 4.10901 34.1611C4.28532 34.0681 4.48687 34.0376 4.68199 34.0743C4.60343 34.251 4.88626 34.3794 4.90197 34.5561L4.77626 34.9254C3.53505 34.9254 3.53505 34.6203 2.76518 35.1181L3.11084 35.2305C3.11084 36.21 2.24673 36.4508 2.54525 37.1574C2.01106 37.045 2.08959 37.5267 1.97961 37.8318L1.60255 39.4375C1.3983 40.3528 1.19402 41.2681 1.03691 42.1994L0.958371 42.6009L0.801246 43.5964C0.706977 44.1905 0.628414 44.8007 0.549856 45.3949C0.722683 46.278 -0.361398 47.7392 1.0055 48.0604C1.80679 48.2049 1.27262 49.1684 0.58131 49.056C0.738425 47.1451 -0.0471654 48.8472 0.172796 49.8428C0.73841 51.288 -0.439934 52.2354 0.487045 53.8893C0.0156998 53.8893 0.0471228 54.4674 0.487045 54.4995C-1.17347e-05 54.7885 0.172778 55.3987 0.204201 55.9286C0.0156633 56.7796 0.628408 57.0687 0.691254 57.727C0.518428 58.2087 0.125665 59.0277 0.864106 59.3328C-0.0157386 59.5094 1.3826 59.6057 0.974098 60.1356C0.408484 60.3123 0.628435 61.7414 1.20976 61.7414C0.926954 62.2071 1.71253 63.3471 1.69681 64.3267C1.25689 64.4391 1.39827 64.985 1.82248 64.9208L1.91675 65.3222C2.13671 66.2375 2.37242 67.1528 2.63951 68.0681C3.3689 70.6144 4.28809 73.0999 5.38903 75.5027L5.56183 75.872L6.26887 77.3332C6.0332 78.5536 7.47865 79.8543 7.98142 81.0586L8.09141 81.2352C8.57846 81.3637 8.70412 82.6483 9.42685 83.3066L9.66256 83.6278L10.3695 84.6394L11.0452 85.5386L11.7522 86.4218C12.1764 86.9677 12.6477 87.5298 13.1819 88.1239C13.7161 88.718 14.0618 89.4085 14.6588 89.28C14.3446 90.0026 15.5701 90.388 15.8843 90.966L16.7955 91.801C17.3926 92.3631 18.0211 92.8769 18.6495 93.4068C18.2568 93.9527 19.278 93.4068 19.4508 94.0491L19.6236 93.8082C20.2678 93.8082 19.4351 95.141 20.095 94.5469L20.2521 94.6753C20.5192 95.7351 22.2632 96.2811 23.143 97.0037L23.4887 97.2124C24.5099 97.5817 24.5728 98.3364 25.4997 98.7058L25.6255 98.4488C25.7354 99.1714 26.741 99.2678 27.1966 99.2999C27.0709 99.621 27.3537 99.7334 27.6208 99.8298C28.6735 100.328 29.7575 100.793 30.8416 101.211H31.0302C31.3915 102.03 32.9941 102.03 33.8583 102.463H34.0468C34.5181 102.608 34.9738 102.752 35.4451 102.865H35.6337L37.032 103.218H37.2362C38.804 103.987 40.5495 104.299 42.2796 104.117C42.4681 104.711 43.678 104.374 44.275 104.567V104.326H44.4793L46.506 104.454C46.8359 104.808 47.2444 104.454 47.92 104.711V104.486C49.2712 104.486 50.6224 104.486 51.9736 104.374C52.335 104.856 53.5448 104.374 54.2046 104.374C54.863 104.207 55.5376 104.116 56.2158 104.101V103.892C57.1584 103.764 58.0854 103.587 59.0124 103.411C59.9394 103.234 60.1122 102.977 60.7406 102.833C61.3691 102.688 62.0761 102.72 62.0761 102.303C62.6297 102.315 63.175 102.164 63.6473 101.869C65.1241 101.419 66.5853 100.922 68.0151 100.263L68.3764 100.119C68.9735 99.7656 70.1676 99.5729 70.3404 99.0912C70.7803 98.8985 71.1888 98.6897 71.613 98.481C72.6343 97.9992 73.6241 97.4533 74.5982 96.8752C74.5982 97.0037 74.9753 96.8752 74.9438 96.6825C75.8719 96.2971 76.7441 95.7838 77.5362 95.1571C77.9654 94.7299 78.4522 94.3676 78.9817 94.0812C79.1702 93.9206 79.453 93.7601 79.4059 93.6155C81.1359 92.3886 82.7649 91.0192 84.2765 89.5209C84.8107 88.9214 85.3344 88.3112 85.8476 87.6903L86.2247 87.2247C86.8846 86.4218 87.0417 85.924 87.6859 85.0729C88.3301 84.2219 88.7071 83.2906 89.367 82.1344L89.5555 81.7812L90.2468 80.352L90.3254 80.1754C90.5925 79.4368 91.0481 78.4091 91.3938 77.3493C91.7034 76.4354 91.9553 75.5021 92.148 74.5553C92.1775 74.3494 92.2195 74.1457 92.2736 73.9451C91.8982 75.1835 91.4576 76.4003 90.9539 77.5902C90.8092 77.8812 90.6833 78.1816 90.5768 78.4894C90.4197 78.8426 90.2468 79.1959 90.0583 79.5331L89.8855 79.8864C89.2598 81.0941 88.5565 82.2581 87.7802 83.3708L87.6702 83.5314C87.0349 84.503 86.3312 85.4261 85.5648 86.2933L85.4391 86.4378C84.7276 87.2767 83.9612 88.0654 83.1452 88.7983L82.4382 89.4567C82.1733 89.6488 81.9445 89.8881 81.7626 90.1632C80.69 91.0884 79.5675 91.9515 78.4004 92.7484L78.2433 92.8448C77.1906 93.5834 76.0908 94.2418 74.9753 94.868L74.6453 95.0607C74.2525 95.2855 73.8597 95.4943 73.4512 95.687H73.2784C72.54 96.0723 71.7858 96.4256 71.0317 96.7467H70.8588L69.6177 97.2606C69.0835 97.4854 68.5493 97.6781 68.0465 97.8708C67.5437 98.0635 66.8524 98.2883 66.2397 98.481C65.6269 98.8379 64.9647 99.0977 64.2757 99.2517L62.7832 99.621C62.5789 99.7013 62.2489 99.7174 62.2646 99.9261C61.8154 99.932 61.3719 100.03 60.9606 100.215C60.395 100.215 60.5207 100.584 60.0493 100.584C59.578 100.584 57.4569 101.098 56.2472 101.163C56.1058 101.163 55.8701 101.163 55.8858 101.403C55.273 101.179 55.2102 101.403 54.3146 101.403H53.9376C52.47 101.541 50.9947 101.574 49.5226 101.5H48.1714C47.2602 101.773 46.2703 101.018 45.2805 101.5C45.092 100.874 44.1179 101.307 43.7094 101.323C43.3794 100.456 42.1382 101.436 41.8397 100.777C41.7105 100.729 41.5721 100.713 41.4357 100.73C41.2993 100.747 41.1686 100.796 41.0541 100.874C40.4257 100.874 40.4728 100.295 39.7815 100.344V100.601C39.5144 100.215 38.5874 100.601 38.2103 99.9422L37.2834 99.6853L36.7335 99.5247L35.2723 99.059C35.1466 98.3846 33.9368 98.481 33.3869 98.0795H33.2141C32.6956 97.9029 32.1143 97.4533 31.6429 97.7423C31.6429 97.0518 30.4646 97.1 30.0718 96.6825L29.899 96.6022C27.971 95.5181 26.1179 94.3002 24.3528 92.9572C24.2271 92.4273 23.1587 91.3514 22.5303 91.6084C21.7761 90.9018 21.4147 90.0026 20.4249 89.4245C19.7022 88.7501 18.9795 88.0436 18.2882 87.321C17.9896 87.1765 18.2882 86.6627 17.9111 86.9196C16.8427 85.924 16.8427 84.816 15.6172 84.238C14.886 82.9734 13.945 81.8487 12.8363 80.9141C12.7263 80.7535 12.9148 80.5769 12.8363 80.4002L12.7263 80.2557C12.3649 79.6776 12.0036 79.0835 11.6579 78.4894C12.0821 77.269 10.401 76.8836 10.6209 75.8559L10.3381 76.0165C9.8668 75.6151 10.5895 75.2618 10.1496 74.8604L9.75682 74.0093C9.50544 73.4473 9.26973 72.8853 9.03406 72.3072L8.49987 70.9263L7.90288 69.176C7.55722 68.8228 7.90286 67.7469 7.14871 67.8593C7.60434 66.9922 6.83447 66.655 6.5988 65.8842C7.03872 65.7558 6.89734 65.2741 6.47312 65.3383C6.91305 64.6799 6.04891 64.5193 6.47312 63.6201C5.95465 63.1866 6.47311 62.4961 6.11174 61.629C6.11174 61.4042 5.64041 61.4524 5.68755 61.1473V60.9546C5.51472 60.1517 5.13761 60.1035 5.84463 59.3488H5.49897L5.31044 57.5022V56.7636V55.6395C5.31044 54.66 5.23188 53.6645 5.31044 52.685C4.68198 52.0587 5.56182 51.7215 5.31044 50.8223C5.10619 50.3727 5.82893 49.5056 5.02765 49.345C5.84464 48.9917 4.88624 48.799 5.12191 48.221C6.23743 48.1246 5.01193 47.5947 4.82339 47.4663C6.12744 47.4663 5.56185 46.278 5.38903 45.8605C5.92322 45.8605 5.7818 45.4591 5.86035 45.1701V44.8007C6.23743 43.5161 6.0332 42.1673 6.52026 41.3805V41.2039C6.67737 40.5455 6.83448 39.8871 7.00731 39.2448V39.0682C7.14995 38.1578 7.41428 37.2717 7.79289 36.4348V36.2581C8.10712 35.3429 8.42135 34.4276 8.78272 33.5284L8.86126 33.3196L9.20691 32.4686L9.56829 31.6497L10.0239 30.6541C10.5267 30.4293 10.621 28.8075 11.328 28.0688L11.5008 27.7637L11.8464 27.1535L11.925 26.993C11.9475 26.6091 12.0907 26.243 12.3335 25.9492C12.4906 25.7244 12.6163 25.5317 12.3335 25.5317C12.1764 25.05 13.449 25.0821 13.1034 24.3435L13.1976 24.1829C13.9989 24.1829 14.7688 22.9465 14.5488 22.3042C15.5072 21.7903 15.4444 20.8269 16.4499 19.9758C16.4499 19.8153 16.6699 19.7029 16.4499 19.462C17.4869 19.462 16.2614 18.5628 17.1412 18.1453C17.4083 18.4022 17.3612 18.5628 17.5654 18.7876L18.1782 18.1613C18.5552 17.776 18.9323 17.4227 19.3251 17.0534L19.4508 16.941C19.8907 16.5395 20.3149 16.1381 20.7706 15.7688L21.4462 15.2068L22.1375 14.6448C23.063 14.0244 23.9402 13.3319 24.7613 12.5733C25.7668 11.7383 26.3325 11.1121 24.5728 11.9631L24.1486 11.3369C24.6042 10.9033 25.5469 10.7909 25.484 10.0362C25.7825 9.66692 26.191 10.4377 26.4738 9.90778L26.2696 9.57058C26.4895 9.57058 26.7409 9.79539 26.9766 10.0523C26.8418 10.1059 26.7269 10.2013 26.648 10.3252C26.5691 10.4491 26.5301 10.5951 26.5367 10.7428C25.3112 12.1398 28.3121 10.8552 28.9248 10.2932C29.9147 10.1165 29.9932 9.23337 30.826 8.94433C31.203 9.69904 31.5644 8.78376 31.9415 8.94433C31.9415 8.25386 32.7742 8.25387 33.2612 7.99695C33.4498 8.39839 33.6697 8.26992 33.8897 8.15752L34.3925 7.98089C34.5653 7.85243 34.8795 7.86848 34.7538 7.43493C35.3509 7.65973 36.1521 6.96926 36.4349 6.87291C38.2312 6.31426 40.0566 5.85859 41.9025 5.50803L42.7667 5.34746C42.9709 6.19851 43.568 5.34746 43.6466 5.18689C43.9451 6.2788 43.9607 4.78544 44.3378 5.09053H44.5107C45.0449 5.89341 46.0818 5.09053 46.836 5.20293H47.1816C48.0458 5.20293 48.9256 5.07448 49.7897 5.04236H49.9783C51.2527 4.90604 52.5375 4.90604 53.8118 5.04236H55.2102C55.9921 4.99822 56.769 5.19394 57.4412 5.60437C57.8498 5.60437 58.1482 5.10659 58.6824 5.39563C60.4735 6.37514 62.3432 6.11822 64.59 6.90504H64.9199L66.9153 7.46705C68.0276 7.961 69.1786 8.35848 70.3561 8.6553C71.1574 8.96039 71.9272 9.2976 72.7442 9.63481L73.0584 9.77932L74.1583 10.2932C74.7396 10.5661 75.2895 10.8552 75.8551 11.1442C76.4208 11.4333 76.8764 11.6741 77.5206 12.0595C78.5192 12.3244 79.4547 12.7943 80.2701 13.4404C80.8985 13.6331 81.3227 14.7732 82.0454 14.4199L82.1711 14.5163C81.9669 14.8374 82.1711 14.9659 82.3597 15.0944C83.1767 14.8696 83.5852 16.3629 84.4336 16.106C84.3236 16.5235 84.6221 16.7964 84.9521 17.0694C85.282 17.3424 84.8264 17.6957 85.4391 17.5672L86.1462 18.3219C86.319 18.627 86.6646 18.3219 86.8532 18.6431L88.0001 19.9758L88.1101 20.1204C88.5972 20.6663 88.44 21.8546 89.5555 21.4531C89.5122 21.6164 89.5175 21.7891 89.5707 21.9492C89.6238 22.1094 89.7225 22.2497 89.854 22.3523C90.4039 22.7698 90.5768 23.9581 91.3309 23.9581C91.6427 25.0898 92.2838 26.0978 93.1692 26.8485C93.4049 27.2499 93.7819 27.6834 93.562 28.0849C93.7977 28.4863 93.9548 29.0323 94.4104 29.0483C94.0176 29.6746 95.0703 30.5256 95.1645 30.4935C95.8121 31.9335 96.5522 33.3282 97.3799 34.6684C97.5684 34.9735 97.2542 35.1502 97.3799 35.4392L97.6313 35.3429C97.9455 36.1457 98.244 36.9486 98.5111 37.7354C98.7782 38.5223 99.0453 39.8711 99.6581 40.4492C99.9094 41.3323 100.145 42.2155 100.349 43.1147L100.475 43.6446C100.852 44.5759 100.679 46.0693 101.323 46.6634L101.528 47.932C101.779 48.6545 101.528 49.891 102.046 50.2763L102.188 51.8821C102.36 52.428 101.999 53.4878 102.486 53.7126C102.219 54.4673 102.706 55.9767 102.486 57.2453C102.58 57.5183 102.219 58.1766 102.643 58.1766L102.549 59.4773C102.549 59.6379 102.549 59.8466 102.69 59.8787C102.282 60.248 102.785 60.9546 102.486 61.7414C102.172 62.9618 102.785 62.9778 102.298 63.9895C102.188 65.3222 101.763 66.7513 101.622 68.2929L101.355 69.2081C101.066 69.9842 100.845 70.7848 100.695 71.6007C100.475 72.3875 99.8623 73.351 99.9094 73.9451C99.9566 74.5392 99.0767 75.3582 99.2338 75.7435C97.7709 78.7334 96.0627 81.5911 94.1276 84.2861L94.0176 84.4306C92.6941 86.1636 91.2834 87.8251 89.7912 89.4085L89.6655 89.5369C88.55 90.677 87.3873 91.785 86.319 92.7484C86.0226 93.0894 85.6907 93.3964 85.3292 93.6637L81.637 96.7949L80.9142 97.373C80.7099 97.5336 80.6157 97.6139 80.6314 97.5817C80.6471 97.5496 80.6314 97.5817 80.8671 97.4212H80.9456L81.1342 97.2766L81.3542 97.1161L81.8412 96.7789L81.9983 96.6665C84.1979 95.0607 86.0519 93.744 88.4086 91.7368L88.55 91.6084C89.697 90.6128 90.9696 89.3121 91.5509 88.8625L91.8337 88.5895L93.0435 87.321C95.2507 84.9173 97.2288 82.3042 98.951 79.5171L99.061 79.3565L99.9723 77.831L100.271 77.3172C100.353 76.9194 100.55 76.5559 100.836 76.2734L101.025 75.9362C101.399 74.595 101.899 73.2937 102.518 72.0503L102.596 71.8576C102.812 70.8221 103.128 69.8109 103.539 68.8388C103.539 67.9717 104.262 66.5586 104.104 65.7236L104.513 64.0055C104.246 63.1384 104.984 62.6085 104.701 61.9823Z" fill="#F7931E"/>
</g>
<defs>
<clipPath id="clip0_230_220">
<rect width="105" height="105" fill="white"/>
</clipPath>
<clipPath id="clip1_230_220">
<rect width="105" height="105" fill="white" transform="translate(1 -1)"/>
</clipPath>
</defs>
</svg>
