<svg width="104" height="104" viewBox="0 0 104 104" fill="none" xmlns="http://www.w3.org/2000/svg">
<g clip-path="url(#clip0_230_2375)">
<mask id="mask0_230_2375" style="mask-type:alpha" maskUnits="userSpaceOnUse" x="0" y="-1" width="105" height="105">
<circle cx="52.5" cy="51.5" r="52.5" fill="#D9D9D9"/>
</mask>
<g mask="url(#mask0_230_2375)">
<path d="M32.1178 65C32.1178 65 21 49.4568 21 33.4955C21 24.5979 27.3529 16.7112 38.4707 12H48V65H32.1178Z" fill="#501D00"/>
<path d="M72.5 66C72.5 66 85 49.6808 85 33.3617C84.9998 18.8025 70.3093 7 52.1875 7H49.0625C41.2501 7 35 10.9342 35 15.7872C35 18.5603 37.7982 20.8084 41.2499 20.8084H47.4999V65.9998L72.5 66Z" fill="#501D00"/>
<path d="M82.131 82.6607L66.0213 76.9748C64.804 76.5452 63.75 75.7487 63.0044 74.695C62.2589 73.6412 61.8585 72.3822 61.8585 71.0914V63.0273H43.1411V71.0914C43.1411 72.3822 42.7407 73.6412 41.9952 74.6949C41.2497 75.7486 40.1957 76.5452 38.9786 76.9748L22.8688 82.6607C19.1271 83.9813 16.625 87.5179 16.625 91.4857V98.9024C16.625 101.487 18.7201 103.582 21.3043 103.582H83.6957C86.2799 103.582 88.375 101.487 88.375 98.9024V91.4859C88.3748 87.5179 85.8727 83.9813 82.131 82.6607Z" fill="#DFA671"/>
<path d="M52.4999 69.2666C55.8144 69.2666 58.9787 68.5443 61.8585 67.2707V63.0273H43.1411V67.2707C46.0212 68.5441 49.1855 69.2666 52.4999 69.2666Z" fill="#CE976A"/>
<path d="M73.5569 39.6299H72.777V33.3908C72.777 28.2221 68.5871 24.0322 63.4184 24.0322H41.5814C36.4127 24.0322 32.2228 28.2221 32.2228 33.3908V39.6299H31.4429C29.2893 39.6299 27.5435 41.3757 27.5435 43.5294C27.5435 45.683 29.2893 47.4288 31.4429 47.4288H32.3015C33.1005 57.8963 41.8277 66.1462 52.5 66.1462C63.1722 66.1462 71.8994 57.8963 72.6984 47.4288H73.557C75.7107 47.4288 77.4565 45.683 77.4565 43.5294C77.4563 41.3757 75.7105 39.6299 73.5569 39.6299Z" fill="#F1B579"/>
<path d="M43.1413 44.4449C42.9364 44.4451 42.7336 44.4048 42.5443 44.3265C42.355 44.2481 42.183 44.1332 42.0381 43.9884C41.8933 43.8435 41.7784 43.6715 41.7 43.4822C41.6217 43.2929 41.5814 43.09 41.5815 42.8852V41.3254C41.5815 40.4632 42.2793 39.7656 43.1413 39.7656C44.0034 39.7656 44.7011 40.4633 44.7011 41.3254V42.8852C44.7012 43.09 44.6609 43.2929 44.5826 43.4822C44.5043 43.6715 44.3894 43.8435 44.2445 43.9884C44.0997 44.1332 43.9277 44.2481 43.7384 44.3265C43.5491 44.4048 43.3462 44.4451 43.1413 44.4449ZM61.8586 44.4449C61.6537 44.4451 61.4508 44.4048 61.2615 44.3265C61.0722 44.2481 60.9002 44.1332 60.7554 43.9884C60.6105 43.8435 60.4956 43.6715 60.4173 43.4822C60.3389 43.2929 60.2987 43.09 60.2988 42.8852V41.3254C60.2987 41.1205 60.3389 40.9176 60.4173 40.7284C60.4956 40.5391 60.6105 40.3671 60.7554 40.2222C60.9002 40.0773 61.0722 39.9624 61.2615 39.8841C61.4508 39.8058 61.6537 39.7655 61.8586 39.7656C62.0634 39.7655 62.2663 39.8058 62.4556 39.8841C62.6449 39.9624 62.8169 40.0773 62.9618 40.2222C63.1066 40.3671 63.2215 40.5391 63.2999 40.7284C63.3782 40.9176 63.4185 41.1205 63.4183 41.3254V42.8852C63.4185 43.09 63.3782 43.2929 63.2999 43.4822C63.2215 43.6715 63.1066 43.8435 62.9618 43.9884C62.8169 44.1332 62.6449 44.2481 62.4556 44.3265C62.2663 44.4048 62.0634 44.4451 61.8586 44.4449Z" fill="#5A4650"/>
<path d="M52.5 56.7883C50.1588 56.7883 48.0003 56.0373 46.7254 54.7792C46.1115 54.1729 46.1054 53.186 46.7101 52.5736C47.3179 51.9583 48.305 51.9537 48.9156 52.5583C49.435 53.0702 50.6841 53.6688 52.4998 53.6688C54.3155 53.6688 55.5646 53.0702 56.084 52.5583C56.6948 51.9535 57.6819 51.9583 58.2895 52.5736C58.8943 53.186 58.8881 54.1731 58.2742 54.7792C56.9997 56.0373 54.8411 56.7883 52.5 56.7883Z" fill="#B67F5F"/>
<path d="M41.5832 38.1677C41.2877 38.168 40.9982 38.0844 40.7484 37.9265C40.4987 37.7685 40.299 37.5429 40.1726 37.2758C39.8024 36.4974 40.136 35.5668 40.9144 35.1981L42.7665 34.3207C43.5419 33.9513 44.474 34.2841 44.8427 35.0625C45.2129 35.8408 44.8793 36.7715 44.101 37.1402L42.2488 38.0175C42.0408 38.1162 41.8134 38.1675 41.5832 38.1677ZM63.4169 38.1677C63.1867 38.1674 62.9594 38.1162 62.7513 38.0177L60.8992 37.1403C60.1208 36.7716 59.7872 35.841 60.1574 35.0627C60.5261 34.285 61.4598 33.953 62.2336 34.3209L64.0858 35.1983C64.8641 35.567 65.1977 36.4976 64.8275 37.276C64.7011 37.543 64.5014 37.7687 64.2516 37.9265C64.0019 38.0844 63.7124 38.168 63.4169 38.1677Z" fill="#A06E50"/>
<path d="M82.131 82.6604L78.4735 81.3696C72.4862 89.1713 63.0944 94.2229 52.4999 94.2229C41.9054 94.2229 32.5134 89.1713 26.5263 81.3696L22.8688 82.6606C19.1271 83.9811 16.625 87.5179 16.625 91.4857V98.9024C16.625 101.487 18.7201 103.582 21.3043 103.582H83.6957C86.2799 103.582 88.375 101.487 88.375 98.9024V91.4857C88.3748 87.5177 85.8727 83.9811 82.131 82.6604Z" fill="#25986E"/>
<path d="M32.2228 33.391V39.6301H31.6654C29.6257 39.6301 27.7669 41.0977 27.5637 43.1272C27.3298 45.4614 29.1567 47.429 31.4429 47.429H32.3015C33.1005 57.8965 41.8277 66.1464 52.5 66.1464C53.5669 66.1464 54.6073 66.0425 55.6293 65.8835C45.9107 64.3836 38.4618 56.0077 38.4618 45.8692V33.3908C38.4618 29.9451 41.2552 27.1518 44.7009 27.1518H61.8586C63.5814 27.1518 64.9781 25.755 64.9781 24.0322H41.5816C36.4129 24.0324 32.2228 28.2223 32.2228 33.391Z" fill="#DFA671"/>
</g>
</g>
<defs>
<clipPath id="clip0_230_2375">
<rect width="105" height="105" fill="white" transform="translate(0 -1)"/>
</clipPath>
</defs>
</svg>
