<svg width="105" height="105" viewBox="0 0 105 105" fill="none" xmlns="http://www.w3.org/2000/svg">
<circle cx="52.5" cy="52.5" r="52.5" fill="#E8FCEB"/>
<mask id="mask0_230_2351" style="mask-type:alpha" maskUnits="userSpaceOnUse" x="0" y="0" width="105" height="105">
<circle cx="52.5" cy="52.5" r="52.5" fill="#D9D9D9"/>
</mask>
<g mask="url(#mask0_230_2351)">
<path d="M95.2936 76.2761C95.4328 66.6695 92.2306 64.9988 90.6295 59.3601C89.0177 53.6835 90.6576 49.8072 88.75 43.5233C86.9749 37.6759 83.7501 36.688 82.7634 28.3825C81.0925 14.3206 65.9169 7.08105 58.3987 7.08105C56.2729 7.08105 54.8213 7.62062 53.8453 8.266C52.7158 9.01334 51.2727 9.01334 50.1434 8.266C49.1674 7.62062 47.7159 7.08105 45.59 7.08105C38.0718 7.08105 22.8962 14.3206 21.2255 28.3825C20.2386 36.6878 17.014 37.6757 15.2389 43.5233C13.3313 49.8072 14.9712 53.6835 13.3594 59.3601C11.7583 64.9988 8.55612 66.6695 8.69531 76.2761C8.85675 87.4166 2.43011 89.9202 4.93615 97.2991C6.80652 102.806 16.9096 107.323 16.9096 107.323H87.0793C87.0793 107.323 97.1824 102.806 99.0528 97.2991C101.559 89.9202 95.132 87.4166 95.2936 76.2761Z" fill="#64505A"/>
<path d="M51.9944 8.8264C51.3357 8.82573 50.6918 8.63079 50.1434 8.266C49.1674 7.62062 47.7159 7.08105 45.59 7.08105C38.0718 7.08105 22.8962 14.3206 21.2255 28.3825C20.2386 36.6878 17.014 37.6757 15.2389 43.5233C13.3313 49.8072 14.9712 53.6835 13.3594 59.3601C11.7583 64.9988 8.55612 66.6695 8.69531 76.2761C8.85675 87.4166 2.43011 89.9202 4.93615 97.2991C6.80652 102.806 16.9096 107.323 16.9096 107.323H51.9944V8.8264Z" fill="#5A4650"/>
<path d="M83.7326 88.2556L66.4772 82.1654C65.1734 81.7053 64.0444 80.8521 63.2458 79.7234C62.4472 78.5948 62.0184 77.2462 62.0184 75.8636V67.2261H41.9699V75.8636C41.9699 77.2462 41.541 78.5948 40.7425 79.7234C39.9439 80.8521 38.8149 81.7053 37.5111 82.1654L20.2557 88.2556C16.2479 89.6702 13.5679 93.4583 13.5679 97.7082V105.652C13.5679 108.42 15.8119 110.665 18.58 110.665H85.4083C88.1763 110.665 90.4204 108.42 90.4204 105.652V97.7082C90.4204 93.4583 87.7404 89.6702 83.7326 88.2556Z" fill="#B67F5F"/>
<path d="M83.7328 88.2557L72.2193 84.1919C67.6881 90.4549 61.5212 97.3616 54.3428 101.189C53.6197 101.573 52.8134 101.774 51.9945 101.774C51.1756 101.774 50.3693 101.573 49.6463 101.189C42.4678 97.3618 36.301 90.4549 31.7698 84.1919L20.2562 88.2557C16.2484 89.6703 13.5684 93.4584 13.5684 97.7086V105.653C13.5684 108.421 15.8124 110.665 18.5804 110.665H85.4088C88.1768 110.665 90.4209 108.421 90.4209 105.653V97.7086C90.4207 93.4584 87.7406 89.6703 83.7328 88.2557Z" fill="#B4E6A0"/>
<path d="M41.9704 71.7712C45.0551 73.1352 48.4446 73.909 51.9946 73.909C55.5445 73.909 58.9341 73.1354 62.0187 71.7712V67.2261H41.9702L41.9704 71.7712Z" fill="#A06E50"/>
<path d="M51.9941 70.5678C39.9988 70.5678 30.2749 60.8439 30.2749 48.8486V20.4468H73.7133V48.8488C73.7133 60.8439 63.9892 70.5678 51.9941 70.5678Z" fill="#CD916E"/>
<path d="M30.2749 20.4468V48.8488C30.2749 60.8439 39.999 70.568 51.9941 70.568C53.1335 70.568 54.2434 70.4537 55.3355 70.285C44.931 68.6737 36.9577 59.7048 36.9577 48.8488V40.1603C36.9577 38.7866 37.3837 37.4594 38.1113 36.2941L38.1228 36.2757C40.8659 31.8736 43.4339 31.2264 46.4069 30.4774C48.1144 30.0471 50.1037 29.5458 51.9939 28.2862C53.8843 29.5458 55.8737 30.0471 57.581 30.4774C60.5541 31.2266 63.1219 31.8736 65.865 36.2755C68.417 40.3703 71.2726 42.6337 73.7129 44.3823V20.4468H30.2749Z" fill="#B67F5F"/>
<path d="M51.9945 60.5434C49.4868 60.5434 47.1748 59.739 45.8092 58.3914C45.1517 57.742 45.1452 56.6849 45.7928 56.029C46.4438 55.3715 47.5011 55.365 48.1552 56.0126C48.7115 56.5609 50.0494 57.202 51.9943 57.202C53.9391 57.202 55.277 56.5609 55.8333 56.0126C56.4876 55.3648 57.5449 55.3715 58.1957 56.029C58.8435 56.6849 58.8369 57.7422 58.1794 58.3914C56.8141 59.739 54.5021 60.5434 51.9945 60.5434Z" fill="#A06E50"/>
<path d="M41.9703 48.8486C41.7509 48.8487 41.5335 48.8056 41.3308 48.7217C41.128 48.6378 40.9438 48.5147 40.7886 48.3595C40.6335 48.2044 40.5104 48.0202 40.4265 47.8174C40.3426 47.6146 40.2995 47.3973 40.2996 47.1779V45.5072C40.2996 44.5836 41.0469 43.8365 41.9703 43.8365C42.8936 43.8365 43.641 44.5838 43.641 45.5072V47.1779C43.6411 47.3973 43.598 47.6146 43.514 47.8174C43.4301 48.0201 43.307 48.2043 43.1519 48.3595C42.9967 48.5146 42.8125 48.6377 42.6098 48.7216C42.407 48.8055 42.1897 48.8487 41.9703 48.8486ZM62.0186 48.8486C61.7992 48.8487 61.5819 48.8056 61.3791 48.7217C61.1764 48.6378 60.9921 48.5147 60.837 48.3595C60.6818 48.2044 60.5587 48.0202 60.4748 47.8174C60.3909 47.6146 60.3478 47.3973 60.3479 47.1779V45.5072C60.3478 45.2878 60.3909 45.0704 60.4748 44.8677C60.5587 44.6649 60.6818 44.4807 60.837 44.3255C60.9921 44.1704 61.1764 44.0473 61.3791 43.9634C61.5819 43.8795 61.7992 43.8364 62.0186 43.8365C62.2381 43.8364 62.4554 43.8795 62.6581 43.9634C62.8609 44.0473 63.0451 44.1704 63.2003 44.3255C63.3554 44.4807 63.4785 44.6649 63.5624 44.8677C63.6463 45.0704 63.6894 45.2878 63.6893 45.5072V47.1779C63.6894 47.3973 63.6463 47.6146 63.5624 47.8174C63.4785 48.0202 63.3554 48.2044 63.2003 48.3595C63.0451 48.5147 62.8609 48.6378 62.6581 48.7217C62.4554 48.8056 62.2381 48.8487 62.0186 48.8486ZM43.641 42.1656H40.2996C39.376 42.1656 38.6289 41.4183 38.6289 40.4949C38.6289 39.5716 39.3762 38.8242 40.2996 38.8242H43.641C44.5645 38.8242 45.3117 39.5716 45.3117 40.4949C45.3117 41.4183 44.5643 42.1656 43.641 42.1656ZM63.6893 42.1656H60.3479C59.4244 42.1656 58.6772 41.4183 58.6772 40.4949C58.6772 39.5716 59.4246 38.8242 60.3479 38.8242H63.6893C64.6129 38.8242 65.36 39.5716 65.36 40.4949C65.36 41.4183 64.6129 42.1656 63.6893 42.1656Z" fill="#5A4650"/>
<path d="M25.8014 97.3565L17.2736 89.9517C16.3998 90.6638 15.6656 91.5171 15.0791 92.4696L23.6118 99.8789C24.1536 100.35 24.5881 100.931 24.8859 101.584C25.1837 102.237 25.3379 102.946 25.3379 103.664V110.665H28.6793V103.664C28.6796 102.468 28.4228 101.286 27.9263 100.197C27.4297 99.109 26.7051 98.1402 25.8014 97.3565ZM78.2624 97.3565L86.7903 89.9517C87.664 90.6638 88.3982 91.5171 88.9847 92.4696L80.452 99.8789C79.9102 100.35 79.4757 100.931 79.1779 101.584C78.8801 102.237 78.726 102.946 78.7259 103.664V110.665H75.3845V103.664C75.3842 102.468 75.6411 101.286 76.1376 100.197C76.6341 99.109 77.3588 98.1402 78.2624 97.3565Z" fill="#9BDC9B"/>
<path d="M90.6293 59.3601C89.0175 53.6835 90.6574 49.8072 88.7498 43.5233C86.9747 37.6759 83.7499 36.688 82.7632 28.3825C81.0923 14.3206 65.9167 7.08105 58.3985 7.08105C56.2726 7.08105 54.821 7.62062 53.8451 8.266C53.2967 8.63079 52.6528 8.82573 51.9941 8.8264V23.7882C56.3101 29.218 62.7145 24.9019 68.7013 34.5085C73.7898 42.6738 80.1795 42.4675 82.4271 48.905C83.0713 50.7501 82.7219 52.7215 82.8761 54.6697C83.7375 65.5557 92.091 70.568 95.8461 81.9283C95.488 80.3059 95.2616 78.461 95.2934 76.2761C95.4326 66.6695 92.2304 64.9988 90.6293 59.3601Z" fill="#6E5A64"/>
<path d="M13.3594 59.3601C14.9712 53.6835 13.3313 49.8072 15.2389 43.5233C17.014 37.6759 20.2388 36.688 21.2255 28.3825C22.8964 14.3206 38.072 7.08105 45.5901 7.08105C47.716 7.08105 49.1676 7.62062 50.1436 8.266C50.692 8.63079 51.3359 8.82573 51.9945 8.8264V23.7882C47.6786 29.218 41.2742 24.9019 35.2874 34.5085C30.1988 42.6738 23.8092 42.4675 21.5615 48.905C20.9174 50.7501 21.2668 52.7215 21.1126 54.6697C20.2512 65.5557 11.8977 70.568 8.14258 81.9283C8.50067 80.3059 8.72706 78.461 8.6953 76.2761C8.5561 66.6695 11.7583 64.9988 13.3594 59.3601Z" fill="#64505A"/>
</g>
</svg>
