<svg width="105" height="105" viewBox="0 0 105 105" fill="none" xmlns="http://www.w3.org/2000/svg">
<circle cx="52.5" cy="52.5" r="52.5" fill="#ECF8FF"/>
<mask id="mask0_118_16570" style="mask-type:alpha" maskUnits="userSpaceOnUse" x="0" y="0" width="105" height="105">
<circle cx="52.5" cy="52.5" r="52.5" fill="#D9D9D9"/>
</mask>
<g mask="url(#mask0_118_16570)">
<path d="M95.2936 76.2759C95.4328 66.6693 92.2306 64.9986 90.6295 59.36C89.0177 53.6833 90.6576 49.807 88.75 43.5232C86.9749 37.6758 83.7501 36.6879 82.7634 28.3824C81.0925 14.3205 65.9169 7.08093 58.3987 7.08093C56.2729 7.08093 54.8213 7.6205 53.8453 8.26587C52.7158 9.01322 51.2727 9.01322 50.1434 8.26587C49.1674 7.6205 47.7159 7.08093 45.59 7.08093C38.0718 7.08093 22.8962 14.3205 21.2255 28.3824C20.2386 36.6877 17.014 37.6756 15.2389 43.5232C13.3313 49.807 14.9712 53.6833 13.3594 59.36C11.7583 64.9986 8.55612 66.6693 8.69531 76.2759C8.85675 87.4165 2.43011 89.9201 4.93615 97.299C6.80652 102.806 16.9096 107.323 16.9096 107.323H87.0793C87.0793 107.323 97.1824 102.806 99.0528 97.299C101.559 89.9201 95.132 87.4165 95.2936 76.2759Z" fill="#64505A"/>
<path d="M51.9944 8.82628C51.3357 8.82561 50.6918 8.63067 50.1434 8.26587C49.1674 7.6205 47.7159 7.08093 45.59 7.08093C38.0718 7.08093 22.8962 14.3205 21.2255 28.3824C20.2386 36.6877 17.014 37.6756 15.2389 43.5232C13.3313 49.807 14.9712 53.6833 13.3594 59.36C11.7583 64.9986 8.55612 66.6693 8.69531 76.2759C8.85675 87.4165 2.43011 89.9201 4.93615 97.299C6.80652 102.806 16.9096 107.323 16.9096 107.323H51.9944V8.82628Z" fill="#5A4650"/>
<path d="M83.733 88.2557L66.4776 82.1655C65.1738 81.7054 64.0449 80.8522 63.2463 79.7235C62.4477 78.5949 62.0189 77.2463 62.0189 75.8637V67.2262H41.9704V75.8637C41.9703 77.2463 41.5415 78.5949 40.7429 79.7235C39.9444 80.8522 38.8154 81.7054 37.5116 82.1655L20.2562 88.2557C16.2484 89.6703 13.5684 93.4584 13.5684 97.7084V105.653C13.5684 108.421 15.8124 110.665 18.5804 110.665H85.4088C88.1768 110.665 90.4209 108.421 90.4209 105.653V97.7084C90.4209 93.4584 87.7408 89.6703 83.733 88.2557Z" fill="#B67F5F"/>
<path d="M83.7328 88.2557L72.2193 84.1919C67.6881 90.4549 61.5212 97.3616 54.3428 101.189C53.6197 101.573 52.8134 101.774 51.9945 101.774C51.1756 101.774 50.3693 101.573 49.6463 101.189C42.4678 97.3618 36.301 90.4549 31.7698 84.1919L20.2562 88.2557C16.2484 89.6703 13.5684 93.4584 13.5684 97.7086V105.653C13.5684 108.421 15.8124 110.665 18.5804 110.665H85.4088C88.1768 110.665 90.4209 108.421 90.4209 105.653V97.7086C90.4207 93.4584 87.7406 89.6703 83.7328 88.2557Z" fill="#B4E6A0"/>
<path d="M41.9699 71.7713C45.0546 73.1353 48.4441 73.9092 51.9941 73.9092C55.5441 73.9092 58.9336 73.1355 62.0183 71.7713V67.2262H41.9697L41.9699 71.7713Z" fill="#A06E50"/>
<path d="M51.9946 70.5676C39.9993 70.5676 30.2754 60.8436 30.2754 48.8484V20.4466H73.7138V48.8486C73.7138 60.8436 63.9897 70.5676 51.9946 70.5676Z" fill="#CD916E"/>
<path d="M30.2754 20.4466V48.8486C30.2754 60.8436 39.9995 70.5678 51.9946 70.5678C53.134 70.5678 54.2439 70.4535 55.336 70.2847C44.9315 68.6735 36.9582 59.7046 36.9582 48.8486V40.1601C36.9582 38.7864 37.3842 37.4592 38.1117 36.2939L38.1233 36.2755C40.8664 31.8734 43.4344 31.2262 46.4074 30.4772C48.1149 30.0469 50.1042 29.5456 51.9944 28.286C53.8848 29.5456 55.8741 30.0469 57.5815 30.4772C60.5546 31.2264 63.1224 31.8734 65.8655 36.2753C68.4175 40.3701 71.2731 42.6335 73.7134 44.3821V20.4466H30.2754Z" fill="#B67F5F"/>
<path d="M51.9945 60.5434C49.4868 60.5434 47.1748 59.739 45.8092 58.3914C45.1517 57.742 45.1452 56.6849 45.7928 56.029C46.4438 55.3715 47.5011 55.365 48.1552 56.0127C48.7115 56.5609 50.0494 57.202 51.9943 57.202C53.9391 57.202 55.277 56.5609 55.8333 56.0127C56.4876 55.3648 57.5449 55.3715 58.1957 56.029C58.8435 56.6849 58.8369 57.7422 58.1793 58.3914C56.8141 59.739 54.5021 60.5434 51.9945 60.5434Z" fill="#A06E50"/>
<path d="M41.9703 48.8485C41.7509 48.8487 41.5335 48.8055 41.3308 48.7216C41.128 48.6377 40.9438 48.5146 40.7886 48.3595C40.6335 48.2043 40.5104 48.0201 40.4265 47.8173C40.3426 47.6146 40.2995 47.3973 40.2996 47.1778V45.5071C40.2996 44.5836 41.0469 43.8364 41.9703 43.8364C42.8936 43.8364 43.641 44.5838 43.641 45.5071V47.1778C43.6411 47.3973 43.598 47.6146 43.514 47.8173C43.4301 48.02 43.307 48.2043 43.1519 48.3594C42.9967 48.5146 42.8125 48.6376 42.6098 48.7216C42.407 48.8055 42.1897 48.8486 41.9703 48.8485ZM62.0186 48.8485C61.7992 48.8487 61.5819 48.8055 61.3791 48.7216C61.1764 48.6377 60.9921 48.5146 60.837 48.3595C60.6818 48.2043 60.5587 48.0201 60.4748 47.8173C60.3909 47.6146 60.3478 47.3973 60.3479 47.1778V45.5071C60.3478 45.2877 60.3909 45.0704 60.4748 44.8676C60.5587 44.6649 60.6818 44.4806 60.837 44.3255C60.9921 44.1703 61.1764 44.0473 61.3791 43.9633C61.5819 43.8794 61.7992 43.8363 62.0186 43.8364C62.2381 43.8363 62.4554 43.8794 62.6581 43.9633C62.8609 44.0473 63.0451 44.1703 63.2003 44.3255C63.3554 44.4806 63.4785 44.6649 63.5624 44.8676C63.6463 45.0704 63.6894 45.2877 63.6893 45.5071V47.1778C63.6894 47.3973 63.6463 47.6146 63.5624 47.8173C63.4785 48.0201 63.3554 48.2043 63.2003 48.3595C63.0451 48.5146 62.8609 48.6377 62.6581 48.7216C62.4554 48.8055 62.2381 48.8487 62.0186 48.8485ZM43.641 42.1655H40.2996C39.376 42.1655 38.6289 41.4182 38.6289 40.4949C38.6289 39.5715 39.3762 38.8242 40.2996 38.8242H43.641C44.5645 38.8242 45.3117 39.5715 45.3117 40.4949C45.3117 41.4182 44.5643 42.1655 43.641 42.1655ZM63.6893 42.1655H60.3479C59.4244 42.1655 58.6772 41.4182 58.6772 40.4949C58.6772 39.5715 59.4246 38.8242 60.3479 38.8242H63.6893C64.6129 38.8242 65.36 39.5715 65.36 40.4949C65.36 41.4182 64.6129 42.1655 63.6893 42.1655Z" fill="#5A4650"/>
<path d="M25.8014 97.3562L17.2736 89.9514C16.3998 90.6635 15.6656 91.5168 15.0791 92.4693L23.6118 99.8786C24.1536 100.349 24.5881 100.931 24.8859 101.584C25.1837 102.237 25.3379 102.946 25.3379 103.664V110.665H28.6793V103.664C28.6796 102.467 28.4228 101.285 27.9263 100.197C27.4297 99.1087 26.7051 98.1399 25.8014 97.3562ZM78.2624 97.3562L86.7903 89.9514C87.664 90.6635 88.3982 91.5168 88.9847 92.4693L80.452 99.8786C79.9102 100.349 79.4757 100.931 79.1779 101.584C78.8801 102.237 78.726 102.946 78.7259 103.664V110.665H75.3845V103.664C75.3842 102.467 75.6411 101.285 76.1376 100.197C76.6341 99.1087 77.3588 98.1399 78.2624 97.3562Z" fill="#9BDC9B"/>
<path d="M90.6293 59.3599C89.0175 53.6832 90.6574 49.8069 88.7498 43.5231C86.9747 37.6757 83.7499 36.6878 82.7632 28.3823C81.0923 14.3203 65.9167 7.08081 58.3985 7.08081C56.2726 7.08081 54.821 7.62038 53.8451 8.26575C53.2967 8.63055 52.6528 8.82548 51.9941 8.82616V23.788C56.3101 29.2178 62.7145 24.9017 68.7013 34.5083C73.7898 42.6736 80.1795 42.4672 82.4271 48.9048C83.0713 50.7499 82.7219 52.7212 82.8761 54.6695C83.7375 65.5555 92.091 70.5678 95.8461 81.928C95.488 80.3057 95.2616 78.4608 95.2934 76.2758C95.4326 66.6692 92.2304 64.9985 90.6293 59.3599Z" fill="#6E5A64"/>
<path d="M13.3594 59.3599C14.9712 53.6832 13.3313 49.8069 15.2389 43.5231C17.014 37.6757 20.2388 36.6878 21.2255 28.3823C22.8964 14.3203 38.072 7.08081 45.5901 7.08081C47.716 7.08081 49.1676 7.62038 50.1436 8.26575C50.692 8.63055 51.3359 8.82548 51.9945 8.82616V23.788C47.6786 29.2178 41.2742 24.9017 35.2874 34.5083C30.1988 42.6736 23.8092 42.4672 21.5615 48.9048C20.9174 50.7499 21.2668 52.7212 21.1126 54.6695C20.2512 65.5555 11.8977 70.5678 8.14258 81.928C8.50067 80.3057 8.72706 78.4608 8.6953 76.2758C8.5561 66.6692 11.7583 64.9985 13.3594 59.3599Z" fill="#64505A"/>
</g>
</svg>
