<svg width="124" height="73" viewBox="0 0 124 73" fill="none" xmlns="http://www.w3.org/2000/svg">
<path fill-rule="evenodd" clip-rule="evenodd" d="M0.00594267 16.031C0.309426 6.74603 11.7105 -0.43094 25.4821 0.0201841C39.2455 0.463106 50.1709 8.39468 49.8674 17.6796C49.5639 26.9646 38.1628 34.1415 24.3994 33.6904C20.061 33.5814 15.7828 32.649 11.7926 30.9427C9.95527 34.1497 6.68257 34.6091 4.41055 34.4778C4.30507 34.4909 4.19856 34.4634 4.11266 34.4008C4.02677 34.3382 3.96792 34.2452 3.94808 34.1408C3.92824 34.0364 3.9489 33.9283 4.00585 33.8386C4.0628 33.7488 4.15177 33.6841 4.2547 33.6576C7.03526 32.4601 6.90403 28.8593 6.84662 28.1047C2.46661 24.9222 -0.141698 20.6488 0.00594267 16.031ZM5.82361 20.7623C6.43605 20.9231 7.07145 21.0034 7.72982 21.0034C8.52598 21.0034 9.18435 20.8848 9.70492 20.6475C10.2331 20.4101 10.6274 20.0963 10.8877 19.7058C11.1556 19.3078 11.2896 18.8752 11.2896 18.4083C11.2896 17.9872 11.2054 17.6389 11.037 17.3633C10.8762 17.08 10.6618 16.8542 10.3939 16.6858C10.126 16.5097 9.8274 16.3719 9.49822 16.2724C9.17669 16.1652 8.85134 16.0772 8.52215 16.0083C8.20062 15.9394 7.90206 15.8743 7.62647 15.8131C7.35853 15.7442 7.14035 15.66 6.97193 15.5604C6.81116 15.4533 6.73078 15.3116 6.73078 15.1356C6.73078 14.9978 6.77289 14.8753 6.8571 14.7681C6.94131 14.6609 7.0791 14.5767 7.27049 14.5155C7.46187 14.4466 7.7145 14.4121 8.02838 14.4121C8.38053 14.4121 8.74416 14.4657 9.11928 14.5729C9.49439 14.6724 9.87334 14.8255 10.2561 15.0322L10.9566 13.3442C10.5585 13.1145 10.103 12.9423 9.59009 12.8274C9.08483 12.705 8.56808 12.6437 8.03986 12.6437C7.25135 12.6437 6.59298 12.7624 6.06476 12.9997C5.53653 13.237 5.13845 13.5509 4.87051 13.9413C4.61023 14.3317 4.48008 14.7681 4.48008 15.2504C4.48008 15.6791 4.56429 16.0351 4.73271 16.3183C4.90113 16.5939 5.11931 16.8197 5.38725 16.9958C5.65519 17.1642 5.94993 17.302 6.27145 17.4092C6.60064 17.5164 6.92599 17.6044 7.24752 17.6733C7.57671 17.7422 7.87527 17.8111 8.14321 17.88C8.41115 17.9489 8.62933 18.037 8.79775 18.1441C8.96617 18.2513 9.05038 18.3968 9.05038 18.5805C9.05038 18.7106 9.00445 18.8255 8.91258 18.925C8.82837 19.0169 8.69057 19.0934 8.49919 19.1547C8.3078 19.2082 8.05517 19.235 7.7413 19.235C7.27432 19.235 6.80351 19.1623 6.32887 19.0169C5.86189 18.8638 5.4485 18.6724 5.08869 18.4427L4.34229 20.1192C4.72506 20.3795 5.21883 20.5939 5.82361 20.7623ZM12.3399 12.8045V20.8427H14.6135V18.7413H16.0145C16.7494 18.7413 17.381 18.6226 17.9092 18.3853C18.4451 18.1403 18.8585 17.7958 19.1494 17.3518C19.4403 16.9078 19.5857 16.3834 19.5857 15.7786C19.5857 15.1662 19.4403 14.6379 19.1494 14.1939C18.8585 13.7423 18.4451 13.3978 17.9092 13.1605C17.381 12.9231 16.7494 12.8045 16.0145 12.8045H12.3399ZM14.6135 16.9499H15.8767C16.3513 16.9499 16.7034 16.8465 16.9331 16.6398C17.1704 16.4331 17.2891 16.1461 17.2891 15.7786C17.2891 15.4035 17.1704 15.1126 16.9331 14.9059C16.7034 14.6992 16.3513 14.5958 15.8767 14.5958H14.6135V16.9499ZM22.945 17.6159V19.0858H27.1478V20.8427H20.6943V12.8045H26.9985V14.5614H22.945V15.9164H26.5162V17.6159H22.945ZM30.9932 12.8045L27.4449 20.8427H29.7645L30.3913 19.281H33.7999L34.4267 20.8427H36.7922L33.2325 12.8045H30.9932ZM33.1271 17.6044L32.0956 15.0342L31.0641 17.6044H33.1271ZM39.6875 18.829V20.8427H37.4368V12.8045H39.6875V16.1439L42.7994 12.8045H45.3028L42.021 16.3598L45.475 20.8427H42.8339L40.5317 17.9245L39.6875 18.829Z" fill="#FCA13D"/>
<path fill-rule="evenodd" clip-rule="evenodd" d="M74.1371 50.4123C72.4903 54.3911 69.4261 57.6288 65.5289 59.5079L62.9045 73L60.872 61.0029C59.8637 61.1777 58.8422 61.2659 57.8187 61.2667C53.4863 61.265 49.3062 59.6798 46.0756 56.8136C42.845 53.9474 40.7901 50.0007 40.3028 45.7264C39.8156 41.452 40.93 37.1491 43.4336 33.6385C45.9372 30.1278 49.6547 27.655 53.8771 26.6918C58.0995 25.7286 62.5312 26.3424 66.3269 28.4161C70.1227 30.4898 73.0168 33.8783 74.4573 37.9352C75.8977 41.9921 75.7838 46.4335 74.1371 50.4123ZM45.8932 45.7583V49.0899H48.4917V45.7991L52.0088 39.9034H49.4891L47.3058 43.5487L45.1321 39.9034H42.3892L45.8932 45.7583ZM55.2035 45.4022V47.082H60.0067V49.0899H52.6313V39.9034H59.8361V41.9113H55.2035V43.4599H59.2849V45.4022H55.2035ZM62.4986 48.9981C63.1985 49.1818 63.9247 49.2736 64.6771 49.2736C65.587 49.2736 66.3394 49.138 66.9344 48.8668C67.538 48.5956 67.9886 48.2369 68.2861 47.7907C68.5923 47.3357 68.7454 46.8414 68.7454 46.3077C68.7454 45.8265 68.6492 45.4284 68.4567 45.1135C68.273 44.7898 68.028 44.5317 67.7218 44.3392C67.4156 44.1379 67.0743 43.9805 66.6981 43.8667C66.3307 43.7442 65.9588 43.6436 65.5826 43.5649C65.2152 43.4861 64.874 43.4118 64.559 43.3418C64.2528 43.263 64.0034 43.1668 63.8109 43.0531C63.6272 42.9306 63.5354 42.7687 63.5354 42.5675C63.5354 42.41 63.5835 42.27 63.6797 42.1475C63.7759 42.025 63.9334 41.9288 64.1522 41.8588C64.3709 41.7801 64.6596 41.7407 65.0183 41.7407C65.4208 41.7407 65.8364 41.8019 66.2651 41.9244C66.6938 42.0382 67.1268 42.2132 67.5643 42.4494L68.3648 40.5202C67.9099 40.2577 67.3893 40.0609 66.8031 39.9296C66.2257 39.7897 65.6351 39.7197 65.0314 39.7197C64.1303 39.7197 63.3779 39.8553 62.7742 40.1265C62.1705 40.3977 61.7155 40.7564 61.4093 41.2026C61.1119 41.6488 60.9631 42.1475 60.9631 42.6987C60.9631 43.1887 61.0594 43.5955 61.2518 43.9192C61.4443 44.2342 61.6937 44.4923 61.9999 44.6935C62.3061 44.886 62.6429 45.0435 63.0104 45.166C63.3866 45.2884 63.7585 45.3891 64.1259 45.4678C64.5021 45.5465 64.8433 45.6253 65.1496 45.704C65.4558 45.7828 65.7051 45.8834 65.8976 46.0059C66.0901 46.1284 66.1863 46.2946 66.1863 46.5046C66.1863 46.6533 66.1338 46.7845 66.0288 46.8983C65.9326 47.0033 65.7751 47.0908 65.5564 47.1607C65.3377 47.222 65.0489 47.2526 64.6902 47.2526C64.1565 47.2526 63.6185 47.1695 63.076 47.0033C62.5423 46.8283 62.0699 46.6096 61.6587 46.3471L60.8056 48.2631C61.2431 48.5606 61.8074 48.8056 62.4986 48.9981ZM69.5258 39.9034L70.0113 45.7434H71.993L72.4917 39.9034H69.5258ZM69.9326 48.8012C70.2126 49.0724 70.5713 49.208 71.0087 49.208C71.4462 49.208 71.8005 49.0724 72.0717 48.8012C72.3517 48.53 72.4917 48.2063 72.4917 47.8301C72.4917 47.4451 72.3517 47.1258 72.0717 46.872C71.8005 46.6096 71.4462 46.4783 71.0087 46.4783C70.5713 46.4783 70.2126 46.6096 69.9326 46.872C69.6526 47.1258 69.5126 47.4451 69.5126 47.8301C69.5126 48.2063 69.6526 48.53 69.9326 48.8012Z" fill="#6AC8BF"/>
<path fill-rule="evenodd" clip-rule="evenodd" d="M80.2646 42.646C82.3286 47.9103 86.3372 52.2045 91.4808 54.6615L86.4876 63.9776L97.3869 56.5456C103.013 57.5244 108.806 56.3568 113.595 53.2788C118.385 50.2007 121.813 45.4414 123.189 39.962C124.566 34.4827 123.786 28.6914 121.009 23.7578C118.232 18.8241 113.664 15.1157 108.227 13.3813C102.79 11.647 96.8898 12.0159 91.7176 14.4136C86.5454 16.8113 82.4866 21.0592 80.3608 26.2994C78.2351 31.5396 78.2007 37.3818 80.2646 42.646ZM83.6464 30.8495V38.8877H87.4473C88.3353 38.8877 89.1162 38.7231 89.7899 38.394C90.4636 38.0648 90.988 37.6016 91.3631 37.0045C91.7458 36.3997 91.9372 35.6878 91.9372 34.8686C91.9372 34.0418 91.7458 33.3299 91.3631 32.7328C90.988 32.1356 90.4636 31.6725 89.7899 31.3433C89.1162 31.0141 88.3353 30.8495 87.4473 30.8495H83.6464ZM87.3555 37.0734H85.9201V32.6639H87.3555C87.8148 32.6639 88.2129 32.7519 88.5497 32.928C88.8942 33.0964 89.1621 33.3452 89.3535 33.6744C89.5449 34.0036 89.6406 34.4016 89.6406 34.8686C89.6406 35.328 89.5449 35.726 89.3535 36.0629C89.1621 36.3921 88.8942 36.6447 88.5497 36.8208C88.2129 36.9892 87.8148 37.0734 87.3555 37.0734ZM95.4071 38.7385C95.9506 38.9451 96.5439 39.0485 97.187 39.0485C97.8377 39.0485 98.431 38.9451 98.9669 38.7385C99.5104 38.5318 99.9812 38.2408 100.379 37.8657C100.777 37.4906 101.087 37.0504 101.309 36.5452C101.539 36.0323 101.654 35.4734 101.654 34.8686C101.654 34.2638 101.539 33.7088 101.309 33.2036C101.087 32.6983 100.777 32.2581 100.379 31.883C99.9812 31.5002 99.5104 31.2055 98.9669 30.9988C98.431 30.7921 97.8377 30.6888 97.187 30.6888C96.5439 30.6888 95.9506 30.7921 95.4071 30.9988C94.8636 31.2055 94.3889 31.5002 93.9832 31.883C93.5851 32.2581 93.2751 32.6983 93.0531 33.2036C92.8311 33.7088 92.7201 34.2638 92.7201 34.8686C92.7201 35.4734 92.8311 36.0284 93.0531 36.5337C93.2751 37.0389 93.5851 37.483 93.9832 37.8657C94.3889 38.2408 94.8636 38.5318 95.4071 38.7385ZM98.0368 37.0045C97.7765 37.1117 97.4932 37.1653 97.187 37.1653C96.8808 37.1653 96.5937 37.1117 96.3258 37.0045C96.0655 36.8973 95.8358 36.7442 95.6368 36.5452C95.4454 36.3385 95.2923 36.0935 95.1775 35.8102C95.0703 35.527 95.0167 35.2131 95.0167 34.8686C95.0167 34.5165 95.0703 34.2026 95.1775 33.927C95.2923 33.6438 95.4454 33.4026 95.6368 33.2036C95.8358 32.9969 96.0655 32.8399 96.3258 32.7328C96.5937 32.6256 96.8808 32.572 97.187 32.572C97.4932 32.572 97.7765 32.6256 98.0368 32.7328C98.3047 32.8399 98.5344 32.9969 98.7257 33.2036C98.9248 33.4026 99.0779 33.6438 99.1851 33.927C99.2999 34.2026 99.3573 34.5165 99.3573 34.8686C99.3573 35.2131 99.2999 35.527 99.1851 35.8102C99.0779 36.0935 98.9248 36.3385 98.7257 36.5452C98.5344 36.7442 98.3047 36.8973 98.0368 37.0045ZM104.717 30.8495H102.845V38.8877H105.073V34.604L108.621 38.8877H110.493V30.8495H108.265V35.1332L104.717 30.8495ZM114.347 35.661V37.1308H118.55V38.8877H112.096V30.8495H118.401V32.6064H114.347V33.9615H117.918V35.661H114.347Z" fill="#FF0000"/>
</svg>
