<svg width="50" height="50" viewBox="0 0 50 50" fill="none" xmlns="http://www.w3.org/2000/svg">
<g clip-path="url(#clip0_230_624)">
<path d="M49.9998 25.0026C49.9998 29.9476 48.5334 34.7816 45.7861 38.8932C43.0388 43.0049 39.1339 46.2095 34.5653 48.1019C29.9967 49.9943 24.9695 50.4894 20.1194 49.5247C15.2694 48.56 10.8144 46.1787 7.31772 42.6821C3.82105 39.1854 1.43979 34.7303 0.475057 29.8803C-0.489672 25.0303 0.00546289 20.0031 1.89785 15.4345C3.79023 10.8659 6.99487 6.96101 11.1065 4.2137C15.2182 1.46638 20.0522 0 24.9972 0C31.6283 0 37.9878 2.63419 42.6767 7.32308C47.3656 12.012 49.9998 18.3715 49.9998 25.0026Z" fill="#CBE2EF"/>
<path d="M37.1777 16.7591H27.8203V21.1375H37.1777V16.7591Z" fill="#FF7300"/>
<path d="M39.0357 24.8075C39.0676 24.9201 39.0767 25.0379 39.0627 25.154C39.0486 25.2702 39.0117 25.3824 38.9539 25.4841C38.8961 25.5858 38.8186 25.6751 38.7261 25.7466C38.6335 25.8181 38.5276 25.8706 38.4146 25.9008C38.302 25.932 38.1844 25.9406 38.0685 25.9263C37.9526 25.9119 37.8406 25.8748 37.7391 25.8171C37.6375 25.7594 37.5483 25.6823 37.4767 25.5901C37.405 25.4978 37.3522 25.3924 37.3213 25.2797L36.2947 21.5378C36.2332 21.3105 36.2639 21.0681 36.3802 20.8633C36.4965 20.6586 36.689 20.5081 36.9158 20.4445C37.1438 20.3832 37.3868 20.4146 37.5917 20.532C37.7966 20.6493 37.9466 20.843 38.0091 21.0707L39.0357 24.8075Z" fill="#EAD5B8"/>
<path d="M35.7817 19.3409V22.3129H38.764C38.7613 21.5237 38.4459 20.7678 37.8869 20.2108C37.3279 19.6537 36.5709 19.3409 35.7817 19.3409Z" fill="#E5E5E5"/>
<path d="M28 25.2438C27.9551 25.4725 27.8226 25.6745 27.6308 25.8069C27.4391 25.9392 27.2031 25.9913 26.9734 25.9522C26.7457 25.9061 26.5449 25.7731 26.4136 25.5815C26.2823 25.3898 26.2309 25.1545 26.2702 24.9256L27.0042 21.1169C27.0491 20.8886 27.1818 20.687 27.3738 20.5554C27.5658 20.4239 27.8017 20.373 28.0308 20.4137C28.2592 20.4586 28.4608 20.5913 28.5923 20.7832C28.7238 20.9752 28.7747 21.2112 28.734 21.4403L28 25.2438Z" fill="#EAD5B8"/>
<path d="M29.2215 19.3409V22.3129H26.2393C26.242 21.5237 26.5574 20.7678 27.1164 20.2108C27.6753 19.6537 28.4323 19.3409 29.2215 19.3409Z" fill="#E5E5E5"/>
<path d="M34.6011 19.3409C34.6011 19.9004 34.3788 20.437 33.9832 20.8327C33.5876 21.2283 33.051 21.4506 32.4915 21.4506C31.932 21.4506 31.3954 21.2283 30.9997 20.8327C30.6041 20.437 30.3818 19.9004 30.3818 19.3409H34.6011Z" fill="#4689B6"/>
<path d="M34.6011 19.3409C34.6011 19.9004 34.3788 20.437 33.9832 20.8327C33.5876 21.2283 33.051 21.4506 32.4915 21.4506C31.932 21.4506 31.3954 21.2283 30.9997 20.8327C30.6041 20.437 30.3818 19.9004 30.3818 19.3409H34.6011Z" fill="#D8BB93"/>
<path d="M36.8544 31.0389H28.1284L29.1909 19.3358H30.3715C30.3715 20.501 31.3108 21.1785 32.476 21.1785C33.6412 21.1785 34.5908 20.501 34.5908 19.3358H35.7714L36.8544 31.0389Z" fill="#6BB820"/>
<path d="M27.0916 25.9676C26.975 25.9629 26.8604 25.9354 26.7544 25.8864C26.6484 25.8375 26.5531 25.7681 26.474 25.6823C26.3949 25.5964 26.3334 25.4959 26.2932 25.3863C26.2529 25.2767 26.2347 25.1603 26.2395 25.0436C26.2441 24.927 26.2717 24.8124 26.3207 24.7064C26.3696 24.6004 26.439 24.5052 26.5248 24.426C26.6106 24.3469 26.7112 24.2854 26.8208 24.2452C26.9304 24.205 27.0468 24.1867 27.1635 24.1916L31.0388 24.3455C31.1555 24.3502 31.2701 24.3777 31.376 24.4267C31.482 24.4757 31.5773 24.545 31.6564 24.6308C31.7356 24.7167 31.797 24.8172 31.8372 24.9268C31.8775 25.0364 31.8957 25.1528 31.8909 25.2695C31.8863 25.3861 31.8587 25.5007 31.8097 25.6067C31.7608 25.7127 31.6914 25.8079 31.6056 25.8871C31.5198 25.9662 31.4192 26.0277 31.3096 26.0679C31.2001 26.1081 31.0836 26.1264 30.967 26.1215L27.0916 25.9676Z" fill="#EAD5B8"/>
<path d="M34.3852 26.1626C34.2686 26.1696 34.1517 26.1534 34.0413 26.1151C33.9309 26.0767 33.8291 26.017 33.7419 25.9393C33.6546 25.8615 33.5836 25.7674 33.5328 25.6621C33.482 25.5569 33.4525 25.4426 33.4459 25.3259C33.439 25.2093 33.4551 25.0924 33.4934 24.982C33.5318 24.8716 33.5915 24.7699 33.6692 24.6826C33.747 24.5953 33.8411 24.5243 33.9464 24.4735C34.0516 24.4227 34.1659 24.3932 34.2826 24.3866L38.1477 24.1556C38.2643 24.148 38.3814 24.1634 38.492 24.2011C38.6027 24.2388 38.7049 24.298 38.7926 24.3752C38.8804 24.4525 38.952 24.5463 39.0034 24.6513C39.0548 24.7563 39.085 24.8705 39.0921 24.9872C39.0991 25.1038 39.0829 25.2207 39.0446 25.3311C39.0063 25.4415 38.9465 25.5433 38.8688 25.6305C38.7911 25.7178 38.6969 25.7889 38.5916 25.8396C38.4864 25.8904 38.3721 25.9199 38.2555 25.9265L34.3852 26.1626Z" fill="#EAD5B8"/>
<path d="M34.0057 18.843H31.0029V19.5976H34.0057V18.843Z" fill="#D8BB93"/>
<path d="M36.1665 15.3218V15.3834C36.1626 15.6895 36.1159 15.9936 36.0279 16.2868C35.5146 18.1244 33.5949 19.4898 32.5067 19.4898C31.4185 19.4898 29.5039 18.1244 28.9804 16.2868C28.8948 15.9931 28.8483 15.6893 28.8418 15.3834V15.3218C28.8418 13.0223 30.4843 11.159 32.5067 11.159C34.5291 11.159 36.1665 13.0223 36.1665 15.3218Z" fill="#EFD2B2"/>
<path d="M37.1933 16.7591C37.1933 16.9387 37.1933 17.1132 37.1933 17.2724H35.6072C35.9773 16.6827 36.1779 16.0026 36.1872 15.3064C36.188 14.9082 36.138 14.5115 36.0384 14.1259H31.66L31.4546 13.2892L31.3007 14.1259H30.736L30.5153 12.7143L30.2381 14.1259H29.0114C28.9117 14.5115 28.8617 14.9082 28.8625 15.3064C28.8726 16.0017 29.0713 16.6812 29.4374 17.2724H27.8564C27.8564 17.0978 27.8564 16.9233 27.8564 16.7591C27.8564 13.3149 29.9507 10.5225 32.5428 10.5225C35.135 10.5225 37.1933 13.3149 37.1933 16.7591Z" fill="#FF7300"/>
<path d="M36.7156 15.8197C36.7156 15.9649 36.6725 16.1068 36.5919 16.2275C36.5112 16.3482 36.3966 16.4423 36.2625 16.4979C36.1283 16.5534 35.9807 16.568 35.8384 16.5396C35.696 16.5113 35.5652 16.4414 35.4625 16.3388C35.3599 16.2361 35.29 16.1053 35.2617 15.9629C35.2333 15.8205 35.2479 15.673 35.3034 15.5388C35.359 15.4047 35.4531 15.2901 35.5738 15.2094C35.6945 15.1288 35.8364 15.0857 35.9816 15.0857C36.1762 15.0857 36.3629 15.163 36.5006 15.3007C36.6383 15.4384 36.7156 15.6251 36.7156 15.8197Z" fill="#EFD2B2"/>
<path d="M29.7708 15.8197C29.7708 15.9649 29.7277 16.1068 29.647 16.2275C29.5664 16.3482 29.4518 16.4423 29.3176 16.4979C29.1835 16.5534 29.0359 16.568 28.8935 16.5396C28.7512 16.5113 28.6204 16.4414 28.5177 16.3388C28.4151 16.2361 28.3452 16.1053 28.3168 15.9629C28.2885 15.8205 28.3031 15.673 28.3586 15.5388C28.4142 15.4047 28.5082 15.2901 28.629 15.2094C28.7497 15.1288 28.8916 15.0857 29.0367 15.0857C29.2314 15.0857 29.4181 15.163 29.5558 15.3007C29.6934 15.4384 29.7708 15.6251 29.7708 15.8197Z" fill="#EFD2B2"/>
<g style="mix-blend-mode:multiply">
<path d="M36.141 14.7521H28.8779C28.9083 14.5452 28.9546 14.341 29.0165 14.1413H30.2176L30.4948 12.7297L30.6283 13.5818L30.7155 14.1413H31.2801L31.4341 13.3046L31.6395 14.1413H36.0179C36.0722 14.3419 36.1134 14.546 36.141 14.7521Z" fill="#EAD5B8"/>
</g>
<path d="M14.9419 18.7198V26.0856H12.2061V21.43C12.2115 20.7085 12.5023 20.0184 13.0149 19.5106C13.5275 19.0027 14.2203 18.7185 14.9419 18.7198Z" fill="#40A7AE"/>
<path d="M21.0754 18.7198C21.0475 19.3103 20.7933 19.8673 20.3656 20.2752C19.9379 20.6832 19.3695 20.9108 18.7784 20.9108C18.1873 20.9108 17.619 20.6832 17.1913 20.2752C16.7636 19.8673 16.5094 19.3103 16.4814 18.7198H21.0754Z" fill="#BFA481"/>
<path d="M19.9825 20.1057H17.7856V21.3479H19.9825V20.1057Z" fill="#CCCCCC"/>
<path d="M22.831 18.7198V28.9857H14.9365V18.7198H16.4764C16.4617 19.0306 16.5102 19.3412 16.619 19.6326C16.7278 19.9241 16.8947 20.1905 17.1094 20.4156C17.3242 20.6408 17.5823 20.82 17.8684 20.9424C18.1544 21.0649 18.4623 21.128 18.7734 21.128C19.0845 21.128 19.3924 21.0649 19.6784 20.9424C19.9645 20.82 20.2227 20.6408 20.4374 20.4156C20.6521 20.1905 20.819 19.9241 20.9278 19.6326C21.0366 19.3412 21.0851 19.0306 21.0704 18.7198H22.831Z" fill="#68BCBE"/>
<path d="M16.1482 16.0199C16.1492 16.1665 16.1066 16.3102 16.0258 16.4325C15.9449 16.5548 15.8296 16.6503 15.6943 16.7069C15.559 16.7635 15.41 16.7786 15.2661 16.7502C15.1223 16.7219 14.9901 16.6514 14.8864 16.5477C14.7827 16.444 14.7122 16.3118 14.6839 16.168C14.6555 16.0241 14.6706 15.8751 14.7272 15.7398C14.7838 15.6045 14.8793 15.4892 15.0016 15.4083C15.124 15.3275 15.2676 15.2849 15.4142 15.2859C15.6089 15.2859 15.7956 15.3632 15.9332 15.5009C16.0709 15.6385 16.1482 15.8252 16.1482 16.0199Z" fill="#EFD2B2"/>
<path d="M21.6196 16.0199C21.6196 16.1651 21.6627 16.307 21.7433 16.4277C21.824 16.5484 21.9386 16.6425 22.0728 16.6981C22.2069 16.7536 22.3545 16.7681 22.4968 16.7398C22.6392 16.7115 22.77 16.6416 22.8727 16.5389C22.9753 16.4363 23.0452 16.3055 23.0735 16.1631C23.1019 16.0207 23.0873 15.8731 23.0318 15.739C22.9762 15.6049 22.8822 15.4903 22.7614 15.4096C22.6407 15.329 22.4988 15.2859 22.3537 15.2859C22.159 15.2859 21.9723 15.3632 21.8346 15.5009C21.697 15.6385 21.6196 15.8252 21.6196 16.0199Z" fill="#EFD2B2"/>
<path d="M18.8838 20.1057L17.4465 21.8355L15.9683 18.7404L16.3635 18.2117L18.8838 20.1057Z" fill="#F2F2F2"/>
<path d="M18.8838 20.1057L20.321 21.8355L21.7993 18.7404L21.4041 18.2117L18.8838 20.1057Z" fill="#F2F2F2"/>
<path d="M22.5537 15.5272C22.5537 17.8267 20.9112 19.69 18.8837 19.69C16.8562 19.69 15.2188 17.8267 15.2188 15.5272C15.2188 13.2276 16.8613 11.3592 18.8837 11.3592C20.9061 11.3592 22.5537 13.2225 22.5537 15.5272Z" fill="#EFD2B2"/>
<path d="M22.826 14.7059C22.8304 14.9435 22.8098 15.1809 22.7644 15.4142C22.6991 15.3678 22.6261 15.3331 22.5489 15.3116C22.5489 15.2602 22.5489 15.214 22.5489 15.1678C22.5195 14.8392 22.4576 14.5142 22.3641 14.1977H21.1732L20.9012 12.7862L20.6805 14.1977H20.1158L19.9567 13.3559L19.7565 14.1977H15.4192C15.3249 14.5138 15.2646 14.839 15.2396 15.1678C15.2396 15.214 15.2396 15.2602 15.2396 15.3116C15.1603 15.332 15.0855 15.3668 15.0188 15.4142C14.9758 15.1807 14.9568 14.9433 14.9624 14.7059C14.9624 14.5211 14.9624 14.3158 14.988 14.1053C14.988 14.0745 14.988 14.0489 14.988 14.0232C14.9852 13.9736 14.9852 13.9239 14.988 13.8743C15.1426 13.0549 15.5501 12.3046 16.1532 11.7288C16.5935 11.3068 17.1184 10.9831 17.6931 10.7792C17.7712 10.7482 17.852 10.7241 17.9343 10.7073L18.037 10.6765C18.1191 10.6765 18.2013 10.6406 18.2834 10.6303H18.3655H18.4322H18.5092H18.694H19.0379H19.2227H19.2997H19.3716H19.4486L19.7001 10.6765L19.8027 10.7073L20.0389 10.7792C20.6136 10.9831 21.1385 11.3068 21.5787 11.7288C22.1836 12.3033 22.5914 13.0542 22.7439 13.8743C22.7467 13.9239 22.7467 13.9736 22.7439 14.0232C22.7467 14.0505 22.7467 14.078 22.7439 14.1053C22.7952 14.3158 22.826 14.5211 22.826 14.7059Z" fill="#87553B"/>
<path d="M25.562 21.4454V26.0651H22.8262V18.7198C23.1848 18.7192 23.54 18.7891 23.8716 18.9257C24.2031 19.0623 24.5045 19.2629 24.7586 19.516C25.0126 19.7691 25.2143 20.0698 25.3522 20.4008C25.4901 20.7319 25.5614 21.0868 25.562 21.4454Z" fill="#40A7AE"/>
<g style="mix-blend-mode:multiply">
<path d="M22.4923 14.788H15.2754C15.2754 14.6853 15.2959 14.5827 15.337 14.48C15.337 14.4287 15.337 14.3774 15.3729 14.326C15.3706 14.3021 15.3706 14.2781 15.3729 14.2542C15.37 14.232 15.37 14.2096 15.3729 14.1875H19.7051L19.9104 13.3457L20.0644 14.1875H20.629L20.8498 12.7759L21.1218 14.1875H22.3178C22.3589 14.3466 22.3999 14.5006 22.4307 14.6648C22.4769 14.7059 22.4872 14.7469 22.4923 14.788Z" fill="#EAD5B8"/>
</g>
<path opacity="0.24" d="M17.1748 23.4114L16.3228 24.9872L15.4707 23.4114L16.3228 21.8355L17.1748 23.4114Z" fill="white"/>
<path opacity="0.24" d="M18.8841 23.4114L18.032 24.9872L17.1748 23.4114L18.032 21.8355L18.8841 23.4114Z" fill="white"/>
<path opacity="0.24" d="M20.5879 23.4114L19.7359 24.9872L18.8838 23.4114L19.7359 21.8355L20.5879 23.4114Z" fill="white"/>
<path opacity="0.24" d="M22.2972 23.4114L21.44 24.9872L20.5879 23.4114L21.44 21.8355L22.2972 23.4114Z" fill="white"/>
<path opacity="0.24" d="M17.1748 26.563L16.3228 28.1388L15.4707 26.563L16.3228 24.9872L17.1748 26.563Z" fill="white"/>
<path opacity="0.24" d="M18.8841 26.563L18.032 28.1388L17.1748 26.563L18.032 24.9872L18.8841 26.563Z" fill="white"/>
<path opacity="0.24" d="M20.5879 26.563L19.7359 28.1388L18.8838 26.563L19.7359 24.9872L20.5879 26.563Z" fill="white"/>
<path opacity="0.24" d="M22.2972 26.563L21.44 28.1388L20.5879 26.563L21.44 24.9872L22.2972 26.563Z" fill="white"/>
<path d="M32.4966 21.1837C32.4527 21.3085 32.3904 21.4262 32.3119 21.5327C31.3931 22.8005 28.6572 21.7431 29.6633 19.2434C29.673 19.2135 29.685 19.1843 29.6992 19.1561H30.4332C30.4405 19.6789 30.6468 20.1791 31.0102 20.5549C31.3736 20.9307 31.8667 21.1537 32.3889 21.1785L32.4966 21.1837Z" fill="#E5E5E5"/>
<path d="M32.6814 21.5327C32.6028 21.4262 32.5405 21.3085 32.4966 21.1837H32.6044C33.1265 21.1589 33.6196 20.9358 33.983 20.56C34.3464 20.1842 34.5528 19.684 34.56 19.1613H35.2992L35.33 19.2485C36.336 21.7431 33.6053 22.8262 32.6814 21.5327Z" fill="#E5E5E5"/>
<path d="M32.4966 25.0026C32.4867 25.1433 32.506 25.2846 32.5531 25.4175C32.6003 25.5505 32.6743 25.6723 32.7707 25.7754C32.867 25.8785 32.9835 25.9606 33.113 26.0166C33.2425 26.0726 33.3821 26.1014 33.5232 26.101L34.4112 26.1421C34.5511 26.1483 34.6908 26.1265 34.8222 26.078C34.9535 26.0295 35.0739 25.9552 35.1762 25.8596C35.2785 25.764 35.3607 25.649 35.4179 25.5212C35.4752 25.3934 35.5064 25.2555 35.5096 25.1155C35.5188 24.9752 35.499 24.8345 35.4515 24.7021C35.404 24.5697 35.3299 24.4486 35.2336 24.346C35.1374 24.2435 35.0211 24.1619 34.892 24.1062C34.7629 24.0505 34.6237 24.0219 34.4831 24.0222L33.5745 24.0068C33.2971 23.9942 33.0259 24.0918 32.8201 24.2784C32.6144 24.4649 32.4907 24.7252 32.4761 25.0026H32.4966Z" fill="#EAD5B8"/>
<path d="M34.6318 25.1668C34.6757 25.2114 34.728 25.2467 34.7858 25.2709C34.8435 25.295 34.9054 25.3074 34.968 25.3074C35.0305 25.3074 35.0925 25.295 35.1502 25.2709C35.2079 25.2467 35.2602 25.2114 35.3042 25.1668C35.3487 25.1229 35.3841 25.0705 35.4082 25.0128C35.4324 24.9551 35.4448 24.8932 35.4448 24.8306C35.4448 24.7681 35.4324 24.7061 35.4082 24.6484C35.3841 24.5907 35.3487 24.5383 35.3042 24.4944L34.2776 23.5038C34.1873 23.4147 34.0656 23.3648 33.9388 23.3648C33.812 23.3648 33.6903 23.4147 33.6 23.5038C33.5553 23.5481 33.5199 23.6009 33.4957 23.659C33.4714 23.7172 33.459 23.7795 33.459 23.8425C33.459 23.9055 33.4714 23.9679 33.4957 24.026C33.5199 24.0841 33.5553 24.1369 33.6 24.1813L34.6318 25.1668Z" fill="#EAD5B8"/>
<path d="M18.7814 25.0026C18.7716 25.1407 18.7899 25.2795 18.8352 25.4104C18.8805 25.5413 18.9518 25.6617 19.0448 25.7643C19.1379 25.8669 19.2507 25.9497 19.3766 26.0075C19.5024 26.0654 19.6387 26.0972 19.7771 26.101L20.6652 26.1421C20.8059 26.152 20.9471 26.1327 21.0801 26.0856C21.2131 26.0384 21.3349 25.9644 21.438 25.868C21.541 25.7717 21.6232 25.6552 21.6792 25.5257C21.7352 25.3962 21.7639 25.2566 21.7636 25.1155C21.7726 24.9773 21.7536 24.8387 21.7077 24.7081C21.6618 24.5774 21.5899 24.4574 21.4964 24.3553C21.4029 24.2531 21.2897 24.171 21.1636 24.1137C21.0375 24.0565 20.9011 24.0253 20.7627 24.0222L19.8747 23.9811C19.7369 23.9721 19.5987 23.9909 19.4684 24.0365C19.3381 24.0821 19.2183 24.1536 19.1163 24.2465C19.0142 24.3395 18.9319 24.4521 18.8744 24.5776C18.8169 24.7031 18.7852 24.8389 18.7814 24.9769V25.0026Z" fill="#EAD5B8"/>
<path d="M20.9113 25.1668C20.9557 25.2115 21.0084 25.247 21.0666 25.2712C21.1247 25.2954 21.1871 25.3079 21.2501 25.3079C21.313 25.3079 21.3754 25.2954 21.4336 25.2712C21.4917 25.247 21.5445 25.2115 21.5888 25.1668C21.6334 25.1229 21.6688 25.0705 21.6929 25.0128C21.717 24.9551 21.7295 24.8932 21.7295 24.8306C21.7295 24.7681 21.717 24.7061 21.6929 24.6484C21.6688 24.5907 21.6334 24.5383 21.5888 24.4944L20.5622 23.5038C20.472 23.4147 20.3503 23.3648 20.2235 23.3648C20.0967 23.3648 19.975 23.4147 19.8847 23.5038C19.84 23.5481 19.8045 23.6009 19.7803 23.659C19.7561 23.7172 19.7437 23.7795 19.7437 23.8425C19.7437 23.9055 19.7561 23.9679 19.7803 24.026C19.8045 24.0841 19.84 24.1369 19.8847 24.1813L20.9113 25.1668Z" fill="#EAD5B8"/>
<path d="M32.9893 25.0026C32.9991 25.1412 32.9806 25.2803 32.935 25.4115C32.8894 25.5428 32.8177 25.6634 32.7241 25.7661C32.6305 25.8688 32.517 25.9515 32.3906 26.009C32.2641 26.0666 32.1273 26.0979 31.9884 26.101L31.1004 26.1421C30.9601 26.1512 30.8194 26.1314 30.687 26.0839C30.5547 26.0365 30.4335 25.9623 30.331 25.866C30.2284 25.7698 30.1468 25.6535 30.0911 25.5244C30.0354 25.3953 30.0068 25.2561 30.0071 25.1155C29.9981 24.9777 30.0169 24.8396 30.0625 24.7092C30.1081 24.5789 30.1796 24.4592 30.2725 24.3571C30.3655 24.255 30.4781 24.1728 30.6036 24.1152C30.7291 24.0577 30.8649 24.026 31.0029 24.0222L31.8909 23.9811C32.0291 23.9714 32.1678 23.9897 32.2987 24.035C32.4296 24.0802 32.55 24.1515 32.6526 24.2446C32.7553 24.3376 32.838 24.4505 32.8958 24.5763C32.9537 24.7022 32.9855 24.8384 32.9893 24.9769V25.0026Z" fill="#EAD5B8"/>
<path d="M30.8592 25.1668C30.8148 25.2115 30.762 25.247 30.7039 25.2712C30.6457 25.2954 30.5834 25.3079 30.5204 25.3079C30.4574 25.3079 30.3951 25.2954 30.3369 25.2712C30.2788 25.247 30.226 25.2115 30.1816 25.1668C30.1371 25.1229 30.1017 25.0705 30.0776 25.0128C30.0534 24.9551 30.041 24.8932 30.041 24.8306C30.041 24.7681 30.0534 24.7061 30.0776 24.6484C30.1017 24.5907 30.1371 24.5383 30.1816 24.4944L31.2082 23.5038C31.2985 23.4147 31.4202 23.3648 31.547 23.3648C31.6738 23.3648 31.7955 23.4147 31.8858 23.5038C31.9748 23.594 32.0247 23.7157 32.0247 23.8425C32.0247 23.9693 31.9748 24.091 31.8858 24.1813L30.8592 25.1668Z" fill="#EAD5B8"/>
<path d="M25.5362 23.6629H21.0757V26.1472H25.5362V23.6629Z" fill="#49ABB0"/>
<path d="M18.961 25.0026C18.9708 25.1412 18.9523 25.2803 18.9067 25.4116C18.8611 25.5428 18.7893 25.6634 18.6958 25.7661C18.6022 25.8688 18.4887 25.9515 18.3623 26.009C18.2358 26.0666 18.099 26.0979 17.9601 26.101L17.0721 26.1421C16.9318 26.1512 16.7911 26.1314 16.6587 26.084C16.5263 26.0365 16.4051 25.9623 16.3026 25.866C16.2001 25.7698 16.1185 25.6535 16.0628 25.5244C16.0071 25.3953 15.9785 25.2561 15.9788 25.1155C15.9697 24.9777 15.9886 24.8396 16.0342 24.7093C16.0798 24.5789 16.1512 24.4592 16.2442 24.3571C16.3371 24.255 16.4497 24.1728 16.5752 24.1152C16.7007 24.0577 16.8365 24.026 16.9746 24.0222L17.8677 23.9811C18.0054 23.9721 18.1436 23.9909 18.2739 24.0365C18.4042 24.0821 18.524 24.1536 18.6261 24.2465C18.7281 24.3395 18.8104 24.4521 18.868 24.5776C18.9255 24.7031 18.9572 24.8389 18.961 24.9769V25.0026Z" fill="#EAD5B8"/>
<path d="M16.8309 25.1668C16.7865 25.2115 16.7337 25.247 16.6756 25.2712C16.6174 25.2954 16.5551 25.3079 16.4921 25.3079C16.4291 25.3079 16.3668 25.2954 16.3086 25.2712C16.2505 25.247 16.1977 25.2115 16.1533 25.1668C16.1088 25.1229 16.0734 25.0705 16.0493 25.0128C16.0251 24.9551 16.0127 24.8932 16.0127 24.8306C16.0127 24.7681 16.0251 24.7061 16.0493 24.6484C16.0734 24.5907 16.1088 24.5383 16.1533 24.4944L17.1799 23.5038C17.2702 23.4147 17.3919 23.3648 17.5187 23.3648C17.6455 23.3648 17.7672 23.4147 17.8575 23.5038C17.9465 23.594 17.9964 23.7157 17.9964 23.8425C17.9964 23.9693 17.9465 24.091 17.8575 24.1813L16.8309 25.1668Z" fill="#EAD5B8"/>
<path d="M16.6666 23.6629H12.2061V26.1472H16.6666V23.6629Z" fill="#49ABB0"/>
<path d="M41.6176 26.0856H9.45459V27.5793H41.6176V26.0856Z" fill="#F9E398"/>
<path d="M31.4286 29.8583H29.2061V38.1378H31.4286V29.8583Z" fill="#F9A61F"/>
<path d="M35.7714 29.8583H33.5488V38.1378H35.7714V29.8583Z" fill="#F9A61F"/>
<path d="M31.9471 38.8307H28.7236C28.7236 38.4032 28.8935 37.9933 29.1957 37.691C29.498 37.3888 29.9079 37.219 30.3354 37.219C30.7628 37.219 31.1728 37.3888 31.4751 37.691C31.7773 37.9933 31.9471 38.4032 31.9471 38.8307Z" fill="#6DBBC6"/>
<path d="M31.942 38.8307H28.7236V39.5801H31.942V38.8307Z" fill="#E2E7E7"/>
<path d="M36.2691 38.8307H33.061C33.061 38.4032 33.2308 37.9933 33.5331 37.691C33.8354 37.3888 34.2453 37.219 34.6728 37.219C35.1002 37.219 35.5102 37.3888 35.8125 37.691C36.1147 37.9933 36.2845 38.4032 36.2845 38.8307H36.2691Z" fill="#6DBBC6"/>
<path d="M36.2691 38.8307H33.0508V39.5801H36.2691V38.8307Z" fill="#E2E7E7"/>
<g style="mix-blend-mode:multiply">
<path d="M31.4289 31.4239H29.2012V33.282H31.4289V31.4239Z" fill="#C4B9AB"/>
</g>
<g style="mix-blend-mode:multiply">
<path d="M35.7763 31.4239H33.5435V33.282H35.7763V31.4239Z" fill="#C4B9AB"/>
</g>
<path d="M15.373 38.1429V32.2297C15.373 31.7696 15.5558 31.3283 15.8812 31.003C16.2066 30.6776 16.6479 30.4948 17.108 30.4948C17.5681 30.4948 18.0094 30.6776 18.3348 31.003C18.6601 31.3283 18.8429 31.7696 18.8429 32.2297V38.1429H15.373Z" fill="#77404A"/>
<path d="M19.0841 38.1429V32.2298C19.0713 31.9943 19.1066 31.7587 19.1879 31.5374C19.2691 31.3161 19.3947 31.1136 19.5568 30.9425C19.7189 30.7713 19.9142 30.6349 20.1308 30.5417C20.3474 30.4485 20.5807 30.4005 20.8165 30.4005C21.0523 30.4005 21.2856 30.4485 21.5021 30.5417C21.7187 30.6349 21.9141 30.7713 22.0762 30.9425C22.2383 31.1136 22.3638 31.3161 22.4451 31.5374C22.5264 31.7587 22.5617 31.9943 22.5488 32.2298V38.1429H19.0841Z" fill="#77404A"/>
<path d="M22.4258 38.841H19.2023C19.1899 38.622 19.2223 38.4028 19.2976 38.1968C19.3729 37.9909 19.4894 37.8024 19.6401 37.643C19.7907 37.4836 19.9723 37.3566 20.1737 37.2699C20.3751 37.1831 20.5921 37.1383 20.8115 37.1383C21.0308 37.1383 21.2478 37.1831 21.4492 37.2699C21.6506 37.3566 21.8322 37.4836 21.9828 37.643C22.1335 37.8024 22.25 37.9909 22.3253 38.1968C22.4006 38.4028 22.433 38.622 22.4206 38.841H22.4258Z" fill="#38A598"/>
<path d="M22.4305 38.841H19.207V39.5904H22.4305V38.841Z" fill="#E8E8E8"/>
<path d="M18.7196 38.841H15.4961C15.4961 38.4135 15.6659 38.0036 15.9682 37.7013C16.2704 37.399 16.6804 37.2292 17.1078 37.2292C17.5353 37.2292 17.9453 37.399 18.2475 37.7013C18.5498 38.0036 18.7196 38.4135 18.7196 38.841Z" fill="#38A598"/>
<path d="M39.3131 27.5793H11.6157V33.282H39.3131V27.5793Z" fill="#DAC382"/>
<path d="M18.7198 38.841H15.5015V39.5904H18.7198V38.841Z" fill="#E8E8E8"/>
<path d="M13.0834 33.282H12.103V38.2815H13.0834V33.282Z" fill="#A3D9E0"/>
<path d="M13.2481 38.2866H11.9443V39.5904H13.2481V38.2866Z" fill="#5B77A5"/>
<path d="M38.9025 33.282H37.917V38.2815H38.9025V33.282Z" fill="#A3D9E0"/>
<path d="M39.0616 38.2866H37.7578V39.5904H39.0616V38.2866Z" fill="#5B77A5"/>
<g style="mix-blend-mode:multiply" opacity="0.51">
<path d="M39.3131 27.5793H11.6157V29.8583H39.3131V27.5793Z" fill="#B3B3B3"/>
</g>
</g>
<defs>
<clipPath id="clip0_230_624">
<rect width="50" height="50" fill="white"/>
</clipPath>
</defs>
</svg>
