<svg width="150" height="150" viewBox="0 0 150 150" fill="none" xmlns="http://www.w3.org/2000/svg">
<path d="M75 150C116.421 150 150 116.421 150 75C150 33.5786 116.421 0 75 0C33.5786 0 0 33.5786 0 75C0 116.421 33.5786 150 75 150Z" fill="#54C0EB"/>
<path d="M75 131.25C44.0625 131.25 18.75 105.937 18.75 75C18.75 44.0625 44.0625 18.75 75 18.75C105.937 18.75 131.25 44.0625 131.25 75C131.25 105.937 105.937 131.25 75 131.25Z" fill="#F2F2F2"/>
<path d="M75 112.5C54.375 112.5 37.5 95.625 37.5 75C37.5 54.375 54.375 37.5 75 37.5C95.625 37.5 112.5 54.375 112.5 75C112.5 95.625 95.625 112.5 75 112.5Z" fill="#FF7058"/>
<path d="M75 93.75C64.6875 93.75 56.25 85.3125 56.25 75C56.25 64.6875 64.6875 56.25 75 56.25C85.3125 56.25 93.75 64.6875 93.75 75C93.75 85.3125 85.3125 93.75 75 93.75Z" fill="#CDD6E0"/>
<path d="M75 93.75C64.6875 93.75 56.25 85.3125 56.25 75C56.25 64.6875 64.6875 56.25 75 56.25C85.3125 56.25 93.75 64.6875 93.75 75C93.75 85.3125 85.3125 93.75 75 93.75Z" fill="#FFD15C"/>
<path opacity="0.2" d="M149.375 84.375C148.125 93.75 145.313 102.5 140.938 110.625L136.875 109.063L131.563 97.8126L75.3127 77.5002C72.8128 76.5627 71.5627 73.7502 72.5002 71.2503C73.4377 68.7504 76.2502 67.5003 78.7501 68.4378L135 88.7502L146.25 83.4378L149.375 84.375Z" fill="#334A5E"/>
<path d="M126.25 30.3126L80.3126 76.2501C78.4376 78.1251 75.3125 78.1251 73.4375 76.2501C71.5625 74.3751 71.5625 71.25 73.4375 69.375L119.688 23.7501C121.563 21.8751 124.688 21.8751 126.563 23.7501C128.125 25.6251 128.125 28.4376 126.25 30.3126Z" fill="#40596B"/>
<path d="M130.625 19.3749L115.938 34.0626V14.6874L130.625 0V19.3749Z" fill="#FF7058"/>
<path d="M135.313 34.0626L150 19.3749H130.625L115.938 34.0626H135.313Z" fill="#F1543F"/>
</svg>
