<svg width="50" height="50" viewBox="0 0 50 50" fill="none" xmlns="http://www.w3.org/2000/svg">
<g clip-path="url(#clip0_230_703)">
<path d="M49.3181 30.811C52.5296 17.3812 44.2471 3.89046 30.8187 0.678641C17.3902 -2.53318 3.90092 5.75014 0.68943 19.18C-2.52206 32.6098 5.76041 46.1005 19.1888 49.3123C32.6173 52.5241 46.1066 44.2408 49.3181 30.811Z" fill="#CBE2EF"/>
<path d="M36.8973 14.7521H8.86914V35.2017H36.8973V14.7521Z" fill="#F9CE83"/>
<path d="M35.2394 16.4152H10.5269V33.5438H35.2394V16.4152Z" fill="#379C9B"/>
<path opacity="0.08" d="M35.2392 16.4152L10.5317 33.5438V16.4152H35.2392Z" fill="white"/>
<path d="M37.6618 34.3497H8.10938V35.2016H37.6618V34.3497Z" fill="#F9E398"/>
<path d="M17.4096 33.8774C17.4181 33.991 17.3813 34.1033 17.3073 34.1898C17.2332 34.2764 17.1279 34.3301 17.0144 34.3393H14.5252C14.4113 34.3301 14.3055 34.2766 14.2306 34.1902C14.1557 34.1038 14.1178 33.9915 14.1249 33.8774C14.1178 33.7638 14.1559 33.6521 14.2309 33.5665C14.3059 33.481 14.4117 33.4285 14.5252 33.4206H17.0144C17.127 33.4298 17.2315 33.4828 17.3054 33.5682C17.3793 33.6536 17.4167 33.7646 17.4096 33.8774Z" fill="#F2F2F2"/>
<g style="mix-blend-mode:multiply" opacity="0.52">
<path d="M35.2394 16.41V17.2416H11.4045V33.5438H10.5269V16.41H35.2394Z" fill="#B3B3B3"/>
</g>
<path d="M22.1928 32.3683H18.3179V33.9748H22.1928V32.3683Z" fill="#87CDDE"/>
<path d="M22.1928 33.9749H18.3179V34.3393H22.1928V33.9749Z" fill="#7B7982"/>
<g style="mix-blend-mode:multiply" opacity="0.26">
<path d="M29.1989 30.5359L28.3931 30.8387L29.1989 30.5359Z" fill="#B3B3B3"/>
<path d="M36.1788 30.5667C36.1788 30.5975 36.1788 30.6385 36.1377 30.6693L36.1788 30.5615V30.5667Z" fill="#B3B3B3"/>
<g style="mix-blend-mode:multiply">
<path d="M36.8972 23.3087C36.661 22.8447 36.3679 22.4119 36.0247 22.0203C35.7943 21.7351 35.5307 21.4784 35.2395 21.2555C34.4552 20.6492 33.49 20.3238 32.4988 20.3316C31.8632 20.361 31.2423 20.5326 30.6819 20.8338C30.1214 21.1349 29.6356 21.5579 29.2602 22.0717C28.4828 23.0688 27.9549 24.2374 27.7205 25.4799C27.4279 27.569 28.6033 30.5564 30.569 29.5042V30.233L29.1884 30.5359L28.3826 30.8336L28.2286 30.8952L26.7402 31.4495L26.3501 31.5881C25.8809 31.7482 25.4499 32.0037 25.0842 32.3385C24.7185 32.6733 24.4261 33.0802 24.2253 33.5335C23.998 34.0607 23.8543 34.62 23.7993 35.1915H36.8972V30.7977L36.1787 30.5461L35.2446 30.3306L34.7314 30.2125V29.4323C34.8929 29.5103 35.0664 29.5606 35.2446 29.5811C35.958 29.6479 36.5174 29.1141 36.9024 28.5186L36.8972 23.3087Z" fill="#B3B3B3"/>
</g>
</g>
<path d="M43.8874 36.4901V37.7887H25.9599V36.4901C25.9599 35.2017 25.6417 31.9423 28.562 30.8849L28.9521 30.7412L30.4405 30.1868L31.4003 29.8275L31.4618 29.9918C31.9648 31.0646 33.3198 31.8242 34.9057 31.8242V31.8653C34.9057 31.8653 34.9057 31.8653 34.9057 31.9012V31.8242C36.4454 31.8242 37.7952 31.08 38.2931 30.0431C38.3239 29.9713 38.3547 29.8994 38.3803 29.8275L39.3555 30.1714L41.2596 30.849C44.2108 31.9423 43.8874 35.2017 43.8874 36.4901Z" fill="#F88011"/>
<path d="M34.9059 31.824C34.9059 33.9694 30.7691 34.1182 30.4458 30.156L31.4107 29.7967C31.4258 29.8534 31.4464 29.9084 31.4723 29.961C31.9599 31.0644 33.3148 31.824 34.9059 31.824Z" fill="white"/>
<path d="M39.3812 30.1919C39.0476 34.1388 34.9058 33.9899 34.9058 31.824C36.4455 31.824 37.8004 31.0798 38.2983 30.038C38.3291 29.9712 38.3599 29.8994 38.3855 29.8275L39.3812 30.1919Z" fill="white"/>
<path d="M38.3188 30.0583C37.8055 31.0848 36.4917 31.8444 34.9263 31.8444C33.3609 31.8444 31.9597 31.0642 31.4927 29.9813L32.8117 29.5194V27.7179H36.9587V29.5296L38.3188 30.0583Z" fill="#E7C5A7"/>
<path d="M38.5241 24.9974C38.5313 25.2373 38.5228 25.4773 38.4984 25.716C38.4687 25.9286 38.4276 26.1393 38.3752 26.3474C38.1467 27.2609 37.6346 28.0786 36.9125 28.6829C36.3582 29.1501 35.6585 29.4098 34.9336 29.4173C34.2087 29.4248 33.5038 29.1797 32.94 28.724C32.1899 28.1166 31.6599 27.2799 31.4311 26.3423C31.3756 26.1369 31.3361 25.9275 31.313 25.716C31.2915 25.5749 31.2778 25.4327 31.272 25.29C31.272 25.1925 31.272 25.1001 31.272 24.9974C31.272 24.8948 31.272 24.7973 31.272 24.6997C32.389 24.5954 33.4795 24.2985 34.4951 23.822C35.3981 23.4701 36.1607 22.8318 36.6661 22.0049C37.026 22.7772 37.6402 23.4024 38.406 23.7758C38.406 23.8117 38.406 23.8579 38.4368 23.899C38.4676 23.94 38.4368 23.9811 38.4368 24.017C38.4951 24.3406 38.5243 24.6687 38.5241 24.9974Z" fill="#EFD2B2"/>
<path d="M32.9198 28.7445C32.4128 28.3251 32.0013 27.8022 31.7127 27.2109C31.4241 26.6196 31.2652 25.9734 31.2466 25.3157C31.2466 25.2182 31.2466 25.1258 31.2466 25.0231C31.2466 24.9204 31.2466 24.8229 31.2466 24.7254C32.363 24.618 33.453 24.3212 34.4697 23.8477C35.3723 23.4928 36.1357 22.8554 36.6459 22.0306C37.002 22.8038 37.615 23.4296 38.3806 23.8015C38.3806 23.8836 38.4217 23.9657 38.4371 24.0478C38.4951 24.3697 38.5243 24.6961 38.5244 25.0231C38.5418 25.7199 38.4045 26.4119 38.1222 27.0492C37.84 27.6865 37.4199 28.2532 36.8923 28.7086C38.3139 29.458 39.2737 27.7744 39.6073 26.8812C39.9409 25.9881 39.9255 25.1309 39.6073 23.8015C39.3421 22.886 38.8796 22.0397 38.2523 21.3222C37.8312 20.793 37.2956 20.3661 36.6858 20.0736C36.076 19.7811 35.4078 19.6306 34.7315 19.6335C34.0966 19.6654 33.4769 19.8386 32.9175 20.1405C32.3581 20.4424 31.8732 20.8655 31.4981 21.3787C30.7248 22.3764 30.1973 23.5423 29.9584 24.7819C29.6607 26.8915 30.8873 29.9559 32.9198 28.7445Z" fill="#9B6138"/>
<g opacity="0.13">
<path d="M31.2363 25.0023C31.2363 25.0998 31.2363 25.1922 31.2363 25.2897C32.2438 25.164 33.2159 24.8377 34.0951 24.3299C35.1213 23.8192 35.989 23.0385 36.6048 22.0717L36.6459 21.9947C36.1371 22.8206 35.3732 23.4584 34.4698 23.8115C33.4532 24.2857 32.3632 24.5825 31.2466 24.6892C31.2415 24.797 31.2363 24.8996 31.2363 25.0023Z" fill="#4D4D4D"/>
</g>
<g style="mix-blend-mode:multiply" opacity="0.48">
<path d="M36.6455 22.0049C36.7619 22.4595 36.9851 22.8797 37.2967 23.2305C37.6082 23.5814 37.9991 23.8527 38.4367 24.022C38.4367 23.9399 38.4008 23.8577 38.3854 23.7756C37.6173 23.4054 37.0022 22.7794 36.6455 22.0049Z" fill="#8BACB2"/>
</g>
<g style="mix-blend-mode:multiply">
<path d="M28.6904 37.7884V34.8373L29.2704 37.3522L30.959 37.7884H28.6904Z" fill="#CDBAB2"/>
</g>
<g style="mix-blend-mode:multiply">
<path d="M41.2546 37.7884V34.8373L40.6798 37.3522L38.9912 37.7884H41.2546Z" fill="#CDBAB2"/>
</g>
<path d="M31.4109 26.3422C31.3771 26.3499 31.342 26.3499 31.3082 26.3422C31.222 26.3409 31.1397 26.3057 31.0792 26.2442C31.0188 26.1827 30.9849 26.1 30.9849 26.0137C30.9902 25.9311 31.0274 25.8539 31.0887 25.7983C31.1501 25.7427 31.2306 25.7132 31.3133 25.716C31.3297 25.927 31.3623 26.1363 31.4109 26.3422Z" fill="#F2F2F2"/>
<path d="M38.7604 26.0343C38.7605 26.1205 38.7265 26.2033 38.6661 26.2647C38.6056 26.3262 38.5233 26.3614 38.4371 26.3627C38.41 26.3686 38.382 26.3686 38.355 26.3627C38.4148 26.15 38.4628 25.9341 38.4987 25.716C38.5725 25.7304 38.639 25.77 38.6868 25.8281C38.7346 25.8861 38.7606 25.9591 38.7604 26.0343Z" fill="#F2F2F2"/>
</g>
<defs>
<clipPath id="clip0_230_703">
<rect width="50" height="50" fill="white"/>
</clipPath>
</defs>
</svg>
