<svg width="26" height="26" viewBox="0 0 26 26" fill="none" xmlns="http://www.w3.org/2000/svg">
<path fill-rule="evenodd" clip-rule="evenodd" d="M19.6072 0.669874C15.2557 -0.223291 10.7431 -0.223291 6.39154 0.669874L5.92266 0.765124C4.69863 1.01641 3.57443 1.57435 2.67493 2.37696C1.77544 3.17958 1.13587 4.19545 0.827277 5.31173C-0.275759 9.30274 -0.275759 13.4835 0.827277 17.4745C1.12157 18.5391 1.71718 19.5133 2.55372 20.2984C3.39027 21.0835 4.438 21.6515 5.59071 21.9449L6.23386 25.4704C6.25439 25.5824 6.30723 25.6872 6.38688 25.7741C6.46653 25.8609 6.57007 25.9265 6.68673 25.9641C6.80338 26.0018 6.92889 26.01 7.05017 25.9879C7.17145 25.9658 7.28407 25.9143 7.37631 25.8387L11.1536 22.7361C13.9891 22.895 16.8348 22.6868 19.6072 22.1176L20.0774 22.0224C21.3015 21.7711 22.4257 21.2132 23.3252 20.4106C24.2247 19.6079 24.8642 18.5921 25.1728 17.4758C26.2757 13.4848 26.2757 9.30402 25.1728 5.313C24.8641 4.19656 24.2243 3.18058 23.3246 2.37795C22.4248 1.57532 21.3003 1.01747 20.076 0.766394L19.6072 0.669874ZM7.55888 5.20886C7.30183 5.1745 7.03971 5.22201 6.81615 5.34348H6.79679C6.27812 5.62288 5.81063 5.97467 5.41229 6.38869C5.08035 6.74048 4.90054 7.09608 4.85352 7.43898C4.82585 7.64218 4.84522 7.84792 4.91022 8.04223L4.93512 8.05493C5.30856 9.06204 5.79541 10.031 6.39015 10.9429C7.15702 12.2237 8.10072 13.4082 9.19787 14.4672L9.23106 14.5103L9.28362 14.5459L9.31543 14.5802L9.35416 14.6107C10.5114 15.6211 11.8045 16.4918 13.202 17.2015C14.7995 18.0003 15.769 18.3775 16.3513 18.535V18.5426C16.5214 18.5909 16.6764 18.6124 16.8326 18.6124C17.3286 18.5788 17.7979 18.3937 18.166 18.0867C18.6155 17.7209 18.9958 17.2904 19.2918 16.8116V16.8027C19.5698 16.3201 19.4758 15.8654 19.0747 15.5568C18.269 14.9104 17.3978 14.3363 16.473 13.8423C15.8534 13.5337 15.2241 13.7204 14.9696 14.0328L14.426 14.6627C14.1466 14.9752 13.6404 14.932 13.6404 14.932L13.6266 14.9396C9.84932 14.0544 8.84103 10.5429 8.84103 10.5429C8.84103 10.5429 8.794 10.0653 9.14393 9.8215L9.82442 9.31858C10.1508 9.07474 10.3777 8.49816 10.0277 7.9292C9.49331 7.07926 8.8693 6.27956 8.16469 5.5416C8.01101 5.36792 7.79548 5.24963 7.55612 5.20759L7.55888 5.20886ZM13.9406 3.68232C13.7571 3.68232 13.5812 3.74922 13.4516 3.8683C13.3219 3.98739 13.249 4.1489 13.249 4.31732C13.249 4.48573 13.3219 4.64724 13.4516 4.76633C13.5812 4.88541 13.7571 4.95232 13.9406 4.95232C15.6902 4.95232 17.1425 5.47683 18.2918 6.48267C18.8824 7.03258 19.343 7.68409 19.6445 8.39783C19.9474 9.11284 20.0857 9.87611 20.0498 10.6406C20.046 10.724 20.0601 10.8073 20.0913 10.8857C20.1225 10.9641 20.1703 11.036 20.2318 11.0975C20.356 11.2216 20.5289 11.2952 20.7123 11.3023C20.8957 11.3094 21.0746 11.2493 21.2098 11.1352C21.3449 11.0211 21.4252 10.8624 21.4329 10.694C21.4758 9.75353 21.3058 8.81513 20.9336 7.93809C20.5598 7.05688 19.993 6.25549 19.2683 5.58351L19.2545 5.57081C17.8285 4.31986 16.0235 3.68232 13.9406 3.68232ZM13.8935 5.7702C13.7101 5.7702 13.5342 5.8371 13.4045 5.95618C13.2748 6.07527 13.202 6.23678 13.202 6.4052C13.202 6.57361 13.2748 6.73512 13.4045 6.85421C13.5342 6.97329 13.7101 7.0402 13.8935 7.0402H13.917C15.1784 7.12275 16.0968 7.50883 16.74 8.14256C17.3997 8.79534 17.7414 9.60687 17.7151 10.6102C17.7109 10.7786 17.7797 10.9416 17.9064 11.0635C18.0331 11.1853 18.2073 11.2559 18.3907 11.2598C18.5741 11.2636 18.7517 11.2005 18.8844 11.0841C19.0171 10.9678 19.094 10.8078 19.0982 10.6394C19.1314 9.32239 18.6694 8.18574 17.7538 7.27896V7.27642C16.8174 6.3544 15.5325 5.86672 13.9862 5.77147L13.9627 5.76893L13.8935 5.7702ZM13.8673 7.89745C13.7747 7.88995 13.6815 7.89965 13.5931 7.92597C13.5047 7.9523 13.423 7.9947 13.3529 8.05066C13.2828 8.10661 13.2256 8.17497 13.1849 8.25165C13.1442 8.32833 13.1207 8.41175 13.1159 8.49695C13.111 8.58214 13.1249 8.66736 13.1568 8.74751C13.1886 8.82766 13.2377 8.9011 13.3011 8.96344C13.3645 9.02579 13.441 9.07576 13.5259 9.11037C13.6108 9.14499 13.7024 9.16353 13.7953 9.16491C14.3735 9.19285 14.7428 9.35287 14.9751 9.5675C15.2089 9.7834 15.3831 10.1301 15.415 10.6724C15.4167 10.7576 15.4371 10.8416 15.4749 10.9195C15.5128 10.9973 15.5673 11.0673 15.6352 11.1254C15.7032 11.1835 15.7831 11.2284 15.8704 11.2575C15.9576 11.2866 16.0504 11.2992 16.1431 11.2947C16.2358 11.2902 16.3265 11.2686 16.4099 11.2312C16.4933 11.1938 16.5677 11.1413 16.6285 11.077C16.6894 11.0126 16.7355 10.9377 16.7642 10.8566C16.7928 10.7755 16.8034 10.69 16.7953 10.6051C16.751 9.84309 16.491 9.16999 15.9585 8.67469C15.4233 8.17939 14.6944 7.93809 13.8673 7.89745Z" fill="white"/>
</svg>
