<svg width="48" height="48" viewBox="0 0 48 48" fill="none" xmlns="http://www.w3.org/2000/svg">
<path fill-rule="evenodd" clip-rule="evenodd" d="M33.3518 5.25609C27.0594 3.84953 20.5341 3.84953 14.2418 5.25609L13.5638 5.40609C11.7938 5.80181 10.1682 6.68046 8.8675 7.94442C7.56682 9.20838 6.642 10.8082 6.19577 12.5661C4.60076 18.8511 4.60076 25.435 6.19577 31.7201C6.62132 33.3966 7.48258 34.9308 8.69223 36.1672C9.90189 37.4035 11.4169 38.2981 13.0838 38.7601L14.0138 44.3121C14.0435 44.4884 14.1199 44.6535 14.235 44.7902C14.3502 44.927 14.4999 45.0303 14.6686 45.0896C14.8373 45.1488 15.0188 45.1617 15.1942 45.127C15.3695 45.0923 15.5324 45.0111 15.6658 44.8921L21.1278 40.0061C25.2279 40.2563 29.3429 39.9284 33.3518 39.0321L34.0318 38.8821C35.8017 38.4864 37.4273 37.6077 38.728 36.3438C40.0287 35.0798 40.9535 33.48 41.3998 31.7221C42.9946 25.437 42.9946 18.8532 41.3998 12.5681C40.9534 10.8099 40.0283 9.20995 38.7272 7.94597C37.4261 6.68198 35.8001 5.80348 34.0298 5.40809L33.3518 5.25609ZM15.9298 12.4041C15.5581 12.35 15.179 12.4248 14.8558 12.6161H14.8278C14.0778 13.0561 13.4018 13.6101 12.8258 14.2621C12.3458 14.8161 12.0858 15.3761 12.0178 15.9161C11.9778 16.2361 12.0058 16.5601 12.0998 16.8661L12.1358 16.8861C12.6758 18.4721 13.3798 19.9981 14.2398 21.4341C15.3487 23.4511 16.7133 25.3165 18.2998 26.9841L18.3478 27.0521L18.4238 27.1081L18.4698 27.1621L18.5258 27.2101C20.1992 28.8014 22.069 30.1724 24.0898 31.2901C26.3998 32.5481 27.8018 33.1421 28.6438 33.3901V33.4021C28.8898 33.4781 29.1138 33.5121 29.3398 33.5121C30.0569 33.4591 30.7356 33.1676 31.2678 32.6841C31.9178 32.1081 32.4678 31.4301 32.8958 30.6761V30.6621C33.2978 29.9021 33.1618 29.1861 32.5818 28.7001C31.4168 27.6822 30.157 26.778 28.8198 26.0001C27.9238 25.5141 27.0138 25.8081 26.6458 26.3001L25.8598 27.2921C25.4558 27.7841 24.7238 27.7161 24.7238 27.7161L24.7038 27.7281C19.2418 26.3341 17.7838 20.8041 17.7838 20.8041C17.7838 20.8041 17.7158 20.0521 18.2218 19.6681L19.2058 18.8761C19.6778 18.4921 20.0058 17.5841 19.4998 16.6881C18.727 15.3496 17.8246 14.0902 16.8058 12.9281C16.5835 12.6546 16.2719 12.4683 15.9258 12.4021L15.9298 12.4041ZM25.1578 10.0001C24.8925 10.0001 24.6382 10.1054 24.4507 10.293C24.2631 10.4805 24.1578 10.7349 24.1578 11.0001C24.1578 11.2653 24.2631 11.5197 24.4507 11.7072C24.6382 11.8947 24.8925 12.0001 25.1578 12.0001C27.6878 12.0001 29.7878 12.8261 31.4498 14.4101C32.3038 15.2761 32.9698 16.3021 33.4058 17.4261C33.8438 18.5521 34.0438 19.7541 33.9918 20.9581C33.9863 21.0894 34.0067 21.2205 34.0518 21.344C34.097 21.4674 34.166 21.5807 34.255 21.6775C34.4346 21.8729 34.6845 21.989 34.9498 22.0001C35.215 22.0112 35.4738 21.9166 35.6692 21.7369C35.8646 21.5572 35.9806 21.3073 35.9918 21.0421C36.0538 19.5611 35.808 18.0833 35.2698 16.7021C34.7292 15.3144 33.9097 14.0523 32.8618 12.9941L32.8418 12.9741C30.7798 11.0041 28.1698 10.0001 25.1578 10.0001ZM25.0898 13.2881C24.8245 13.2881 24.5702 13.3934 24.3827 13.581C24.1951 13.7685 24.0898 14.0229 24.0898 14.2881C24.0898 14.5533 24.1951 14.8077 24.3827 14.9952C24.5702 15.1827 24.8245 15.2881 25.0898 15.2881H25.1238C26.9478 15.4181 28.2758 16.0261 29.2058 17.0241C30.1598 18.0521 30.6538 19.3301 30.6158 20.9101C30.6097 21.1753 30.7092 21.4321 30.8924 21.6239C31.0756 21.8158 31.3275 21.927 31.5928 21.9331C31.858 21.9392 32.1148 21.8397 32.3066 21.6565C32.4985 21.4732 32.6097 21.2213 32.6158 20.9561C32.6638 18.8821 31.9958 17.0921 30.6718 15.6641V15.6601C29.3178 14.2081 27.4598 13.4401 25.2238 13.2901L25.1898 13.2861L25.0898 13.2881ZM25.0518 16.6381C24.9179 16.6263 24.7831 16.6416 24.6553 16.683C24.5275 16.7245 24.4094 16.7912 24.308 16.8794C24.2066 16.9675 24.1239 17.0751 24.0651 17.1959C24.0062 17.3166 23.9722 17.448 23.9652 17.5822C23.9582 17.7164 23.9783 17.8506 24.0244 17.9768C24.0704 18.103 24.1414 18.2186 24.2331 18.3168C24.3248 18.415 24.4353 18.4937 24.5581 18.5482C24.6809 18.6027 24.8134 18.6319 24.9478 18.6341C25.7838 18.6781 26.3178 18.9301 26.6538 19.2681C26.9918 19.6081 27.2438 20.1541 27.2898 21.0081C27.2923 21.1423 27.3217 21.2746 27.3765 21.3972C27.4312 21.5197 27.51 21.63 27.6083 21.7215C27.7065 21.8129 27.8222 21.8837 27.9483 21.9295C28.0745 21.9753 28.2086 21.9952 28.3426 21.9881C28.4767 21.981 28.6079 21.9469 28.7285 21.888C28.8491 21.8291 28.9566 21.7465 29.0446 21.6452C29.1326 21.5439 29.1993 21.4258 29.2408 21.2982C29.2822 21.1705 29.2975 21.0358 29.2858 20.9021C29.2218 19.7021 28.8458 18.6421 28.0758 17.8621C27.3018 17.0821 26.2478 16.7021 25.0518 16.6381Z" fill="#615BA2"/>
</svg>
