<svg width="26" height="26" viewBox="0 0 26 26" fill="none" xmlns="http://www.w3.org/2000/svg">
<path fill-rule="evenodd" clip-rule="evenodd" d="M12.9998 2.16666C7.01659 2.16666 2.1665 7.01674 2.1665 13C2.1665 15.0475 2.73525 16.965 3.72434 18.5987L2.758 21.8833C2.70252 22.0719 2.69887 22.272 2.74744 22.4625C2.796 22.6529 2.89499 22.8268 3.03399 22.9658C3.173 23.1048 3.34688 23.2038 3.53737 23.2524C3.72786 23.301 3.92791 23.2973 4.1165 23.2418L7.40117 22.2755C9.08974 23.2972 11.0262 23.836 12.9998 23.8333C18.9831 23.8333 23.8332 18.9832 23.8332 13C23.8332 7.01674 18.9831 2.16666 12.9998 2.16666ZM10.5493 15.4516C12.7409 17.6421 14.8328 17.9313 15.5717 17.9584C16.6951 17.9996 17.7893 17.1416 18.215 16.146C18.2688 16.0221 18.2883 15.8861 18.2715 15.7522C18.2547 15.6182 18.2023 15.4912 18.1197 15.3844C17.526 14.6261 16.7233 14.0812 15.9389 13.5395C15.7752 13.4263 15.5739 13.3808 15.3774 13.4128C15.1809 13.4447 15.0044 13.5514 14.8848 13.7107L14.2348 14.7019C14.2007 14.7552 14.1474 14.7934 14.086 14.8087C14.0246 14.824 13.9596 14.8153 13.9044 14.7842C13.4635 14.5318 12.8211 14.1028 12.3596 13.6413C11.8981 13.1798 11.4951 12.5667 11.2687 12.1539C11.2406 12.1015 11.2325 12.0406 11.2458 11.9827C11.2592 11.9247 11.2931 11.8735 11.3413 11.8387L12.3423 11.0955C12.4851 10.9713 12.5773 10.7989 12.6013 10.6111C12.6252 10.4233 12.5793 10.2333 12.4723 10.0772C11.9869 9.36649 11.4214 8.46299 10.6013 7.86391C10.4955 7.78721 10.3715 7.73939 10.2416 7.72514C10.1117 7.7109 9.98028 7.73072 9.86034 7.78266C8.86367 8.20949 8.00134 9.30366 8.0425 10.4292C8.06959 11.1681 8.35884 13.26 10.5493 15.4516Z" fill="white"/>
</svg>
