<svg width="48" height="48" viewBox="0 0 48 48" fill="none" xmlns="http://www.w3.org/2000/svg">
<g clip-path="url(#clip0_230_343)">
<path fill-rule="evenodd" clip-rule="evenodd" d="M24 4C12.954 4 4 12.954 4 24C4 27.78 5.05 31.32 6.876 34.336L5.092 40.4C4.98957 40.7482 4.98283 41.1175 5.07249 41.4692C5.16215 41.8208 5.3449 42.1419 5.60152 42.3985C5.85814 42.6551 6.17916 42.8379 6.53083 42.9275C6.8825 43.0172 7.25183 43.0104 7.6 42.908L13.664 41.124C16.7814 43.0102 20.3564 44.0049 24 44C35.046 44 44 35.046 44 24C44 12.954 35.046 4 24 4ZM19.476 28.526C23.522 32.57 27.384 33.104 28.748 33.154C30.822 33.23 32.842 31.646 33.628 29.808C33.7272 29.5794 33.7632 29.3283 33.7323 29.0809C33.7013 28.8336 33.6045 28.5991 33.452 28.402C32.356 27.002 30.874 25.996 29.426 24.996C29.1237 24.787 28.7522 24.7031 28.3893 24.762C28.0265 24.8209 27.7006 25.018 27.48 25.312L26.28 27.142C26.2169 27.2404 26.1186 27.3109 26.0052 27.3392C25.8918 27.3674 25.7719 27.3513 25.67 27.294C24.856 26.828 23.67 26.036 22.818 25.184C21.966 24.332 21.222 23.2 20.804 22.438C20.7522 22.3412 20.7372 22.2289 20.7618 22.1219C20.7865 22.0149 20.8491 21.9204 20.938 21.856L22.786 20.484C23.0497 20.2547 23.2199 19.9364 23.2642 19.5897C23.3084 19.2431 23.2237 18.8922 23.026 18.604C22.13 17.292 21.086 15.624 19.572 14.518C19.3766 14.3764 19.1477 14.2881 18.9079 14.2618C18.668 14.2355 18.4254 14.2721 18.204 14.368C16.364 15.156 14.772 17.176 14.848 19.254C14.898 20.618 15.432 24.48 19.476 28.526Z" fill="#65C85A"/>
</g>
<defs>
<clipPath id="clip0_230_343">
<rect width="48" height="48" fill="white"/>
</clipPath>
</defs>
</svg>
