<svg width="60" height="54" viewBox="0 0 60 54" fill="none" xmlns="http://www.w3.org/2000/svg">
<g clip-path="url(#clip0_230_3922)">
<path d="M26.0847 10.5215C25.9136 10.6256 25.7327 10.7128 25.5447 10.7819C25.5021 10.4425 25.413 10.1106 25.28 9.79544C25.3061 9.60602 25.2646 9.41343 25.1626 9.25159C25.0606 9.08976 24.9047 8.96907 24.7225 8.91079C23.6119 8.58485 22.2573 9.38861 21.4538 10.4433C21.1851 10.266 20.9049 10.0937 20.6143 9.92262C21.3873 8.76253 21.7763 7.36382 21.445 6.06584C21.0311 4.45605 18.866 2.83075 16.9856 2.72998C16.6274 2.22888 15.8985 2.02143 15.3985 2.55589C14.8986 3.09035 14.6694 3.76419 14.4646 4.45269C14.4892 4.00555 14.5019 3.55726 14.4885 3.10806C14.4847 3.03391 14.4551 2.96342 14.4047 2.90888C14.3543 2.85433 14.2863 2.81919 14.2126 2.80957C14.139 2.79996 14.0643 2.81649 14.0016 2.85628C13.9389 2.89607 13.8922 2.95659 13.8696 3.0273C13.2496 5.37889 13.1245 7.84282 12.7459 10.2469C12.5515 11.0557 12.3773 11.8719 12.2398 12.6878C12.0626 13.3492 13.028 13.7781 13.366 13.1597C13.5688 12.7887 13.7683 12.4147 13.947 12.0352C14.9891 12.6851 16.5112 12.6555 17.603 12.31C18.5491 11.9833 19.3924 11.4136 20.0483 10.6581C20.3609 10.8533 20.6656 11.0626 20.9669 11.277C20.5659 12.2289 20.6978 13.2041 21.8478 13.6783C22.8666 14.0971 24.1484 13.6405 24.8778 12.8698C25.2088 12.5259 25.4325 12.0932 25.5216 11.6244C25.8673 11.4764 26.185 11.2704 26.4612 11.0153C26.5204 10.9634 26.5577 10.8909 26.5655 10.8125C26.5734 10.7341 26.5511 10.6557 26.5034 10.593C26.4556 10.5303 26.3858 10.4881 26.3081 10.4748C26.2304 10.4616 26.1506 10.4782 26.0847 10.5215ZM17.5043 10.3411C16.8508 10.5103 15.4437 10.7389 14.7447 10.3065C14.801 10.1798 14.8558 10.0507 14.9121 9.92398C15.6856 9.35952 17.3995 9.5595 18.0732 9.74608C18.2415 9.79118 18.403 9.84661 18.5634 9.90581C18.2319 10.0984 17.8755 10.2448 17.5043 10.3411ZM20.0579 8.28479C19.8893 8.65713 19.6556 8.99644 19.3678 9.28683C18.0982 8.7299 16.7352 8.41533 15.4377 8.6733C15.4882 8.55313 15.5367 8.43246 15.5882 8.30851C15.8996 7.54731 16.1808 6.76993 16.4635 5.99496C16.7132 5.31244 17.0891 4.5604 17.1832 3.81592C17.9073 4.05964 18.5814 4.43241 19.1727 4.91617C20.2956 5.78622 20.6589 6.95708 20.0579 8.28479ZM24.7895 10.8996L24.7317 10.8962C24.577 10.8808 24.431 10.8176 24.3139 10.7154C24.4444 10.637 24.5749 10.5585 24.7012 10.4728C24.7456 10.6116 24.7752 10.7546 24.7895 10.8996ZM24.2761 12.4452C23.8524 12.8765 22.113 13.407 22.4386 12.3357C22.5512 11.9608 23.0528 11.5564 23.4177 11.2916C23.4694 11.3632 23.5284 11.4293 23.5939 11.4887C23.7394 11.6159 23.9091 11.7126 24.0929 11.773C24.2766 11.8333 24.4705 11.8561 24.6632 11.84C24.5756 12.062 24.4449 12.2645 24.2786 12.4358L24.2761 12.4452Z" fill="#004D7B" fill-opacity="0.19"/>
<path d="M48.7948 21.2918C47.4946 20.7733 47.5624 19.2115 47.8505 18.0836C48.1643 16.8592 48.6846 15.6739 48.733 14.3966C48.7493 13.9574 48.1307 13.6863 47.8311 14.0253C47.089 14.8826 46.5014 15.8621 46.0946 16.9204C45.9302 17.0514 45.7519 17.1639 45.5628 17.2559C45.178 17.4363 44.8655 17.5511 44.4821 17.3329C44.0987 17.1147 43.9769 16.8735 44.0987 16.4038C44.3458 15.4815 45.4138 14.8542 45.9357 14.0866C46.387 13.4237 45.6271 12.341 44.8411 12.657C44.18 12.9458 43.6269 13.4354 43.2601 14.0563C42.8686 14.1729 42.4714 14.2693 42.0699 14.3451L42.0214 14.3523C42.064 14.1043 42.0543 13.85 41.9931 13.6059C41.9318 13.3617 41.8203 13.133 41.6655 12.9343C41.5154 12.7549 41.3206 12.6182 41.1008 12.5379C41.0634 12.4313 41.0029 12.3341 40.9237 12.2535C39.6358 10.9098 37.0767 12.5555 36.4494 13.8903C36.4044 13.9855 36.3647 14.083 36.3306 14.1826L36.1464 14.2041C36.7611 12.4547 37.1477 10.3687 36.384 8.77863C36.0852 8.15371 35.0765 8.32499 34.9262 8.96933C34.8132 9.45151 34.7263 9.96498 34.6463 10.4904C34.5232 11.0499 34.3111 11.586 34.0181 12.0782C33.5803 12.759 32.1575 13.8179 31.5188 12.7595C31.144 12.1386 31.6492 11.3118 31.9875 10.7908C32.4286 10.1129 32.8898 9.39794 33.3815 8.75798C33.6891 8.36644 33.2754 7.71679 32.8054 7.76101C30.1578 7.9894 27.8138 12.4859 30.8003 13.9505C32.0293 14.5532 33.2253 14.2276 34.1253 13.456C34.0272 13.8597 33.9032 14.2568 33.7541 14.6447C32.8915 14.866 32.0575 15.1863 31.2687 15.5992C30.5447 15.9865 29.9819 16.6722 30.0736 17.5252C30.1079 17.9031 30.2891 18.2526 30.5782 18.4986C30.8674 18.7446 31.2415 18.8675 31.6203 18.841C33.5543 18.8022 34.9752 17.0015 35.6769 15.3888C35.7559 15.2074 35.8371 15.0104 35.9164 14.8129C36.0092 14.7993 36.1048 14.7905 36.199 14.7793C36.0653 16.0803 36.8861 17.3515 38.3772 17.3621C39.7509 17.3717 41.1992 16.4978 41.7712 15.2332C42.1627 15.149 42.5408 15.0111 42.8945 14.8233C42.54 15.8059 42.5705 16.9098 43.2087 17.7432C43.8469 18.5765 44.8241 18.6135 45.7067 18.2545C45.6372 18.5904 45.5953 18.9315 45.5815 19.2742C45.5187 21.0216 46.7149 22.8512 48.6156 22.7852C49.5182 22.7678 49.5739 21.5917 48.7948 21.2918ZM32.7393 16.3821C32.5413 16.6065 31.7519 17.4645 31.4082 17.3481C30.7825 17.1338 31.9718 16.1522 32.0425 16.1002C32.291 15.9471 32.5511 15.8136 32.8204 15.701C33.0032 15.6163 33.1902 15.5388 33.3776 15.4674C33.1982 15.7922 32.9847 16.0969 32.7408 16.3764L32.7393 16.3821ZM40.4587 15.5621C39.9246 16.0955 38.9483 16.5165 38.2345 16.064C37.4097 15.5412 38.1869 14.7286 39.0492 14.1656C39.2314 14.5568 39.5434 14.873 39.9323 15.0605C40.176 15.1693 40.4329 15.2457 40.6965 15.2876C40.6245 15.3825 40.5462 15.4725 40.4621 15.557L40.4587 15.5621ZM39.6375 13.8311C39.8726 13.7015 40.1253 13.6068 40.3878 13.55C40.5059 13.5339 40.6199 13.4957 40.724 13.4376C41.032 13.589 41.1226 14.0528 41.0809 14.4204C40.4474 14.3863 39.7579 14.2441 39.6409 13.8259L39.6375 13.8311Z" fill="#004D7B" fill-opacity="0.19"/>
<path d="M46.1557 30.4833C45.1849 29.893 44.201 29.4572 43.3327 28.6959C42.6715 28.1144 42.0939 27.4443 41.6163 26.7047C42.1441 26.6072 42.6633 26.468 43.1691 26.2883C44.1093 25.9488 45.9094 25.1996 45.7905 23.9261C45.5993 21.9162 42.545 23.6094 41.0343 25.1248C41.5127 23.5435 42.2778 22.1179 42.9262 20.568C43.1833 19.9563 42.591 19.0198 41.8804 19.516C39.9176 20.888 38.8465 23.3496 38.4146 25.6422C38.3292 26.0974 38.2658 26.553 38.2247 27.0092C37.863 27.4815 37.3668 28.2742 36.7234 28.4137C35.9098 28.5907 35.9599 27.6319 36.0443 27.0448C36.2373 25.6888 37.0331 24.474 37.3414 23.1266C37.4781 22.5333 36.7602 22.27 36.4007 22.6963C35.349 21.9385 33.8274 22.2539 32.8119 22.95C32.0698 23.45 31.265 24.4415 31.2022 25.4172C30.9208 25.6609 30.6132 25.8726 30.2851 26.0485C29.6665 26.3749 28.5387 26.8546 27.8797 26.4167C27.3535 26.0732 27.4455 25.5104 27.7654 24.952C28.5736 24.9895 29.3817 24.8785 30.1497 24.6247C32.3171 23.8281 32.009 20.7114 29.4923 20.9505C28.0353 21.0928 26.5159 22.3001 25.9033 23.7543L25.557 23.7304C25.8212 23.1409 25.8741 22.4785 25.707 21.8544C25.1784 19.9465 23.5578 19.9275 22.2498 20.7093C22.2822 20.4531 22.2992 20.1952 22.3006 19.937C22.3044 19.0529 21.2132 18.9043 20.7574 19.5235C20.4992 19.8789 20.2743 20.2573 20.0856 20.654C19.1341 20.5633 18.1752 20.5866 17.2293 20.7232C17.1574 20.4393 17.0592 20.1627 16.9358 19.8971C16.4472 18.8385 14.128 17.0848 15.0088 15.8098C15.8589 14.5813 18.4897 15.7622 18.8781 16.8466C18.8965 16.9045 18.9347 16.9541 18.9861 16.9866C19.0374 17.0191 19.0985 17.0326 19.1588 17.0245C19.219 17.0165 19.2745 16.9875 19.3154 16.9426C19.3563 16.8978 19.3802 16.8399 19.3827 16.7792C19.3969 14.7819 16.8424 13.7247 15.1415 14.225C14.6759 14.3576 14.2655 14.6367 13.9713 15.0208C13.677 15.405 13.5145 15.8738 13.508 16.3576C13.4758 17.6879 14.3449 18.6277 15.0804 19.6349C15.3846 20.0492 15.6191 20.5102 15.7748 20.9999C14.4126 21.3245 13.117 21.8826 11.9457 22.6495C11.047 23.2574 10.4649 24.5072 11.3057 25.4313C12.0868 26.2988 13.5837 26.3252 14.6068 25.9715C16.1935 25.4284 17.1287 24.0565 17.3282 22.5402C18.0114 22.4641 18.6896 22.4371 19.3885 22.4158C19.1703 23.0561 18.9758 23.6988 18.7722 24.2924C18.2379 25.8628 17.6069 27.4235 17.7074 29.1134C17.7663 30.1115 19.388 30.459 19.5613 29.3508C19.6797 28.5987 20.0581 27.9506 20.3179 27.2384C20.49 26.77 20.6475 26.2957 20.8036 25.819C21.0776 26.0353 21.4112 26.1628 21.7597 26.1846C22.9069 26.2753 24.1286 25.6648 24.9319 24.7397L25.6407 24.8101C25.5881 25.3451 25.6898 25.8841 25.934 26.3633C27.0652 28.5866 29.7562 27.8027 31.5569 26.5594C32.152 27.2435 33.2858 26.9153 34.0437 26.4925C34.1774 26.4169 34.3046 26.3356 34.4305 26.2518C34.0756 27.2282 34.0099 28.2375 34.6398 29.253C35.5225 30.6866 37.0807 30.3405 38.251 29.4529C38.3547 30.5786 38.5038 31.8379 39.199 32.723C39.7841 33.4671 40.7694 32.7629 40.8474 32.0405C40.9468 31.1172 40.5666 30.1078 40.5396 29.1648C40.5243 28.6121 40.5426 28.0589 40.5942 27.5084C41.3883 29.53 43.7106 31.4161 45.5648 31.9474C46.4208 32.1869 46.9173 30.9466 46.1557 30.4833ZM29.3442 23.228C29.5405 23.0781 29.8604 22.7465 30.1309 22.7279C30.682 22.6912 30.3144 23.2308 30.0398 23.4083C29.6372 23.6364 29.1858 23.7648 28.7233 23.7827C28.9207 23.5874 29.1279 23.4022 29.3442 23.228ZM15.6465 23.2563C15.3538 23.8525 14.8443 24.3144 14.2221 24.5477C13.9011 24.6643 12.31 24.959 12.4144 24.2213C12.4762 23.7862 13.7683 23.4275 14.0984 23.3074C14.6612 23.1056 15.2355 22.9376 15.8184 22.8041C15.7747 22.9597 15.7172 23.111 15.6465 23.2563ZM21.849 24.898C21.7815 24.5295 22.4221 24.6202 22.7076 24.6136C22.9394 24.6109 23.1692 24.6158 23.4003 24.623C22.877 24.9345 21.9389 25.3718 21.849 24.898ZM24.4129 23.6507C24.0017 23.6195 23.5894 23.5921 23.176 23.5765C22.6601 23.5578 22.0262 23.5256 21.4884 23.6793C21.6744 23.1215 21.8546 22.5621 21.9971 21.9926C22.2089 21.8318 22.4337 21.6888 22.6691 21.565C23.5679 21.0929 24.8101 21.2151 24.8029 22.5054C24.7878 22.9145 24.6529 23.3101 24.4149 23.6431L24.4129 23.6507ZM34.7978 24.6691C34.4943 24.9851 34.1571 25.2669 33.7922 25.5096C33.5272 25.6816 32.5488 26.1406 33.0853 25.5531C33.7378 24.8428 34.5365 24.4492 35.3484 24.0591C35.1725 24.2692 34.9949 24.4707 34.8055 24.663L34.7978 24.6691Z" fill="#004D7B" fill-opacity="0.19"/>
<path d="M43.5132 47.221C42.2342 46.4266 43.5411 43.7203 44.0204 42.7408C44.4673 41.8296 45.328 39.8503 43.9653 39.2624C42.8034 38.7647 41.4405 39.5014 40.6313 40.2974C40.5295 40.3977 40.4208 40.5083 40.3076 40.6279C40.3771 40.1644 40.4484 39.7015 40.5334 39.2482C41.9093 38.2436 44.0626 36.07 43.103 34.2653C42.9047 33.9005 42.5724 33.6269 42.1762 33.5022C41.78 33.3775 41.3509 33.4115 40.9794 33.5971C39.908 34.0857 39.2467 35.298 38.8488 36.344C38.4408 37.5036 38.1485 38.7009 37.9763 39.9181C37.5724 40.1016 37.1635 40.2736 36.7599 40.4409C36.6591 39.9723 36.4814 39.5236 36.234 39.113C35.8854 38.597 35.4211 38.1695 34.878 37.8645C35 37.0688 34.7198 36.1855 33.9268 35.8394C32.9273 35.4014 32.4522 36.4104 32.8111 37.2418C33.0279 37.692 33.3475 38.0851 33.7442 38.3892C33.4672 38.8644 33.1027 39.2829 32.6699 39.6225C31.9654 40.2014 28.9375 41.9928 29.0866 39.9688C29.1774 38.7373 30.4137 37.8452 31.0923 36.9089C31.524 36.3116 30.8022 35.3667 30.1067 35.6321C28.6568 36.1793 27.7717 37.5383 27.3955 39.0255L27.3697 39.1219C27.0551 39.706 26.6124 40.3368 26.0877 40.5324C25.8601 40.6254 26.003 40.7123 25.7811 40.5192C25.71 40.3709 25.6622 40.2126 25.6393 40.0497C25.5844 39.7257 25.5833 39.3949 25.6362 39.0706C25.7249 38.5091 25.8538 37.9547 26.0219 37.4117C26.3526 37.1986 26.6712 36.9781 26.9714 36.7425C28.3351 35.6779 29.2394 34.3302 29.9046 32.7402C30.3543 31.6595 30.9745 29.549 29.1412 29.3636C27.5619 29.2058 26.1514 31.2322 25.4878 32.4074C24.5757 34.0256 23.9641 35.7955 23.6826 37.6316C23.6665 37.7448 23.6531 37.8627 23.6402 37.9868C23.4117 38.1282 23.184 38.2596 22.9533 38.3942C23.1845 36.8884 23.3858 35.3503 23.2881 33.8617C23.2838 33.7573 23.245 33.6572 23.1776 33.5772C23.1103 33.4971 23.0183 33.4418 22.916 33.4197C22.9097 33.2576 22.8447 33.1033 22.7331 32.9854C22.6215 32.8676 22.4709 32.7943 22.3093 32.7791C20.8069 32.5082 19.304 32.8975 18.414 34.2369C17.9819 34.8888 17.5294 36.0254 17.6336 36.9303C17.0591 37.3805 16.4451 37.778 15.7992 38.118C15.4966 38.3055 15.1586 38.4286 14.8063 38.4798C14.8201 38.4293 14.8374 38.3798 14.8581 38.3317C14.935 38.1355 14.9869 37.9267 15.0662 37.7291C15.727 36.065 17.2489 34.2204 17.0567 32.3277C16.9228 31.0198 15.4851 30.5678 14.402 31.1303C13.8551 31.4418 13.3821 31.8678 13.0154 32.3792C13.1067 31.7109 13.0887 31.0322 12.9619 30.3697C12.8653 29.9286 12.4561 29.8291 12.1131 29.9519C11.9818 29.9275 11.8462 29.9428 11.7237 29.9959C11.6012 30.0489 11.4973 30.1373 11.4252 30.2496C10.0538 32.2135 7.87103 34.3003 5.39077 34.6606C3.62984 34.9159 4.38474 33.1879 5.08787 32.402C5.99224 31.3946 7.3244 31.6199 8.49911 31.2906C9.35692 31.0545 9.24061 29.5974 8.33078 29.6493C8.08701 29.6007 7.84014 29.569 7.59198 29.5547C6.31707 29.0855 4.90877 27.2153 6.3725 26.4125C7.57642 25.7547 9.41694 26.4808 10.0682 27.583C10.2899 27.9584 10.792 27.6959 10.7301 27.3066C10.4111 25.2443 6.9647 24.5882 5.51312 25.7163C4.65866 26.3786 4.4583 27.4592 4.90237 28.4269C5.13777 28.9187 5.47035 29.3578 5.88007 29.7178C4.87757 29.9439 3.96987 30.4748 3.28172 31.2375C2.07325 32.6536 1.2864 35.159 3.23249 36.361C4.96396 37.4184 7.2435 36.3926 8.74845 35.3679C9.30162 34.9893 9.81692 34.5583 10.2872 34.0808C10.1634 34.5884 10.0959 35.1051 10.2343 35.5189C10.4504 36.1723 11.0187 36.442 11.6762 36.3407L11.729 36.3326C12.209 36.2587 12.574 35.6982 12.5608 35.2105C12.5709 35.1727 12.5788 35.1283 12.5844 35.0771C12.988 34.4257 13.3469 33.7441 13.7712 33.1063C14.0248 32.7066 14.3358 32.3464 14.6942 32.037C14.8109 31.9347 14.9371 31.8438 15.071 31.7653L15.8956 31.9862C15.9647 32.0838 15.8272 32.4682 15.7903 32.5758C15.4671 33.502 14.749 34.3061 14.2504 35.1306C13.7518 35.955 13.2277 36.882 12.9518 37.8209C12.5054 39.3358 13.618 40.7966 15.2542 40.356C16.5092 39.9574 17.605 39.1708 18.3837 38.1097C19.1507 38.5076 20.0909 37.8582 20.7373 37.3751C20.965 37.2056 21.1781 37.0175 21.3745 36.8126C21.1528 37.7457 20.9671 38.6884 20.759 39.609C20.7448 39.6619 20.7306 39.7148 20.7164 39.7677C20.3586 40.0061 20.0083 40.2545 19.67 40.5183C18.6784 41.2917 17.331 42.4397 17.3507 43.8183C17.3827 45.5222 19.2207 45.5164 20.3104 44.7855C21.8781 43.731 22.4308 41.9103 22.6899 40.1263C22.7316 39.8418 22.7763 39.554 22.8215 39.2643C23.0772 39.1121 23.338 38.9632 23.6002 38.8167C23.5988 40.1309 23.9284 41.6087 25.1766 42.087C26.118 42.4466 26.9659 41.8392 27.6142 41.0083C27.8464 41.4027 28.2169 41.6969 28.6538 41.8338C29.9121 42.2438 31.4581 41.4894 32.5202 40.8544C33.3143 40.4094 33.9813 39.7689 34.4579 38.9936C34.8204 39.2824 35.1178 39.6444 35.3307 40.0559C35.4562 40.3234 35.5446 40.6067 35.5935 40.898C34.4631 41.3345 33.2854 41.8716 33.0824 43.1662C33.0727 43.2202 33.0737 43.2755 33.0854 43.3291C33.0587 43.464 33.059 43.6029 33.0862 43.7377C33.1134 43.8726 33.1669 44.0007 33.2438 44.1149C33.7356 44.8665 34.8081 44.8581 35.5034 44.4266C36.5701 43.7666 36.9553 42.4499 36.8629 41.1835L37.09 41.0924C37.3392 40.987 37.587 40.8792 37.8315 40.7685C37.6152 42.0677 37.399 43.4721 37.4996 44.761C37.5173 44.985 37.6116 45.1961 37.7666 45.3588C37.9217 45.5215 38.1281 45.626 38.3511 45.6546C38.5741 45.6832 38.8001 45.6343 38.9912 45.516C39.1822 45.3977 39.3267 45.2172 39.4003 45.005C39.6856 44.1604 39.8971 43.2927 40.0324 42.4115C40.0759 42.3401 40.1217 42.2673 40.1709 42.1975C40.6159 41.5653 41.1425 40.886 41.7956 40.4534C42.0126 40.309 42.8849 39.8074 43.1707 40.0116C43.3218 40.121 43.1126 40.3343 42.9876 40.5358C42.5772 41.1975 42.0771 41.8008 41.6887 42.4786C40.9633 43.7486 40.5258 45.2377 40.6713 46.7067C40.7987 47.9865 41.7898 49.4998 43.2753 48.9863C43.4553 48.9322 43.6158 48.8274 43.7378 48.6845C43.8598 48.5416 43.938 48.3666 43.963 48.1804C43.9881 47.9943 43.959 47.8048 43.8793 47.6346C43.7995 47.4645 43.6724 47.3209 43.5132 47.221ZM27.0984 34.5667C27.4037 33.8698 27.7499 33.1915 28.1352 32.5354C28.3348 32.1838 28.547 31.8457 28.7551 31.5004C29.1129 30.9218 29.5429 30.5651 29.2813 31.7305C28.9117 33.3593 27.767 34.8856 26.5231 35.9722C26.7141 35.4866 26.9076 35.0139 27.0984 34.5667ZM21.7153 35.5104C21.5604 35.7187 21.3928 35.9174 21.2134 36.1051C21.0485 36.2817 19.4529 37.7581 19.2086 37.0587C19.0346 36.5583 20.0862 35.6066 20.3712 35.3447C20.8249 34.9376 21.4575 34.5055 22.0744 34.4196C21.9406 34.7828 21.8235 35.1444 21.7153 35.5104ZM19.903 42.2741C19.6805 42.658 19.3989 43.0809 18.994 43.2985C18.7123 43.4498 18.7434 43.5757 18.9948 43.1367C19.1665 42.8363 19.2396 42.4953 19.4355 42.1954C19.7174 41.7669 20.0464 41.3713 20.4164 41.0161C20.2996 41.4552 20.1291 41.8782 19.9086 42.2756L19.903 42.2741ZM33.8051 37.1557C33.2085 36.8608 33.2242 36.6078 33.8524 36.3967L34.059 36.9949C34.0753 37.1105 34.0786 37.2276 34.0689 37.3439C33.9853 37.2851 33.8985 37.2233 33.8108 37.1573L33.8051 37.1557ZM34.9881 43.2859C34.8978 43.4027 34.7762 43.4915 34.6375 43.5422C34.4987 43.5928 34.3485 43.6032 34.204 43.5721C34.1206 43.5516 34.0445 43.5085 33.9839 43.4476C33.9234 43.3868 33.8808 43.3104 33.8607 43.2269C34.1925 42.5259 34.8894 42.0584 35.6338 41.7008C35.6228 41.8681 35.5979 42.0342 35.5595 42.1974C35.4735 42.6054 35.2779 42.9822 34.9938 43.2875L34.9881 43.2859ZM41.6505 35.0185C41.8691 34.8988 42.0629 35.2951 42.092 35.5419C42.1434 36.0236 41.7601 36.6825 41.5313 37.0749C41.3208 37.434 41.0683 37.7668 40.7791 38.0664C40.9704 37.2466 41.1881 36.434 41.4324 35.6285C41.4838 35.5045 41.5278 35.091 41.6562 35.02L41.6505 35.0185Z" fill="#004D7B" fill-opacity="0.19"/>
<path d="M52.8909 37.8744C52.6044 34.9721 48.5253 35.6109 47.2421 37.3513C46.9554 37.7404 47.5028 38.2314 47.8795 37.9981C48.5648 37.5741 49.2553 37.2588 50.0759 37.2903C50.8965 37.3218 51.5591 37.625 51.1719 38.5481C50.705 39.6627 49.2121 40.4536 48.051 40.021C47.4988 39.8123 46.8096 40.3649 46.8627 40.9381C46.9649 41.7259 46.8889 42.5264 46.6404 43.2808C46.1235 44.7182 48.5312 45.4079 48.9609 43.9026C49.1628 43.2416 49.2182 42.5445 49.1231 41.8598C49.897 41.783 50.6359 41.4997 51.2625 41.0395C52.2534 40.3064 53.0201 39.1244 52.8909 37.8744Z" fill="#004D7B" fill-opacity="0.19"/>
<path d="M48.6456 45.7767C48.4696 45.601 48.2389 45.4906 47.9917 45.4637C47.7511 45.4344 47.5073 45.4801 47.2938 45.5947C47.2697 45.6034 47.2475 45.6167 47.2285 45.634C47.1573 45.6709 47.092 45.7183 47.0348 45.7745C46.8735 45.8427 46.7294 45.9458 46.6128 46.0764C46.4961 46.2069 46.4099 46.3617 46.3602 46.5295C46.3167 46.6982 46.3092 46.8742 46.3382 47.046C46.3673 47.2178 46.4322 47.3816 46.5288 47.5267C46.6337 47.6971 46.7755 47.8419 46.9437 47.9504C47.112 48.0588 47.3024 48.1282 47.501 48.1535C47.6996 48.1787 47.9013 48.1591 48.0913 48.0961C48.2813 48.0332 48.4547 47.9285 48.5988 47.7897C48.8692 47.5274 49.0256 47.1694 49.0343 46.7929C49.0431 46.4164 48.9035 46.0514 48.6456 45.7767Z" fill="#004D7B" fill-opacity="0.19"/>
<path d="M33.7282 34.0481C33.7227 33.7512 33.6025 33.4679 33.3928 33.2574C33.1977 33.0668 32.9448 32.9464 32.6738 32.9149C32.5229 32.8847 32.367 32.8923 32.2199 32.9371C32.1284 32.9638 32.04 32.9998 31.9559 33.0446C31.8071 33.1424 31.6799 33.2696 31.5821 33.4184C31.4918 33.574 31.4444 33.7507 31.4449 33.9306C31.4466 34.0197 31.4596 34.1083 31.4837 34.1942C31.4945 34.4482 31.5947 34.6903 31.7668 34.8777C31.9791 35.0897 32.2663 35.2099 32.5663 35.2122C32.8664 35.2145 33.1554 35.0989 33.3708 34.8902C33.4837 34.7809 33.5736 34.6501 33.635 34.5054C33.6963 34.3608 33.728 34.2053 33.7282 34.0481Z" fill="#004D7B" fill-opacity="0.19"/>
</g>
<defs>
<clipPath id="clip0_230_3922">
<rect width="50.3415" height="40.9298" fill="white" transform="translate(10.8926 0.813904) rotate(15)"/>
</clipPath>
</defs>
</svg>
