<svg width="105" height="93" viewBox="0 0 105 93" fill="none" xmlns="http://www.w3.org/2000/svg">
<g clip-path="url(#clip0_200_23908)">
<path d="M45.9411 17.2708C45.6414 17.4531 45.3246 17.6058 44.9954 17.7269C44.9208 17.1325 44.7648 16.5512 44.5318 15.9993C44.5776 15.6675 44.5048 15.3302 44.3261 15.0468C44.1475 14.7634 43.8746 14.552 43.5554 14.45C41.6104 13.8792 39.2382 15.2868 37.831 17.1338C37.3604 16.8233 36.8698 16.5216 36.3607 16.222C37.7145 14.1903 38.3957 11.7408 37.8156 9.46762C37.0907 6.64842 33.299 3.80204 30.0059 3.62556C29.3784 2.74798 28.102 2.38468 27.2264 3.32067C26.3509 4.25666 25.9495 5.43676 25.5909 6.64253C25.6339 5.85946 25.6561 5.07437 25.6326 4.28768C25.6261 4.15783 25.5741 4.03438 25.4859 3.93886C25.3976 3.84333 25.2786 3.78178 25.1496 3.76495C25.0206 3.74812 24.8898 3.77706 24.78 3.84675C24.6702 3.91643 24.5884 4.02242 24.5488 4.14625C23.463 8.26457 23.2439 12.5797 22.5808 16.7899C22.2404 18.2063 21.9354 19.6357 21.6946 21.0646C21.3842 22.223 23.075 22.974 23.6669 21.8911C24.022 21.2413 24.3715 20.5864 24.6844 19.9218C26.5094 21.06 29.175 21.008 31.0872 20.403C32.7439 19.8308 34.2208 18.8331 35.3695 17.5101C35.9169 17.8519 36.4506 18.2184 36.9783 18.5939C36.276 20.2609 36.5071 21.9688 38.5209 22.7992C40.3052 23.5327 42.55 22.7331 43.8275 21.3833C44.4071 20.7811 44.7989 20.0233 44.955 19.2023C45.5603 18.9431 46.1168 18.5823 46.6004 18.1356C46.7041 18.0446 46.7694 17.9177 46.7831 17.7804C46.7968 17.6432 46.7579 17.5058 46.6743 17.3961C46.5906 17.2863 46.4684 17.2123 46.3323 17.1891C46.1963 17.1659 46.0564 17.1951 45.9411 17.2708ZM30.9142 16.9548C29.7698 17.2512 27.3055 17.6515 26.0814 16.8943C26.1799 16.6724 26.276 16.4463 26.3745 16.2244C27.7291 15.2358 30.7307 15.5861 31.9105 15.9128C32.2052 15.9918 32.4881 16.0889 32.7691 16.1926C32.1884 16.5298 31.5644 16.7862 30.9142 16.9548ZM35.3864 13.3537C35.091 14.0057 34.6817 14.6 34.1778 15.1085C31.9542 14.1332 29.5673 13.5823 27.295 14.0341C27.3834 13.8236 27.4684 13.6123 27.5585 13.3952C28.1039 12.0621 28.5964 10.7007 29.0915 9.34349C29.5289 8.14821 30.1871 6.83117 30.3518 5.52736C31.6201 5.95418 32.8006 6.60701 33.8362 7.45422C35.8027 8.97794 36.4389 11.0285 35.3864 13.3537ZM43.6728 17.933L43.5715 17.9271C43.3006 17.9001 43.0449 17.7894 42.8399 17.6104C43.0684 17.473 43.2969 17.3356 43.5181 17.1856C43.5958 17.4286 43.6477 17.6791 43.6728 17.933ZM42.7736 20.6398C42.0316 21.3952 38.9854 22.3242 39.5556 20.448C39.7529 19.7914 40.6313 19.0832 41.2703 18.6194C41.3608 18.7449 41.4643 18.8606 41.5789 18.9646C41.8338 19.1875 42.131 19.3568 42.4527 19.4625C42.7745 19.5682 43.1142 19.6082 43.4516 19.5799C43.2982 19.9687 43.0692 20.3233 42.778 20.6232L42.7736 20.6398Z" fill="#004D7B" fill-opacity="0.19"/>
<path d="M85.7136 36.1328C83.4365 35.2247 83.5553 32.4896 84.0597 30.5142C84.6094 28.37 85.5206 26.2942 85.6053 24.0573C85.6339 23.2881 84.5506 22.8134 84.0259 23.407C82.7262 24.9083 81.6972 26.6238 80.9848 28.4771C80.6969 28.7065 80.3845 28.9036 80.0535 29.0647C79.3795 29.3807 78.8322 29.5817 78.1608 29.1996C77.4893 28.8175 77.2759 28.395 77.4892 27.5724C77.922 25.9573 79.7925 24.8587 80.7065 23.5144C81.4968 22.3534 80.166 20.4573 78.7895 21.0107C77.6318 21.5165 76.663 22.374 76.0207 23.4614C75.335 23.6654 74.6394 23.8342 73.9364 23.967L73.8513 23.9797C73.9259 23.5453 73.9091 23.1001 73.8017 22.6725C73.6944 22.2449 73.4991 21.8443 73.2281 21.4964C72.9652 21.1822 72.6241 20.9427 72.2392 20.8022C72.1736 20.6154 72.0677 20.4453 71.9289 20.304C69.6735 17.9509 65.1917 20.8329 64.0931 23.1706C64.0144 23.3372 63.9449 23.5081 63.885 23.6824L63.5625 23.7201C64.639 20.6564 65.3161 17.0033 63.9786 14.2185C63.4554 13.1241 61.6888 13.4241 61.4255 14.5525C61.2276 15.3969 61.0754 16.2962 60.9354 17.2164C60.7198 18.1962 60.3483 19.135 59.8353 19.9971C59.0686 21.1893 56.5767 23.0437 55.4581 21.1903C54.8017 20.1028 55.6866 18.6549 56.279 17.7424C57.0515 16.5553 57.8591 15.3031 58.7203 14.1824C59.259 13.4967 58.5344 12.3589 57.7114 12.4364C53.0747 12.8363 48.9697 20.711 54.2 23.276C56.3523 24.3315 58.4469 23.7612 60.023 22.4099C59.8511 23.1171 59.634 23.8124 59.3729 24.4918C57.8623 24.8793 56.4017 25.4402 55.0202 26.1633C53.7522 26.8416 52.7666 28.0425 52.9272 29.5364C52.9873 30.1982 53.3046 30.8102 53.811 31.241C54.3174 31.6719 54.9726 31.8871 55.6359 31.8407C59.0229 31.7727 61.5115 28.6192 62.7403 25.7949C62.8787 25.4773 63.0208 25.1322 63.1597 24.7863C63.3223 24.7625 63.4897 24.7471 63.6547 24.7274C63.4205 27.0059 64.858 29.2321 67.4692 29.2507C69.8751 29.2674 72.4115 27.7371 73.4131 25.5224C74.0989 25.375 74.7609 25.1333 75.3804 24.8045C74.7596 26.5253 74.813 28.4587 75.9307 29.9181C77.0483 31.3775 78.7597 31.4423 80.3055 30.8136C80.1836 31.4019 80.1103 31.9992 80.0861 32.5994C79.9761 35.6596 82.071 38.8637 85.3997 38.7482C86.9805 38.7177 87.078 36.658 85.7136 36.1328ZM57.5956 27.5344C57.2489 27.9275 55.8665 29.4301 55.2644 29.2262C54.1687 28.851 56.2516 27.1317 56.3754 27.0408C56.8106 26.7726 57.2661 26.5388 57.7377 26.3416C58.0579 26.1933 58.3853 26.0575 58.7134 25.9326C58.3993 26.5013 58.0255 27.035 57.5982 27.5245L57.5956 27.5344ZM71.1147 26.0984C70.1793 27.0326 68.4695 27.7699 67.2193 26.9773C65.7749 26.0618 67.136 24.6386 68.6462 23.6527C68.9652 24.3379 69.5117 24.8917 70.1928 25.22C70.6196 25.4105 71.0695 25.5442 71.531 25.6176C71.405 25.7839 71.2679 25.9415 71.1206 26.0894L71.1147 26.0984ZM69.6764 23.0668C70.0882 22.8399 70.5308 22.6741 70.9904 22.5746C71.1973 22.5464 71.397 22.4796 71.5792 22.3777C72.1187 22.6428 72.2773 23.4551 72.2042 24.0989C71.0949 24.0393 69.8873 23.7902 69.6824 23.0578L69.6764 23.0668Z" fill="#004D7B" fill-opacity="0.19"/>
<path d="M81.0912 52.2298C79.391 51.196 77.6679 50.4328 76.1473 49.0996C74.9894 48.0811 73.9778 46.9076 73.1414 45.6124C74.0658 45.4416 74.9751 45.1978 75.8607 44.8831C77.5074 44.2885 80.6598 42.9765 80.4516 40.7462C80.1168 37.2263 74.7678 40.1917 72.1221 42.8455C72.96 40.0762 74.2998 37.5796 75.4354 34.8652C75.8857 33.794 74.8484 32.1539 73.6039 33.0229C70.1664 35.4256 68.2906 39.7367 67.5343 43.7517C67.3846 44.5487 67.2737 45.3467 67.2017 46.1457C66.5683 46.9727 65.6993 48.361 64.5724 48.6053C63.1476 48.9152 63.2354 47.2361 63.3831 46.2079C63.7212 43.8332 65.1148 41.7058 65.6548 39.3461C65.8942 38.307 64.6368 37.846 64.0073 38.5925C62.1656 37.2654 59.5007 37.8177 57.7222 39.0368C56.4227 39.9124 55.0131 41.6488 54.9032 43.3575C54.4104 43.7843 53.8717 44.1551 53.297 44.4632C52.2138 45.0349 50.2386 45.8749 49.0845 45.108C48.163 44.5064 48.3242 43.5209 48.8844 42.543C50.2997 42.6085 51.7149 42.4142 53.0599 41.9697C56.8558 40.5747 56.3162 35.1163 51.9087 35.5351C49.3571 35.7844 46.6962 37.8986 45.6233 40.4453L45.0168 40.4035C45.4794 39.3711 45.5722 38.211 45.2795 37.1181C44.3537 33.7768 41.5157 33.7436 39.2248 35.1127C39.2817 34.664 39.3114 34.2124 39.3139 33.7602C39.3205 32.2118 37.4095 31.9516 36.6113 33.036C36.159 33.6584 35.7652 34.3212 35.4347 35.0159C33.7684 34.8571 32.0891 34.8977 30.4325 35.137C30.3067 34.6398 30.1346 34.1555 29.9185 33.6903C29.0628 31.8364 25.0012 28.7651 26.5437 26.5322C28.0325 24.3807 32.6398 26.4488 33.3201 28.3479C33.3523 28.4493 33.4193 28.5361 33.5091 28.5931C33.599 28.6501 33.7061 28.6736 33.8116 28.6595C33.9171 28.6455 34.0142 28.5947 34.0859 28.5161C34.1576 28.4375 34.1993 28.3362 34.2037 28.23C34.2287 24.732 29.755 22.8806 26.7762 23.7567C25.9608 23.9889 25.2421 24.4777 24.7268 25.1505C24.2114 25.8233 23.9269 26.6443 23.9154 27.4916C23.8591 29.8213 25.3812 31.4671 26.6692 33.2312C27.2019 33.9566 27.6127 34.764 27.8853 35.6215C25.4996 36.19 23.2307 37.1675 21.1794 38.5106C19.6055 39.5752 18.586 41.7638 20.0586 43.3822C21.4264 44.9016 24.048 44.9478 25.8398 44.3283C28.6186 43.3772 30.2563 40.9747 30.6057 38.3192C31.8023 38.1857 32.9899 38.1386 34.214 38.1012C33.8318 39.2226 33.4912 40.3481 33.1346 41.3876C32.1989 44.1379 31.0938 46.8712 31.2699 49.8307C31.373 51.5787 34.2131 52.1872 34.5166 50.2466C34.724 48.9293 35.3866 47.7944 35.8415 46.547C36.1429 45.7268 36.4188 44.8962 36.6922 44.0613C37.1721 44.44 37.7563 44.6634 38.3665 44.7015C40.3758 44.8603 42.5152 43.7912 43.922 42.171L45.1633 42.2944C45.0712 43.2314 45.2494 44.1752 45.6769 45.0144C47.6581 48.9081 52.3709 47.5352 55.5244 45.3579C56.5665 46.5559 58.5522 45.9812 59.8795 45.2408C60.1137 45.1084 60.3365 44.9659 60.5568 44.8192C59.9353 46.5292 59.8202 48.2968 60.9234 50.0752C62.4693 52.5858 65.1982 51.9797 67.2477 50.4253C67.4294 52.3967 67.6904 54.6021 68.908 56.1521C69.9326 57.4554 71.6581 56.2221 71.7948 54.9569C71.9689 53.3399 71.3031 51.5723 71.2557 49.9208C71.229 48.9528 71.261 47.984 71.3514 47.0199C72.7421 50.5603 76.809 53.8635 80.0563 54.7939C81.5555 55.2133 82.425 53.0413 81.0912 52.2298ZM51.6493 39.5237C51.9931 39.2611 52.5533 38.6805 53.0271 38.6478C53.9921 38.5836 53.3484 39.5285 52.8675 39.8395C52.1624 40.2388 51.3719 40.4637 50.5619 40.4952C50.9076 40.153 51.2705 39.8288 51.6493 39.5237ZM27.6606 39.5733C27.148 40.6174 26.2557 41.4263 25.1661 41.8349C24.6038 42.039 21.8173 42.5552 22.0002 41.2633C22.1085 40.5013 24.3712 39.8731 24.9494 39.6627C25.935 39.3094 26.9409 39.015 27.9616 38.7813C27.885 39.0537 27.7843 39.3188 27.6606 39.5733ZM38.523 42.4484C38.4048 41.803 39.5266 41.9617 40.0267 41.9503C40.4326 41.9455 40.835 41.954 41.2398 41.9667C40.3234 42.5122 38.6805 43.2781 38.523 42.4484ZM43.0131 40.2638C42.2929 40.2092 41.571 40.1612 40.847 40.1339C39.9435 40.1011 38.8333 40.0449 37.8915 40.314C38.2172 39.337 38.5329 38.3575 38.7824 37.3601C39.1533 37.0785 39.5469 36.828 39.9592 36.6113C41.5333 35.7844 43.7088 35.9984 43.6961 38.2582C43.6698 38.9746 43.4335 39.6674 43.0167 40.2506L43.0131 40.2638ZM61.2001 42.0474C60.6686 42.6008 60.078 43.0944 59.439 43.5194C58.9749 43.8207 57.2615 44.6244 58.201 43.5956C59.3437 42.3516 60.7425 41.6622 62.1644 40.9791C61.8564 41.347 61.5453 41.7 61.2136 42.0368L61.2001 42.0474Z" fill="#004D7B" fill-opacity="0.19"/>
<path d="M76.4636 81.5425C74.2237 80.1513 76.5124 75.4117 77.3519 73.6963C78.1345 72.1005 79.6419 68.6343 77.2554 67.6046C75.2206 66.7331 72.8338 68.0232 71.4166 69.4171C71.2382 69.5928 71.0479 69.7866 70.8498 69.996C70.9714 69.1843 71.0963 68.3736 71.2451 67.5798C73.6548 65.8204 77.4259 62.0137 75.7452 58.8533C75.398 58.2144 74.8161 57.7352 74.1222 57.5168C73.4283 57.2985 72.6768 57.358 72.0262 57.6829C70.1498 58.5388 68.9917 60.6619 68.295 62.4936C67.5803 64.5245 67.0684 66.6212 66.7669 68.753C66.0595 69.0743 65.3434 69.3755 64.6366 69.6685C64.46 68.8479 64.1488 68.0621 63.7155 67.343C63.1051 66.4393 62.292 65.6906 61.3409 65.1565C61.5545 63.763 61.0638 62.2161 59.675 61.6099C57.9245 60.8429 57.0925 62.6099 57.7211 64.066C58.1008 64.8545 58.6606 65.5427 59.3552 66.0753C58.8702 66.9076 58.2318 67.6405 57.4737 68.2352C56.2401 69.249 50.9373 72.3864 51.1984 68.8417C51.3574 66.685 53.5226 65.1226 54.711 63.4829C55.4669 62.4369 54.2028 60.7821 52.985 61.2468C50.4456 62.2052 48.8956 64.5852 48.2368 67.1897L48.1916 67.3585C47.6406 68.3815 46.8653 69.4862 45.9464 69.8288C45.5478 69.9916 45.7981 70.1438 45.4095 69.8056C45.285 69.5459 45.2013 69.2686 45.1612 68.9835C45.065 68.416 45.0631 67.8366 45.1557 67.2687C45.311 66.2854 45.5368 65.3145 45.8312 64.3635C46.4104 63.9902 46.9683 63.6041 47.4941 63.1916C49.8822 61.3271 51.466 58.9669 52.631 56.1823C53.4185 54.2897 54.5048 50.5937 51.294 50.269C48.5282 49.9926 46.058 53.5413 44.8959 55.5995C43.2984 58.4334 42.2273 61.5331 41.7345 64.7486C41.7062 64.9468 41.6828 65.1533 41.6601 65.3707C41.2601 65.6183 40.8612 65.8484 40.4572 66.0842C40.8621 63.4471 41.2147 60.7534 41.0435 58.1464C41.0361 57.9635 40.968 57.7882 40.8501 57.6481C40.7321 57.5079 40.5709 57.411 40.3918 57.3723C40.3809 57.0885 40.267 56.8182 40.0716 56.6118C39.8761 56.4055 39.6124 56.277 39.3293 56.2505C36.6982 55.7761 34.0662 56.4578 32.5076 58.8035C31.7509 59.9451 30.9584 61.9356 31.1408 63.5205C30.1347 64.3089 29.0595 65.005 27.9282 65.6003C27.3983 65.9287 26.8064 66.1444 26.1894 66.2341C26.2135 66.1456 26.2439 66.0589 26.2802 65.9746C26.4148 65.6312 26.5057 65.2653 26.6446 64.9194C27.8018 62.005 30.4671 58.7746 30.1306 55.46C29.8959 53.1694 27.3782 52.3778 25.4813 53.3629C24.5236 53.9085 23.6952 54.6545 23.053 55.55C23.2129 54.3797 23.1813 53.1912 22.9594 52.0309C22.7901 51.2583 22.0736 51.0841 21.4728 51.2991C21.2429 51.2565 21.0054 51.2833 20.7908 51.3762C20.5762 51.4691 20.3943 51.6238 20.2681 51.8206C17.8663 55.2599 14.0437 58.9145 9.7 59.5455C6.61609 59.9927 7.93815 56.9664 9.16953 55.5901C10.7534 53.8258 13.0864 54.2204 15.1436 53.6436C16.6459 53.2302 16.4422 50.6784 14.8488 50.7693C14.4219 50.684 13.9896 50.6286 13.555 50.6035C11.3222 49.7818 8.85588 46.5066 11.4193 45.1006C13.5277 43.9487 16.751 45.2203 17.8916 47.1505C18.2798 47.8079 19.1591 47.3483 19.0507 46.6665C18.4921 43.0547 12.4564 41.9057 9.91428 43.8814C8.41786 45.0413 8.06697 46.9337 8.84467 48.6284C9.25693 49.4897 9.83938 50.2588 10.5569 50.8892C8.80124 51.2852 7.21159 52.2149 6.00644 53.5506C3.89005 56.0307 2.51204 60.4183 5.92022 62.5234C8.95254 64.3753 12.9447 62.5788 15.5803 60.7841C16.5491 60.1212 17.4515 59.3663 18.2751 58.5301C18.0582 59.4191 17.94 60.3239 18.1824 61.0486C18.5609 62.1929 19.5561 62.6653 20.7076 62.4879L20.8002 62.4737C21.6407 62.3442 22.28 61.3626 22.2568 60.5086C22.2745 60.4424 22.2883 60.3645 22.2981 60.2749C23.0049 59.1341 23.6336 57.9404 24.3766 56.8234C24.8208 56.1235 25.3654 55.4926 25.993 54.9508C26.1975 54.7717 26.4185 54.6124 26.653 54.475L28.097 54.8619C28.2181 55.0327 27.9774 55.706 27.9127 55.8944C27.3467 57.5164 26.089 58.9247 25.2158 60.3685C24.3426 61.8124 23.4248 63.4359 22.9417 65.0801C22.1598 67.7332 24.1082 70.2914 26.9738 69.5198C29.1717 68.8217 31.0908 67.4443 32.4545 65.5858C33.7978 66.2827 35.4444 65.1454 36.5763 64.2994C36.975 64.0026 37.3483 63.6731 37.6922 63.3143C37.304 64.9484 36.9788 66.5994 36.6142 68.2116C36.5894 68.3042 36.5646 68.3969 36.5397 68.4896C35.9132 68.907 35.2996 69.3421 34.7072 69.8041C32.9705 71.1585 30.6108 73.1689 30.6455 75.5833C30.7014 78.5673 33.9202 78.5572 35.8287 77.2772C38.5741 75.4304 39.5421 72.2418 39.9958 69.1176C40.069 68.6194 40.1472 68.1153 40.2264 67.608C40.6741 67.3413 41.1309 67.0806 41.5901 66.8241C41.5876 69.1256 42.1649 71.7137 44.3508 72.5513C45.9996 73.181 47.4844 72.1174 48.6198 70.6622C49.0264 71.353 49.6753 71.8681 50.4404 72.1078C52.6441 72.826 55.3517 71.5047 57.2116 70.3926C58.6023 69.6133 59.7705 68.4916 60.6051 67.1339C61.24 67.6396 61.7608 68.2735 62.1336 68.9943C62.3534 69.4627 62.5083 69.9589 62.5939 70.4691C60.6142 71.2334 58.5517 72.1742 58.1963 74.4414C58.1793 74.5359 58.1811 74.6328 58.2015 74.7266C58.1548 74.9629 58.1553 75.2061 58.2029 75.4422C58.2505 75.6784 58.3442 75.9028 58.4788 76.1027C59.3402 77.419 61.2184 77.4044 62.4361 76.6487C64.3042 75.4927 64.9789 73.1869 64.817 70.969L65.2148 70.8095C65.6511 70.625 66.0851 70.4362 66.5133 70.2423C66.1344 72.5174 65.7558 74.9771 65.932 77.2343C65.963 77.6265 66.1282 77.9962 66.3997 78.2812C66.6713 78.5662 67.0327 78.7491 67.4232 78.7992C67.8137 78.8493 68.2096 78.7636 68.5442 78.5564C68.8788 78.3493 69.1319 78.0333 69.2608 77.6615C69.7604 76.1824 70.1307 74.6628 70.3677 73.1197C70.4439 72.9946 70.5242 72.8672 70.6102 72.7448C71.3896 71.6376 72.3119 70.448 73.4556 69.6903C73.8357 69.4375 75.3632 68.5591 75.8638 68.9167C76.1284 69.1082 75.762 69.4818 75.5432 69.8347C74.8245 70.9936 73.9486 72.0501 73.2684 73.2371C71.998 75.4614 71.2318 78.0691 71.4867 80.6417C71.7097 82.883 73.4454 85.5332 76.047 84.6341C76.3622 84.5393 76.6434 84.3558 76.857 84.1055C77.0706 83.8552 77.2075 83.5487 77.2514 83.2227C77.2954 82.8967 77.2444 82.5648 77.1047 82.2669C76.965 81.9689 76.7424 81.7175 76.4636 81.5425ZM47.7165 59.3811C48.2511 58.1606 48.8574 56.9727 49.5323 55.8237C49.8818 55.208 50.2535 54.6158 50.6179 54.0111C51.2444 52.9977 51.9975 52.373 51.5393 54.4141C50.8922 57.2665 48.8873 59.9396 46.709 61.8425C47.0434 60.9921 47.3824 60.1642 47.7165 59.3811ZM38.2891 61.0337C38.0178 61.3986 37.7243 61.7465 37.4101 62.0752C37.1213 62.3845 34.327 64.9702 33.8991 63.7452C33.5943 62.869 35.436 61.2022 35.9352 60.7435C36.7297 60.0306 37.8376 59.2739 38.918 59.1235C38.6837 59.7595 38.4785 60.3928 38.2891 61.0337ZM35.1151 72.8789C34.7255 73.5514 34.2325 74.2919 33.5233 74.673C33.0299 74.938 33.0844 75.1584 33.5247 74.3896C33.8254 73.8636 33.9535 73.2665 34.2965 72.7412C34.7902 71.9907 35.3663 71.298 36.0143 70.6758C35.8099 71.4448 35.5112 72.1857 35.1251 72.8816L35.1151 72.8789ZM59.4619 63.9152C58.417 63.3988 58.4446 62.9557 59.5448 62.5859L59.9066 63.6336C59.9351 63.836 59.9409 64.041 59.9238 64.2448C59.7775 64.1417 59.6254 64.0336 59.4718 63.9179L59.4619 63.9152ZM61.5337 74.651C61.3755 74.8555 61.1626 75.0111 60.9196 75.0997C60.6766 75.1884 60.4135 75.2066 60.1605 75.1522C60.0145 75.1162 59.8811 75.0408 59.7751 74.9342C59.669 74.8276 59.5944 74.6939 59.5593 74.5477C60.1403 73.3199 61.3608 72.5012 62.6645 71.875C62.6452 72.168 62.6016 72.4589 62.5344 72.7447C62.3837 73.4592 62.0412 74.1191 61.5436 74.6537L61.5337 74.651ZM73.2016 60.1723C73.5843 59.9627 73.9237 60.6567 73.9747 61.089C74.0647 61.9325 73.3934 63.0864 72.9927 63.7736C72.6241 64.4025 72.1819 64.9854 71.6755 65.51C72.0105 64.0744 72.3918 62.6513 72.8195 61.2406C72.9096 61.0235 72.9865 60.2992 73.2115 60.175L73.2016 60.1723Z" fill="#004D7B" fill-opacity="0.19"/>
<path d="M92.887 65.1739C92.3853 60.091 85.2415 61.2098 82.9942 64.2578C82.4922 64.9391 83.451 65.799 84.1106 65.3905C85.3107 64.6479 86.52 64.0957 87.9571 64.1509C89.3942 64.2061 90.5547 64.737 89.8766 66.3537C89.059 68.3056 86.4443 69.6908 84.411 68.9331C83.4439 68.5676 82.2368 69.5353 82.3299 70.5393C82.5089 71.9189 82.3758 73.3209 81.9405 74.642C81.0353 77.1593 85.2519 78.3671 86.0044 75.731C86.3581 74.5733 86.4551 73.3525 86.2885 72.1534C87.6438 72.019 88.9379 71.5228 90.0352 70.7168C91.7707 69.433 93.1134 67.3629 92.887 65.1739Z" fill="#004D7B" fill-opacity="0.19"/>
<path d="M85.4519 79.0131C85.1437 78.7054 84.7397 78.5121 84.3066 78.465C83.8853 78.4136 83.4583 78.4937 83.0844 78.6944C83.0422 78.7096 83.0033 78.7329 82.9701 78.7631C82.8454 78.8278 82.7311 78.9107 82.6309 79.0092C82.3485 79.1287 82.0961 79.3093 81.8918 79.5379C81.6875 79.7665 81.5365 80.0375 81.4494 80.3315C81.3732 80.6269 81.3601 80.9351 81.411 81.236C81.4618 81.5369 81.5756 81.8237 81.7447 82.0778C81.9284 82.3763 82.1767 82.6298 82.4714 82.8198C82.766 83.0098 83.0995 83.1313 83.4473 83.1755C83.7951 83.2197 84.1484 83.1854 84.4811 83.0751C84.8138 82.9648 85.1175 82.7814 85.3699 82.5384C85.8434 82.079 86.1173 81.4521 86.1327 80.7927C86.148 80.1333 85.9035 79.4942 85.4519 79.0131Z" fill="#004D7B" fill-opacity="0.19"/>
<path d="M59.3273 58.4729C59.3176 57.9529 59.1072 57.4567 58.7399 57.0882C58.3982 56.7544 57.9553 56.5434 57.4807 56.4883C57.2166 56.4353 56.9434 56.4487 56.6858 56.5271C56.5256 56.5739 56.3707 56.637 56.2235 56.7154C55.9629 56.8867 55.7401 57.1095 55.5689 57.3701C55.4107 57.6425 55.3278 57.952 55.3286 58.267C55.3316 58.4231 55.3544 58.5782 55.3966 58.7286C55.4154 59.1735 55.591 59.5975 55.8923 59.9256C56.2641 60.297 56.767 60.5074 57.2926 60.5115C57.8181 60.5156 58.3241 60.3131 58.7014 59.9476C58.8992 59.7562 59.0565 59.5271 59.164 59.2737C59.2715 59.0204 59.3271 58.7481 59.3273 58.4729Z" fill="#004D7B" fill-opacity="0.19"/>
</g>
<defs>
<clipPath id="clip0_200_23908">
<rect width="88.1629" height="71.6802" fill="white" transform="translate(19.3354 0.269943) rotate(15)"/>
</clipPath>
</defs>
</svg>
