<svg width="142" height="209" viewBox="0 0 142 209" fill="none" xmlns="http://www.w3.org/2000/svg">
<g clip-path="url(#clip0_200_23917)">
<path d="M36.6175 37.324C36.6175 37.324 44.2908 4.7233 78.8898 6.06505C113.489 7.40681 118.822 35.9961 118.649 40.5717C118.476 45.1473 36.6175 37.324 36.6175 37.324Z" fill="#C62424"/>
<path d="M36.6099 37.3181L31.168 179.74L113.2 182.875L118.642 40.4525L36.6099 37.3181Z" fill="#C62424"/>
<path d="M111.62 44.7125L83.8911 43.6535L71.0898 43.1631L43.3613 42.1041C42.7012 42.0785 42.0579 42.3158 41.5725 42.7639C41.0871 43.2121 40.7994 43.8345 40.7724 44.4946L40.3451 55.7437C40.3314 56.0703 40.3825 56.3965 40.4953 56.7033C40.6082 57.0102 40.7807 57.2917 41.0028 57.5316C41.2248 57.7716 41.4921 57.9653 41.7893 58.1015C42.0865 58.2378 42.4077 58.314 42.7345 58.3256L70.4709 59.3905L83.2712 59.874L111 60.9329C111.326 60.9466 111.652 60.8955 111.959 60.7826C112.266 60.6697 112.548 60.4973 112.788 60.2752C113.028 60.0532 113.221 59.7858 113.358 59.4886C113.494 59.1914 113.57 58.8702 113.582 58.5435L114.015 47.2864C114.038 46.6275 113.799 45.9862 113.35 45.5036C112.901 45.0209 112.278 44.7364 111.62 44.7125Z" fill="#A31C1C"/>
<path d="M110.775 66.3163L83.0328 65.2594L70.2386 64.7679L42.5052 63.724C42.1788 63.7113 41.853 63.763 41.5466 63.8762C41.2401 63.9895 40.959 64.1619 40.7193 64.3838C40.4795 64.6057 40.2858 64.8727 40.1492 65.1694C40.0126 65.4662 39.9358 65.787 39.9232 66.1134L39.6601 73.1167L39.4969 77.3695L36.1536 164.787L36.0719 166.985L35.7273 176.043C35.7147 176.369 35.7663 176.695 35.8796 177.001C35.9928 177.308 36.1653 177.589 36.3872 177.829C36.6091 178.069 36.876 178.262 37.1728 178.399C37.4696 178.535 37.7903 178.612 38.1167 178.625L65.8522 179.683L78.6455 180.167L106.381 181.225C106.707 181.238 107.033 181.186 107.34 181.073C107.646 180.96 107.927 180.787 108.167 180.565C108.407 180.343 108.6 180.076 108.737 179.78C108.874 179.483 108.95 179.162 108.963 178.836L109.309 169.784L109.396 167.579L112.733 80.1694L112.896 75.9096L113.16 68.9132C113.175 68.586 113.125 68.259 113.013 67.9511C112.901 67.6433 112.729 67.3606 112.507 67.1193C112.286 66.878 112.019 66.6828 111.721 66.545C111.424 66.4072 111.103 66.3295 110.775 66.3163Z" fill="#E33C36"/>
<path d="M80.1053 10.6995C80.1053 10.6995 63.1087 9.75878 50.6509 21.7676C38.193 33.7765 43.4674 37.5599 44.8208 37.6309L107.146 40.0177C110.435 40.1378 114.565 40.9622 112.265 35.317C109.964 29.6717 98.1293 12.4524 80.1053 10.6995Z" fill="#E33C36"/>
<path d="M58.4781 28.7517C58.4781 28.7517 64.2254 16.2864 78.6289 16.8396C93.0324 17.3928 99.861 28.4891 97.0253 31.8661C95.0993 34.1513 55.4932 35.9937 58.4781 28.7517Z" fill="#A31C1C"/>
<path d="M103.748 48.2781L87.0964 47.6433L84.8615 47.5528L69.7764 46.9791L68.2172 46.9171L50.8833 46.2549C50.6388 46.2473 50.4013 46.3367 50.2226 46.5037C50.0439 46.6707 49.9385 46.9017 49.9295 47.1461L49.6503 54.3304C49.641 54.5709 49.725 54.8057 49.8848 54.9857C50.0446 55.1657 50.2677 55.277 50.5076 55.2963L67.8486 55.9575L69.3997 56.0135L84.4859 56.5942L86.7197 56.6778L103.371 57.3125C103.611 57.3255 103.847 57.2427 104.027 57.0822C104.207 56.9218 104.316 56.6967 104.33 56.4562L104.609 49.272C104.619 49.1498 104.605 49.0269 104.567 48.9103C104.529 48.7938 104.468 48.6861 104.388 48.5934C104.308 48.5008 104.21 48.4252 104.1 48.371C103.99 48.3169 103.87 48.2853 103.748 48.2781Z" fill="#E33C36"/>
<path d="M65.3466 95.5067C65.3351 95.8176 65.2624 96.1232 65.1328 96.4059C65.0031 96.6887 64.819 96.9431 64.591 97.1547C64.3629 97.3662 64.0954 97.5307 63.8037 97.6388C63.512 97.7469 63.2019 97.7965 62.891 97.7846L51.7068 97.3619C51.0782 97.3371 50.4852 97.0639 50.0579 96.6021C49.6306 96.1404 49.4041 95.528 49.428 94.8993L50.1825 75.8731C50.1931 75.5617 50.265 75.2555 50.3942 74.972C50.5234 74.6885 50.7074 74.4333 50.9354 74.221C51.1634 74.0088 51.4312 73.8436 51.7232 73.735C52.0152 73.6264 52.3257 73.5766 52.637 73.5882L63.8222 74.018C64.134 74.0294 64.4405 74.1021 64.7241 74.232C65.0078 74.3619 65.2631 74.5464 65.4754 74.775C65.6877 75.0036 65.8528 75.2718 65.9614 75.5643C66.07 75.8568 66.1198 76.1678 66.1081 76.4796L65.3466 95.5067Z" fill="white"/>
<path d="M83.3704 96.1954C83.3589 96.5063 83.2863 96.8118 83.1566 97.0946C83.0269 97.3774 82.8428 97.6318 82.6147 97.8433C82.3867 98.0549 82.1192 98.2194 81.8275 98.3275C81.5358 98.4356 81.2256 98.4851 80.9148 98.4733L69.7237 98.0516C69.0957 98.025 68.5037 97.7512 68.0768 97.2898C67.6499 96.8285 67.4227 96.2172 67.4447 95.589L68.1993 76.5628C68.2241 75.9338 68.497 75.3402 68.9582 74.9118C69.4195 74.4835 70.0317 74.2552 70.6609 74.2769L81.846 74.7067C82.1576 74.718 82.4638 74.7908 82.7472 74.9208C83.0306 75.0509 83.2854 75.2356 83.4972 75.4644C83.7089 75.6933 83.8734 75.9617 83.9811 76.2542C84.0888 76.5468 84.1377 76.8577 84.1249 77.1693L83.3704 96.1954Z" fill="white"/>
<path d="M101.488 96.8916C101.463 97.5202 101.19 98.1133 100.728 98.5406C100.266 98.9679 99.6538 99.1944 99.0251 99.1705L87.84 98.7408C87.2114 98.716 86.6183 98.4427 86.191 97.981C85.7637 97.5193 85.5372 96.9068 85.5611 96.2782L86.3156 77.252C86.3407 76.6248 86.6131 76.0331 87.0733 75.6062C87.5335 75.1794 88.144 74.9521 88.7713 74.9741L99.9623 75.3958C100.273 75.408 100.579 75.4815 100.862 75.612C101.144 75.7425 101.398 75.9275 101.609 76.1563C101.82 76.3852 101.984 76.6534 102.091 76.9456C102.199 77.2379 102.247 77.5484 102.234 77.8594L101.488 96.8916Z" fill="white"/>
<path d="M64.3564 121.575C64.3298 122.203 64.056 122.795 63.5946 123.222C63.1333 123.649 62.5219 123.876 61.8938 123.854L50.7097 123.431C50.0817 123.405 49.4897 123.131 49.0628 122.669C48.6359 122.208 48.4087 121.597 48.4307 120.969L49.1853 101.942C49.1966 101.631 49.2694 101.324 49.3993 101.041C49.5292 100.757 49.7137 100.502 49.9423 100.289C50.1709 100.077 50.4391 99.9118 50.7316 99.8033C51.0241 99.6947 51.3351 99.6448 51.6469 99.6565L62.832 100.086C63.4606 100.111 64.0537 100.384 64.481 100.846C64.9083 101.308 65.1349 101.92 65.1109 102.549L64.3564 121.575Z" fill="white"/>
<path d="M82.3867 122.263C82.3601 122.891 82.0862 123.483 81.6249 123.91C81.1636 124.336 80.5522 124.564 79.924 124.542L68.734 124.127C68.4224 124.116 68.1161 124.043 67.8328 123.913C67.5494 123.783 67.2946 123.598 67.0828 123.369C66.8711 123.14 66.7066 122.872 66.5989 122.579C66.4912 122.287 66.4423 121.976 66.4551 121.664L67.2085 102.631C67.22 102.32 67.2927 102.015 67.4223 101.732C67.552 101.449 67.7362 101.195 67.9642 100.983C68.1923 100.772 68.4598 100.607 68.7515 100.499C69.0432 100.391 69.3533 100.341 69.6642 100.353L80.8494 100.783C81.1612 100.794 81.4676 100.867 81.7513 100.997C82.0349 101.127 82.2902 101.311 82.5024 101.54C82.7147 101.769 82.8799 102.037 82.9885 102.329C83.0971 102.622 83.1469 102.933 83.1352 103.245L82.3867 122.263Z" fill="white"/>
<path d="M100.497 122.953C100.486 123.265 100.413 123.571 100.283 123.855C100.153 124.139 99.9687 124.394 99.7401 124.606C99.5115 124.818 99.2433 124.984 98.9508 125.092C98.6584 125.201 98.3474 125.251 98.0356 125.239L86.8504 124.809C86.2218 124.784 85.6287 124.511 85.2015 124.049C84.7742 123.588 84.5476 122.975 84.5715 122.347L85.326 103.32C85.3508 102.692 85.624 102.099 86.0858 101.671C86.5475 101.244 87.16 101.018 87.7886 101.041L98.9738 101.471C99.2847 101.483 99.5902 101.555 99.873 101.685C100.156 101.815 100.41 101.999 100.622 102.227C100.833 102.455 100.998 102.722 101.106 103.014C101.214 103.306 101.263 103.616 101.252 103.927L100.497 122.953Z" fill="white"/>
<path d="M63.3515 147.831C63.3264 148.458 63.054 149.05 62.5938 149.477C62.1336 149.904 61.5231 150.131 60.8958 150.109L49.7037 149.681C49.3929 149.669 49.0873 149.596 48.8045 149.467C48.5217 149.337 48.2673 149.153 48.0557 148.925C47.8442 148.697 47.6797 148.429 47.5716 148.138C47.4635 147.846 47.414 147.536 47.4258 147.225L48.1793 128.192C48.2059 127.564 48.4798 126.972 48.9411 126.545C49.4024 126.118 50.0138 125.891 50.6419 125.913L61.8271 126.343C62.4557 126.367 63.0488 126.641 63.4761 127.102C63.9034 127.564 64.1299 128.176 64.106 128.805L63.3515 147.831Z" fill="white"/>
<path d="M81.3744 148.52C81.3497 149.149 81.0764 149.742 80.6146 150.169C80.1529 150.596 79.5404 150.823 78.9118 150.799L67.7267 150.369C67.4158 150.358 67.1103 150.285 66.8275 150.155C66.5448 150.026 66.2902 149.842 66.0787 149.614C65.8671 149.385 65.7026 149.118 65.5945 148.826C65.4864 148.535 65.4369 148.224 65.4488 147.914L66.2022 128.88C66.2289 128.252 66.5027 127.66 66.964 127.234C67.4253 126.807 68.0367 126.579 68.6649 126.601L79.85 127.031C80.1609 127.043 80.4665 127.115 80.7492 127.245C81.032 127.375 81.2864 127.559 81.498 127.787C81.7095 128.015 81.8741 128.282 81.9822 128.574C82.0902 128.866 82.1398 129.176 82.1279 129.487L81.3744 148.52Z" fill="white"/>
<path d="M99.4921 149.216C99.4808 149.528 99.408 149.834 99.2778 150.117C99.1476 150.4 98.9626 150.654 98.7336 150.865C98.5045 151.077 98.2359 151.24 97.9433 151.347C97.6506 151.454 97.3397 151.502 97.0284 151.488L85.8444 151.065C85.5333 151.053 85.2277 150.98 84.9451 150.849C84.6625 150.719 84.4084 150.534 84.1973 150.305C83.9863 150.076 83.8225 149.808 83.7153 149.516C83.6081 149.223 83.5595 148.913 83.5724 148.602L84.3269 129.576C84.3384 129.265 84.4111 128.959 84.5407 128.676C84.6704 128.394 84.8546 128.139 85.0826 127.928C85.3107 127.716 85.5782 127.552 85.8699 127.443C86.1616 127.335 86.4717 127.286 86.7826 127.298L97.9667 127.72C98.5958 127.745 99.1894 128.018 99.6177 128.479C100.046 128.941 100.274 129.553 100.253 130.182L99.4921 149.216Z" fill="white"/>
<path d="M115.653 181.567L108.749 181.303L101.853 181.038L42.646 178.776L35.5137 178.51L28.8472 178.254C28.5113 178.241 28.176 178.294 27.8606 178.41C27.5451 178.527 27.2557 178.704 27.0089 178.932C26.7621 179.16 26.5627 179.435 26.4221 179.741C26.2816 180.046 26.2025 180.376 26.1896 180.712L25.8438 189.713C25.8306 190.05 25.8839 190.385 26.0008 190.701C26.1176 191.017 26.2956 191.307 26.5246 191.553C26.7536 191.8 27.029 191.999 27.3352 192.139C27.6413 192.28 27.9721 192.358 28.3085 192.37L34.9751 192.626L42.1083 192.898L101.315 195.161L108.212 195.426L115.108 195.69C115.788 195.715 116.45 195.469 116.949 195.007C117.448 194.545 117.744 193.904 117.772 193.224L118.118 184.223C118.142 183.544 117.897 182.883 117.435 182.385C116.972 181.887 116.332 181.593 115.653 181.567Z" fill="#A31C1C"/>
<path d="M92.5455 161.159L86.7985 160.939L79.8951 160.675L66.0953 160.147L60.4563 159.931L53.439 159.67C53.0754 159.655 52.7124 159.712 52.3709 159.838C52.0294 159.963 51.7163 160.155 51.4494 160.403C51.1826 160.65 50.9673 160.948 50.8161 161.279C50.6649 161.61 50.5808 161.967 50.5686 162.331L50.3052 169.284C50.2908 169.648 50.3483 170.011 50.4743 170.353C50.6003 170.694 50.7924 171.008 51.0396 171.275C51.2868 171.542 51.5843 171.758 51.915 171.91C52.2457 172.062 52.6032 172.148 52.967 172.162L59.9783 172.431L65.6163 172.639L79.4161 173.167L86.3195 173.431L92.0665 173.651C92.4298 173.666 92.7924 173.608 93.1335 173.482C93.4745 173.356 93.7874 173.164 94.0541 172.917C94.3207 172.67 94.536 172.373 94.6874 172.042C94.8389 171.711 94.9237 171.354 94.9368 170.991L95.2072 164.036C95.2217 163.673 95.1642 163.31 95.0382 162.968C94.9122 162.627 94.72 162.313 94.4728 162.046C94.2256 161.779 93.9281 161.563 93.5974 161.411C93.2667 161.258 92.9093 161.173 92.5455 161.159Z" fill="#A31C1C"/>
</g>
<defs>
<clipPath id="clip0_200_23917">
<rect width="113.86" height="193.811" fill="white" transform="translate(0.204102 16.8222) rotate(-8.42182)"/>
</clipPath>
</defs>
</svg>
