<svg width="332" height="66" viewBox="0 0 332 66" fill="none" xmlns="http://www.w3.org/2000/svg">
<path d="M1.52996 65.88C1.20214 65.8745 0.884288 65.7665 0.620961 65.5712C0.357633 65.3758 0.162062 65.103 0.0616955 64.7908C-0.0386709 64.4787 -0.0387954 64.143 0.0613293 63.8307C0.161454 63.5185 0.356808 63.2455 0.619984 63.05C0.729984 62.97 3.40998 60.95 8.54998 57.63C8.90067 57.4336 9.31303 57.3782 9.70311 57.4752C10.0932 57.5721 10.4316 57.8141 10.6496 58.1519C10.8675 58.4896 10.9485 58.8977 10.8761 59.2931C10.8038 59.6885 10.5834 60.0414 10.2599 60.28C5.22994 63.56 2.52996 65.56 2.52996 65.56C2.2444 65.7805 1.89048 65.8938 1.52996 65.88ZM17.41 55.56C17.1441 55.554 16.8842 55.48 16.6549 55.3453C16.4256 55.2105 16.2346 55.0193 16.1 54.79C15.8866 54.4316 15.8237 54.0033 15.9249 53.5987C16.026 53.1941 16.2831 52.8459 16.6399 52.63C19.3099 51.05 22.0899 49.45 24.8899 47.9C25.2537 47.7225 25.6718 47.6913 26.0578 47.813C26.4439 47.9347 26.7686 48.1999 26.9648 48.5539C27.1611 48.9079 27.214 49.3237 27.1126 49.7156C27.0112 50.1075 26.7633 50.4455 26.42 50.66C23.64 52.19 20.8899 53.77 18.2499 55.34C17.998 55.4951 17.7056 55.5717 17.41 55.56ZM435.53 64.99C435.273 64.9873 435.022 64.9184 434.8 64.79L431.56 62.98C431.195 62.7771 430.926 62.4376 430.812 62.0363C430.697 61.635 430.747 61.2047 430.95 60.84C431.153 60.4754 431.492 60.2062 431.894 60.0918C432.295 59.9774 432.725 60.0271 433.09 60.23C434.18 60.83 435.26 61.44 436.34 62.05C436.521 62.15 436.68 62.2849 436.809 62.4471C436.937 62.6092 437.032 62.7953 437.088 62.9944C437.144 63.1936 437.159 63.4018 437.134 63.6071C437.109 63.8123 437.043 64.0105 436.94 64.19C436.802 64.4405 436.597 64.6478 436.348 64.789C436.099 64.9302 435.816 64.9998 435.53 64.99ZM423.99 58.67C423.745 58.6614 423.506 58.5964 423.29 58.48C420.503 56.9866 417.72 55.5333 414.94 54.12C414.756 54.0261 414.593 53.8969 414.459 53.7398C414.325 53.5827 414.223 53.4007 414.159 53.2043C414.096 53.0079 414.072 52.8009 414.088 52.5952C414.104 52.3894 414.161 52.1889 414.255 52.005C414.349 51.8212 414.478 51.6576 414.635 51.5237C414.792 51.3898 414.974 51.2881 415.171 51.2245C415.367 51.1609 415.574 51.1366 415.78 51.153C415.986 51.1693 416.186 51.2261 416.37 51.32C419.163 52.74 421.963 54.2 424.77 55.7C425.099 55.8591 425.363 56.1275 425.517 56.4594C425.67 56.7914 425.704 57.1663 425.612 57.5203C425.52 57.8743 425.308 58.1854 425.012 58.4005C424.716 58.6156 424.355 58.7215 423.99 58.7V58.67ZM33.99 46.38C33.6338 46.3771 33.289 46.254 33.0116 46.0306C32.7342 45.8072 32.5405 45.4966 32.4618 45.1493C32.383 44.8019 32.424 44.4382 32.5779 44.1171C32.7319 43.7959 32.9899 43.5362 33.31 43.38C36.1 41.94 38.95 40.51 41.8 39.13C41.9858 39.0394 42.1876 38.9862 42.394 38.9736C42.6003 38.961 42.8071 38.9892 43.0026 39.0565C43.1981 39.1238 43.3784 39.229 43.5332 39.366C43.688 39.503 43.8143 39.6692 43.905 39.855C43.9956 40.0408 44.0487 40.2427 44.0613 40.449C44.0739 40.6554 44.0458 40.8622 43.9784 41.0577C43.9111 41.2531 43.8059 41.4334 43.6689 41.5883C43.5319 41.7431 43.3658 41.8694 43.18 41.96C40.35 43.33 37.5199 44.75 34.7599 46.18C34.5117 46.3154 34.2327 46.3843 33.9499 46.38H33.99ZM407.2 50.07C406.975 50.0608 406.754 50.0064 406.55 49.91C403.71 48.5233 400.877 47.17 398.05 45.85C397.863 45.7626 397.695 45.6394 397.555 45.4871C397.416 45.3348 397.308 45.1565 397.237 44.9624C397.167 44.7683 397.135 44.5623 397.144 44.356C397.153 44.1497 397.203 43.9471 397.29 43.76C397.377 43.5729 397.501 43.4048 397.653 43.2653C397.805 43.1259 397.983 43.0177 398.178 42.9471C398.372 42.8766 398.578 42.8449 398.784 42.854C398.99 42.8631 399.193 42.9127 399.38 43C402.22 44.3333 405.07 45.6934 407.93 47.08C408.265 47.2302 408.536 47.4927 408.697 47.8222C408.859 48.1517 408.9 48.5272 408.813 48.8836C408.726 49.24 408.517 49.5548 408.223 49.7734C407.928 49.9919 407.566 50.1004 407.2 50.08V50.07ZM50.97 38.13C50.6195 38.1125 50.2849 37.9788 50.0188 37.7501C49.7527 37.5214 49.5703 37.2106 49.5004 36.8668C49.4305 36.5229 49.477 36.1656 49.6327 35.8511C49.7883 35.5367 50.0442 35.283 50.36 35.13C53.21 33.84 56.14 32.55 59.05 31.32C59.2433 31.2192 59.4554 31.1596 59.673 31.1448C59.8905 31.13 60.1087 31.1604 60.314 31.234C60.5192 31.3077 60.7069 31.423 60.8654 31.5728C61.0239 31.7225 61.1497 31.9035 61.2348 32.1042C61.3199 32.3049 61.3626 32.5211 61.3601 32.7391C61.3576 32.9572 61.3101 33.1723 61.2204 33.371C61.1307 33.5698 61.0008 33.7478 60.839 33.8939C60.6771 34.04 60.4868 34.151 60.28 34.22C57.39 35.44 54.49 36.71 51.66 38C51.4418 38.0917 51.2066 38.1361 50.97 38.13ZM390.04 42.08C389.834 42.0753 389.63 42.0312 389.44 41.95C386.553 40.6633 383.673 39.4167 380.8 38.21C380.436 38.0338 380.154 37.7248 380.011 37.3467C379.868 36.9685 379.875 36.5499 380.031 36.1771C380.188 35.8042 380.481 35.5055 380.851 35.3423C381.221 35.1792 381.639 35.164 382.02 35.3C384.9 36.52 387.83 37.79 390.72 39.07C391.049 39.2191 391.317 39.4774 391.478 39.8013C391.639 40.1251 391.684 40.4947 391.604 40.8474C391.524 41.2001 391.325 41.5144 391.04 41.7372C390.755 41.9599 390.402 42.0775 390.04 42.07V42.08ZM68.3799 30.75C68.0298 30.7275 67.6974 30.5883 67.4356 30.3547C67.1738 30.1212 66.9978 29.8066 66.9357 29.4614C66.8735 29.1161 66.9288 28.76 67.0927 28.4498C67.2566 28.1396 67.5197 27.8932 67.84 27.75C70.77 26.6 73.75 25.46 76.71 24.37C77.1078 24.2255 77.5467 24.2449 77.9302 24.424C78.3137 24.603 78.6104 24.9272 78.7549 25.325C78.8995 25.7228 78.8801 26.1618 78.701 26.5453C78.5219 26.9288 78.1978 27.2255 77.8 27.37C74.86 28.45 71.8999 29.58 68.9999 30.72C68.7974 30.7719 68.5865 30.7822 68.3799 30.75ZM372.63 34.75C372.445 34.7482 372.261 34.7109 372.09 34.64C369.17 33.48 366.22 32.33 363.31 31.23C362.92 31.0828 362.605 30.7867 362.433 30.407C362.262 30.0272 362.248 29.5949 362.395 29.205C362.542 28.8151 362.838 28.4997 363.218 28.3281C363.598 28.1565 364.03 28.1428 364.42 28.29C367.35 29.39 370.32 30.54 373.25 31.71C373.638 31.8657 373.949 32.1689 374.114 32.5532C374.279 32.9374 374.284 33.3714 374.13 33.76C374.011 34.0577 373.803 34.3115 373.535 34.4868C373.266 34.6622 372.95 34.7506 372.63 34.74V34.75ZM86.12 24.23C85.7499 24.222 85.3945 24.0836 85.1166 23.8391C84.8387 23.5946 84.6561 23.2598 84.6011 22.8937C84.546 22.5277 84.6222 22.154 84.8159 21.8386C85.0097 21.5232 85.3086 21.2864 85.66 21.17C88.66 20.17 91.66 19.17 94.66 18.17C95.0434 18.0913 95.4423 18.1577 95.7795 18.3564C96.1168 18.555 96.3683 18.8718 96.4853 19.2453C96.6023 19.6188 96.5766 20.0225 96.413 20.3781C96.2495 20.7336 95.9597 21.0158 95.6 21.17C92.6 22.1 89.6 23.08 86.6 24.09C86.4489 24.1632 86.2867 24.2105 86.12 24.23ZM354.95 28.08C354.783 28.0793 354.617 28.0488 354.46 27.99C351.46 26.99 348.46 25.92 345.55 24.99C345.152 24.8574 344.823 24.5722 344.636 24.1971C344.448 23.822 344.417 23.3878 344.55 22.99C344.683 22.5922 344.968 22.2633 345.343 22.0758C345.718 21.8883 346.152 21.8574 346.55 21.99C349.55 22.99 352.55 23.99 355.55 25.06C355.897 25.1898 356.188 25.4377 356.371 25.7603C356.554 26.0829 356.618 26.4596 356.551 26.8245C356.484 27.1893 356.291 27.519 356.006 27.7559C355.72 27.9927 355.361 28.1216 354.99 28.12L354.95 28.08ZM104.16 18.56C103.788 18.5435 103.433 18.3958 103.159 18.1432C102.885 17.8905 102.709 17.5492 102.662 17.1794C102.616 16.8096 102.701 16.4352 102.904 16.1224C103.107 15.8096 103.413 15.5785 103.77 15.47C106.77 14.6 109.88 13.75 112.91 12.96C113.117 12.8699 113.341 12.8255 113.567 12.83C113.793 12.8344 114.016 12.8876 114.219 12.9858C114.423 13.0841 114.602 13.2252 114.746 13.3994C114.89 13.5735 114.995 13.7768 115.053 13.9951C115.112 14.2135 115.122 14.4418 115.084 14.6646C115.046 14.8873 114.96 15.0992 114.832 15.2857C114.705 15.4723 114.539 15.6291 114.345 15.7455C114.151 15.8619 113.935 15.935 113.71 15.96C110.71 16.75 107.65 17.59 104.64 18.46C104.485 18.5129 104.323 18.5465 104.16 18.56ZM337.01 22.12C336.867 22.1162 336.726 22.0927 336.59 22.05C333.59 21.13 330.59 20.23 327.59 19.37C327.247 19.2111 326.973 18.9349 326.817 18.5912C326.66 18.2475 326.632 17.8592 326.737 17.4965C326.842 17.1339 327.074 16.8208 327.39 16.6142C327.706 16.4075 328.086 16.3209 328.46 16.37C331.46 17.24 334.55 18.15 337.54 19.07C337.897 19.1881 338.2 19.4294 338.395 19.7507C338.589 20.072 338.663 20.4523 338.603 20.8232C338.543 21.1941 338.353 21.5314 338.066 21.7746C337.78 22.0178 337.416 22.1509 337.04 22.15L337.01 22.12ZM122.44 13.77C122.061 13.7536 121.701 13.6014 121.425 13.3412C121.149 13.0811 120.976 12.7305 120.937 12.3532C120.898 11.976 120.996 11.5974 121.213 11.2865C121.431 10.9756 121.752 10.7532 122.12 10.66C125.12 9.93997 128.28 9.24002 131.38 8.58002C131.783 8.51149 132.196 8.60154 132.534 8.8313C132.872 9.06106 133.107 9.41269 133.191 9.81238C133.275 10.2121 133.201 10.6288 132.985 10.9751C132.768 11.3214 132.426 11.5705 132.03 11.67C128.96 12.32 125.87 13.01 122.85 13.67C122.72 13.7301 122.582 13.7706 122.44 13.79V13.77ZM318.84 16.93C318.72 16.9445 318.6 16.9445 318.48 16.93C315.48 16.14 312.4 15.37 309.35 14.64C308.956 14.5298 308.62 14.271 308.413 13.9182C308.206 13.5653 308.144 13.1459 308.24 12.7482C308.336 12.3504 308.582 12.0054 308.927 11.7856C309.272 11.5659 309.689 11.4886 310.09 11.57C313.15 12.31 316.25 13.09 319.28 13.88C319.648 13.9843 319.965 14.2182 320.173 14.5385C320.382 14.8588 320.467 15.2438 320.413 15.6221C320.359 16.0004 320.17 16.3464 319.881 16.5961C319.592 16.8457 319.222 16.9821 318.84 16.98V16.93ZM140.93 9.87C140.535 9.87005 140.155 9.72145 139.865 9.45374C139.575 9.18603 139.396 8.81887 139.365 8.42542C139.333 8.03196 139.451 7.64105 139.695 7.33057C139.939 7.02009 140.29 6.8128 140.68 6.75C143.78 6.17 146.93 5.62 150.03 5.12C150.442 5.05369 150.864 5.15395 151.203 5.39868C151.541 5.64342 151.769 6.01258 151.835 6.42499C151.901 6.8374 151.801 7.25927 151.556 7.59778C151.312 7.93628 150.942 8.16368 150.53 8.22998C147.46 8.72998 144.34 9.22998 141.26 9.84998C141.151 9.87158 141.04 9.87833 140.93 9.87ZM300.47 12.56H300.17C297.11 11.9 294.01 11.26 290.95 10.67C290.746 10.6319 290.551 10.554 290.377 10.4407C290.203 10.3273 290.053 10.1808 289.935 10.0095C289.818 9.83814 289.735 9.64537 289.692 9.44214C289.649 9.2389 289.647 9.02922 289.685 8.82501C289.723 8.62081 289.801 8.4261 289.914 8.25201C290.028 8.07793 290.174 7.92783 290.345 7.81036C290.517 7.6929 290.71 7.61034 290.913 7.56738C291.116 7.52442 291.326 7.52191 291.53 7.56C294.61 8.15 297.73 8.79002 300.82 9.46002C301.2 9.54707 301.534 9.77145 301.759 10.0901C301.983 10.4087 302.082 10.7991 302.036 11.1862C301.99 11.5732 301.803 11.9297 301.51 12.187C301.217 12.4442 300.84 12.5842 300.45 12.58L300.47 12.56ZM159.58 6.85999C159.188 6.84247 158.817 6.67998 158.539 6.40405C158.26 6.12813 158.094 5.7585 158.073 5.367C158.052 4.97551 158.177 4.59009 158.424 4.28571C158.671 3.98132 159.022 3.77967 159.41 3.71997C162.51 3.28997 165.68 2.89998 168.82 2.53998C169.034 2.49853 169.254 2.50171 169.466 2.54932C169.679 2.59692 169.879 2.68796 170.055 2.81665C170.23 2.94534 170.377 3.10893 170.487 3.29718C170.596 3.48543 170.665 3.69428 170.69 3.91058C170.715 4.12689 170.695 4.34597 170.631 4.55414C170.568 4.76231 170.461 4.95509 170.32 5.1203C170.178 5.28551 170.003 5.41956 169.807 5.51416C169.611 5.60876 169.398 5.66182 169.18 5.66998C166.06 6.01998 162.92 6.42003 159.84 6.84003L159.58 6.85999ZM281.92 8.96997H281.69C278.6 8.43997 275.47 7.96999 272.4 7.48999C272.009 7.40539 271.665 7.17574 271.437 6.84729C271.208 6.51884 271.113 6.11606 271.17 5.72021C271.227 5.32437 271.433 4.96487 271.744 4.71429C272.056 4.46372 272.451 4.34069 272.85 4.37C275.95 4.83 279.11 5.36999 282.22 5.85999C282.604 5.93597 282.947 6.15208 283.181 6.46637C283.415 6.78066 283.524 7.17067 283.486 7.56073C283.449 7.95079 283.268 8.3131 282.979 8.57721C282.689 8.84132 282.312 8.98841 281.92 8.98999V8.96997ZM178.36 4.71997C177.944 4.73323 177.539 4.58059 177.235 4.29553C176.931 4.01048 176.753 3.6164 176.74 3.20001C176.727 2.78362 176.879 2.379 177.164 2.0752C177.449 1.77139 177.844 1.59328 178.26 1.58002C181.37 1.30002 184.55 1.05998 187.72 0.849976C187.926 0.836843 188.133 0.864446 188.328 0.931213C188.524 0.997981 188.704 1.10263 188.859 1.23914C189.014 1.37564 189.141 1.54135 189.232 1.72681C189.323 1.91226 189.377 2.11383 189.39 2.32001C189.403 2.52618 189.375 2.7329 189.309 2.92841C189.242 3.12391 189.137 3.3044 189.001 3.45947C188.864 3.61455 188.699 3.74118 188.513 3.83221C188.328 3.92325 188.126 3.97686 187.92 3.98999C184.79 4.19999 181.63 4.43997 178.54 4.71997H178.36ZM263.22 6.21997H263.07C259.96 5.82997 256.82 5.47997 253.72 5.21997C253.514 5.19962 253.315 5.13902 253.133 5.04156C252.951 4.94411 252.79 4.81176 252.659 4.65204C252.528 4.49232 252.43 4.30838 252.37 4.11072C252.31 3.91305 252.29 3.70552 252.31 3.5C252.33 3.29448 252.391 3.09499 252.488 2.9129C252.586 2.73082 252.718 2.56971 252.878 2.43878C253.038 2.30785 253.222 2.20962 253.419 2.14978C253.617 2.08994 253.824 2.06967 254.03 2.09003C257.16 2.40003 260.33 2.76003 263.46 3.09003C263.851 3.15285 264.205 3.36047 264.45 3.67175C264.696 3.98303 264.815 4.37519 264.785 4.77045C264.755 5.1657 264.577 5.53518 264.287 5.80554C263.997 6.0759 263.616 6.22737 263.22 6.22998V6.21997ZM197.22 3.48999C196.824 3.45841 196.454 3.27876 196.185 2.98688C195.915 2.69499 195.766 2.31228 195.766 1.91498C195.766 1.51768 195.915 1.13496 196.185 0.843079C196.454 0.551192 196.824 0.371609 197.22 0.340027C200.36 0.210027 203.55 0.119998 206.7 0.0599976C207.097 0.0831533 207.471 0.255339 207.747 0.542175C208.023 0.829011 208.18 1.20938 208.188 1.60724C208.195 2.0051 208.052 2.39116 207.788 2.68829C207.523 2.98542 207.156 3.17176 206.76 3.21002C203.63 3.27002 200.47 3.35999 197.35 3.48999H197.22ZM244.43 4.33002H244.35C241.22 4.09002 238.06 3.87997 234.96 3.71997C234.542 3.69672 234.151 3.50896 233.872 3.19781C233.593 2.88667 233.448 2.47753 233.47 2.06C233.479 1.8524 233.529 1.64866 233.618 1.46075C233.706 1.27285 233.832 1.10456 233.986 0.965759C234.141 0.826962 234.322 0.72049 234.518 0.652527C234.715 0.584564 234.923 0.556498 235.13 0.570007C238.25 0.740007 241.44 0.950002 244.59 1.19C244.796 1.20051 244.998 1.25154 245.185 1.34015C245.371 1.42875 245.538 1.5532 245.677 1.70642C245.815 1.85964 245.922 2.03859 245.991 2.23309C246.06 2.42759 246.09 2.63385 246.08 2.84003C246.069 3.0462 246.018 3.24823 245.93 3.43469C245.841 3.62115 245.717 3.78834 245.564 3.9267C245.41 4.06506 245.231 4.1719 245.037 4.24109C244.842 4.31028 244.636 4.34052 244.43 4.33002ZM216.12 3.15997C215.724 3.12839 215.354 2.94881 215.085 2.65692C214.815 2.36504 214.666 1.98232 214.666 1.58502C214.666 1.18772 214.815 0.805009 215.085 0.513123C215.354 0.221236 215.724 0.0415922 216.12 0.0100098C218.8 0.0100098 221.51 0.0700146 224.24 0.140015H225.6C225.817 0.13008 226.034 0.165036 226.237 0.242737C226.44 0.320438 226.625 0.439174 226.78 0.591553C226.935 0.743931 227.057 0.926652 227.138 1.1283C227.219 1.32994 227.258 1.54621 227.252 1.76349C227.245 1.98077 227.194 2.19443 227.102 2.39111C227.009 2.58779 226.877 2.76321 226.714 2.90649C226.55 3.04977 226.359 3.15783 226.152 3.22382C225.945 3.2898 225.726 3.31229 225.51 3.28998H224.15C221.45 3.21998 218.76 3.16997 216.15 3.15997H216.12Z" fill="#FF7B89"/>
</svg>
