<svg width="151" height="44" viewBox="0 0 151 44" fill="none" xmlns="http://www.w3.org/2000/svg">
<path d="M1.79571 43.5139C1.58275 43.5104 1.37628 43.4402 1.20522 43.3133C1.03417 43.1864 0.907125 43.0092 0.841927 42.8064C0.776729 42.6037 0.776649 42.3856 0.841689 42.1828C0.90673 41.9799 1.03363 41.8026 1.20459 41.6756C1.27605 41.6236 3.01696 40.3114 6.3559 38.1548C6.58371 38.0272 6.85158 37.9912 7.10497 38.0542C7.35837 38.1172 7.57823 38.2744 7.7198 38.4938C7.86137 38.7132 7.91399 38.9783 7.86697 39.2351C7.81995 39.4919 7.6768 39.7212 7.46668 39.8762C4.19921 42.0069 2.4453 43.3061 2.4453 43.3061C2.25981 43.4493 2.0299 43.5229 1.79571 43.5139ZM12.1113 36.8101C11.9386 36.8062 11.7698 36.7582 11.6208 36.6706C11.4719 36.5831 11.3478 36.4589 11.2604 36.3099C11.1218 36.0771 11.0809 35.7989 11.1466 35.536C11.2123 35.2732 11.3793 35.047 11.6111 34.9068C13.3455 33.8804 15.1514 32.8411 16.9703 31.8342C17.2066 31.7189 17.4782 31.6986 17.729 31.7777C17.9798 31.8567 18.1907 32.029 18.3181 32.2589C18.4456 32.4889 18.48 32.759 18.4141 33.0136C18.3483 33.2682 18.1872 33.4877 17.9642 33.627C16.1583 34.6209 14.3719 35.6473 12.657 36.6672C12.4933 36.768 12.3034 36.8177 12.1113 36.8101ZM283.721 42.9358C283.555 42.934 283.391 42.8893 283.247 42.8059L281.142 41.6301C280.905 41.4983 280.73 41.2778 280.656 41.0171C280.582 40.7564 280.614 40.4769 280.746 40.24C280.878 40.0031 281.098 39.8282 281.359 39.7539C281.62 39.6796 281.899 39.7119 282.136 39.8437C282.844 40.2335 283.546 40.6297 284.247 41.026C284.365 41.0909 284.468 41.1786 284.552 41.2839C284.635 41.3892 284.697 41.5101 284.733 41.6395C284.769 41.7688 284.78 41.9041 284.763 42.0374C284.747 42.1708 284.704 42.2995 284.637 42.4161C284.547 42.5788 284.414 42.7135 284.252 42.8052C284.091 42.897 283.907 42.9422 283.721 42.9358ZM276.225 38.8303C276.066 38.8248 275.91 38.7825 275.77 38.7069C273.96 37.7368 272.152 36.7928 270.346 35.8747C270.227 35.8137 270.12 35.7298 270.033 35.6277C269.946 35.5256 269.88 35.4074 269.839 35.2799C269.798 35.1523 269.782 35.0178 269.792 34.8841C269.803 34.7505 269.84 34.6202 269.901 34.5008C269.962 34.3813 270.046 34.2751 270.148 34.1881C270.25 34.1011 270.368 34.0351 270.496 33.9938C270.623 33.9524 270.758 33.9366 270.892 33.9473C271.025 33.9579 271.155 33.9948 271.275 34.0558C273.089 34.9782 274.908 35.9266 276.731 36.901C276.945 37.0044 277.117 37.1787 277.217 37.3943C277.316 37.61 277.338 37.8536 277.278 38.0835C277.219 38.3135 277.081 38.5155 276.889 38.6553C276.697 38.795 276.462 38.8638 276.225 38.8498V38.8303ZM22.8817 30.8468C22.6503 30.8449 22.4263 30.765 22.2461 30.6198C22.0659 30.4747 21.9401 30.273 21.889 30.0473C21.8378 29.8217 21.8644 29.5854 21.9644 29.3768C22.0644 29.1682 22.232 28.9994 22.4399 28.898C24.2523 27.9626 26.1037 27.0336 27.955 26.1372C28.0757 26.0783 28.2068 26.0438 28.3409 26.0356C28.4749 26.0274 28.6093 26.0457 28.7363 26.0895C28.8632 26.1332 28.9803 26.2015 29.0809 26.2905C29.1815 26.3795 29.2635 26.4874 29.3224 26.6081C29.3813 26.7289 29.4158 26.86 29.424 26.994C29.4321 27.1281 29.4139 27.2624 29.3701 27.3894C29.3264 27.5164 29.2581 27.6335 29.1691 27.7341C29.0801 27.8347 28.9722 27.9167 28.8515 27.9756C27.0131 28.8655 25.1747 29.7879 23.3818 30.7169C23.2206 30.8048 23.0393 30.8496 22.8557 30.8468H22.8817ZM265.318 33.2438C265.172 33.2378 265.028 33.2025 264.896 33.1398C263.051 32.2391 261.21 31.36 259.374 30.5025C259.253 30.4458 259.143 30.3657 259.053 30.2667C258.962 30.1678 258.892 30.052 258.846 29.9259C258.8 29.7998 258.78 29.666 258.786 29.532C258.792 29.398 258.824 29.2664 258.881 29.1448C258.937 29.0233 259.017 28.9141 259.116 28.8235C259.215 28.7329 259.331 28.6627 259.457 28.6168C259.583 28.571 259.717 28.5504 259.851 28.5563C259.985 28.5622 260.117 28.5944 260.238 28.6511C262.083 29.5173 263.934 30.4007 265.792 31.3015C266.01 31.3991 266.186 31.5696 266.291 31.7836C266.396 31.9977 266.422 32.2416 266.366 32.4731C266.309 32.7046 266.174 32.9092 265.982 33.0511C265.791 33.1931 265.556 33.2636 265.318 33.2503V33.2438ZM33.9118 25.4876C33.6842 25.4762 33.4668 25.3894 33.2939 25.2408C33.1211 25.0923 33.0026 24.8904 32.9572 24.667C32.9118 24.4436 32.942 24.2115 33.0431 24.0073C33.1442 23.803 33.3104 23.6382 33.5156 23.5388C35.3669 22.7008 37.2703 21.8629 39.1606 21.0638C39.2862 20.9984 39.424 20.9596 39.5653 20.95C39.7066 20.9404 39.8483 20.9601 39.9817 21.008C40.115 21.0558 40.2369 21.1307 40.3399 21.228C40.4428 21.3253 40.5245 21.4429 40.5798 21.5732C40.6351 21.7036 40.6628 21.8441 40.6612 21.9857C40.6596 22.1273 40.6287 22.2671 40.5705 22.3962C40.5122 22.5253 40.4278 22.6409 40.3227 22.7359C40.2176 22.8308 40.0939 22.9029 39.9596 22.9477C38.0822 23.7402 36.1984 24.5652 34.36 25.4032C34.2183 25.4627 34.0655 25.4915 33.9118 25.4876ZM254.171 28.0535C254.037 28.0505 253.905 28.0218 253.781 27.9691C251.906 27.1333 250.035 26.3234 248.169 25.5396C247.932 25.4251 247.749 25.2244 247.656 24.9788C247.563 24.7331 247.568 24.4612 247.669 24.219C247.771 23.9768 247.962 23.7827 248.202 23.6768C248.442 23.5708 248.714 23.5609 248.961 23.6492C250.832 24.4417 252.735 25.2667 254.613 26.0982C254.827 26.1951 255.001 26.3629 255.105 26.5733C255.21 26.7836 255.239 27.0237 255.187 27.2528C255.135 27.482 255.005 27.6861 254.82 27.8308C254.635 27.9755 254.406 28.0519 254.171 28.047V28.0535ZM45.2213 20.6936C44.9939 20.6789 44.7779 20.5885 44.6079 20.4368C44.4378 20.2851 44.3235 20.0808 44.2831 19.8565C44.2427 19.6322 44.2786 19.4008 44.3851 19.1993C44.4916 18.9978 44.6625 18.8378 44.8705 18.7448C46.7739 17.9977 48.7097 17.2572 50.6325 16.5491C50.8909 16.4552 51.176 16.4678 51.4252 16.5842C51.6743 16.7005 51.867 16.9111 51.9609 17.1695C52.0548 17.4279 52.0422 17.7131 51.9258 17.9622C51.8095 18.2113 51.599 18.404 51.3405 18.4979C49.4307 19.1995 47.5079 19.9335 45.6241 20.6741C45.4925 20.7078 45.3555 20.7145 45.2213 20.6936ZM242.861 23.292C242.741 23.2908 242.622 23.2665 242.511 23.2205C240.614 22.467 238.698 21.7199 236.807 21.0054C236.554 20.9097 236.349 20.7174 236.238 20.4707C236.126 20.2241 236.117 19.9432 236.213 19.69C236.308 19.4367 236.501 19.2318 236.747 19.1203C236.994 19.0089 237.275 18.9999 237.528 19.0955C239.432 19.8101 241.361 20.5572 243.264 21.3172C243.516 21.4183 243.718 21.6153 243.825 21.8649C243.932 22.1145 243.936 22.3964 243.836 22.6489C243.759 22.8422 243.623 23.0071 243.449 23.121C243.275 23.2349 243.07 23.2923 242.861 23.2855V23.292ZM56.7452 16.4582C56.5048 16.453 56.274 16.3631 56.0934 16.2043C55.9129 16.0455 55.7943 15.8279 55.7585 15.5902C55.7228 15.3524 55.7722 15.1096 55.8981 14.9048C56.0239 14.6999 56.2181 14.546 56.4464 14.4704C58.3952 13.8208 60.344 13.1712 62.2928 12.5216C62.5418 12.4705 62.801 12.5137 63.02 12.6427C63.2391 12.7718 63.4025 12.9775 63.4785 13.2201C63.5545 13.4628 63.5378 13.725 63.4315 13.956C63.3253 14.187 63.1371 14.3703 62.9034 14.4704C60.9546 15.0745 59.0058 15.7112 57.057 16.3673C56.9589 16.4148 56.8535 16.4455 56.7452 16.4582ZM231.377 18.9592C231.268 18.9587 231.16 18.9389 231.058 18.9007C229.109 18.2511 227.161 17.556 225.27 16.9519C225.012 16.8657 224.798 16.6805 224.676 16.4368C224.555 16.1932 224.535 15.9111 224.621 15.6527C224.707 15.3943 224.892 15.1807 225.136 15.0588C225.379 14.937 225.662 14.9169 225.92 15.0031C227.869 15.6527 229.818 16.3023 231.766 16.9974C231.992 17.0817 232.181 17.2427 232.3 17.4523C232.419 17.6618 232.46 17.9066 232.417 18.1436C232.373 18.3805 232.248 18.5947 232.062 18.7486C231.877 18.9024 231.643 18.9862 231.403 18.9851L231.377 18.9592ZM68.4639 12.775C68.222 12.7642 67.9918 12.6683 67.8137 12.5042C67.6357 12.3401 67.5214 12.1183 67.4911 11.8781C67.4608 11.6379 67.5164 11.3947 67.648 11.1915C67.7797 10.9883 67.9789 10.8382 68.2106 10.7677C70.1594 10.2025 72.1796 9.65043 74.1479 9.13724C74.2825 9.07867 74.4282 9.04985 74.575 9.05275C74.7217 9.05565 74.8661 9.09018 74.9983 9.15401C75.1305 9.21785 75.2474 9.30948 75.3409 9.42263C75.4344 9.53578 75.5024 9.6678 75.5402 9.80964C75.5781 9.95148 75.5848 10.0998 75.5601 10.2445C75.5353 10.3892 75.4796 10.5268 75.3967 10.648C75.3139 10.7692 75.2058 10.8711 75.08 10.9467C74.9542 11.0223 74.8135 11.0698 74.6676 11.086C72.7188 11.5992 70.731 12.1449 68.7757 12.71C68.6749 12.7444 68.5701 12.7662 68.4639 12.775ZM219.723 15.0875C219.63 15.0851 219.538 15.0698 219.45 15.0421C217.501 14.4444 215.552 13.8598 213.604 13.3011C213.381 13.198 213.203 13.0185 213.101 12.7952C213 12.572 212.981 12.3197 213.05 12.0841C213.118 11.8486 213.268 11.6452 213.474 11.511C213.679 11.3767 213.925 11.3205 214.169 11.3524C216.117 11.9175 218.125 12.5086 220.067 13.1063C220.299 13.183 220.496 13.3398 220.622 13.5485C220.749 13.7572 220.797 14.0042 220.758 14.2451C220.719 14.4861 220.595 14.7052 220.409 14.8632C220.223 15.0211 219.986 15.1076 219.742 15.107L219.723 15.0875ZM80.3386 9.66342C80.0924 9.65273 79.8584 9.55386 79.6791 9.38489C79.4999 9.21592 79.3873 8.98812 79.3621 8.74306C79.3369 8.498 79.4007 8.25206 79.5418 8.05013C79.6829 7.84819 79.8919 7.70371 80.1307 7.64314C82.0795 7.17543 84.1322 6.72074 86.146 6.292C86.4075 6.24749 86.6762 6.30598 86.8955 6.45523C87.1149 6.60449 87.2679 6.8329 87.3226 7.09254C87.3772 7.35218 87.3291 7.62286 87.1885 7.84784C87.0478 8.07282 86.8255 8.2346 86.5682 8.29924C84.5739 8.72148 82.5667 9.1697 80.6049 9.59843C80.5205 9.63751 80.4307 9.66378 80.3386 9.67638V9.66342ZM207.92 11.7161C207.842 11.7256 207.763 11.7256 207.686 11.7161C205.737 11.2029 203.736 10.7028 201.755 10.2286C201.499 10.157 201.281 9.98885 201.146 9.75964C201.012 9.53043 200.971 9.258 201.034 8.99962C201.096 8.74125 201.256 8.51711 201.48 8.37437C201.704 8.23163 201.975 8.18141 202.236 8.23429C204.223 8.715 206.237 9.22168 208.205 9.73486C208.444 9.8026 208.65 9.95456 208.786 10.1626C208.921 10.3707 208.976 10.6208 208.941 10.8665C208.907 11.1122 208.784 11.337 208.596 11.4992C208.408 11.6614 208.168 11.75 207.92 11.7486V11.7161ZM92.3496 7.12997C92.0932 7.13 91.8462 7.03347 91.6578 6.85957C91.4694 6.68566 91.3534 6.44716 91.3329 6.19157C91.3124 5.93599 91.389 5.68205 91.5473 5.48036C91.7056 5.27867 91.9341 5.14402 92.1872 5.10323C94.201 4.72646 96.2472 4.36918 98.261 4.04438C98.5289 4.00131 98.8029 4.06643 99.0228 4.22541C99.2427 4.38439 99.3904 4.6242 99.4335 4.8921C99.4766 5.16 99.4114 5.43405 99.2525 5.65394C99.0935 5.87383 98.8537 6.02155 98.5858 6.06462C96.5915 6.38942 94.5648 6.71421 92.564 7.11696C92.4935 7.131 92.4214 7.13539 92.3496 7.12997ZM195.986 8.87739H195.792C193.804 8.44865 191.79 8.0329 189.802 7.64964C189.67 7.6249 189.543 7.5743 189.43 7.50068C189.317 7.42706 189.22 7.33186 189.143 7.22057C189.067 7.10927 189.013 6.98406 188.985 6.85203C188.957 6.72001 188.956 6.5838 188.981 6.45115C189.005 6.3185 189.056 6.19202 189.13 6.07893C189.203 5.96585 189.298 5.86834 189.41 5.79204C189.521 5.71573 189.646 5.66211 189.778 5.6342C189.91 5.60629 190.046 5.60466 190.179 5.6294C192.18 6.01266 194.207 6.42842 196.214 6.86365C196.461 6.9202 196.678 7.06596 196.824 7.27294C196.969 7.47993 197.034 7.73351 197.004 7.98494C196.974 8.23638 196.852 8.46792 196.662 8.63506C196.472 8.80219 196.227 8.89314 195.973 8.89039L195.986 8.87739ZM104.465 5.17467C104.21 5.1633 103.969 5.05774 103.788 4.8785C103.607 4.69926 103.499 4.45915 103.486 4.20484C103.472 3.95052 103.553 3.70016 103.714 3.50243C103.874 3.3047 104.102 3.17371 104.354 3.13493C106.368 2.8556 108.427 2.60226 110.467 2.36841C110.606 2.34148 110.749 2.34355 110.887 2.37447C111.025 2.4054 111.155 2.46453 111.269 2.54813C111.383 2.63173 111.479 2.738 111.55 2.86028C111.621 2.98257 111.666 3.11824 111.682 3.25875C111.698 3.39926 111.685 3.54157 111.644 3.6768C111.602 3.81203 111.533 3.93726 111.441 4.04458C111.349 4.1519 111.236 4.23898 111.108 4.30043C110.981 4.36188 110.842 4.39635 110.701 4.40165C108.674 4.62901 106.634 4.88888 104.634 5.16171L104.465 5.17467ZM183.936 6.54532H183.787C181.78 6.20103 179.747 5.89573 177.752 5.58392C177.498 5.52897 177.275 5.37979 177.126 5.16643C176.978 4.95307 176.916 4.69142 176.954 4.43428C176.991 4.17714 177.124 3.94361 177.326 3.78084C177.529 3.61806 177.785 3.53814 178.045 3.55718C180.058 3.856 182.111 4.20677 184.131 4.52508C184.381 4.57443 184.603 4.71482 184.755 4.91898C184.908 5.12314 184.978 5.37649 184.954 5.62988C184.93 5.88326 184.812 6.11861 184.624 6.29018C184.436 6.46174 184.191 6.55729 183.936 6.55832V6.54532ZM116.664 3.78452C116.394 3.79314 116.131 3.69398 115.933 3.50881C115.736 3.32364 115.62 3.06765 115.612 2.79716C115.603 2.52668 115.702 2.26384 115.887 2.06648C116.073 1.86913 116.329 1.75343 116.599 1.74482C118.619 1.56293 120.685 1.407 122.744 1.27058C122.878 1.26205 123.013 1.27998 123.14 1.32336C123.267 1.36673 123.384 1.43471 123.485 1.52338C123.585 1.61205 123.668 1.7197 123.727 1.84017C123.786 1.96064 123.821 2.09158 123.829 2.22551C123.838 2.35945 123.82 2.49373 123.776 2.62073C123.733 2.74773 123.665 2.86497 123.576 2.96571C123.488 3.06644 123.38 3.14871 123.26 3.20784C123.139 3.26697 123.008 3.3018 122.874 3.31033C120.841 3.44675 118.788 3.60264 116.781 3.78452H116.664ZM171.789 4.75892H171.691C169.671 4.50558 167.632 4.27822 165.618 4.10932C165.484 4.0961 165.355 4.05674 165.236 3.99343C165.118 3.93013 165.013 3.84415 164.928 3.7404C164.843 3.63664 164.78 3.51716 164.741 3.38876C164.702 3.26035 164.689 3.12554 164.702 2.99203C164.715 2.85853 164.754 2.72894 164.818 2.61066C164.881 2.49238 164.967 2.38772 165.071 2.30267C165.175 2.21762 165.294 2.15381 165.422 2.11494C165.551 2.07606 165.686 2.0629 165.819 2.07612C167.852 2.27749 169.912 2.51135 171.945 2.72572C172.199 2.76652 172.429 2.9014 172.588 3.10361C172.748 3.30581 172.825 3.56056 172.806 3.81731C172.786 4.07407 172.671 4.31408 172.482 4.48971C172.294 4.66534 172.046 4.76373 171.789 4.76542V4.75892ZM128.915 2.98553C128.658 2.96502 128.418 2.84832 128.243 2.65871C128.068 2.4691 127.971 2.22049 127.971 1.96241C127.971 1.70432 128.068 1.45571 128.243 1.2661C128.418 1.0765 128.658 0.959839 128.915 0.939323C130.955 0.854876 133.027 0.796393 135.074 0.757417C135.332 0.772459 135.575 0.88431 135.754 1.07064C135.933 1.25697 136.035 1.50405 136.04 1.7625C136.045 2.02095 135.952 2.27174 135.78 2.46475C135.608 2.65777 135.37 2.77881 135.113 2.80367C133.079 2.84264 131.027 2.90108 129 2.98553H128.915ZM159.583 3.53121H159.531C157.498 3.37531 155.445 3.23886 153.431 3.13493C153.16 3.11983 152.906 2.99786 152.725 2.79574C152.543 2.59362 152.449 2.32784 152.463 2.05661C152.469 1.92176 152.502 1.78941 152.559 1.66735C152.617 1.54528 152.699 1.43596 152.799 1.3458C152.899 1.25564 153.017 1.18647 153.144 1.14232C153.272 1.09817 153.407 1.07994 153.542 1.08872C155.568 1.19915 157.641 1.33556 159.687 1.49147C159.821 1.49829 159.952 1.53144 160.073 1.589C160.194 1.64656 160.303 1.7274 160.393 1.82693C160.483 1.92646 160.552 2.04271 160.597 2.16905C160.642 2.2954 160.662 2.42939 160.655 2.56332C160.648 2.69725 160.615 2.82849 160.557 2.94961C160.5 3.07074 160.419 3.17934 160.319 3.26922C160.22 3.35909 160.104 3.4285 159.977 3.47344C159.851 3.51839 159.717 3.53804 159.583 3.53121ZM141.193 2.77115C140.936 2.75064 140.696 2.63398 140.52 2.44437C140.345 2.25476 140.248 2.00615 140.248 1.74807C140.248 1.48998 140.345 1.24137 140.52 1.05177C140.696 0.862157 140.936 0.745461 141.193 0.724945C142.934 0.724945 144.694 0.763924 146.468 0.809396H147.351C147.492 0.802942 147.633 0.825649 147.765 0.876124C147.897 0.926599 148.017 1.00373 148.117 1.10271C148.218 1.2017 148.297 1.32039 148.35 1.45138C148.403 1.58237 148.428 1.72286 148.424 1.864C148.42 2.00515 148.387 2.14394 148.327 2.2717C148.267 2.39947 148.181 2.51342 148.075 2.60649C147.968 2.69957 147.844 2.76976 147.71 2.81263C147.575 2.85549 147.433 2.8701 147.293 2.8556H146.409C144.655 2.81013 142.908 2.77765 141.212 2.77115H141.193Z" fill="#FF7B89"/>
</svg>
