<svg width="81" height="120" viewBox="0 0 81 120" fill="none" xmlns="http://www.w3.org/2000/svg">
<g clip-path="url(#clip0_230_3931)">
<path d="M21.1689 21.9217C21.1689 21.9217 25.5504 3.3065 45.3067 4.07265C65.0629 4.8388 68.108 21.1634 68.0094 23.7761C67.9109 26.3888 21.1689 21.9217 21.1689 21.9217Z" fill="#C62424"/>
<path d="M21.1645 21.9183L18.0571 103.242L64.8977 105.032L68.0051 23.7081L21.1645 21.9183Z" fill="#C62424"/>
<path d="M63.9958 26.1405L48.1627 25.5359L40.8531 25.2558L25.0199 24.6512C24.643 24.6365 24.2757 24.772 23.9985 25.0279C23.7214 25.2838 23.557 25.6392 23.5416 26.0161L23.2976 32.4394C23.2898 32.626 23.319 32.8122 23.3834 32.9874C23.4479 33.1626 23.5464 33.3234 23.6732 33.4604C23.8 33.5974 23.9526 33.708 24.1223 33.7858C24.292 33.8636 24.4754 33.9071 24.662 33.9137L40.4997 34.5218L47.8087 34.7979L63.6418 35.4025C63.8284 35.4103 64.0146 35.3812 64.1898 35.3167C64.365 35.2522 64.5257 35.1538 64.6628 35.027C64.7998 34.9002 64.9104 34.7475 64.9882 34.5778C65.066 34.4081 65.1095 34.2247 65.1162 34.0382L65.3636 27.6103C65.377 27.234 65.2404 26.8679 64.9839 26.5923C64.7274 26.3167 64.372 26.1542 63.9958 26.1405Z" fill="#A31C1C"/>
<path d="M63.5138 38.4765L47.6727 37.873L40.3671 37.5923L24.5312 36.9962C24.3448 36.989 24.1587 37.0185 23.9838 37.0832C23.8088 37.1478 23.6483 37.2463 23.5114 37.373C23.3745 37.4997 23.2638 37.6521 23.1858 37.8216C23.1079 37.9911 23.064 38.1742 23.0568 38.3606L22.9066 42.3595L22.8134 44.7879L20.9044 94.7037L20.8577 95.9586L20.6609 101.131C20.6537 101.317 20.6832 101.503 20.7479 101.678C20.8125 101.853 20.911 102.014 21.0377 102.151C21.1644 102.288 21.3169 102.398 21.4863 102.476C21.6558 102.554 21.8389 102.598 22.0253 102.605L37.8624 103.209L45.1675 103.486L61.0046 104.09C61.191 104.097 61.377 104.068 61.552 104.003C61.7269 103.938 61.8875 103.84 62.0244 103.713C62.1613 103.587 62.2719 103.434 62.3499 103.265C62.4279 103.095 62.4717 102.912 62.4789 102.726L62.6762 97.5574L62.7263 96.2978L64.6319 46.3866L64.7245 43.9543L64.8754 39.9593C64.8838 39.7725 64.8552 39.5858 64.7912 39.41C64.7273 39.2342 64.6292 39.0728 64.5027 38.935C64.3762 38.7972 64.2237 38.6857 64.054 38.6071C63.8843 38.5284 63.7007 38.484 63.5138 38.4765Z" fill="#E33C36"/>
<path d="M46.0007 6.71895C46.0007 6.71895 36.2956 6.18179 29.1821 13.0389C22.0686 19.896 25.0803 22.0564 25.8531 22.097L61.4412 23.4598C63.3194 23.5284 65.6772 23.9991 64.3639 20.7757C63.0505 17.5522 56.2925 7.71987 46.0007 6.71895Z" fill="#E33C36"/>
<path d="M33.6516 17.0269C33.6516 17.0269 36.9333 9.90908 45.1578 10.225C53.3823 10.5409 57.2815 16.8769 55.6622 18.8052C54.5625 20.11 31.9471 21.1621 33.6516 17.0269Z" fill="#A31C1C"/>
<path d="M59.5009 28.1765L49.9929 27.8141L48.7168 27.7624L40.1031 27.4348L39.2128 27.3994L29.3151 27.0213C29.1755 27.0169 29.0398 27.068 28.9378 27.1634C28.8357 27.2587 28.7756 27.3906 28.7704 27.5302L28.611 31.6324C28.6057 31.7698 28.6536 31.9038 28.7449 32.0066C28.8361 32.1094 28.9635 32.173 29.1005 32.184L39.0023 32.5615L39.888 32.5935L48.5023 32.9251L49.7778 32.9728L59.2858 33.3352C59.4231 33.3426 59.5578 33.2954 59.6604 33.2037C59.763 33.1121 59.8252 32.9836 59.8333 32.8463L59.9928 28.7441C59.9986 28.6743 59.9905 28.6041 59.9688 28.5376C59.9471 28.471 59.9123 28.4095 59.8664 28.3566C59.8206 28.3037 59.7646 28.2605 59.7019 28.2296C59.6391 28.1987 59.5707 28.1806 59.5009 28.1765Z" fill="#E33C36"/>
<path d="M37.5735 55.1444C37.5669 55.3219 37.5254 55.4964 37.4514 55.6578C37.3773 55.8193 37.2722 55.9646 37.142 56.0854C37.0118 56.2062 36.859 56.3001 36.6925 56.3618C36.5259 56.4235 36.3488 56.4518 36.1713 56.4451L29.7851 56.2037C29.4261 56.1895 29.0875 56.0335 28.8435 55.7699C28.5996 55.5062 28.4702 55.1565 28.4839 54.7975L28.9147 43.9335C28.9207 43.7557 28.9618 43.5808 29.0356 43.4189C29.1093 43.2571 29.2144 43.1113 29.3446 42.9901C29.4748 42.8689 29.6277 42.7746 29.7944 42.7126C29.9612 42.6506 30.1385 42.6221 30.3162 42.6288L36.7031 42.8742C36.8811 42.8807 37.0561 42.9222 37.218 42.9964C37.38 43.0705 37.5258 43.1759 37.647 43.3064C37.7682 43.437 37.8625 43.5901 37.9245 43.7571C37.9865 43.9241 38.015 44.1017 38.0083 44.2797L37.5735 55.1444Z" fill="white"/>
<path d="M47.8653 55.5376C47.8588 55.7151 47.8173 55.8896 47.7432 56.0511C47.6692 56.2125 47.5641 56.3578 47.4338 56.4786C47.3036 56.5994 47.1509 56.6933 46.9843 56.7551C46.8177 56.8168 46.6406 56.8451 46.4631 56.8383L40.073 56.5975C39.7144 56.5823 39.3764 56.426 39.1326 56.1625C38.8888 55.8991 38.7591 55.55 38.7717 55.1914L39.2025 44.3273C39.2167 43.9681 39.3725 43.6292 39.6359 43.3846C39.8993 43.14 40.2489 43.0096 40.6081 43.022L46.9949 43.2674C47.1728 43.2739 47.3477 43.3154 47.5095 43.3897C47.6713 43.464 47.8168 43.5694 47.9377 43.7001C48.0586 43.8308 48.1525 43.984 48.214 44.1511C48.2755 44.3181 48.3035 44.4957 48.2962 44.6736L47.8653 55.5376Z" fill="white"/>
<path d="M58.2102 55.9351C58.1961 56.2941 58.04 56.6327 57.7764 56.8767C57.5127 57.1207 57.163 57.2501 56.8041 57.2364L50.4173 56.991C50.0583 56.9769 49.7197 56.8209 49.4757 56.5572C49.2317 56.2935 49.1023 55.9438 49.116 55.5849L49.5468 44.7208C49.5611 44.3627 49.7167 44.0248 49.9795 43.7811C50.2422 43.5373 50.5908 43.4076 50.949 43.4201L57.3392 43.6609C57.5168 43.6679 57.6913 43.7099 57.8527 43.7844C58.0141 43.8589 58.1592 43.9645 58.2797 44.0952C58.4002 44.2259 58.4937 44.379 58.5549 44.5459C58.6162 44.7128 58.6439 44.8901 58.6365 45.0677L58.2102 55.9351Z" fill="white"/>
<path d="M37.008 70.0295C36.9928 70.3881 36.8364 70.7261 36.573 70.9699C36.3096 71.2136 35.9605 71.3434 35.6018 71.3308L29.2156 71.0894C28.8571 71.0742 28.519 70.9179 28.2753 70.6545C28.0315 70.391 27.9018 70.0419 27.9143 69.6833L28.3452 58.8192C28.3517 58.6412 28.3932 58.4662 28.4674 58.3042C28.5416 58.1422 28.6469 57.9965 28.7774 57.8753C28.908 57.754 29.0612 57.6597 29.2282 57.5977C29.3952 57.5357 29.5728 57.5073 29.7508 57.5139L36.1375 57.7593C36.4965 57.7734 36.8352 57.9295 37.0791 58.1931C37.3231 58.4568 37.4525 58.8065 37.4388 59.1655L37.008 70.0295Z" fill="white"/>
<path d="M47.3038 70.4222C47.2886 70.7808 47.1322 71.1188 46.8688 71.3626C46.6054 71.6063 46.2562 71.7361 45.8976 71.7235L39.508 71.4867C39.3301 71.4802 39.1552 71.4386 38.9934 71.3644C38.8316 71.2901 38.6861 71.1846 38.5652 71.054C38.4442 70.9233 38.3503 70.7701 38.2888 70.603C38.2273 70.436 38.1994 70.2584 38.2067 70.0805L38.6369 59.2125C38.6435 59.035 38.685 58.8605 38.759 58.699C38.8331 58.5376 38.9382 58.3923 39.0684 58.2715C39.1987 58.1507 39.3514 58.0568 39.518 57.995C39.6845 57.9333 39.8616 57.905 40.0391 57.9118L46.4259 58.1571C46.604 58.1636 46.779 58.2052 46.9409 58.2793C47.1029 58.3535 47.2486 58.4589 47.3699 58.5894C47.4911 58.72 47.5854 58.8731 47.6474 59.0401C47.7094 59.2071 47.7379 59.3847 47.7312 59.5627L47.3038 70.4222Z" fill="white"/>
<path d="M57.6448 70.8163C57.6383 70.9944 57.5968 71.1694 57.5226 71.3313C57.4484 71.4933 57.343 71.6391 57.2125 71.7603C57.082 71.8815 56.9288 71.9758 56.7618 72.0378C56.5948 72.0998 56.4172 72.1283 56.2392 72.1216L49.8524 71.8762C49.4935 71.8621 49.1548 71.706 48.9108 71.4424C48.6669 71.1787 48.5375 70.829 48.5512 70.4701L48.982 59.606C48.9961 59.2471 49.1521 58.9084 49.4158 58.6644C49.6795 58.4204 50.0292 58.2911 50.3881 58.3047L56.7749 58.5501C56.9524 58.5567 57.1269 58.5981 57.2884 58.6722C57.4498 58.7462 57.5951 58.8514 57.7159 58.9816C57.8367 59.1118 57.9306 59.2646 57.9924 59.4311C58.0541 59.5977 58.0824 59.7748 58.0756 59.9523L57.6448 70.8163Z" fill="white"/>
<path d="M36.4343 85.022C36.42 85.3801 36.2644 85.718 36.0017 85.9618C35.7389 86.2055 35.3903 86.3353 35.0321 86.3227L28.6414 86.0779C28.4639 86.0714 28.2894 86.0299 28.1279 85.9558C27.9664 85.8818 27.8212 85.7767 27.7004 85.6464C27.5796 85.5162 27.4856 85.3635 27.4239 85.1969C27.3622 85.0303 27.3339 84.8532 27.3407 84.6757L27.7709 73.8077C27.7861 73.4491 27.9425 73.1111 28.2059 72.8673C28.4693 72.6236 28.8184 72.4938 29.1771 72.5064L35.5639 72.7518C35.9228 72.7659 36.2615 72.922 36.5055 73.1856C36.7494 73.4493 36.8788 73.799 36.8651 74.158L36.4343 85.022Z" fill="white"/>
<path d="M46.7253 85.4153C46.7112 85.7742 46.5551 86.1129 46.2915 86.3568C46.0278 86.6008 45.6781 86.7302 45.3191 86.7165L38.9324 86.4712C38.7549 86.4646 38.5804 86.4231 38.419 86.3491C38.2575 86.275 38.1122 86.1699 37.9914 86.0397C37.8706 85.9095 37.7766 85.7567 37.7149 85.5901C37.6532 85.4236 37.6249 85.2465 37.6317 85.069L38.0619 74.2009C38.0771 73.8424 38.2335 73.5043 38.4969 73.2606C38.7603 73.0168 39.1094 72.8871 39.4681 72.8997L45.8549 73.145C46.0324 73.1516 46.2069 73.1931 46.3683 73.2671C46.5298 73.3412 46.6751 73.4463 46.7959 73.5765C46.9167 73.7068 47.0106 73.8595 47.0723 74.0261C47.1341 74.1926 47.1623 74.3697 47.1556 74.5472L46.7253 85.4153Z" fill="white"/>
<path d="M57.0709 85.8128C57.0644 85.9906 57.0229 86.1653 56.9485 86.3269C56.8742 86.4886 56.7685 86.6339 56.6378 86.7545C56.507 86.8751 56.3536 86.9686 56.1865 87.0296C56.0194 87.0907 55.8418 87.118 55.6641 87.1101L49.2779 86.8687C49.1003 86.8617 48.9259 86.8197 48.7645 86.7452C48.6031 86.6707 48.458 86.5651 48.3375 86.4344C48.217 86.3038 48.1235 86.1506 48.0622 85.9837C48.001 85.8168 47.9733 85.6395 47.9807 85.4619L48.4115 74.5979C48.418 74.4204 48.4595 74.2459 48.5336 74.0845C48.6076 73.923 48.7128 73.7777 48.843 73.6569C48.9732 73.5361 49.126 73.4421 49.2925 73.3804C49.4591 73.3187 49.6362 73.2904 49.8137 73.2972L56.1999 73.5386C56.5591 73.5527 56.898 73.7086 57.1426 73.972C57.3872 74.2354 57.5176 74.5849 57.5051 74.9441L57.0709 85.8128Z" fill="white"/>
<path d="M66.2985 104.285L62.3566 104.135L58.4187 103.983L24.6112 102.691L20.5386 102.54L16.732 102.394C16.5402 102.386 16.3488 102.416 16.1686 102.483C15.9885 102.549 15.8233 102.65 15.6823 102.781C15.5414 102.911 15.4276 103.068 15.3473 103.242C15.267 103.417 15.2219 103.605 15.2145 103.797L15.017 108.937C15.0095 109.129 15.04 109.321 15.1067 109.501C15.1734 109.681 15.275 109.847 15.4058 109.988C15.5366 110.129 15.6938 110.242 15.8686 110.322C16.0434 110.402 16.2323 110.447 16.4244 110.454L20.2311 110.6L24.3042 110.755L58.1117 112.048L62.0496 112.199L65.9875 112.35C66.3756 112.364 66.7536 112.224 67.0387 111.96C67.3237 111.696 67.4926 111.33 67.5084 110.942L67.7059 105.802C67.72 105.414 67.5798 105.037 67.3159 104.752C67.052 104.468 66.6861 104.3 66.2985 104.285Z" fill="#A31C1C"/>
<path d="M53.1045 92.6322L49.8229 92.5063L45.881 92.3557L38.0012 92.0541L34.7813 91.9313L30.7744 91.7822C30.5668 91.7734 30.3595 91.8059 30.1645 91.8776C29.9695 91.9494 29.7907 92.0591 29.6383 92.2003C29.486 92.3416 29.363 92.5116 29.2767 92.7006C29.1904 92.8896 29.1424 93.0938 29.1354 93.3015L28.985 97.2719C28.9768 97.4796 29.0096 97.6869 29.0815 97.8819C29.1535 98.0769 29.2632 98.2559 29.4044 98.4085C29.5455 98.561 29.7154 98.6843 29.9042 98.7712C30.0931 98.8581 30.2971 98.9069 30.5049 98.9149L34.5084 99.0685L37.7277 99.1874L45.6075 99.489L49.5494 99.6396L52.8309 99.7655C53.0384 99.7737 53.2454 99.7409 53.4402 99.6689C53.6349 99.597 53.8136 99.4873 53.9658 99.3461C54.1181 99.205 54.241 99.0352 54.3275 98.8464C54.414 98.6577 54.4624 98.4537 54.4699 98.2462L54.6243 94.2752C54.6325 94.0675 54.5997 93.8602 54.5278 93.6652C54.4558 93.4702 54.3461 93.2913 54.205 93.1387C54.0638 92.9861 53.8939 92.8628 53.7051 92.7759C53.5163 92.689 53.3122 92.6402 53.1045 92.6322Z" fill="#A31C1C"/>
</g>
<defs>
<clipPath id="clip0_230_3931">
<rect width="65.0147" height="110.667" fill="white" transform="translate(0.376953 10.2151) rotate(-8.42182)"/>
</clipPath>
</defs>
</svg>
