<svg width="93" height="26" viewBox="0 0 93 26" fill="none" xmlns="http://www.w3.org/2000/svg">
<g clip-path="url(#clip0_230_4190)">
<path d="M1.42755 25.0834C1.30595 25.0814 1.18806 25.0413 1.09038 24.9689C0.992706 24.8964 0.920164 24.7952 0.882936 24.6794C0.845708 24.5636 0.845662 24.4391 0.8828 24.3233C0.919939 24.2075 0.9924 24.1062 1.09002 24.0337C1.13082 24.004 2.12489 23.2548 4.03144 22.0233C4.16153 21.9504 4.31448 21.9299 4.45917 21.9658C4.60386 22.0018 4.7294 22.0916 4.81024 22.2168C4.89108 22.3421 4.92113 22.4935 4.89428 22.6402C4.86743 22.7868 4.78569 22.9177 4.66571 23.0062C2.79996 24.2228 1.79847 24.9647 1.79847 24.9647C1.69255 25.0465 1.56128 25.0885 1.42755 25.0834ZM7.31783 21.2555C7.2192 21.2532 7.1228 21.2258 7.03776 21.1758C6.95271 21.1258 6.88185 21.0549 6.83192 20.9698C6.75279 20.8369 6.72944 20.6781 6.76696 20.528C6.80449 20.3779 6.89983 20.2487 7.03221 20.1687C8.02258 19.5826 9.05375 18.9891 10.0923 18.4142C10.2273 18.3483 10.3823 18.3368 10.5255 18.3819C10.6687 18.427 10.7892 18.5254 10.862 18.6567C10.9348 18.7881 10.9544 18.9423 10.9168 19.0877C10.8792 19.233 10.7872 19.3584 10.6599 19.4379C9.62869 20.0054 8.60863 20.5915 7.62939 21.1739C7.53594 21.2314 7.42748 21.2598 7.31783 21.2555ZM162.409 24.7533C162.314 24.7523 162.22 24.7267 162.138 24.6791L160.936 24.0077C160.801 23.9325 160.701 23.8066 160.659 23.6577C160.616 23.5088 160.635 23.3492 160.71 23.214C160.785 23.0787 160.911 22.9789 161.06 22.9364C161.209 22.894 161.368 22.9124 161.504 22.9877C161.908 23.2102 162.309 23.4365 162.709 23.6628C162.776 23.6998 162.835 23.7499 162.883 23.8101C162.931 23.8702 162.966 23.9392 162.986 24.0131C163.007 24.0869 163.013 24.1642 163.004 24.2403C162.994 24.3164 162.97 24.39 162.932 24.4565C162.88 24.5495 162.804 24.6264 162.712 24.6787C162.62 24.7311 162.515 24.7569 162.409 24.7533ZM158.128 22.409C158.037 22.4059 157.949 22.3817 157.869 22.3386C156.835 21.7846 155.803 21.2456 154.771 20.7213C154.703 20.6865 154.642 20.6386 154.593 20.5803C154.543 20.522 154.505 20.4545 154.482 20.3817C154.458 20.3089 154.449 20.2321 154.455 20.1557C154.461 20.0794 154.482 20.005 154.517 19.9368C154.552 19.8686 154.6 19.808 154.658 19.7583C154.717 19.7086 154.784 19.6709 154.857 19.6473C154.93 19.6237 155.007 19.6147 155.083 19.6208C155.159 19.6269 155.234 19.6479 155.302 19.6828C156.338 20.2095 157.376 20.751 158.417 21.3074C158.54 21.3664 158.638 21.466 158.695 21.5891C158.751 21.7122 158.764 21.8513 158.73 21.9826C158.696 22.1139 158.617 22.2293 158.507 22.3091C158.398 22.3889 158.264 22.4281 158.128 22.4202V22.409ZM13.4678 17.8504C13.3357 17.8493 13.2078 17.8037 13.1049 17.7208C13.002 17.6379 12.9301 17.5227 12.9009 17.3939C12.8717 17.265 12.8869 17.1301 12.944 17.011C13.0011 16.8919 13.0968 16.7955 13.2155 16.7376C14.2504 16.2035 15.3075 15.6731 16.3647 15.1612C16.4336 15.1276 16.5085 15.1079 16.585 15.1032C16.6615 15.0985 16.7383 15.109 16.8108 15.1339C16.8833 15.1589 16.9501 15.1979 17.0076 15.2487C17.065 15.2995 17.1119 15.3612 17.1455 15.4301C17.1791 15.499 17.1988 15.5739 17.2034 15.6504C17.2081 15.727 17.1977 15.8037 17.1727 15.8762C17.1477 15.9487 17.1087 16.0156 17.0579 16.073C17.0071 16.1304 16.9455 16.1773 16.8766 16.2109C15.8268 16.7191 14.7771 17.2458 13.7534 17.7762C13.6613 17.8264 13.5578 17.852 13.4529 17.8504H13.4678ZM151.9 19.2191C151.817 19.2157 151.735 19.1955 151.659 19.1597C150.606 18.6454 149.555 18.1434 148.506 17.6538C148.437 17.6214 148.375 17.5757 148.323 17.5192C148.271 17.4627 148.231 17.3965 148.205 17.3246C148.179 17.2526 148.167 17.1761 148.17 17.0996C148.174 17.0231 148.192 16.948 148.225 16.8786C148.257 16.8092 148.303 16.7468 148.359 16.6951C148.416 16.6433 148.482 16.6032 148.554 16.5771C148.626 16.5509 148.702 16.5391 148.779 16.5425C148.855 16.5459 148.93 16.5643 149 16.5967C150.053 17.0912 151.11 17.5957 152.171 18.11C152.295 18.1657 152.396 18.2631 152.456 18.3853C152.516 18.5075 152.531 18.6468 152.499 18.779C152.466 18.9112 152.389 19.028 152.28 19.1091C152.17 19.1901 152.036 19.2304 151.9 19.2228V19.2191ZM19.766 14.7903C19.6361 14.7838 19.5119 14.7342 19.4132 14.6494C19.3145 14.5645 19.2469 14.4492 19.221 14.3217C19.195 14.1942 19.2123 14.0616 19.27 13.945C19.3277 13.8283 19.4227 13.7342 19.5398 13.6775C20.5969 13.199 21.6837 12.7205 22.7631 12.2643C22.8348 12.2269 22.9135 12.2048 22.9942 12.1993C23.0749 12.1938 23.1558 12.205 23.232 12.2324C23.3081 12.2597 23.3777 12.3025 23.4365 12.358C23.4953 12.4136 23.5419 12.4807 23.5735 12.5551C23.6051 12.6296 23.6209 12.7098 23.62 12.7907C23.6191 12.8715 23.6014 12.9513 23.5682 13.025C23.5349 13.0988 23.4867 13.1648 23.4267 13.219C23.3667 13.2732 23.2961 13.3144 23.2193 13.3399C22.1474 13.7925 21.0717 14.2635 20.022 14.742C19.941 14.7761 19.8538 14.7925 19.766 14.7903ZM145.535 16.2554C145.459 16.2537 145.383 16.2373 145.313 16.2072C144.242 15.7299 143.174 15.2675 142.108 14.8199C141.973 14.7546 141.868 14.64 141.815 14.4997C141.762 14.3594 141.765 14.2042 141.823 14.0659C141.881 13.9276 141.99 13.8168 142.127 13.7563C142.264 13.6957 142.419 13.6901 142.56 13.7405C143.629 14.1931 144.716 14.6641 145.788 15.1389C145.91 15.1942 146.009 15.29 146.069 15.4102C146.129 15.5303 146.145 15.6674 146.115 15.7982C146.086 15.9291 146.012 16.0456 145.906 16.1283C145.8 16.2109 145.669 16.2545 145.535 16.2517V16.2554ZM26.2238 12.0528C26.094 12.0445 25.9706 11.9929 25.8735 11.9062C25.7764 11.8196 25.7112 11.7029 25.6881 11.5749C25.6651 11.4468 25.6856 11.3147 25.7464 11.1996C25.8072 11.0846 25.9047 10.9932 26.0235 10.9401C27.1103 10.5135 28.2157 10.0906 29.3136 9.68634C29.4612 9.63273 29.624 9.63992 29.7663 9.70636C29.9085 9.77279 30.0185 9.89302 30.0722 10.0406C30.1258 10.1881 30.1186 10.351 30.0521 10.4932C29.9857 10.6355 29.8655 10.7455 29.7179 10.7991C28.6274 11.1997 27.5295 11.6188 26.4538 12.0417C26.3787 12.061 26.3004 12.0648 26.2238 12.0528ZM139.077 13.5365C139.009 13.5359 138.941 13.522 138.877 13.4957C137.794 13.0655 136.7 12.6389 135.621 12.2309C135.476 12.1763 135.359 12.0665 135.295 11.9256C135.232 11.7847 135.227 11.6244 135.281 11.4798C135.336 11.3352 135.446 11.2182 135.586 11.1545C135.727 11.0909 135.888 11.0858 136.032 11.1404C137.119 11.5484 138.221 11.975 139.307 12.4089C139.451 12.4667 139.567 12.5791 139.628 12.7217C139.689 12.8642 139.691 13.0252 139.634 13.1693C139.59 13.2797 139.513 13.3739 139.413 13.4389C139.314 13.504 139.196 13.5367 139.077 13.5328V13.5365ZM32.804 9.63441C32.6668 9.63146 32.535 9.58011 32.4319 9.48942C32.3288 9.39873 32.261 9.27454 32.2406 9.13876C32.2202 9.00299 32.2485 8.86438 32.3203 8.74739C32.3922 8.6304 32.5031 8.54255 32.6334 8.49938C33.7462 8.12846 34.8589 7.75753 35.9717 7.38661C36.1139 7.35742 36.2619 7.38206 36.387 7.45575C36.5121 7.52944 36.6054 7.64693 36.6488 7.78547C36.6922 7.92401 36.6826 8.07374 36.622 8.20563C36.5613 8.33753 36.4538 8.44219 36.3204 8.49938C35.2076 8.84434 34.0948 9.20786 32.9821 9.58249C32.926 9.60964 32.8659 9.62718 32.804 9.63441ZM132.52 11.0625C132.457 11.0622 132.396 11.0509 132.338 11.0291C131.225 10.6582 130.112 10.2613 129.033 9.91631C128.885 9.86712 128.763 9.76133 128.694 9.6222C128.624 9.48308 128.613 9.32203 128.662 9.17446C128.711 9.0269 128.817 8.90493 128.956 8.83537C129.095 8.76581 129.256 8.75435 129.404 8.80354C130.517 9.17446 131.629 9.54539 132.742 9.94228C132.871 9.99044 132.979 10.0824 133.047 10.202C133.115 10.3217 133.138 10.4614 133.113 10.5968C133.089 10.7321 133.017 10.8544 132.911 10.9422C132.805 11.0301 132.672 11.0779 132.534 11.0773L132.52 11.0625ZM39.4955 7.53127C39.3574 7.52515 39.2259 7.47038 39.1242 7.37667C39.0226 7.28296 38.9573 7.15633 38.94 7.01917C38.9227 6.882 38.9544 6.74315 39.0296 6.62712C39.1048 6.5111 39.2186 6.42536 39.3508 6.38511C40.4636 6.0624 41.6172 5.74714 42.7411 5.45411C42.818 5.42066 42.9011 5.40421 42.9849 5.40586C43.0687 5.40752 43.1512 5.42723 43.2267 5.46368C43.3022 5.50014 43.3689 5.55246 43.4223 5.61707C43.4757 5.68167 43.5145 5.75706 43.5361 5.83805C43.5577 5.91904 43.5616 6.00374 43.5474 6.08636C43.5333 6.16898 43.5015 6.24756 43.4542 6.31676C43.4069 6.38596 43.3452 6.44414 43.2733 6.4873C43.2015 6.53047 43.1211 6.55761 43.0378 6.56688C41.925 6.85991 40.79 7.17149 39.6735 7.49419C39.6159 7.51381 39.5561 7.52626 39.4955 7.53127ZM125.865 8.85176C125.812 8.85036 125.76 8.84162 125.709 8.8258C124.597 8.48454 123.484 8.15072 122.371 7.83172C122.244 7.7728 122.142 7.67032 122.084 7.54284C122.026 7.41537 122.016 7.27132 122.055 7.1368C122.094 7.00228 122.18 6.88618 122.297 6.80953C122.414 6.73288 122.555 6.70074 122.694 6.71895C123.807 7.04165 124.953 7.3792 126.062 7.72045C126.194 7.76424 126.307 7.85376 126.379 7.97295C126.451 8.09213 126.478 8.23316 126.456 8.37074C126.434 8.50833 126.363 8.63345 126.257 8.72365C126.151 8.81384 126.016 8.86322 125.876 8.8629L125.865 8.85176ZM46.276 5.75455C46.1354 5.74845 46.0018 5.692 45.8994 5.59551C45.7971 5.49903 45.7328 5.36896 45.7184 5.22903C45.704 5.0891 45.7404 4.94866 45.821 4.83336C45.9016 4.71805 46.021 4.63555 46.1573 4.60096C47.2701 4.3339 48.4422 4.07427 49.592 3.82946C49.7414 3.80404 49.8948 3.83744 50.0201 3.92266C50.1453 4.00789 50.2327 4.13831 50.2639 4.28657C50.2951 4.43483 50.2676 4.58939 50.1873 4.71785C50.107 4.84632 49.9801 4.93869 49.8332 4.9756C48.6944 5.2167 47.5483 5.47264 46.4281 5.71745C46.3799 5.73976 46.3286 5.75476 46.276 5.76196V5.75455ZM119.126 6.92666C119.081 6.93206 119.036 6.93206 118.992 6.92666C117.879 6.63364 116.737 6.34803 115.605 6.07726C115.459 6.03638 115.335 5.94038 115.258 5.8095C115.181 5.67862 115.158 5.52306 115.194 5.37553C115.229 5.22799 115.321 5.10001 115.449 5.0185C115.577 4.937 115.731 4.90832 115.88 4.93852C117.015 5.213 118.165 5.50232 119.289 5.79535C119.425 5.83403 119.543 5.9208 119.62 6.03961C119.697 6.15841 119.729 6.3012 119.709 6.44152C119.689 6.58185 119.619 6.7102 119.512 6.8028C119.404 6.89541 119.267 6.946 119.126 6.94521V6.92666ZM53.1344 4.30794C52.988 4.30796 52.8469 4.25284 52.7393 4.15354C52.6317 4.05424 52.5655 3.91805 52.5538 3.77211C52.5421 3.62617 52.5858 3.48117 52.6762 3.36601C52.7666 3.25084 52.8971 3.17395 53.0417 3.15066C54.1915 2.93552 55.3599 2.73151 56.5098 2.54605C56.6628 2.52146 56.8192 2.55865 56.9448 2.64942C57.0704 2.7402 57.1547 2.87713 57.1793 3.03011C57.2039 3.18308 57.1667 3.33956 57.0759 3.46512C56.9852 3.59068 56.8482 3.67503 56.6953 3.69962C55.5565 3.88508 54.3992 4.07054 53.2568 4.30052C53.2165 4.30853 53.1753 4.31103 53.1344 4.30794ZM112.312 5.30573H112.2C111.065 5.06092 109.915 4.82352 108.78 4.60468C108.705 4.59055 108.632 4.56166 108.568 4.51962C108.503 4.47758 108.448 4.42322 108.404 4.35967C108.361 4.29612 108.33 4.22462 108.314 4.14924C108.298 4.07385 108.297 3.99608 108.311 3.92033C108.325 3.84459 108.354 3.77237 108.396 3.70779C108.438 3.64322 108.493 3.58755 108.556 3.54397C108.62 3.5004 108.691 3.46978 108.767 3.45385C108.842 3.43791 108.92 3.43698 108.996 3.45111C110.138 3.66995 111.295 3.90735 112.441 4.15587C112.582 4.18816 112.706 4.27139 112.79 4.38958C112.873 4.50777 112.91 4.65257 112.893 4.79614C112.876 4.93971 112.806 5.07192 112.697 5.16736C112.589 5.26279 112.449 5.31472 112.304 5.31315L112.312 5.30573ZM60.0521 3.19146C59.9068 3.18496 59.7691 3.12469 59.6658 3.02234C59.5625 2.91999 59.501 2.78289 59.4931 2.63767C59.4852 2.49246 59.5316 2.3495 59.6233 2.23659C59.715 2.12369 59.8453 2.04889 59.9891 2.02675C61.1389 1.86725 62.3147 1.72259 63.4794 1.58906C63.5587 1.57369 63.6403 1.57487 63.7192 1.59252C63.798 1.61018 63.8723 1.64395 63.9374 1.69169C64.0026 1.73942 64.0571 1.8001 64.0977 1.86993C64.1383 1.93975 64.164 2.01722 64.1732 2.09745C64.1825 2.17768 64.175 2.25895 64.1513 2.33616C64.1277 2.41338 64.0883 2.48489 64.0357 2.54616C63.9831 2.60744 63.9184 2.65717 63.8456 2.69226C63.7729 2.72735 63.6937 2.74703 63.613 2.75006C62.4557 2.87988 61.291 3.02826 60.1486 3.18405L60.0521 3.19146ZM105.431 3.9741H105.346C104.2 3.77751 103.039 3.60318 101.9 3.42514C101.755 3.39376 101.627 3.30858 101.542 3.18675C101.458 3.06492 101.423 2.91552 101.444 2.76869C101.465 2.62186 101.541 2.48851 101.657 2.39557C101.772 2.30262 101.919 2.25699 102.067 2.26786C103.217 2.43848 104.389 2.63878 105.542 2.82053C105.685 2.84871 105.812 2.92888 105.899 3.04545C105.985 3.16203 106.026 3.3067 106.012 3.45138C105.998 3.59606 105.931 3.73045 105.824 3.82842C105.716 3.92638 105.576 3.98094 105.431 3.98153V3.9741ZM67.0181 2.39767C66.8636 2.40259 66.7135 2.34597 66.6009 2.24024C66.4882 2.1345 66.4221 1.98833 66.4172 1.83388C66.4123 1.67943 66.4689 1.52935 66.5746 1.41666C66.6804 1.30397 66.8265 1.23791 66.981 1.23299C68.1345 1.12913 69.3141 1.04009 70.4899 0.962198C70.5664 0.957327 70.6431 0.967566 70.7156 0.992331C70.7881 1.0171 70.8551 1.05592 70.9126 1.10655C70.9701 1.15718 71.0171 1.21865 71.0508 1.28744C71.0846 1.35623 71.1045 1.43099 71.1094 1.50747C71.1142 1.58394 71.104 1.66062 71.0792 1.73314C71.0545 1.80566 71.0157 1.8726 70.965 1.93012C70.9144 1.98764 70.8529 2.03462 70.7841 2.06838C70.7154 2.10215 70.6406 2.12203 70.5641 2.12691C69.4031 2.2048 68.231 2.29381 67.0848 2.39767H67.0181ZM98.4947 2.95406H98.4391C97.2855 2.8094 96.1208 2.67958 94.9709 2.58314C94.8947 2.57559 94.8207 2.55311 94.7532 2.51696C94.6856 2.48081 94.6258 2.43172 94.5773 2.37248C94.5287 2.31323 94.4923 2.245 94.4701 2.17169C94.4479 2.09837 94.4404 2.02139 94.4479 1.94516C94.4555 1.86892 94.478 1.79493 94.5141 1.72739C94.5502 1.65985 94.5993 1.60009 94.6586 1.55152C94.7178 1.50296 94.7861 1.46652 94.8594 1.44433C94.9327 1.42213 95.0097 1.41461 95.0859 1.42216C96.2469 1.53715 97.4227 1.67068 98.5837 1.79309C98.7289 1.81639 98.86 1.8934 98.9511 2.00886C99.0421 2.12433 99.0864 2.26979 99.0752 2.4164C99.064 2.563 98.9981 2.70005 98.8905 2.80034C98.783 2.90062 98.6417 2.95681 98.4947 2.95777V2.95406ZM74.0137 1.94144C73.8668 1.92973 73.7297 1.86309 73.6297 1.75483C73.5297 1.64656 73.4742 1.5046 73.4742 1.35723C73.4742 1.20987 73.5297 1.06791 73.6297 0.95964C73.7297 0.851372 73.8668 0.784761 74.0137 0.773046C75.1784 0.724826 76.3616 0.691432 77.5301 0.669176C77.6774 0.677765 77.8161 0.741633 77.9184 0.848028C78.0207 0.954422 78.0791 1.09551 78.0819 1.24309C78.0847 1.39066 78.0317 1.53386 77.9336 1.64407C77.8354 1.75429 77.6992 1.8234 77.5523 1.8376C76.3913 1.85985 75.2192 1.89322 74.0619 1.94144H74.0137ZM91.525 2.25303H91.4954C90.3344 2.16401 89.1622 2.0861 88.0124 2.02675C87.8575 2.01813 87.7124 1.94848 87.6088 1.83307C87.5052 1.71766 87.4516 1.5659 87.4597 1.41102C87.463 1.33402 87.4816 1.25845 87.5145 1.18875C87.5474 1.11905 87.5939 1.05663 87.6513 1.00515C87.7087 0.953662 87.7757 0.914169 87.8486 0.88896C87.9214 0.863751 87.9985 0.85334 88.0754 0.858351C89.2327 0.921408 90.416 0.999301 91.5844 1.08832C91.6609 1.09222 91.7358 1.11115 91.805 1.14402C91.8741 1.17688 91.9361 1.22304 91.9875 1.27987C92.0388 1.33671 92.0784 1.40308 92.1041 1.47523C92.1298 1.54738 92.1409 1.62388 92.1371 1.70036C92.1332 1.77683 92.1143 1.85177 92.0814 1.92093C92.0485 1.9901 92.0023 2.05211 91.9455 2.10343C91.8887 2.15475 91.8223 2.19438 91.7501 2.22004C91.678 2.24571 91.6015 2.25693 91.525 2.25303ZM81.0242 1.81903C80.8773 1.80732 80.7402 1.74071 80.6402 1.63244C80.5402 1.52417 80.4847 1.38221 80.4847 1.23484C80.4847 1.08748 80.5402 0.945519 80.6402 0.837251C80.7402 0.728984 80.8773 0.662349 81.0242 0.650635C82.0183 0.650635 83.0235 0.672892 84.0361 0.698857H84.5405C84.6211 0.695172 84.7015 0.708138 84.7768 0.736959C84.8521 0.76578 84.9207 0.809822 84.9781 0.866343C85.0357 0.922864 85.0809 0.99064 85.111 1.06543C85.1411 1.14023 85.1554 1.22045 85.1531 1.30104C85.1508 1.38164 85.1319 1.46089 85.0976 1.53384C85.0633 1.6068 85.0142 1.67186 84.9536 1.72501C84.893 1.77816 84.822 1.81824 84.7452 1.84271C84.6684 1.86719 84.5873 1.87553 84.5071 1.86725H84.0027C83.0012 1.84129 82.0034 1.82274 81.0353 1.81903H81.0242Z" fill="#FF7B89"/>
</g>
<defs>
<clipPath id="clip0_230_4190">
<rect width="162.149" height="24.4365" fill="white" transform="translate(0.859863 0.646881)"/>
</clipPath>
</defs>
</svg>
