<svg width="100" height="190" viewBox="0 0 100 190" fill="none" xmlns="http://www.w3.org/2000/svg">
<path d="M180.865 120.214C180.895 119.505 180.777 118.797 180.517 118.135C180.257 117.474 179.861 116.875 179.356 116.376C178.85 115.876 178.245 115.489 177.58 115.237C176.915 114.985 176.204 114.876 175.495 114.915C174.376 115.009 173.311 115.433 172.435 116.134C172.255 116.2 172.081 116.282 171.914 116.378C171.701 116.5 171.499 116.642 171.312 116.801C173.072 111.159 174.498 105.419 175.584 99.6098C177.35 102.512 181.849 103.316 184.331 100.797C186.813 98.2768 186.308 93.7089 183.053 92.0914C182.216 91.6955 181.287 91.5347 180.365 91.6264C179.444 91.718 178.564 92.0586 177.822 92.6116C177.543 92.8291 177.284 93.0712 177.049 93.335C176.893 93.4027 176.741 93.4786 176.593 93.5626C177.241 89.2547 177.629 84.912 177.757 80.5577C177.87 80.4683 178.001 80.3789 178.115 80.2813C178.578 79.8912 178.253 79.306 177.781 79.1515V78.8102C178.214 79.3766 178.743 79.8634 179.343 80.2488C179.932 80.6025 180.587 80.8307 181.268 80.9191C181.949 81.0076 182.641 80.9543 183.301 80.7627C183.96 80.5711 184.573 80.2453 185.1 79.8058C185.628 79.3662 186.058 78.8225 186.365 78.2087C187.521 75.7702 186.829 72.4134 184.225 71.1779C183.465 70.8229 182.629 70.6616 181.791 70.7084C180.953 70.7552 180.14 71.0087 179.425 71.4462C178.974 71.7258 178.577 72.0836 178.253 72.5028C178.174 72.5641 178.1 72.6321 178.033 72.706C177.897 72.8426 177.772 72.9894 177.659 73.1449C177.381 67.4283 176.453 61.7618 174.892 56.2548C175.33 56.5986 175.819 56.8728 176.341 57.0676C177.42 57.5101 178.621 57.5587 179.732 57.2049C180.844 56.8512 181.795 56.1177 182.419 55.1331C182.921 54.304 183.182 53.3518 183.173 52.383C183.164 51.4142 182.886 50.4668 182.37 49.6467C181.977 49.0325 181.443 48.5214 180.811 48.1565C180.18 47.7916 179.47 47.5835 178.741 47.5497C178.091 47.3542 177.398 47.3542 176.748 47.5497C175.896 47.7919 175.123 48.2536 174.506 48.8884C173.889 49.5233 173.45 50.3089 173.233 51.1667C172.12 48.2321 170.779 45.3894 169.221 42.6647C168.546 41.4943 167.813 40.3726 167.057 39.2753C168.093 39.5022 169.174 39.3796 170.133 38.9265C171.091 38.4735 171.872 37.7158 172.354 36.7719C172.662 36.1424 172.837 35.4563 172.868 34.7563C172.899 34.0563 172.785 33.3575 172.534 32.7033C172.283 32.0491 171.899 31.4535 171.408 30.9537C170.916 30.4538 170.327 30.0605 169.677 29.798C169.021 29.5767 168.326 29.4988 167.638 29.5696C166.95 29.6403 166.285 29.8581 165.688 30.2081C165.092 30.5581 164.577 31.0321 164.18 31.598C163.783 32.164 163.513 32.8086 163.387 33.4882C163.285 33.7504 163.211 34.0229 163.167 34.301C160.216 31.0147 156.903 28.0726 153.289 25.5308C154.104 25.1913 154.814 24.6425 155.347 23.9401C155.88 23.2377 156.217 22.4067 156.324 21.5318C156.413 20.6574 156.242 19.7765 155.834 18.9978C155.427 18.2192 154.799 17.577 154.03 17.1508C153.202 16.6911 152.247 16.513 151.309 16.6435C150.371 16.774 149.501 17.206 148.831 17.8742C148.757 17.9473 148.692 18.0449 148.619 18.1343C148.123 18.3809 147.687 18.7351 147.345 19.171C147.003 19.6069 146.763 20.1135 146.642 20.654C146.604 20.8743 146.583 21.097 146.577 21.3205C143.206 19.4532 139.719 17.8026 136.137 16.3786C137.153 15.6989 137.892 14.6782 138.22 13.5013C138.43 12.7776 138.469 12.0152 138.335 11.2738C138.2 10.5324 137.896 9.83227 137.445 9.22828C136.994 8.62429 136.409 8.13288 135.736 7.7926C135.063 7.45233 134.32 7.27245 133.566 7.26706C132.878 7.29688 132.202 7.46481 131.58 7.76085C130.958 8.05689 130.402 8.47497 129.945 8.9902C129.678 9.29594 129.451 9.63468 129.27 9.9981L128.806 10.4451C128.408 10.8345 128.123 11.3238 127.979 11.8616C127.836 12.3994 127.841 12.9658 127.992 13.5013C127.61 13.3794 127.219 13.2412 126.829 13.1274C122.361 11.7663 117.808 10.6992 113.2 9.93306C113.427 9.78471 113.642 9.61895 113.843 9.43726C114.388 8.9336 114.806 8.30748 115.061 7.61068C115.316 6.91388 115.401 6.16643 115.31 5.43014C115.218 4.69385 114.953 3.98989 114.535 3.37647C114.117 2.76306 113.559 2.25784 112.907 1.90257C111.901 1.40056 110.759 1.23799 109.652 1.43927C109.311 1.30933 108.944 1.26149 108.581 1.29961C108.217 1.33774 107.868 1.46075 107.561 1.65871C106.454 2.40721 105.68 3.55473 105.401 4.86082C105.122 6.16691 105.359 7.53021 106.064 8.66509C106.137 8.78701 106.227 8.89268 106.308 9.00648C102.637 8.63567 98.9485 8.45932 95.2585 8.47816C95.7377 7.37645 95.787 6.13556 95.3968 4.99935C94.3391 1.87006 91.4749 0.772751 88.5295 0.992208C85.9745 0.285068 83.4603 3.02423 83.5823 5.73087C83.6493 6.97167 84.1371 8.15271 84.9656 9.07963C81.6847 9.45095 78.4256 9.99356 75.2015 10.7052C73.9078 10.9816 72.6222 11.3067 71.3447 11.6562C73.0697 9.28284 72.7768 5.63334 69.9941 4.0565C69.3705 3.70864 68.6834 3.48913 67.9734 3.41095C67.2635 3.33277 66.5451 3.39752 65.8606 3.60133H65.7141C62.0526 3.68261 60.2951 8.02299 62.0445 10.9653C62.7831 12.1879 63.9389 13.1029 65.2992 13.5419C61.2245 14.9561 57.2593 16.6676 53.4359 18.6626L53.3219 18.6219C53.0046 18.5 52.7524 18.7601 52.6873 19.0527C51.9713 19.4347 51.2715 19.8656 50.5636 20.2394C50.9194 18.9216 50.8511 17.5254 50.3683 16.2486C50.1894 15.7162 49.9045 15.2255 49.5308 14.8061C49.1571 14.3866 48.7022 14.0471 48.1936 13.8079C47.685 13.5687 47.1333 13.4348 46.5715 13.4142C46.0097 13.3936 45.4496 13.4869 44.9249 13.6882C43.8244 13.4991 42.6922 13.6574 41.6859 14.141C40.6797 14.6247 39.8493 15.4097 39.3106 16.3867C38.8292 17.2799 38.5874 18.2823 38.6088 19.2964C38.6302 20.3105 38.914 21.3018 39.4326 22.1739C39.8766 22.8708 40.4652 23.4645 41.1587 23.9146C41.8521 24.3647 42.6342 24.6609 43.4521 24.783C39.8335 27.3353 36.4118 30.1555 33.2162 33.2199H32.4025C32.2768 33.2251 32.156 33.27 32.0575 33.3482C31.959 33.4263 31.8879 33.5337 31.8544 33.6548C31.8209 33.776 31.8268 33.9046 31.8712 34.0222C31.9156 34.1398 31.9962 34.2402 32.1014 34.3091C31.4342 34.9756 30.7833 35.6502 30.1405 36.3411C30.0009 35.3243 29.6 34.361 28.9769 33.5451C28.5635 32.9303 27.9673 32.4606 27.2724 32.2025C26.5775 31.9444 25.819 31.9108 25.1039 32.1064C23.5257 32.5368 22.1297 33.4665 21.125 34.7561C20.8618 34.9568 20.6241 35.1888 20.4171 35.447C19.9918 35.9893 19.6915 36.6186 19.5376 37.2901C19.3838 37.9616 19.3802 38.6587 19.527 39.3318C19.6739 40.0049 19.9677 40.6372 20.3874 41.1838C20.807 41.7305 21.3423 42.1778 21.955 42.494C22.7149 42.8712 23.5478 43.0792 24.396 43.1036C22.0625 46.1671 19.9524 49.3942 18.0819 52.7597C18.0083 52.7977 17.9474 52.8565 17.9069 52.9288C17.8664 53.001 17.848 53.0836 17.8541 53.1662C17.4879 53.8245 17.138 54.491 16.7963 55.1657V55.1088C16.7341 55.0352 16.6474 54.9866 16.5521 54.972C16.4568 54.9574 16.3595 54.9777 16.2781 55.0293C16.1967 55.0808 16.1367 55.1601 16.1093 55.2524C16.082 55.3448 16.089 55.4439 16.1291 55.5314C16.2186 55.7021 16.2918 55.8809 16.3813 56.0516C15.7874 57.2546 15.2341 58.49 14.7052 59.7092C14.4087 59.1718 14.0236 58.6881 13.566 58.2787C12.7792 57.5569 11.7836 57.1028 10.7223 56.9816C9.66091 56.8604 8.5884 57.0783 7.65879 57.6041C6.56838 58.2022 5.74766 59.1936 5.36424 60.3757C4.97174 61.0995 4.78196 61.9157 4.81489 62.7382C4.84783 63.5608 5.10227 64.3592 5.55139 65.0494C6.22016 66.0683 7.22919 66.817 8.39886 67.1623C9.56852 67.5076 10.8229 67.4271 11.9387 66.9351C11.3122 68.9183 10.7751 70.9341 10.3114 72.9742L10.1079 73.0311C9.54651 73.1612 9.66856 73.8439 10.1079 74.0146C9.88825 75.055 9.68483 76.0954 9.51396 77.1439V77.3227C9.4524 77.3511 9.39892 77.3944 9.35838 77.4487C9.31783 77.503 9.29151 77.5665 9.28181 77.6336C9.27211 77.7006 9.27934 77.769 9.30283 77.8325C9.32632 77.896 9.36533 77.9527 9.41632 77.9974C9.15595 79.623 8.95253 81.3298 8.77352 83.0123L8.35855 83.1505C7.87848 83.305 7.97612 84.134 8.51315 84.0609H8.66774C8.66774 84.2478 8.66774 84.4267 8.66774 84.6055C7.86748 84.0249 6.90652 83.7068 5.91754 83.6951C4.89267 83.6908 3.89242 84.0087 3.05853 84.6039C2.22465 85.1991 1.59944 86.0414 1.27148 87.0114C1.09185 87.1881 0.948171 87.3978 0.848374 87.6291C0.580599 88.1771 0.451687 88.7824 0.472969 89.3918C0.49425 90.0013 0.665075 90.5961 0.970425 91.1242C1.43837 91.9405 2.11178 92.6204 2.92388 93.0966C3.73599 93.5728 4.65858 93.8287 5.60021 93.8389C6.53256 93.8649 7.45116 93.61 8.2365 93.1074C8.19649 97.9294 8.52836 102.747 9.22917 107.518C8.49388 107.293 7.72043 107.218 6.95549 107.299C6.19055 107.38 5.44996 107.615 4.7784 107.99C3.82156 108.553 3.07691 109.416 2.6593 110.444C2.24169 111.472 2.17432 112.609 2.46758 113.679C2.67119 114.41 3.0674 115.072 3.61485 115.598C4.02595 116.586 4.76176 117.404 5.701 117.918C6.64024 118.433 7.72683 118.612 8.78166 118.426C9.67147 118.27 10.5095 117.899 11.2227 117.345C12.3119 121.304 13.7299 125.164 15.4619 128.887L15.1364 128.976C13.3708 129.237 12.0933 130.854 11.6539 132.528C11.4237 133.44 11.4387 134.395 11.6974 135.299C11.956 136.202 12.4491 137.022 13.1267 137.673C15.2097 139.632 18.2853 139.104 20.1974 137.373C21.9567 140.056 23.8892 142.622 25.9826 145.054C25.9549 145.125 25.945 145.202 25.9537 145.278C25.9625 145.354 25.9897 145.427 26.0329 145.49C26.0762 145.554 26.1343 145.605 26.2021 145.641C26.2698 145.677 26.3453 145.696 26.422 145.696H26.5278C26.8126 146.021 27.1055 146.33 27.3984 146.647C26.3931 147.372 25.6778 148.43 25.3798 149.633C25.0819 150.835 25.2205 152.104 25.7711 153.214C26.1212 153.896 26.6306 154.484 27.2562 154.927C27.8817 155.371 28.605 155.657 29.3649 155.763C30.1248 155.868 30.8988 155.789 31.6216 155.532C32.3444 155.275 32.9946 154.848 33.5172 154.287C33.8023 153.967 34.0456 153.612 34.2414 153.231C37.2599 155.748 40.4791 158.015 43.8671 160.009C43.0616 160.688 42.5511 161.653 42.4432 162.7C42.1057 163.713 42.1057 164.808 42.4432 165.821C43.4277 168.78 47.374 169.657 49.8232 168.007C50.4742 167.576 50.9999 166.98 51.347 166.281C51.6941 165.582 51.8505 164.803 51.8004 164.025C52.2723 164.22 52.7442 164.431 53.2162 164.618C53.3171 164.895 53.4339 165.167 53.5661 165.431C53.8346 165.967 54.6645 165.723 54.754 165.195C55.4212 165.439 56.0884 165.683 56.7719 165.918C55.8769 168.609 55.0632 171.259 54.2495 173.99C52.9639 178.346 60.0429 181.142 61.8411 176.859C62.4025 175.51 62.9395 174.152 63.4684 172.795C64.0787 173.039 64.6889 173.266 65.2992 173.494C64.9261 174.093 64.7157 174.78 64.6889 175.485C64.5425 178.948 68.326 181.394 71.5237 180.362C72.396 180.074 73.1705 179.549 73.7599 178.845C74.3493 178.142 74.7303 177.288 74.8598 176.379C77.6914 177.039 80.5571 177.544 83.444 177.891C83.2154 178.605 83.2154 179.372 83.444 180.086C83.5632 180.533 83.8017 180.939 84.1342 181.261C84.4668 181.583 84.8807 181.809 85.3317 181.914C85.583 182.352 85.9015 182.747 86.2756 183.085C86.8788 183.599 87.6039 183.95 88.3815 184.104C89.1592 184.258 89.9634 184.211 90.7175 183.966C91.4716 183.722 92.1504 183.288 92.689 182.707C93.2275 182.126 93.608 181.416 93.7939 180.646C93.9773 179.938 94.0078 179.198 93.8834 178.476C96.3244 178.476 98.7654 178.322 101.206 178.07L102.191 185.296C102.948 190.782 111.654 190.498 110.889 184.938C110.718 183.727 110.556 182.5 110.385 181.289C110.902 181.873 111.549 182.328 112.274 182.617C112.998 182.906 113.781 183.022 114.559 182.955C115.61 182.853 116.592 182.386 117.335 181.637C118.078 180.887 118.535 179.901 118.627 178.85C118.71 178.102 118.616 177.345 118.353 176.639C118.09 175.933 117.666 175.299 117.114 174.786C121.787 173.332 126.314 171.446 130.637 169.153C130.637 169.292 130.637 169.422 130.637 169.552C130.738 170.642 131.182 171.672 131.905 172.494C132.629 173.316 133.595 173.888 134.665 174.128C135.681 174.362 136.743 174.293 137.721 173.93C138.698 173.568 139.548 172.927 140.165 172.088C140.841 171.108 141.156 169.925 141.056 168.739C140.957 167.553 140.449 166.439 139.62 165.585C139.229 165.173 138.769 164.832 138.261 164.577C141.897 162.082 145.314 159.282 148.473 156.205C148.487 156.391 148.514 156.576 148.554 156.758C148.656 157.451 148.916 158.11 149.314 158.687C149.712 159.263 150.237 159.741 150.848 160.083C151.523 160.487 152.284 160.728 153.069 160.786C153.854 160.844 154.641 160.718 155.369 160.418C156.096 160.118 156.743 159.652 157.258 159.057C157.773 158.463 158.142 157.756 158.334 156.994C159.01 153.946 156.707 150.719 153.591 150.686C153.9 150.321 154.225 149.963 154.526 149.581C156.491 147.13 158.314 144.568 159.986 141.908C160.357 143.279 161.227 144.462 162.427 145.224C166.967 147.915 172.289 142.363 169.669 137.909C169.137 137.007 168.362 136.271 167.433 135.785C166.504 135.3 165.458 135.084 164.412 135.162C164.198 135.181 163.986 135.217 163.778 135.268C166.154 130.681 168.204 125.934 169.913 121.06C170.149 122.363 170.824 123.547 171.826 124.414C172.828 125.282 174.096 125.782 175.421 125.831C178.521 125.839 180.702 123.1 180.865 120.214ZM172.63 103.528C171.29 104.367 170.009 105.298 168.798 106.315C168.082 103.95 167.285 101.593 166.585 99.2522C166.682 98.5938 166.772 97.9436 166.861 97.2852C166.916 97.3887 167.007 97.468 167.117 97.5072C167.227 97.5464 167.348 97.5426 167.455 97.4965C168.434 97.0412 169.368 96.4971 170.246 95.8709C171.141 97.4965 172.061 99.1221 173.013 100.748C173.059 100.826 173.12 100.895 173.192 100.951C173.045 101.813 172.818 102.666 172.63 103.528ZM166.072 102.552C166.398 104.178 166.772 105.803 167.219 107.429C166.406 107.998 165.592 108.559 164.778 109.12C165.259 106.958 165.722 104.771 166.072 102.552ZM163.135 115.305C163.33 116.622 163.542 117.93 163.761 119.239C163.063 119.48 162.351 119.681 161.63 119.841C162.167 118.345 162.679 116.841 163.135 115.305ZM141.263 146.744C127.577 127.765 113.713 108.786 99.4814 90.0919C108.204 95.1204 116.94 100.127 125.69 105.113C136.267 111.119 146.845 118.247 158.025 123.084C157.146 125.099 156.202 127.066 155.153 128.968C151.518 135.606 146.827 141.61 141.263 146.744ZM153.892 140.933C153.639 140.933 153.395 140.933 153.143 140.933C152.134 140.933 151.133 140.843 150.141 140.754C151.247 139.364 152.297 137.942 153.273 136.487C153.574 137.954 153.78 139.439 153.892 140.933ZM147.96 146.387C147.097 146.322 146.243 146.232 145.389 146.127C146.316 145.173 147.225 144.195 148.115 143.192C148.041 144.241 147.984 145.314 147.96 146.387ZM141.719 152.401L139.677 151.906L139.172 151.792C140.192 150.974 141.19 150.12 142.167 149.232C142.061 150.296 141.922 151.353 141.719 152.401ZM127.586 103.633C118.294 98.3608 109.01 93.0478 99.7337 87.6941L164.095 96.7244C164.363 96.7657 164.637 96.711 164.868 96.5699C163.919 105.084 161.851 113.435 158.717 121.409C149.026 114.663 137.846 109.485 127.586 103.633ZM85.7711 165.569C86.7557 144.639 89.0258 123.896 91.0193 103.056C91.6295 106.819 91.9062 110.672 92.4025 114.273C93.4874 122.271 94.5723 130.269 95.6572 138.267L99.3919 165.512C94.8636 165.96 90.303 165.979 85.7711 165.569ZM89.1641 168.072C87.968 169.21 86.7882 170.373 85.6165 171.543L85.5351 171.413C84.8233 170.189 84.2006 168.915 83.6718 167.601C85.5053 167.801 87.3361 167.937 89.1641 168.007V168.072ZM67.846 161.57C71.2146 152.54 74.4285 143.444 77.968 134.495C81.6512 125.143 85.4484 115.831 89.3594 106.559C86.1698 125.961 84.8354 145.785 84.0299 165.39C78.502 164.73 73.0704 163.426 67.846 161.505V161.57ZM69.872 164.561C68.7491 165.396 67.6263 166.208 66.5034 166.999C66.3814 166.674 66.2512 166.357 66.1373 166.032C66.4464 165.219 66.7638 164.407 67.073 163.594C68.0005 163.943 68.9363 164.22 69.872 164.52V164.561ZM27.5612 128.269C23.8424 121.521 21.2585 114.209 19.9127 106.624C19.9639 106.633 20.0161 106.633 20.0673 106.624C41.2227 102.934 62.077 97.3015 82.671 91.2217C64.8842 104.422 46.3407 116.476 27.5449 128.229L27.5612 128.269ZM27.1462 131.675C26.2 131.042 25.1945 130.503 24.1437 130.066C24.392 129.297 24.6882 128.545 25.0306 127.814C25.6979 129.106 26.3895 130.383 27.1299 131.634L27.1462 131.675ZM19.7418 114.517C18.8913 113.741 17.9827 113.032 17.0241 112.395C17.6459 111.799 18.2074 111.143 18.7003 110.436C19.0014 111.761 19.3431 113.127 19.7255 114.476L19.7418 114.517ZM19.6767 105.243C18.9302 100.439 18.6902 95.571 18.9607 90.7178C19.2597 85.4019 20.1216 80.1326 21.5319 74.9981C43.4521 81.1023 66.6743 83.2155 89.2292 86.2636L87.9843 87.2308C65.3643 93.9039 42.4676 99.2522 19.6604 105.202L19.6767 105.243ZM17.4717 103.617C16.6587 103 15.7929 102.456 14.8842 101.991C15.2912 101.307 15.7986 100.688 16.3895 100.154C16.4577 100.179 16.5288 100.196 16.601 100.203H16.78C16.8962 100.206 17.0102 100.172 17.1055 100.106C17.1869 101.203 17.3008 102.382 17.4554 103.552L17.4717 103.617ZM51.9713 32.8379C64.4204 49.2403 77.0323 65.5939 89.7011 81.85C71.182 71.0397 52.7931 59.9043 33.9729 49.6304C38.9699 43.0362 45.0501 37.3362 51.955 32.7729L51.9713 32.8379ZM40.3276 35.0812C41.955 35.2275 43.5254 35.3576 45.1283 35.4552C43.501 36.7719 41.8736 38.1536 40.3765 39.6004C40.2599 38.6974 40.2001 37.788 40.1975 36.8776C40.1893 36.2111 40.2463 35.6096 40.3114 35.0162L40.3276 35.0812ZM59.6848 22.7022C61.0925 23.3118 62.5164 23.8646 63.9485 24.3279C62.0933 25.1407 60.2707 25.9535 58.4969 26.8394C59.0515 25.4896 59.4448 24.0791 59.6686 22.6372L59.6848 22.7022ZM67.374 25.1407C71.3278 23.7365 75.3873 22.6493 79.514 21.8894C83.029 41.5674 86.9428 61.3348 92.1991 80.6308C79.4733 64.0659 66.4546 47.8667 52.8663 32.1714C53.9322 31.4887 55.0225 30.8384 56.121 30.2044L56.2105 30.1556C59.7743 28.1409 63.5036 26.4332 67.3578 25.0512L67.374 25.1407ZM120.124 24.8968V24.9375C114.534 34.5204 109.929 44.8024 105.283 54.873C101.263 63.5944 97.309 72.4052 93.8915 81.3867C89.8232 61.4242 85.3155 41.5593 81.4749 21.5399C94.4254 19.4321 107.697 20.5545 120.108 24.8074L120.124 24.8968ZM95.0551 18.3944C95.5189 17.7035 95.9339 16.9476 96.3488 16.2323C97.0893 17.0451 97.846 17.7848 98.619 18.5163C97.4202 18.3916 96.2268 18.3212 95.0388 18.305L95.0551 18.3944ZM105.69 19.2072C106.674 18.183 107.602 17.102 108.643 16.1185C109.435 17.4895 110.249 18.8441 111.084 20.1825C109.278 19.7111 107.48 19.3697 105.673 19.1178L105.69 19.2072ZM123.639 23.8564C120.858 22.7936 118.023 21.8792 115.145 21.1173C116.601 20.3045 118.033 19.3941 119.465 18.5163C119.652 18.3944 119.856 18.2806 120.051 18.1668L120.678 19.0771C121.569 20.5194 122.587 21.8794 123.721 23.1411C123.649 23.2269 123.603 23.3304 123.585 23.4406C123.568 23.5508 123.581 23.6636 123.623 23.767L123.639 23.8564ZM130.71 29.4891C130.71 29.5704 130.775 29.6598 130.816 29.7492C130.872 29.8578 130.964 29.9439 131.076 29.9931C131.076 30.2695 131.337 30.5539 131.638 30.4239L132.085 30.2532C136.362 32.596 140.4 35.3481 144.144 38.4706C128.527 53.7574 112.123 68.2206 94.9981 81.8013C99.1397 72.8604 103.07 63.8302 107.293 54.9218C111.922 45.1682 117.122 35.6096 121.646 25.7828C121.688 25.685 121.713 25.5804 121.719 25.4739C124.804 26.5915 127.815 27.9027 130.735 29.3997L130.71 29.4891ZM124.412 24.149C124.542 24.149 124.665 24.0677 124.787 24.0271C124.84 24.0697 124.897 24.1077 124.957 24.1409C125.039 24.1785 125.128 24.1966 125.218 24.1938C125.307 24.191 125.395 24.1674 125.474 24.1248C125.553 24.0822 125.621 24.0218 125.673 23.9484C125.724 23.875 125.758 23.7906 125.771 23.702C126.853 23.3525 127.911 22.9623 128.969 22.5559C128.965 22.6236 128.965 22.6914 128.969 22.7591C129.213 23.9783 129.416 25.2463 129.693 26.4818C127.984 25.5552 126.211 24.7749 124.396 24.0596L124.412 24.149ZM134.803 29.0746C136.088 28.5869 137.382 28.1155 138.684 27.6603C138.882 29.1494 139.179 30.6238 139.571 32.0739C138.058 31.0254 136.43 30.0094 134.803 29.0746ZM48.2284 33.033C48.4888 31.3667 48.7573 29.7005 49.042 28.0261C50.5338 28.568 52.0255 29.0855 53.5172 29.5786C51.6865 30.6433 49.9208 31.8057 48.2284 33.033ZM32.5896 48.1024C32.435 46.81 31.9387 45.5095 31.6946 44.2416L31.6458 43.9164H32.0852C33.4196 43.8433 34.7947 43.9164 36.1535 43.9164C34.9167 45.2738 33.7206 46.6393 32.5896 48.1024ZM31.6702 49.3378C31.3366 49.793 30.9867 50.2401 30.6612 50.7034C28.6559 50.544 26.638 50.681 24.6726 51.1098C24.2739 49.9068 23.9159 48.6713 23.5823 47.4603C24.2495 46.4768 24.9493 45.5095 25.6734 44.5423C27.252 44.3391 28.8305 44.1359 30.4253 44.0058C30.4253 44.1522 30.4253 44.2985 30.4822 44.4448C30.7345 46.0866 30.824 47.9154 31.6702 49.3378ZM25.3887 52.5159C26.8044 52.3452 28.2772 52.329 29.7011 52.1014C28.7328 53.5319 27.8053 54.9787 26.9346 56.4824C26.422 55.1494 25.7141 53.8814 25.1771 52.5484L25.3887 52.5159ZM33.2813 50.5896C51.5726 62.5134 70.5962 73.4131 89.5059 84.3372C66.8858 81.1917 44.3065 77.8348 21.8573 73.7708C24.2875 65.4391 28.1534 57.5946 33.2813 50.5896ZM95.1202 84.321C112.757 70.3708 129.599 55.4461 145.568 39.6167C146.235 40.2019 146.886 40.7953 147.529 41.4049C153.808 47.2322 158.751 54.347 162.02 62.2614C161.877 62.1261 161.697 62.0367 161.502 62.0048C161.308 61.973 161.109 62.0001 160.93 62.0826C139.422 70.487 117.632 78.0976 95.5596 84.9143L95.1202 84.321ZM153.184 43.8677C155.172 44.2009 157.176 44.4288 159.189 44.5504C159.189 44.5504 159.189 44.5911 159.189 44.6073C158.92 46.5174 158.554 48.4438 158.375 50.3701C156.772 48.1016 155.036 45.9303 153.176 43.8677H153.184ZM167.35 74.486C167.031 71.7769 166.523 69.0935 165.828 66.4555C167.366 67.7966 168.928 69.2435 170.539 70.5846C169.376 71.8526 168.318 73.1855 167.35 74.486ZM167.594 76.1116C168.343 77.7857 169.191 79.4142 170.132 80.9885C170.539 81.6875 170.946 82.484 171.394 83.2724C170.198 84.1259 168.953 84.9793 167.846 85.8978C167.947 82.6597 167.846 79.4186 167.545 76.1929L167.594 76.1116ZM165.722 80.6471C165.78 85.3182 165.568 89.9887 165.088 94.6355C164.948 94.5465 164.789 94.4908 164.624 94.4729C143.249 91.498 121.817 88.7345 100.401 85.8247C121.046 79.3818 141.464 72.2129 161.654 64.3178C161.878 64.2357 162.072 64.0876 162.21 63.8931C162.348 63.6987 162.423 63.467 162.427 63.2287C164.539 68.7971 165.654 74.6929 165.722 80.6471ZM164.909 63.5213C163.856 60.3683 162.493 57.3272 160.84 54.4423C163.232 55.2551 165.633 56.0679 168.041 56.8075C167.032 58.8314 166.145 60.9528 165.21 62.8629C165.153 63.0417 165.031 63.2775 164.909 63.5213ZM159.14 125.969C159.362 126.93 159.536 127.901 159.66 128.879L157.398 129.554C158.017 128.367 158.603 127.18 159.148 125.969H159.14ZM166.943 96.5618C167.016 95.9685 167.089 95.3751 167.154 94.7818C167.309 93.4244 167.431 92.0751 167.537 90.7178C168.188 91.9939 168.863 93.2618 169.538 94.5217C168.599 95.0987 167.731 95.7834 166.951 96.5618H166.943ZM174.469 93.3106C174.225 95.0744 173.957 96.8463 173.656 98.6182C172.98 97.4071 172.264 96.1798 171.556 95.0094C172.419 94.4566 173.542 93.9527 174.477 93.3106H174.469ZM174.713 91.433C173.33 91.7744 171.947 92.9611 170.783 93.7332C169.758 92.0318 168.717 90.3493 167.659 88.6857C167.659 88.1655 167.732 87.6372 167.748 87.117C169.237 86.3042 170.645 85.3532 172.053 84.4023C172.511 85.1346 173.082 85.7902 173.745 86.3448C173.848 86.432 173.976 86.4843 174.11 86.4939C174.245 86.5036 174.379 86.4703 174.493 86.3987C174.607 86.3272 174.696 86.2211 174.746 86.096C174.795 85.9709 174.804 85.8331 174.77 85.7027C174.469 84.8871 174.059 84.116 173.55 83.4106L175.511 82.1345C175.381 85.2151 175.104 88.3525 174.722 91.433H174.713ZM175.592 80.2244C174.616 80.8828 173.672 81.5899 172.728 82.289C172.289 81.6956 171.849 81.1104 171.475 80.5252C170.385 78.8264 169.4 77.0464 168.285 75.3557C169.368 74.1853 170.442 73.0067 171.54 71.8688L171.768 71.6493C172.746 72.4165 173.776 73.1145 174.852 73.7382C174.949 73.7962 175.06 73.8269 175.173 73.8269C175.286 73.8269 175.397 73.7962 175.495 73.7382C175.614 75.8949 175.646 78.057 175.592 80.2244ZM175.438 72.4134C174.719 71.6764 173.958 70.9816 173.159 70.3326C173.81 69.7311 174.453 69.1296 175.08 68.5038C175.226 69.7636 175.356 71.0641 175.438 72.3727V72.4134ZM173.2 58.4006C173.898 61.0766 174.441 63.7904 174.827 66.5287C173.75 67.3694 172.736 68.2876 171.792 69.2759C169.848 67.8129 167.773 66.4555 165.893 65.0737C165.883 65.0346 165.87 64.9965 165.853 64.96C166.186 64.3747 166.512 63.7895 166.837 63.1962C167.48 62.0095 168.106 60.8147 168.741 59.628C169.132 58.8964 169.555 58.173 169.962 57.4415C171.027 57.7016 172.11 58.0511 173.2 58.36V58.4006ZM171.743 53.6132C172.093 54.6211 172.427 55.6371 172.72 56.6612C172.045 56.4418 171.361 56.2467 170.686 56.0354C171.105 55.2448 171.459 54.4211 171.743 53.5726V53.6132ZM171.239 52.2477C171.151 52.2451 171.063 52.2629 170.983 52.2995C170.902 52.3361 170.831 52.3907 170.775 52.459C170.039 53.4041 169.38 54.4071 168.806 55.4583C165.877 54.5723 162.931 53.7189 159.962 52.9386C159.896 52.8248 159.831 52.711 159.758 52.5972C160.254 49.9715 160.605 47.3204 160.808 44.6561C163.032 44.7223 165.255 44.4844 167.415 43.949C168.907 46.5959 170.186 49.3573 171.239 52.207V52.2477ZM159.254 33.1793C162.03 35.9552 164.462 39.0554 166.495 42.4128C164.697 42.3477 162.899 42.4128 161.101 42.4128C161.493 40.3342 161.584 38.2098 161.369 36.1054C161.369 35.8697 160.979 35.7152 160.865 35.9835C160.074 38.0695 159.594 40.2604 159.441 42.4859C156.872 42.594 154.3 42.556 151.735 42.3721C149.09 39.5952 146.231 37.0297 143.184 34.6992C145.503 34.2847 147.822 33.8051 150.132 33.3337C150.132 33.4556 150.132 33.5857 150.132 33.7076C150.238 36.1867 150.132 38.7714 150.694 41.1854C150.741 41.3231 150.831 41.442 150.95 41.5244C151.07 41.6069 151.214 41.6485 151.359 41.643C151.504 41.6375 151.644 41.5853 151.757 41.494C151.871 41.4028 151.951 41.2774 151.988 41.1367C152.281 38.6982 151.857 36.1216 151.67 33.6426C151.67 33.4556 151.67 33.2687 151.63 33.0736C153.623 32.7729 155.844 32.4884 157.447 31.5455C158.098 32.0251 158.692 32.5697 159.254 33.1387V33.1793ZM155.999 30.2207C154.484 30.4088 152.993 30.752 151.548 31.2448C151.426 29.6192 151.28 28.0667 151.093 26.4818C152.789 27.632 154.426 28.8662 155.999 30.18V30.2207ZM147.301 24.0434C147.513 24.3611 147.759 24.6554 148.033 24.9212C148.584 25.4225 149.258 25.7701 149.986 25.9291C149.986 27.831 149.986 29.7411 150.1 31.6187C147.358 32.2771 144.599 32.9192 141.882 33.6832L141.687 33.5288C141.288 31.3505 140.873 29.2047 140.458 27.0263C142.224 26.4086 143.989 25.7909 145.747 25.1569C145.892 25.0597 146.001 24.9185 146.06 24.7541C146.118 24.5898 146.122 24.4111 146.071 24.2444C146.02 24.0777 145.917 23.9318 145.776 23.8283C145.636 23.7248 145.466 23.6691 145.291 23.6695C143.553 24.1426 141.842 24.7097 140.165 25.3682C139.856 23.5638 139.595 21.735 139.433 19.8737C142.132 21.0987 144.759 22.4773 147.301 24.0027V24.0434ZM129.823 16.1917C130.13 16.4321 130.463 16.6366 130.816 16.8013C131.529 17.1462 132.31 17.3294 133.102 17.3377C134.827 17.9798 136.544 18.6626 138.237 19.4023C138.201 21.6382 138.294 23.8743 138.513 26.0998C136.829 26.8069 135.177 27.5791 133.558 28.4C132.948 28.0667 132.337 27.7335 131.719 27.4165C131.377 25.8478 130.832 24.2953 130.442 22.7591C130.377 22.5071 130.32 22.247 130.263 21.9951L130.409 21.9301C132.036 21.2392 133.908 20.5808 135.226 19.3779C135.714 18.9227 135.145 18.1912 134.575 18.3456C132.954 18.9225 131.393 19.6547 129.913 20.532C129.547 18.9715 129.18 17.4109 128.798 15.8503L129.823 16.1917ZM127.813 15.5495C127.813 15.5495 127.813 15.5902 127.813 15.6227C128.033 17.4515 128.342 19.2641 128.692 21.0766C127.553 21.5724 126.398 22.0357 125.234 22.4747C124.25 20.849 122.687 19.4917 121.564 18.0286C121.426 17.8498 121.304 17.6628 121.174 17.484C122.186 16.9646 123.104 16.2806 123.892 15.4601C123.992 15.3498 124.053 15.2098 124.066 15.0615C124.079 14.9131 124.043 14.7646 123.964 14.6384C123.885 14.5123 123.767 14.4155 123.627 14.3628C123.488 14.3101 123.335 14.3044 123.192 14.3466C122.094 14.7296 121.069 15.2928 120.157 16.0128C119.433 14.9887 118.708 13.9565 118.001 12.9242C121.247 13.6395 124.542 14.4929 127.813 15.5089V15.5495ZM113.599 12.2983C113.648 12.2591 113.695 12.2156 113.737 12.1683C114.77 12.3471 115.804 12.5422 116.845 12.7535C117.539 14.152 118.313 15.5089 119.164 16.8175L118.635 17.1914C117.049 18.2806 115.429 19.3616 113.892 20.5158C113.816 20.5716 113.755 20.6439 113.713 20.7271L113.322 20.6296C112.207 18.7601 111.027 16.8988 109.807 15.07C111.019 14.0133 112.297 13.1111 113.599 12.2333V12.2983ZM111.784 11.835C110.781 12.4042 109.814 13.034 108.887 13.7207C108.31 12.9079 107.724 12.0382 107.13 11.2173C108.687 11.3474 110.238 11.5316 111.784 11.77V11.835ZM105.934 11.0791C105.934 11.1584 105.954 11.2365 105.991 11.3067C106.569 12.3959 107.162 13.4931 107.773 14.5579C106.254 15.765 104.921 17.1892 103.818 18.7845C103.818 18.8333 103.818 18.8739 103.769 18.9146C102.866 18.8089 101.963 18.7114 101.052 18.6382C101.052 18.6382 101.052 18.6382 101.052 18.5895C99.8857 17.2134 98.6472 15.9002 97.3415 14.6555C98.2365 13.3143 99.1641 11.9976 100.027 10.6402C101.99 10.6944 103.959 10.819 105.934 11.0141V11.0791ZM93.6149 10.6158C95.2911 10.6158 96.9754 10.5589 98.6515 10.6158C97.789 11.5749 97.0242 12.5991 96.2105 13.6394C95.2178 12.7047 94.217 11.7863 93.2325 10.8759L93.6149 10.6158ZM85.169 11.136C85.8932 11.0547 86.6173 10.9978 87.3496 10.9328C88.2204 11.3471 89.1619 11.5926 90.1242 11.6562C90.7653 11.6944 91.4079 11.6145 92.0201 11.4205C93.0616 12.5828 94.1194 13.7858 95.2015 14.9725C94.3389 16.0116 93.5939 17.1429 92.9802 18.3456C91.239 18.3456 89.5004 18.4269 87.7646 18.5895C86.6173 17.3459 85.2666 16.273 84.0136 15.1513C84.4804 13.8377 84.8663 12.4967 85.169 11.136ZM83.3789 16.6387C84.1031 17.3621 84.8354 18.0936 85.5921 18.7927C84.3797 18.9227 83.1511 19.069 81.9713 19.2559C82.5147 18.4112 82.9856 17.5221 83.3789 16.5981V16.6387ZM83.8671 11.2823C83.5254 12.2089 83.1674 13.1274 82.7768 14.0377L80.287 11.77C81.4749 11.5749 82.671 11.3961 83.8671 11.2417V11.2823ZM73.8671 13.0867C75.4538 12.7047 77.0567 12.3796 78.6596 12.087C79.8069 13.2168 80.9705 14.3303 82.134 15.4439C82.0771 15.5577 82.0282 15.6796 81.9713 15.7934C81.3203 17.0858 80.4823 18.2887 79.8883 19.6055C79.3919 19.6949 78.8875 19.7761 78.383 19.8818C77.252 20.1094 76.121 20.3695 75.0062 20.6458C74.2998 19.7348 73.4605 18.9348 72.5164 18.2724C73.119 16.5732 73.571 14.8244 73.8671 13.0461V13.0867ZM71.9143 19.9793C72.3293 20.3776 72.728 20.7921 73.1755 21.1498C72.5083 21.3286 71.8411 21.4993 71.1901 21.7025C71.4699 21.131 71.7118 20.5418 71.9143 19.9387V19.9793ZM72.549 13.4119C72.1665 14.7449 71.7353 16.0698 71.2878 17.3702L71.1332 17.2564C69.9839 16.3496 68.7651 15.5343 67.488 14.818C69.1641 14.287 70.8511 13.8047 72.549 13.3712V13.4119ZM62.7849 16.4843C63.802 16.0941 64.8354 15.7284 65.8687 15.3789C67.2927 16.5168 68.92 17.4271 70.3439 18.5732C70.4497 18.6545 70.5473 18.7439 70.645 18.8333C70.0225 19.9444 69.5206 21.1188 69.1478 22.3365C67.9436 22.7347 66.7068 23.1493 65.5677 23.6207C65.5146 23.4972 65.4195 23.3964 65.2992 23.3362C63.569 22.43 61.7804 21.6399 59.9452 20.971C60.0917 19.7843 60.1731 18.6057 60.23 17.5084C61.0844 17.1426 61.9469 16.7769 62.8256 16.4436L62.7849 16.4843ZM58.9688 18.1099C58.8549 18.9389 58.7166 19.7517 58.5538 20.5483L55.8769 19.5323C56.8858 19.0121 57.9436 18.5 59.0095 18.0286L58.9688 18.1099ZM54.3472 20.3451C55.6246 20.9141 56.9102 21.5155 58.204 22.0926C58.147 22.3284 58.1063 22.5559 58.0494 22.7835C57.5774 24.5392 56.7719 26.2054 56.3651 27.9611C55.9827 28.1724 55.5514 28.3675 55.2097 28.5869C53.2243 27.8798 51.2064 27.2377 49.1804 26.6281C49.335 25.5308 49.4896 24.4335 49.6035 23.3769C49.6171 23.274 49.6001 23.1694 49.5547 23.0761C51.1576 22.0032 52.7605 21.1091 54.3879 20.2638L54.3472 20.3451ZM48.5538 23.5882C48.3504 24.4498 48.1714 25.3113 47.9924 26.1729L45.6735 25.4902C46.601 24.8399 47.5612 24.1978 48.5538 23.5882ZM44.4855 26.3355L47.7402 27.5384C47.3578 29.481 46.9997 31.4318 46.6254 33.3662C46.5956 33.4923 46.5995 33.6239 46.6366 33.748C46.6738 33.8721 46.7428 33.9843 46.837 34.0734L46.5604 34.2684C46.4791 34.1815 46.3746 34.1194 46.2593 34.0896C44.402 33.6672 42.5136 33.3953 40.6124 33.2768C40.7426 32.5778 40.8972 31.8788 41.0844 31.1879C41.2715 30.497 40.1405 30.1963 39.9289 30.9197C39.7174 31.6431 39.514 32.3909 39.3268 33.1956C38.2284 33.1549 37.1299 33.1386 36.0722 33.1468C38.7291 30.7003 41.5392 28.4253 44.4855 26.3355ZM34.5099 34.5692C35.9908 34.6586 37.4798 34.7642 38.9525 34.9024C38.5536 36.8875 38.5536 38.9321 38.9525 40.9172C38.4969 41.3724 38.0494 41.8194 37.61 42.2827C35.5471 42.0604 33.4647 42.0931 31.4098 42.3802C31.2064 41.0066 31.0437 39.633 30.9298 38.2431C32.0797 36.9697 33.2731 35.745 34.5099 34.5692ZM28.8142 41.2342C29.2041 40.7424 29.5169 40.1943 29.7418 39.6086C29.8167 39.5283 29.8873 39.4442 29.9534 39.3566C30.0347 40.4295 30.1405 41.4943 30.2625 42.5591C29.0746 42.7379 27.9029 42.9573 26.7719 43.1849L27.3577 42.4696C27.9074 42.1427 28.3904 41.7153 28.7817 41.2098L28.8142 41.2342ZM22.8337 48.6713C22.9802 49.5573 23.1673 50.4758 23.3952 51.3942C22.5001 51.5974 21.6295 51.8169 20.7752 52.0364C21.3935 50.9093 22.0689 49.7876 22.8012 48.6713H22.8337ZM19.9533 53.4019C21.2064 53.1472 22.4676 52.9277 23.7369 52.7435C24.2019 54.427 24.9414 56.0225 25.9257 57.4659C26.0077 57.5703 26.1178 57.6493 26.243 57.6935L25.8362 58.4331C23.7426 58.7163 21.684 59.2147 19.693 59.9206C19.1885 58.9371 18.6352 57.9698 18.0656 57.0595C18.6433 55.8403 19.2617 54.6292 19.9533 53.4019ZM17.4228 58.3925C17.7239 59.0671 18.0005 59.7418 18.2853 60.4245C17.5856 60.6765 16.8858 60.9447 16.2105 61.2373C16.5929 60.2863 16.9916 59.3435 17.4228 58.4088V58.3925ZM15.649 62.6109L18.8305 61.7006C19.3594 62.9767 19.8883 64.2609 20.4578 65.5452C20.5218 65.6979 20.6403 65.8213 20.7903 65.8915C20.9404 65.9617 21.1112 65.9737 21.2696 65.925C21.4279 65.8763 21.5625 65.7705 21.6471 65.6282C21.7316 65.4859 21.7602 65.3172 21.7271 65.155C21.3933 63.8204 20.9356 62.5197 20.3602 61.2698C21.8817 60.8472 23.4765 60.5464 24.9981 60.075C23.4749 63.089 22.1539 66.2008 21.0437 69.3898C20.9945 69.2231 20.8815 69.0825 20.729 68.9988C20.5766 68.915 20.3972 68.8949 20.23 68.9427C18.7574 69.4896 17.3428 70.1811 16.007 71.0072C15.7385 70.6577 15.4782 70.3082 15.2422 69.9587C14.7703 69.2353 14.3146 68.5038 13.859 67.7641C14.4285 66.0329 14.9981 64.3178 15.649 62.6272V62.6109ZM13.4684 69.1134C13.7776 69.658 14.0949 70.2025 14.4285 70.739L14.8598 71.4705C14.1275 71.774 13.387 72.0449 12.6385 72.2833C12.8907 71.2836 13.1673 70.2188 13.4684 69.1703V69.1134ZM11.2145 79.5904C11.7907 80.155 12.334 80.752 12.8419 81.3786C12.2005 81.6846 11.5432 81.9559 10.8728 82.1914C10.9704 81.3949 11.125 80.517 11.2145 79.6473V79.5904ZM10.5066 89.4254C10.5934 88.7449 10.5603 88.0544 10.409 87.3852C10.4904 86.0929 10.588 84.8005 10.7182 83.5163C11.6222 83.2623 12.5061 82.9417 13.3626 82.5572L13.623 82.4434C14.2246 83.4839 14.8989 84.4807 15.6409 85.4264C16.0559 85.8897 16.7556 85.3532 16.6092 84.8249C16.2335 83.7325 15.6382 82.7285 14.8598 81.8744C15.8405 81.4512 16.7239 80.8316 17.4554 80.0537C17.8134 79.6311 17.4554 78.8102 16.8289 79.054C15.8134 79.5528 14.8393 80.1318 13.9159 80.7853C13.1463 79.9076 12.3083 79.0922 11.4098 78.3468C11.6702 76.7538 11.9767 75.1715 12.3293 73.6001C13.431 73.3469 14.5176 73.0321 15.5839 72.6572C16.0292 73.4166 16.5767 74.1113 17.2113 74.7217C17.3173 74.811 17.4513 74.8604 17.59 74.8613C17.7287 74.8622 17.8633 74.8146 17.9705 74.7268C18.0778 74.639 18.1509 74.5164 18.1772 74.3804C18.2034 74.2444 18.1813 74.1035 18.1145 73.9821C17.7901 73.3337 17.4031 72.7184 16.959 72.1451C18.3663 71.7107 19.6703 70.9944 20.7914 70.04C19.9778 72.4215 19.2943 74.8518 18.7247 77.3552C17.4266 82.9844 16.7877 88.7452 16.8207 94.5217C16.0774 93.6262 15.2055 92.8455 14.2332 92.2052C15.0464 91.4963 15.7853 90.7065 16.4383 89.848C16.8207 89.3197 16.0477 88.7101 15.5514 89.0352C14.5821 89.6636 13.6963 90.4119 12.9151 91.2623C12.1014 90.6771 11.2878 90.1081 10.4741 89.5717C10.4909 89.5444 10.502 89.514 10.5066 89.4823V89.4254ZM10.2219 92.0426C10.2219 91.6118 10.2219 91.1892 10.2219 90.7584C10.8402 91.2054 11.4505 91.6606 12.0526 92.132C11.4017 92.8961 10.7833 93.6845 10.1974 94.4648C10.2219 93.717 10.2137 92.9123 10.2219 92.0995V92.0426ZM10.3114 96.4805C11.2796 95.3832 12.2642 94.2859 13.2813 93.2293C14.1955 94.1965 15.2133 95.0605 16.3162 95.8059C16.4011 95.8522 16.4962 95.8764 16.5929 95.8764C16.6896 95.8764 16.7847 95.8522 16.8695 95.8059C16.8695 96.6919 16.9509 97.5778 16.9997 98.4638C16.8806 98.3897 16.7409 98.3555 16.601 98.3662C15.1852 98.5694 14.3553 100.179 13.5742 101.3C12.5327 100.813 11.4749 100.366 10.4497 99.9593C10.3683 98.7483 10.3114 97.5941 10.3114 96.4805ZM10.5717 101.13C11.3366 101.536 12.0933 101.943 12.8419 102.381C12.1909 103.308 11.5725 104.259 10.9786 105.226C10.7751 103.796 10.6287 102.463 10.531 101.089L10.5717 101.13ZM11.6214 108.965C11.6214 108.965 11.5807 108.965 11.5644 108.965L11.4993 108.9C11.4098 108.356 11.3203 107.811 11.2389 107.275C11.3006 107.228 11.3554 107.174 11.4017 107.112C12.2642 105.787 13.1511 104.462 14.0949 103.186C15.0768 103.879 16.1105 104.496 17.1869 105.031C17.2675 105.067 17.3548 105.086 17.4432 105.086C17.5315 105.086 17.6189 105.067 17.6995 105.031C17.8948 106.364 18.1389 107.689 18.4155 108.998L18.2935 109.047C17.3425 109.764 16.501 110.615 15.7955 111.574C14.4367 110.62 13.0299 109.736 11.5807 108.925L11.6214 108.965ZM13.0127 111.192C13.6718 111.623 14.3309 112.062 14.9818 112.509L13.1511 114.557C13.1511 114.46 13.2162 114.362 13.2406 114.257C13.4511 113.217 13.3579 112.139 12.9721 111.152L13.0127 111.192ZM16.4302 126.075C15.706 124.36 15.0469 122.628 14.4692 120.865C15.5758 121.564 16.6824 122.279 17.789 122.986C17.2528 123.969 16.7852 124.987 16.3895 126.034L16.4302 126.075ZM14.0786 119.702C13.7369 118.597 13.4114 117.483 13.1104 116.362C14.1031 115.386 15.0957 114.403 16.0559 113.395L16.1291 113.322H16.1861C17.4879 114.305 18.6271 115.606 20.1161 116.329C20.1856 116.358 20.2605 116.372 20.3358 116.37C20.5961 117.183 20.8809 117.995 21.1494 118.808C20.0524 119.642 19.1268 120.68 18.4236 121.864C16.959 121.068 15.4863 120.353 14.038 119.662L14.0786 119.702ZM21.9387 132.902C21.7244 131.675 21.0601 130.571 20.0754 129.806L22.1503 130.708L22.5164 130.878C22.5164 131.025 22.4513 131.163 22.4188 131.285C22.2316 132 22.0852 132.723 21.9468 133.447C21.9442 133.251 21.9279 133.055 21.898 132.862L21.9387 132.902ZM24.2251 126.936C23.4925 127.648 23.0101 128.578 22.85 129.586C20.946 128.887 18.9525 128.342 17.1543 127.83C17.1543 127.765 17.0974 127.708 17.073 127.652C17.6153 126.313 18.2516 125.015 18.9769 123.766C20.2381 124.579 21.5075 125.311 22.8093 125.977C23.3382 126.254 23.9485 125.498 23.444 125.099C22.2705 124.194 21.0302 123.379 19.7337 122.661C20.352 121.848 21.0193 121.035 21.6051 120.223C22.4603 122.493 23.4326 124.718 24.518 126.888C24.4086 126.856 24.2921 126.859 24.1844 126.896L24.2251 126.936ZM22.728 137.088C22.9451 135.184 23.2793 133.295 23.7288 131.431C24.7292 131.97 25.778 132.413 26.8614 132.756C26.9358 132.782 27.0152 132.79 27.0932 132.779C27.1712 132.768 27.2454 132.738 27.3098 132.693C27.3742 132.648 27.4269 132.588 27.4635 132.518C27.5001 132.449 27.5197 132.371 27.5205 132.293C27.6832 132.561 27.8622 132.829 28.0331 133.106V133.154C27.583 134.46 27.2534 135.804 27.0485 137.17C25.6165 137.105 24.1844 137.039 22.7524 137.039L22.728 137.088ZM23.5905 138.909C23.4114 138.665 23.2487 138.421 23.086 138.169C24.3309 138.299 25.5758 138.389 26.8289 138.47C26.8289 138.673 26.7556 138.868 26.7231 139.063C26.5115 140.104 26.2837 141.152 26.1128 142.201C25.2015 141.087 24.3553 139.99 23.5498 138.868L23.5905 138.909ZM27.1055 143.412C27.5774 141.965 27.8541 140.445 28.1877 138.958C28.1877 138.836 28.2446 138.714 28.2772 138.592C29.4769 138.784 30.6953 138.83 31.9062 138.73L32.134 139.023C32.134 140.738 32.0201 142.599 32.0526 144.452C30.7833 144.525 29.5221 144.623 28.2609 144.696C27.8378 144.225 27.4391 143.81 27.0648 143.371L27.1055 143.412ZM29.1071 134.788C29.6496 135.639 30.2354 136.484 30.8647 137.324C30.1161 137.251 29.3431 137.267 28.5864 137.267C28.7491 136.405 28.9363 135.576 29.0665 134.747L29.1071 134.788ZM31.7353 146.517C31.4461 146.17 31.0738 145.901 30.6531 145.736H32.0933C32.0933 146.037 32.1421 146.322 32.1747 146.614C32.0174 146.559 31.8571 146.513 31.6946 146.476L31.7353 146.517ZM33.4196 144.078C33.3057 142.851 33.2324 141.64 33.1673 140.388C34.2658 141.746 35.4212 143.062 36.6173 144.338C35.5677 144.338 34.5099 144.338 33.4521 144.412C33.4033 144.217 33.387 144.103 33.3789 143.997L33.4196 144.078ZM34.8842 151.329C34.9765 150.132 34.6133 148.945 33.8671 148.004C33.8183 147.297 33.7288 146.582 33.6311 145.875C35.0795 145.875 36.5115 145.875 37.9273 145.704C38.326 146.102 38.741 146.517 39.1478 146.883C39.3024 148.151 39.4814 149.427 39.6523 150.695C38.1063 150.947 36.5685 151.264 35.0795 151.507L34.8842 151.329ZM36.3488 152.572C37.5042 152.483 38.6759 152.41 39.8476 152.304C39.8999 153.53 40.1756 154.737 40.6612 155.864C39.1532 154.748 37.7158 153.623 36.3488 152.491V152.572ZM40.5799 148.232C41.3529 148.939 42.1503 149.63 42.9639 150.304C42.313 150.304 41.6539 150.41 41.003 150.5C40.8158 149.662 40.6775 148.906 40.5392 148.151L40.5799 148.232ZM41.0599 156.173C41.1986 156.195 41.3404 156.164 41.4567 156.085C41.5731 156.007 41.6552 155.887 41.6865 155.75C41.7967 154.536 41.678 153.312 41.3366 152.141C42.2459 152.025 43.1479 151.857 44.038 151.637C44.7459 153.19 45.4131 154.751 45.9989 156.344C44.8435 156.652 43.68 156.913 42.5164 157.156C41.9875 156.742 41.4993 156.425 41.0193 156.092L41.0599 156.173ZM45.5595 152.369C46.8777 153.369 48.2528 154.312 49.6279 155.222C48.8142 155.425 48.0575 155.71 47.2927 155.962C46.7556 154.683 46.1644 153.458 45.5189 152.288L45.5595 152.369ZM46.5522 158.977L46.2023 159.148L45.763 159.197C45.1364 158.823 44.5099 158.457 43.8915 158.067C44.7052 157.92 45.5758 157.75 46.4139 157.555C46.5441 157.994 46.658 158.449 46.78 158.904L46.5522 158.977ZM49.1641 159.709C49.0164 159.632 48.8642 159.564 48.7084 159.505C48.4809 158.732 48.2092 157.972 47.8948 157.23C49.0069 157.022 50.0801 156.644 51.0762 156.108L52.0852 156.717C51.9937 156.705 51.9005 156.715 51.8139 156.748C51.7273 156.78 51.6501 156.833 51.5889 156.902C51.5277 156.971 51.4846 157.054 51.4633 157.144C51.442 157.234 51.4432 157.327 51.4668 157.416C51.6702 158.229 51.8818 159.042 52.0933 159.855C51.3854 159.993 50.6775 160.107 49.9615 160.213C49.701 159.992 49.4204 159.796 49.1234 159.627L49.1641 159.709ZM51.4586 162.285C51.3389 162.002 51.1946 161.73 51.0274 161.472C51.4912 161.416 51.955 161.367 52.4106 161.285L52.5083 161.692C52.6141 162.098 52.7117 162.505 52.8093 162.952C52.313 162.651 51.8655 162.423 51.418 162.204L51.4586 162.285ZM53.265 159.603L52.492 157.083C52.467 157.029 52.4371 156.977 52.4025 156.929C53.5091 157.587 54.6401 158.205 55.7874 158.806C55.1283 159.042 54.4692 159.302 53.8102 159.481C53.5905 159.449 53.4359 159.481 53.2243 159.522L53.265 159.603ZM57.252 164.813C56.3488 164.464 55.4538 164.098 54.5587 163.716C54.339 162.903 54.038 162.09 53.7451 161.277L53.6718 161.033C55.0642 160.835 56.4125 160.4 57.6588 159.749C58.0331 159.928 58.3993 160.123 58.7817 160.294C58.2447 161.724 57.7239 163.228 57.2113 164.756L57.252 164.813ZM70.0591 131.301C66.4627 140.429 62.7361 149.605 59.335 158.888C46.275 152.266 35.4332 141.98 28.1389 129.293C47.5322 118.525 66.158 106.431 83.8834 93.0993C70.287 111.103 56.7312 129.188 43.7451 147.638C43.4196 148.102 44.2007 148.671 44.5587 148.224C58.741 130.041 72.3781 111.404 85.9501 92.7579C80.428 105.476 75.1175 118.296 70.0185 131.22L70.0591 131.301ZM64.2658 171.007C64.4367 170.592 64.5913 170.194 64.754 169.747C65.1446 169.527 65.5677 169.292 65.9176 169.056C66.1018 170.065 66.4249 171.045 66.8777 171.966C65.9664 171.584 65.0958 171.259 64.2251 170.925L64.2658 171.007ZM68.0901 171.706C67.9035 170.539 67.55 169.406 67.0404 168.341C68.3655 167.486 69.6174 166.524 70.7833 165.463C70.857 165.396 70.9093 165.308 70.9339 165.212C70.9585 165.115 70.9542 165.013 70.9216 164.919C73.7875 165.791 76.7029 166.491 79.6523 167.016C78.2691 167.682 76.9509 168.536 75.584 169.251L74.933 169.584C74.2157 168.262 73.3796 167.008 72.4351 165.837C72.2642 165.642 71.9469 165.837 72.0201 166.097C72.5429 167.484 73.1911 168.819 73.9566 170.088C73.143 170.478 72.4106 170.901 71.6458 171.267C70.4533 170.956 69.1888 171.083 68.0819 171.624L68.0901 171.706ZM74.7133 174.209C74.4605 173.445 74.0182 172.757 73.4277 172.21C73.3708 172.153 73.3057 172.12 73.2487 172.071C73.7288 171.836 74.2089 171.608 74.6889 171.364C75.2178 172.396 75.7141 173.551 76.3163 174.615C75.7467 174.388 75.2097 174.258 74.6727 174.128L74.7133 174.209ZM84.9005 175.916C82.6548 175.688 80.4009 175.371 78.1633 174.949C77.4888 173.503 76.671 172.127 75.7223 170.844L76.0803 170.665C78.0581 169.796 79.9306 168.705 81.6621 167.414V167.365C82.0038 167.414 82.3374 167.471 82.6792 167.512C83.1858 168.977 83.8004 170.404 84.5181 171.779L84.8272 172.396C84.1519 173.079 83.4766 173.762 82.8175 174.453C82.37 174.924 83.0697 175.55 83.5417 175.136L85.3724 173.453C85.6468 173.978 85.9567 174.483 86.3 174.965C85.7837 175.19 85.2995 175.483 84.8598 175.835L84.9005 175.916ZM90.0266 174.396C89.374 174.266 88.702 174.266 88.0494 174.396C87.9276 174.384 87.805 174.384 87.6832 174.396C87.2845 173.762 86.8126 173.161 86.357 172.551C87.9192 171.096 89.4652 169.625 90.9786 168.137C93.3762 168.192 95.7738 168.135 98.1714 167.967C97.1788 169.007 96.2512 170.104 95.3561 171.218C94.4123 170.186 93.3545 168.95 92.2479 168.454C91.1413 167.959 89.9941 168.901 90.8891 169.836C91.0925 170.056 91.4668 169.755 91.2878 169.511C91.5652 169.508 91.8378 169.583 92.075 169.726C92.3122 169.87 92.5046 170.077 92.6303 170.324C92.964 170.698 93.3057 171.055 93.6556 171.413L94.5099 172.315C93.7234 173.345 92.9585 174.399 92.2154 175.477C91.5866 174.902 90.8179 174.501 89.9859 174.315L90.0266 174.396ZM93.1267 176.298C93.8915 175.29 94.6808 174.323 95.4863 173.356C96.3407 174.274 97.1788 175.233 98.0982 176.087C96.4058 176.135 94.754 176.209 93.086 176.217L93.1267 176.298ZM99.9615 175.94C98.8535 174.653 97.6572 173.445 96.3814 172.323C97.5205 170.99 98.6841 169.682 99.8639 168.365L100.897 175.892C100.531 175.818 100.222 175.827 99.9208 175.859L99.9615 175.94ZM107.952 164.106C106.569 154.081 105.191 144.057 103.818 134.032C102.668 125.714 101.524 117.397 100.385 109.079C99.5059 102.682 98.8712 96.3424 96.3163 90.4414C110.962 109.412 125.608 128.432 139.791 147.752C139.837 147.809 139.892 147.859 139.953 147.899C130.823 155.908 119.815 161.483 107.952 164.106ZM136.43 153.865C135.983 155.441 135.486 157.002 134.884 158.538C134.844 158.636 134.795 158.766 134.746 158.912C133.33 158.522 131.906 158.156 130.482 157.79C132.541 156.579 134.526 155.279 136.43 153.865ZM126.829 162.618C125.673 162.228 124.502 161.863 123.346 161.505C124.751 160.871 126.137 160.188 127.504 159.457C127.342 160.522 127.122 161.577 126.845 162.618H126.829ZM108.285 166.496C109.986 166.138 111.67 165.683 113.338 165.203L113.59 165.366C113.276 166.602 112.797 167.792 112.167 168.901C110.857 168.089 109.563 167.341 108.285 166.52V166.496ZM109.099 172.429C108.896 170.925 108.684 169.422 108.481 167.918C109.441 168.617 110.425 169.324 111.418 170.015C110.726 170.901 109.88 171.608 109.115 172.429H109.099ZM109.368 174.38C109.368 174.274 109.368 174.16 109.368 174.055C110.856 173.461 112.085 172.357 112.834 170.942C113.794 171.559 114.762 172.153 115.747 172.681C113.647 173.331 111.524 173.908 109.384 174.38H109.368ZM115.926 171.21C115.112 170.681 114.298 170.169 113.485 169.674C113.985 168.472 114.322 167.209 114.486 165.918L117.602 167.934L117.895 168.121C117.252 169.17 116.536 170.153 115.942 171.21H115.926ZM118.123 166.902L114.551 164.87C116.308 164.317 118.058 163.708 119.774 163.025C119.465 164.422 119.012 165.784 118.424 167.089L118.123 166.902ZM117.309 172.145L117.097 171.998C117.911 171.091 118.573 170.059 119.058 168.942C119.901 169.531 120.788 170.056 121.711 170.511C120.295 171.096 118.831 171.649 117.35 172.145H117.309ZM123.005 169.966C121.943 169.072 120.776 168.311 119.53 167.698C120.111 166.06 120.489 164.357 120.653 162.627C121.076 162.456 121.507 162.293 121.931 162.115C123.371 162.765 124.844 163.431 126.333 164.049C125.754 165.337 125.296 166.676 124.966 168.048C124.884 168.56 125.56 169.04 125.942 168.568C126.829 167.402 127.459 166.061 127.789 164.634C128.974 165.096 130.186 165.487 131.418 165.805C128.723 167.361 125.935 168.751 123.07 169.966H123.005ZM133.33 164.634L132.931 164.797C132.709 164.9 132.499 165.028 132.305 165.179C132.296 165.094 132.266 165.012 132.218 164.941C132.169 164.87 132.104 164.812 132.028 164.772C130.768 164.133 129.469 163.574 128.139 163.098C128.376 161.695 128.517 160.277 128.562 158.855L129.237 158.489C130.865 159.05 132.59 159.595 134.274 160.115C133.954 161.165 133.465 162.156 132.826 163.049C132.735 163.04 132.644 163.052 132.559 163.084C132.474 163.117 132.398 163.169 132.337 163.236L132.232 163.366C132.145 163.456 132.085 163.568 132.056 163.69C132.027 163.811 132.032 163.938 132.069 164.057L132.134 164.203C132.197 164.386 132.327 164.537 132.498 164.628C132.668 164.718 132.867 164.741 133.053 164.691C134.42 164.39 134.738 162.098 135.153 160.968C135.218 160.798 135.275 160.619 135.332 160.448L138.277 161.35C136.739 162.529 135.08 163.602 133.395 164.634H133.33ZM139.693 160.31L135.763 159.213C136.404 157.247 136.912 155.24 137.285 153.206C137.464 153.068 137.643 152.954 137.822 152.816C138.513 153.011 139.254 153.109 139.758 153.255L141.337 153.743C140.926 155.037 140.6 156.356 140.36 157.693C140.338 157.826 140.363 157.963 140.431 158.08C140.498 158.197 140.604 158.287 140.731 158.335C140.857 158.383 140.996 158.386 141.125 158.343C141.253 158.3 141.362 158.214 141.434 158.099C142.067 156.869 142.503 155.547 142.728 154.182C143.792 154.53 144.88 154.802 145.983 154.994C144.005 156.876 141.927 158.651 139.758 160.31H139.693ZM147.106 153.905C145.758 153.375 144.363 152.972 142.94 152.702C143.099 151.237 143.159 149.762 143.119 148.289C143.485 147.939 143.859 147.598 144.217 147.248C145.389 147.508 146.658 147.736 147.887 147.89C147.894 149.079 148.003 150.264 148.212 151.434C148.242 151.528 148.293 151.614 148.361 151.686C148.429 151.757 148.513 151.812 148.605 151.847C148.698 151.881 148.797 151.894 148.895 151.884C148.993 151.875 149.088 151.843 149.172 151.792C148.562 152.515 147.87 153.214 147.171 153.905H147.106ZM149.425 151.524C149.45 151.482 149.467 151.434 149.473 151.385C149.619 150.284 149.673 149.172 149.636 148.061C150.573 148.134 151.514 148.134 152.451 148.061C151.532 149.24 150.531 150.402 149.49 151.524H149.425ZM153.639 146.574C152.286 146.466 150.928 146.431 149.571 146.468C149.457 144.956 149.27 143.444 149.091 142.014L149.205 141.884C150.764 142.233 152.358 142.405 153.957 142.396C154.022 143.583 154.071 144.777 154.128 145.997C154.022 146.192 153.859 146.379 153.704 146.574H153.639ZM155.6 143.965C155.6 143.444 155.511 142.924 155.446 142.396C155.828 142.396 156.259 142.396 156.691 142.396C156.398 142.932 156.04 143.452 155.665 143.965H155.6ZM160.678 135.893C159.774 137.519 158.814 139.145 157.805 140.713C157.656 140.644 157.494 140.608 157.329 140.608C157.165 140.608 157.002 140.644 156.853 140.713C156.357 140.77 155.853 140.819 155.348 140.86H155.226C154.898 139.028 154.449 137.219 153.883 135.446C154.844 133.951 155.763 132.439 156.601 130.895L159.742 130.358C159.747 131.468 159.826 132.576 159.978 133.674C160.092 134.284 161.084 134.211 161.182 133.626C161.361 132.454 161.361 131.262 161.182 130.09C162.085 129.911 162.98 129.708 163.859 129.464C162.915 131.667 161.866 133.813 160.743 135.893H160.678ZM164.665 127.765C163.391 127.959 162.13 128.23 160.889 128.578C160.587 127.241 160.184 125.929 159.685 124.652C160.189 123.466 160.686 122.279 161.133 121.068C162.067 120.95 162.992 120.765 163.9 120.515C164.128 121.816 164.355 123.116 164.608 124.408C164.795 125.376 166.235 124.904 166.072 123.953C165.844 122.653 165.584 121.352 165.324 120.06H165.372C166.364 119.709 167.325 119.277 168.245 118.768C167.228 121.775 166.032 124.799 164.73 127.749L164.665 127.765ZM168.977 116.597C167.626 117.166 166.438 118.117 165.071 118.719C164.665 116.752 164.236 114.788 163.786 112.826C163.981 112.094 164.168 111.355 164.355 110.615H164.42C165.478 110.014 166.512 109.372 167.537 108.713C167.933 110.031 168.416 111.321 168.985 112.574C169.335 113.314 170.32 112.696 170.189 112.021C169.913 110.575 169.538 109.128 169.123 107.681L169.189 107.632C170.141 106.998 171.174 106.356 172.11 105.641C171.296 109.307 170.238 112.972 169.042 116.581L168.977 116.597Z" fill="#CE364C" fill-opacity="0.54"/>
</svg>
