<svg width="64" height="108" viewBox="0 0 64 108" fill="none" xmlns="http://www.w3.org/2000/svg">
<path d="M103.803 68.4183C103.82 68.0131 103.753 67.6087 103.604 67.2312C103.456 66.8536 103.23 66.5113 102.941 66.2263C102.652 65.9413 102.307 65.7198 101.927 65.5761C101.548 65.4325 101.142 65.3699 100.737 65.3923C100.098 65.4457 99.4897 65.6881 98.9896 66.0884C98.8866 66.1262 98.7871 66.1728 98.6922 66.2277C98.5704 66.2973 98.4553 66.3782 98.3484 66.469C99.3533 63.2476 100.168 59.9699 100.788 56.653C101.796 58.3098 104.365 58.7693 105.782 57.3306C107.199 55.8918 106.911 53.2835 105.053 52.3599C104.575 52.1338 104.044 52.042 103.518 52.0943C102.991 52.1467 102.489 52.3411 102.065 52.6569C101.906 52.7811 101.758 52.9194 101.624 53.07C101.535 53.1086 101.448 53.152 101.364 53.1999C101.734 50.7401 101.956 48.2604 102.028 45.7741C102.093 45.723 102.168 45.672 102.233 45.6163C102.497 45.3935 102.312 45.0593 102.042 44.9711V44.7762C102.289 45.0997 102.591 45.3776 102.934 45.5977C103.27 45.7996 103.644 45.93 104.033 45.9805C104.422 46.031 104.817 46.0005 105.194 45.8911C105.571 45.7817 105.92 45.5957 106.221 45.3447C106.523 45.0937 106.768 44.7832 106.944 44.4328C107.603 43.0404 107.209 41.1236 105.722 40.4182C105.288 40.2154 104.81 40.1233 104.332 40.1501C103.854 40.1768 103.389 40.3215 102.981 40.5713C102.723 40.731 102.497 40.9353 102.312 41.1747C102.266 41.2097 102.225 41.2485 102.186 41.2907C102.109 41.3687 102.037 41.4525 101.972 41.5413C101.814 38.2771 101.284 35.0415 100.393 31.897C100.643 32.0933 100.922 32.2498 101.22 32.3611C101.836 32.6138 102.522 32.6415 103.156 32.4395C103.791 32.2375 104.334 31.8187 104.69 31.2565C104.977 30.7831 105.126 30.2394 105.121 29.6862C105.116 29.133 104.957 28.592 104.662 28.1237C104.438 27.773 104.133 27.4812 103.772 27.2728C103.412 27.0644 103.006 26.9456 102.59 26.9263C102.219 26.8147 101.823 26.8147 101.452 26.9263C100.966 27.0646 100.524 27.3283 100.172 27.6907C99.8196 28.0532 99.5689 28.5018 99.4449 28.9916C98.8098 27.316 98.044 25.6928 97.1544 24.137C96.7687 23.4686 96.3506 22.8281 95.9185 22.2016C96.5099 22.3311 97.1277 22.2611 97.675 22.0024C98.2223 21.7438 98.6683 21.3111 98.9431 20.7721C99.1189 20.4127 99.2188 20.0209 99.2365 19.6212C99.2542 19.2215 99.1893 18.8225 99.0459 18.4489C98.9025 18.0754 98.6837 17.7353 98.403 17.4499C98.1224 17.1645 97.7859 16.9399 97.4145 16.79C97.0403 16.6636 96.6433 16.6192 96.2503 16.6596C95.8573 16.7 95.4777 16.8243 95.1371 17.0241C94.7964 17.224 94.5028 17.4947 94.2761 17.8178C94.0494 18.141 93.8949 18.509 93.8231 18.8971C93.7648 19.0469 93.7227 19.2024 93.6977 19.3612C92.0126 17.4848 90.1205 15.8048 88.0573 14.3534C88.5223 14.1596 88.9276 13.8462 89.232 13.4451C89.5364 13.044 89.729 12.5695 89.7903 12.0699C89.8406 11.5707 89.7433 11.0676 89.5105 10.623C89.2776 10.1784 88.9194 9.81172 88.4801 9.56834C88.0074 9.30585 87.4621 9.20417 86.9265 9.27869C86.3909 9.35322 85.8941 9.59989 85.5112 9.98141C85.4694 10.0232 85.4322 10.0789 85.3904 10.1299C85.1069 10.2707 84.8585 10.473 84.6632 10.7219C84.4679 10.9708 84.3306 11.2601 84.2614 11.5687C84.2401 11.6945 84.2276 11.8217 84.2242 11.9493C82.2993 10.883 80.3083 9.94051 78.2633 9.12744C78.8435 8.73932 79.2655 8.15648 79.4527 7.48446C79.5726 7.07124 79.595 6.63589 79.5182 6.21256C79.4413 5.78924 79.2674 5.38944 79.0099 5.04455C78.7524 4.69967 78.4184 4.41907 78.0342 4.22477C77.6499 4.03047 77.2258 3.92776 76.7951 3.92469C76.402 3.94171 76.0164 4.0376 75.6612 4.20664C75.306 4.37568 74.9885 4.61441 74.7276 4.90861C74.575 5.08318 74.4454 5.27661 74.342 5.48412L74.0772 5.73938C73.8499 5.96172 73.6868 6.24113 73.6051 6.54821C73.5233 6.8553 73.5259 7.17872 73.6126 7.48446C73.3942 7.41485 73.1712 7.33595 72.9482 7.27097C70.3968 6.49378 67.7971 5.88447 65.1659 5.44699C65.2954 5.36227 65.4182 5.26762 65.533 5.16388C65.8444 4.87629 66.0828 4.51877 66.2284 4.1209C66.3741 3.72302 66.4228 3.29622 66.3706 2.87579C66.3184 2.45537 66.1667 2.0534 65.9282 1.70314C65.6896 1.35287 65.371 1.06439 64.9987 0.861529C64.4241 0.574877 63.772 0.48205 63.1402 0.596979C62.9453 0.522785 62.7357 0.495467 62.5282 0.517237C62.3208 0.539007 62.1214 0.609248 61.9462 0.722285C61.3139 1.14968 60.8718 1.80492 60.7125 2.55071C60.5531 3.29649 60.6889 4.07495 61.0913 4.72297C61.1331 4.79258 61.1842 4.85292 61.2307 4.9179C59.1343 4.70617 57.0283 4.60547 54.9213 4.61623C55.1949 3.98715 55.2231 3.27859 55.0003 2.62981C54.3963 0.842963 52.7608 0.216395 51.0789 0.341707C49.6201 -0.0620747 48.1844 1.50201 48.2541 3.04751C48.2923 3.75601 48.5709 4.4304 49.0439 4.95967C47.1706 5.1717 45.3096 5.48153 43.4686 5.8879C42.7299 6.0457 41.9958 6.23136 41.2664 6.43093C42.2513 5.07571 42.0841 2.99182 40.4951 2.09143C40.139 1.89281 39.7467 1.76746 39.3413 1.72282C38.936 1.67818 38.5257 1.71515 38.1349 1.83153H38.0513C35.9605 1.87794 34.957 4.35632 35.9559 6.03642C36.3776 6.73452 37.0376 7.25697 37.8143 7.50766C35.4876 8.31517 33.2235 9.29246 31.0403 10.4316L30.9752 10.4084C30.7941 10.3388 30.65 10.4873 30.6129 10.6544C30.204 10.8725 29.8044 11.1185 29.4002 11.332C29.6034 10.5795 29.5644 9.78227 29.2887 9.05318C29.1866 8.74921 29.0239 8.46903 28.8105 8.22952C28.5971 7.99001 28.3373 7.79612 28.0469 7.65953C27.7565 7.52294 27.4415 7.44648 27.1207 7.43474C26.7999 7.42299 26.4801 7.47622 26.1805 7.59122C25.5521 7.48322 24.9056 7.57359 24.331 7.84976C23.7564 8.12593 23.2823 8.57416 22.9747 9.13207C22.6998 9.64205 22.5617 10.2144 22.574 10.7935C22.5862 11.3726 22.7482 11.9386 23.0444 12.4366C23.2979 12.8345 23.634 13.1735 24.03 13.4305C24.4259 13.6875 24.8725 13.8566 25.3395 13.9264C23.2732 15.3838 21.3195 16.9941 19.4947 18.7439H19.0301C18.9583 18.7469 18.8894 18.7725 18.8331 18.8172C18.7769 18.8618 18.7363 18.9231 18.7171 18.9923C18.698 19.0614 18.7014 19.1349 18.7267 19.202C18.7521 19.2692 18.7981 19.3265 18.8582 19.3658C18.4772 19.7464 18.1055 20.1316 17.7385 20.5261C17.6588 19.9456 17.4299 19.3955 17.0741 18.9296C16.8381 18.5785 16.4976 18.3104 16.1008 18.163C15.704 18.0156 15.2709 17.9964 14.8626 18.1081C13.9614 18.3538 13.1643 18.8847 12.5906 19.6211C12.4403 19.7357 12.3046 19.8682 12.1864 20.0156C11.9435 20.3252 11.7721 20.6846 11.6842 21.068C11.5964 21.4514 11.5943 21.8495 11.6782 22.2338C11.762 22.6182 11.9298 22.9793 12.1694 23.2914C12.409 23.6035 12.7147 23.8589 13.0645 24.0395C13.4985 24.2549 13.974 24.3736 14.4584 24.3876C13.1259 26.1369 11.921 27.9795 10.853 29.9013C10.8109 29.923 10.7762 29.9565 10.753 29.9978C10.7299 30.039 10.7194 30.0862 10.7229 30.1333C10.5138 30.5093 10.314 30.8899 10.1189 31.2751V31.2426C10.0834 31.2006 10.0339 31.1728 9.97946 31.1645C9.92505 31.1561 9.86947 31.1677 9.82298 31.1972C9.7765 31.2266 9.74227 31.2719 9.72663 31.3246C9.71099 31.3773 9.715 31.4339 9.73791 31.4839C9.78902 31.5814 9.83083 31.6835 9.88194 31.781C9.54277 32.4678 9.22684 33.1733 8.92484 33.8695C8.75557 33.5626 8.53567 33.2864 8.27439 33.0526C7.8251 32.6405 7.25662 32.3812 6.65058 32.312C6.04454 32.2428 5.43213 32.3672 4.90132 32.6674C4.27868 33.009 3.81005 33.575 3.59111 34.25C3.36699 34.6633 3.25863 35.1294 3.27743 35.5991C3.29624 36.0687 3.44153 36.5246 3.69798 36.9187C4.07985 37.5005 4.65601 37.9281 5.3239 38.1252C5.99178 38.3224 6.70804 38.2764 7.34517 37.9955C6.98742 39.1279 6.68077 40.2789 6.41595 41.4439L6.29979 41.4763C5.97921 41.5506 6.0489 41.9405 6.29979 42.0379C6.17435 42.632 6.0582 43.2261 5.96063 43.8248V43.9269C5.92548 43.9431 5.89494 43.9678 5.87179 43.9988C5.84864 44.0298 5.83361 44.0661 5.82807 44.1044C5.82253 44.1427 5.82666 44.1817 5.84007 44.218C5.85348 44.2542 5.87576 44.2866 5.90488 44.3121C5.7562 45.2403 5.64005 46.215 5.53783 47.1757L5.30088 47.2546C5.02676 47.3428 5.08252 47.8162 5.38916 47.7744H5.47743C5.47743 47.8811 5.47743 47.9833 5.47743 48.0854C5.02048 47.7539 4.47176 47.5722 3.90705 47.5655C3.32184 47.5631 2.75069 47.7446 2.27454 48.0845C1.79839 48.4244 1.44139 48.9053 1.25412 49.4592C1.15155 49.56 1.06951 49.6798 1.01253 49.8119C0.859626 50.1248 0.786017 50.4704 0.798169 50.8184C0.810321 51.1664 0.907862 51.5061 1.08222 51.8076C1.34942 52.2737 1.73394 52.662 2.19766 52.9339C2.66137 53.2058 3.18818 53.3519 3.72585 53.3577C4.25823 53.3726 4.78276 53.227 5.23119 52.94C5.20834 55.6934 5.39784 58.4445 5.79801 61.1688C5.37816 61.0399 4.93651 60.9973 4.49973 61.0436C4.06294 61.0898 3.64006 61.224 3.2566 61.438C2.71023 61.7598 2.28503 62.2523 2.04658 62.8394C1.80812 63.4265 1.76965 64.0757 1.9371 64.6868C2.05336 65.1039 2.27961 65.4822 2.5922 65.7821C2.82694 66.3462 3.2471 66.8136 3.78341 67.1072C4.31972 67.4008 4.94017 67.5031 5.54248 67.3972C6.05057 67.3082 6.52911 67.0963 6.93631 66.78C7.55825 69.0402 8.36793 71.2447 9.35693 73.3704L9.17109 73.4215C8.16288 73.57 7.43344 74.4936 7.18255 75.4496C7.05113 75.9699 7.05969 76.5157 7.20736 77.0316C7.35504 77.5475 7.63659 78.0153 8.0235 78.3875C9.2129 79.506 10.9691 79.2044 12.061 78.2158C13.0655 79.7479 14.169 81.213 15.3643 82.6017C15.3485 82.6425 15.3428 82.6865 15.3478 82.7299C15.3528 82.7734 15.3684 82.815 15.3931 82.8511C15.4178 82.8872 15.4509 82.9167 15.4896 82.9372C15.5283 82.9576 15.5715 82.9683 15.6152 82.9683H15.6756C15.8382 83.154 16.0055 83.3303 16.1728 83.5113C15.5987 83.9255 15.1903 84.5296 15.0201 85.2163C14.85 85.9029 14.9292 86.6276 15.2435 87.2614C15.4435 87.6508 15.7343 87.9863 16.0915 88.2396C16.4487 88.4929 16.8617 88.6565 17.2956 88.7166C17.7295 88.7767 18.1715 88.7315 18.5842 88.5848C18.9969 88.4382 19.3682 88.1944 19.6666 87.8741C19.8294 87.6912 19.9683 87.4884 20.0801 87.2707C21.8037 88.7083 23.6419 90.0028 25.5765 91.1414C25.1165 91.529 24.825 92.0797 24.7634 92.6776C24.5707 93.2561 24.5707 93.8814 24.7634 94.4599C25.3256 96.1492 27.5789 96.6505 28.9774 95.7083C29.3492 95.4619 29.6493 95.1219 29.8475 94.7227C30.0458 94.3234 30.1351 93.8789 30.1064 93.4342C30.3759 93.5455 30.6454 93.6662 30.9149 93.773C30.9725 93.9314 31.0392 94.0863 31.1146 94.2371C31.268 94.5434 31.7419 94.4042 31.793 94.1025C32.1739 94.2417 32.5549 94.381 32.9452 94.5156C32.4341 96.0518 31.9695 97.5648 31.5049 99.1242C30.7708 101.612 34.8129 103.208 35.8397 100.763C36.1603 99.9921 36.4669 99.2171 36.7689 98.442C37.1174 98.5812 37.4659 98.7112 37.8143 98.8411C37.6013 99.1835 37.4812 99.5754 37.4659 99.9782C37.3822 101.955 39.5427 103.352 41.3686 102.763C41.8666 102.599 42.3089 102.299 42.6454 101.897C42.982 101.495 43.1995 101.007 43.2735 100.489C44.8904 100.866 46.5267 101.154 48.1751 101.352C48.0446 101.76 48.0446 102.198 48.1751 102.605C48.2432 102.86 48.3794 103.092 48.5693 103.276C48.7591 103.46 48.9955 103.589 49.253 103.649C49.3965 103.899 49.5784 104.124 49.792 104.318C50.1364 104.611 50.5504 104.812 50.9945 104.9C51.4385 104.988 51.8978 104.961 52.3284 104.821C52.759 104.681 53.1465 104.434 53.454 104.102C53.7616 103.77 53.9788 103.365 54.085 102.925C54.1897 102.521 54.2071 102.098 54.1361 101.686C55.5299 101.686 56.9237 101.598 58.3176 101.454L58.8798 105.58C59.3118 108.713 64.2832 108.55 63.8464 105.376C63.7489 104.684 63.6559 103.984 63.5584 103.292C63.8536 103.626 64.223 103.885 64.6369 104.051C65.0508 104.216 65.4978 104.282 65.9418 104.243C66.542 104.185 67.1029 103.919 67.5271 103.491C67.9514 103.063 68.2124 102.5 68.2649 101.9C68.3119 101.472 68.2583 101.04 68.1083 100.637C67.9582 100.234 67.7159 99.8718 67.4007 99.5791C70.069 98.7487 72.6541 97.6719 75.1225 96.3627C75.1225 96.4416 75.1225 96.5159 75.1225 96.5902C75.1801 97.2127 75.4337 97.8009 75.8469 98.2704C76.2601 98.7399 76.8117 99.0664 77.4224 99.2031C78.0025 99.3366 78.6092 99.2974 79.1673 99.0904C79.7255 98.8834 80.2107 98.5176 80.5631 98.0382C80.949 97.4788 81.1288 96.8031 81.0721 96.1261C81.0153 95.4492 80.7255 94.8128 80.2518 94.3253C80.0287 94.0898 79.7661 93.895 79.4759 93.7498C81.5523 92.3252 83.5031 90.7259 85.3068 88.9694C85.3148 89.0755 85.3303 89.181 85.3532 89.285C85.4117 89.6804 85.5603 90.0572 85.7874 90.3862C86.0146 90.7153 86.3143 90.988 86.6635 91.1832C87.0489 91.4141 87.4831 91.5517 87.9312 91.585C88.3794 91.6183 88.8292 91.5463 89.2446 91.375C89.6599 91.2036 90.0294 90.9375 90.3234 90.5979C90.6175 90.2584 90.8279 89.8549 90.9379 89.4196C91.3235 87.6791 90.0087 85.8366 88.2292 85.818C88.4057 85.6092 88.5916 85.405 88.7635 85.1868C89.8855 83.787 90.9263 82.3242 91.881 80.8056C92.0928 81.5884 92.59 82.2638 93.2749 82.6991C95.8674 84.2354 98.9059 81.0655 97.4099 78.5221C97.1061 78.0068 96.664 77.5867 96.1335 77.3094C95.6031 77.0322 95.0055 76.9089 94.4085 76.9534C94.2864 76.9645 94.1652 76.9846 94.0461 77.0137C95.4029 74.3949 96.5735 71.684 97.5493 68.901C97.6843 69.6452 98.0697 70.321 98.6418 70.8164C99.2138 71.3119 99.9381 71.5973 100.695 71.6253C102.465 71.63 103.71 70.0659 103.803 68.4183ZM99.1011 58.89C98.3355 59.3692 97.6043 59.9011 96.9128 60.4819C96.5039 59.1313 96.0486 57.7854 95.649 56.4487C95.7048 56.0728 95.7559 55.7015 95.807 55.3256C95.8379 55.3847 95.89 55.43 95.9529 55.4523C96.0158 55.4747 96.0848 55.4725 96.1462 55.4462C96.7047 55.1863 97.2382 54.8756 97.7398 54.518C98.2508 55.4462 98.7758 56.3745 99.3194 57.3027C99.346 57.3474 99.3807 57.3868 99.4217 57.4187C99.338 57.9107 99.2079 58.398 99.1011 58.89ZM95.3563 58.3331C95.5422 59.2613 95.7559 60.1895 96.0114 61.1177C95.5468 61.4426 95.0822 61.7629 94.6176 62.0831C94.8917 60.8486 95.1565 59.6001 95.3563 58.3331ZM93.6791 65.615C93.7906 66.3669 93.9114 67.1141 94.0368 67.8614C93.638 67.9991 93.2316 68.1137 92.8195 68.2048C93.1262 67.3508 93.4189 66.4922 93.6791 65.615ZM81.1903 83.5671C73.3756 72.7299 65.4586 61.8928 57.3326 51.2182C62.3132 54.0895 67.3016 56.9484 72.2977 59.795C78.3376 63.2248 84.3776 67.2951 90.7613 70.0566C90.2595 71.2076 89.7206 72.3308 89.1212 73.4168C87.0457 77.2072 84.3671 80.6353 81.1903 83.5671ZM88.4011 80.2486C88.2571 80.2486 88.1177 80.2486 87.9737 80.2486C87.3975 80.2486 86.8261 80.1976 86.2592 80.1465C86.8911 79.3529 87.4905 78.5407 88.048 77.7099C88.2196 78.5478 88.3375 79.3957 88.4011 80.2486ZM85.0141 83.3629C84.5216 83.3257 84.0338 83.2747 83.5459 83.2143C84.0756 82.6698 84.5944 82.1113 85.1024 81.5388C85.0605 82.1376 85.028 82.7502 85.0141 83.3629ZM81.4505 86.7973L80.2844 86.5142L79.9963 86.4492C80.5786 85.982 81.1485 85.4947 81.7061 84.9873C81.6457 85.5953 81.5667 86.1986 81.4505 86.7973ZM73.3802 58.9503C68.0744 55.9398 62.7732 52.906 57.4766 49.849L94.2273 55.0053C94.3802 55.0289 94.5366 54.9977 94.6687 54.9171C94.1269 59.7786 92.9459 64.5475 91.1562 69.1005C85.6227 65.2484 79.239 62.292 73.3802 58.9503ZM49.5039 94.316C50.0661 82.365 51.3624 70.5207 52.5006 58.6208C52.8491 60.7697 53.0071 62.9696 53.2905 65.0256C53.91 69.5925 54.5294 74.1594 55.1489 78.7263L57.2815 94.2835C54.6958 94.5392 52.0917 94.5501 49.5039 94.316ZM51.4413 95.7455C50.7584 96.3952 50.0847 97.0589 49.4156 97.7272L49.3692 97.653C48.9627 96.9539 48.6071 96.2264 48.3052 95.4763C49.3521 95.5908 50.3975 95.6681 51.4413 95.7083V95.7455ZM39.2685 92.0325C41.192 86.8762 43.0272 81.6828 45.0483 76.5728C47.1514 71.2324 49.3196 65.9152 51.5528 60.6212C49.7316 71.6996 48.9696 83.0194 48.5096 94.2139C45.3532 93.8371 42.2517 93.0925 39.2685 91.9954V92.0325ZM40.4254 93.7405C39.7843 94.217 39.1431 94.6811 38.5019 95.1328C38.4322 94.9472 38.3579 94.7662 38.2929 94.5805C38.4694 94.1164 38.6506 93.6523 38.8272 93.1882C39.3568 93.3878 39.8911 93.5456 40.4254 93.7173V93.7405ZM16.2657 73.0177C14.1423 69.1646 12.6669 64.9892 11.8984 60.6583C11.9276 60.6629 11.9574 60.6629 11.9866 60.6583C24.0665 58.5512 35.9745 55.3349 47.7337 51.8633C37.5774 59.4005 26.9889 66.2834 16.2564 72.9945L16.2657 73.0177ZM16.0287 74.9623C15.4885 74.6012 14.9143 74.2934 14.3143 74.0434C14.4561 73.6047 14.6252 73.1753 14.8207 72.7578C15.2017 73.4957 15.5966 74.2244 16.0194 74.9391L16.0287 74.9623ZM11.8008 65.1648C11.3151 64.7222 10.7964 64.3172 10.249 63.9535C10.604 63.613 10.9246 63.2383 11.2061 62.835C11.378 63.5915 11.5731 64.3712 11.7915 65.1416L11.8008 65.1648ZM11.7636 59.8693C11.3373 57.1266 11.2003 54.3468 11.3548 51.5755C11.5255 48.5401 12.0176 45.5313 12.8229 42.5995C25.3395 46.085 38.5995 47.2917 51.4785 49.0322L50.7677 49.5845C37.8515 53.3949 24.7773 56.4487 11.7543 59.8461L11.7636 59.8693ZM10.5045 58.941C10.0403 58.5888 9.54592 58.2782 9.02706 58.0128C9.25945 57.6222 9.54919 57.2686 9.88659 56.9639C9.92557 56.9781 9.96614 56.9874 10.0074 56.9917H10.1096C10.1759 56.9934 10.241 56.9739 10.2954 56.9361C10.3419 57.5626 10.4069 58.2356 10.4952 58.9039L10.5045 58.941ZM30.204 18.5258C37.3125 27.8917 44.514 37.2297 51.748 46.512C41.1735 40.3393 30.6733 33.9809 19.9268 28.1144C22.7801 24.3491 26.252 21.0944 30.1947 18.4887L30.204 18.5258ZM23.5554 19.8067C24.4846 19.8903 25.3813 19.9646 26.2966 20.0203C25.3674 20.7721 24.4382 21.5611 23.5833 22.3872C23.5167 21.8716 23.4826 21.3523 23.4811 20.8325C23.4764 20.4519 23.509 20.1084 23.5461 19.7696L23.5554 19.8067ZM34.6085 12.7383C35.4123 13.0864 36.2253 13.402 37.0431 13.6665C35.9837 14.1306 34.943 14.5947 33.9302 15.1006C34.2468 14.3298 34.4714 13.5244 34.5992 12.7011L34.6085 12.7383ZM38.9991 14.1306C41.2567 13.3288 43.5747 12.7081 45.9311 12.2741C47.9382 23.5104 50.173 34.7977 53.1743 45.8158C45.9078 36.3571 38.4741 27.1073 30.7151 18.1452C31.3237 17.7554 31.9463 17.3841 32.5735 17.0221L32.6246 16.9942C34.6596 15.8438 36.789 14.8687 38.9898 14.0796L38.9991 14.1306ZM69.1198 13.9914V14.0146C65.9279 19.4865 63.2982 25.3576 60.6453 31.108C58.3501 36.088 56.0921 41.119 54.1407 46.2475C51.8177 34.8488 49.2437 23.5058 47.0508 12.0746C54.4456 10.871 62.0235 11.5119 69.1105 13.9403L69.1198 13.9914ZM54.8051 10.2784C55.0699 9.88394 55.3069 9.45231 55.5438 9.04389C55.9666 9.50801 56.3987 9.93035 56.8401 10.3481C56.1556 10.2769 55.4742 10.2367 54.7958 10.2274L54.8051 10.2784ZM60.8776 10.7426C61.4398 10.1578 61.9694 9.5405 62.5641 8.97892C63.0163 9.76173 63.4809 10.5353 63.9579 11.2995C62.9265 11.0303 61.8997 10.8354 60.8683 10.6915L60.8776 10.7426ZM71.1269 13.3973C69.5389 12.7904 67.9198 12.2683 66.2763 11.8332C67.108 11.3691 67.9257 10.8493 68.7434 10.3481C68.8503 10.2784 68.9664 10.2135 69.0779 10.1485L69.4357 10.6683C69.9448 11.4918 70.5263 12.2684 71.1733 12.9889C71.1326 13.0379 71.1059 13.097 71.0961 13.1599C71.0863 13.2228 71.0937 13.2872 71.1176 13.3463L71.1269 13.3973ZM75.1643 16.6136C75.1643 16.66 75.2015 16.7111 75.2248 16.7621C75.257 16.8241 75.3094 16.8733 75.3734 16.9014C75.3734 17.0592 75.5221 17.2216 75.694 17.1474L75.9495 17.0499C78.3913 18.3877 80.6973 19.9591 82.8351 21.7421C73.9176 30.4709 64.5508 38.7295 54.7726 46.4842C57.1375 41.3789 59.3815 36.2225 61.7929 31.1358C64.4365 25.5664 67.4053 20.1084 69.9886 14.4973C70.0129 14.4414 70.0271 14.3817 70.0304 14.3209C71.7919 14.9591 73.5113 15.7078 75.1783 16.5626L75.1643 16.6136ZM71.5683 13.5644C71.6426 13.5644 71.7123 13.518 71.782 13.4948C71.8127 13.5191 71.8453 13.5408 71.8796 13.5597C71.9261 13.5812 71.977 13.5916 72.0282 13.59C72.0794 13.5884 72.1295 13.5749 72.1746 13.5505C72.2197 13.5262 72.2585 13.4917 72.2879 13.4498C72.3174 13.4079 72.3366 13.3597 72.3442 13.3091C72.9621 13.1095 73.5661 12.8868 74.1701 12.6547C74.1679 12.6934 74.1679 12.7321 74.1701 12.7707C74.3095 13.4669 74.4256 14.1909 74.5836 14.8964C73.6079 14.3673 72.5951 13.9218 71.559 13.5133L71.5683 13.5644ZM77.5013 16.3769C78.2354 16.0985 78.9742 15.8293 79.7175 15.5694C79.8308 16.4196 79.9999 17.2615 80.224 18.0895C79.3598 17.4908 78.4306 16.9107 77.5013 16.3769ZM28.0668 18.6372C28.2155 17.6857 28.3688 16.7343 28.5314 15.7782C29.3832 16.0876 30.235 16.3831 31.0868 16.6647C30.0414 17.2727 29.0332 17.9364 28.0668 18.6372ZM19.137 27.2419C19.0487 26.504 18.7653 25.7614 18.6259 25.0373L18.598 24.8517H18.8489C19.6109 24.8099 20.3961 24.8517 21.172 24.8517C20.4658 25.6268 19.7828 26.4065 19.137 27.2419ZM18.612 27.9474C18.4215 28.2073 18.2217 28.4625 18.0359 28.7271C16.8908 28.6361 15.7386 28.7143 14.6163 28.9591C14.3887 28.2722 14.1842 27.5668 13.9937 26.8752C14.3747 26.3137 14.7743 25.7614 15.1878 25.2091C16.0891 25.093 16.9905 24.977 17.9011 24.9028C17.9011 24.9863 17.9011 25.0698 17.9336 25.1534C18.0777 26.0909 18.1288 27.1352 18.612 27.9474ZM15.0252 29.762C15.8336 29.6646 16.6745 29.6553 17.4876 29.5253C16.9347 30.3422 16.4051 31.1683 15.9079 32.0269C15.6152 31.2658 15.211 30.5418 14.9044 29.7806L15.0252 29.762ZM19.5319 28.6621C29.9763 35.4707 40.8389 41.6945 51.6365 47.9322C38.7203 46.1361 25.8274 44.2193 13.0088 41.8987C14.3964 37.1413 16.6038 32.662 19.5319 28.6621ZM54.8423 47.9229C64.9132 39.9573 74.5301 31.4352 83.6481 22.3965C84.0291 22.7307 84.4008 23.0695 84.7678 23.4176C88.3533 26.745 91.176 30.8076 93.0426 35.3268C92.9609 35.2495 92.8579 35.1985 92.747 35.1803C92.636 35.1621 92.5221 35.1776 92.42 35.2247C80.1388 40.0237 67.6965 44.3693 55.0932 48.2617L54.8423 47.9229ZM87.9969 24.8238C89.1321 25.0141 90.2767 25.1442 91.4257 25.2137C91.4257 25.2137 91.4257 25.2369 91.4257 25.2462C91.2724 26.3369 91.0633 27.4368 90.9611 28.5368C90.046 27.2414 89.0546 26.0016 87.9922 24.8238H87.9969ZM96.0858 42.3071C95.9039 40.7602 95.6136 39.2279 95.2169 37.7216C96.095 38.4874 96.9871 39.3136 97.907 40.0794C97.2426 40.8034 96.6386 41.5645 96.0858 42.3071ZM96.2251 43.2353C96.6531 44.1913 97.1371 45.1211 97.6747 46.02C97.907 46.4192 98.1393 46.874 98.3949 47.3242C97.7119 47.8115 97.001 48.2989 96.3692 48.8233C96.4267 46.9744 96.3692 45.1236 96.1973 43.2818L96.2251 43.2353ZM95.1565 45.8251C95.1892 48.4923 95.0682 51.1592 94.7941 53.8126C94.7142 53.7617 94.6235 53.73 94.5293 53.7197C82.324 52.0211 70.0862 50.4431 57.8576 48.7815C69.6463 45.1026 81.305 41.0091 92.8335 36.501C92.9614 36.4541 93.072 36.3695 93.1508 36.2585C93.2296 36.1475 93.2729 36.0152 93.2749 35.8791C94.4806 39.0587 95.1175 42.4253 95.1565 45.8251ZM94.6919 36.0462C94.0906 34.2458 93.3125 32.5093 92.3689 30.862C93.7348 31.3261 95.1054 31.7902 96.4807 32.2126C95.9046 33.3682 95.3981 34.5796 94.8638 35.6703C94.8313 35.7724 94.7616 35.907 94.6919 36.0462ZM91.3978 71.7043C91.5247 72.2528 91.624 72.8073 91.6952 73.3658L90.4036 73.751C90.7567 73.0734 91.0912 72.3958 91.4025 71.7043H91.3978ZM95.8535 54.9125C95.8953 54.5737 95.9371 54.2349 95.9742 53.8961C96.0625 53.121 96.1322 52.3506 96.1926 51.5755C96.5643 52.3042 96.9499 53.0282 97.3356 53.7476C96.7993 54.0771 96.3035 54.468 95.8581 54.9125H95.8535ZM100.151 53.056C100.012 54.0632 99.8584 55.075 99.6865 56.0867C99.3009 55.3952 98.892 54.6944 98.4878 54.0261C98.9803 53.7105 99.6214 53.4227 100.156 53.056H100.151ZM100.29 51.9839C99.5006 52.1789 98.7108 52.8565 98.0464 53.2974C97.461 52.3258 96.8663 51.3651 96.2623 50.4152C96.2623 50.1182 96.3041 49.8165 96.3134 49.5195C97.1637 49.0554 97.9674 48.5124 98.7712 47.9693C99.033 48.3875 99.3591 48.7619 99.7376 49.0786C99.7963 49.1283 99.8693 49.1582 99.9461 49.1637C100.023 49.1692 100.099 49.1502 100.165 49.1093C100.23 49.0685 100.28 49.0079 100.309 48.9365C100.337 48.865 100.342 48.7864 100.323 48.7119C100.151 48.2462 99.9166 47.8059 99.6261 47.4031L100.746 46.6745C100.671 48.4335 100.513 50.2249 100.295 51.9839H100.29ZM100.792 45.5838C100.235 45.9597 99.6958 46.3635 99.1568 46.7626C98.9059 46.4238 98.655 46.0897 98.4413 45.7555C97.8187 44.7855 97.2566 43.7691 96.62 42.8037C97.238 42.1354 97.8513 41.4624 98.4785 40.8127L98.6086 40.6874C99.167 41.1254 99.7554 41.5239 100.369 41.8801C100.425 41.9132 100.488 41.9307 100.553 41.9307C100.618 41.9307 100.681 41.9132 100.737 41.8801C100.805 43.1116 100.823 44.3461 100.792 45.5838ZM100.704 41.1236C100.294 40.7028 99.8594 40.3061 99.4031 39.9355C99.7748 39.592 100.142 39.2486 100.5 38.8912C100.583 39.6106 100.658 40.3532 100.704 41.1004V41.1236ZM99.4263 33.1222C99.8249 34.6502 100.135 36.1998 100.356 37.7634C99.7404 38.2435 99.1612 38.7678 98.6225 39.3321C97.5121 38.4967 96.3274 37.7216 95.2541 36.9326C95.2485 36.9103 95.2407 36.8885 95.2309 36.8677C95.4214 36.5335 95.6072 36.1993 95.793 35.8605C96.1601 35.1829 96.5178 34.5007 96.8802 33.8231C97.1033 33.4054 97.3448 32.9923 97.5772 32.5746C98.1858 32.7231 98.8037 32.9227 99.4263 33.099V33.1222ZM98.5947 30.3886C98.7944 30.9641 98.9849 31.5443 99.1522 32.129C98.7666 32.0037 98.3763 31.8923 97.9907 31.7717C98.2303 31.3203 98.4323 30.8499 98.5947 30.3654V30.3886ZM98.3066 29.6089C98.2561 29.6074 98.206 29.6176 98.1601 29.6385C98.1142 29.6594 98.0737 29.6906 98.0418 29.7296C97.6213 30.2692 97.2453 30.8419 96.9174 31.4422C95.2448 30.9363 93.5629 30.4489 91.8671 30.0034C91.8299 29.9384 91.7928 29.8734 91.7509 29.8085C92.0343 28.3092 92.2344 26.7954 92.3503 25.274C93.6204 25.3119 94.8897 25.176 96.1229 24.8703C96.975 26.3817 97.7052 27.9585 98.3066 29.5857V29.6089ZM91.4629 18.7207C93.0483 20.3058 94.4367 22.076 95.5979 23.9931C94.5711 23.956 93.5443 23.9931 92.5175 23.9931C92.7418 22.8062 92.7935 21.5932 92.6709 20.3915C92.6709 20.2569 92.4479 20.1688 92.3828 20.3219C91.9311 21.5131 91.6571 22.7641 91.5697 24.0349C90.1031 24.0966 88.6341 24.0749 87.1699 23.9699C85.6593 22.3843 84.0266 20.9194 82.2868 19.5886C83.611 19.3519 84.9351 19.0781 86.2546 18.8089C86.2546 18.8785 86.2546 18.9528 86.2546 19.0224C86.315 20.4379 86.2546 21.9138 86.5752 23.2923C86.6019 23.3709 86.6532 23.4388 86.7217 23.4859C86.7901 23.5329 86.8719 23.5567 86.9549 23.5536C87.038 23.5504 87.1178 23.5206 87.1825 23.4685C87.2471 23.4164 87.2932 23.3448 87.3139 23.2644C87.4812 21.8721 87.2396 20.4008 87.1327 18.9853C87.1327 18.8785 87.1327 18.7718 87.1095 18.6604C88.2478 18.4887 89.5162 18.3262 90.4314 17.7878C90.8031 18.0617 91.1423 18.3726 91.4629 18.6975V18.7207ZM89.6044 17.0313C88.7395 17.1388 87.8879 17.3347 87.063 17.6161C86.9933 16.6879 86.9097 15.8014 86.8028 14.8964C87.7714 15.5532 88.7065 16.2579 89.6044 17.0081V17.0313ZM84.6378 13.5041C84.7589 13.6855 84.8991 13.8535 85.0559 14.0053C85.3706 14.2915 85.7552 14.49 86.171 14.5808C86.171 15.6668 86.171 16.7575 86.236 17.8296C84.6703 18.2056 83.0952 18.5722 81.5434 19.0085L81.432 18.9203C81.2043 17.6765 80.9673 16.4512 80.7304 15.2074C81.7386 14.8546 82.7468 14.5019 83.7504 14.1399C83.8331 14.0844 83.8957 14.0037 83.9291 13.9099C83.9624 13.8161 83.9646 13.7141 83.9355 13.6189C83.9063 13.5237 83.8473 13.4404 83.7671 13.3812C83.6869 13.3221 83.5898 13.2903 83.4902 13.2906C82.4976 13.5607 81.5205 13.8845 80.5631 14.2606C80.3866 13.2302 80.2379 12.186 80.145 11.1231C81.6864 11.8226 83.1865 12.6098 84.6378 13.4808V13.5041ZM74.6579 9.02069C74.8329 9.15796 75.0231 9.27475 75.2248 9.36878C75.632 9.56571 76.0778 9.67031 76.5303 9.67509C77.5153 10.0417 78.4956 10.4316 79.462 10.854C79.4419 12.1307 79.4947 13.4075 79.62 14.6783C78.6582 15.082 77.7151 15.523 76.7905 15.9917C76.442 15.8014 76.0936 15.6111 75.7405 15.4301C75.5453 14.5344 75.234 13.6479 75.011 12.7707C74.9739 12.6269 74.9413 12.4783 74.9088 12.3345L74.9924 12.2973C75.9217 11.9029 76.9903 11.5269 77.7429 10.84C78.0217 10.5801 77.6965 10.1624 77.3713 10.2506C76.4456 10.58 75.5541 10.9981 74.709 11.4991C74.5 10.608 74.2909 9.71686 74.0725 8.82575L74.6579 9.02069ZM73.5103 8.65403C73.5103 8.65403 73.5103 8.67724 73.5103 8.6958C73.6358 9.74006 73.8123 10.7751 74.0121 11.81C73.3617 12.0931 72.7019 12.3577 72.0375 12.6083C71.4753 11.6801 70.5833 10.905 69.9421 10.0696C69.8631 9.96749 69.7934 9.86074 69.7191 9.75863C70.2969 9.46202 70.8214 9.07148 71.2709 8.60299C71.3281 8.54 71.3631 8.46006 71.3706 8.37535C71.3781 8.29064 71.3577 8.2058 71.3124 8.13377C71.2671 8.06175 71.1995 8.00648 71.1199 7.9764C71.0403 7.94632 70.953 7.94307 70.8713 7.96715C70.2448 8.18586 69.6591 8.50741 69.1384 8.91858C68.7249 8.3338 68.3113 7.74437 67.9071 7.15495C69.7609 7.56337 71.6426 8.05069 73.5103 8.63083V8.65403ZM65.3936 6.79757C65.4221 6.77518 65.4485 6.75032 65.4726 6.72331C66.0626 6.82541 66.6527 6.9368 67.2474 7.05747C67.6433 7.856 68.0855 8.63084 68.5715 9.37805L68.2695 9.59156C67.3635 10.2135 66.439 10.8307 65.5609 11.4898C65.518 11.5217 65.483 11.5629 65.4586 11.6105L65.2356 11.5548C64.5991 10.4873 63.9254 9.42447 63.2285 8.38021C63.9208 7.77685 64.6502 7.26169 65.3936 6.76044V6.79757ZM64.3575 6.53302C63.7848 6.85803 63.2324 7.21762 62.7035 7.60977C62.3736 7.14565 62.0391 6.64906 61.6999 6.1803C62.5889 6.25456 63.4748 6.35975 64.3575 6.49589V6.53302ZM61.017 6.10139C61.0172 6.14668 61.0284 6.19125 61.0495 6.23134C61.3794 6.85326 61.7185 7.47982 62.067 8.08781C61.1997 8.77706 60.4388 9.59028 59.809 10.5012C59.809 10.5291 59.809 10.5523 59.7811 10.5755C59.2654 10.5151 58.7497 10.4595 58.2293 10.4177C58.2293 10.4177 58.2293 10.4177 58.2293 10.3898C57.5634 9.6041 56.8562 8.85426 56.1107 8.1435C56.6217 7.37771 57.1514 6.62585 57.6439 5.85078C58.7651 5.88172 59.8895 5.95288 61.017 6.06427V6.10139ZM53.9828 5.83684C54.9399 5.83684 55.9016 5.80435 56.8587 5.83684C56.3662 6.3845 55.9295 6.96929 55.4649 7.56336C54.898 7.02962 54.3266 6.50517 53.7644 5.98536L53.9828 5.83684ZM49.1601 6.13388C49.5736 6.08747 49.9871 6.05498 50.4053 6.01785C50.9025 6.25441 51.4401 6.39458 51.9896 6.43093C52.3556 6.45271 52.7226 6.40708 53.0721 6.29633C53.6668 6.96001 54.2708 7.6469 54.8887 8.32451C54.3962 8.91788 53.9708 9.56383 53.6204 10.2506C52.6261 10.2506 51.6334 10.297 50.6422 10.3898C49.9871 9.67974 49.2159 9.0671 48.5004 8.42662C48.7669 7.67655 48.9872 6.91087 49.1601 6.13388ZM48.138 9.27595C48.5515 9.68901 48.9696 10.1067 49.4017 10.5059C48.7094 10.5801 48.0079 10.6637 47.3342 10.7704C47.6445 10.2881 47.9134 9.78038 48.138 9.25275V9.27595ZM48.4167 6.21742C48.2216 6.74651 48.0172 7.27097 47.7941 7.79078L46.3724 6.49589C47.0508 6.38451 47.7337 6.2824 48.4167 6.19422V6.21742ZM42.7067 7.24776C43.6127 7.02963 44.5279 6.84399 45.4432 6.67691C46.0983 7.32203 46.7627 7.95786 47.4271 8.5937C47.3946 8.65867 47.3667 8.7283 47.3342 8.79328C46.9625 9.53122 46.4839 10.2181 46.1448 10.97C45.8614 11.021 45.5733 11.0674 45.2852 11.1278C44.6394 11.2577 43.9936 11.4063 43.3571 11.5641C42.9537 11.0439 42.4745 10.587 41.9354 10.2088C42.2795 9.23855 42.5376 8.23996 42.7067 7.22456V7.24776ZM41.5916 11.1835C41.8285 11.4109 42.0562 11.6476 42.3117 11.8518C41.9308 11.9539 41.5498 12.0514 41.1781 12.1674C41.3378 11.8411 41.4759 11.5046 41.5916 11.1603V11.1835ZM41.954 7.4334C41.7356 8.19456 41.4894 8.95108 41.2338 9.69366L41.1456 9.62868C40.4893 9.11085 39.7934 8.6453 39.0641 8.23633C40.0212 7.93311 40.9845 7.65773 41.954 7.4102V7.4334ZM36.3787 9.18776C36.9594 8.96499 37.5495 8.75614 38.1395 8.55657C38.9526 9.20634 39.8818 9.72614 40.6949 10.3805C40.7553 10.427 40.8111 10.478 40.8668 10.5291C40.5114 11.1635 40.2248 11.8341 40.0119 12.5294C39.3243 12.7568 38.6181 12.9935 37.9676 13.2627C37.9373 13.1922 37.883 13.1346 37.8143 13.1003C36.8264 12.5828 35.8051 12.1317 34.7572 11.7497C34.8408 11.0721 34.8873 10.3991 34.9198 9.77255C35.4076 9.5637 35.9001 9.35485 36.4019 9.16456L36.3787 9.18776ZM34.1996 10.116C34.1346 10.5894 34.0556 11.0535 33.9627 11.5083L32.4341 10.9282C33.0102 10.6312 33.6142 10.3388 34.2229 10.0696L34.1996 10.116ZM31.5607 11.3923C32.2901 11.7172 33.0242 12.0607 33.7629 12.3902C33.7304 12.5248 33.7072 12.6547 33.6746 12.7847C33.4052 13.7872 32.9452 14.7386 32.7129 15.7411C32.4945 15.8618 32.2483 15.9732 32.0531 16.0985C30.9195 15.6947 29.7673 15.328 28.6104 14.9799C28.6987 14.3534 28.7869 13.7268 28.852 13.1235C28.8598 13.0647 28.8501 13.005 28.8241 12.9518C29.7394 12.3391 30.6547 11.8286 31.5839 11.3459L31.5607 11.3923ZM28.2526 13.2442C28.1365 13.7361 28.0343 14.2281 27.9321 14.72L26.6079 14.3302C27.1376 13.9589 27.6858 13.5922 28.2526 13.2442ZM25.9296 14.8129L27.788 15.4997C27.5697 16.609 27.3652 17.7229 27.1515 18.8275C27.1345 18.8994 27.1367 18.9746 27.1579 19.0455C27.1791 19.1163 27.2185 19.1804 27.2723 19.2312L27.1143 19.3426C27.0679 19.293 27.0083 19.2575 26.9424 19.2405C25.8819 18.9993 24.8036 18.8441 23.718 18.7764C23.7924 18.3773 23.8807 17.9781 23.9875 17.5836C24.0944 17.1891 23.4486 17.0174 23.3278 17.4305C23.207 17.8435 23.0908 18.2705 22.984 18.73C22.3567 18.7068 21.7295 18.6975 21.1255 18.7021C22.6426 17.3052 24.2472 16.0062 25.9296 14.8129ZM20.2335 19.5144C21.0791 19.5654 21.9293 19.6257 22.7702 19.7046C22.5425 20.8382 22.5425 22.0056 22.7702 23.1391C22.51 23.399 22.2545 23.6543 22.0036 23.9188C20.8257 23.7919 19.6366 23.8106 18.4633 23.9745C18.3471 23.1902 18.2542 22.4058 18.1892 21.6122C18.8458 20.885 19.5273 20.1858 20.2335 19.5144ZM16.9812 23.3201C17.2038 23.0393 17.3824 22.7263 17.5108 22.3919C17.5536 22.3461 17.5939 22.298 17.6316 22.248C17.6781 22.8606 17.7385 23.4686 17.8082 24.0766C17.1299 24.1787 16.4608 24.304 15.815 24.434L16.1495 24.0256C16.4634 23.8389 16.7392 23.5949 16.9626 23.3062L16.9812 23.3201ZM13.5663 27.5668C13.6499 28.0727 13.7568 28.5971 13.8869 29.1216C13.3758 29.2376 12.8787 29.3629 12.3908 29.4882C12.7439 28.8446 13.1296 28.2042 13.5477 27.5668H13.5663ZM11.9216 30.2679C12.6371 30.1225 13.3572 29.9972 14.082 29.892C14.3475 30.8533 14.7698 31.7644 15.3318 32.5885C15.3786 32.6481 15.4415 32.6932 15.513 32.7185L15.2807 33.1408C14.0853 33.3025 12.9098 33.5871 11.7729 33.9901C11.4848 33.4286 11.1689 32.8763 10.8437 32.3565C11.1736 31.6603 11.5267 30.9688 11.9216 30.2679ZM10.4766 33.1176C10.6485 33.5028 10.8065 33.8881 10.9691 34.2779C10.5696 34.4218 10.17 34.5749 9.78437 34.742C10.0027 34.199 10.2304 33.6606 10.4766 33.1269V33.1176ZM9.46379 35.5264L11.2804 35.0066C11.5824 35.7352 11.8844 36.4685 12.2096 37.2018C12.2462 37.289 12.3138 37.3595 12.3995 37.3996C12.4852 37.4397 12.5827 37.4465 12.6731 37.4187C12.7636 37.3909 12.8404 37.3305 12.8887 37.2492C12.937 37.168 12.9533 37.0717 12.9344 36.9791C12.7438 36.2169 12.4825 35.4743 12.1539 34.7606C13.0227 34.5192 13.9333 34.3475 14.8022 34.0783C13.9324 35.7994 13.1781 37.5762 12.5442 39.3971C12.5161 39.3019 12.4515 39.2217 12.3645 39.1739C12.2775 39.126 12.175 39.1145 12.0795 39.1418C11.2387 39.4541 10.431 39.849 9.66822 40.3207C9.5149 40.1211 9.36622 39.9216 9.23149 39.722C8.96201 39.3089 8.70183 38.8912 8.44165 38.4689C8.76688 37.4803 9.0921 36.501 9.46379 35.5357V35.5264ZM8.21864 39.2393C8.39519 39.5503 8.57638 39.8612 8.76687 40.1675L9.01312 40.5852C8.59497 40.7585 8.17217 40.9132 7.74473 41.0494C7.88876 40.4785 8.04673 39.8705 8.21864 39.2718V39.2393ZM6.93166 45.2218C7.26065 45.5441 7.5709 45.885 7.86089 46.2428C7.49469 46.4175 7.11936 46.5724 6.73653 46.7069C6.79228 46.2521 6.88056 45.7509 6.93166 45.2543V45.2218ZM6.52745 50.8376C6.57699 50.449 6.55812 50.0547 6.4717 49.6726C6.51816 48.9347 6.57391 48.1967 6.64825 47.4634C7.16444 47.3184 7.66915 47.1354 8.15824 46.9158L8.30691 46.8508C8.65042 47.4449 9.03546 48.0141 9.45915 48.5541C9.6961 48.8187 10.0957 48.5124 10.012 48.2107C9.79754 47.5869 9.4576 47.0136 9.01312 46.5259C9.57312 46.2843 10.0776 45.9305 10.4952 45.4863C10.6997 45.245 10.4952 44.7762 10.1375 44.9155C9.55763 45.2003 9.00143 45.5309 8.47417 45.904C8.03474 45.4029 7.55624 44.9373 7.04317 44.5117C7.19184 43.602 7.36685 42.6985 7.56818 41.8012C8.19726 41.6567 8.81772 41.4769 9.42662 41.2629C9.68085 41.6965 9.99352 42.0931 10.3558 42.4417C10.4164 42.4927 10.4929 42.5209 10.5721 42.5214C10.6513 42.5219 10.7281 42.4947 10.7894 42.4446C10.8506 42.3944 10.8924 42.3245 10.9074 42.2468C10.9224 42.1691 10.9097 42.0887 10.8716 42.0194C10.6863 41.6491 10.4654 41.2978 10.2118 40.9705C11.0154 40.7224 11.76 40.3134 12.4001 39.7684C11.9355 41.1283 11.5452 42.516 11.22 43.9454C10.4788 47.1597 10.114 50.4492 10.1328 53.7476C9.70839 53.2362 9.21051 52.7905 8.65537 52.4248C9.11971 52.0201 9.54158 51.5691 9.91446 51.0789C10.1328 50.7772 9.69145 50.4291 9.40804 50.6148C8.85459 50.9736 8.3488 51.4009 7.9027 51.8865C7.43809 51.5523 6.97348 51.2274 6.50887 50.9211C6.51847 50.9055 6.5248 50.8882 6.52745 50.8701V50.8376ZM6.36484 52.332C6.36484 52.086 6.36484 51.8447 6.36484 51.5987C6.71794 51.854 7.0664 52.1139 7.41021 52.3831C7.03852 52.8193 6.68542 53.2695 6.3509 53.7151C6.36484 53.2881 6.36019 52.8286 6.36484 52.3645V52.332ZM6.41595 54.8661C6.96883 54.2395 7.53101 53.613 8.11178 53.0096C8.63383 53.5619 9.21497 54.0553 9.84477 54.4809C9.89323 54.5073 9.94754 54.5211 10.0027 54.5211C10.0579 54.5211 10.1122 54.5073 10.1607 54.4809C10.1607 54.9868 10.2072 55.4927 10.235 55.9985C10.167 55.9562 10.0873 55.9367 10.0074 55.9429C9.19897 56.0589 8.72506 56.9778 8.27904 57.6183C7.68433 57.3398 7.08034 57.0846 6.49493 56.8525C6.44847 56.161 6.41595 55.5019 6.41595 54.8661ZM6.56462 57.5208C7.00136 57.7529 7.43344 57.985 7.86089 58.2356C7.4892 58.7647 7.13609 59.3077 6.79693 59.86C6.68077 59.0432 6.59714 58.282 6.54139 57.4977L6.56462 57.5208ZM7.16397 61.9949C7.16397 61.9949 7.14074 61.9949 7.13145 61.9949L7.09428 61.9578C7.04317 61.6469 6.99206 61.3359 6.9456 61.0296C6.98082 61.0032 7.01211 60.9719 7.03852 60.9367C7.53101 60.1802 8.03744 59.4237 8.57639 58.6951C9.13704 59.0908 9.72728 59.4431 10.3419 59.7486C10.3879 59.7692 10.4378 59.7799 10.4883 59.7799C10.5387 59.7799 10.5886 59.7692 10.6346 59.7486C10.7461 60.5098 10.8855 61.2663 11.0435 62.0135L10.9738 62.0414C10.4308 62.4509 9.95029 62.9371 9.54742 63.4847C8.77152 62.9398 7.96824 62.4348 7.14074 61.9717L7.16397 61.9949ZM7.95845 63.2666C8.33479 63.5126 8.71112 63.7632 9.08281 64.0185L8.03744 65.188C8.03744 65.1323 8.0746 65.0767 8.08854 65.0163C8.20874 64.4229 8.15551 63.8074 7.93522 63.2434L7.95845 63.2666ZM9.90981 71.7646C9.49631 70.7853 9.11998 69.7967 8.79011 68.7896C9.42198 69.1887 10.0538 69.5972 10.6857 70.0009C10.3795 70.562 10.1125 71.1435 9.88659 71.7414L9.90981 71.7646ZM8.56709 68.1259C8.37196 67.4947 8.18611 66.8589 8.01421 66.2184C8.58103 65.6615 9.14785 65.0999 9.69609 64.5244L9.73791 64.4826H9.77043C10.5138 65.0442 11.1643 65.7868 12.0145 66.1998C12.0542 66.2164 12.097 66.2243 12.1399 66.223C12.2886 66.6871 12.4512 67.1512 12.6046 67.6154C11.9781 68.0915 11.4496 68.6841 11.0481 69.3605C10.2118 68.9056 9.37087 68.4972 8.54386 68.1027L8.56709 68.1259ZM13.0552 75.6631C12.9328 74.9621 12.5535 74.3318 11.9913 73.8949L13.176 74.41L13.3851 74.5075C13.3851 74.591 13.3479 74.6699 13.3293 74.7396C13.2225 75.148 13.1389 75.561 13.0599 75.9741C13.0584 75.8622 13.049 75.7506 13.032 75.64L13.0552 75.6631ZM14.3608 72.2565C13.9425 72.663 13.667 73.1938 13.5756 73.7696C12.4884 73.3704 11.3501 73.0595 10.3233 72.7671C10.3233 72.7299 10.2908 72.6974 10.2769 72.665C10.5866 71.9008 10.9499 71.1595 11.364 70.4465C12.0842 70.9106 12.809 71.3283 13.5524 71.7089C13.8544 71.8667 14.2028 71.4351 13.9148 71.2076C13.2447 70.6909 12.5365 70.2254 11.7961 69.8153C12.1492 69.3512 12.5302 68.8871 12.8647 68.423C13.3531 69.7193 13.9083 70.9896 14.528 72.2287C14.4656 72.2106 14.3991 72.2122 14.3376 72.2333L14.3608 72.2565ZM13.5059 78.0534C13.6299 76.9659 13.8207 75.8871 14.0774 74.8231C14.6486 75.1306 15.2475 75.3839 15.8661 75.5796C15.9086 75.5943 15.954 75.5987 15.9985 75.5925C16.043 75.5863 16.0854 75.5695 16.1222 75.5437C16.1589 75.5179 16.189 75.4836 16.2099 75.4439C16.2308 75.4041 16.242 75.36 16.2425 75.3151C16.3354 75.4682 16.4376 75.6214 16.5352 75.7792V75.807C16.2782 76.5525 16.09 77.32 15.973 78.0998C15.1553 78.0626 14.3376 78.0255 13.5198 78.0255L13.5059 78.0534ZM13.9984 79.093C13.8962 78.9537 13.8033 78.8145 13.7103 78.6706C14.4212 78.7449 15.132 78.7959 15.8475 78.8423C15.8475 78.9584 15.8057 79.0698 15.7871 79.1812C15.6663 79.7752 15.5362 80.3739 15.4387 80.9726C14.9183 80.3368 14.4351 79.7103 13.9752 79.0698L13.9984 79.093ZM16.0055 81.6642C16.275 80.8381 16.4329 79.9702 16.6234 79.1208C16.6234 79.0512 16.656 78.9816 16.6745 78.912C17.3596 79.0214 18.0553 79.0479 18.7467 78.9909L18.8768 79.158C18.8768 80.1373 18.8118 81.2001 18.8303 82.2583C18.1055 82.3 17.3854 82.3557 16.6653 82.3975C16.4237 82.1283 16.196 81.8916 15.9823 81.641L16.0055 81.6642ZM17.1484 76.7399C17.4582 77.2257 17.7927 77.7084 18.152 78.188C17.7246 78.1462 17.2832 78.1554 16.8511 78.1554C16.944 77.6635 17.0509 77.1901 17.1252 76.7167L17.1484 76.7399ZM18.6491 83.4371C18.484 83.239 18.2714 83.0857 18.0312 82.9915H18.8536C18.8536 83.1633 18.8814 83.3257 18.9 83.4928C18.8102 83.4613 18.7187 83.435 18.6259 83.4139L18.6491 83.4371ZM19.6109 82.0448C19.5458 81.3439 19.504 80.6524 19.4669 79.9377C20.0941 80.7127 20.7538 81.4646 21.4368 82.1933C20.8375 82.1933 20.2335 82.1933 19.6295 82.235C19.6016 82.1236 19.5923 82.0587 19.5877 81.9984L19.6109 82.0448ZM20.4472 86.1847C20.4999 85.5014 20.2925 84.8235 19.8664 84.2864C19.8385 83.8827 19.7874 83.4742 19.7317 83.0705C20.5587 83.0705 21.3764 83.0704 22.1848 82.973C22.4125 83.2004 22.6494 83.4371 22.8817 83.646C22.97 84.37 23.0722 85.0986 23.1698 85.8227C22.287 85.9665 21.4089 86.1475 20.5587 86.2868L20.4472 86.1847ZM21.2835 86.8948C21.9432 86.8437 22.6123 86.8019 23.2813 86.7416C23.3112 87.4418 23.4686 88.1307 23.7459 88.7744C22.8848 88.1371 22.064 87.495 21.2835 86.8483V86.8948ZM23.6995 84.4164C24.1408 84.8202 24.5961 85.2147 25.0608 85.5999C24.6891 85.5999 24.3127 85.6602 23.9411 85.7113C23.8342 85.2332 23.7552 84.8016 23.6762 84.37L23.6995 84.4164ZM23.9736 88.9508C24.0527 88.9634 24.1337 88.9455 24.2001 88.9007C24.2666 88.8559 24.3135 88.7875 24.3313 88.7095C24.3942 88.0161 24.3265 87.3172 24.1315 86.6488C24.6508 86.5824 25.1658 86.4863 25.674 86.361C26.0783 87.2475 26.4592 88.1386 26.7938 89.0483C26.134 89.2246 25.4696 89.3732 24.8052 89.5124C24.5032 89.2757 24.2245 89.0947 23.9503 88.9044L23.9736 88.9508ZM26.5429 86.7787C27.2955 87.3496 28.0807 87.888 28.8659 88.4078C28.4013 88.5238 27.9692 88.6863 27.5325 88.8301C27.2258 88.0999 26.8882 87.4006 26.5196 86.7323L26.5429 86.7787ZM27.1097 90.552L26.9099 90.6495L26.659 90.6773C26.3013 90.4638 25.9435 90.255 25.5904 90.0322C26.055 89.9487 26.5522 89.8512 27.0307 89.7398C27.1051 89.9904 27.1701 90.2503 27.2398 90.5102L27.1097 90.552ZM28.6011 90.9697C28.5167 90.9259 28.4299 90.8872 28.3409 90.8537C28.211 90.412 28.0559 89.9781 27.8763 89.5542C28.5113 89.4357 29.1241 89.2196 29.6929 88.9137L30.269 89.2618C30.2168 89.2547 30.1636 89.2606 30.1142 89.2789C30.0647 89.2973 30.0206 89.3275 29.9857 89.367C29.9507 89.4065 29.9261 89.454 29.9139 89.5052C29.9018 89.5565 29.9025 89.61 29.9159 89.6609C30.0321 90.125 30.1529 90.5891 30.2737 91.0532C29.8695 91.1321 29.4653 91.1971 29.0564 91.2574C28.9077 91.1314 28.7475 91.0195 28.5779 90.9233L28.6011 90.9697ZM29.9113 92.441C29.8429 92.2794 29.7605 92.1241 29.6651 91.9769C29.9299 91.9444 30.1947 91.9165 30.4549 91.8701L30.5106 92.1021C30.571 92.3342 30.6268 92.5663 30.6825 92.8216C30.3991 92.6498 30.1436 92.5199 29.8881 92.3945L29.9113 92.441ZM30.9427 90.9094L30.5013 89.4706C30.4871 89.4397 30.47 89.4102 30.4502 89.3824C31.0821 89.7584 31.7279 90.1111 32.383 90.4545C32.0067 90.5891 31.6304 90.7377 31.254 90.8398C31.1286 90.8212 31.0403 90.8398 30.9195 90.863L30.9427 90.9094ZM33.2193 93.8844C32.7036 93.6848 32.1925 93.4759 31.6815 93.2578C31.556 92.7937 31.3841 92.3296 31.2168 91.8654L31.175 91.7262C31.9701 91.6127 32.74 91.3647 33.4516 90.9929C33.6653 91.095 33.8744 91.2064 34.0928 91.3039C33.7861 92.1207 33.4888 92.9793 33.1961 93.8519L33.2193 93.8844ZM40.5323 74.7489C38.4787 79.9609 36.3508 85.2008 34.4087 90.501C26.9514 86.7197 20.7607 80.8468 16.5956 73.6025C27.6692 67.4535 38.3047 60.548 48.426 52.9354C40.6624 63.2156 32.922 73.5421 25.5068 84.0776C25.3209 84.3421 25.767 84.667 25.9714 84.4117C34.0696 74.0294 41.8564 63.3873 49.6061 52.7405C46.453 60.0023 43.4206 67.323 40.5091 74.7024L40.5323 74.7489ZM37.2243 97.4209C37.3218 97.1842 37.4101 96.9568 37.503 96.7016C37.726 96.5762 37.9676 96.4416 38.1674 96.307C38.2726 96.8835 38.4571 97.4426 38.7157 97.9686C38.1953 97.7505 37.6982 97.5648 37.201 97.3745L37.2243 97.4209ZM39.4079 97.8201C39.3014 97.1542 39.0996 96.5071 38.8086 95.8986C39.5652 95.4109 40.2801 94.8614 40.9458 94.2557C40.9879 94.2171 41.0178 94.1672 41.0318 94.112C41.0458 94.0567 41.0434 93.9986 41.0248 93.9447C42.6612 94.4427 44.3259 94.8425 46.01 95.1421C45.2202 95.5227 44.4675 96.01 43.687 96.4185L43.3153 96.6087C42.9057 95.8538 42.4283 95.1377 41.889 94.4692C41.7914 94.3578 41.6102 94.4692 41.652 94.6177C41.9505 95.4093 42.3207 96.172 42.7578 96.8965C42.2932 97.1193 41.875 97.3606 41.4383 97.5695C40.7573 97.3921 40.0353 97.4646 39.4033 97.7737L39.4079 97.8201ZM43.1899 99.2496C43.0455 98.8132 42.793 98.4204 42.4558 98.1078C42.4233 98.0753 42.3861 98.0568 42.3536 98.0289C42.6277 97.8943 42.9018 97.7644 43.1759 97.6251C43.4779 98.2146 43.7613 98.8736 44.1051 99.4816C43.7799 99.3517 43.4733 99.2774 43.1666 99.2031L43.1899 99.2496ZM49.0068 100.224C47.7245 100.094 46.4375 99.9132 45.1598 99.6719C44.7747 98.8461 44.3077 98.0609 43.766 97.3281L43.9704 97.226C45.0997 96.7297 46.169 96.1068 47.1576 95.3695V95.3417C47.3528 95.3695 47.5433 95.402 47.7384 95.4252C48.0277 96.2622 48.3787 97.0767 48.7884 97.8618L48.965 98.2146C48.5793 98.6044 48.1937 98.9943 47.8174 99.3888C47.5618 99.658 47.9614 100.015 48.2309 99.7786L49.2763 98.8179C49.4329 99.1174 49.6099 99.4058 49.8059 99.6812C49.5111 99.8099 49.2346 99.9768 48.9835 100.178L49.0068 100.224ZM51.9338 99.3563C51.5612 99.282 51.1775 99.282 50.8048 99.3563C50.7353 99.3495 50.6653 99.3495 50.5957 99.3563C50.3681 98.9943 50.0986 98.6508 49.8384 98.3028C50.7305 97.472 51.6132 96.6319 52.4774 95.7826C53.8465 95.8135 55.2155 95.7811 56.5846 95.6851C56.0177 96.2792 55.4881 96.9058 54.977 97.5416C54.4381 96.9522 53.8341 96.2467 53.2022 95.9636C52.5703 95.6805 51.9152 96.2189 52.4263 96.7526C52.5425 96.8779 52.7562 96.7062 52.654 96.5669C52.8123 96.5653 52.968 96.6079 53.1035 96.6899C53.2389 96.7719 53.3487 96.8901 53.4206 97.0311C53.6111 97.2446 53.8062 97.4488 54.006 97.653L54.4938 98.1681C54.0447 98.756 53.608 99.3578 53.1836 99.9736C52.8246 99.6451 52.3857 99.4163 51.9106 99.3099L51.9338 99.3563ZM53.704 100.442C54.1407 99.8668 54.5914 99.3145 55.0514 98.7622C55.5392 99.2867 56.0177 99.8343 56.5428 100.322C55.5764 100.35 54.6332 100.391 53.6808 100.396L53.704 100.442ZM57.6067 100.238C56.974 99.5032 56.291 98.8131 55.5624 98.1728C56.2129 97.4116 56.8773 96.6644 57.551 95.9126L58.141 100.21C57.9319 100.168 57.7554 100.173 57.5835 100.192L57.6067 100.238ZM62.1692 93.4806C61.3794 87.7565 60.5926 82.0324 59.809 76.3083C59.1523 71.5588 58.4988 66.8094 57.8483 62.0599C57.3465 58.4073 56.9841 54.7872 55.5253 51.4177C63.8883 62.2502 72.2512 73.1105 80.3494 84.1426C80.3757 84.1752 80.4071 84.2034 80.4423 84.2261C75.2289 88.7993 68.9434 91.9826 62.1692 93.4806ZM78.4306 87.6327C78.175 88.5331 77.8916 89.4242 77.5478 90.3014C77.5246 90.3571 77.4967 90.4313 77.4688 90.5149C76.6604 90.2921 75.8473 90.0833 75.0343 89.8744C76.2097 89.1829 77.3434 88.4403 78.4306 87.6327ZM72.9482 92.6312C72.2884 92.4085 71.6194 92.1996 70.9596 91.9954C71.7618 91.6334 72.5532 91.2435 73.3338 90.8258C73.2409 91.434 73.1153 92.0366 72.9574 92.6312H72.9482ZM62.3597 94.8451C63.3307 94.6409 64.2925 94.381 65.2449 94.1071L65.3889 94.2C65.2092 94.9061 64.9358 95.5851 64.5759 96.2189C63.8279 95.7547 63.0891 95.3278 62.3597 94.859V94.8451ZM62.8243 98.2331C62.7081 97.3745 62.5873 96.5159 62.4712 95.6573C63.0194 96.0564 63.5816 96.4602 64.1484 96.8547C63.7535 97.3606 63.2703 97.7644 62.8336 98.2331H62.8243ZM62.9776 99.347C62.9776 99.2867 62.9776 99.2217 62.9776 99.1614C63.8276 98.8223 64.5292 98.1922 64.9569 97.3838C65.5051 97.7365 66.058 98.0753 66.6202 98.377C65.4215 98.7483 64.2088 99.0778 62.9869 99.347H62.9776ZM66.7224 97.537C66.2578 97.2353 65.7932 96.9429 65.3285 96.6598C65.6144 95.9738 65.8066 95.2526 65.9 94.5156L67.6795 95.6666L67.8467 95.7733C67.4797 96.372 67.0708 96.9336 66.7317 97.537H66.7224ZM67.9768 95.0771L65.9372 93.9169C66.9407 93.6013 67.9397 93.2532 68.92 92.8633C68.7431 93.6612 68.4846 94.4388 68.1487 95.1839L67.9768 95.0771ZM67.5122 98.0707L67.3914 97.9871C67.8557 97.469 68.2338 96.8799 68.5111 96.2421C68.9925 96.5786 69.4989 96.878 70.0258 97.1378C69.2173 97.472 68.381 97.7876 67.5354 98.0707H67.5122ZM70.7645 96.8269C70.1583 96.3163 69.4921 95.8815 68.7806 95.532C69.1125 94.5965 69.3278 93.6239 69.4218 92.6359C69.6634 92.5384 69.9096 92.4456 70.1512 92.3435C70.9736 92.7148 71.8145 93.0954 72.6647 93.4481C72.3342 94.1834 72.0729 94.9479 71.8842 95.7315C71.8377 96.0239 72.2234 96.2978 72.4417 96.0286C72.9484 95.3627 73.3078 94.5971 73.4964 93.7822C74.1731 94.0462 74.8651 94.2693 75.5686 94.4506C74.0297 95.3391 72.4377 96.1327 70.8017 96.8269H70.7645ZM76.6604 93.7822L76.4327 93.8751C76.3056 93.9341 76.1856 94.0073 76.075 94.0932C76.0698 94.0445 76.0527 93.9978 76.0252 93.9574C75.9976 93.9169 75.9604 93.8838 75.917 93.8612C75.1977 93.496 74.4559 93.1767 73.6962 92.9051C73.8314 92.1039 73.9121 91.2945 73.9378 90.4824L74.3234 90.2735C75.2526 90.5938 76.2376 90.9047 77.1993 91.2018C77.0169 91.8015 76.7375 92.3675 76.3723 92.8772C76.3207 92.8719 76.2686 92.8787 76.2202 92.8973C76.1717 92.9158 76.1284 92.9455 76.0936 92.984L76.0332 93.0582C75.9838 93.1097 75.9492 93.1735 75.9329 93.2428C75.9165 93.3122 75.9191 93.3847 75.9403 93.4527L75.9774 93.5363C76.0136 93.6403 76.0878 93.7269 76.1852 93.7785C76.2826 93.8302 76.3959 93.8431 76.5024 93.8147C77.283 93.643 77.4642 92.3342 77.7011 91.6891C77.7383 91.5916 77.7708 91.4895 77.8033 91.3921L79.4852 91.9072C78.6071 92.5802 77.6593 93.1928 76.6976 93.7822H76.6604ZM80.2936 91.3132L78.0496 90.6866C78.4153 89.5639 78.7056 88.4181 78.9184 87.2568C79.0206 87.1779 79.1228 87.1129 79.225 87.034C79.62 87.1454 80.0428 87.2011 80.3308 87.2846L81.2322 87.5631C80.9978 88.3022 80.8116 89.0556 80.6746 89.8187C80.6621 89.8948 80.6763 89.9729 80.7149 90.0398C80.7535 90.1066 80.814 90.1581 80.8862 90.1854C80.9584 90.2127 81.0379 90.2142 81.1111 90.1897C81.1843 90.1652 81.2468 90.1161 81.2879 90.0508C81.6491 89.348 81.8984 88.5932 82.0266 87.8137C82.6341 88.0129 83.2552 88.168 83.8851 88.2778C82.7557 89.3525 81.5692 90.3658 80.3308 91.3132H80.2936ZM84.5262 87.6559C83.7566 87.353 82.9602 87.123 82.1474 86.969C82.2385 86.1322 82.2727 85.2903 82.2497 84.4489C82.4587 84.2493 82.6725 84.0544 82.8769 83.8548C83.5459 84.0033 84.2707 84.1333 84.9723 84.2215C84.9763 84.9 85.0384 85.577 85.1581 86.245C85.1752 86.2987 85.2043 86.3477 85.2431 86.3885C85.282 86.4293 85.3297 86.4608 85.3825 86.4804C85.4353 86.5001 85.4919 86.5075 85.548 86.5021C85.6041 86.4967 85.6583 86.4786 85.7064 86.4492C85.3579 86.8623 84.963 87.2614 84.5634 87.6559H84.5262ZM85.8504 86.2961C85.8652 86.272 85.8747 86.2451 85.8783 86.2172C85.9614 85.588 85.9925 84.9532 85.9712 84.3189C86.5062 84.3608 87.0437 84.3608 87.5787 84.3189C87.0537 84.9919 86.4823 85.6556 85.8876 86.2961H85.8504ZM88.2571 83.4696C87.4843 83.4081 86.7089 83.388 85.934 83.4093C85.869 82.546 85.7621 81.6828 85.6599 80.8659L85.7249 80.7916C86.6154 80.9912 87.5257 81.0893 88.4383 81.084C88.4754 81.7616 88.5033 82.4439 88.5358 83.1401C88.4754 83.2514 88.3825 83.3582 88.2942 83.4696H88.2571ZM89.3768 81.9798C89.3768 81.6827 89.3257 81.3857 89.2885 81.084C89.5069 81.084 89.7531 81.084 89.9994 81.084C89.8321 81.3903 89.6277 81.6874 89.4139 81.9798H89.3768ZM92.2759 77.3711C91.7602 78.2993 91.212 79.2276 90.6359 80.1233C90.5508 80.0835 90.458 80.0629 90.3641 80.0629C90.2701 80.0629 90.1774 80.0835 90.0923 80.1233C89.8089 80.1558 89.5208 80.1836 89.2328 80.2068H89.1631C88.9756 79.1608 88.7195 78.1283 88.3965 77.1158C88.9447 76.2619 89.4697 75.3986 89.9482 74.5168L91.7416 74.2105C91.7444 74.844 91.7894 75.4766 91.8764 76.1041C91.9414 76.4522 92.5082 76.4104 92.564 76.0762C92.6663 75.4071 92.6663 74.7264 92.564 74.0573C93.0797 73.9552 93.5908 73.8392 94.0926 73.7C93.5536 74.9577 92.9543 76.183 92.3131 77.3711H92.2759ZM94.5525 72.7299C93.8251 72.8404 93.1051 72.9954 92.3968 73.1941C92.224 72.4307 91.9942 71.6813 91.7091 70.9524C91.9972 70.2747 92.2806 69.5972 92.5361 68.9056C93.0695 68.838 93.5974 68.7326 94.1158 68.59C94.2459 69.3326 94.376 70.0752 94.52 70.8131C94.6269 71.3654 95.4492 71.0962 95.3563 70.5532C95.2262 69.8106 95.0776 69.0681 94.9289 68.3301H94.9568C95.5229 68.1298 96.0715 67.883 96.5968 67.5922C96.0161 69.3094 95.3331 71.0359 94.5897 72.7206L94.5525 72.7299ZM97.015 66.353C96.2437 66.6779 95.5654 67.2209 94.7848 67.5643C94.5525 66.4412 94.3078 65.3195 94.0508 64.1995C94.1623 63.7818 94.2691 63.3594 94.376 62.9371H94.4132C95.0171 62.5936 95.6072 62.227 96.1926 61.851C96.4186 62.6036 96.6949 63.3401 97.0196 64.0556C97.2194 64.4779 97.7816 64.1252 97.7072 63.74C97.5493 62.9139 97.3356 62.0878 97.0986 61.2616L97.1358 61.2338C97.6794 60.8718 98.2694 60.5051 98.8037 60.0967C98.3391 62.1899 97.7351 64.283 97.0521 66.3437L97.015 66.353Z" fill="#CE364C" fill-opacity="0.54"/>
</svg>
